<?xml version="1.0" encoding="UTF-8" standalone="no"?> <svg xmlns="http://www.w3.org/2000/svg" xmlns:xlink="http://www.w3.org/1999/xlink" version="1.1"><metadata> Created by FontForge 20170731 at Wed Apr 17 18:17:19 2019 By Aleksey,,, Copyright (c) 2004-7 by Kris Sowersby. All rights reserved. </metadata><defs><font id="National-RegularItalic"><glyph glyph-name="f_b" unicode="fb" d="M440 177q-4 -22 0 -44t15.5 -40t30.5 -29.5t46 -11.5q35 0 62.5 18t46 49t28.5 72t10 86q0 58 -23.5 91t-68.5 33q-47 0 -84.5 -38t-48.5 -102zM419 582q-17 11 -40 18t-46 7q-38 0 -65.5 -20.5t-37.5 -74.5l-9 -50h94l-13 -72h-94l-85 -487q-6 -35 -17 -57t-27 -34.5 t-36.5 -17.5t-45.5 -5q-26 0 -48 6.5t-37 18.5l20 69q27 -23 54 -23q20 0 31 9.5t16 36.5l86 484h-71l14 72h69l9 52q9 45 27 76t42.5 50t54.5 27t62 8q29 0 60.5 -7t47.5 -16l92 16l-52 -295q45 100 149 100q72 0 112 -48.5t40 -142.5q0 -62 -16 -115.5t-46 -93.5 t-72.5 -62.5t-96.5 -22.5q-51 0 -85 24t-42 62l-32 -74h-67z"></glyph><glyph glyph-name="f_f_b" unicode="ffb" d="M707 177q-4 -22 0 -44t15.5 -40t31 -29.5t46.5 -11.5q35 0 62.5 18t46 49t28.5 72t10 86q0 58 -23.5 91t-68.5 33q-47 0 -84.5 -38t-48.5 -102zM687 582q-17 11 -40.5 18t-45.5 7q-38 0 -65.5 -20.5t-37.5 -74.5l-9 -50h92l-13 -72h-92l-84 -474q-6 -35 -17 -57 t-26.5 -34.5t-36 -17.5t-45.5 -5q-54 0 -85 25l19 69q27 -23 54 -23q20 0 31 9.5t16 36.5l85 471h-179l-85 -487q-6 -35 -17 -57t-27 -34.5t-36.5 -17.5t-45.5 -5q-26 0 -48 6.5t-37 18.5l20 69q27 -23 54 -23q20 0 31 9.5t16 36.5l86 484h-71l14 72h69l11 63q14 77 52 110 t96 33q29 0 50.5 -6.5t44.5 -21.5l-34 -75q-14 14 -26 20.5t-31 6.5q-28 0 -41.5 -17t-20.5 -52l-11 -61h178l9 52q9 45 27 76t42.5 50t54.5 27t62 8q29 0 60.5 -7t47.5 -16l92 16l-52 -295q45 100 148 100q72 0 112 -48.5t40 -142.5q0 -62 -16 -115.5t-45.5 -93.5 t-72 -62.5t-96.5 -22.5q-51 0 -85.5 24t-41.5 62l-33 -74h-66z"></glyph><glyph glyph-name="f_f_h" unicode="ffh" d="M687 582q-17 11 -40.5 18t-45.5 7q-38 0 -65.5 -20.5t-37.5 -74.5l-9 -50h92l-13 -72h-92l-84 -474q-6 -35 -17 -57t-26.5 -34.5t-36 -17.5t-45.5 -5q-54 0 -85 25l19 69q27 -23 54 -23q20 0 31 9.5t16 36.5l85 471h-179l-85 -487q-6 -35 -17 -57t-27 -34.5t-36.5 -17.5 t-45.5 -5q-26 0 -48 6.5t-37 18.5l20 69q27 -23 54 -23q20 0 31 9.5t16 36.5l86 484h-71l14 72h69l11 63q14 77 52 110t96 33q29 0 50.5 -6.5t44.5 -21.5l-34 -75q-14 14 -26 20.5t-31 6.5q-28 0 -41.5 -17t-20.5 -52l-11 -61h178l9 52q9 45 27 76t42.5 50t54.5 27t62 8 q29 0 60.5 -7t47.5 -16l92 16l-54 -300q24 51 60 78t88 27q54 0 86.5 -28.5t32.5 -82.5q0 -9 -1 -19t-3 -25l-36 -207q-3 -17 0.5 -31t26.5 -14q6 0 13 1.5t16 3.5l-13 -67q-12 -5 -26 -7t-28 -2q-53 0 -71.5 28t-9.5 79l37 208q7 39 -6 63t-54 24q-18 0 -38 -7t-38.5 -24 t-33.5 -45t-22 -70l-44 -251h-91z"></glyph><glyph glyph-name="f_f_j" unicode="ffj" d="M476 390l-84 -474q-6 -35 -17 -57t-26.5 -34.5t-36 -17.5t-45.5 -5q-54 0 -85 25l19 69q27 -23 54 -23q20 0 31 9.5t16 36.5l85 471h-179l-85 -487q-6 -35 -17 -57t-27 -34.5t-36.5 -17.5t-45.5 -5q-26 0 -48 6.5t-37 18.5l20 69q27 -23 54 -23q20 0 31 9.5t16 36.5 l86 484h-71l14 72h69l11 63q14 77 52 110t96 33q29 0 50.5 -6.5t44.5 -21.5l-34 -75q-14 14 -26 20.5t-31 6.5q-28 0 -41.5 -17t-20.5 -52l-11 -61h178l9 51q9 45 26 76t40.5 50t52.5 27.5t61 8.5q66 0 115 -30l-33 -76q-18 14 -36 22.5t-45 8.5q-35 0 -58.5 -20t-33.5 -73 l-8 -45h269l-96 -546q-6 -35 -17.5 -57t-27.5 -34.5t-36.5 -17.5t-45.5 -5q-53 0 -86 25l20 69q27 -23 54 -23q20 0 31 9.5t16 36.5l85 471h-179z"></glyph><glyph glyph-name="f_f_k" unicode="ffk" d="M687 582q-17 11 -40.5 18t-45.5 7q-38 0 -65.5 -20.5t-37.5 -74.5l-9 -50h92l-13 -72h-92l-84 -474q-6 -35 -17 -57t-26.5 -34.5t-36 -17.5t-45.5 -5q-54 0 -85 25l19 69q27 -23 54 -23q20 0 31 9.5t16 36.5l85 471h-179l-85 -487q-6 -35 -17 -57t-27 -34.5t-36.5 -17.5 t-45.5 -5q-26 0 -48 6.5t-37 18.5l20 69q27 -23 54 -23q20 0 31 9.5t16 36.5l86 484h-71l14 72h69l11 63q14 77 52 110t96 33q29 0 50.5 -6.5t44.5 -21.5l-34 -75q-14 14 -26 20.5t-31 6.5q-28 0 -41.5 -17t-20.5 -52l-11 -61h178l9 52q9 45 27 76t42.5 50t54.5 27t62 8 q29 0 60.5 -7t47.5 -16l92 16l-67 -380h22l164 174h111l-203 -205l76 -156q14 -29 32 -32.5t51 4.5l-14 -69q-27 -9 -57 -9q-27 0 -47.5 11.5t-34.5 42.5l-84 172h-28l-39 -221h-91z"></glyph><glyph glyph-name="f_h" unicode="fh" d="M419 582q-17 11 -40 18t-46 7q-38 0 -65.5 -20.5t-37.5 -74.5l-9 -50h94l-13 -72h-94l-85 -487q-6 -35 -17 -57t-27 -34.5t-36.5 -17.5t-45.5 -5q-26 0 -48 6.5t-37 18.5l20 69q27 -23 54 -23q20 0 31 9.5t16 36.5l86 484h-71l14 72h69l9 52q9 45 27 76t42.5 50t54.5 27 t62 8q29 0 60.5 -7t47.5 -16l92 16l-54 -300q24 51 60 78t89 27q54 0 86 -28.5t32 -82.5q0 -9 -0.5 -19t-3.5 -25l-36 -207q-3 -17 1 -31t26 -14q6 0 13 1.5t16 3.5l-13 -67q-24 -9 -54 -9q-52 0 -71 28t-10 79l37 208q8 39 -5.5 63t-54.5 24q-18 0 -38 -7t-38.5 -24 t-33.5 -45t-22 -70l-44 -251h-91z"></glyph><glyph glyph-name="f_j" unicode="fj" d="M394 -84q-6 -35 -17.5 -57t-27.5 -34.5t-36.5 -17.5t-45.5 -5q-54 0 -85 25l19 69q27 -23 54 -23q20 0 31 9.5t16 36.5l85 471h-179l-85 -487q-6 -35 -17 -57t-27 -34.5t-36.5 -17.5t-45.5 -5q-26 0 -48 6.5t-37 18.5l20 69q27 -23 54 -23q20 0 31 9.5t16 36.5l86 484 h-71l14 72h69l10 51q9 45 26 76t40 50t52 27.5t62 8.5t61 -7t54 -23l-34 -76q-18 14 -36 22.5t-45 8.5q-35 0 -58 -20t-33 -73l-9 -45h269z"></glyph><glyph glyph-name="f_k" unicode="fk" d="M419 582q-17 11 -40 18t-46 7q-38 0 -65.5 -20.5t-37.5 -74.5l-9 -50h92l-13 -72h-92l-85 -487q-6 -35 -17 -57t-27 -34.5t-36.5 -17.5t-45.5 -5q-26 0 -48 6.5t-37 18.5l20 69q27 -23 54 -23q20 0 31 9.5t16 36.5l86 484h-71l14 72h69l9 52q9 45 27 76t42.5 50t54.5 27 t62 8q29 0 60.5 -7t47.5 -16l92 16l-67 -380h22l164 174h111l-202 -205l75 -156q14 -29 32 -32.5t51 4.5l-14 -69q-27 -9 -57 -9q-27 0 -47.5 11.5t-34.5 42.5l-84 172h-28l-39 -221h-91z"></glyph><glyph glyph-name="ff" unicode="ff" d="M392 -84q-6 -35 -17 -57t-26.5 -34.5t-36 -17.5t-45.5 -5q-54 0 -85 25l19 69q27 -23 54 -23q20 0 31 9.5t16 36.5l85 471h-179l-85 -487q-6 -35 -17 -57t-27 -34.5t-36.5 -17.5t-45.5 -5q-26 0 -48 6.5t-37 18.5l20 69q27 -23 54 -23q20 0 31 9.5t16 36.5l86 484h-71 l14 72h69l11 63q14 77 52 110t96 33q29 0 50.5 -6.5t44.5 -21.5l-34 -75q-14 14 -26 20.5t-31 6.5q-28 0 -41.5 -17t-20.5 -52l-11 -61h178l11 59q15 85 59.5 119.5t107.5 34.5q59 0 109 -28l-33 -75q-18 13 -34.5 20t-38.5 7q-35 0 -54 -17.5t-27 -60.5l-10 -59h116 l-12 -72h-117z"></glyph><glyph glyph-name="ffi" unicode="ffi" d="M696 111q-3 -17 0.5 -31t25.5 -14q6 0 13 1.5t16 3.5l-12 -67q-26 -9 -55 -9q-52 0 -70.5 28t-9.5 79l50 288h-178l-84 -474q-6 -35 -17 -57t-26.5 -34.5t-36 -17.5t-45.5 -5q-54 0 -85 25l19 69q27 -23 54 -23q20 0 31 9.5t16 36.5l85 471h-179l-85 -487q-6 -35 -17 -57 t-27 -34.5t-36.5 -17.5t-45.5 -5q-26 0 -48 6.5t-37 18.5l20 69q27 -23 54 -23q20 0 31 9.5t16 36.5l86 484h-71l14 72h69l11 63q14 77 52 110t96 33q29 0 50.5 -6.5t44.5 -21.5l-34 -75q-14 14 -26 20.5t-31 6.5q-28 0 -41.5 -17t-20.5 -52l-11 -61h178l9 51q9 45 26 76 t40.5 50t52.5 27.5t61 8.5q66 0 115 -30l-33 -76q-18 14 -36 22.5t-45 8.5q-35 0 -58.5 -20t-33.5 -73l-8 -45h269z"></glyph><glyph glyph-name="ffl" unicode="ffl" d="M392 -84q-6 -35 -17 -57t-26.5 -34.5t-36 -17.5t-45.5 -5q-54 0 -85 25l19 69q27 -23 54 -23q20 0 31 9.5t16 36.5l85 471h-179l-85 -487q-6 -35 -17 -57t-27 -34.5t-36.5 -17.5t-45.5 -5q-26 0 -48 6.5t-37 18.5l20 69q27 -23 54 -23q20 0 31 9.5t16 36.5l86 484h-71 l14 72h69l11 63q14 77 52 110t96 33q29 0 50.5 -6.5t44.5 -21.5l-34 -75q-14 14 -26 20.5t-31 6.5q-28 0 -41.5 -17t-20.5 -52l-11 -61h178l9 52q9 45 27 76t42.5 50t54.5 27t62 8q29 0 60.5 -7t47.5 -16l92 16l-98 -557q-3 -17 0.5 -31t25.5 -14q6 0 13 1.5t16 3.5l-12 -67 q-26 -9 -55 -9q-52 0 -70.5 28t-9.5 79l83 480q-17 11 -40.5 18t-45.5 7q-38 0 -65.5 -20.5t-37.5 -74.5l-9 -50h93l-12 -72h-94z"></glyph><glyph glyph-name="fi" unicode="fi" d="M428 111q-3 -17 0.5 -31t25.5 -14q7 0 14 1.5t16 3.5l-13 -67q-12 -5 -26 -7t-28 -2q-53 0 -71.5 28t-9.5 79l50 288h-178l-85 -487q-6 -35 -17 -57t-27 -34.5t-36.5 -17.5t-45.5 -5q-26 0 -48 6.5t-37 18.5l20 69q27 -23 54 -23q20 0 31 9.5t16 36.5l86 484h-71l14 72 h69l10 51q9 45 26 76t40 50t52 27.5t62 8.5t61 -7t54 -23l-34 -76q-18 14 -36 22.5t-45 8.5q-35 0 -58 -20t-33 -73l-9 -45h269z"></glyph><glyph glyph-name="fl" unicode="fl" d="M123 -97q-6 -35 -17 -57t-27 -34.5t-36.5 -17.5t-45.5 -5q-26 0 -48 6.5t-37 18.5l20 69q27 -23 54 -23q20 0 31 9.5t16 36.5l86 484h-71l14 72h69l9 52q9 45 27 76t42.5 50t54.5 27t62 8q29 0 60.5 -7t47.5 -16l92 16l-98 -557q-3 -17 0.5 -31t25.5 -14q7 0 14 1.5 t16 3.5l-13 -67q-12 -5 -26 -7t-28 -2q-53 0 -71.5 28t-9.5 79l83 480q-17 11 -40 18t-46 7q-38 0 -65.5 -20.5t-37.5 -74.5l-9 -50h94l-13 -72h-94z"></glyph><glyph glyph-name=".notdef"></glyph><glyph glyph-name=".null"></glyph><glyph glyph-name=".null"></glyph><glyph glyph-name="nonmarkingreturn" unicode="&#13;"></glyph><glyph glyph-name="space" unicode=" "></glyph><glyph glyph-name="exclam" unicode="!" d="M238 589l-103 -415h-61l47 415h117zM23 56q0 27 18.5 44.5t45.5 17.5t45.5 -17.5t18.5 -44.5q0 -26 -18.5 -44t-45.5 -18t-45.5 18t-18.5 44z"></glyph><glyph glyph-name="quotedbl" unicode="&quot;" d="M121 668h98l-87 -256h-56zM269 668h98l-87 -256h-56z"></glyph><glyph glyph-name="numbersign" unicode="#" d="M397 144l-68 -144h-79l68 144h-97l-68 -144h-79l68 144h-104l12 67h124l41 87h-129l11 67h150l55 116h81l-56 -116h96l55 116h80l-56 -116h112l-12 -67h-132l-41 -87h138l-12 -67h-158zM253 211h97l41 87h-96z"></glyph><glyph glyph-name="dollar" unicode="$" d="M91 142q0 -38 24 -61t57 -30l29 161q-18 6 -34 14q-45 20 -67 48t-22 72q0 38 14 65t37.5 45t54.5 26.5t66 10.5l15 81h50l-15 -83q66 -8 100 -40t34 -88l-80 -16q1 29 -16.5 50t-49.5 29l-27 -150l5 -1q69 -26 95 -58t26 -82q0 -36 -13.5 -63t-37 -45t-55.5 -27.5 t-70 -10.5l-16 -95h-50l17 96q-67 7 -107 41t-41 91zM303 124q0 25 -11.5 40.5t-44.5 30.5l-25 -145q35 3 58 20t23 54zM161 360q0 -23 12 -37t42 -28l24 133q-78 -8 -78 -68z"></glyph><glyph glyph-name="percent" unicode="%" d="M163 229q-62 0 -92 40t-30 106q0 39 10.5 78.5t31 71.5t51.5 52t73 20q59 0 90.5 -41t31.5 -109q0 -39 -10 -78t-31 -70t-52 -50.5t-73 -19.5zM200 534q-26 0 -42.5 -17.5t-26.5 -42.5t-14 -51.5t-4 -45.5q0 -39 14.5 -64.5t43.5 -25.5q25 0 42 18t27 43.5t14 52.5t4 46 q0 39 -14 63t-44 24zM604 590h65l-409 -590h-66zM654 -7q-62 0 -92 40t-30 106q0 39 10.5 78.5t31 71.5t51.5 52t73 20q59 0 90.5 -41t31.5 -109q0 -39 -10 -78t-31 -70t-52 -50.5t-73 -19.5zM691 298q-26 0 -42.5 -17.5t-26.5 -42.5t-14 -51.5t-4 -45.5q0 -39 14.5 -64.5 t43.5 -25.5q25 0 42 18t27 43.5t14 52.5t4 46q0 39 -14 63t-44 24z"></glyph><glyph glyph-name="ampersand" unicode="&amp;" d="M450 -9l-59 71q-87 -74 -204 -74q-81 0 -125.5 35.5t-44.5 106.5q0 68 46 111t126 73l-23 29q-20 25 -33 52t-13 62t14.5 62t39 45t56.5 27.5t66 9.5q74 0 111 -35t37 -93q0 -57 -39 -97.5t-104 -66.5l103 -127q14 20 25 50.5t18 60.5l79 -22q-11 -37 -30.5 -76.5 t-45.5 -68.5l69 -80zM105 137q0 -35 24 -58t67 -23q46 0 84.5 16t69.5 43l-126 155q-25 -14 -46.5 -27t-37.5 -28t-25.5 -34t-9.5 -44zM288 538q-35 0 -58.5 -20t-24.5 -55q0 -32 26 -64l33 -45q48 23 72 50t24 65q0 33 -17.5 51t-54.5 18z"></glyph><glyph glyph-name="quotesingle" unicode="'" d="M121 668h98l-87 -256h-56z"></glyph><glyph glyph-name="parenleft" unicode="(" d="M157 145q0 -47 6 -90t19 -85t33 -84.5t49 -87.5h-93q-48 74 -75.5 157.5t-27.5 186.5q0 80 18.5 155.5t51.5 143.5t78 125.5t99 101.5h104q-53 -47 -100.5 -101t-83.5 -118t-57 -139t-21 -165z"></glyph><glyph glyph-name="parenright" unicode=")" d="M191 321q0 46 -6 89.5t-19 85.5t-33.5 84.5t-49.5 87.5h94q48 -74 75 -157.5t27 -186.5q0 -80 -18.5 -155.5t-51.5 -143.5t-78 -125.5t-99 -101.5h-104q52 47 100 101t84 118t57.5 139t21.5 165z"></glyph><glyph glyph-name="asterisk" unicode="*" d="M246 483l99 20l5 -72l-102 9l49 -92l-70 -27l-23 100l-70 -75l-45 59l87 54l-93 43l40 60l77 -66l13 101l72 -19z"></glyph><glyph glyph-name="plus" unicode="+" d="M223 275l30 170h57l-30 -170h177l-9 -54h-177l-33 -184h-57l32 184h-173l9 54h174z"></glyph><glyph glyph-name="comma" unicode="," d="M191 33q0 -37 -14 -64t-37.5 -45t-55 -27t-65.5 -11v43q19 2 38 8t34 15t24.5 22t9.5 30q-32 -6 -52 10t-20 45q0 30 18.5 46t47.5 16q32 0 52 -23t20 -65z"></glyph><glyph glyph-name="hyphen" unicode="-" d="M81 295h230l-13 -76h-230z"></glyph><glyph glyph-name="period" unicode="." d="M46 62q0 29 19.5 48.5t48.5 19.5t48.5 -19.5t19.5 -48.5t-19.5 -48.5t-48.5 -19.5t-48.5 19.5t-19.5 48.5z"></glyph><glyph glyph-name="slash" unicode="/" d="M339 669h84l-426 -872h-82z"></glyph><glyph glyph-name="zero" unicode="0" d="M265 -12q-58 0 -99 18.5t-67.5 50t-38.5 71.5t-12 84q0 66 21 118t57.5 88t85 55.5t102.5 19.5q58 0 99.5 -18.5t68 -50t38.5 -72t12 -85.5q0 -65 -21 -116.5t-57.5 -87.5t-85 -55.5t-103.5 -19.5zM138 215q0 -67 33.5 -109t98.5 -42q37 0 68.5 15t54 42t35.5 63.5 t13 79.5q0 67 -34.5 109t-98.5 42q-38 0 -69 -15t-53.5 -42t-35 -63.5t-12.5 -79.5z"></glyph><glyph glyph-name="one" unicode="1" d="M115 0l70 395l-142 -25l14 75l237 44l-86 -489h-93z"></glyph><glyph glyph-name="two" unicode="2" d="M370 0h-362l12 70q70 33 124.5 64.5t92 64t57 67t19.5 73.5q0 36 -20 56t-57 20q-18 0 -34 -5t-28.5 -16.5t-20 -30.5t-8.5 -46l-83 21q5 46 24 76t45 47.5t56.5 24.5t58.5 7q78 0 120 -38t42 -109q0 -54 -27.5 -98t-69.5 -78t-92 -56.5t-96 -33.5v-4h260z"></glyph><glyph glyph-name="three" unicode="3" d="M214 184q81 -6 117.5 -44.5t36.5 -98.5q0 -46 -17 -79.5t-46.5 -55.5t-68 -33t-81.5 -11q-90 0 -134.5 38.5t-46.5 101.5l87 23q0 -47 27.5 -70t75.5 -23t79.5 26t31.5 78q0 22 -6.5 41t-23 34.5t-46 26t-75.5 14.5l11 69q102 10 143.5 41t41.5 84q0 37 -22.5 55.5 t-59.5 18.5q-42 0 -65.5 -24t-31.5 -66l-84 20q14 65 60 104t131 39q72 0 119 -33.5t47 -102.5q0 -82 -55 -125t-145 -44v-4z"></glyph><glyph glyph-name="four" unicode="4" d="M293 47h-285l11 60l350 374h91l-63 -363h97l-12 -71h-97l-32 -178h-92zM304 118l25 144q9 51 17 83q4 18 8 31h-4q-8 -11 -19 -25q-10 -12 -24 -29t-33 -39l-91 -102q-30 -33 -48 -48l-18 -15v-4q6 1 17 2q9 1 23.5 1.5t37.5 0.5h109z"></glyph><glyph glyph-name="five" unicode="5" d="M139 481h298l-13 -78h-220l-43 -191q14 11 34.5 18.5t46.5 7.5q36 0 63.5 -12.5t46 -34.5t27.5 -50.5t9 -61.5q0 -54 -18 -94.5t-49 -68t-73 -41t-89 -13.5q-84 0 -128.5 38.5t-44.5 101.5l85 23q0 -50 27.5 -71t72.5 -21q24 0 46.5 7.5t40 24t28.5 42t11 60.5 q0 49 -25 78t-70 29q-21 0 -36.5 -5.5t-28.5 -15.5h-68z"></glyph><glyph glyph-name="six" unicode="6" d="M434 448q-9 38 -33 59.5t-63 21.5t-73 -18.5t-61 -52.5t-45.5 -83.5t-26.5 -110.5h4q21 58 67 84t97 26q78 0 122.5 -44.5t44.5 -119.5q0 -50 -15.5 -90.5t-44 -70t-70 -45.5t-92.5 -16q-96 0 -146.5 57.5t-50.5 173.5q0 68 19 136t56 123t92 89t127 34q71 0 112.5 -29.5 t55.5 -84.5zM275 302q-27 0 -51 -9.5t-42 -27t-28.5 -42.5t-10.5 -57q0 -51 27.5 -79t75.5 -28q28 0 52 9.5t42 28t28 45t10 59.5q0 47 -27 74t-76 27z"></glyph><glyph glyph-name="seven" unicode="7" d="M137 402l-14 -75h-82l27 154h406l-11 -62l-332 -550h-97l280 464q13 21 22.5 34.5t16.5 21.5q8 9 13 14v4q-6 -2 -16 -3q-8 -1 -21 -1.5t-32 -0.5h-160z"></glyph><glyph glyph-name="eight" unicode="8" d="M219 -12q-88 0 -138.5 40t-50.5 105q0 67 38.5 110t100.5 56l1 5q-41 11 -62.5 42t-21.5 71q0 46 17.5 80.5t47.5 57.5t69.5 34.5t83.5 11.5q39 0 70.5 -10.5t54.5 -29.5t35.5 -46t12.5 -60q0 -30 -10 -56t-27.5 -46t-41.5 -33.5t-51 -19.5v-5q44 -14 70 -47.5t26 -81.5 t-19 -82t-50.5 -55.5t-72 -31t-82.5 -9.5zM294 532q-54 0 -84.5 -32t-30.5 -80q0 -44 25 -64t62 -20q54 0 85 32t31 82q0 35 -21.5 58.5t-66.5 23.5zM253 262q-27 0 -50.5 -8t-40.5 -23t-27 -36.5t-10 -48.5q0 -42 27 -66t72 -24q57 0 92.5 30.5t35.5 85.5q0 44 -28.5 67 t-70.5 23z"></glyph><glyph glyph-name="nine" unicode="9" d="M71 19q14 -38 43 -61.5t72 -23.5q78 0 129.5 67.5t68.5 213.5h-4q-10 -30 -26.5 -51t-37.5 -34.5t-45 -19.5t-49 -6q-80 0 -126 46.5t-46 123.5q0 48 15.5 88t44 69.5t70 45.5t92.5 16q96 0 146 -59.5t50 -174.5q0 -81 -18.5 -153t-54.5 -126.5t-90 -86t-125 -31.5 q-70 0 -114 29t-63 85zM241 177q27 0 51 9.5t41.5 27t28 43t10.5 57.5q0 51 -27.5 79.5t-79.5 28.5q-26 0 -49 -10t-40.5 -28t-27.5 -44.5t-10 -59.5q0 -46 27 -74.5t76 -28.5z"></glyph><glyph glyph-name="colon" unicode=":" d="M46 62q0 29 19.5 48.5t48.5 19.5t48.5 -19.5t19.5 -48.5t-19.5 -48.5t-48.5 -19.5t-48.5 19.5t-19.5 48.5zM108 414q0 29 19.5 48.5t48.5 19.5t48.5 -19.5t19.5 -48.5t-19.5 -48.5t-48.5 -19.5t-48.5 19.5t-19.5 48.5z"></glyph><glyph glyph-name="semicolon" unicode=";" d="M191 33q0 -37 -14 -64t-37.5 -45t-55 -27t-65.5 -11v43q19 2 38 8t34 15t24.5 22t9.5 30q-32 -6 -52 10t-20 45q0 30 18.5 46t47.5 16q32 0 52 -23t20 -65zM114 414q0 29 19 48.5t48 19.5t49 -19.5t20 -48.5t-20 -48.5t-49 -19.5t-48 19.5t-19 48.5z"></glyph><glyph glyph-name="less" unicode="&lt;" d="M150 240l167 -163l-45 -44l-214 214l290 212l35 -49z"></glyph><glyph glyph-name="equal" unicode="=" d="M40 154l9 53h408l-9 -53h-408zM63 285l9 53h408l-9 -53h-408z"></glyph><glyph glyph-name="greater" unicode="&gt;" d="M266 251l-168 164l45 44l214 -214l-290 -212l-35 49z"></glyph><glyph glyph-name="question" unicode="?" d="M63 460q20 64 66 102.5t127 38.5q85 0 129.5 -42.5t44.5 -119.5q0 -50 -18.5 -86t-48 -59.5t-65.5 -35t-71 -11.5l-15 -82h-82l25 135h27q31 0 59 7t49 22.5t33.5 40t12.5 60.5q0 45 -23.5 69.5t-68.5 24.5q-81 0 -105 -94zM93 56q0 27 18 44.5t45 17.5t45.5 -17.5 t18.5 -44.5q0 -26 -18.5 -44t-45.5 -18t-45 18t-18 44z"></glyph><glyph glyph-name="at" unicode="@" d="M521 223q5 27 0.5 48.5t-15 36.5t-26.5 23t-34 8q-51 0 -84.5 -47.5t-33.5 -129.5q0 -47 16 -75t55 -28q19 0 37.5 7t34 22t27 38t16.5 55zM612 -12q-46 0 -75.5 20.5t-31.5 71.5q-9 -28 -22.5 -45.5t-30.5 -28t-36.5 -14.5t-40.5 -4q-64 0 -100.5 44t-36.5 128 q0 57 15.5 102.5t41.5 78t60.5 49.5t73.5 17q41 0 73.5 -20t38.5 -65l34 79h67l-56 -287q-5 -35 6 -51t41 -16q28 0 52.5 15.5t41.5 43.5t27 66.5t10 84.5q0 72 -25.5 125t-68.5 87.5t-99.5 51.5t-117.5 17q-65 0 -125.5 -21t-107 -63t-75 -105.5t-28.5 -149.5 q0 -89 28.5 -153t78 -105.5t115.5 -61.5t140 -20q48 0 92.5 6.5t91.5 23.5l15 -59q-46 -15 -96 -23t-104 -8q-86 0 -164.5 22t-138 70t-95 124t-35.5 184q0 87 29 160t82.5 125.5t129.5 82t170 29.5q95 0 166 -27t118 -72t70.5 -104.5t23.5 -124.5q0 -60 -13.5 -111.5 t-41.5 -89t-69.5 -58.5t-97.5 -21z"></glyph><glyph glyph-name="A" unicode="A" d="M404 161h-241l-84 -161h-100l318 589h121l110 -589h-96zM202 237h188q-12 58 -20 110t-13.5 92t-7.5 63.5l-2 23.5h-4q-6 -20 -17 -44q-9 -21 -22.5 -49t-31.5 -63z"></glyph><glyph glyph-name="B" unicode="B" d="M356 297q55 -5 83.5 -34t28.5 -79q0 -49 -17 -83.5t-47 -57t-72 -33t-91 -10.5h-203l103 589h187q87 0 124.5 -35t37.5 -97q0 -36 -11 -63.5t-29 -47t-42.5 -31t-51.5 -14.5v-4zM277 331q51 0 84 24t33 83q0 39 -22 56.5t-68 17.5h-82l-32 -181h87zM146 77h105 q26 0 48.5 5t39.5 17t27 32t10 50q0 35 -20 56t-74 21h-104z"></glyph><glyph glyph-name="C" unicode="C" d="M514 115q-35 -63 -91 -95t-139 -32q-55 0 -98 17.5t-72 49t-44.5 75.5t-15.5 98q0 88 24 157.5t65.5 117.5t96 73t116.5 25q85 0 134.5 -37.5t65.5 -109.5l-94 -36q-8 53 -38.5 78.5t-75.5 25.5q-48 0 -84.5 -23.5t-62 -63.5t-38.5 -92t-13 -109q0 -77 36.5 -122.5 t106.5 -45.5q47 0 81 18t65 72z"></glyph><glyph glyph-name="D" unicode="D" d="M232 77q46 0 87.5 16t72.5 50t49 86.5t18 126.5q0 84 -44.5 120t-119.5 36h-73l-76 -435h86zM38 0l103 589h169q127 0 187.5 -58.5t60.5 -166.5q0 -99 -28 -168.5t-74 -113t-104.5 -63t-119.5 -19.5h-194z"></glyph><glyph glyph-name="E" unicode="E" d="M401 0h-363l103 589h363l-14 -80h-269l-30 -174h237l-14 -80h-237l-31 -175h268z"></glyph><glyph glyph-name="F" unicode="F" d="M38 0l103 589h347l-15 -80h-252l-31 -180h221l-14 -80h-221l-44 -249h-94z"></glyph><glyph glyph-name="G" unicode="G" d="M556 304l-53 -304h-67l-4 74q-18 -39 -55.5 -62.5t-95.5 -23.5q-54 0 -96 17.5t-71.5 49t-44.5 75.5t-15 98q0 88 24.5 157.5t65.5 117.5t96 73t117 25q85 0 134 -37.5t66 -109.5l-94 -36q-8 52 -38.5 78t-75.5 26q-48 0 -85 -23.5t-62.5 -63.5t-38.5 -91.5t-13 -108.5 q0 -78 36 -124t110 -46q55 0 96 28.5t53 97.5l6 33h-143l14 80h234z"></glyph><glyph glyph-name="H" unicode="H" d="M38 0l103 589h94l-43 -250h278l44 250h94l-103 -589h-94l45 259h-279l-45 -259h-94z"></glyph><glyph glyph-name="I" unicode="I" d="M235 589l-103 -589h-94l103 589h94z"></glyph><glyph glyph-name="J" unicode="J" d="M421 589l-76 -431q-16 -93 -63 -131.5t-133 -38.5q-71 0 -111.5 33.5t-54.5 87.5l76 50q21 -96 96 -96q25 0 41.5 6.5t27.5 20t17.5 34t11.5 49.5l74 416h94z"></glyph><glyph glyph-name="K" unicode="K" d="M370 0l-140 259h-53l-45 -259h-94l103 589h94l-43 -251h43l216 251h112l-254 -287l167 -302h-106z"></glyph><glyph glyph-name="L" unicode="L" d="M235 589l-89 -509h261l-13 -80h-356l103 589h94z"></glyph><glyph glyph-name="M" unicode="M" d="M308 144l-72 198q-9 23 -14 43.5t-8 34.5q-4 17 -4 30h-4q0 -11 -2 -27q-2 -14 -4.5 -34t-6.5 -46l-61 -343h-94l103 589h105l87 -261q6 -20 10 -36t6 -27q3 -13 4 -23h4q3 10 9 22q5 11 13.5 26t22.5 35l179 264h105l-103 -589h-95l61 343q4 26 8.5 46t7.5 34q4 16 7 27 h-4q-5 -12 -14 -28q-8 -14 -19 -33t-28 -43l-138 -202h-61z"></glyph><glyph glyph-name="N" unicode="N" d="M389 258q11 -25 19.5 -47t14.5 -39q7 -20 12 -38h4q2 20 5 43q2 20 6 45.5t9 53.5l55 313h94l-103 -589h-91l-158 328q-11 24 -20 46.5t-15 39.5q-7 20 -13 39h-4q-1 -19 -4 -42q-2 -20 -5 -45t-8 -54l-55 -312h-94l103 589h94z"></glyph><glyph glyph-name="O" unicode="O" d="M284 -12q-55 0 -98 17.5t-72 49t-44.5 76t-15.5 97.5q0 88 24 157.5t65.5 117.5t96 73t116.5 25q55 0 98.5 -17.5t72.5 -49.5t44.5 -76.5t15.5 -97.5q0 -89 -24.5 -158t-65.5 -116.5t-96.5 -72.5t-116.5 -25zM348 521q-48 0 -84.5 -23.5t-62 -63t-38.5 -91t-13 -108.5 q0 -78 36.5 -123.5t106.5 -45.5q46 0 83 23.5t62 63t38.5 91.5t13.5 109q0 35 -8 66t-25.5 53.5t-44.5 35.5t-64 13z"></glyph><glyph glyph-name="P" unicode="P" d="M183 292h79q66 0 101.5 35t35.5 102q0 42 -23 62.5t-76 20.5h-78zM38 0l103 589h173q96 0 138.5 -38t42.5 -114q0 -55 -18 -96.5t-49 -69t-74 -41.5t-92 -14h-92l-38 -216h-94z"></glyph><glyph glyph-name="Q" unicode="Q" d="M592 360q0 -85 -22.5 -152.5t-61 -114.5t-90.5 -73.5t-110 -29.5q14 -22 33.5 -34t42 -17.5t46.5 -6t47 1.5l-29 -83q-98 -2 -159 35.5t-75 111.5q-75 21 -115 81.5t-40 148.5t24 157.5t65.5 117.5t96 73t116.5 25q55 0 98.5 -17.5t72.5 -49.5t44.5 -76t15.5 -98z M353 521q-48 0 -84.5 -23.5t-62 -63t-38.5 -91t-13 -108.5q0 -78 36.5 -123.5t106.5 -45.5q46 0 83 23.5t62 63t38.5 91.5t13.5 109q0 35 -8 66t-25.5 53.5t-44.5 35.5t-64 13z"></glyph><glyph glyph-name="R" unicode="R" d="M388 0q-8 9 -13.5 23.5t-8.5 31.5l-17 102q-8 51 -30 66.5t-68 15.5h-77l-42 -239h-94l103 589h202q96 0 134.5 -37t38.5 -106q0 -44 -15 -75.5t-38 -52t-51.5 -31.5t-56.5 -12v-4q41 -6 60.5 -26.5t27.5 -66.5l21 -116q6 -36 25 -62h-101zM188 316h106q55 0 90 27t35 89 q0 40 -20.5 60t-71.5 20h-105z"></glyph><glyph glyph-name="S" unicode="S" d="M103 164q-1 -54 28.5 -80t83.5 -26q52 0 83 23t31 73q0 21 -5.5 36.5t-17.5 28.5t-31.5 23.5t-47.5 21.5q-31 11 -56.5 24t-43.5 32t-28 44.5t-10 61.5q0 49 19 83t49 54t65.5 29t68.5 9q88 0 135 -35.5t49 -121.5l-90 -15q2 49 -24.5 74t-76.5 25q-48 0 -77.5 -23.5 t-29.5 -66.5q0 -21 6.5 -35t19.5 -24.5t32.5 -19.5t46.5 -19q34 -14 60 -29t44 -35t27 -46.5t9 -62.5q0 -48 -17.5 -82t-47 -55.5t-69 -31.5t-83.5 -10q-88 0 -136.5 37t-50.5 118z"></glyph><glyph glyph-name="T" unicode="T" d="M151 0l88 509h-171l14 80h439l-15 -80h-172l-89 -509h-94z"></glyph><glyph glyph-name="U" unicode="U" d="M585 589l-70 -399q-10 -59 -33 -97.5t-56 -62t-75 -33t-90 -9.5q-47 0 -87.5 12.5t-68.5 40t-39.5 72.5t0.5 110l63 366h95l-66 -372q-7 -40 -1.5 -68.5t20.5 -47t39.5 -27.5t56.5 -9q63 0 100 33t51 111l67 380h94z"></glyph><glyph glyph-name="V" unicode="V" d="M225 216q5 -34 7 -61t4 -47q2 -23 2 -41h4q5 18 14 41q8 20 19 46.5t28 60.5l184 374h100l-298 -589h-121l-90 589h95z"></glyph><glyph glyph-name="W" unicode="W" d="M558 220q3 -35 4 -64t1 -50v-45h4q5 20 13 45l16.5 49.5t23.5 63.5l148 370h98l-246 -589h-131l-30 347q-3 34 -3 62.5t1 49.5q1 25 3 44h-4q-5 -19 -12 -44q-6 -21 -16.5 -49.5t-24.5 -62.5l-149 -347h-129l-29 589h93l15 -367q1 -35 1.5 -64t0.5 -51q0 -26 -1 -46h4 q4 20 12 46q6 22 16.5 50.5t25.5 63.5l158 368h106z"></glyph><glyph glyph-name="X" unicode="X" d="M304 161q-11 20 -17 34.5t-8 23.5q-3 11 -3 16h-4q-2 -6 -8 -16q-5 -9 -15.5 -23t-28.5 -36l-134 -160h-110l257 301l-144 288h103l70 -145q11 -23 17 -38.5t9 -24.5q4 -11 4 -17h3q2 5 8 16q5 9 15.5 24t30.5 39l117 146h108l-240 -287l152 -302h-98z"></glyph><glyph glyph-name="Y" unicode="Y" d="M241 402q8 -26 12.5 -46t6.5 -35q3 -18 4 -31h4q4 13 12 31q7 15 17.5 35t26.5 46l121 187h100l-242 -366l-39 -223h-94l38 223l-127 366h98z"></glyph><glyph glyph-name="Z" unicode="Z" d="M336 440q17 20 31.5 34t24.5 22q11 10 21 15v4q-11 -2 -25 -3q-24 -3 -69 -3h-217l15 80h415l-12 -62l-322 -378q-18 -21 -32 -34.5t-24 -21.5q-11 -10 -21 -15v-4l24 3q12 1 29.5 2t40.5 1h230l-13 -80h-431l10 55z"></glyph><glyph glyph-name="bracketleft" unicode="[" d="M116 -135h143l-12 -68h-230l153 872h230l-11 -68h-143z"></glyph><glyph glyph-name="backslash" unicode="\" d="M293 -203h-75l-122 872h76z"></glyph><glyph glyph-name="bracketright" unicode="]" d="M214 601h-143l12 68h230l-153 -872h-230l12 68h143z"></glyph><glyph glyph-name="asciicircum" unicode="^" d="M387 481q-11 33 -16 56t-7 38q-3 18 -2 29h-4q-3 -10 -12 -28q-8 -15 -21 -38.5t-36 -55.5l-113 -161h-90l248 347h74l125 -347h-93z"></glyph><glyph glyph-name="underscore" unicode="_" d="M10 -22h381l-13 -71h-381z"></glyph><glyph glyph-name="grave" unicode="`" d="M195 529l-115 146h121l74 -146h-80z"></glyph><glyph glyph-name="a" unicode="a" d="M360 271q4 24 1.5 48t-12.5 42.5t-27.5 30t-43.5 11.5q-33 0 -60.5 -16.5t-47 -46t-30.5 -69t-11 -85.5q0 -54 23 -89.5t70 -35.5q49 0 81 35.5t43 96.5zM423 111q-3 -17 0.5 -31t25.5 -14q7 0 14 1.5t16 3.5l-13 -67q-12 -5 -26 -7t-28 -2q-84 0 -81 82 q-20 -48 -57 -68.5t-81 -20.5q-69 0 -112 49t-43 140q0 59 16 113t45.5 94.5t71 64.5t92.5 24q49 0 79.5 -21t38.5 -68l26 78h78z"></glyph><glyph glyph-name="b" unicode="b" d="M160 181q-4 -21 0 -43t15.5 -39.5t30.5 -28.5t46 -11q35 0 62.5 17.5t46.5 47.5t29 70t10 85q0 57 -23.5 89.5t-68.5 32.5q-24 0 -46 -9.5t-39.5 -27.5t-30 -43.5t-17.5 -56.5zM105 0h-67l117 668h91l-52 -295q47 100 149 100q72 0 112 -48.5t40 -142.5q0 -62 -16 -115.5 t-46 -93.5t-72.5 -62.5t-96.5 -22.5q-51 0 -85 24t-42 62z"></glyph><glyph glyph-name="c" unicode="c" d="M418 130q-25 -72 -73.5 -107t-125.5 -35q-81 0 -131 50.5t-50 144.5q0 55 15 107.5t45 93t75 65t105 24.5q80 0 117 -41.5t37 -109.5l-86 -15q0 40 -17 66t-61 26q-34 0 -60 -18.5t-43.5 -47.5t-26.5 -66t-9 -74q0 -68 26.5 -101.5t73.5 -33.5q43 0 67 24t37 65z"></glyph><glyph glyph-name="d" unicode="d" d="M362 271q4 24 1.5 47.5t-13 42t-28.5 30t-44 11.5q-33 0 -61 -16.5t-47.5 -46t-30.5 -69t-11 -85.5q0 -54 23 -89t70 -35q50 0 82.5 34.5t43.5 96.5zM424 111q-3 -17 1 -31t26 -14q6 0 13 1.5t16 3.5l-13 -67q-24 -9 -54 -9q-83 0 -81 82q-9 -25 -23.5 -42t-33 -27.5 t-39.5 -15t-43 -4.5q-69 0 -112 49t-43 140q0 59 16 113t45.5 94.5t71.5 64.5t93 24q48 0 79 -21t39 -68l50 284h90z"></glyph><glyph glyph-name="e" unicode="e" d="M229 58q47 0 70 19t34 56l84 -21q-12 -35 -30.5 -59t-43 -38.5t-55 -20.5t-67.5 -6q-88 0 -135.5 53.5t-47.5 143.5q0 70 20 124t52.5 90.5t74 55t84.5 18.5q45 0 77.5 -14t53.5 -37t30.5 -53t9.5 -62q0 -49 -20 -95h-293q-3 -29 1 -56.5t16.5 -49.5t33.5 -35t51 -13z M346 277q3 8 4 16t1 16q0 38 -20.5 66t-65.5 28q-26 0 -47 -10.5t-37 -27.5t-27 -40t-17 -48h209z"></glyph><glyph glyph-name="f" unicode="f" d="M119 390h-71l14 72h69l11 59q16 85 60 119.5t108 34.5q30 0 56.5 -7t52.5 -21l-34 -75q-18 13 -34.5 20t-38.5 7q-35 0 -53.5 -17.5t-26.5 -60.5l-11 -59h117l-13 -72h-117l-85 -487q-6 -35 -17 -57t-27 -34.5t-36.5 -17.5t-45.5 -5q-26 0 -48 6.5t-37 18.5l20 69 q27 -23 54 -23q20 0 31 9.5t16 36.5z"></glyph><glyph glyph-name="g" unicode="g" d="M362 271q4 24 1.5 47.5t-12.5 42.5t-27.5 30.5t-44.5 11.5q-34 0 -61.5 -16.5t-47 -45.5t-30.5 -68.5t-11 -85.5q0 -54 22.5 -89t70.5 -35q51 0 83 33.5t43 95.5zM403 -12q-19 -101 -74 -150t-160 -49q-45 0 -78 9.5t-55.5 26t-35 39.5t-17.5 49l77 35q4 -39 34 -65 t79 -26q64 0 95 35t44 98l17 87q-20 -48 -55 -67t-79 -19q-70 0 -113.5 49t-43.5 140q0 59 16 112t46 93.5t72 64t94 23.5q48 0 78.5 -21t38.5 -68l25 78h78z"></glyph><glyph glyph-name="h" unicode="h" d="M420 111q-3 -17 1 -31t26 -14q6 0 13 1.5t16 3.5l-13 -67q-24 -9 -54 -9q-52 0 -71 28t-10 79l37 208q8 39 -5.5 63t-54.5 24q-18 0 -38 -7t-38.5 -24t-33.5 -45t-22 -70l-44 -251h-91l116 668h93l-54 -300q24 51 60 78t89 27q54 0 86 -28.5t32 -82.5q0 -9 -0.5 -19 t-3.5 -25z"></glyph><glyph glyph-name="i" unicode="i" d="M142 111q-3 -17 1 -31t26 -14q6 0 13 1.5t16 3.5l-13 -67q-24 -9 -54 -9q-52 0 -71 28t-10 79l63 360h91zM121 610q0 27 17.5 43.5t42.5 16.5q26 0 44 -16.5t18 -43.5q0 -26 -18 -43t-44 -17q-25 0 -42.5 17t-17.5 43z"></glyph><glyph glyph-name="j" unicode="j" d="M111 -68q-7 -42 -21.5 -69.5t-35 -44t-46.5 -23t-57 -6.5q-28 0 -53.5 7.5t-40.5 18.5l29 70q15 -12 30.5 -18.5t36.5 -6.5q25 0 42 16t25 61l93 525h91zM121 610q0 27 17.5 43.5t42.5 16.5q26 0 44 -16.5t18 -43.5q0 -26 -18 -43t-44 -17q-25 0 -42.5 17t-17.5 43z"></glyph><glyph glyph-name="k" unicode="k" d="M196 221h-28l-39 -221h-91l117 668h92l-67 -380h22l164 174h111l-202 -205l75 -156q14 -29 32 -32.5t51 4.5l-14 -69q-27 -9 -57 -9q-27 0 -47.5 11.5t-35.5 42.5z"></glyph><glyph glyph-name="l" unicode="l" d="M142 111q-3 -17 1 -31t26 -14q6 0 13 1.5t16 3.5l-13 -67q-24 -9 -54 -9q-52 0 -71 28t-10 79l99 566h91z"></glyph><glyph glyph-name="m" unicode="m" d="M299 0l55 310q7 39 -6 63t-53 24q-16 0 -34.5 -7t-35.5 -24t-31 -45t-21 -70l-44 -251h-91l81 462h79l-5 -94q24 51 55.5 78t87.5 27q51 0 81.5 -29t30.5 -83q23 55 57.5 83.5t91.5 28.5q50 0 81 -28.5t31 -82.5q0 -9 -0.5 -19t-2.5 -25l-36 -207q-3 -17 0.5 -31 t25.5 -14q7 0 14 1.5t16 3.5l-13 -67q-12 -5 -26 -7t-28 -2q-53 0 -71.5 28t-9.5 79l37 208q7 39 -6 63t-53 24q-16 0 -34.5 -7t-35.5 -24t-31 -45t-21 -70l-44 -251h-91z"></glyph><glyph glyph-name="n" unicode="n" d="M420 111q-3 -17 1 -31t26 -14q6 0 13 1.5t16 3.5l-13 -67q-24 -9 -54 -9q-52 0 -71 28t-10 79l37 208q8 39 -5.5 63t-54.5 24q-18 0 -38 -7t-38.5 -24t-33.5 -45t-22 -70l-44 -251h-91l81 462h79l-5 -94q24 51 60 78t89 27q54 0 86 -28.5t32 -82.5q0 -9 -0.5 -19 t-3.5 -25z"></glyph><glyph glyph-name="o" unicode="o" d="M280 473q87 0 134.5 -53t47.5 -146q0 -57 -15.5 -109t-46.5 -91.5t-76 -62.5t-103 -23q-40 0 -73.5 13t-58 37.5t-38 61t-13.5 84.5q0 57 15.5 109.5t46 92.5t76 63.5t104.5 23.5zM269 399q-33 0 -59 -17t-44 -45.5t-27.5 -66.5t-9.5 -79q0 -66 27 -99.5t75 -33.5 q33 0 58.5 17.5t43 47t27 67.5t9.5 80q0 62 -26 95.5t-74 33.5z"></glyph><glyph glyph-name="p" unicode="p" d="M160 181q-5 -21 -1 -43t16 -39.5t31.5 -28.5t46.5 -11q35 0 62.5 17.5t46 47.5t28.5 70t10 85q0 57 -23.5 89t-68.5 32q-48 0 -85 -36.5t-48 -99.5zM93 -203h-90l117 665h79l-6 -89q47 100 151 100q72 0 112 -48.5t40 -142.5q0 -62 -16 -115.5t-46 -93.5t-72.5 -62.5 t-96.5 -22.5q-51 0 -83 24t-40 62z"></glyph><glyph glyph-name="q" unicode="q" d="M361 271q4 24 1.5 47.5t-12.5 42t-28 30t-44 11.5q-33 0 -60.5 -17t-47 -46t-30.5 -69t-11 -86q0 -54 23 -89t70 -35q49 0 81.5 34.5t43.5 96.5zM278 -203l49 277q-20 -47 -55 -66.5t-79 -19.5q-69 0 -112 49t-43 140q0 59 16 113t45.5 94.5t71.5 64.5t93 24 q48 0 79.5 -21t39.5 -68l26 78h77l-117 -665h-91z"></glyph><glyph glyph-name="r" unicode="r" d="M344 364q-25 7 -52.5 4t-51.5 -16t-42 -36.5t-24 -57.5l-45 -258h-91l81 462h79l-8 -109q12 28 30.5 52t42 40t50 23.5t54.5 2.5z"></glyph><glyph glyph-name="s" unicode="s" d="M96 142q0 -47 24.5 -68.5t62.5 -21.5q35 0 57.5 13.5t22.5 51.5q0 31 -17.5 49t-63.5 35q-55 20 -83 50.5t-28 82.5q0 35 13 61t35.5 43.5t52.5 26t65 8.5q74 0 110.5 -31.5t36.5 -91.5l-82 -13q0 34 -18.5 52.5t-53.5 18.5q-34 0 -54.5 -16.5t-20.5 -46.5q0 -12 3.5 -22 t13 -19t26 -18t43.5 -19q61 -24 85 -56.5t24 -85.5q0 -71 -47.5 -104t-122.5 -33q-77 0 -119.5 35t-44.5 99z"></glyph><glyph glyph-name="t" unicode="t" d="M263 12q-21 -12 -48 -18t-51 -6q-63 0 -92.5 35t-15.5 113l44 254h-64l13 72h65l17 97l92 12l-19 -109h121l-13 -72h-120l-46 -260q-7 -35 5.5 -50t33.5 -15q20 0 38 5.5t40 17.5v-76z"></glyph><glyph glyph-name="u" unicode="u" d="M318 87q-21 -53 -57 -76t-89 -23q-74 0 -103.5 45.5t-15.5 128.5l52 300h91l-54 -311q-8 -46 7.5 -71t53.5 -25q21 0 41 8.5t37 24.5t29.5 40t18.5 56l48 278h91l-62 -351q-3 -17 1 -31t26 -14q6 0 13 1.5t16 3.5l-13 -67q-12 -5 -26 -7t-28 -2q-48 0 -65 23.5t-12 68.5z "></glyph><glyph glyph-name="v" unicode="v" d="M38 462h93l30 -254q4 -34 6 -61t3 -46q1 -23 0 -40h4q5 17 13 40q7 20 18 47t28 60l128 254h98l-249 -462h-102z"></glyph><glyph glyph-name="w" unicode="w" d="M441 220q4 -35 4.5 -64t0.5 -49q-1 -24 -2 -43h4q4 19 11 43q6 20 16 49t25 64l105 242h95l-207 -462h-108l-25 219q-3 33 -4 59.5t-1 46.5q0 22 2 40h-4q-4 -18 -12 -40q-7 -19 -17.5 -46t-24.5 -60l-95 -219h-108l-48 462h93l20 -242q3 -35 4 -64t1 -49q0 -24 -1 -43h4 q4 19 12 44q6 21 16.5 49.5t25.5 63.5l108 241h88z"></glyph><glyph glyph-name="x" unicode="x" d="M243 107q-11 22 -16 37t-7 23q-3 10 -2 15h-4q-1 -5 -7 -15q-5 -8 -15.5 -22.5t-28.5 -37.5l-88 -107h-101l194 232l-105 230h97l42 -98q18 -47 22 -61q3 -10 4 -15h4q2 5 8 16q5 9 14.5 23t26.5 36l78 99h103l-185 -227l112 -235h-95z"></glyph><glyph glyph-name="y" unicode="y" d="M167 203q4 -34 5.5 -60t2.5 -45q1 -22 0 -39h4q4 18 12 40q7 19 18 45.5t28 58.5l132 259h96l-275 -515q-27 -51 -51.5 -82t-48.5 -48t-48 -22.5t-51 -5.5q-25 0 -43.5 5t-31.5 13l22 70q12 -8 26 -12.5t31 -4.5q37 0 64.5 26t58.5 87l-75 489h95z"></glyph><glyph glyph-name="z" unicode="z" d="M238 317q18 20 31.5 34.5t23.5 22.5q11 10 20 15v4q-11 -2 -24 -4q-24 -3 -68 -3h-140l13 76h338l-10 -59l-233 -260q-19 -20 -33 -34t-24 -22q-11 -10 -20 -15v-4l24 3q12 1 29.5 2t40.5 1h152l-12 -74h-352l10 49z"></glyph><glyph glyph-name="braceleft" unicode="{" d="M153 229q17 -2 31.5 -7.5t23.5 -17t12 -30t-2 -46.5l-33 -192q-8 -38 1 -58t42 -20q20 0 34.5 4t29.5 12l4 -66q-26 -10 -50.5 -14t-50.5 -4q-35 0 -57 10t-32.5 28t-12 43t4.5 56l33 193q5 25 2 40t-11.5 23.5t-20.5 11t-25 2.5h-41l12 69h41q13 0 26.5 2.5t24.5 10.5 t20 23t13 41l32 192q6 31 16.5 56t28.5 43t43.5 28t60.5 10q26 0 48 -4t44 -14l-27 -65q-12 7 -25.5 11t-33.5 4q-33 0 -48.5 -19.5t-21.5 -58.5l-34 -192q-5 -29 -15 -47.5t-23 -29.5t-29.5 -16t-34.5 -8v-4z"></glyph><glyph glyph-name="bar" unicode="|" d="M3 -203l153 872h77l-153 -872h-77z"></glyph><glyph glyph-name="braceright" unicode="}" d="M233 233q-17 2 -31.5 7.5t-23.5 17t-12 30t2 46.5l33 192q8 39 -1 58.5t-42 19.5q-20 0 -34.5 -4t-29.5 -11l-4 65q26 10 50.5 14t50.5 4q35 0 57 -10t32.5 -28t12 -43t-4.5 -56l-33 -192q-5 -26 -2 -41t11.5 -23t20.5 -10.5t25 -2.5h41l-12 -69h-41q-13 0 -26.5 -2.5 t-24.5 -11t-20 -23.5t-13 -40l-32 -193q-11 -62 -45 -99.5t-104 -37.5q-26 0 -48 4t-44 14l27 66q12 -8 25.5 -12t33.5 -4q33 0 48.5 20t21.5 58l34 192q5 29 15 47.5t23 30t29.5 16.5t34.5 7v4z"></glyph><glyph glyph-name="asciitilde" unicode="~" d="M145 242q-18 10 -32 10t-24.5 -8.5t-13.5 -31.5l-36 16q-4 13 -4 27q0 33 23.5 53.5t56.5 20.5q16 0 29 -4t25 -10l46 -26q16 -8 34 -8q14 0 24.5 9.5t12.5 33.5l40 -18q2 -5 2 -10.5v-10.5q-2 -35 -24 -59t-57 -24q-17 0 -29 4.5t-24 10.5z"></glyph><glyph glyph-name="nonbreakingspace" unicode=" "></glyph><glyph glyph-name="exclamdown" unicode="¡" d="M-12 -127l103 415h61l-47 -415h-117zM202 406q0 -27 -18 -44.5t-45 -17.5t-45.5 17.5t-18.5 44.5q0 26 18.5 44t45.5 18t45 -18t18 -44z"></glyph><glyph glyph-name="cent" unicode="¢" d="M453 99q-35 -57 -82.5 -83t-118.5 -28l-16 -94h-50l17 98q-71 12 -113 63.5t-42 136.5q0 60 15.5 113t46.5 93t76.5 65t104.5 29l15 82h50l-15 -83q63 -6 97 -37.5t47 -81.5l-87 -39q-12 68 -71 82l-62 -354q72 3 119 85zM141 201q0 -51 19 -85.5t57 -47.5l61 349 q-31 -5 -56.5 -23.5t-43.5 -47t-27.5 -65.5t-9.5 -80z"></glyph><glyph glyph-name="sterling" unicode="£" d="M223 206v-12t-1 -11q-2 -41 -21 -69.5t-48 -37.5h169q23 0 45.5 8.5t36.5 40.5l60 -36q-17 -44 -54 -66.5t-89 -22.5h-311l13 78h47q13 0 26.5 7t24 18.5t17 27t6.5 32.5q0 23 -5 43h-95l9 55h74q-2 13 -4 30t-2 41q0 44 16.5 75t42 50t57.5 27.5t64 8.5q72 0 114 -32 t42 -102l-85 -17q-1 36 -18.5 57.5t-61.5 21.5q-38 0 -62 -21.5t-24 -69.5q0 -20 2 -37t6 -32h148l-9 -55h-130z"></glyph><glyph glyph-name="currency" unicode="¤" d="M102 205q-11 27 -11 59q0 36 10 69t31 60l-54 65l38 32l51 -64q20 14 44.5 21.5t53.5 7.5q58 0 93 -33l82 70l29 -35l-85 -72q6 -14 9.5 -29.5t3.5 -34.5q0 -73 -40 -125l55 -65l-38 -32l-52 63q-40 -29 -98 -29q-29 0 -54 8.5t-42 25.5l-81 -69l-29 35zM258 398 q-23 0 -40.5 -10.5t-29.5 -28t-18.5 -41t-6.5 -49.5q0 -42 18 -62t49 -20q22 0 39.5 11t29.5 29t18.5 42t6.5 50q0 38 -17.5 58.5t-48.5 20.5z"></glyph><glyph glyph-name="yen" unicode="¥" d="M333 242l-35 -50h137l-4 -50h-157l-24 -142h-92l24 142h-145l4 50h135l-19 50h-111l4 50h88l-70 189h97l52 -153q8 -24 12.5 -42.5t6.5 -30.5q3 -14 4 -24h4q4 11 11 25q6 12 16 30t27 41l104 154h102l-135 -189h75l-4 -50h-107z"></glyph><glyph glyph-name="brokenbar" unicode="¦" d="M88 278l68 391h77l-68 -391h-77zM3 -203l69 391h77l-69 -391h-77z"></glyph><glyph glyph-name="section" unicode="§" d="M25 238q0 28 8.5 50t23.5 37.5t34.5 26t41.5 15.5q-20 17 -30 38.5t-10 53.5q0 38 15 64.5t39 43t54 24t60 7.5q75 0 110.5 -31.5t35.5 -91.5l-81 -13q0 35 -20.5 52.5t-54.5 17.5q-30 0 -51.5 -16t-21.5 -46q0 -12 3.5 -21.5t13 -18.5t27 -19.5t46.5 -24.5 q59 -27 84 -58t25 -78q0 -54 -30.5 -84.5t-78.5 -41.5q21 -20 31.5 -42.5t10.5 -51.5q0 -36 -14 -62t-38.5 -42.5t-57 -24.5t-69.5 -8q-79 0 -117 31t-39 91l76 16q2 -40 25 -58t61 -18q35 0 60 15t25 46q0 14 -3.5 24.5t-13 20.5t-26.5 20t-43 23q-56 25 -83.5 54.5 t-27.5 79.5zM214 160q32 3 54.5 24.5t22.5 50.5q0 14 -4 24.5t-13.5 20.5t-26.5 20t-43 23q-5 2 -9 3.5t-8 3.5q-38 -7 -57.5 -28.5t-19.5 -50.5q0 -12 3.5 -21.5t13 -19t27 -20t46.5 -24.5z"></glyph><glyph glyph-name="dieresis" unicode="¨" d="M80 595q0 26 17.5 43t41.5 17q25 0 42.5 -17t17.5 -43t-17.5 -42.5t-42.5 -16.5q-24 0 -41.5 16.5t-17.5 42.5zM276 594q0 26 17.5 43t41.5 17q26 0 43 -17t17 -43q0 -25 -17 -42t-43 -17q-24 0 -41.5 17t-17.5 42z"></glyph><glyph glyph-name="copyright" unicode="©" d="M502 187q-27 -45 -65.5 -66t-96.5 -21q-68 0 -110.5 41t-42.5 116q0 48 13.5 90t39 73.5t63.5 50t88 18.5q62 0 93.5 -26t42.5 -69l-72 -31q-9 64 -73 64q-27 0 -48.5 -13t-37.5 -35t-24.5 -51.5t-8.5 -63.5q0 -47 22.5 -76t64.5 -29q58 0 95 67zM55 294q0 67 24 123 t65.5 97t97.5 64t119 23t119 -23t98 -64t66 -97t24 -123t-24 -123t-66 -96.5t-98 -63.5t-119 -23t-119 23t-97.5 63.5t-65.5 96.5t-24 123zM86 294q0 -61 21.5 -112t59 -87.5t88 -57t107.5 -20.5t107 20.5t87.5 57t59.5 87.5t22 112t-22 112t-59.5 88t-87.5 57.5t-107 20.5 t-107.5 -20.5t-88 -57.5t-59 -88t-21.5 -112z"></glyph><glyph glyph-name="ordfeminine" unicode="ª" d="M269 465q3 16 1 31t-9 26.5t-19.5 18.5t-30.5 7q-24 0 -43.5 -10.5t-33.5 -29t-21.5 -44t-7.5 -55.5q0 -34 16.5 -56.5t48.5 -22.5q35 0 58 22t31 63zM323 363q-2 -9 0.5 -17t15.5 -8q5 0 25 4l-10 -52q-21 -6 -43 -6q-29 0 -45 12.5t-19 33.5q-17 -24 -43.5 -37.5 t-55.5 -13.5q-53 0 -85.5 33t-32.5 94q0 39 12 74.5t34.5 62.5t54 42.5t70.5 15.5q33 0 55 -14.5t31 -40.5l18 47h64z"></glyph><glyph glyph-name="guillemotleft" unicode="«" d="M302 230q3 -3 9 -8q5 -5 13 -14t20 -26l83 -116l-57 -45l-148 213l223 213l43 -47l-119 -117q-14 -14 -26 -23t-21 -15q-11 -7 -20 -11v-4zM109 230q3 -3 9 -8q5 -5 13 -14t20 -26l84 -116l-58 -45l-148 213l223 213l43 -47l-119 -117q-14 -14 -26 -23t-21 -15 q-11 -7 -20 -11v-4z"></glyph><glyph glyph-name="logicalnot" unicode="¬" d="M40 262l9 53h408l-33 -189h-64l24 136h-344z"></glyph><glyph glyph-name="uni00AD" unicode="­" d="M81 295h224l-13 -76h-224z"></glyph><glyph glyph-name="registered" unicode="®" d="M422 119q-6 8 -8 17.5t-4 22.5l-3 47q-2 25 -12.5 36.5t-41.5 11.5h-57l-24 -135h-73l64 362h144q60 0 88 -25t28 -70q0 -27 -9 -47t-24 -32.5t-34.5 -19t-40.5 -7.5v-3q30 -2 46 -14.5t18 -40.5l6 -58q2 -28 16 -45h-79zM305 309h66q37 0 58 15.5t21 53.5q0 21 -13.5 33 t-39.5 12h-72zM55 294q0 67 24 123t65.5 97t97.5 64t119 23t119 -23t98 -64t66 -97t24 -123t-24 -123t-66 -96.5t-98 -63.5t-119 -23t-119 23t-97.5 63.5t-65.5 96.5t-24 123zM86 294q0 -61 21.5 -112t59 -87.5t88 -57t107.5 -20.5t107 20.5t87.5 57t59.5 87.5t22 112 t-22 112t-59.5 88t-87.5 57.5t-107 20.5t-107.5 -20.5t-88 -57.5t-59 -88t-21.5 -112z"></glyph><glyph glyph-name="macron" unicode="¯" d="M80 558l13 73h262l-13 -73h-262z"></glyph><glyph glyph-name="degree" unicode="°" d="M53 477q0 25 9 47.5t25.5 39.5t40 27t52.5 10q49 0 77.5 -30t28.5 -74q0 -26 -9.5 -48.5t-26 -39.5t-40 -27t-50.5 -10q-53 0 -80 30t-27 75zM175 557q-32 0 -51.5 -22.5t-19.5 -53.5q0 -29 16.5 -46t45.5 -17q30 0 49.5 22t19.5 52t-16.5 47.5t-43.5 17.5z"></glyph><glyph glyph-name="plusminus" unicode="±" d="M259 340l25 134h57l-24 -134h177l-9 -54h-177l-27 -148h-57l26 148h-173l9 54h173zM34 43l9 53h408l-9 -53h-408z"></glyph><glyph glyph-name="twosuperior" unicode="²" d="M264 236h-265l10 52q47 27 86 51.5t66.5 48.5t43 47t15.5 46q0 56 -55 56q-30 0 -48 -19t-23 -51l-56 26q8 45 43 74.5t94 29.5q54 0 86 -26.5t32 -78.5q0 -39 -20.5 -70t-50.5 -55t-64.5 -41t-62.5 -29v-4h180z"></glyph><glyph glyph-name="threesuperior" unicode="³" d="M186 417q42 -5 61.5 -27.5t19.5 -55.5q0 -27 -11.5 -47t-31 -32.5t-45 -19t-53.5 -6.5q-62 0 -90.5 28t-31.5 66l63 17q6 -59 59 -59q28 0 48 13t20 41q0 12 -4 22.5t-14.5 18t-29 12t-47.5 4.5l9 47q54 2 79.5 17t25.5 44q0 19 -12.5 29.5t-35.5 10.5q-25 0 -39 -12.5 t-22 -38.5l-56 23q11 35 40 60t85 25q23 0 43.5 -5t36 -15.5t24.5 -27t9 -39.5q0 -38 -26 -61.5t-74 -28.5v-3z"></glyph><glyph glyph-name="acute" unicode="´" d="M80 529l74 146h121l-116 -146h-79z"></glyph><glyph glyph-name="mu" unicode="µ" d="M318 84q-21 -54 -53.5 -75t-81.5 -21q-25 0 -44 9t-22 23l-39 -223h-88l115 665h91l-54 -311q-8 -46 7.5 -71t53.5 -25q21 0 41 8.5t37 24.5t29.5 40t18.5 56l48 278h91l-62 -351q-3 -17 1 -31t26 -14q6 0 13 1.5t16 3.5l-13 -67q-12 -5 -26 -7t-28 -2q-48 0 -64.5 23 t-12.5 66z"></glyph><glyph glyph-name="paragraph" unicode="¶" d="M396 -21q-13 -77 -58.5 -109.5t-108.5 -32.5q-28 0 -51 5.5t-49 21.5l38 82q16 -17 35 -23.5t37 -6.5q26 0 42.5 12.5t22.5 46.5l35 199h-48q-108 0 -160 49t-33 152q20 113 98.5 163.5t206.5 50.5h180l-13 -72h-79z"></glyph><glyph glyph-name="periodcentered" unicode="·" d="M74 266q0 29 19.5 48.5t48.5 19.5t48.5 -19.5t19.5 -48.5t-19.5 -48.5t-48.5 -19.5t-48.5 19.5t-19.5 48.5z"></glyph><glyph glyph-name="periodcentered" unicode="⋅" d="M74 266q0 29 19.5 48.5t48.5 19.5t48.5 -19.5t19.5 -48.5t-19.5 -48.5t-48.5 -19.5t-48.5 19.5t-19.5 48.5z"></glyph><glyph glyph-name="cedilla" unicode="¸" d="M277 -124q0 -22 -8.5 -38t-23 -27t-34 -16.5t-41.5 -5.5q-62 0 -90 38l24 51q25 -36 62 -36q17 0 28 8.5t11 25.5q0 19 -15 30t-49 12l35 90h44l-21 -49q40 -8 59 -27.5t19 -55.5z"></glyph><glyph glyph-name="onesuperior" unicode="¹" d="M9 236l10 56h90l40 228l-107 -10l10 57l182 23l-52 -298h88l-10 -56h-251z"></glyph><glyph glyph-name="ordmasculine" unicode="º" d="M205 601q62 0 96.5 -35.5t34.5 -98.5q0 -38 -11.5 -72t-33.5 -60t-54 -41t-73 -15q-59 0 -96.5 33.5t-37.5 97.5q0 38 11.5 72.5t33.5 61t54.5 42t75.5 15.5zM197 544q-23 0 -40.5 -10.5t-29.5 -28t-18.5 -41t-6.5 -49.5q0 -42 18 -62t49 -20q22 0 39.5 11t29.5 29 t18.5 42t6.5 50q0 38 -17 58.5t-49 20.5z"></glyph><glyph glyph-name="guillemotright" unicode="»" d="M214 238q-3 2 -9 7q-5 5 -13.5 14t-19.5 26l-83 117l58 45l148 -213l-223 -213l-43 47l119 116q14 14 26 23.5t21 15.5q11 7 19 11v4zM407 238q-3 2 -9 7q-5 5 -13.5 14t-19.5 26l-83 117l57 45l149 -213l-224 -213l-42 47l119 116q14 14 26 23.5t21 15.5q11 7 19 11v4z "></glyph><glyph glyph-name="onequarter" unicode="¼" d="M34 236l10 56h90l40 228l-107 -10l10 57l182 23l-52 -298h88l-10 -56h-251zM602 590h65l-409 -590h-66zM687 86h-179l10 54l213 213h75l-37 -213h57l-10 -54h-57l-15 -86h-72zM713 223q2 15 5.5 27.5t5.5 22.5q3 11 6 21h-4q-4 -7 -11 -17q-6 -8 -15 -19t-20 -23l-50 -50 q-11 -11 -21 -19.5t-18 -14.5q-9 -7 -17 -12l-1 -4q5 1 13 2q7 1 17.5 1.5t26.5 0.5h69z"></glyph><glyph glyph-name="onehalf" unicode="½" d="M602 590h65l-409 -590h-66zM34 236l10 56h90l40 228l-107 -10l10 57l182 23l-52 -298h88l-10 -56h-251zM763 0h-265l10 52q47 27 86 51.5t66.5 48.5t43 47t15.5 46q0 56 -55 56q-30 0 -48 -19t-23 -51l-56 26q8 45 43 74.5t94 29.5q54 0 86 -26.5t32 -78.5 q0 -39 -20.5 -70t-50.5 -55t-64.5 -41t-62.5 -29v-4h180z"></glyph><glyph glyph-name="threequarters" unicode="¾" d="M602 590h65l-409 -590h-66zM211 417q42 -5 61.5 -27.5t19.5 -55.5q0 -27 -11.5 -47t-31 -32.5t-45 -19t-53.5 -6.5q-62 0 -90.5 28t-31.5 66l63 17q6 -59 59 -59q28 0 48 13t20 41q0 12 -4 22.5t-14.5 18t-29 12t-47.5 4.5l9 47q54 2 79.5 17t25.5 44q0 19 -12.5 29.5 t-35.5 10.5q-25 0 -39 -12.5t-22 -38.5l-56 23q11 35 40 60t85 25q23 0 43.5 -5t36 -15.5t24.5 -27t9 -39.5q0 -38 -26 -61.5t-74 -28.5v-3zM687 86h-179l10 54l213 213h75l-37 -213h57l-10 -54h-57l-15 -86h-72zM713 223q2 15 5.5 27.5t5.5 22.5q3 11 6 21h-4 q-4 -7 -11 -17q-6 -8 -15 -19t-20 -23l-50 -50q-11 -11 -21 -19.5t-18 -14.5q-9 -7 -17 -12l-1 -4q5 1 13 2q7 1 17.5 1.5t26.5 0.5h69z"></glyph><glyph glyph-name="questiondown" unicode="¿" d="M382 2q-20 -64 -66 -102.5t-127 -38.5q-85 0 -129.5 42.5t-44.5 119.5q0 49 18.5 85.5t47.5 60t65.5 35t71.5 11.5l15 82h81l-24 -135h-28q-31 0 -59 -7t-49 -22.5t-33 -40t-12 -60.5q0 -45 23.5 -69.5t68.5 -24.5q81 0 105 94zM352 406q0 -27 -18.5 -44.5t-44.5 -17.5 q-27 0 -45.5 17.5t-18.5 44.5q0 26 18.5 44t45.5 18q26 0 44.5 -18t18.5 -44z"></glyph><glyph glyph-name="Agrave" unicode="À" d="M404 161h-241l-84 -161h-100l318 589h121l110 -589h-96zM202 237h188q-12 58 -20 110t-13.5 92t-7.5 63.5l-2 23.5h-4q-6 -20 -17 -44q-9 -21 -22.5 -49t-31.5 -63zM325 653l-100 123h120l63 -123h-83z"></glyph><glyph glyph-name="Aacute" unicode="Á" d="M404 161h-241l-84 -161h-100l318 589h121l110 -589h-96zM202 237h188q-12 58 -20 110t-13.5 92t-7.5 63.5l-2 23.5h-4q-6 -20 -17 -44q-9 -21 -22.5 -49t-31.5 -63zM316 653l63 123h120l-101 -123h-82z"></glyph><glyph glyph-name="Acircumflex" unicode="Â" d="M404 161h-241l-84 -161h-100l318 589h121l110 -589h-96zM202 237h188q-12 58 -20 110t-13.5 92t-7.5 63.5l-2 23.5h-4q-6 -20 -17 -44q-9 -21 -22.5 -49t-31.5 -63zM405 782l102 -129h-95l-25 33q-6 8 -9 13.5t-5 10.5t-3 10h-3q-2 -5 -6 -10q-5 -8 -23 -24l-37 -33h-99 l147 129h56z"></glyph><glyph glyph-name="Atilde" unicode="Ã" d="M404 161h-241l-84 -161h-100l318 589h121l110 -589h-96zM202 237h188q-12 58 -20 110t-13.5 92t-7.5 63.5l-2 23.5h-4q-6 -20 -17 -44q-9 -21 -22.5 -49t-31.5 -63zM425 653q-27 0 -41.5 8t-31.5 18q-19 12 -30 18.5t-26 6.5t-26 -11.5t-13 -37.5h-54q-5 25 0 47.5 t18 39.5t32.5 26.5t43.5 9.5q27 0 43 -8.5t33 -19.5q19 -12 28.5 -17.5t23.5 -5.5t24 11.5t12 39.5h58q8 -55 -17.5 -90t-76.5 -35z"></glyph><glyph glyph-name="Adieresis" unicode="Ä" d="M404 161h-241l-84 -161h-100l318 589h121l110 -589h-96zM202 237h188q-12 58 -20 110t-13.5 92t-7.5 63.5l-2 23.5h-4q-6 -20 -17 -44q-9 -21 -22.5 -49t-31.5 -63zM211 713q0 26 17.5 43t41.5 17q25 0 42.5 -17t17.5 -43t-17.5 -42.5t-42.5 -16.5q-24 0 -41.5 16.5 t-17.5 42.5zM407 712q0 26 17.5 43t41.5 17q26 0 43 -17t17 -43q0 -25 -17 -42t-43 -17q-24 0 -41.5 17t-17.5 42z"></glyph><glyph glyph-name="Aring" unicode="Å" d="M404 161h-241l-84 -161h-100l318 589h121l110 -589h-96zM202 237h188q-12 58 -20 110t-13.5 92t-7.5 63.5l-2 23.5h-4q-6 -20 -17 -44q-9 -21 -22.5 -49t-31.5 -63zM279 725q0 44 29.5 75t78.5 31q42 0 66.5 -25.5t24.5 -62.5q0 -22 -7.5 -41.5t-22 -34t-34 -23 t-43.5 -8.5q-46 0 -69 25.5t-23 63.5zM383 788q-23 0 -39 -17.5t-16 -40.5t13 -37t36 -14t38 18t15 41t-12 36.5t-35 13.5z"></glyph><glyph glyph-name="AE" unicode="Æ" d="M426 161h-220l-126 -161h-105l460 589h429l-14 -80h-268l-31 -174h237l-14 -80h-237l-31 -175h268l-13 -80h-363zM265 237h174l31 176q6 35 11 56.5t8 34.5q4 15 6 22h-4z"></glyph><glyph glyph-name="Ccedilla" unicode="Ç" d="M330 -124q0 -22 -8.5 -38t-23 -27t-34 -16.5t-41.5 -5.5q-62 0 -90 38l23 51q27 -36 63 -36q17 0 28 8.5t11 25.5q0 19 -15 30t-49 12l29 76q-82 17 -125.5 79.5t-43.5 154.5q0 88 24 157.5t65.5 117.5t96 73t116.5 25q85 0 134.5 -37.5t65.5 -109.5l-94 -36 q-8 53 -38.5 78.5t-75.5 25.5q-48 0 -84.5 -23.5t-62 -63.5t-38.5 -92t-13 -109q0 -77 36.5 -122.5t106.5 -45.5q47 0 81 18t65 72l75 -41q-35 -63 -91 -95t-139 -32h-10t-10 1l-12 -30q40 -8 59 -27.5t19 -55.5z"></glyph><glyph glyph-name="Egrave" unicode="È" d="M401 0h-363l103 589h363l-14 -80h-269l-30 -174h237l-14 -80h-237l-31 -175h268zM283 653l-100 123h120l63 -123h-83z"></glyph><glyph glyph-name="Eacute" unicode="É" d="M401 0h-363l103 589h363l-14 -80h-269l-30 -174h237l-14 -80h-237l-31 -175h268zM274 653l63 123h120l-101 -123h-82z"></glyph><glyph glyph-name="Ecircumflex" unicode="Ê" d="M401 0h-363l103 589h363l-14 -80h-269l-30 -174h237l-14 -80h-237l-31 -175h268zM362 782l102 -129h-95l-25 33q-6 8 -9 13.5t-5 10.5t-3 10h-3q-2 -5 -6 -10q-5 -8 -23 -24l-37 -33h-99l147 129h56z"></glyph><glyph glyph-name="Edieresis" unicode="Ë" d="M401 0h-363l103 589h363l-14 -80h-269l-30 -174h237l-14 -80h-237l-31 -175h268zM169 713q0 26 17.5 43t41.5 17q25 0 42.5 -17t17.5 -43t-17.5 -42.5t-42.5 -16.5q-24 0 -41.5 16.5t-17.5 42.5zM365 712q0 26 17.5 43t41.5 17q26 0 43 -17t17 -43q0 -25 -17 -42t-43 -17 q-24 0 -41.5 17t-17.5 42z"></glyph><glyph glyph-name="Igrave" unicode="Ì" d="M235 589l-103 -589h-94l103 589h94zM161 653l-100 123h120l63 -123h-83z"></glyph><glyph glyph-name="Iacute" unicode="Í" d="M235 589l-103 -589h-94l103 589h94zM152 653l63 123h120l-101 -123h-82z"></glyph><glyph glyph-name="Icircumflex" unicode="Î" d="M235 589l-103 -589h-94l103 589h94zM241 782l102 -129h-95l-25 33q-6 8 -9 13.5t-5 10.5t-3 10h-3q-2 -5 -6 -10q-5 -8 -23 -24l-37 -33h-99l147 129h56z"></glyph><glyph glyph-name="Idieresis" unicode="Ï" d="M235 589l-103 -589h-94l103 589h94zM47 713q0 26 17.5 43t41.5 17q25 0 42.5 -17t17.5 -43t-17.5 -42.5t-42.5 -16.5q-24 0 -41.5 16.5t-17.5 42.5zM243 712q0 26 17.5 43t41.5 17q26 0 43 -17t17 -43q0 -25 -17 -42t-43 -17q-24 0 -41.5 17t-17.5 42z"></glyph><glyph glyph-name="Eth" unicode="Ð" d="M38 0l44 256h-65l14 78h65l45 255h169q127 0 187.5 -58.5t60.5 -166.5q0 -99 -28 -168.5t-74 -113t-104.5 -63t-119.5 -19.5h-194zM232 77q46 0 87.5 16t72.5 50t49 86.5t18 126.5q0 84 -44.5 120t-119.5 36h-73l-32 -178h123l-14 -78h-122l-31 -179h86z"></glyph><glyph glyph-name="Ntilde" unicode="Ñ" d="M389 258q11 -25 19.5 -47t14.5 -39q7 -20 12 -38h4q2 20 5 43q2 20 6 45.5t9 53.5l55 313h94l-103 -589h-91l-158 328q-11 24 -20 46.5t-15 39.5q-7 20 -13 39h-4q-1 -19 -4 -42q-2 -20 -5 -45t-8 -54l-55 -312h-94l103 589h94zM437 653q-27 0 -41.5 8t-31.5 18 q-19 12 -30 18.5t-26 6.5t-26 -11.5t-13 -37.5h-54q-5 25 0 47.5t18 39.5t32.5 26.5t43.5 9.5q27 0 43 -8.5t33 -19.5q19 -12 28.5 -17.5t23.5 -5.5t24 11.5t12 39.5h58q8 -55 -17.5 -90t-76.5 -35z"></glyph><glyph glyph-name="Ograve" unicode="Ò" d="M284 -12q-55 0 -98 17.5t-72 49t-44.5 76t-15.5 97.5q0 88 24 157.5t65.5 117.5t96 73t116.5 25q55 0 98.5 -17.5t72.5 -49.5t44.5 -76.5t15.5 -97.5q0 -89 -24.5 -158t-65.5 -116.5t-96.5 -72.5t-116.5 -25zM348 521q-48 0 -84.5 -23.5t-62 -63t-38.5 -91t-13 -108.5 q0 -78 36.5 -123.5t106.5 -45.5q46 0 83 23.5t62 63t38.5 91.5t13.5 109q0 35 -8 66t-25.5 53.5t-44.5 35.5t-64 13zM335 653l-100 123h120l63 -123h-83z"></glyph><glyph glyph-name="Oacute" unicode="Ó" d="M284 -12q-55 0 -98 17.5t-72 49t-44.5 76t-15.5 97.5q0 88 24 157.5t65.5 117.5t96 73t116.5 25q55 0 98.5 -17.5t72.5 -49.5t44.5 -76.5t15.5 -97.5q0 -89 -24.5 -158t-65.5 -116.5t-96.5 -72.5t-116.5 -25zM348 521q-48 0 -84.5 -23.5t-62 -63t-38.5 -91t-13 -108.5 q0 -78 36.5 -123.5t106.5 -45.5q46 0 83 23.5t62 63t38.5 91.5t13.5 109q0 35 -8 66t-25.5 53.5t-44.5 35.5t-64 13zM326 653l63 123h120l-101 -123h-82z"></glyph><glyph glyph-name="Ocircumflex" unicode="Ô" d="M284 -12q-55 0 -98 17.5t-72 49t-44.5 76t-15.5 97.5q0 88 24 157.5t65.5 117.5t96 73t116.5 25q55 0 98.5 -17.5t72.5 -49.5t44.5 -76.5t15.5 -97.5q0 -89 -24.5 -158t-65.5 -116.5t-96.5 -72.5t-116.5 -25zM348 521q-48 0 -84.5 -23.5t-62 -63t-38.5 -91t-13 -108.5 q0 -78 36.5 -123.5t106.5 -45.5q46 0 83 23.5t62 63t38.5 91.5t13.5 109q0 35 -8 66t-25.5 53.5t-44.5 35.5t-64 13zM415 782l102 -129h-95l-25 33q-6 8 -9 13.5t-5 10.5t-3 10h-3q-2 -5 -6 -10q-5 -8 -23 -24l-37 -33h-99l147 129h56z"></glyph><glyph glyph-name="Otilde" unicode="Õ" d="M284 -12q-55 0 -98 17.5t-72 49t-44.5 76t-15.5 97.5q0 88 24 157.5t65.5 117.5t96 73t116.5 25q55 0 98.5 -17.5t72.5 -49.5t44.5 -76.5t15.5 -97.5q0 -89 -24.5 -158t-65.5 -116.5t-96.5 -72.5t-116.5 -25zM348 521q-48 0 -84.5 -23.5t-62 -63t-38.5 -91t-13 -108.5 q0 -78 36.5 -123.5t106.5 -45.5q46 0 83 23.5t62 63t38.5 91.5t13.5 109q0 35 -8 66t-25.5 53.5t-44.5 35.5t-64 13zM435 653q-27 0 -41.5 8t-31.5 18q-19 12 -30 18.5t-26 6.5t-26 -11.5t-13 -37.5h-54q-5 25 0 47.5t18 39.5t32.5 26.5t43.5 9.5q27 0 43 -8.5t33 -19.5 q19 -12 28.5 -17.5t23.5 -5.5t24 11.5t12 39.5h58q8 -55 -17.5 -90t-76.5 -35z"></glyph><glyph glyph-name="Odieresis" unicode="Ö" d="M284 -12q-55 0 -98 17.5t-72 49t-44.5 76t-15.5 97.5q0 88 24 157.5t65.5 117.5t96 73t116.5 25q55 0 98.5 -17.5t72.5 -49.5t44.5 -76.5t15.5 -97.5q0 -89 -24.5 -158t-65.5 -116.5t-96.5 -72.5t-116.5 -25zM348 521q-48 0 -84.5 -23.5t-62 -63t-38.5 -91t-13 -108.5 q0 -78 36.5 -123.5t106.5 -45.5q46 0 83 23.5t62 63t38.5 91.5t13.5 109q0 35 -8 66t-25.5 53.5t-44.5 35.5t-64 13zM220 713q0 26 17.5 43t41.5 17q25 0 42.5 -17t17.5 -43t-17.5 -42.5t-42.5 -16.5q-24 0 -41.5 16.5t-17.5 42.5zM416 712q0 26 17.5 43t41.5 17 q26 0 43 -17t17 -43q0 -25 -17 -42t-43 -17q-24 0 -41.5 17t-17.5 42z"></glyph><glyph glyph-name="multiply" unicode="×" d="M197 250l-106 132l44 38l107 -132l164 139l36 -43l-164 -139l116 -139l-44 -37l-116 138l-161 -137l-36 44z"></glyph><glyph glyph-name="Oslash" unicode="Ø" d="M19 26l66 68q-31 55 -31 134q0 88 24 157.5t65.5 117.5t96 73t116.5 25q52 0 92.5 -15.5t69.5 -43.5l57 59l46 -41l-65 -67q31 -59 31 -133q0 -89 -24.5 -158t-65.5 -116.5t-96.5 -72.5t-116.5 -25q-101 0 -163 59l-59 -61zM490 353q0 34 -9 64l-296 -305q19 -22 46 -34 t62 -12q46 0 83 23.5t62 63t38.5 91.5t13.5 109zM348 521q-48 0 -84.5 -23.5t-62 -63t-38.5 -91t-13 -108.5q0 -18 1.5 -34.5t6.5 -30.5l296 305q-18 22 -44 34t-62 12z"></glyph><glyph glyph-name="Ugrave" unicode="Ù" d="M585 589l-70 -399q-10 -59 -33 -97.5t-56 -62t-75 -33t-90 -9.5q-47 0 -87.5 12.5t-68.5 40t-39.5 72.5t0.5 110l63 366h95l-66 -372q-7 -40 -1.5 -68.5t20.5 -47t39.5 -27.5t56.5 -9q63 0 100 33t51 111l67 380h94zM326 653l-100 123h120l63 -123h-83z"></glyph><glyph glyph-name="Uacute" unicode="Ú" d="M585 589l-70 -399q-10 -59 -33 -97.5t-56 -62t-75 -33t-90 -9.5q-47 0 -87.5 12.5t-68.5 40t-39.5 72.5t0.5 110l63 366h95l-66 -372q-7 -40 -1.5 -68.5t20.5 -47t39.5 -27.5t56.5 -9q63 0 100 33t51 111l67 380h94zM317 653l63 123h120l-101 -123h-82z"></glyph><glyph glyph-name="Ucircumflex" unicode="Û" d="M585 589l-70 -399q-10 -59 -33 -97.5t-56 -62t-75 -33t-90 -9.5q-47 0 -87.5 12.5t-68.5 40t-39.5 72.5t0.5 110l63 366h95l-66 -372q-7 -40 -1.5 -68.5t20.5 -47t39.5 -27.5t56.5 -9q63 0 100 33t51 111l67 380h94zM406 782l102 -129h-95l-25 33q-6 8 -9 13.5t-5 10.5 t-3 10h-3q-2 -5 -6 -10q-5 -8 -23 -24l-37 -33h-99l147 129h56z"></glyph><glyph glyph-name="Udieresis" unicode="Ü" d="M585 589l-70 -399q-10 -59 -33 -97.5t-56 -62t-75 -33t-90 -9.5q-47 0 -87.5 12.5t-68.5 40t-39.5 72.5t0.5 110l63 366h95l-66 -372q-7 -40 -1.5 -68.5t20.5 -47t39.5 -27.5t56.5 -9q63 0 100 33t51 111l67 380h94zM211 713q0 26 17.5 43t41.5 17q25 0 42.5 -17 t17.5 -43t-17.5 -42.5t-42.5 -16.5q-24 0 -41.5 16.5t-17.5 42.5zM407 712q0 26 17.5 43t41.5 17q26 0 43 -17t17 -43q0 -25 -17 -42t-43 -17q-24 0 -41.5 17t-17.5 42z"></glyph><glyph glyph-name="Yacute" unicode="Ý" d="M241 402q8 -26 12.5 -46t6.5 -35q3 -18 4 -31h4q4 13 12 31q7 15 17.5 35t26.5 46l121 187h100l-242 -366l-39 -223h-94l38 223l-127 366h98zM280 653l63 123h120l-101 -123h-82z"></glyph><glyph glyph-name="Thorn" unicode="Þ" d="M167 197h79q66 0 101.5 30t35.5 97q0 42 -24 62t-77 20h-79zM38 0l103 589h94l-19 -105h80q95 0 138.5 -38.5t43.5 -114.5q0 -55 -17.5 -94.5t-49 -65t-74 -38t-91.5 -12.5h-92l-22 -121h-94z"></glyph><glyph glyph-name="germandbls" unicode="ß" d="M117 456q10 60 32.5 101.5t54 68t70 38t81.5 11.5q42 0 73 -11t50.5 -30t29 -44.5t9.5 -53.5q0 -38 -12 -66t-32 -47t-45.5 -29.5t-52.5 -14.5v-4q63 -8 93.5 -50.5t30.5 -106.5q0 -57 -16 -100t-43.5 -72t-64.5 -43.5t-80 -14.5q-98 0 -125 68l52 60q17 -58 76 -58 q20 0 39.5 8.5t35 27t25 48t9.5 72.5q0 57 -27.5 91.5t-93.5 34.5h-43l13 72h41q59 0 95 27t36 83q0 35 -18.5 58.5t-65.5 23.5q-24 0 -45 -7t-39 -24t-31.5 -46t-21.5 -74l-96 -550q-6 -35 -17 -57t-27 -34.5t-37 -17.5t-46 -5q-26 0 -48 6.5t-37 18.5l20 69q27 -23 54 -23 q20 0 31 9.5t16 36.5z"></glyph><glyph glyph-name="agrave" unicode="à" d="M360 271q4 24 1.5 48t-12.5 42.5t-27.5 30t-43.5 11.5q-33 0 -60.5 -16.5t-47 -46t-30.5 -69t-11 -85.5q0 -54 23 -89.5t70 -35.5q49 0 81 35.5t43 96.5zM423 111q-3 -17 0.5 -31t25.5 -14q7 0 14 1.5t16 3.5l-13 -67q-12 -5 -26 -7t-28 -2q-84 0 -81 82 q-20 -48 -57 -68.5t-81 -20.5q-69 0 -112 49t-43 140q0 59 16 113t45.5 94.5t71 64.5t92.5 24q49 0 79.5 -21t38.5 -68l26 78h78zM267 529l-115 146h121l74 -146h-80z"></glyph><glyph glyph-name="aacute" unicode="á" d="M360 271q4 24 1.5 48t-12.5 42.5t-27.5 30t-43.5 11.5q-33 0 -60.5 -16.5t-47 -46t-30.5 -69t-11 -85.5q0 -54 23 -89.5t70 -35.5q49 0 81 35.5t43 96.5zM423 111q-3 -17 0.5 -31t25.5 -14q7 0 14 1.5t16 3.5l-13 -67q-12 -5 -26 -7t-28 -2q-84 0 -81 82 q-20 -48 -57 -68.5t-81 -20.5q-69 0 -112 49t-43 140q0 59 16 113t45.5 94.5t71 64.5t92.5 24q49 0 79.5 -21t38.5 -68l26 78h78zM253 529l74 146h121l-116 -146h-79z"></glyph><glyph glyph-name="acircumflex" unicode="â" d="M360 271q4 24 1.5 48t-12.5 42.5t-27.5 30t-43.5 11.5q-33 0 -60.5 -16.5t-47 -46t-30.5 -69t-11 -85.5q0 -54 23 -89.5t70 -35.5q49 0 81 35.5t43 96.5zM423 111q-3 -17 0.5 -31t25.5 -14q7 0 14 1.5t16 3.5l-13 -67q-12 -5 -26 -7t-28 -2q-84 0 -81 82 q-20 -48 -57 -68.5t-81 -20.5q-69 0 -112 49t-43 140q0 59 16 113t45.5 94.5t71 64.5t92.5 24q49 0 79.5 -21t38.5 -68l26 78h78zM343 675l100 -147h-89l-28 42q-6 8 -9 15.5l-5 12.5q-2 6 -2 10h-4q-2 -4 -6 -10l-10 -12.5t-14 -15.5l-42 -42h-94l151 147h52z"></glyph><glyph glyph-name="atilde" unicode="ã" d="M360 271q4 24 1.5 48t-12.5 42.5t-27.5 30t-43.5 11.5q-33 0 -60.5 -16.5t-47 -46t-30.5 -69t-11 -85.5q0 -54 23 -89.5t70 -35.5q49 0 81 35.5t43 96.5zM423 111q-3 -17 0.5 -31t25.5 -14q7 0 14 1.5t16 3.5l-13 -67q-12 -5 -26 -7t-28 -2q-84 0 -81 82 q-20 -48 -57 -68.5t-81 -20.5q-69 0 -112 49t-43 140q0 59 16 113t45.5 94.5t71 64.5t92.5 24q49 0 79.5 -21t38.5 -68l26 78h78zM371 529q-27 0 -41.5 7.5t-31.5 17.5q-19 12 -30 18.5t-26 6.5t-26 -11.5t-13 -37.5h-54q-5 26 0 48.5t18 39.5t32.5 26.5t43.5 9.5 q27 0 43 -9t33 -20q19 -12 28.5 -17.5t23.5 -5.5t24 11.5t12 39.5h58q8 -54 -17.5 -89t-76.5 -35z"></glyph><glyph glyph-name="adieresis" unicode="ä" d="M360 271q4 24 1.5 48t-12.5 42.5t-27.5 30t-43.5 11.5q-33 0 -60.5 -16.5t-47 -46t-30.5 -69t-11 -85.5q0 -54 23 -89.5t70 -35.5q49 0 81 35.5t43 96.5zM423 111q-3 -17 0.5 -31t25.5 -14q7 0 14 1.5t16 3.5l-13 -67q-12 -5 -26 -7t-28 -2q-84 0 -81 82 q-20 -48 -57 -68.5t-81 -20.5q-69 0 -112 49t-43 140q0 59 16 113t45.5 94.5t71 64.5t92.5 24q49 0 79.5 -21t38.5 -68l26 78h78zM151 595q0 26 17.5 43t41.5 17q25 0 42.5 -17t17.5 -43t-17.5 -42.5t-42.5 -16.5q-24 0 -41.5 16.5t-17.5 42.5zM347 594q0 26 17.5 43 t41.5 17q26 0 43 -17t17 -43q0 -25 -17 -42t-43 -17q-24 0 -41.5 17t-17.5 42z"></glyph><glyph glyph-name="aring" unicode="å" d="M360 271q4 24 1.5 48t-12.5 42.5t-27.5 30t-43.5 11.5q-33 0 -60.5 -16.5t-47 -46t-30.5 -69t-11 -85.5q0 -54 23 -89.5t70 -35.5q49 0 81 35.5t43 96.5zM423 111q-3 -17 0.5 -31t25.5 -14q7 0 14 1.5t16 3.5l-13 -67q-12 -5 -26 -7t-28 -2q-84 0 -81 82 q-20 -48 -57 -68.5t-81 -20.5q-69 0 -112 49t-43 140q0 59 16 113t45.5 94.5t71 64.5t92.5 24q49 0 79.5 -21t38.5 -68l26 78h78zM215 610q0 44 29.5 75t78.5 31q42 0 66.5 -25.5t24.5 -62.5q0 -22 -7.5 -41.5t-22 -34t-34 -23t-43.5 -8.5q-46 0 -69 25.5t-23 63.5zM319 674 q-23 0 -39 -18t-16 -41t13 -36.5t36 -13.5t38 17.5t15 40.5t-12 37t-35 14z"></glyph><glyph glyph-name="ae" unicode="æ" d="M500 58q47 0 70 19t34 56l84 -21q-12 -35 -30.5 -59t-43 -38.5t-55 -20.5t-67.5 -6q-52 0 -90.5 20t-61.5 56q-52 -76 -166 -76q-72 0 -107 32t-35 89q0 86 74.5 124.5t211.5 39.5q4 13 7.5 25t8.5 23q5 42 -15 61.5t-57 19.5q-38 0 -63 -19t-33 -56l-85 13 q9 37 28.5 62.5t45.5 41t57 22.5t62 7q44 0 78.5 -11.5t51.5 -42.5q29 27 64.5 40.5t71.5 13.5q46 0 78.5 -14t53 -37t30 -53t9.5 -62q0 -25 -4.5 -50.5t-15.5 -47.5h-293q-3 -29 1.5 -56t16.5 -48t33 -34t51 -13zM316 122q-4 14 -5.5 30t-1.5 33v12t1 11q-41 0 -75.5 -5.5 t-59.5 -16.5t-38.5 -28.5t-13.5 -42.5q0 -29 17 -44.5t50 -15.5q38 0 69.5 14t56.5 53zM618 273q2 8 3 18t1 18q0 38 -20.5 66t-65.5 28q-26 0 -47 -11t-37 -29t-27 -41.5t-17 -48.5h210z"></glyph><glyph glyph-name="ccedilla" unicode="ç" d="M272 -124q0 -22 -8.5 -38t-23 -27t-34 -16.5t-41.5 -5.5q-62 0 -90 38l23 51q27 -36 63 -36q17 0 28 8.5t11 25.5q0 19 -15 30t-49 12l29 77q-59 14 -93 62t-34 126q0 55 15 107.5t45 93t75 65t105 24.5q80 0 117 -41.5t37 -109.5l-86 -15q0 40 -17 66t-61 26 q-34 0 -60 -18.5t-43.5 -47.5t-26.5 -66t-9 -74q0 -68 26.5 -101.5t73.5 -33.5q43 0 67 24t37 65l85 -17q-25 -72 -73.5 -107t-125.5 -35q-4 0 -7 0.5t-6 0.5l-12 -30q40 -8 59 -27.5t19 -55.5z"></glyph><glyph glyph-name="egrave" unicode="è" d="M229 58q47 0 70 19t34 56l84 -21q-12 -35 -30.5 -59t-43 -38.5t-55 -20.5t-67.5 -6q-88 0 -135.5 53.5t-47.5 143.5q0 70 20 124t52.5 90.5t74 55t84.5 18.5q45 0 77.5 -14t53.5 -37t30.5 -53t9.5 -62q0 -49 -20 -95h-293q-3 -29 1 -56.5t16.5 -49.5t33.5 -35t51 -13z M346 277q3 8 4 16t1 16q0 38 -20.5 66t-65.5 28q-26 0 -47 -10.5t-37 -27.5t-27 -40t-17 -48h209zM240 529l-115 146h121l74 -146h-80z"></glyph><glyph glyph-name="eacute" unicode="é" d="M229 58q47 0 70 19t34 56l84 -21q-12 -35 -30.5 -59t-43 -38.5t-55 -20.5t-67.5 -6q-88 0 -135.5 53.5t-47.5 143.5q0 70 20 124t52.5 90.5t74 55t84.5 18.5q45 0 77.5 -14t53.5 -37t30.5 -53t9.5 -62q0 -49 -20 -95h-293q-3 -29 1 -56.5t16.5 -49.5t33.5 -35t51 -13z M346 277q3 8 4 16t1 16q0 38 -20.5 66t-65.5 28q-26 0 -47 -10.5t-37 -27.5t-27 -40t-17 -48h209zM225 529l74 146h121l-116 -146h-79z"></glyph><glyph glyph-name="ecircumflex" unicode="ê" d="M229 58q47 0 70 19t34 56l84 -21q-12 -35 -30.5 -59t-43 -38.5t-55 -20.5t-67.5 -6q-88 0 -135.5 53.5t-47.5 143.5q0 70 20 124t52.5 90.5t74 55t84.5 18.5q45 0 77.5 -14t53.5 -37t30.5 -53t9.5 -62q0 -49 -20 -95h-293q-3 -29 1 -56.5t16.5 -49.5t33.5 -35t51 -13z M346 277q3 8 4 16t1 16q0 38 -20.5 66t-65.5 28q-26 0 -47 -10.5t-37 -27.5t-27 -40t-17 -48h209zM316 675l100 -147h-89l-28 42q-6 8 -9 15.5l-5 12.5q-2 6 -2 10h-4q-2 -4 -6 -10l-10 -12.5t-14 -15.5l-42 -42h-94l151 147h52z"></glyph><glyph glyph-name="edieresis" unicode="ë" d="M229 58q47 0 70 19t34 56l84 -21q-12 -35 -30.5 -59t-43 -38.5t-55 -20.5t-67.5 -6q-88 0 -135.5 53.5t-47.5 143.5q0 70 20 124t52.5 90.5t74 55t84.5 18.5q45 0 77.5 -14t53.5 -37t30.5 -53t9.5 -62q0 -49 -20 -95h-293q-3 -29 1 -56.5t16.5 -49.5t33.5 -35t51 -13z M346 277q3 8 4 16t1 16q0 38 -20.5 66t-65.5 28q-26 0 -47 -10.5t-37 -27.5t-27 -40t-17 -48h209zM123 595q0 26 17.5 43t41.5 17q25 0 42.5 -17t17.5 -43t-17.5 -42.5t-42.5 -16.5q-24 0 -41.5 16.5t-17.5 42.5zM319 594q0 26 17.5 43t41.5 17q26 0 43 -17t17 -43 q0 -25 -17 -42t-43 -17q-24 0 -41.5 17t-17.5 42z"></glyph><glyph glyph-name="igrave" unicode="ì" d="M142 111q-3 -17 1 -31t26 -14q6 0 13 1.5t16 3.5l-13 -67q-24 -9 -54 -9q-52 0 -71 28t-10 79l63 360h91zM141 529l-115 146h121l74 -146h-80z"></glyph><glyph glyph-name="iacute" unicode="í" d="M142 111q-3 -17 1 -31t26 -14q6 0 13 1.5t16 3.5l-13 -67q-24 -9 -54 -9q-52 0 -71 28t-10 79l63 360h91zM125 529l74 146h121l-116 -146h-79z"></glyph><glyph glyph-name="icircumflex" unicode="î" d="M142 111q-3 -17 1 -31t26 -14q6 0 13 1.5t16 3.5l-13 -67q-24 -9 -54 -9q-52 0 -71 28t-10 79l63 360h91zM217 675l100 -147h-89l-28 42q-6 8 -9 15.5l-5 12.5q-2 6 -2 10h-4q-2 -4 -6 -10l-10 -12.5t-14 -15.5l-42 -42h-94l151 147h52z"></glyph><glyph glyph-name="idieresis" unicode="ï" d="M142 111q-3 -17 1 -31t26 -14q6 0 13 1.5t16 3.5l-13 -67q-24 -9 -54 -9q-52 0 -71 28t-10 79l63 360h91zM24 595q0 26 17.5 43t41.5 17q25 0 42.5 -17t17.5 -43t-17.5 -42.5t-42.5 -16.5q-24 0 -41.5 16.5t-17.5 42.5zM220 594q0 26 17.5 43t41.5 17q26 0 43 -17t17 -43 q0 -25 -17 -42t-43 -17q-24 0 -41.5 17t-17.5 42z"></glyph><glyph glyph-name="eth" unicode="ð" d="M120 531l132 35q-61 42 -145 60l72 47q48 -12 89 -31.5t75 -49.5l90 26l12 -44l-67 -18q38 -48 59.5 -114t21.5 -154q0 -65 -15.5 -120t-45.5 -95t-74.5 -62.5t-102.5 -22.5q-40 0 -73.5 12.5t-58 37t-38 60.5t-13.5 84q0 56 15.5 107t44.5 89.5t70.5 61t93.5 22.5 q35 0 64 -15.5t42 -47.5h4q-21 80 -77 133l-163 -43zM268 390q-32 0 -58 -16.5t-44 -44.5t-27.5 -65t-9.5 -77q0 -64 27 -97t74 -33q33 0 58.5 17t43 46t27 66.5t9.5 78.5q0 64 -26 94.5t-74 30.5z"></glyph><glyph glyph-name="ntilde" unicode="ñ" d="M420 111q-3 -17 1 -31t26 -14q6 0 13 1.5t16 3.5l-13 -67q-24 -9 -54 -9q-52 0 -71 28t-10 79l37 208q8 39 -5.5 63t-54.5 24q-18 0 -38 -7t-38.5 -24t-33.5 -45t-22 -70l-44 -251h-91l81 462h79l-5 -94q24 51 60 78t89 27q54 0 86 -28.5t32 -82.5q0 -9 -0.5 -19 t-3.5 -25zM375 529q-27 0 -41.5 7.5t-31.5 17.5q-19 12 -30 18.5t-26 6.5t-26 -11.5t-13 -37.5h-54q-5 26 0 48.5t18 39.5t32.5 26.5t43.5 9.5q27 0 43 -9t33 -20q19 -12 28.5 -17.5t23.5 -5.5t24 11.5t12 39.5h58q8 -54 -17.5 -89t-76.5 -35z"></glyph><glyph glyph-name="ograve" unicode="ò" d="M280 473q87 0 134.5 -53t47.5 -146q0 -57 -15.5 -109t-46.5 -91.5t-76 -62.5t-103 -23q-40 0 -73.5 13t-58 37.5t-38 61t-13.5 84.5q0 57 15.5 109.5t46 92.5t76 63.5t104.5 23.5zM269 399q-33 0 -59 -17t-44 -45.5t-27.5 -66.5t-9.5 -79q0 -66 27 -99.5t75 -33.5 q33 0 58.5 17.5t43 47t27 67.5t9.5 80q0 62 -26 95.5t-74 33.5zM255 529l-115 146h121l74 -146h-80z"></glyph><glyph glyph-name="oacute" unicode="ó" d="M280 473q87 0 134.5 -53t47.5 -146q0 -57 -15.5 -109t-46.5 -91.5t-76 -62.5t-103 -23q-40 0 -73.5 13t-58 37.5t-38 61t-13.5 84.5q0 57 15.5 109.5t46 92.5t76 63.5t104.5 23.5zM269 399q-33 0 -59 -17t-44 -45.5t-27.5 -66.5t-9.5 -79q0 -66 27 -99.5t75 -33.5 q33 0 58.5 17.5t43 47t27 67.5t9.5 80q0 62 -26 95.5t-74 33.5zM240 529l74 146h121l-116 -146h-79z"></glyph><glyph glyph-name="ocircumflex" unicode="ô" d="M280 473q87 0 134.5 -53t47.5 -146q0 -57 -15.5 -109t-46.5 -91.5t-76 -62.5t-103 -23q-40 0 -73.5 13t-58 37.5t-38 61t-13.5 84.5q0 57 15.5 109.5t46 92.5t76 63.5t104.5 23.5zM269 399q-33 0 -59 -17t-44 -45.5t-27.5 -66.5t-9.5 -79q0 -66 27 -99.5t75 -33.5 q33 0 58.5 17.5t43 47t27 67.5t9.5 80q0 62 -26 95.5t-74 33.5zM331 675l100 -147h-89l-28 42q-6 8 -9 15.5l-5 12.5q-2 6 -2 10h-4q-2 -4 -6 -10l-10 -12.5t-14 -15.5l-42 -42h-94l151 147h52z"></glyph><glyph glyph-name="otilde" unicode="õ" d="M280 473q87 0 134.5 -53t47.5 -146q0 -57 -15.5 -109t-46.5 -91.5t-76 -62.5t-103 -23q-40 0 -73.5 13t-58 37.5t-38 61t-13.5 84.5q0 57 15.5 109.5t46 92.5t76 63.5t104.5 23.5zM269 399q-33 0 -59 -17t-44 -45.5t-27.5 -66.5t-9.5 -79q0 -66 27 -99.5t75 -33.5 q33 0 58.5 17.5t43 47t27 67.5t9.5 80q0 62 -26 95.5t-74 33.5zM358 529q-27 0 -41.5 7.5t-31.5 17.5q-19 12 -30 18.5t-26 6.5t-26 -11.5t-13 -37.5h-54q-5 26 0 48.5t18 39.5t32.5 26.5t43.5 9.5q27 0 43 -9t33 -20q19 -12 28.5 -17.5t23.5 -5.5t24 11.5t12 39.5h58 q8 -54 -17.5 -89t-76.5 -35z"></glyph><glyph glyph-name="odieresis" unicode="ö" d="M280 473q87 0 134.5 -53t47.5 -146q0 -57 -15.5 -109t-46.5 -91.5t-76 -62.5t-103 -23q-40 0 -73.5 13t-58 37.5t-38 61t-13.5 84.5q0 57 15.5 109.5t46 92.5t76 63.5t104.5 23.5zM269 399q-33 0 -59 -17t-44 -45.5t-27.5 -66.5t-9.5 -79q0 -66 27 -99.5t75 -33.5 q33 0 58.5 17.5t43 47t27 67.5t9.5 80q0 62 -26 95.5t-74 33.5zM138 595q0 26 17.5 43t41.5 17q25 0 42.5 -17t17.5 -43t-17.5 -42.5t-42.5 -16.5q-24 0 -41.5 16.5t-17.5 42.5zM334 594q0 26 17.5 43t41.5 17q26 0 43 -17t17 -43q0 -25 -17 -42t-43 -17q-24 0 -41.5 17 t-17.5 42z"></glyph><glyph glyph-name="divide" unicode="÷" d="M40 221l9 54h408l-9 -54h-408zM160 74q0 20 13.5 33t32.5 13t33 -13t14 -33q0 -19 -14 -32t-33 -13t-32.5 13t-13.5 32zM236 415q0 20 13.5 34t32.5 14t33 -14t14 -34q0 -18 -14 -31.5t-33 -13.5t-32.5 13.5t-13.5 31.5z"></glyph><glyph glyph-name="oslash" unicode="ø" d="M280 473q43 0 76.5 -13.5t56.5 -39.5l55 52l41 -43l-64 -61q17 -42 17 -94q0 -57 -15.5 -109t-46.5 -91.5t-76 -62.5t-103 -23q-76 0 -124 43l-48 -45l-42 40l53 52q-22 46 -22 106q0 57 15.5 109.5t46 92.5t76 63.5t104.5 23.5zM269 399q-32 0 -57.5 -16t-43.5 -43.5 t-27.5 -63t-10.5 -74.5q0 -14 1 -27.5t3 -25.5l214 209q-27 41 -79 41zM231 58q31 0 56.5 16.5t43 44.5t27 64.5t10.5 75.5q1 8 0.5 17t-0.5 18l-210 -204q25 -32 73 -32z"></glyph><glyph glyph-name="ugrave" unicode="ù" d="M318 87q-21 -53 -57 -76t-89 -23q-74 0 -103.5 45.5t-15.5 128.5l52 300h91l-54 -311q-8 -46 7.5 -71t53.5 -25q21 0 41 8.5t37 24.5t29.5 40t18.5 56l48 278h91l-62 -351q-3 -17 1 -31t26 -14q6 0 13 1.5t16 3.5l-13 -67q-12 -5 -26 -7t-28 -2q-48 0 -65 23.5t-12 68.5z M263 529l-115 146h121l74 -146h-80z"></glyph><glyph glyph-name="uacute" unicode="ú" d="M318 87q-21 -53 -57 -76t-89 -23q-74 0 -103.5 45.5t-15.5 128.5l52 300h91l-54 -311q-8 -46 7.5 -71t53.5 -25q21 0 41 8.5t37 24.5t29.5 40t18.5 56l48 278h91l-62 -351q-3 -17 1 -31t26 -14q6 0 13 1.5t16 3.5l-13 -67q-12 -5 -26 -7t-28 -2q-48 0 -65 23.5t-12 68.5z M248 529l74 146h121l-116 -146h-79z"></glyph><glyph glyph-name="ucircumflex" unicode="û" d="M318 87q-21 -53 -57 -76t-89 -23q-74 0 -103.5 45.5t-15.5 128.5l52 300h91l-54 -311q-8 -46 7.5 -71t53.5 -25q21 0 41 8.5t37 24.5t29.5 40t18.5 56l48 278h91l-62 -351q-3 -17 1 -31t26 -14q6 0 13 1.5t16 3.5l-13 -67q-12 -5 -26 -7t-28 -2q-48 0 -65 23.5t-12 68.5z M338 675l100 -147h-89l-28 42q-6 8 -9 15.5l-5 12.5q-2 6 -2 10h-4q-2 -4 -6 -10l-10 -12.5t-14 -15.5l-42 -42h-94l151 147h52z"></glyph><glyph glyph-name="udieresis" unicode="ü" d="M318 87q-21 -53 -57 -76t-89 -23q-74 0 -103.5 45.5t-15.5 128.5l52 300h91l-54 -311q-8 -46 7.5 -71t53.5 -25q21 0 41 8.5t37 24.5t29.5 40t18.5 56l48 278h91l-62 -351q-3 -17 1 -31t26 -14q6 0 13 1.5t16 3.5l-13 -67q-12 -5 -26 -7t-28 -2q-48 0 -65 23.5t-12 68.5z M146 595q0 26 17.5 43t41.5 17q25 0 42.5 -17t17.5 -43t-17.5 -42.5t-42.5 -16.5q-24 0 -41.5 16.5t-17.5 42.5zM342 594q0 26 17.5 43t41.5 17q26 0 43 -17t17 -43q0 -25 -17 -42t-43 -17q-24 0 -41.5 17t-17.5 42z"></glyph><glyph glyph-name="yacute" unicode="ý" d="M167 203q4 -34 5.5 -60t2.5 -45q1 -22 0 -39h4q4 18 12 40q7 19 18 45.5t28 58.5l132 259h96l-275 -515q-27 -51 -51.5 -82t-48.5 -48t-48 -22.5t-51 -5.5q-25 0 -43.5 5t-31.5 13l22 70q12 -8 26 -12.5t31 -4.5q37 0 64.5 26t58.5 87l-75 489h95zM204 529l74 146h121 l-116 -146h-79z"></glyph><glyph glyph-name="thorn" unicode="þ" d="M160 177q-5 -22 -1 -44t16 -40t31.5 -29.5t46.5 -11.5q35 0 62.5 18t46 49t28.5 72t10 86q0 58 -23.5 91t-68.5 33q-48 0 -85 -38t-48 -102zM93 -203h-90l152 871h90l-52 -295q47 100 151 100q72 0 112 -48.5t40 -142.5q0 -62 -16 -115.5t-46 -93.5t-72.5 -62.5 t-96.5 -22.5q-51 0 -83 24t-40 62z"></glyph><glyph glyph-name="ydieresis" unicode="ÿ" d="M167 203q4 -34 5.5 -60t2.5 -45q1 -22 0 -39h4q4 18 12 40q7 19 18 45.5t28 58.5l132 259h96l-275 -515q-27 -51 -51.5 -82t-48.5 -48t-48 -22.5t-51 -5.5q-25 0 -43.5 5t-31.5 13l22 70q12 -8 26 -12.5t31 -4.5q37 0 64.5 26t58.5 87l-75 489h95zM102 595q0 26 17.5 43 t41.5 17q25 0 42.5 -17t17.5 -43t-17.5 -42.5t-42.5 -16.5q-24 0 -41.5 16.5t-17.5 42.5zM298 594q0 26 17.5 43t41.5 17q26 0 43 -17t17 -43q0 -25 -17 -42t-43 -17q-24 0 -41.5 17t-17.5 42z"></glyph><glyph glyph-name="Amacron" unicode="Ā" d="M404 161h-241l-84 -161h-100l318 589h121l110 -589h-96zM202 237h188q-12 58 -20 110t-13.5 92t-7.5 63.5l-2 23.5h-4q-6 -20 -17 -44q-9 -21 -22.5 -49t-31.5 -63zM236 674l12 71h264l-12 -71h-264z"></glyph><glyph glyph-name="amacron" unicode="ā" d="M360 271q4 24 1.5 48t-12.5 42.5t-27.5 30t-43.5 11.5q-33 0 -60.5 -16.5t-47 -46t-30.5 -69t-11 -85.5q0 -54 23 -89.5t70 -35.5q49 0 81 35.5t43 96.5zM423 111q-3 -17 0.5 -31t25.5 -14q7 0 14 1.5t16 3.5l-13 -67q-12 -5 -26 -7t-28 -2q-84 0 -81 82 q-20 -48 -57 -68.5t-81 -20.5q-69 0 -112 49t-43 140q0 59 16 113t45.5 94.5t71 64.5t92.5 24q49 0 79.5 -21t38.5 -68l26 78h78zM172 558l13 73h262l-13 -73h-262z"></glyph><glyph glyph-name="Abreve" unicode="Ă" d="M404 161h-241l-84 -161h-100l318 589h121l110 -589h-96zM202 237h188q-12 58 -20 110t-13.5 92t-7.5 63.5l-2 23.5h-4q-6 -20 -17 -44q-9 -21 -22.5 -49t-31.5 -63zM358 650q-66 0 -94 35.5t-17 95.5h71q-3 -31 7.5 -48t45.5 -17t52 17t25 48h70q-11 -60 -52.5 -95.5 t-107.5 -35.5z"></glyph><glyph glyph-name="abreve" unicode="ă" d="M360 271q4 24 1.5 48t-12.5 42.5t-27.5 30t-43.5 11.5q-33 0 -60.5 -16.5t-47 -46t-30.5 -69t-11 -85.5q0 -54 23 -89.5t70 -35.5q49 0 81 35.5t43 96.5zM423 111q-3 -17 0.5 -31t25.5 -14q7 0 14 1.5t16 3.5l-13 -67q-12 -5 -26 -7t-28 -2q-84 0 -81 82 q-20 -48 -57 -68.5t-81 -20.5q-69 0 -112 49t-43 140q0 59 16 113t45.5 94.5t71 64.5t92.5 24q49 0 79.5 -21t38.5 -68l26 78h78zM290 527q-66 0 -94 39t-17 102h71q-2 -17 -1 -30.5t6 -23t16 -15t30 -5.5q38 0 54.5 20.5t24.5 53.5h71q-12 -63 -53.5 -102t-107.5 -39z"></glyph><glyph glyph-name="Aogonek" unicode="Ą" d="M257 -116q0 36 16 64.5t41 49t54 33t56 15.5l-20 115h-241l-84 -161h-100l318 589h121l110 -589h-45q-30 0 -57 -6.5t-47.5 -20t-33 -33t-12.5 -44.5q0 -21 12.5 -33.5t32.5 -12.5q24 0 38.5 10.5t25.5 28.5l29 -43q-16 -26 -41 -41.5t-68 -15.5q-51 0 -78 25t-27 70z M202 237h188q-12 58 -20 110t-13.5 92t-7.5 63.5l-2 23.5h-4q-6 -20 -17 -44q-9 -21 -22.5 -49t-31.5 -63z"></glyph><glyph glyph-name="aogonek" unicode="ą" d="M244 -116q0 25 9 46.5t24 38.5t33.5 29t37.5 20q-7 10 -12.5 26.5t-4.5 32.5q-20 -44 -57 -66.5t-81 -22.5q-69 0 -112 49t-43 140q0 59 16 113t45.5 94.5t71 64.5t92.5 24q49 0 79.5 -21t38.5 -68l26 78h78l-62 -351q-3 -17 0.5 -31t25.5 -14q7 0 14 1.5t16 3.5l-13 -67 q-26 -4 -52 -11t-47 -19.5t-34 -31.5t-13 -46q0 -21 12.5 -33.5t32.5 -12.5q24 0 38 10.5t25 28.5l29 -43q-15 -26 -40.5 -41.5t-68.5 -15.5q-50 0 -77 25t-27 70zM360 271q4 24 1.5 48t-12.5 42.5t-27.5 30t-43.5 11.5q-33 0 -60.5 -16.5t-47 -46t-30.5 -69t-11 -85.5 q0 -54 23 -89.5t70 -35.5q49 0 81 35.5t43 96.5z"></glyph><glyph glyph-name="Cacute" unicode="Ć" d="M514 115q-35 -63 -91 -95t-139 -32q-55 0 -98 17.5t-72 49t-44.5 75.5t-15.5 98q0 88 24 157.5t65.5 117.5t96 73t116.5 25q85 0 134.5 -37.5t65.5 -109.5l-94 -36q-8 53 -38.5 78.5t-75.5 25.5q-48 0 -84.5 -23.5t-62 -63.5t-38.5 -92t-13 -109q0 -77 36.5 -122.5 t106.5 -45.5q47 0 81 18t65 72zM318 653l63 123h120l-101 -123h-82z"></glyph><glyph glyph-name="cacute" unicode="ć" d="M418 130q-25 -72 -73.5 -107t-125.5 -35q-81 0 -131 50.5t-50 144.5q0 55 15 107.5t45 93t75 65t105 24.5q80 0 117 -41.5t37 -109.5l-86 -15q0 40 -17 66t-61 26q-34 0 -60 -18.5t-43.5 -47.5t-26.5 -66t-9 -74q0 -68 26.5 -101.5t73.5 -33.5q43 0 67 24t37 65zM242 529 l74 146h121l-116 -146h-79z"></glyph><glyph glyph-name="Ccircumflex" unicode="Ĉ" d="M514 115q-35 -63 -91 -95t-139 -32q-55 0 -98 17.5t-72 49t-44.5 75.5t-15.5 98q0 88 24 157.5t65.5 117.5t96 73t116.5 25q85 0 134.5 -37.5t65.5 -109.5l-94 -36q-8 53 -38.5 78.5t-75.5 25.5q-48 0 -84.5 -23.5t-62 -63.5t-38.5 -92t-13 -109q0 -77 36.5 -122.5 t106.5 -45.5q47 0 81 18t65 72zM408 782l102 -129h-95l-25 33q-6 8 -9 13.5t-5 10.5t-3 10h-3q-2 -5 -6 -10q-5 -8 -23 -24l-37 -33h-99l147 129h56z"></glyph><glyph glyph-name="ccircumflex" unicode="ĉ" d="M418 130q-25 -72 -73.5 -107t-125.5 -35q-81 0 -131 50.5t-50 144.5q0 55 15 107.5t45 93t75 65t105 24.5q80 0 117 -41.5t37 -109.5l-86 -15q0 40 -17 66t-61 26q-34 0 -60 -18.5t-43.5 -47.5t-26.5 -66t-9 -74q0 -68 26.5 -101.5t73.5 -33.5q43 0 67 24t37 65zM333 675 l100 -147h-89l-28 42q-6 8 -9 15.5l-5 12.5q-2 6 -2 10h-4q-2 -4 -6 -10l-10 -12.5t-14 -15.5l-42 -42h-94l151 147h52z"></glyph><glyph glyph-name="Cdotaccent" unicode="Ċ" d="M514 115q-35 -63 -91 -95t-139 -32q-55 0 -98 17.5t-72 49t-44.5 75.5t-15.5 98q0 88 24 157.5t65.5 117.5t96 73t116.5 25q85 0 134.5 -37.5t65.5 -109.5l-94 -36q-8 53 -38.5 78.5t-75.5 25.5q-48 0 -84.5 -23.5t-62 -63.5t-38.5 -92t-13 -109q0 -77 36.5 -122.5 t106.5 -45.5q47 0 81 18t65 72zM313 727q0 27 17.5 43.5t42.5 16.5q26 0 44 -16.5t18 -43.5q0 -26 -18 -43t-44 -17q-25 0 -42.5 17t-17.5 43z"></glyph><glyph glyph-name="cdotaccent" unicode="ċ" d="M418 130q-25 -72 -73.5 -107t-125.5 -35q-81 0 -131 50.5t-50 144.5q0 55 15 107.5t45 93t75 65t105 24.5q80 0 117 -41.5t37 -109.5l-86 -15q0 40 -17 66t-61 26q-34 0 -60 -18.5t-43.5 -47.5t-26.5 -66t-9 -74q0 -68 26.5 -101.5t73.5 -33.5q43 0 67 24t37 65zM234 609 q0 26 17.5 43t42.5 17q26 0 44 -17t18 -43t-18 -43t-44 -17q-25 0 -42.5 17t-17.5 43z"></glyph><glyph glyph-name="Ccaron" unicode="Č" d="M514 115q-35 -63 -91 -95t-139 -32q-55 0 -98 17.5t-72 49t-44.5 75.5t-15.5 98q0 88 24 157.5t65.5 117.5t96 73t116.5 25q85 0 134.5 -37.5t65.5 -109.5l-94 -36q-8 53 -38.5 78.5t-75.5 25.5q-48 0 -84.5 -23.5t-62 -63.5t-38.5 -92t-13 -109q0 -77 36.5 -122.5 t106.5 -45.5q47 0 81 18t65 72zM333 653l-101 129h94l26 -33q11 -15 14 -25l3 -9h3l6 9q3 5 8.5 11t13.5 14l38 33h99l-148 -129h-56z"></glyph><glyph glyph-name="ccaron" unicode="č" d="M418 130q-25 -72 -73.5 -107t-125.5 -35q-81 0 -131 50.5t-50 144.5q0 55 15 107.5t45 93t75 65t105 24.5q80 0 117 -41.5t37 -109.5l-86 -15q0 40 -17 66t-61 26q-34 0 -60 -18.5t-43.5 -47.5t-26.5 -66t-9 -74q0 -68 26.5 -101.5t73.5 -33.5q43 0 67 24t37 65zM259 528 l-100 147h89l28 -41q12 -20 14 -28q2 -6 2 -10h4q2 4 6 10q4 5 9.5 12t14.5 16l42 41h94l-151 -147h-52z"></glyph><glyph glyph-name="Dcaron" unicode="Ď" d="M232 77q46 0 87.5 16t72.5 50t49 86.5t18 126.5q0 84 -44.5 120t-119.5 36h-73l-76 -435h86zM38 0l103 589h169q127 0 187.5 -58.5t60.5 -166.5q0 -99 -28 -168.5t-74 -113t-104.5 -63t-119.5 -19.5h-194zM293 653l-101 129h94l26 -33q11 -15 14 -25l3 -9h3l6 9 q3 5 8.5 11t13.5 14l38 33h99l-148 -129h-56z"></glyph><glyph glyph-name="dcaron" unicode="ď" d="M628 498h-65l16 176h102zM362 271q4 24 1.5 47.5t-13 42t-28.5 30t-44 11.5q-33 0 -61 -16.5t-47.5 -46t-30.5 -69t-11 -85.5q0 -54 23 -89t70 -35q50 0 82.5 34.5t43.5 96.5zM424 111q-3 -17 1 -31t26 -14q6 0 13 1.5t16 3.5l-13 -67q-24 -9 -54 -9q-83 0 -81 82 q-9 -25 -23.5 -42t-33 -27.5t-39.5 -15t-43 -4.5q-69 0 -112 49t-43 140q0 59 16 113t45.5 94.5t71.5 64.5t93 24q48 0 79 -21t39 -68l50 284h90z"></glyph><glyph glyph-name="Dcroat" unicode="Đ" d="M38 0l44 256h-65l14 78h65l45 255h169q127 0 187.5 -58.5t60.5 -166.5q0 -99 -28 -168.5t-74 -113t-104.5 -63t-119.5 -19.5h-194zM232 77q46 0 87.5 16t72.5 50t49 86.5t18 126.5q0 84 -44.5 120t-119.5 36h-73l-32 -178h123l-14 -78h-122l-31 -179h86z"></glyph><glyph glyph-name="dcroat" unicode="đ" d="M508 594h75l-12 -65h-74l-73 -418q-3 -17 1 -31t26 -14q6 0 13 1.5t16 3.5l-13 -67q-24 -9 -54 -9q-83 0 -81 82q-9 -25 -23.5 -42t-33 -27.5t-39.5 -15t-43 -4.5q-69 0 -112 49t-43 140q0 59 16 113t45.5 94.5t71.5 64.5t93 24q48 0 79 -21t39 -68l25 145h-139l12 65 h138l14 74h90zM362 271q4 24 1.5 47.5t-13 42t-28.5 30t-44 11.5q-33 0 -61 -16.5t-47.5 -46t-30.5 -69t-11 -85.5q0 -54 23 -89t70 -35q50 0 82.5 34.5t43.5 96.5z"></glyph><glyph glyph-name="Emacron" unicode="Ē" d="M401 0h-363l103 589h363l-14 -80h-269l-30 -174h237l-14 -80h-237l-31 -175h268zM193 674l12 71h264l-12 -71h-264z"></glyph><glyph glyph-name="emacron" unicode="ē" d="M229 58q47 0 70 19t34 56l84 -21q-12 -35 -30.5 -59t-43 -38.5t-55 -20.5t-67.5 -6q-88 0 -135.5 53.5t-47.5 143.5q0 70 20 124t52.5 90.5t74 55t84.5 18.5q45 0 77.5 -14t53.5 -37t30.5 -53t9.5 -62q0 -49 -20 -95h-293q-3 -29 1 -56.5t16.5 -49.5t33.5 -35t51 -13z M346 277q3 8 4 16t1 16q0 38 -20.5 66t-65.5 28q-26 0 -47 -10.5t-37 -27.5t-27 -40t-17 -48h209zM143 558l13 73h262l-13 -73h-262z"></glyph><glyph glyph-name="Ebreve" unicode="Ĕ" d="M401 0h-363l103 589h363l-14 -80h-269l-30 -174h237l-14 -80h-237l-31 -175h268zM317 650q-66 0 -94 35.5t-17 95.5h71q-3 -31 7.5 -48t45.5 -17t52 17t25 48h70q-11 -60 -52.5 -95.5t-107.5 -35.5z"></glyph><glyph glyph-name="ebreve" unicode="ĕ" d="M229 58q47 0 70 19t34 56l84 -21q-12 -35 -30.5 -59t-43 -38.5t-55 -20.5t-67.5 -6q-88 0 -135.5 53.5t-47.5 143.5q0 70 20 124t52.5 90.5t74 55t84.5 18.5q45 0 77.5 -14t53.5 -37t30.5 -53t9.5 -62q0 -49 -20 -95h-293q-3 -29 1 -56.5t16.5 -49.5t33.5 -35t51 -13z M346 277q3 8 4 16t1 16q0 38 -20.5 66t-65.5 28q-26 0 -47 -10.5t-37 -27.5t-27 -40t-17 -48h209zM263 527q-66 0 -94 39t-17 102h71q-2 -17 -1 -30.5t6 -23t16 -15t30 -5.5q38 0 54.5 20.5t24.5 53.5h71q-12 -63 -53.5 -102t-107.5 -39z"></glyph><glyph glyph-name="Edotaccent" unicode="Ė" d="M401 0h-363l103 589h363l-14 -80h-269l-30 -174h237l-14 -80h-237l-31 -175h268zM268 727q0 27 17.5 43.5t42.5 16.5q26 0 44 -16.5t18 -43.5q0 -26 -18 -43t-44 -17q-25 0 -42.5 17t-17.5 43z"></glyph><glyph glyph-name="edotaccent" unicode="ė" d="M229 58q47 0 70 19t34 56l84 -21q-12 -35 -30.5 -59t-43 -38.5t-55 -20.5t-67.5 -6q-88 0 -135.5 53.5t-47.5 143.5q0 70 20 124t52.5 90.5t74 55t84.5 18.5q45 0 77.5 -14t53.5 -37t30.5 -53t9.5 -62q0 -49 -20 -95h-293q-3 -29 1 -56.5t16.5 -49.5t33.5 -35t51 -13z M346 277q3 8 4 16t1 16q0 38 -20.5 66t-65.5 28q-26 0 -47 -10.5t-37 -27.5t-27 -40t-17 -48h209zM217 609q0 26 17.5 43t42.5 17q26 0 44 -17t18 -43t-18 -43t-44 -17q-25 0 -42.5 17t-17.5 43z"></glyph><glyph glyph-name="Eogonek" unicode="Ę" d="M168 -116q0 38 21.5 69t53.5 47h-205l103 589h363l-14 -80h-269l-30 -174h237l-14 -80h-237l-31 -175h268l-13 -80h-26q-27 0 -50.5 -7.5t-41.5 -21t-28.5 -33t-10.5 -42.5q0 -21 12.5 -33.5t32.5 -12.5q24 0 38 10.5t25 28.5l29 -43q-15 -26 -40 -41.5t-68 -15.5 q-51 0 -78 25t-27 70z"></glyph><glyph glyph-name="eogonek" unicode="ę" d="M144 -116q0 34 14 60t37 46q-75 8 -116 60t-41 135q0 70 20 124t52.5 90.5t74 55t84.5 18.5q45 0 77.5 -14t53.5 -37t30.5 -53t9.5 -62q0 -49 -20 -95h-293q-3 -29 1 -56.5t16.5 -49.5t33.5 -35t51 -13q47 0 70 19t34 56l84 -21q-19 -53 -52.5 -77t-76.5 -40 q-32 -13 -50 -39t-18 -59q0 -22 12.5 -34.5t32.5 -12.5q24 0 38 10.5t25 28.5l29 -43q-15 -26 -40 -41.5t-68 -15.5q-51 0 -78 25t-27 70zM346 277q3 8 4 16t1 16q0 38 -20.5 66t-65.5 28q-26 0 -47 -10.5t-37 -27.5t-27 -40t-17 -48h209z"></glyph><glyph glyph-name="Ecaron" unicode="Ě" d="M401 0h-363l103 589h363l-14 -80h-269l-30 -174h237l-14 -80h-237l-31 -175h268zM287 653l-101 129h94l26 -33q11 -15 14 -25l3 -9h3l6 9q3 5 8.5 11t13.5 14l38 33h99l-148 -129h-56z"></glyph><glyph glyph-name="ecaron" unicode="ě" d="M229 58q47 0 70 19t34 56l84 -21q-12 -35 -30.5 -59t-43 -38.5t-55 -20.5t-67.5 -6q-88 0 -135.5 53.5t-47.5 143.5q0 70 20 124t52.5 90.5t74 55t84.5 18.5q45 0 77.5 -14t53.5 -37t30.5 -53t9.5 -62q0 -49 -20 -95h-293q-3 -29 1 -56.5t16.5 -49.5t33.5 -35t51 -13z M346 277q3 8 4 16t1 16q0 38 -20.5 66t-65.5 28q-26 0 -47 -10.5t-37 -27.5t-27 -40t-17 -48h209zM242 528l-100 147h89l28 -41q12 -20 14 -28q2 -6 2 -10h4q2 4 6 10q4 5 9.5 12t14.5 16l42 41h94l-151 -147h-52z"></glyph><glyph glyph-name="Gcircumflex" unicode="Ĝ" d="M556 304l-53 -304h-67l-4 74q-18 -39 -55.5 -62.5t-95.5 -23.5q-54 0 -96 17.5t-71.5 49t-44.5 75.5t-15 98q0 88 24.5 157.5t65.5 117.5t96 73t117 25q85 0 134 -37.5t66 -109.5l-94 -36q-8 52 -38.5 78t-75.5 26q-48 0 -85 -23.5t-62.5 -63.5t-38.5 -91.5t-13 -108.5 q0 -78 36 -124t110 -46q55 0 96 28.5t53 97.5l6 33h-143l14 80h234zM411 782l102 -129h-95l-25 33q-6 8 -9 13.5t-5 10.5t-3 10h-3q-2 -5 -6 -10q-5 -8 -23 -24l-37 -33h-99l147 129h56z"></glyph><glyph glyph-name="gcircumflex" unicode="ĝ" d="M362 271q4 24 1.5 47.5t-12.5 42.5t-27.5 30.5t-44.5 11.5q-34 0 -61.5 -16.5t-47 -45.5t-30.5 -68.5t-11 -85.5q0 -54 22.5 -89t70.5 -35q51 0 83 33.5t43 95.5zM403 -12q-19 -101 -74 -150t-160 -49q-45 0 -78 9.5t-55.5 26t-35 39.5t-17.5 49l77 35q4 -39 34 -65 t79 -26q64 0 95 35t44 98l17 87q-20 -48 -55 -67t-79 -19q-70 0 -113.5 49t-43.5 140q0 59 16 112t46 93.5t72 64t94 23.5q48 0 78.5 -21t38.5 -68l25 78h78zM339 675l100 -147h-89l-28 42q-6 8 -9 15.5l-5 12.5q-2 6 -2 10h-4q-2 -4 -6 -10l-10 -12.5t-14 -15.5l-42 -42 h-94l151 147h52z"></glyph><glyph glyph-name="Gbreve" unicode="Ğ" d="M556 304l-53 -304h-67l-4 74q-18 -39 -55.5 -62.5t-95.5 -23.5q-54 0 -96 17.5t-71.5 49t-44.5 75.5t-15 98q0 88 24.5 157.5t65.5 117.5t96 73t117 25q85 0 134 -37.5t66 -109.5l-94 -36q-8 52 -38.5 78t-75.5 26q-48 0 -85 -23.5t-62.5 -63.5t-38.5 -91.5t-13 -108.5 q0 -78 36 -124t110 -46q55 0 96 28.5t53 97.5l6 33h-143l14 80h234zM366 650q-66 0 -94 35.5t-17 95.5h71q-3 -31 7.5 -48t45.5 -17t52 17t25 48h70q-11 -60 -52.5 -95.5t-107.5 -35.5z"></glyph><glyph glyph-name="gbreve" unicode="ğ" d="M362 271q4 24 1.5 47.5t-12.5 42.5t-27.5 30.5t-44.5 11.5q-34 0 -61.5 -16.5t-47 -45.5t-30.5 -68.5t-11 -85.5q0 -54 22.5 -89t70.5 -35q51 0 83 33.5t43 95.5zM403 -12q-19 -101 -74 -150t-160 -49q-45 0 -78 9.5t-55.5 26t-35 39.5t-17.5 49l77 35q4 -39 34 -65 t79 -26q64 0 95 35t44 98l17 87q-20 -48 -55 -67t-79 -19q-70 0 -113.5 49t-43.5 140q0 59 16 112t46 93.5t72 64t94 23.5q48 0 78.5 -21t38.5 -68l25 78h78zM286 527q-66 0 -94 39t-17 102h71q-2 -17 -1 -30.5t6 -23t16 -15t30 -5.5q38 0 54.5 20.5t24.5 53.5h71 q-12 -63 -53.5 -102t-107.5 -39z"></glyph><glyph glyph-name="Gdotaccent" unicode="Ġ" d="M556 304l-53 -304h-67l-4 74q-18 -39 -55.5 -62.5t-95.5 -23.5q-54 0 -96 17.5t-71.5 49t-44.5 75.5t-15 98q0 88 24.5 157.5t65.5 117.5t96 73t117 25q85 0 134 -37.5t66 -109.5l-94 -36q-8 52 -38.5 78t-75.5 26q-48 0 -85 -23.5t-62.5 -63.5t-38.5 -91.5t-13 -108.5 q0 -78 36 -124t110 -46q55 0 96 28.5t53 97.5l6 33h-143l14 80h234zM316 727q0 27 17.5 43.5t42.5 16.5q26 0 44 -16.5t18 -43.5q0 -26 -18 -43t-44 -17q-25 0 -42.5 17t-17.5 43z"></glyph><glyph glyph-name="gdotaccent" unicode="ġ" d="M362 271q4 24 1.5 47.5t-12.5 42.5t-27.5 30.5t-44.5 11.5q-34 0 -61.5 -16.5t-47 -45.5t-30.5 -68.5t-11 -85.5q0 -54 22.5 -89t70.5 -35q51 0 83 33.5t43 95.5zM403 -12q-19 -101 -74 -150t-160 -49q-45 0 -78 9.5t-55.5 26t-35 39.5t-17.5 49l77 35q4 -39 34 -65 t79 -26q64 0 95 35t44 98l17 87q-20 -48 -55 -67t-79 -19q-70 0 -113.5 49t-43.5 140q0 59 16 112t46 93.5t72 64t94 23.5q48 0 78.5 -21t38.5 -68l25 78h78zM241 609q0 26 17.5 43t42.5 17q26 0 44 -17t18 -43t-18 -43t-44 -17q-25 0 -42.5 17t-17.5 43z"></glyph><glyph glyph-name="Gcommaaccent" unicode="Ģ" d="M556 304l-53 -304h-67l-4 74q-18 -39 -55.5 -62.5t-95.5 -23.5q-54 0 -96 17.5t-71.5 49t-44.5 75.5t-15 98q0 88 24.5 157.5t65.5 117.5t96 73t117 25q85 0 134 -37.5t66 -109.5l-94 -36q-8 52 -38.5 78t-75.5 26q-48 0 -85 -23.5t-62.5 -63.5t-38.5 -91.5t-13 -108.5 q0 -78 36 -124t110 -46q55 0 96 28.5t53 97.5l6 33h-143l14 80h234zM299 -139q0 -56 -38 -82.5t-97 -26.5v37q29 1 51.5 9.5t22.5 33.5q-27 -5 -43.5 8t-16.5 39t15.5 39.5t41.5 13.5t45 -18t19 -53z"></glyph><glyph glyph-name="gcommaaccent" unicode="ģ" d="M362 271q4 24 1.5 47.5t-12.5 42.5t-27.5 30.5t-44.5 11.5q-34 0 -61.5 -16.5t-47 -45.5t-30.5 -68.5t-11 -85.5q0 -54 22.5 -89t70.5 -35q51 0 83 33.5t43 95.5zM403 -12q-19 -101 -74 -150t-160 -49q-45 0 -78 9.5t-55.5 26t-35 39.5t-17.5 49l77 35q4 -39 34 -65 t79 -26q64 0 95 35t44 98l17 87q-20 -48 -55 -67t-79 -19q-70 0 -113.5 49t-43.5 140q0 59 16 112t46 93.5t72 64t94 23.5q48 0 78.5 -21t38.5 -68l25 78h78zM251 602q0 56 38 82.5t97 26.5v-37q-15 -1 -28 -3t-23.5 -6.5t-16.5 -12.5t-6 -20q27 5 43.5 -8.5t16.5 -38.5 q0 -26 -15.5 -39.5t-41.5 -13.5t-45 17.5t-19 52.5z"></glyph><glyph glyph-name="Hcircumflex" unicode="Ĥ" d="M38 0l103 589h94l-43 -250h278l44 250h94l-103 -589h-94l45 259h-279l-45 -259h-94zM428 782l102 -129h-95l-25 33q-6 8 -9 13.5t-5 10.5t-3 10h-3q-2 -5 -6 -10q-5 -8 -23 -24l-37 -33h-99l147 129h56z"></glyph><glyph glyph-name="hcircumflex" unicode="ĥ" d="M420 111q-3 -17 1 -31t26 -14q6 0 13 1.5t16 3.5l-13 -67q-24 -9 -54 -9q-52 0 -71 28t-10 79l37 208q8 39 -5.5 63t-54.5 24q-18 0 -38 -7t-38.5 -24t-33.5 -45t-22 -70l-44 -251h-91l116 668h93l-54 -300q24 51 60 78t89 27q54 0 86 -28.5t32 -82.5q0 -9 -0.5 -19 t-3.5 -25zM258 826l102 -129h-95l-25 33q-6 8 -9 13.5t-5 10.5t-3 10h-3q-2 -5 -6 -10q-5 -8 -23 -24l-37 -33h-99l147 129h56z"></glyph><glyph glyph-name="Hbar" unicode="Ħ" d="M47 0l72 419h-85l14 75h85l17 95h94l-17 -95h279l16 95h95l-17 -95h92l-14 -75h-92l-72 -419h-95l45 257h-278l-45 -257h-94zM478 335l14 84h-278l-14 -84h278z"></glyph><glyph glyph-name="hbar" unicode="ħ" d="M66 594h75l13 74h93l-14 -74h136l-12 -65h-135l-29 -161q24 51 60 78t89 27q54 0 86 -28.5t32 -82.5q0 -9 -0.5 -19t-3.5 -25l-36 -207q-3 -17 1 -31t26 -14q6 0 13 1.5t16 3.5l-13 -67q-24 -9 -54 -9q-52 0 -71 28t-10 79l37 208q8 39 -5.5 63t-54.5 24q-18 0 -38 -7 t-38.5 -24t-33.5 -45t-22 -70l-44 -251h-91l92 529h-76z"></glyph><glyph glyph-name="Itilde" unicode="Ĩ" d="M235 589l-103 -589h-94l103 589h94zM261 653q-27 0 -41.5 8t-31.5 18q-19 12 -30 18.5t-26 6.5t-26 -11.5t-13 -37.5h-54q-5 25 0 47.5t18 39.5t32.5 26.5t43.5 9.5q27 0 43 -8.5t33 -19.5q19 -12 28.5 -17.5t23.5 -5.5t24 11.5t12 39.5h58q8 -55 -17.5 -90t-76.5 -35z "></glyph><glyph glyph-name="itilde" unicode="ĩ" d="M142 111q-3 -17 1 -31t26 -14q6 0 13 1.5t16 3.5l-13 -67q-24 -9 -54 -9q-52 0 -71 28t-10 79l63 360h91zM243 529q-27 0 -41.5 7.5t-31.5 17.5q-19 12 -30 18.5t-26 6.5t-26 -11.5t-13 -37.5h-54q-5 26 0 48.5t18 39.5t32.5 26.5t43.5 9.5q27 0 43 -9t33 -20 q19 -12 28.5 -17.5t23.5 -5.5t24 11.5t12 39.5h58q8 -54 -17.5 -89t-76.5 -35z"></glyph><glyph glyph-name="Imacron" unicode="Ī" d="M235 589l-103 -589h-94l103 589h94zM72 674l12 71h264l-12 -71h-264z"></glyph><glyph glyph-name="imacron" unicode="ī" d="M142 111q-3 -17 1 -31t26 -14q6 0 13 1.5t16 3.5l-13 -67q-24 -9 -54 -9q-52 0 -71 28t-10 79l63 360h91zM44 558l13 73h262l-13 -73h-262z"></glyph><glyph glyph-name="Ibreve" unicode="Ĭ" d="M235 589l-103 -589h-94l103 589h94zM196 650q-66 0 -94 35.5t-17 95.5h71q-3 -31 7.5 -48t45.5 -17t52 17t25 48h70q-11 -60 -52.5 -95.5t-107.5 -35.5z"></glyph><glyph glyph-name="Iogonek" unicode="Į" d="M-81 -116q0 29 11 53.5t29 43.5t40.5 32.5t44.5 21.5l97 554h94l-103 -589q-27 0 -51.5 -7.5t-43.5 -21t-30.5 -32.5t-11.5 -43q0 -21 12.5 -33.5t32.5 -12.5q24 0 38 10.5t25 28.5l29 -43q-15 -26 -40 -41.5t-68 -15.5q-51 0 -78 25t-27 70z"></glyph><glyph glyph-name="iogonek" unicode="į" d="M-23 -112q0 44 24.5 78.5t62.5 51.5q-25 28 -14 84l63 360h91l-62 -351q-3 -17 1 -31t26 -14q6 0 13 1.5t16 3.5l-13 -67q-26 -2 -49.5 -8.5t-41.5 -19t-29 -32.5t-11 -48q0 -21 12 -33.5t32 -12.5q25 0 39 10.5t25 28.5l29 -43q-15 -26 -40.5 -41.5t-68.5 -15.5 q-50 0 -77.5 25.5t-27.5 73.5zM121 610q0 27 17.5 43.5t42.5 16.5q26 0 44 -16.5t18 -43.5q0 -26 -18 -43t-44 -17q-25 0 -42.5 17t-17.5 43z"></glyph><glyph glyph-name="Idotaccent" unicode="İ" d="M235 589l-103 -589h-94l103 589h94zM147 727q0 27 17.5 43.5t42.5 16.5q26 0 44 -16.5t18 -43.5q0 -26 -18 -43t-44 -17q-25 0 -42.5 17t-17.5 43z"></glyph><glyph glyph-name="dotlessi" unicode="ı" d="M142 111q-3 -17 1 -31t26 -14q6 0 13 1.5t16 3.5l-13 -67q-24 -9 -54 -9q-52 0 -71 28t-10 79l63 360h91z"></glyph><glyph glyph-name="IJ" unicode="Ĳ" d="M235 589l-103 -589h-94l103 589h94zM681 589l-76 -431q-16 -93 -63 -131.5t-133 -38.5q-71 0 -111.5 33.5t-54.5 87.5l76 50q21 -96 96 -96q25 0 41.5 6.5t27.5 20t17.5 34t11.5 49.5l74 416h94z"></glyph><glyph glyph-name="ij" unicode="ĳ" d="M142 111q-3 -17 1 -31t26 -14q6 0 13 1.5t16 3.5l-13 -67q-24 -9 -54 -9q-52 0 -71 28t-10 79l63 360h91zM121 610q0 27 17.5 43.5t42.5 16.5q26 0 44 -16.5t18 -43.5q0 -26 -18 -43t-44 -17q-25 0 -42.5 17t-17.5 43zM364 -68q-7 -42 -21.5 -69.5t-35 -44t-46.5 -23 t-57 -6.5q-28 0 -53.5 7.5t-40.5 18.5l29 70q15 -12 30.5 -18.5t36.5 -6.5q25 0 42 16t25 61l93 525h91zM374 610q0 27 17.5 43.5t42.5 16.5q26 0 44 -16.5t18 -43.5q0 -26 -18 -43t-44 -17q-25 0 -42.5 17t-17.5 43z"></glyph><glyph glyph-name="Jcircumflex" unicode="Ĵ" d="M421 589l-76 -431q-16 -93 -63 -131.5t-133 -38.5q-71 0 -111.5 33.5t-54.5 87.5l76 50q21 -96 96 -96q25 0 41.5 6.5t27.5 20t17.5 34t11.5 49.5l74 416h94zM427 782l102 -129h-95l-25 33q-6 8 -9 13.5t-5 10.5t-3 10h-3q-2 -5 -6 -10q-5 -8 -23 -24l-37 -33h-99 l147 129h56z"></glyph><glyph glyph-name="jcircumflex" unicode="ĵ" d="M111 -68q-7 -42 -21.5 -69.5t-35 -44t-46.5 -23t-57 -6.5q-28 0 -53.5 7.5t-40.5 18.5l29 70q15 -12 30.5 -18.5t36.5 -6.5q25 0 42 16t25 61l93 525h91zM216 675l100 -147h-89l-28 42q-6 8 -9 15.5l-5 12.5q-2 6 -2 10h-4q-2 -4 -6 -10l-10 -12.5t-14 -15.5l-42 -42h-94 l151 147h52z"></glyph><glyph glyph-name="Kcommaaccent" unicode="Ķ" d="M370 0l-140 259h-53l-45 -259h-94l103 589h94l-43 -251h43l216 251h112l-254 -287l167 -302h-106zM257 -139q0 -56 -38 -82.5t-97 -26.5v37q29 1 51.5 9.5t22.5 33.5q-27 -5 -43.5 8t-16.5 39t15.5 39.5t41.5 13.5t45 -18t19 -53z"></glyph><glyph glyph-name="kcommaaccent" unicode="ķ" d="M196 221h-28l-39 -221h-91l117 668h92l-67 -380h22l164 174h111l-202 -205l75 -156q14 -29 32 -32.5t51 4.5l-14 -69q-27 -9 -57 -9q-27 0 -47.5 11.5t-35.5 42.5zM245 -139q0 -56 -38 -82.5t-97 -26.5v37q29 1 51.5 9.5t22.5 33.5q-27 -5 -43.5 8t-16.5 39t15.5 39.5 t41.5 13.5t45 -18t19 -53z"></glyph><glyph glyph-name="kgreenlandic" unicode="ĸ" d="M196 221h-28l-39 -221h-91l81 462h92l-31 -174h22l164 174h111l-202 -205l75 -156q14 -29 32 -32.5t51 4.5l-14 -69q-27 -9 -57 -9q-27 0 -47.5 11.5t-34.5 42.5z"></glyph><glyph glyph-name="Lacute" unicode="Ĺ" d="M235 589l-89 -509h261l-13 -80h-356l103 589h94zM154 653l63 123h120l-101 -123h-82z"></glyph><glyph glyph-name="lacute" unicode="ĺ" d="M142 111q-3 -17 1 -31t26 -14q6 0 13 1.5t16 3.5l-13 -67q-24 -9 -54 -9q-52 0 -71 28t-10 79l99 566h91zM158 697l63 123h120l-101 -123h-82z"></glyph><glyph glyph-name="Lcommaaccent" unicode="Ļ" d="M235 589l-89 -509h261l-13 -80h-356l103 589h94zM266 -139q0 -56 -38 -82.5t-97 -26.5v37q29 1 51.5 9.5t22.5 33.5q-27 -5 -43.5 8t-16.5 39t15.5 39.5t41.5 13.5t45 -18t19 -53z"></glyph><glyph glyph-name="lcommaaccent" unicode="ļ" d="M142 111q-3 -17 1 -31t26 -14q6 0 13 1.5t16 3.5l-13 -67q-24 -9 -54 -9q-52 0 -71 28t-10 79l99 566h91zM146 -139q0 -56 -38 -82.5t-97 -26.5v37q29 1 51.5 9.5t22.5 33.5q-27 -5 -43.5 8t-16.5 39t15.5 39.5t41.5 13.5t45 -18t19 -53z"></glyph><glyph glyph-name="Lcaron" unicode="Ľ" d="M235 589l-89 -509h261l-13 -80h-356l103 589h94zM353 488h-65l16 180h102z"></glyph><glyph glyph-name="lcaron" unicode="ľ" d="M346 498h-65l16 176h102zM142 111q-3 -17 1 -31t26 -14q6 0 13 1.5t16 3.5l-13 -67q-24 -9 -54 -9q-52 0 -71 28t-10 79l99 566h91z"></glyph><glyph glyph-name="Ldot" unicode="Ŀ" d="M235 589l-89 -509h261l-13 -80h-356l103 589h94zM318 309q0 29 19.5 48.5t48.5 19.5t48.5 -19.5t19.5 -48.5t-19.5 -48.5t-48.5 -19.5t-48.5 19.5t-19.5 48.5z"></glyph><glyph glyph-name="ldot" unicode="ŀ" d="M142 111q-3 -17 1 -31t26 -14q6 0 13 1.5t16 3.5l-13 -67q-24 -9 -54 -9q-52 0 -71 28t-10 79l99 566h91zM235 317q0 29 19.5 48.5t48.5 19.5t48.5 -19.5t19.5 -48.5t-19.5 -48.5t-48.5 -19.5t-48.5 19.5t-19.5 48.5z"></glyph><glyph glyph-name="Lslash" unicode="Ł" d="M241 589l-42 -242l145 51l-13 -75l-145 -50l-35 -193h262l-14 -80h-355l42 240l-68 -23l13 72l68 23l48 277h94z"></glyph><glyph glyph-name="lslash" unicode="ł" d="M200 422l80 38l-14 -78l-80 -37l-41 -234q-3 -17 0.5 -31t25.5 -14q7 0 14 1.5t16 3.5l-13 -67q-12 -5 -26 -7t-28 -2q-53 0 -71.5 28t-9.5 79l34 197l-64 -30l13 75l64 31l52 293h91z"></glyph><glyph glyph-name="Nacute" unicode="Ń" d="M389 258q11 -25 19.5 -47t14.5 -39q7 -20 12 -38h4q2 20 5 43q2 20 6 45.5t9 53.5l55 313h94l-103 -589h-91l-158 328q-11 24 -20 46.5t-15 39.5q-7 20 -13 39h-4q-1 -19 -4 -42q-2 -20 -5 -45t-8 -54l-55 -312h-94l103 589h94zM328 653l63 123h120l-101 -123h-82z"></glyph><glyph glyph-name="nacute" unicode="ń" d="M420 111q-3 -17 1 -31t26 -14q6 0 13 1.5t16 3.5l-13 -67q-24 -9 -54 -9q-52 0 -71 28t-10 79l37 208q8 39 -5.5 63t-54.5 24q-18 0 -38 -7t-38.5 -24t-33.5 -45t-22 -70l-44 -251h-91l81 462h79l-5 -94q24 51 60 78t89 27q54 0 86 -28.5t32 -82.5q0 -9 -0.5 -19 t-3.5 -25zM256 529l74 146h121l-116 -146h-79z"></glyph><glyph glyph-name="Ncommaaccent" unicode="Ņ" d="M389 258q11 -25 19.5 -47t14.5 -39q7 -20 12 -38h4q2 20 5 43q2 20 6 45.5t9 53.5l55 313h94l-103 -589h-91l-158 328q-11 24 -20 46.5t-15 39.5q-7 20 -13 39h-4q-1 -19 -4 -42q-2 -20 -5 -45t-8 -54l-55 -312h-94l103 589h94zM305 -139q0 -56 -38 -82.5t-97 -26.5v37 q29 1 51.5 9.5t22.5 33.5q-27 -5 -43.5 8t-16.5 39t15.5 39.5t41.5 13.5t45 -18t19 -53z"></glyph><glyph glyph-name="ncommaaccent" unicode="ņ" d="M420 111q-3 -17 1 -31t26 -14q6 0 13 1.5t16 3.5l-13 -67q-24 -9 -54 -9q-52 0 -71 28t-10 79l37 208q8 39 -5.5 63t-54.5 24q-18 0 -38 -7t-38.5 -24t-33.5 -45t-22 -70l-44 -251h-91l81 462h79l-5 -94q24 51 60 78t89 27q54 0 86 -28.5t32 -82.5q0 -9 -0.5 -19 t-3.5 -25zM254 -139q0 -56 -38 -82.5t-97 -26.5v37q29 1 51.5 9.5t22.5 33.5q-27 -5 -43.5 8t-16.5 39t15.5 39.5t41.5 13.5t45 -18t19 -53z"></glyph><glyph glyph-name="Ncaron" unicode="Ň" d="M389 258q11 -25 19.5 -47t14.5 -39q7 -20 12 -38h4q2 20 5 43q2 20 6 45.5t9 53.5l55 313h94l-103 -589h-91l-158 328q-11 24 -20 46.5t-15 39.5q-7 20 -13 39h-4q-1 -19 -4 -42q-2 -20 -5 -45t-8 -54l-55 -312h-94l103 589h94zM341 653l-101 129h94l26 -33 q11 -15 14 -25l3 -9h3l6 9q3 5 8.5 11t13.5 14l38 33h99l-148 -129h-56z"></glyph><glyph glyph-name="ncaron" unicode="ň" d="M420 111q-3 -17 1 -31t26 -14q6 0 13 1.5t16 3.5l-13 -67q-24 -9 -54 -9q-52 0 -71 28t-10 79l37 208q8 39 -5.5 63t-54.5 24q-18 0 -38 -7t-38.5 -24t-33.5 -45t-22 -70l-44 -251h-91l81 462h79l-5 -94q24 51 60 78t89 27q54 0 86 -28.5t32 -82.5q0 -9 -0.5 -19 t-3.5 -25zM274 528l-100 147h89l28 -41q12 -20 14 -28q2 -6 2 -10h4q2 4 6 10q4 5 9.5 12t14.5 16l42 41h94l-151 -147h-52z"></glyph><glyph glyph-name="Eng" unicode="Ŋ" d="M498 -41q-17 -93 -65 -131.5t-134 -38.5q-61 0 -99 23t-58 55l65 67q14 -28 38.5 -48t58.5 -20q26 0 43.5 7t29 21.5t18.5 35.5t12 50l4 25l-155 323q-11 24 -20 46.5t-15 39.5q-7 20 -13 39h-4q-1 -19 -4 -42q-2 -20 -5 -45t-8 -54l-55 -312h-94l103 589h94l154 -331 q11 -25 19.5 -47t14.5 -39q7 -20 12 -38h4q2 20 5 43q2 20 6 45.5t9 53.5l55 313h94z"></glyph><glyph glyph-name="eng" unicode="ŋ" d="M389 -68q-7 -42 -21.5 -69.5t-34.5 -44t-46 -23t-57 -6.5q-29 0 -54 7.5t-40 18.5l28 70q16 -12 31.5 -18.5t36.5 -6.5q25 0 42 16t25 61l66 373q8 39 -5.5 63t-54.5 24q-18 0 -38 -7t-38.5 -24t-33.5 -45t-22 -70l-44 -251h-91l81 462h79l-5 -94q24 51 60 78t89 27 q54 0 86 -28.5t32 -82.5q0 -9 -0.5 -19t-3.5 -25z"></glyph><glyph glyph-name="Omacron" unicode="Ō" d="M284 -12q-55 0 -98 17.5t-72 49t-44.5 76t-15.5 97.5q0 88 24 157.5t65.5 117.5t96 73t116.5 25q55 0 98.5 -17.5t72.5 -49.5t44.5 -76.5t15.5 -97.5q0 -89 -24.5 -158t-65.5 -116.5t-96.5 -72.5t-116.5 -25zM348 521q-48 0 -84.5 -23.5t-62 -63t-38.5 -91t-13 -108.5 q0 -78 36.5 -123.5t106.5 -45.5q46 0 83 23.5t62 63t38.5 91.5t13.5 109q0 35 -8 66t-25.5 53.5t-44.5 35.5t-64 13zM246 674l12 71h264l-12 -71h-264z"></glyph><glyph glyph-name="omacron" unicode="ō" d="M280 473q87 0 134.5 -53t47.5 -146q0 -57 -15.5 -109t-46.5 -91.5t-76 -62.5t-103 -23q-40 0 -73.5 13t-58 37.5t-38 61t-13.5 84.5q0 57 15.5 109.5t46 92.5t76 63.5t104.5 23.5zM269 399q-33 0 -59 -17t-44 -45.5t-27.5 -66.5t-9.5 -79q0 -66 27 -99.5t75 -33.5 q33 0 58.5 17.5t43 47t27 67.5t9.5 80q0 62 -26 95.5t-74 33.5zM159 558l13 73h262l-13 -73h-262z"></glyph><glyph glyph-name="Obreve" unicode="Ŏ" d="M284 -12q-55 0 -98 17.5t-72 49t-44.5 76t-15.5 97.5q0 88 24 157.5t65.5 117.5t96 73t116.5 25q55 0 98.5 -17.5t72.5 -49.5t44.5 -76.5t15.5 -97.5q0 -89 -24.5 -158t-65.5 -116.5t-96.5 -72.5t-116.5 -25zM348 521q-48 0 -84.5 -23.5t-62 -63t-38.5 -91t-13 -108.5 q0 -78 36.5 -123.5t106.5 -45.5q46 0 83 23.5t62 63t38.5 91.5t13.5 109q0 35 -8 66t-25.5 53.5t-44.5 35.5t-64 13zM370 650q-66 0 -94 35.5t-17 95.5h71q-3 -31 7.5 -48t45.5 -17t52 17t25 48h70q-11 -60 -52.5 -95.5t-107.5 -35.5z"></glyph><glyph glyph-name="obreve" unicode="ŏ" d="M280 473q87 0 134.5 -53t47.5 -146q0 -57 -15.5 -109t-46.5 -91.5t-76 -62.5t-103 -23q-40 0 -73.5 13t-58 37.5t-38 61t-13.5 84.5q0 57 15.5 109.5t46 92.5t76 63.5t104.5 23.5zM269 399q-33 0 -59 -17t-44 -45.5t-27.5 -66.5t-9.5 -79q0 -66 27 -99.5t75 -33.5 q33 0 58.5 17.5t43 47t27 67.5t9.5 80q0 62 -26 95.5t-74 33.5zM278 527q-66 0 -94 39t-17 102h71q-2 -17 -1 -30.5t6 -23t16 -15t30 -5.5q38 0 54.5 20.5t24.5 53.5h71q-12 -63 -53.5 -102t-107.5 -39z"></glyph><glyph glyph-name="Ohungarumlaut" unicode="Ő" d="M284 -12q-55 0 -98 17.5t-72 49t-44.5 76t-15.5 97.5q0 88 24 157.5t65.5 117.5t96 73t116.5 25q55 0 98.5 -17.5t72.5 -49.5t44.5 -76.5t15.5 -97.5q0 -89 -24.5 -158t-65.5 -116.5t-96.5 -72.5t-116.5 -25zM348 521q-48 0 -84.5 -23.5t-62 -63t-38.5 -91t-13 -108.5 q0 -78 36.5 -123.5t106.5 -45.5q46 0 83 23.5t62 63t38.5 91.5t13.5 109q0 35 -8 66t-25.5 53.5t-44.5 35.5t-64 13zM260 653l62 123h109l-104 -123h-67zM406 653l74 123h113l-116 -123h-71z"></glyph><glyph glyph-name="ohungarumlaut" unicode="ő" d="M280 473q87 0 134.5 -53t47.5 -146q0 -57 -15.5 -109t-46.5 -91.5t-76 -62.5t-103 -23q-40 0 -73.5 13t-58 37.5t-38 61t-13.5 84.5q0 57 15.5 109.5t46 92.5t76 63.5t104.5 23.5zM269 399q-33 0 -59 -17t-44 -45.5t-27.5 -66.5t-9.5 -79q0 -66 27 -99.5t75 -33.5 q33 0 58.5 17.5t43 47t27 67.5t9.5 80q0 62 -26 95.5t-74 33.5zM183 529l62 146h109l-104 -146h-67zM329 529l74 146h113l-116 -146h-71z"></glyph><glyph glyph-name="OE" unicode="Œ" d="M284 -12q-55 0 -98 17.5t-72 49t-44.5 76t-15.5 97.5q0 88 24 157.5t65.5 117.5t96 73t116.5 25q45 0 83 -12h416l-15 -80h-296q40 -55 42 -138v-36h193l-14 -80h-189q-11 -55 -32.5 -99t-53.5 -76h275l-13 -80h-386q-39 -12 -82 -12zM348 521q-48 0 -84.5 -23.5t-62 -63 t-38.5 -91t-13 -108.5q0 -78 36.5 -123.5t106.5 -45.5q46 0 83 23.5t62 63t38.5 91.5t13.5 109q0 35 -8 66t-25.5 53.5t-44.5 35.5t-64 13z"></glyph><glyph glyph-name="oe" unicode="œ" d="M556 58q47 0 70 20t35 55l83 -21q-12 -35 -30.5 -59t-43.5 -38.5t-55 -20.5t-66 -6q-54 0 -95.5 25.5t-58.5 65.5q-28 -42 -72.5 -66.5t-101.5 -24.5q-40 0 -73.5 13t-58 37.5t-38 61t-13.5 84.5q0 57 15.5 109.5t46 92.5t76 63.5t104.5 23.5q54 0 92.5 -24.5t57.5 -66.5 q28 43 72.5 67t94.5 24q45 0 77.5 -14t53 -37t30 -53t9.5 -62q0 -52 -20 -95h-290q-3 -29 1 -56.5t16 -49t32 -35t50 -13.5zM269 399q-33 0 -59 -17t-44 -45.5t-27.5 -66.5t-9.5 -79q0 -66 27 -99.5t75 -33.5q33 0 58.5 17.5t43 47t27 67.5t9.5 80q0 62 -26 95.5t-74 33.5z M674 277q4 13 4 32q0 38 -20.5 66t-65.5 28q-48 0 -79 -36t-46 -90h207z"></glyph><glyph glyph-name="Racute" unicode="Ŕ" d="M388 0q-8 9 -13.5 23.5t-8.5 31.5l-17 102q-8 51 -30 66.5t-68 15.5h-77l-42 -239h-94l103 589h202q96 0 134.5 -37t38.5 -106q0 -44 -15 -75.5t-38 -52t-51.5 -31.5t-56.5 -12v-4q41 -6 60.5 -26.5t27.5 -66.5l21 -116q6 -36 25 -62h-101zM188 316h106q55 0 90 27t35 89 q0 40 -20.5 60t-71.5 20h-105zM283 653l63 123h120l-101 -123h-82z"></glyph><glyph glyph-name="racute" unicode="ŕ" d="M344 364q-25 7 -52.5 4t-51.5 -16t-42 -36.5t-24 -57.5l-45 -258h-91l81 462h79l-8 -109q12 28 30.5 52t42 40t50 23.5t54.5 2.5zM204 529l74 146h121l-116 -146h-79z"></glyph><glyph glyph-name="Rcommaaccent" unicode="Ŗ" d="M388 0q-8 9 -13.5 23.5t-8.5 31.5l-17 102q-8 51 -30 66.5t-68 15.5h-77l-42 -239h-94l103 589h202q96 0 134.5 -37t38.5 -106q0 -44 -15 -75.5t-38 -52t-51.5 -31.5t-56.5 -12v-4q41 -6 60.5 -26.5t27.5 -66.5l21 -116q6 -36 25 -62h-101zM188 316h106q55 0 90 27t35 89 q0 40 -20.5 60t-71.5 20h-105zM285 -139q0 -56 -38 -82.5t-97 -26.5v37q29 1 51.5 9.5t22.5 33.5q-27 -5 -43.5 8t-16.5 39t15.5 39.5t41.5 13.5t45 -18t19 -53z"></glyph><glyph glyph-name="rcommaaccent" unicode="ŗ" d="M344 364q-25 7 -52.5 4t-51.5 -16t-42 -36.5t-24 -57.5l-45 -258h-91l81 462h79l-8 -109q12 28 30.5 52t42 40t50 23.5t54.5 2.5zM131 -139q0 -56 -38 -82.5t-97 -26.5v37q29 1 51.5 9.5t22.5 33.5q-27 -5 -43.5 8t-16.5 39t15.5 39.5t41.5 13.5t45 -18t19 -53z"></glyph><glyph glyph-name="Rcaron" unicode="Ř" d="M388 0q-8 9 -13.5 23.5t-8.5 31.5l-17 102q-8 51 -30 66.5t-68 15.5h-77l-42 -239h-94l103 589h202q96 0 134.5 -37t38.5 -106q0 -44 -15 -75.5t-38 -52t-51.5 -31.5t-56.5 -12v-4q41 -6 60.5 -26.5t27.5 -66.5l21 -116q6 -36 25 -62h-101zM188 316h106q55 0 90 27t35 89 q0 40 -20.5 60t-71.5 20h-105zM298 653l-101 129h94l26 -33q11 -15 14 -25l3 -9h3l6 9q3 5 8.5 11t13.5 14l38 33h99l-148 -129h-56z"></glyph><glyph glyph-name="rcaron" unicode="ř" d="M344 364q-25 7 -52.5 4t-51.5 -16t-42 -36.5t-24 -57.5l-45 -258h-91l81 462h79l-8 -109q12 28 30.5 52t42 40t50 23.5t54.5 2.5zM221 528l-100 147h89l28 -41q12 -20 14 -28q2 -6 2 -10h4q2 4 6 10q4 5 9.5 12t14.5 16l42 41h94l-151 -147h-52z"></glyph><glyph glyph-name="Sacute" unicode="Ś" d="M103 164q-1 -54 28.5 -80t83.5 -26q52 0 83 23t31 73q0 21 -5.5 36.5t-17.5 28.5t-31.5 23.5t-47.5 21.5q-31 11 -56.5 24t-43.5 32t-28 44.5t-10 61.5q0 49 19 83t49 54t65.5 29t68.5 9q88 0 135 -35.5t49 -121.5l-90 -15q2 49 -24.5 74t-76.5 25q-48 0 -77.5 -23.5 t-29.5 -66.5q0 -21 6.5 -35t19.5 -24.5t32.5 -19.5t46.5 -19q34 -14 60 -29t44 -35t27 -46.5t9 -62.5q0 -48 -17.5 -82t-47 -55.5t-69 -31.5t-83.5 -10q-88 0 -136.5 37t-50.5 118zM262 653l63 123h120l-101 -123h-82z"></glyph><glyph glyph-name="sacute" unicode="ś" d="M96 142q0 -47 24.5 -68.5t62.5 -21.5q35 0 57.5 13.5t22.5 51.5q0 31 -17.5 49t-63.5 35q-55 20 -83 50.5t-28 82.5q0 35 13 61t35.5 43.5t52.5 26t65 8.5q74 0 110.5 -31.5t36.5 -91.5l-82 -13q0 34 -18.5 52.5t-53.5 18.5q-34 0 -54.5 -16.5t-20.5 -46.5q0 -12 3.5 -22 t13 -19t26 -18t43.5 -19q61 -24 85 -56.5t24 -85.5q0 -71 -47.5 -104t-122.5 -33q-77 0 -119.5 35t-44.5 99zM208 529l74 146h121l-116 -146h-79z"></glyph><glyph glyph-name="Scircumflex" unicode="Ŝ" d="M103 164q-1 -54 28.5 -80t83.5 -26q52 0 83 23t31 73q0 21 -5.5 36.5t-17.5 28.5t-31.5 23.5t-47.5 21.5q-31 11 -56.5 24t-43.5 32t-28 44.5t-10 61.5q0 49 19 83t49 54t65.5 29t68.5 9q88 0 135 -35.5t49 -121.5l-90 -15q2 49 -24.5 74t-76.5 25q-48 0 -77.5 -23.5 t-29.5 -66.5q0 -21 6.5 -35t19.5 -24.5t32.5 -19.5t46.5 -19q34 -14 60 -29t44 -35t27 -46.5t9 -62.5q0 -48 -17.5 -82t-47 -55.5t-69 -31.5t-83.5 -10q-88 0 -136.5 37t-50.5 118zM351 782l102 -129h-95l-25 33q-6 8 -9 13.5t-5 10.5t-3 10h-3q-2 -5 -6 -10q-5 -8 -23 -24 l-37 -33h-99l147 129h56z"></glyph><glyph glyph-name="scircumflex" unicode="ŝ" d="M96 142q0 -47 24.5 -68.5t62.5 -21.5q35 0 57.5 13.5t22.5 51.5q0 31 -17.5 49t-63.5 35q-55 20 -83 50.5t-28 82.5q0 35 13 61t35.5 43.5t52.5 26t65 8.5q74 0 110.5 -31.5t36.5 -91.5l-82 -13q0 34 -18.5 52.5t-53.5 18.5q-34 0 -54.5 -16.5t-20.5 -46.5q0 -12 3.5 -22 t13 -19t26 -18t43.5 -19q61 -24 85 -56.5t24 -85.5q0 -71 -47.5 -104t-122.5 -33q-77 0 -119.5 35t-44.5 99zM299 675l100 -147h-89l-28 42q-6 8 -9 15.5l-5 12.5q-2 6 -2 10h-4q-2 -4 -6 -10l-10 -12.5t-14 -15.5l-42 -42h-94l151 147h52z"></glyph><glyph glyph-name="Scedilla" unicode="Ş" d="M273 -124q0 -22 -8.5 -38t-23 -27t-34 -16.5t-41.5 -5.5q-62 0 -90 38l24 51q25 -36 62 -36q17 0 28 8.5t11 25.5q0 19 -15 30t-49 12l28 72q-69 8 -107 44.5t-40 108.5l85 21q-1 -54 28.5 -80t83.5 -26q52 0 83 23t31 73q0 21 -5.5 36.5t-17.5 28.5t-31.5 23.5 t-47.5 21.5q-31 11 -56.5 24t-43.5 32t-28 44.5t-10 61.5q0 49 19 83t49 54t65.5 29t68.5 9q88 0 135 -35.5t49 -121.5l-90 -15q2 49 -24.5 74t-76.5 25q-48 0 -77.5 -23.5t-29.5 -66.5q0 -21 6.5 -35t19.5 -24.5t32.5 -19.5t46.5 -19q34 -14 60 -29t44 -35t27 -46.5 t9 -62.5q0 -48 -17.5 -81.5t-47 -55t-68.5 -32t-82 -10.5l-12 -29q40 -8 59 -27.5t19 -55.5z"></glyph><glyph glyph-name="scedilla" unicode="ş" d="M238 -124q0 -22 -8.5 -38t-23 -27t-34 -16.5t-41.5 -5.5q-62 0 -90 38l24 51q25 -36 62 -36q17 0 28 8.5t11 25.5q0 19 -15 30t-49 12l28 74q-54 11 -83 43.5t-31 86.5l80 20q0 -47 24.5 -68.5t62.5 -21.5q35 0 57.5 14t22.5 51q0 31 -17.5 49t-63.5 35q-55 20 -83 50.5 t-28 82.5q0 35 13 61t35.5 43.5t52.5 26t65 8.5q74 0 110.5 -31.5t36.5 -91.5l-82 -13q0 34 -18.5 52.5t-53.5 18.5q-32 0 -53.5 -16t-21.5 -47q0 -12 3.5 -22t13 -19t26 -18t43.5 -19q61 -24 85 -56.5t24 -85.5q0 -69 -43.5 -101.5t-115.5 -34.5q-5 -1 -9.5 -0.5t-9.5 0.5 l-12 -30q40 -8 59 -27.5t19 -55.5z"></glyph><glyph glyph-name="Scaron" unicode="Š" d="M103 164q-1 -54 28.5 -80t83.5 -26q52 0 83 23t31 73q0 21 -5.5 36.5t-17.5 28.5t-31.5 23.5t-47.5 21.5q-31 11 -56.5 24t-43.5 32t-28 44.5t-10 61.5q0 49 19 83t49 54t65.5 29t68.5 9q88 0 135 -35.5t49 -121.5l-90 -15q2 49 -24.5 74t-76.5 25q-48 0 -77.5 -23.5 t-29.5 -66.5q0 -21 6.5 -35t19.5 -24.5t32.5 -19.5t46.5 -19q34 -14 60 -29t44 -35t27 -46.5t9 -62.5q0 -48 -17.5 -82t-47 -55.5t-69 -31.5t-83.5 -10q-88 0 -136.5 37t-50.5 118zM277 653l-101 129h94l26 -33q11 -15 14 -25l3 -9h3l6 9q3 5 8.5 11t13.5 14l38 33h99 l-148 -129h-56z"></glyph><glyph glyph-name="scaron" unicode="š" d="M96 142q0 -47 24.5 -68.5t62.5 -21.5q35 0 57.5 13.5t22.5 51.5q0 31 -17.5 49t-63.5 35q-55 20 -83 50.5t-28 82.5q0 35 13 61t35.5 43.5t52.5 26t65 8.5q74 0 110.5 -31.5t36.5 -91.5l-82 -13q0 34 -18.5 52.5t-53.5 18.5q-34 0 -54.5 -16.5t-20.5 -46.5q0 -12 3.5 -22 t13 -19t26 -18t43.5 -19q61 -24 85 -56.5t24 -85.5q0 -71 -47.5 -104t-122.5 -33q-77 0 -119.5 35t-44.5 99zM225 528l-100 147h89l28 -41q12 -20 14 -28q2 -6 2 -10h4q2 4 6 10q4 5 9.5 12t14.5 16l42 41h94l-151 -147h-52z"></glyph><glyph glyph-name="Tcommaaccent" unicode="Ţ" d="M151 0l88 509h-171l14 80h439l-15 -80h-172l-89 -509h-94zM244 -139q0 -56 -38 -82.5t-97 -26.5v37q29 1 51.5 9.5t22.5 33.5q-27 -5 -43.5 8t-16.5 39t15.5 39.5t41.5 13.5t45 -18t19 -53z"></glyph><glyph glyph-name="tcommaaccent" unicode="ţ" d="M263 12q-21 -12 -48 -18t-51 -6q-63 0 -92.5 35t-15.5 113l44 254h-64l13 72h65l17 97l92 12l-19 -109h121l-13 -72h-120l-46 -260q-7 -35 5.5 -50t33.5 -15q20 0 38 5.5t40 17.5v-76zM183 -139q0 -56 -38 -82.5t-97 -26.5v37q29 1 51.5 9.5t22.5 33.5q-27 -5 -43.5 8 t-16.5 39t15.5 39.5t41.5 13.5t45 -18t19 -53z"></glyph><glyph glyph-name="Tcaron" unicode="Ť" d="M151 0l88 509h-171l14 80h439l-15 -80h-172l-89 -509h-94zM280 653l-101 129h94l26 -33q11 -15 14 -25l3 -9h3l6 9q3 5 8.5 11t13.5 14l38 33h99l-148 -129h-56z"></glyph><glyph glyph-name="tcaron" unicode="ť" d="M263 12q-21 -12 -48 -18t-51 -6q-63 0 -92.5 35t-15.5 113l44 254h-64l13 72h65l17 97l92 12l-19 -109h121l-13 -72h-120l-46 -260q-7 -35 5.5 -50t33.5 -15q20 0 38 5.5t40 17.5v-76zM321 496h-65l16 180h102z"></glyph><glyph glyph-name="Tbar" unicode="Ŧ" d="M151 0l44 253h-108l13 76h108l31 180h-171l14 80h439l-15 -80h-172l-32 -180h116l-13 -76h-116l-44 -253h-94z"></glyph><glyph glyph-name="tbar" unicode="ŧ" d="M40 305h61l16 85h-65l13 72h66l17 97l92 12l-19 -109h121l-13 -72h-120l-16 -85h123l-13 -69h-122l-19 -106q-6 -35 6.5 -50t32.5 -15t38 5.5t41 17.5v-76q-21 -12 -48 -18t-51 -6q-63 0 -93 35t-16 113l18 100h-63z"></glyph><glyph glyph-name="Utilde" unicode="Ũ" d="M585 589l-70 -399q-10 -59 -33 -97.5t-56 -62t-75 -33t-90 -9.5q-47 0 -87.5 12.5t-68.5 40t-39.5 72.5t0.5 110l63 366h95l-66 -372q-7 -40 -1.5 -68.5t20.5 -47t39.5 -27.5t56.5 -9q63 0 100 33t51 111l67 380h94zM426 653q-27 0 -41.5 8t-31.5 18q-19 12 -30 18.5 t-26 6.5t-26 -11.5t-13 -37.5h-54q-5 25 0 47.5t18 39.5t32.5 26.5t43.5 9.5q27 0 43 -8.5t33 -19.5q19 -12 28.5 -17.5t23.5 -5.5t24 11.5t12 39.5h58q8 -55 -17.5 -90t-76.5 -35z"></glyph><glyph glyph-name="utilde" unicode="ũ" d="M318 87q-21 -53 -57 -76t-89 -23q-74 0 -103.5 45.5t-15.5 128.5l52 300h91l-54 -311q-8 -46 7.5 -71t53.5 -25q21 0 41 8.5t37 24.5t29.5 40t18.5 56l48 278h91l-62 -351q-3 -17 1 -31t26 -14q6 0 13 1.5t16 3.5l-13 -67q-12 -5 -26 -7t-28 -2q-48 0 -65 23.5t-12 68.5z M366 529q-27 0 -41.5 7.5t-31.5 17.5q-19 12 -30 18.5t-26 6.5t-26 -11.5t-13 -37.5h-54q-5 26 0 48.5t18 39.5t32.5 26.5t43.5 9.5q27 0 43 -9t33 -20q19 -12 28.5 -17.5t23.5 -5.5t24 11.5t12 39.5h58q8 -54 -17.5 -89t-76.5 -35z"></glyph><glyph glyph-name="Umacron" unicode="Ū" d="M585 589l-70 -399q-10 -59 -33 -97.5t-56 -62t-75 -33t-90 -9.5q-47 0 -87.5 12.5t-68.5 40t-39.5 72.5t0.5 110l63 366h95l-66 -372q-7 -40 -1.5 -68.5t20.5 -47t39.5 -27.5t56.5 -9q63 0 100 33t51 111l67 380h94zM237 674l12 71h264l-12 -71h-264z"></glyph><glyph glyph-name="umacron" unicode="ū" d="M318 87q-21 -53 -57 -76t-89 -23q-74 0 -103.5 45.5t-15.5 128.5l52 300h91l-54 -311q-8 -46 7.5 -71t53.5 -25q21 0 41 8.5t37 24.5t29.5 40t18.5 56l48 278h91l-62 -351q-3 -17 1 -31t26 -14q6 0 13 1.5t16 3.5l-13 -67q-12 -5 -26 -7t-28 -2q-48 0 -65 23.5t-12 68.5z M166 558l13 73h262l-13 -73h-262z"></glyph><glyph glyph-name="Ubreve" unicode="Ŭ" d="M585 589l-70 -399q-10 -59 -33 -97.5t-56 -62t-75 -33t-90 -9.5q-47 0 -87.5 12.5t-68.5 40t-39.5 72.5t0.5 110l63 366h95l-66 -372q-7 -40 -1.5 -68.5t20.5 -47t39.5 -27.5t56.5 -9q63 0 100 33t51 111l67 380h94zM360 650q-66 0 -94 35.5t-17 95.5h71q-3 -31 7.5 -48 t45.5 -17t52 17t25 48h70q-11 -60 -52.5 -95.5t-107.5 -35.5z"></glyph><glyph glyph-name="ubreve" unicode="ŭ" d="M318 87q-21 -53 -57 -76t-89 -23q-74 0 -103.5 45.5t-15.5 128.5l52 300h91l-54 -311q-8 -46 7.5 -71t53.5 -25q21 0 41 8.5t37 24.5t29.5 40t18.5 56l48 278h91l-62 -351q-3 -17 1 -31t26 -14q6 0 13 1.5t16 3.5l-13 -67q-12 -5 -26 -7t-28 -2q-48 0 -65 23.5t-12 68.5z M285 527q-66 0 -94 39t-17 102h71q-2 -17 -1 -30.5t6 -23t16 -15t30 -5.5q38 0 54.5 20.5t24.5 53.5h71q-12 -63 -53.5 -102t-107.5 -39z"></glyph><glyph glyph-name="Uring" unicode="Ů" d="M585 589l-70 -399q-10 -59 -33 -97.5t-56 -62t-75 -33t-90 -9.5q-47 0 -87.5 12.5t-68.5 40t-39.5 72.5t0.5 110l63 366h95l-66 -372q-7 -40 -1.5 -68.5t20.5 -47t39.5 -27.5t56.5 -9q63 0 100 33t51 111l67 380h94zM279 725q0 44 29.5 75t78.5 31q42 0 66.5 -25.5 t24.5 -62.5q0 -22 -7.5 -41.5t-22 -34t-34 -23t-43.5 -8.5q-46 0 -69 25.5t-23 63.5zM383 788q-23 0 -39 -17.5t-16 -40.5t13 -37t36 -14t38 18t15 41t-12 36.5t-35 13.5z"></glyph><glyph glyph-name="uring" unicode="ů" d="M318 87q-21 -53 -57 -76t-89 -23q-74 0 -103.5 45.5t-15.5 128.5l52 300h91l-54 -311q-8 -46 7.5 -71t53.5 -25q21 0 41 8.5t37 24.5t29.5 40t18.5 56l48 278h91l-62 -351q-3 -17 1 -31t26 -14q6 0 13 1.5t16 3.5l-13 -67q-12 -5 -26 -7t-28 -2q-48 0 -65 23.5t-12 68.5z M209 610q0 44 29.5 75t78.5 31q42 0 66.5 -25.5t24.5 -62.5q0 -22 -7.5 -41.5t-22 -34t-34 -23t-43.5 -8.5q-46 0 -69 25.5t-23 63.5zM313 674q-23 0 -39 -18t-16 -41t13 -36.5t36 -13.5t38 17.5t15 40.5t-12 37t-35 14z"></glyph><glyph glyph-name="Uhungarumlaut" unicode="Ű" d="M585 589l-70 -399q-10 -59 -33 -97.5t-56 -62t-75 -33t-90 -9.5q-47 0 -87.5 12.5t-68.5 40t-39.5 72.5t0.5 110l63 366h95l-66 -372q-7 -40 -1.5 -68.5t20.5 -47t39.5 -27.5t56.5 -9q63 0 100 33t51 111l67 380h94zM251 653l62 123h109l-104 -123h-67zM397 653l74 123 h113l-116 -123h-71z"></glyph><glyph glyph-name="uhungarumlaut" unicode="ű" d="M318 87q-21 -53 -57 -76t-89 -23q-74 0 -103.5 45.5t-15.5 128.5l52 300h91l-54 -311q-8 -46 7.5 -71t53.5 -25q21 0 41 8.5t37 24.5t29.5 40t18.5 56l48 278h91l-62 -351q-3 -17 1 -31t26 -14q6 0 13 1.5t16 3.5l-13 -67q-12 -5 -26 -7t-28 -2q-48 0 -65 23.5t-12 68.5z M191 529l62 146h109l-104 -146h-67zM337 529l74 146h113l-116 -146h-71z"></glyph><glyph glyph-name="Uogonek" unicode="Ų" d="M152 -116q0 34 14 61.5t37 47.5q-36 7 -65.5 23.5t-48.5 44t-26 68t3 94.5l64 366h94l-65 -372q-14 -80 18 -116t96 -36t101 33t51 111l66 380h95l-71 -399q-9 -54 -29 -90.5t-48.5 -60t-64.5 -35.5t-78 -15q-29 -14 -48 -37.5t-19 -55.5q0 -21 12.5 -33.5t32.5 -12.5 q24 0 38 10.5t25 28.5l29 -43q-15 -26 -40.5 -41.5t-68.5 -15.5q-50 0 -77 25t-27 70z"></glyph><glyph glyph-name="uogonek" unicode="ų" d="M406 111q-3 -17 1 -31t26 -14q6 0 13 1.5t16 3.5l-13 -67q-26 -4 -52 -11t-47 -19.5t-34 -31.5t-13 -46q0 -21 12.5 -33.5t32.5 -12.5q24 0 38.5 10.5t25.5 28.5l29 -43q-16 -26 -41 -41.5t-68 -15.5q-51 0 -78 25t-27 70q0 25 9.5 46.5t24.5 38.5t34 29t38 20 q-9 8 -13.5 28t-1.5 41q-21 -53 -57 -76t-89 -23q-74 0 -103.5 45.5t-15.5 128.5l52 300h91l-54 -311q-8 -46 7.5 -71t53.5 -25q21 0 41 8.5t37 24.5t29.5 40t18.5 56l48 278h91z"></glyph><glyph glyph-name="Wcircumflex" unicode="Ŵ" d="M558 220q3 -35 4 -64t1 -50v-45h4q5 20 13 45l16.5 49.5t23.5 63.5l148 370h98l-246 -589h-131l-30 347q-3 34 -3 62.5t1 49.5q1 25 3 44h-4q-5 -19 -12 -44q-6 -21 -16.5 -49.5t-24.5 -62.5l-149 -347h-129l-29 589h93l15 -367q1 -35 1.5 -64t0.5 -51q0 -26 -1 -46h4 q4 20 12 46q6 22 16.5 50.5t25.5 63.5l158 368h106zM523 782l102 -129h-95l-25 33q-6 8 -9 13.5t-5 10.5t-3 10h-3q-2 -5 -6 -10q-5 -8 -23 -24l-37 -33h-99l147 129h56z"></glyph><glyph glyph-name="wcircumflex" unicode="ŵ" d="M441 220q4 -35 4.5 -64t0.5 -49q-1 -24 -2 -43h4q4 19 11 43q6 20 16 49t25 64l105 242h95l-207 -462h-108l-25 219q-3 33 -4 59.5t-1 46.5q0 22 2 40h-4q-4 -18 -12 -40q-7 -19 -17.5 -46t-24.5 -60l-95 -219h-108l-48 462h93l20 -242q3 -35 4 -64t1 -49q0 -24 -1 -43h4 q4 19 12 44q6 21 16.5 49.5t25.5 63.5l108 241h88zM423 675l100 -147h-89l-28 42q-6 8 -9 15.5l-5 12.5q-2 6 -2 10h-4q-2 -4 -6 -10l-10 -12.5t-14 -15.5l-42 -42h-94l151 147h52z"></glyph><glyph glyph-name="Ycircumflex" unicode="Ŷ" d="M241 402q8 -26 12.5 -46t6.5 -35q3 -18 4 -31h4q4 13 12 31q7 15 17.5 35t26.5 46l121 187h100l-242 -366l-39 -223h-94l38 223l-127 366h98zM369 782l102 -129h-95l-25 33q-6 8 -9 13.5t-5 10.5t-3 10h-3q-2 -5 -6 -10q-5 -8 -23 -24l-37 -33h-99l147 129h56z"></glyph><glyph glyph-name="ycircumflex" unicode="ŷ" d="M167 203q4 -34 5.5 -60t2.5 -45q1 -22 0 -39h4q4 18 12 40q7 19 18 45.5t28 58.5l132 259h96l-275 -515q-27 -51 -51.5 -82t-48.5 -48t-48 -22.5t-51 -5.5q-25 0 -43.5 5t-31.5 13l22 70q12 -8 26 -12.5t31 -4.5q37 0 64.5 26t58.5 87l-75 489h95zM294 675l100 -147h-89 l-28 42q-6 8 -9 15.5l-5 12.5q-2 6 -2 10h-4q-2 -4 -6 -10l-10 -12.5t-14 -15.5l-42 -42h-94l151 147h52z"></glyph><glyph glyph-name="Ydieresis" unicode="Ÿ" d="M241 402q8 -26 12.5 -46t6.5 -35q3 -18 4 -31h4q4 13 12 31q7 15 17.5 35t26.5 46l121 187h100l-242 -366l-39 -223h-94l38 223l-127 366h98zM175 713q0 26 17.5 43t41.5 17q25 0 42.5 -17t17.5 -43t-17.5 -42.5t-42.5 -16.5q-24 0 -41.5 16.5t-17.5 42.5zM371 712 q0 26 17.5 43t41.5 17q26 0 43 -17t17 -43q0 -25 -17 -42t-43 -17q-24 0 -41.5 17t-17.5 42z"></glyph><glyph glyph-name="Zacute" unicode="Ź" d="M336 440q17 20 31.5 34t24.5 22q11 10 21 15v4q-11 -2 -25 -3q-24 -3 -69 -3h-217l15 80h415l-12 -62l-322 -378q-18 -21 -32 -34.5t-24 -21.5q-11 -10 -21 -15v-4l24 3q12 1 29.5 2t40.5 1h230l-13 -80h-431l10 55zM282 653l63 123h120l-101 -123h-82z"></glyph><glyph glyph-name="zacute" unicode="ź" d="M238 317q18 20 31.5 34.5t23.5 22.5q11 10 20 15v4q-11 -2 -24 -4q-24 -3 -68 -3h-140l13 76h338l-10 -59l-233 -260q-19 -20 -33 -34t-24 -22q-11 -10 -20 -15v-4l24 3q12 1 29.5 2t40.5 1h152l-12 -74h-352l10 49zM209 529l74 146h121l-116 -146h-79z"></glyph><glyph glyph-name="Zdotaccent" unicode="Ż" d="M336 440q17 20 31.5 34t24.5 22q11 10 21 15v4q-11 -2 -25 -3q-24 -3 -69 -3h-217l15 80h415l-12 -62l-322 -378q-18 -21 -32 -34.5t-24 -21.5q-11 -10 -21 -15v-4l24 3q12 1 29.5 2t40.5 1h230l-13 -80h-431l10 55zM276 727q0 27 17.5 43.5t42.5 16.5q26 0 44 -16.5 t18 -43.5q0 -26 -18 -43t-44 -17q-25 0 -42.5 17t-17.5 43z"></glyph><glyph glyph-name="zdotaccent" unicode="ż" d="M238 317q18 20 31.5 34.5t23.5 22.5q11 10 20 15v4q-11 -2 -24 -4q-24 -3 -68 -3h-140l13 76h338l-10 -59l-233 -260q-19 -20 -33 -34t-24 -22q-11 -10 -20 -15v-4l24 3q12 1 29.5 2t40.5 1h152l-12 -74h-352l10 49zM202 609q0 26 17.5 43t42.5 17q26 0 44 -17t18 -43 t-18 -43t-44 -17q-25 0 -42.5 17t-17.5 43z"></glyph><glyph glyph-name="Zcaron" unicode="Ž" d="M336 440q17 20 31.5 34t24.5 22q11 10 21 15v4q-11 -2 -25 -3q-24 -3 -69 -3h-217l15 80h415l-12 -62l-322 -378q-18 -21 -32 -34.5t-24 -21.5q-11 -10 -21 -15v-4l24 3q12 1 29.5 2t40.5 1h230l-13 -80h-431l10 55zM296 653l-101 129h94l26 -33q11 -15 14 -25l3 -9h3 l6 9q3 5 8.5 11t13.5 14l38 33h99l-148 -129h-56z"></glyph><glyph glyph-name="zcaron" unicode="ž" d="M238 317q18 20 31.5 34.5t23.5 22.5q11 10 20 15v4q-11 -2 -24 -4q-24 -3 -68 -3h-140l13 76h338l-10 -59l-233 -260q-19 -20 -33 -34t-24 -22q-11 -10 -20 -15v-4l24 3q12 1 29.5 2t40.5 1h152l-12 -74h-352l10 49zM226 528l-100 147h89l28 -41q12 -20 14 -28 q2 -6 2 -10h4q2 4 6 10q4 5 9.5 12t14.5 16l42 41h94l-151 -147h-52z"></glyph><glyph glyph-name="Schwa" unicode="Ə" d="M310 521q-57 0 -91 -25t-54 -75l-80 23q31 86 90.5 121.5t145.5 35.5q56 0 99.5 -18t73 -50.5t45 -78.5t15.5 -102q0 -89 -24.5 -156.5t-65 -114t-92 -70t-106.5 -23.5q-57 0 -97.5 17.5t-66 46.5t-37 67t-11.5 79q0 31 6 61t19 58h380q3 40 -4 77t-25.5 65t-48 45 t-71.5 17zM151 245q-4 -9 -6 -25.5t-2 -27.5q0 -26 7 -49.5t22 -41t38 -28t54 -10.5q34 0 63 13.5t52.5 37.5t41 57.5t26.5 73.5h-296z"></glyph><glyph glyph-name="florin" unicode="ƒ" d="M97 167h-68l20 76h68l28 97q11 43 29.5 72t42 47t51 26t57.5 8q39 0 71 -14t47 -39l-58 -68q-14 23 -30 33.5t-40 10.5q-32 0 -50.5 -19.5t-29.5 -58.5l-28 -95h118l-20 -76h-118l-79 -288h-90z"></glyph><glyph glyph-name="Khook" unicode="Ƙ" d="M476 0h-106l-140 259h-53l-45 -259h-94l103 589h94l-43 -251h43l90 147q16 27 32 48.5t33.5 36.5t38 23t46.5 8q35 0 57.5 -17.5t32.5 -44.5l-56 -59q-13 32 -40 32q-18 0 -32 -15t-34 -47l-94 -148z"></glyph><glyph glyph-name="khook" unicode="ƙ" d="M180 288h22l164 174h111l-202 -205l75 -156q14 -29 32 -32.5t51 4.5l-14 -69q-27 -9 -57 -9q-27 0 -47.5 11.5t-34.5 42.5l-84 172h-28l-39 -221h-91l91 521q15 85 59.5 119.5t108.5 34.5q30 0 56.5 -7t52.5 -21l-34 -75q-18 13 -34 20t-39 7q-35 0 -52.5 -17.5 t-25.5 -60.5z"></glyph><glyph glyph-name="Ezh" unicode="Ʒ" d="M87 509l14 80h400l-11 -62l-244 -265l-1 -5q46 -1 79.5 -16.5t55 -40.5t31.5 -57.5t10 -68.5q0 -62 -21 -109.5t-56 -79.5t-80.5 -48.5t-94.5 -16.5q-97 0 -149 47t-52 135l77 27q0 -72 34 -105.5t91 -33.5q33 0 62.5 11t51.5 33.5t34.5 56.5t12.5 79q0 29 -10.5 54 t-33.5 43t-59 27.5t-86 9.5l12 66l148 170q17 20 31.5 34t24.5 22q11 10 21 15v4q-11 -2 -25 -3q-24 -3 -69 -3h-198z"></glyph><glyph glyph-name="Acaron" unicode="Ǎ" d="M404 161h-241l-84 -161h-100l318 589h121l110 -589h-96zM202 237h188q-12 58 -20 110t-13.5 92t-7.5 63.5l-2 23.5h-4q-6 -20 -17 -44q-9 -21 -22.5 -49t-31.5 -63zM330 653l-101 129h94l26 -33q11 -15 14 -25l3 -9h3l6 9q3 5 8.5 11t13.5 14l38 33h99l-148 -129h-56z "></glyph><glyph glyph-name="acaron" unicode="ǎ" d="M360 271q4 24 1.5 48t-12.5 42.5t-27.5 30t-43.5 11.5q-33 0 -60.5 -16.5t-47 -46t-30.5 -69t-11 -85.5q0 -54 23 -89.5t70 -35.5q49 0 81 35.5t43 96.5zM423 111q-3 -17 0.5 -31t25.5 -14q7 0 14 1.5t16 3.5l-13 -67q-12 -5 -26 -7t-28 -2q-84 0 -81 82 q-20 -48 -57 -68.5t-81 -20.5q-69 0 -112 49t-43 140q0 59 16 113t45.5 94.5t71 64.5t92.5 24q49 0 79.5 -21t38.5 -68l26 78h78zM269 528l-100 147h89l28 -41q12 -20 14 -28q2 -6 2 -10h4q2 4 6 10q4 5 9.5 12t14.5 16l42 41h94l-151 -147h-52z"></glyph><glyph glyph-name="Icaron" unicode="Ǐ" d="M235 589l-103 -589h-94l103 589h94zM166 653l-101 129h94l26 -33q11 -15 14 -25l3 -9h3l6 9q3 5 8.5 11t13.5 14l38 33h99l-148 -129h-56z"></glyph><glyph glyph-name="icaron" unicode="ǐ" d="M142 111q-3 -17 1 -31t26 -14q6 0 13 1.5t16 3.5l-13 -67q-24 -9 -54 -9q-52 0 -71 28t-10 79l63 360h91zM143 528l-100 147h89l28 -41q12 -20 14 -28q2 -6 2 -10h4q2 4 6 10q4 5 9.5 12t14.5 16l42 41h94l-151 -147h-52z"></glyph><glyph glyph-name="Ocaron" unicode="Ǒ" d="M284 -12q-55 0 -98 17.5t-72 49t-44.5 76t-15.5 97.5q0 88 24 157.5t65.5 117.5t96 73t116.5 25q55 0 98.5 -17.5t72.5 -49.5t44.5 -76.5t15.5 -97.5q0 -89 -24.5 -158t-65.5 -116.5t-96.5 -72.5t-116.5 -25zM348 521q-48 0 -84.5 -23.5t-62 -63t-38.5 -91t-13 -108.5 q0 -78 36.5 -123.5t106.5 -45.5q46 0 83 23.5t62 63t38.5 91.5t13.5 109q0 35 -8 66t-25.5 53.5t-44.5 35.5t-64 13zM341 653l-101 129h94l26 -33q11 -15 14 -25l3 -9h3l6 9q3 5 8.5 11t13.5 14l38 33h99l-148 -129h-56z"></glyph><glyph glyph-name="ocaron" unicode="ǒ" d="M280 473q87 0 134.5 -53t47.5 -146q0 -57 -15.5 -109t-46.5 -91.5t-76 -62.5t-103 -23q-40 0 -73.5 13t-58 37.5t-38 61t-13.5 84.5q0 57 15.5 109.5t46 92.5t76 63.5t104.5 23.5zM269 399q-33 0 -59 -17t-44 -45.5t-27.5 -66.5t-9.5 -79q0 -66 27 -99.5t75 -33.5 q33 0 58.5 17.5t43 47t27 67.5t9.5 80q0 62 -26 95.5t-74 33.5zM257 528l-100 147h89l28 -41q12 -20 14 -28q2 -6 2 -10h4q2 4 6 10q4 5 9.5 12t14.5 16l42 41h94l-151 -147h-52z"></glyph><glyph glyph-name="Ucaron" unicode="Ǔ" d="M585 589l-70 -399q-10 -59 -33 -97.5t-56 -62t-75 -33t-90 -9.5q-47 0 -87.5 12.5t-68.5 40t-39.5 72.5t0.5 110l63 366h95l-66 -372q-7 -40 -1.5 -68.5t20.5 -47t39.5 -27.5t56.5 -9q63 0 100 33t51 111l67 380h94zM331 653l-101 129h94l26 -33q11 -15 14 -25l3 -9h3 l6 9q3 5 8.5 11t13.5 14l38 33h99l-148 -129h-56z"></glyph><glyph glyph-name="ucaron" unicode="ǔ" d="M318 87q-21 -53 -57 -76t-89 -23q-74 0 -103.5 45.5t-15.5 128.5l52 300h91l-54 -311q-8 -46 7.5 -71t53.5 -25q21 0 41 8.5t37 24.5t29.5 40t18.5 56l48 278h91l-62 -351q-3 -17 1 -31t26 -14q6 0 13 1.5t16 3.5l-13 -67q-12 -5 -26 -7t-28 -2q-48 0 -65 23.5t-12 68.5z M264 528l-100 147h89l28 -41q12 -20 14 -28q2 -6 2 -10h4q2 4 6 10q4 5 9.5 12t14.5 16l42 41h94l-151 -147h-52z"></glyph><glyph glyph-name="uni01D9" unicode="Ǚ" d="M585 589l-70 -399q-10 -59 -33 -97.5t-56 -62t-75 -33t-90 -9.5q-47 0 -87.5 12.5t-68.5 40t-39.5 72.5t0.5 110l63 366h95l-66 -372q-7 -40 -1.5 -68.5t20.5 -47t39.5 -27.5t56.5 -9q63 0 100 33t51 111l67 380h94zM211 684q0 26 17.5 43t41.5 17q25 0 42.5 -17 t17.5 -43t-17.5 -42.5t-42.5 -16.5q-24 0 -41.5 16.5t-17.5 42.5zM407 683q0 26 17.5 43t41.5 17q26 0 43 -17t17 -43q0 -25 -17 -42t-43 -17q-24 0 -41.5 17t-17.5 42zM351 756l-101 129h94l26 -33q11 -15 14 -25l3 -9h3l6 9q3 5 8.5 11t13.5 14l38 33h99l-148 -129h-56z "></glyph><glyph glyph-name="uni01DA" unicode="ǚ" d="M318 87q-21 -53 -57 -76t-89 -23q-74 0 -103.5 45.5t-15.5 128.5l52 300h91l-54 -311q-8 -46 7.5 -71t53.5 -25q21 0 41 8.5t37 24.5t29.5 40t18.5 56l48 278h91l-62 -351q-3 -17 1 -31t26 -14q6 0 13 1.5t16 3.5l-13 -67q-12 -5 -26 -7t-28 -2q-48 0 -65 23.5t-12 68.5z M143 558q0 26 17.5 43t41.5 17q25 0 42.5 -17t17.5 -43t-17.5 -42.5t-42.5 -16.5q-24 0 -41.5 16.5t-17.5 42.5zM339 557q0 26 17.5 43t41.5 17q26 0 43 -17t17 -43q0 -25 -17 -42t-43 -17q-24 0 -41.5 17t-17.5 42zM283 632l-101 129h94l26 -33q11 -15 14 -25l3 -9h3l6 9 q3 5 8.5 11t13.5 14l38 33h99l-148 -129h-56z"></glyph><glyph glyph-name="uni004100A800AF" unicode="Ǟ" d="M404 161h-241l-84 -161h-100l318 589h121l110 -589h-96zM202 237h188q-12 58 -20 110t-13.5 92t-7.5 63.5l-2 23.5h-4q-6 -20 -17 -44q-9 -21 -22.5 -49t-31.5 -63zM209 682q0 26 17.5 43t41.5 17q25 0 42.5 -17t17.5 -43t-17.5 -42.5t-42.5 -16.5q-24 0 -41.5 16.5 t-17.5 42.5zM405 681q0 26 17.5 43t41.5 17q26 0 43 -17t17 -43q0 -25 -17 -42t-43 -17q-24 0 -41.5 17t-17.5 42z"></glyph><glyph glyph-name="adieresismacron" unicode="ǟ" d="M360 271q4 24 1.5 48t-12.5 42.5t-27.5 30t-43.5 11.5q-33 0 -60.5 -16.5t-47 -46t-30.5 -69t-11 -85.5q0 -54 23 -89.5t70 -35.5q49 0 81 35.5t43 96.5zM423 111q-3 -17 0.5 -31t25.5 -14q7 0 14 1.5t16 3.5l-13 -67q-12 -5 -26 -7t-28 -2q-84 0 -81 82 q-20 -48 -57 -68.5t-81 -20.5q-69 0 -112 49t-43 140q0 59 16 113t45.5 94.5t71 64.5t92.5 24q49 0 79.5 -21t38.5 -68l26 78h78zM148 569q0 26 17.5 43t41.5 17q25 0 42.5 -17t17.5 -43t-17.5 -42.5t-42.5 -16.5q-24 0 -41.5 16.5t-17.5 42.5zM344 568q0 26 17.5 43 t41.5 17q26 0 43 -17t17 -43q0 -25 -17 -42t-43 -17q-24 0 -41.5 17t-17.5 42zM193 674l12 71h264l-12 -71h-264z"></glyph><glyph glyph-name="AEmacron" unicode="Ǣ" d="M430 161h-220l-126 -161h-105l460 589h429l-14 -80h-268l-31 -174h237l-14 -80h-237l-31 -175h268l-13 -80h-363zM269 237h174l31 176q6 35 11 56.5t8 34.5q4 15 6 22h-4zM503 674l12 71h264l-12 -71h-264z"></glyph><glyph glyph-name="aemacron" unicode="ǣ" d="M490 58q47 0 70 20t34 55l84 -21q-12 -35 -30.5 -59t-42.5 -38.5t-54 -20.5t-66 -6q-54 0 -93.5 20.5t-62.5 56.5q-22 -38 -64.5 -57.5t-96.5 -19.5q-66 0 -101 32t-35 88q0 81 72.5 121.5t203.5 41.5q8 33 19 58q2 38 -18.5 55.5t-55.5 17.5q-38 0 -62 -19t-32 -56 l-85 13q9 37 28 62t45 41t56 23t62 7q45 0 76.5 -13.5t48.5 -43.5q30 29 66 43t74 14q46 0 78.5 -14t53 -37t30 -53t9.5 -62q0 -50 -20 -95h-290q-3 -29 1 -56.5t16 -49t32 -35t50 -13.5zM293 558l13 73h262l-13 -73h-262zM607 271q3 8 4 18.5t1 19.5q0 38 -20.5 66 t-65.5 28q-48 0 -80.5 -35.5t-45.5 -96.5h207zM299 184v13.5t1 13.5q-40 -1 -73 -7t-56.5 -17.5t-36.5 -29.5t-13 -42q0 -29 16.5 -44.5t48.5 -15.5q37 0 71.5 19t48.5 51q-7 25 -7 59z"></glyph><glyph glyph-name="Gstroke" unicode="Ǥ" d="M559 317l-21 -114h59l-11 -63h-58l-25 -140h-67l-4 74q-18 -39 -55.5 -62.5t-95.5 -23.5q-54 0 -96 17.5t-71.5 49t-44.5 75.5t-15 98q0 88 24.5 157.5t65.5 117.5t96 73t117 25q85 0 134 -37.5t66 -109.5l-94 -36q-8 52 -38.5 78t-75.5 26q-48 0 -85 -23.5t-62.5 -63.5 t-38.5 -91.5t-13 -108.5q0 -78 36 -124.5t111 -46.5q45 0 80.5 17t55.5 59h-141l11 63h144l9 46h-143l11 68h235z"></glyph><glyph glyph-name="gstroke" unicode="ǥ" d="M403 -12l-9 -36h69l-6 -35h-74q-26 -65 -77.5 -96.5t-136.5 -31.5q-45 0 -78 9.5t-55.5 26t-35 39.5t-17.5 49l77 35q4 -39 34 -65t79 -26q42 0 69 15.5t44 44.5h-146l6 35h156q3 9 5.5 18.5t4.5 19.5l17 87q-20 -48 -55 -67t-79 -19q-70 0 -113.5 49t-43.5 140 q0 59 16 112t46 93.5t72 64t94 23.5q48 0 78.5 -21t38.5 -68l25 78h78zM362 271q4 24 1.5 47.5t-12.5 42.5t-27.5 30.5t-44.5 11.5q-34 0 -61.5 -16.5t-47 -45.5t-30.5 -68.5t-11 -85.5q0 -54 22.5 -89t70.5 -35q51 0 83 33.5t43 95.5z"></glyph><glyph glyph-name="Gcaron" unicode="Ǧ" d="M556 304l-53 -304h-67l-4 74q-18 -39 -55.5 -62.5t-95.5 -23.5q-54 0 -96 17.5t-71.5 49t-44.5 75.5t-15 98q0 88 24.5 157.5t65.5 117.5t96 73t117 25q85 0 134 -37.5t66 -109.5l-94 -36q-8 52 -38.5 78t-75.5 26q-48 0 -85 -23.5t-62.5 -63.5t-38.5 -91.5t-13 -108.5 q0 -78 36 -124t110 -46q55 0 96 28.5t53 97.5l6 33h-143l14 80h234zM336 653l-101 129h94l26 -33q11 -15 14 -25l3 -9h3l6 9q3 5 8.5 11t13.5 14l38 33h99l-148 -129h-56z"></glyph><glyph glyph-name="gcaron" unicode="ǧ" d="M362 271q4 24 1.5 47.5t-12.5 42.5t-27.5 30.5t-44.5 11.5q-34 0 -61.5 -16.5t-47 -45.5t-30.5 -68.5t-11 -85.5q0 -54 22.5 -89t70.5 -35q51 0 83 33.5t43 95.5zM403 -12q-19 -101 -74 -150t-160 -49q-45 0 -78 9.5t-55.5 26t-35 39.5t-17.5 49l77 35q4 -39 34 -65 t79 -26q64 0 95 35t44 98l17 87q-20 -48 -55 -67t-79 -19q-70 0 -113.5 49t-43.5 140q0 59 16 112t46 93.5t72 64t94 23.5q48 0 78.5 -21t38.5 -68l25 78h78zM265 528l-100 147h89l28 -41q12 -20 14 -28q2 -6 2 -10h4q2 4 6 10q4 5 9.5 12t14.5 16l42 41h94l-151 -147h-52z "></glyph><glyph glyph-name="Kcaron" unicode="Ǩ" d="M370 0l-140 259h-53l-45 -259h-94l103 589h94l-43 -251h43l216 251h112l-254 -287l167 -302h-106zM293 653l-101 129h94l26 -33q11 -15 14 -25l3 -9h3l6 9q3 5 8.5 11t13.5 14l38 33h99l-148 -129h-56z"></glyph><glyph glyph-name="kcaron" unicode="ǩ" d="M196 221h-28l-39 -221h-91l117 668h92l-67 -380h22l164 174h111l-202 -205l75 -156q14 -29 32 -32.5t51 4.5l-14 -69q-27 -9 -57 -9q-27 0 -47.5 11.5t-35.5 42.5zM175 698l-101 129h94l26 -33q11 -15 14 -25l3 -9h3l6 9q3 5 8.5 11t13.5 14l38 33h99l-148 -129h-56z"></glyph><glyph glyph-name="Oogonek" unicode="Ǫ" d="M157 -116q0 36 15.5 64.5t39.5 48.5q-76 20 -117 81.5t-41 149.5t24 157.5t65.5 117.5t96 73t116.5 25q55 0 98.5 -17.5t72.5 -49.5t44.5 -76.5t15.5 -97.5q0 -86 -23 -153.5t-62 -114.5t-91 -73.5t-111 -29.5q-30 -14 -48.5 -38t-18.5 -55q0 -21 12.5 -33.5t32.5 -12.5 q24 0 38.5 10.5t25.5 28.5l29 -43q-16 -26 -41 -41.5t-68 -15.5q-51 0 -78 25t-27 70zM348 521q-48 0 -84.5 -23.5t-62 -63t-38.5 -91t-13 -108.5q0 -78 36.5 -123.5t106.5 -45.5q46 0 83 23.5t62 63t38.5 91.5t13.5 109q0 35 -8 66t-25.5 53.5t-44.5 35.5t-64 13z"></glyph><glyph glyph-name="oogonek" unicode="ǫ" d="M103 -116q0 36 16 64t40 49q-55 16 -88 63.5t-33 123.5q0 57 15.5 109.5t46 92.5t76 63.5t104.5 23.5q87 0 134.5 -53t47.5 -146q0 -54 -14 -103t-41 -87.5t-67 -63.5t-92 -30q-30 -14 -49.5 -37.5t-19.5 -56.5q0 -21 12.5 -33.5t32.5 -12.5q24 0 38.5 10.5t25.5 28.5 l29 -43q-16 -26 -41 -41.5t-68 -15.5q-51 0 -78 25t-27 70zM269 399q-33 0 -59 -17t-44 -45.5t-27.5 -66.5t-9.5 -79q0 -66 27 -99.5t75 -33.5q33 0 58.5 17.5t43 47t27 67.5t9.5 80q0 62 -26 95.5t-74 33.5z"></glyph><glyph glyph-name="uni004F02DB00AF" unicode="Ǭ" d="M157 -116q0 36 15.5 64.5t39.5 48.5q-76 20 -117 81.5t-41 149.5t24 157.5t65.5 117.5t96 73t116.5 25q55 0 98.5 -17.5t72.5 -49.5t44.5 -76.5t15.5 -97.5q0 -86 -23 -153.5t-62 -114.5t-91 -73.5t-111 -29.5q-30 -14 -48.5 -38t-18.5 -55q0 -21 12.5 -33.5t32.5 -12.5 q24 0 38.5 10.5t25.5 28.5l29 -43q-16 -26 -41 -41.5t-68 -15.5q-51 0 -78 25t-27 70zM348 521q-48 0 -84.5 -23.5t-62 -63t-38.5 -91t-13 -108.5q0 -78 36.5 -123.5t106.5 -45.5q46 0 83 23.5t62 63t38.5 91.5t13.5 109q0 35 -8 66t-25.5 53.5t-44.5 35.5t-64 13zM246 674 l12 71h264l-12 -71h-264z"></glyph><glyph glyph-name="oogonekmacron" unicode="ǭ" d="M103 -116q0 36 16 64t40 49q-55 16 -88 63.5t-33 123.5q0 57 15.5 109.5t46 92.5t76 63.5t104.5 23.5q87 0 134.5 -53t47.5 -146q0 -54 -14 -103t-41 -87.5t-67 -63.5t-92 -30q-30 -14 -49.5 -37.5t-19.5 -56.5q0 -21 12.5 -33.5t32.5 -12.5q24 0 38.5 10.5t25.5 28.5 l29 -43q-16 -26 -41 -41.5t-68 -15.5q-51 0 -78 25t-27 70zM269 399q-33 0 -59 -17t-44 -45.5t-27.5 -66.5t-9.5 -79q0 -66 27 -99.5t75 -33.5q33 0 58.5 17.5t43 47t27 67.5t9.5 80q0 62 -26 95.5t-74 33.5zM159 558l13 73h262l-13 -73h-262z"></glyph><glyph glyph-name="Ezhcaron" unicode="Ǯ" d="M87 509l14 80h400l-11 -62l-244 -265l-1 -5q46 -1 79.5 -16.5t55 -40.5t31.5 -57.5t10 -68.5q0 -62 -21 -109.5t-56 -79.5t-80.5 -48.5t-94.5 -16.5q-97 0 -149 47t-52 135l77 27q0 -72 34 -105.5t91 -33.5q33 0 62.5 11t51.5 33.5t34.5 56.5t12.5 79q0 29 -10.5 54 t-33.5 43t-59 27.5t-86 9.5l12 66l148 170q17 20 31.5 34t24.5 22q11 10 21 15v4q-11 -2 -25 -3q-24 -3 -69 -3h-198zM279 653l-101 129h94l26 -33q11 -15 14 -25l3 -9h3l6 9q3 5 8.5 11t13.5 14l38 33h99l-148 -129h-56z"></glyph><glyph glyph-name="ezhcaron" unicode="ǯ" d="M209 312q17 17 30.5 31t24.5 23q12 11 22 19l1 4q-11 -1 -25 -2q-12 -1 -29 -1h-40h-127l14 76h330l-11 -60l-202 -202v-3q39 -2 66.5 -15.5t45 -35t26 -49.5t8.5 -59q0 -48 -19 -84t-49.5 -60t-68.5 -36t-77 -12q-84 0 -123 39t-40 101l77 23q-2 -47 25 -71.5t66 -24.5 q54 0 88 31.5t34 89.5q0 24 -7 44.5t-24 36.5t-46 26t-73 14l11 58zM226 528l-100 147h89l28 -41q12 -20 14 -28q2 -6 2 -10h4q2 4 6 10q4 5 9.5 12t14.5 16l42 41h94l-151 -147h-52z"></glyph><glyph glyph-name="jcaron" unicode="ǰ" d="M111 -68q-7 -42 -21.5 -69.5t-35 -44t-46.5 -23t-57 -6.5q-28 0 -53.5 7.5t-40.5 18.5l29 70q15 -12 30.5 -18.5t36.5 -6.5q25 0 42 16t25 61l93 525h91zM142 528l-100 147h89l28 -41q12 -20 14 -28q2 -6 2 -10h4q2 4 6 10q4 5 9.5 12t14.5 16l42 41h94l-151 -147h-52z "></glyph><glyph glyph-name="jcaron" unicode="" d="M111 -68q-7 -42 -21.5 -69.5t-35 -44t-46.5 -23t-57 -6.5q-28 0 -53.5 7.5t-40.5 18.5l29 70q15 -12 30.5 -18.5t36.5 -6.5q25 0 42 16t25 61l93 525h91zM142 528l-100 147h89l28 -41q12 -20 14 -28q2 -6 2 -10h4q2 4 6 10q4 5 9.5 12t14.5 16l42 41h94l-151 -147h-52z "></glyph><glyph glyph-name="Gacute" unicode="Ǵ" d="M556 304l-53 -304h-67l-4 74q-18 -39 -55.5 -62.5t-95.5 -23.5q-54 0 -96 17.5t-71.5 49t-44.5 75.5t-15 98q0 88 24.5 157.5t65.5 117.5t96 73t117 25q85 0 134 -37.5t66 -109.5l-94 -36q-8 52 -38.5 78t-75.5 26q-48 0 -85 -23.5t-62.5 -63.5t-38.5 -91.5t-13 -108.5 q0 -78 36 -124t110 -46q55 0 96 28.5t53 97.5l6 33h-143l14 80h234zM322 653l63 123h120l-101 -123h-82z"></glyph><glyph glyph-name="gacute" unicode="ǵ" d="M362 271q4 24 1.5 47.5t-12.5 42.5t-27.5 30.5t-44.5 11.5q-34 0 -61.5 -16.5t-47 -45.5t-30.5 -68.5t-11 -85.5q0 -54 22.5 -89t70.5 -35q51 0 83 33.5t43 95.5zM403 -12q-19 -101 -74 -150t-160 -49q-45 0 -78 9.5t-55.5 26t-35 39.5t-17.5 49l77 35q4 -39 34 -65 t79 -26q64 0 95 35t44 98l17 87q-20 -48 -55 -67t-79 -19q-70 0 -113.5 49t-43.5 140q0 59 16 112t46 93.5t72 64t94 23.5q48 0 78.5 -21t38.5 -68l25 78h78zM248 529l74 146h121l-116 -146h-79z"></glyph><glyph glyph-name="Ngrave" unicode="Ǹ" d="M389 258q11 -25 19.5 -47t14.5 -39q7 -20 12 -38h4q2 20 5 43q2 20 6 45.5t9 53.5l55 313h94l-103 -589h-91l-158 328q-11 24 -20 46.5t-15 39.5q-7 20 -13 39h-4q-1 -19 -4 -42q-2 -20 -5 -45t-8 -54l-55 -312h-94l103 589h94zM336 653l-100 123h120l63 -123h-83z"></glyph><glyph glyph-name="ngrave" unicode="ǹ" d="M420 111q-3 -17 1 -31t26 -14q6 0 13 1.5t16 3.5l-13 -67q-24 -9 -54 -9q-52 0 -71 28t-10 79l37 208q8 39 -5.5 63t-54.5 24q-18 0 -38 -7t-38.5 -24t-33.5 -45t-22 -70l-44 -251h-91l81 462h79l-5 -94q24 51 60 78t89 27q54 0 86 -28.5t32 -82.5q0 -9 -0.5 -19 t-3.5 -25zM272 529l-115 146h121l74 -146h-80z"></glyph><glyph glyph-name="uni004102DA00B4" unicode="Ǻ" d="M404 161h-241l-84 -161h-100l318 589h121l110 -589h-96zM202 237h188q-12 58 -20 110t-13.5 92t-7.5 63.5l-2 23.5h-4q-6 -20 -17 -44q-9 -21 -22.5 -49t-31.5 -63zM276 694q0 44 29.5 75t78.5 31q42 0 66.5 -25.5t24.5 -62.5q0 -22 -7.5 -41.5t-22 -34t-34 -23 t-43.5 -8.5q-46 0 -69 25.5t-23 63.5zM380 757q-23 0 -39 -17.5t-16 -40.5t13 -37t36 -14t38 18t15 41t-12 36.5t-35 13.5zM354 821l63 123h120l-101 -123h-82z"></glyph><glyph glyph-name="aringacute" unicode="ǻ" d="M360 271q4 24 1.5 48t-12.5 42.5t-27.5 30t-43.5 11.5q-33 0 -60.5 -16.5t-47 -46t-30.5 -69t-11 -85.5q0 -54 23 -89.5t70 -35.5q49 0 81 35.5t43 96.5zM423 111q-3 -17 0.5 -31t25.5 -14q7 0 14 1.5t16 3.5l-13 -67q-12 -5 -26 -7t-28 -2q-84 0 -81 82 q-20 -48 -57 -68.5t-81 -20.5q-69 0 -112 49t-43 140q0 59 16 113t45.5 94.5t71 64.5t92.5 24q49 0 79.5 -21t38.5 -68l26 78h78zM209 588q0 44 29.5 75t78.5 31q42 0 66.5 -25.5t24.5 -62.5q0 -22 -7.5 -41.5t-22 -34t-34 -23t-43.5 -8.5q-46 0 -69 25.5t-23 63.5zM313 652 q-23 0 -39 -18t-16 -41t13 -36.5t36 -13.5t38 17.5t15 40.5t-12 37t-35 14zM286 723l63 123h120l-101 -123h-82z"></glyph><glyph glyph-name="AEacute" unicode="Ǽ" d="M430 161h-220l-126 -161h-105l460 589h429l-14 -80h-268l-31 -174h237l-14 -80h-237l-31 -175h268l-13 -80h-363zM269 237h174l31 176q6 35 11 56.5t8 34.5q4 15 6 22h-4zM583 653l63 123h120l-101 -123h-82z"></glyph><glyph glyph-name="aeacute" unicode="ǽ" d="M490 58q47 0 70 20t34 55l84 -21q-12 -35 -30.5 -59t-42.5 -38.5t-54 -20.5t-66 -6q-54 0 -93.5 20.5t-62.5 56.5q-22 -38 -64.5 -57.5t-96.5 -19.5q-66 0 -101 32t-35 88q0 81 72.5 121.5t203.5 41.5q8 33 19 58q2 38 -18.5 55.5t-55.5 17.5q-38 0 -62 -19t-32 -56 l-85 13q9 37 28 62t45 41t56 23t62 7q45 0 76.5 -13.5t48.5 -43.5q30 29 66 43t74 14q46 0 78.5 -14t53 -37t30 -53t9.5 -62q0 -50 -20 -95h-290q-3 -29 1 -56.5t16 -49t32 -35t50 -13.5zM375 529l74 146h120l-115 -146h-79zM607 271q3 8 4 18.5t1 19.5q0 38 -20.5 66 t-65.5 28q-48 0 -80.5 -35.5t-45.5 -96.5h207zM299 184v13.5t1 13.5q-40 -1 -73 -7t-56.5 -17.5t-36.5 -29.5t-13 -42q0 -29 16.5 -44.5t48.5 -15.5q37 0 71.5 19t48.5 51q-7 25 -7 59z"></glyph><glyph glyph-name="Oslashacute" unicode="Ǿ" d="M19 26l66 68q-31 55 -31 134q0 88 24 157.5t65.5 117.5t96 73t116.5 25q52 0 92.5 -15.5t69.5 -43.5l57 59l46 -41l-65 -67q31 -59 31 -133q0 -89 -24.5 -158t-65.5 -116.5t-96.5 -72.5t-116.5 -25q-101 0 -163 59l-59 -61zM490 353q0 34 -9 64l-296 -305q19 -22 46 -34 t62 -12q46 0 83 23.5t62 63t38.5 91.5t13.5 109zM348 521q-48 0 -84.5 -23.5t-62 -63t-38.5 -91t-13 -108.5q0 -18 1.5 -34.5t6.5 -30.5l296 305q-18 22 -44 34t-62 12zM336 653l63 123h120l-101 -123h-82z"></glyph><glyph glyph-name="oslashacute" unicode="ǿ" d="M280 473q43 0 76.5 -13.5t56.5 -39.5l55 52l41 -43l-64 -61q17 -42 17 -94q0 -57 -15.5 -109t-46.5 -91.5t-76 -62.5t-103 -23q-76 0 -124 43l-48 -45l-42 40l53 52q-22 46 -22 106q0 57 15.5 109.5t46 92.5t76 63.5t104.5 23.5zM269 399q-32 0 -57.5 -16t-43.5 -43.5 t-27.5 -63t-10.5 -74.5q0 -14 1 -27.5t3 -25.5l214 209q-27 41 -79 41zM231 58q31 0 56.5 16.5t43 44.5t27 64.5t10.5 75.5q1 8 0.5 17t-0.5 18l-210 -204q25 -32 73 -32zM246 529l74 146h121l-116 -146h-79z"></glyph><glyph glyph-name="Adoublegrave" unicode="Ȁ" d="M404 161h-241l-84 -161h-100l318 589h121l110 -589h-96zM202 237h188q-12 58 -20 110t-13.5 92t-7.5 63.5l-2 23.5h-4q-6 -20 -17 -44q-9 -21 -22.5 -49t-31.5 -63zM406 653l-104 123h109l62 -123h-67zM255 653l-115 123h113l73 -123h-71z"></glyph><glyph glyph-name="edoublegrave" unicode="ȁ" d="M229 58q47 0 70 19t34 56l84 -21q-12 -35 -30.5 -59t-43 -38.5t-55 -20.5t-67.5 -6q-88 0 -135.5 53.5t-47.5 143.5q0 70 20 124t52.5 90.5t74 55t84.5 18.5q45 0 77.5 -14t53.5 -37t30.5 -53t9.5 -62q0 -49 -20 -95h-293q-3 -29 1 -56.5t16.5 -49.5t33.5 -35t51 -13z M346 277q3 8 4 16t1 16q0 38 -20.5 66t-65.5 28q-26 0 -47 -10.5t-37 -27.5t-27 -40t-17 -48h209zM315 529l-104 146h109l62 -146h-67zM164 529l-115 146h113l73 -146h-71z"></glyph><glyph glyph-name="edoublegrave" unicode="ȅ" d="M229 58q47 0 70 19t34 56l84 -21q-12 -35 -30.5 -59t-43 -38.5t-55 -20.5t-67.5 -6q-88 0 -135.5 53.5t-47.5 143.5q0 70 20 124t52.5 90.5t74 55t84.5 18.5q45 0 77.5 -14t53.5 -37t30.5 -53t9.5 -62q0 -49 -20 -95h-293q-3 -29 1 -56.5t16.5 -49.5t33.5 -35t51 -13z M346 277q3 8 4 16t1 16q0 38 -20.5 66t-65.5 28q-26 0 -47 -10.5t-37 -27.5t-27 -40t-17 -48h209zM315 529l-104 146h109l62 -146h-67zM164 529l-115 146h113l73 -146h-71z"></glyph><glyph glyph-name="Ainvertedbreve" unicode="Ȃ" d="M404 161h-241l-84 -161h-100l318 589h121l110 -589h-96zM202 237h188q-12 58 -20 110t-13.5 92t-7.5 63.5l-2 23.5h-4q-6 -20 -17 -44q-9 -21 -22.5 -49t-31.5 -63zM390 787q66 0 94 -36t17 -96h-71q4 31 -7 48.5t-46 17.5t-51.5 -17.5t-24.5 -48.5h-71q11 60 52.5 96 t107.5 36z"></glyph><glyph glyph-name="ainvertedbreve" unicode="ȃ" d="M360 271q4 24 1.5 48t-12.5 42.5t-27.5 30t-43.5 11.5q-33 0 -60.5 -16.5t-47 -46t-30.5 -69t-11 -85.5q0 -54 23 -89.5t70 -35.5q49 0 81 35.5t43 96.5zM423 111q-3 -17 0.5 -31t25.5 -14q7 0 14 1.5t16 3.5l-13 -67q-12 -5 -26 -7t-28 -2q-84 0 -81 82 q-20 -48 -57 -68.5t-81 -20.5q-69 0 -112 49t-43 140q0 59 16 113t45.5 94.5t71 64.5t92.5 24q49 0 79.5 -21t38.5 -68l26 78h78zM318 672q66 0 94 -39t17 -102h-71q4 33 -5 53.5t-47 20.5t-54 -20.5t-24 -53.5h-71q11 63 53 102t108 39z"></glyph><glyph glyph-name="Edoublegrave" unicode="Ȅ" d="M401 0h-363l103 589h363l-14 -80h-269l-30 -174h237l-14 -80h-237l-31 -175h268zM366 653l-104 123h109l62 -123h-67zM215 653l-115 123h113l73 -123h-71z"></glyph><glyph glyph-name="Einvertedbreve" unicode="Ȇ" d="M401 0h-363l103 589h363l-14 -80h-269l-30 -174h237l-14 -80h-237l-31 -175h268zM347 787q66 0 94 -36t17 -96h-71q4 31 -7 48.5t-46 17.5t-51.5 -17.5t-24.5 -48.5h-71q11 60 52.5 96t107.5 36z"></glyph><glyph glyph-name="einvertedbreve" unicode="ȇ" d="M229 58q47 0 70 19t34 56l84 -21q-12 -35 -30.5 -59t-43 -38.5t-55 -20.5t-67.5 -6q-88 0 -135.5 53.5t-47.5 143.5q0 70 20 124t52.5 90.5t74 55t84.5 18.5q45 0 77.5 -14t53.5 -37t30.5 -53t9.5 -62q0 -49 -20 -95h-293q-3 -29 1 -56.5t16.5 -49.5t33.5 -35t51 -13z M346 277q3 8 4 16t1 16q0 38 -20.5 66t-65.5 28q-26 0 -47 -10.5t-37 -27.5t-27 -40t-17 -48h209zM290 672q66 0 94 -39t17 -102h-71q4 33 -5 53.5t-47 20.5t-54 -20.5t-24 -53.5h-71q11 63 53 102t108 39z"></glyph><glyph glyph-name="Idoublegrave" unicode="Ȉ" d="M235 589l-103 -589h-94l103 589h94zM243 653l-104 123h109l62 -123h-67zM92 653l-115 123h113l73 -123h-71z"></glyph><glyph glyph-name="idoublegrave" unicode="ȉ" d="M142 111q-3 -17 1 -31t26 -14q6 0 13 1.5t16 3.5l-13 -67q-24 -9 -54 -9q-52 0 -71 28t-10 79l63 360h91zM215 529l-104 146h109l62 -146h-67zM64 529l-115 146h113l73 -146h-71z"></glyph><glyph glyph-name="Iinvertedbreve" unicode="Ȋ" d="M235 589l-103 -589h-94l103 589h94zM225 787q66 0 94 -36t17 -96h-71q4 31 -7 48.5t-46 17.5t-51.5 -17.5t-24.5 -48.5h-71q11 60 52.5 96t107.5 36z"></glyph><glyph glyph-name="iinvertedbreve" unicode="ȋ" d="M142 111q-3 -17 1 -31t26 -14q6 0 13 1.5t16 3.5l-13 -67q-24 -9 -54 -9q-52 0 -71 28t-10 79l63 360h91zM191 672q66 0 94 -39t17 -102h-71q4 33 -5 53.5t-47 20.5t-54 -20.5t-24 -53.5h-71q11 63 53 102t108 39z"></glyph><glyph glyph-name="Odoublegrave" unicode="Ȍ" d="M284 -12q-55 0 -98 17.5t-72 49t-44.5 76t-15.5 97.5q0 88 24 157.5t65.5 117.5t96 73t116.5 25q55 0 98.5 -17.5t72.5 -49.5t44.5 -76.5t15.5 -97.5q0 -89 -24.5 -158t-65.5 -116.5t-96.5 -72.5t-116.5 -25zM348 521q-48 0 -84.5 -23.5t-62 -63t-38.5 -91t-13 -108.5 q0 -78 36.5 -123.5t106.5 -45.5q46 0 83 23.5t62 63t38.5 91.5t13.5 109q0 35 -8 66t-25.5 53.5t-44.5 35.5t-64 13zM418 653l-104 123h109l62 -123h-67zM267 653l-115 123h113l73 -123h-71z"></glyph><glyph glyph-name="odoublegrave" unicode="ȍ" d="M280 473q87 0 134.5 -53t47.5 -146q0 -57 -15.5 -109t-46.5 -91.5t-76 -62.5t-103 -23q-40 0 -73.5 13t-58 37.5t-38 61t-13.5 84.5q0 57 15.5 109.5t46 92.5t76 63.5t104.5 23.5zM269 399q-33 0 -59 -17t-44 -45.5t-27.5 -66.5t-9.5 -79q0 -66 27 -99.5t75 -33.5 q33 0 58.5 17.5t43 47t27 67.5t9.5 80q0 62 -26 95.5t-74 33.5zM330 529l-104 146h109l62 -146h-67zM179 529l-115 146h113l73 -146h-71z"></glyph><glyph glyph-name="Oinvertedbreve" unicode="Ȏ" d="M284 -12q-55 0 -98 17.5t-72 49t-44.5 76t-15.5 97.5q0 88 24 157.5t65.5 117.5t96 73t116.5 25q55 0 98.5 -17.5t72.5 -49.5t44.5 -76.5t15.5 -97.5q0 -89 -24.5 -158t-65.5 -116.5t-96.5 -72.5t-116.5 -25zM348 521q-48 0 -84.5 -23.5t-62 -63t-38.5 -91t-13 -108.5 q0 -78 36.5 -123.5t106.5 -45.5q46 0 83 23.5t62 63t38.5 91.5t13.5 109q0 35 -8 66t-25.5 53.5t-44.5 35.5t-64 13zM399 787q66 0 94 -36t17 -96h-71q4 31 -7 48.5t-46 17.5t-51.5 -17.5t-24.5 -48.5h-71q11 60 52.5 96t107.5 36z"></glyph><glyph glyph-name="oinvertedbreve" unicode="ȏ" d="M280 473q87 0 134.5 -53t47.5 -146q0 -57 -15.5 -109t-46.5 -91.5t-76 -62.5t-103 -23q-40 0 -73.5 13t-58 37.5t-38 61t-13.5 84.5q0 57 15.5 109.5t46 92.5t76 63.5t104.5 23.5zM269 399q-33 0 -59 -17t-44 -45.5t-27.5 -66.5t-9.5 -79q0 -66 27 -99.5t75 -33.5 q33 0 58.5 17.5t43 47t27 67.5t9.5 80q0 62 -26 95.5t-74 33.5zM305 672q66 0 94 -39t17 -102h-71q4 33 -5 53.5t-47 20.5t-54 -20.5t-24 -53.5h-71q11 63 53 102t108 39z"></glyph><glyph glyph-name="Rinvertedbreve" unicode="Ȓ" d="M388 0q-8 9 -13.5 23.5t-8.5 31.5l-17 102q-8 51 -30 66.5t-68 15.5h-77l-42 -239h-94l103 589h202q96 0 134.5 -37t38.5 -106q0 -44 -15 -75.5t-38 -52t-51.5 -31.5t-56.5 -12v-4q41 -6 60.5 -26.5t27.5 -66.5l21 -116q6 -36 25 -62h-101zM188 316h106q55 0 90 27t35 89 q0 40 -20.5 60t-71.5 20h-105zM356 787q66 0 94 -36t17 -96h-71q4 31 -7 48.5t-46 17.5t-51.5 -17.5t-24.5 -48.5h-71q11 60 52.5 96t107.5 36z"></glyph><glyph glyph-name="rinvertedbreve" unicode="ȓ" d="M344 364q-25 7 -52.5 4t-51.5 -16t-42 -36.5t-24 -57.5l-45 -258h-91l81 462h79l-8 -109q12 28 30.5 52t42 40t50 23.5t54.5 2.5zM269 672q66 0 94 -39t17 -102h-71q4 33 -5 53.5t-47 20.5t-54 -20.5t-24 -53.5h-71q11 63 53 102t108 39z"></glyph><glyph glyph-name="Udoublegrave" unicode="Ȕ" d="M585 589l-70 -399q-10 -59 -33 -97.5t-56 -62t-75 -33t-90 -9.5q-47 0 -87.5 12.5t-68.5 40t-39.5 72.5t0.5 110l63 366h95l-66 -372q-7 -40 -1.5 -68.5t20.5 -47t39.5 -27.5t56.5 -9q63 0 100 33t51 111l67 380h94zM407 653l-104 123h109l62 -123h-67zM256 653l-115 123 h113l73 -123h-71z"></glyph><glyph glyph-name="udoublegrave" unicode="ȕ" d="M318 87q-21 -53 -57 -76t-89 -23q-74 0 -103.5 45.5t-15.5 128.5l52 300h91l-54 -311q-8 -46 7.5 -71t53.5 -25q21 0 41 8.5t37 24.5t29.5 40t18.5 56l48 278h91l-62 -351q-3 -17 1 -31t26 -14q6 0 13 1.5t16 3.5l-13 -67q-12 -5 -26 -7t-28 -2q-48 0 -65 23.5t-12 68.5z M337 529l-104 146h109l62 -146h-67zM186 529l-115 146h113l73 -146h-71z"></glyph><glyph glyph-name="Uinvertedbreve" unicode="Ȗ" d="M585 589l-70 -399q-10 -59 -33 -97.5t-56 -62t-75 -33t-90 -9.5q-47 0 -87.5 12.5t-68.5 40t-39.5 72.5t0.5 110l63 366h95l-66 -372q-7 -40 -1.5 -68.5t20.5 -47t39.5 -27.5t56.5 -9q63 0 100 33t51 111l67 380h94zM389 787q66 0 94 -36t17 -96h-71q4 31 -7 48.5 t-46 17.5t-51.5 -17.5t-24.5 -48.5h-71q11 60 52.5 96t107.5 36z"></glyph><glyph glyph-name="uinvertedbreve" unicode="ȗ" d="M318 87q-21 -53 -57 -76t-89 -23q-74 0 -103.5 45.5t-15.5 128.5l52 300h91l-54 -311q-8 -46 7.5 -71t53.5 -25q21 0 41 8.5t37 24.5t29.5 40t18.5 56l48 278h91l-62 -351q-3 -17 1 -31t26 -14q6 0 13 1.5t16 3.5l-13 -67q-12 -5 -26 -7t-28 -2q-48 0 -65 23.5t-12 68.5z M313 672q66 0 94 -39t17 -102h-71q4 33 -5 53.5t-47 20.5t-54 -20.5t-24 -53.5h-71q11 63 53 102t108 39z"></glyph><glyph glyph-name="Scommaaccent" unicode="Ș" d="M103 164q-1 -54 28.5 -80t83.5 -26q52 0 83 23t31 73q0 21 -5.5 36.5t-17.5 28.5t-31.5 23.5t-47.5 21.5q-31 11 -56.5 24t-43.5 32t-28 44.5t-10 61.5q0 49 19 83t49 54t65.5 29t68.5 9q88 0 135 -35.5t49 -121.5l-90 -15q2 49 -24.5 74t-76.5 25q-48 0 -77.5 -23.5 t-29.5 -66.5q0 -21 6.5 -35t19.5 -24.5t32.5 -19.5t46.5 -19q34 -14 60 -29t44 -35t27 -46.5t9 -62.5q0 -48 -17.5 -82t-47 -55.5t-69 -31.5t-83.5 -10q-88 0 -136.5 37t-50.5 118zM240 -139q0 -56 -38 -82.5t-97 -26.5v37q29 1 51.5 9.5t22.5 33.5q-27 -5 -43.5 8t-16.5 39 t15.5 39.5t41.5 13.5t45 -18t19 -53z"></glyph><glyph glyph-name="scommaaccent" unicode="ș" d="M96 142q0 -47 24.5 -68.5t62.5 -21.5q35 0 57.5 13.5t22.5 51.5q0 31 -17.5 49t-63.5 35q-55 20 -83 50.5t-28 82.5q0 35 13 61t35.5 43.5t52.5 26t65 8.5q74 0 110.5 -31.5t36.5 -91.5l-82 -13q0 34 -18.5 52.5t-53.5 18.5q-34 0 -54.5 -16.5t-20.5 -46.5q0 -12 3.5 -22 t13 -19t26 -18t43.5 -19q61 -24 85 -56.5t24 -85.5q0 -71 -47.5 -104t-122.5 -33q-77 0 -119.5 35t-44.5 99zM206 -139q0 -56 -38 -82.5t-97 -26.5v37q29 1 51.5 9.5t22.5 33.5q-27 -5 -43.5 8t-16.5 39t15.5 39.5t41.5 13.5t45 -18t19 -53z"></glyph><glyph glyph-name="Hcaron" unicode="Ȟ" d="M38 0l103 589h94l-43 -250h278l44 250h94l-103 -589h-94l45 259h-279l-45 -259h-94zM353 653l-101 129h94l26 -33q11 -15 14 -25l3 -9h3l6 9q3 5 8.5 11t13.5 14l38 33h99l-148 -129h-56z"></glyph><glyph glyph-name="hcaron" unicode="ȟ" d="M420 111q-3 -17 1 -31t26 -14q6 0 13 1.5t16 3.5l-13 -67q-24 -9 -54 -9q-52 0 -71 28t-10 79l37 208q8 39 -5.5 63t-54.5 24q-18 0 -38 -7t-38.5 -24t-33.5 -45t-22 -70l-44 -251h-91l116 668h93l-54 -300q24 51 60 78t89 27q54 0 86 -28.5t32 -82.5q0 -9 -0.5 -19 t-3.5 -25zM175 705l-101 129h94l26 -33q11 -15 14 -25l3 -9h3l6 9q3 5 8.5 11t13.5 14l38 33h99l-148 -129h-56z"></glyph><glyph glyph-name="Adotabove" unicode="Ȧ" d="M404 161h-241l-84 -161h-100l318 589h121l110 -589h-96zM202 237h188q-12 58 -20 110t-13.5 92t-7.5 63.5l-2 23.5h-4q-6 -20 -17 -44q-9 -21 -22.5 -49t-31.5 -63zM311 727q0 27 17.5 43.5t42.5 16.5q26 0 44 -16.5t18 -43.5q0 -26 -18 -43t-44 -17q-25 0 -42.5 17 t-17.5 43z"></glyph><glyph glyph-name="adotabove" unicode="ȧ" d="M360 271q4 24 1.5 48t-12.5 42.5t-27.5 30t-43.5 11.5q-33 0 -60.5 -16.5t-47 -46t-30.5 -69t-11 -85.5q0 -54 23 -89.5t70 -35.5q49 0 81 35.5t43 96.5zM423 111q-3 -17 0.5 -31t25.5 -14q7 0 14 1.5t16 3.5l-13 -67q-12 -5 -26 -7t-28 -2q-84 0 -81 82 q-20 -48 -57 -68.5t-81 -20.5q-69 0 -112 49t-43 140q0 59 16 113t45.5 94.5t71 64.5t92.5 24q49 0 79.5 -21t38.5 -68l26 78h78zM244 609q0 26 17.5 43t42.5 17q26 0 44 -17t18 -43t-18 -43t-44 -17q-25 0 -42.5 17t-17.5 43z"></glyph><glyph glyph-name="Otildemacron" unicode="Ȭ" d="M284 -12q-55 0 -98 17.5t-72 49t-44.5 76t-15.5 97.5q0 88 24 157.5t65.5 117.5t96 73t116.5 25q55 0 98.5 -17.5t72.5 -49.5t44.5 -76.5t15.5 -97.5q0 -89 -24.5 -158t-65.5 -116.5t-96.5 -72.5t-116.5 -25zM348 521q-48 0 -84.5 -23.5t-62 -63t-38.5 -91t-13 -108.5 q0 -78 36.5 -123.5t106.5 -45.5q46 0 83 23.5t62 63t38.5 91.5t13.5 109q0 35 -8 66t-25.5 53.5t-44.5 35.5t-64 13zM430 616q-27 0 -41.5 8t-31.5 18q-19 12 -30 18.5t-26 6.5t-26 -11.5t-13 -37.5h-54q-5 25 0 47.5t18 39.5t32.5 26.5t43.5 9.5q27 0 43 -8.5t33 -19.5 q19 -12 28.5 -17.5t23.5 -5.5t24 11.5t12 39.5h58q8 -55 -17.5 -90t-76.5 -35z"></glyph><glyph glyph-name="otildemacron" unicode="ȭ" d="M280 473q87 0 134.5 -53t47.5 -146q0 -57 -15.5 -109t-46.5 -91.5t-76 -62.5t-103 -23q-40 0 -73.5 13t-58 37.5t-38 61t-13.5 84.5q0 57 15.5 109.5t46 92.5t76 63.5t104.5 23.5zM269 399q-33 0 -59 -17t-44 -45.5t-27.5 -66.5t-9.5 -79q0 -66 27 -99.5t75 -33.5 q33 0 58.5 17.5t43 47t27 67.5t9.5 80q0 62 -26 95.5t-74 33.5zM356 497q-27 0 -41.5 7.5t-31.5 17.5q-19 12 -30 18.5t-26 6.5t-26 -11.5t-13 -37.5h-54q-5 26 0 48.5t18 39.5t32.5 26.5t43.5 9.5q27 0 43 -9t33 -20q19 -12 28.5 -17.5t23.5 -5.5t24 11.5t12 39.5h58 q8 -54 -17.5 -89t-76.5 -35zM181 652l13 73h262l-13 -73h-262z"></glyph><glyph glyph-name="Odotabove" unicode="Ȯ" d="M284 -12q-55 0 -98 17.5t-72 49t-44.5 76t-15.5 97.5q0 88 24 157.5t65.5 117.5t96 73t116.5 25q55 0 98.5 -17.5t72.5 -49.5t44.5 -76.5t15.5 -97.5q0 -89 -24.5 -158t-65.5 -116.5t-96.5 -72.5t-116.5 -25zM348 521q-48 0 -84.5 -23.5t-62 -63t-38.5 -91t-13 -108.5 q0 -78 36.5 -123.5t106.5 -45.5q46 0 83 23.5t62 63t38.5 91.5t13.5 109q0 35 -8 66t-25.5 53.5t-44.5 35.5t-64 13zM321 727q0 27 17.5 43.5t42.5 16.5q26 0 44 -16.5t18 -43.5q0 -26 -18 -43t-44 -17q-25 0 -42.5 17t-17.5 43z"></glyph><glyph glyph-name="odotabove" unicode="ȯ" d="M280 473q87 0 134.5 -53t47.5 -146q0 -57 -15.5 -109t-46.5 -91.5t-76 -62.5t-103 -23q-40 0 -73.5 13t-58 37.5t-38 61t-13.5 84.5q0 57 15.5 109.5t46 92.5t76 63.5t104.5 23.5zM269 399q-33 0 -59 -17t-44 -45.5t-27.5 -66.5t-9.5 -79q0 -66 27 -99.5t75 -33.5 q33 0 58.5 17.5t43 47t27 67.5t9.5 80q0 62 -26 95.5t-74 33.5zM270 609q0 26 17.5 43t42.5 17q26 0 44 -17t18 -43t-18 -43t-44 -17q-25 0 -42.5 17t-17.5 43z"></glyph><glyph glyph-name="odotabovemacron" unicode="ȱ" d="M280 473q87 0 134.5 -53t47.5 -146q0 -57 -15.5 -109t-46.5 -91.5t-76 -62.5t-103 -23q-40 0 -73.5 13t-58 37.5t-38 61t-13.5 84.5q0 57 15.5 109.5t46 92.5t76 63.5t104.5 23.5zM269 399q-33 0 -59 -17t-44 -45.5t-27.5 -66.5t-9.5 -79q0 -66 27 -99.5t75 -33.5 q33 0 58.5 17.5t43 47t27 67.5t9.5 80q0 62 -26 95.5t-74 33.5zM242 555q0 26 17.5 43t42.5 17q26 0 44 -17t18 -43t-18 -43t-44 -17q-25 0 -42.5 17t-17.5 43zM189 647l13 73h262l-13 -73h-262z"></glyph><glyph glyph-name="odotabovemacron" unicode="" d="M280 473q87 0 134.5 -53t47.5 -146q0 -57 -15.5 -109t-46.5 -91.5t-76 -62.5t-103 -23q-40 0 -73.5 13t-58 37.5t-38 61t-13.5 84.5q0 57 15.5 109.5t46 92.5t76 63.5t104.5 23.5zM269 399q-33 0 -59 -17t-44 -45.5t-27.5 -66.5t-9.5 -79q0 -66 27 -99.5t75 -33.5 q33 0 58.5 17.5t43 47t27 67.5t9.5 80q0 62 -26 95.5t-74 33.5zM242 555q0 26 17.5 43t42.5 17q26 0 44 -17t18 -43t-18 -43t-44 -17q-25 0 -42.5 17t-17.5 43zM189 647l13 73h262l-13 -73h-262z"></glyph><glyph glyph-name="Ymacron" unicode="Ȳ" d="M241 402q8 -26 12.5 -46t6.5 -35q3 -18 4 -31h4q4 13 12 31q7 15 17.5 35t26.5 46l121 187h100l-242 -366l-39 -223h-94l38 223l-127 366h98zM200 674l12 71h264l-12 -71h-264z"></glyph><glyph glyph-name="ymacron" unicode="ȳ" d="M167 203q4 -34 5.5 -60t2.5 -45q1 -22 0 -39h4q4 18 12 40q7 19 18 45.5t28 58.5l132 259h96l-275 -515q-27 -51 -51.5 -82t-48.5 -48t-48 -22.5t-51 -5.5q-25 0 -43.5 5t-31.5 13l22 70q12 -8 26 -12.5t31 -4.5q37 0 64.5 26t58.5 87l-75 489h95zM122 558l13 73h262 l-13 -73h-262z"></glyph><glyph glyph-name="dotlessj" unicode="ȷ" d="M111 -68q-7 -42 -21.5 -69.5t-35 -44t-46.5 -23t-57 -6.5q-28 0 -53.5 7.5t-40.5 18.5l29 70q15 -12 30.5 -18.5t36.5 -6.5q25 0 42 16t25 61l93 525h91z"></glyph><glyph glyph-name="schwa" unicode="ə" d="M249 403q-42 0 -66.5 -20t-41.5 -56l-80 22q25 61 73.5 92.5t122.5 31.5q87 0 135 -53.5t48 -142.5q0 -73 -20 -127t-52.5 -90t-74.5 -54t-85 -18q-45 0 -77.5 14t-53 37t-30 53t-9.5 62q0 52 20 95h290q3 28 -1 56t-16 49.5t-32 35t-50 13.5zM131 184q-4 -13 -4 -32 q0 -38 20.5 -66t65.5 -28q51 0 80.5 33t44.5 93h-207z"></glyph><glyph glyph-name="ezh" unicode="ʒ" d="M209 312q17 17 30.5 31t24.5 23q12 11 22 19l1 4q-11 -1 -25 -2q-12 -1 -29 -1h-40h-127l14 76h330l-11 -60l-202 -202v-3q39 -2 66.5 -15.5t45 -35t26 -49.5t8.5 -59q0 -48 -19 -84t-49.5 -60t-68.5 -36t-77 -12q-84 0 -123 39t-40 101l77 23q-2 -47 25 -71.5t66 -24.5 q54 0 88 31.5t34 89.5q0 24 -7 44.5t-24 36.5t-46 26t-73 14l11 58z"></glyph><glyph glyph-name="circumflex" unicode="ˆ" d="M283 675l100 -147h-89l-28 42q-6 8 -9 15.5l-5 12.5q-2 6 -2 10h-4q-2 -4 -6 -10l-10 -12.5t-14 -15.5l-42 -42h-94l151 147h52z"></glyph><glyph glyph-name="caron" unicode="ˇ" d="M180 528l-100 147h89l28 -41q12 -20 14 -28q2 -6 2 -10h4q2 4 6 10q4 5 9.5 12t14.5 16l42 41h94l-151 -147h-52z"></glyph><glyph glyph-name="breve" unicode="˘" d="M195 527q-66 0 -94 39t-17 102h71q-2 -17 -1 -30.5t6 -23t16 -15t30 -5.5q38 0 54.5 20.5t24.5 53.5h71q-12 -63 -53.5 -102t-107.5 -39z"></glyph><glyph glyph-name="dotaccent" unicode="˙" d="M80 609q0 26 17.5 43t42.5 17q26 0 44 -17t18 -43t-18 -43t-44 -17q-25 0 -42.5 17t-17.5 43z"></glyph><glyph glyph-name="ring" unicode="˚" d="M80 610q0 44 29.5 75t78.5 31q42 0 66.5 -25.5t24.5 -62.5q0 -22 -7.5 -41.5t-22 -34t-34 -23t-43.5 -8.5q-46 0 -69 25.5t-23 63.5zM184 674q-23 0 -39 -18t-16 -41t13 -36.5t36 -13.5t38 17.5t15 40.5t-12 37t-35 14z"></glyph><glyph glyph-name="ogonek" unicode="˛" d="M80 -116q0 39 18.5 69t46 51t59.5 32t59 12l31 -48q-27 0 -52 -7.5t-44 -21t-30.5 -32.5t-11.5 -43q0 -21 12.5 -33.5t32.5 -12.5q24 0 38.5 10.5t25.5 28.5l29 -43q-16 -26 -41 -41.5t-68 -15.5q-51 0 -78 25t-27 70z"></glyph><glyph glyph-name="tilde" unicode="˜" d="M305 529q-27 0 -41.5 7.5t-31.5 17.5q-19 12 -30 18.5t-26 6.5t-26 -11.5t-13 -37.5h-54q-5 26 0 48.5t18 39.5t32.5 26.5t43.5 9.5q27 0 43 -9t33 -20q19 -12 28.5 -17.5t23.5 -5.5t24 11.5t12 39.5h58q8 -54 -17.5 -89t-76.5 -35z"></glyph><glyph glyph-name="hungarumlaut" unicode="˝" d="M80 529l62 146h109l-104 -146h-67zM226 529l74 146h113l-116 -146h-71z"></glyph><glyph glyph-name="uni0312" unicode="̒" d="M80 722q0 56 38 82.5t97 26.5v-37q-15 -1 -28 -3t-23.5 -6.5t-16.5 -12.5t-6 -20q27 5 43.5 -8.5t16.5 -38.5q0 -26 -15.5 -39.5t-41.5 -13.5t-45 17.5t-19 52.5z"></glyph><glyph glyph-name="uni0320" unicode="̠" d="M80 -183l13 73h262l-13 -73h-262z"></glyph><glyph glyph-name="uni0323" unicode="̣" d="M80 -119q0 27 17.5 43.5t42.5 16.5q26 0 44 -16.5t18 -43.5q0 -26 -18 -43t-44 -17q-25 0 -42.5 17t-17.5 43z"></glyph><glyph glyph-name="uni0329" unicode="̩" d="M80 -53h82v-139l-82 -5v144z"></glyph><glyph glyph-name="pi" unicode="π" d="M621 481l-13 -72h-106l-57 -299q-10 -57 25 -57q19 0 30 13t24 34l50 -40q-23 -42 -53 -57t-72 -15q-58 0 -80.5 33t-11.5 90l59 298h-124l-119 -409h-90l122 409h-13q-41 0 -66.5 -22.5t-28.5 -68.5h-74q4 81 52.5 122t133.5 41h412z"></glyph><glyph glyph-name="uni0E3F" unicode="฿" d="M356 245q50 -3 74.5 -30.5t24.5 -66.5q0 -40 -15 -68t-41 -46t-63 -26t-80 -8h-21l-18 -106h-50l18 106h-155l84 481h156l17 93h50l-17 -93q72 0 110 -26.5t38 -82.5q0 -57 -29.5 -87t-82.5 -37v-3zM273 210l-25 -139h10q23 0 43 3.5t34.5 12.5t22.5 24t8 38q0 61 -76 61 h-17zM235 276l23 135h-64l-23 -135h64zM135 71h63l25 139h-64zM378 356q0 29 -18.5 41t-51.5 14l-23 -135q40 0 66.5 18.5t26.5 61.5z"></glyph><glyph glyph-name="Ddotbelow" unicode="Ḍ" d="M232 77q46 0 87.5 16t72.5 50t49 86.5t18 126.5q0 84 -44.5 120t-119.5 36h-73l-76 -435h86zM38 0l103 589h169q127 0 187.5 -58.5t60.5 -166.5q0 -99 -28 -168.5t-74 -113t-104.5 -63t-119.5 -19.5h-194zM126 -139q0 26 17.5 43t42.5 17q26 0 44 -17t18 -43t-18 -43 t-44 -17q-25 0 -42.5 17t-17.5 43z"></glyph><glyph glyph-name="ddotbelow" unicode="ḍ" d="M362 271q4 24 1.5 47.5t-13 42t-28.5 30t-44 11.5q-33 0 -61 -16.5t-47.5 -46t-30.5 -69t-11 -85.5q0 -54 23 -89t70 -35q50 0 82.5 34.5t43.5 96.5zM424 111q-3 -17 1 -31t26 -14q6 0 13 1.5t16 3.5l-13 -67q-24 -9 -54 -9q-83 0 -81 82q-9 -25 -23.5 -42t-33 -27.5 t-39.5 -15t-43 -4.5q-69 0 -112 49t-43 140q0 59 16 113t45.5 94.5t71.5 64.5t93 24q48 0 79 -21t39 -68l50 284h90zM135 -139q0 26 17.5 43t42.5 17q26 0 44 -17t18 -43t-18 -43t-44 -17q-25 0 -42.5 17t-17.5 43z"></glyph><glyph glyph-name="Dcedilla" unicode="Ḑ" d="M290 -124q0 -22 -8.5 -38t-23 -27t-34 -16.5t-41.5 -5.5q-62 0 -90 38l24 51q25 -36 62 -36q17 0 28 8.5t11 25.5q0 19 -15 30t-49 12l32 82h-148l103 589h169q127 0 187.5 -58.5t60.5 -166.5q0 -101 -28.5 -170.5t-75 -112t-105.5 -61.5t-120 -20l-17 -41 q40 -8 59 -27.5t19 -55.5zM232 77q46 0 87.5 16t72.5 50t49 86.5t18 126.5q0 84 -44.5 120t-119.5 36h-73l-76 -435h86z"></glyph><glyph glyph-name="dcedilla" unicode="ḑ" d="M300 -124q0 -22 -8.5 -38t-23 -27t-34 -16.5t-41.5 -5.5q-60 0 -90 38l24 51q25 -36 62 -36q17 0 28 8.5t11 25.5q0 19 -14.5 30t-48.5 12l26 70q-8 1 -16 1.5t-16 2.5q-56 11 -88.5 58.5t-32.5 126.5q0 54 13.5 104t39 89.5t61.5 66t81 33.5q10 2 19.5 2.5t20.5 -0.5 q45 -2 73 -23t36 -65l50 284h90l-98 -557q-3 -17 1 -31t26 -14q6 0 13 1.5t16 3.5l-13 -67q-24 -9 -54 -9q-83 0 -81 82q-14 -37 -39 -56t-56 -26l-15 -36q40 -8 59 -27.5t19 -55.5zM362 271q4 24 1.5 47.5t-13 42t-28.5 30t-44 11.5q-33 0 -61 -16.5t-47.5 -46t-30.5 -69 t-11 -85.5q0 -54 23 -89t70 -35q50 0 82.5 34.5t43.5 96.5z"></glyph><glyph glyph-name="Hdotbelow" unicode="Ḥ" d="M38 0l103 589h94l-43 -250h278l44 250h94l-103 -589h-94l45 259h-279l-45 -259h-94zM184 -139q0 26 17.5 43t42.5 17q26 0 44 -17t18 -43t-18 -43t-44 -17q-25 0 -42.5 17t-17.5 43z"></glyph><glyph glyph-name="hdotbelow" unicode="ḥ" d="M420 111q-3 -17 1 -31t26 -14q6 0 13 1.5t16 3.5l-13 -67q-24 -9 -54 -9q-52 0 -71 28t-10 79l37 208q8 39 -5.5 63t-54.5 24q-18 0 -38 -7t-38.5 -24t-33.5 -45t-22 -70l-44 -251h-91l116 668h93l-54 -300q24 51 60 78t89 27q54 0 86 -28.5t32 -82.5q0 -9 -0.5 -19 t-3.5 -25zM145 -139q0 26 17.5 43t42.5 17q26 0 44 -17t18 -43t-18 -43t-44 -17q-25 0 -42.5 17t-17.5 43z"></glyph><glyph glyph-name="Ldotbelow" unicode="Ḷ" d="M235 589l-89 -509h261l-13 -80h-356l103 589h94zM135 -139q0 26 17.5 43t42.5 17q26 0 44 -17t18 -43t-18 -43t-44 -17q-25 0 -42.5 17t-17.5 43z"></glyph><glyph glyph-name="ldotbelow" unicode="ḷ" d="M142 111q-3 -17 1 -31t26 -14q6 0 13 1.5t16 3.5l-13 -67q-24 -9 -54 -9q-52 0 -71 28t-10 79l99 566h91zM14 -139q0 26 17.5 43t42.5 17q26 0 44 -17t18 -43t-18 -43t-44 -17q-25 0 -42.5 17t-17.5 43z"></glyph><glyph glyph-name="uni004C032300AF" unicode="Ḹ" d="M235 589l-89 -509h261l-13 -80h-356l103 589h94zM78 674l12 71h264l-12 -71h-264zM136 -139q0 26 17.5 43t42.5 17q26 0 44 -17t18 -43t-18 -43t-44 -17q-25 0 -42.5 17t-17.5 43z"></glyph><glyph glyph-name="ldotbelowmacron" unicode="ḹ" d="M142 111q-3 -17 1 -31t26 -14q6 0 13 1.5t16 3.5l-13 -67q-24 -9 -54 -9q-52 0 -71 28t-10 79l99 566h91zM76 708l13 73h262l-13 -73h-262zM13 -139q0 26 17.5 43t42.5 17q26 0 44 -17t18 -43t-18 -43t-44 -17q-25 0 -42.5 17t-17.5 43z"></glyph><glyph glyph-name="Mdotbelow" unicode="Ṃ" d="M308 144l-72 198q-9 23 -14 43.5t-8 34.5q-4 17 -4 30h-4q0 -11 -2 -27q-2 -14 -4.5 -34t-6.5 -46l-61 -343h-94l103 589h105l87 -261q6 -20 10 -36t6 -27q3 -13 4 -23h4q3 10 9 22q5 11 13.5 26t22.5 35l179 264h105l-103 -589h-95l61 343q4 26 8.5 46t7.5 34q4 16 7 27 h-4q-5 -12 -14 -28q-8 -14 -19 -33t-28 -43l-138 -202h-61zM223 -139q0 26 17.5 43t42.5 17q26 0 44 -17t18 -43t-18 -43t-44 -17q-25 0 -42.5 17t-17.5 43z"></glyph><glyph glyph-name="mdotbelow" unicode="ṃ" d="M299 0l55 310q7 39 -6 63t-53 24q-16 0 -34.5 -7t-35.5 -24t-31 -45t-21 -70l-44 -251h-91l81 462h79l-5 -94q24 51 55.5 78t87.5 27q51 0 81.5 -29t30.5 -83q23 55 57.5 83.5t91.5 28.5q50 0 81 -28.5t31 -82.5q0 -9 -0.5 -19t-2.5 -25l-36 -207q-3 -17 0.5 -31 t25.5 -14q7 0 14 1.5t16 3.5l-13 -67q-12 -5 -26 -7t-28 -2q-53 0 -71.5 28t-9.5 79l37 208q7 39 -6 63t-53 24q-16 0 -34.5 -7t-35.5 -24t-31 -45t-21 -70l-44 -251h-91zM255 -139q0 26 17.5 43t42.5 17q26 0 44 -17t18 -43t-18 -43t-44 -17q-25 0 -42.5 17t-17.5 43z"></glyph><glyph glyph-name="Ndotaccent" unicode="Ṅ" d="M389 258q11 -25 19.5 -47t14.5 -39q7 -20 12 -38h4q2 20 5 43q2 20 6 45.5t9 53.5l55 313h94l-103 -589h-91l-158 328q-11 24 -20 46.5t-15 39.5q-7 20 -13 39h-4q-1 -19 -4 -42q-2 -20 -5 -45t-8 -54l-55 -312h-94l103 589h94zM322 727q0 27 17.5 43.5t42.5 16.5 q26 0 44 -16.5t18 -43.5q0 -26 -18 -43t-44 -17q-25 0 -42.5 17t-17.5 43z"></glyph><glyph glyph-name="ndotaccent" unicode="ṅ" d="M420 111q-3 -17 1 -31t26 -14q6 0 13 1.5t16 3.5l-13 -67q-24 -9 -54 -9q-52 0 -71 28t-10 79l37 208q8 39 -5.5 63t-54.5 24q-18 0 -38 -7t-38.5 -24t-33.5 -45t-22 -70l-44 -251h-91l81 462h79l-5 -94q24 51 60 78t89 27q54 0 86 -28.5t32 -82.5q0 -9 -0.5 -19 t-3.5 -25zM251 609q0 26 17.5 43t42.5 17q26 0 44 -17t18 -43t-18 -43t-44 -17q-25 0 -42.5 17t-17.5 43z"></glyph><glyph glyph-name="Ndotbelow" unicode="Ṇ" d="M389 258q11 -25 19.5 -47t14.5 -39q7 -20 12 -38h4q2 20 5 43q2 20 6 45.5t9 53.5l55 313h94l-103 -589h-91l-158 328q-11 24 -20 46.5t-15 39.5q-7 20 -13 39h-4q-1 -19 -4 -42q-2 -20 -5 -45t-8 -54l-55 -312h-94l103 589h94zM173 -139q0 26 17.5 43t42.5 17 q26 0 44 -17t18 -43t-18 -43t-44 -17q-25 0 -42.5 17t-17.5 43z"></glyph><glyph glyph-name="ndotbelow" unicode="ṇ" d="M420 111q-3 -17 1 -31t26 -14q6 0 13 1.5t16 3.5l-13 -67q-24 -9 -54 -9q-52 0 -71 28t-10 79l37 208q8 39 -5.5 63t-54.5 24q-18 0 -38 -7t-38.5 -24t-33.5 -45t-22 -70l-44 -251h-91l81 462h79l-5 -94q24 51 60 78t89 27q54 0 86 -28.5t32 -82.5q0 -9 -0.5 -19 t-3.5 -25zM122 -139q0 26 17.5 43t42.5 17q26 0 44 -17t18 -43t-18 -43t-44 -17q-25 0 -42.5 17t-17.5 43z"></glyph><glyph glyph-name="Rdotbelow" unicode="Ṛ" d="M388 0q-8 9 -13.5 23.5t-8.5 31.5l-17 102q-8 51 -30 66.5t-68 15.5h-77l-42 -239h-94l103 589h202q96 0 134.5 -37t38.5 -106q0 -44 -15 -75.5t-38 -52t-51.5 -31.5t-56.5 -12v-4q41 -6 60.5 -26.5t27.5 -66.5l21 -116q6 -36 25 -62h-101zM188 316h106q55 0 90 27t35 89 q0 40 -20.5 60t-71.5 20h-105zM160 -139q0 26 17.5 43t42.5 17q26 0 44 -17t18 -43t-18 -43t-44 -17q-25 0 -42.5 17t-17.5 43z"></glyph><glyph glyph-name="rdotbelow" unicode="ṛ" d="M344 364q-25 7 -52.5 4t-51.5 -16t-42 -36.5t-24 -57.5l-45 -258h-91l81 462h79l-8 -109q12 28 30.5 52t42 40t50 23.5t54.5 2.5zM4 -139q0 26 17.5 43t42.5 17q26 0 44 -17t18 -43t-18 -43t-44 -17q-25 0 -42.5 17t-17.5 43z"></glyph><glyph glyph-name="Rdotbelowmacron" unicode="Ṝ" d="M388 0q-8 9 -13.5 23.5t-8.5 31.5l-17 102q-8 51 -30 66.5t-68 15.5h-77l-42 -239h-94l103 589h202q96 0 134.5 -37t38.5 -106q0 -44 -15 -75.5t-38 -52t-51.5 -31.5t-56.5 -12v-4q41 -6 60.5 -26.5t27.5 -66.5l21 -116q6 -36 25 -62h-101zM188 316h106q55 0 90 27t35 89 q0 40 -20.5 60t-71.5 20h-105zM204 674l12 71h264l-12 -71h-264zM160 -139q0 26 17.5 43t42.5 17q26 0 44 -17t18 -43t-18 -43t-44 -17q-25 0 -42.5 17t-17.5 43z"></glyph><glyph glyph-name="rdotbelowmacron" unicode="ṝ" d="M344 364q-25 7 -52.5 4t-51.5 -16t-42 -36.5t-24 -57.5l-45 -258h-91l81 462h79l-8 -109q12 28 30.5 52t42 40t50 23.5t54.5 2.5zM4 -139q0 26 17.5 43t42.5 17q26 0 44 -17t18 -43t-18 -43t-44 -17q-25 0 -42.5 17t-17.5 43zM122 558l13 73h262l-13 -73h-262z"></glyph><glyph glyph-name="Sdotbelow" unicode="Ṣ" d="M103 164q-1 -54 28.5 -80t83.5 -26q52 0 83 23t31 73q0 21 -5.5 36.5t-17.5 28.5t-31.5 23.5t-47.5 21.5q-31 11 -56.5 24t-43.5 32t-28 44.5t-10 61.5q0 49 19 83t49 54t65.5 29t68.5 9q88 0 135 -35.5t49 -121.5l-90 -15q2 49 -24.5 74t-76.5 25q-48 0 -77.5 -23.5 t-29.5 -66.5q0 -21 6.5 -35t19.5 -24.5t32.5 -19.5t46.5 -19q34 -14 60 -29t44 -35t27 -46.5t9 -62.5q0 -48 -17.5 -82t-47 -55.5t-69 -31.5t-83.5 -10q-88 0 -136.5 37t-50.5 118zM109 -139q0 26 17.5 43t42.5 17q26 0 44 -17t18 -43t-18 -43t-44 -17q-25 0 -42.5 17 t-17.5 43z"></glyph><glyph glyph-name="sdotbelow" unicode="ṣ" d="M96 142q0 -47 24.5 -68.5t62.5 -21.5q35 0 57.5 13.5t22.5 51.5q0 31 -17.5 49t-63.5 35q-55 20 -83 50.5t-28 82.5q0 35 13 61t35.5 43.5t52.5 26t65 8.5q74 0 110.5 -31.5t36.5 -91.5l-82 -13q0 34 -18.5 52.5t-53.5 18.5q-34 0 -54.5 -16.5t-20.5 -46.5q0 -12 3.5 -22 t13 -19t26 -18t43.5 -19q61 -24 85 -56.5t24 -85.5q0 -71 -47.5 -104t-122.5 -33q-77 0 -119.5 35t-44.5 99zM74 -139q0 26 17.5 43t42.5 17q26 0 44 -17t18 -43t-18 -43t-44 -17q-25 0 -42.5 17t-17.5 43z"></glyph><glyph glyph-name="Tdotbelow" unicode="Ṭ" d="M151 0l88 509h-171l14 80h439l-15 -80h-172l-89 -509h-94zM113 -139q0 26 17.5 43t42.5 17q26 0 44 -17t18 -43t-18 -43t-44 -17q-25 0 -42.5 17t-17.5 43z"></glyph><glyph glyph-name="tdotbelow" unicode="ṭ" d="M263 12q-21 -12 -48 -18t-51 -6q-63 0 -92.5 35t-15.5 113l44 254h-64l13 72h65l17 97l92 12l-19 -109h121l-13 -72h-120l-46 -260q-7 -35 5.5 -50t33.5 -15q20 0 38 5.5t40 17.5v-76zM50 -139q0 26 17.5 43t42.5 17q26 0 44 -17t18 -43t-18 -43t-44 -17q-25 0 -42.5 17 t-17.5 43z"></glyph><glyph glyph-name="Wgrave" unicode="Ẁ" d="M558 220q3 -35 4 -64t1 -50v-45h4q5 20 13 45l16.5 49.5t23.5 63.5l148 370h98l-246 -589h-131l-30 347q-3 34 -3 62.5t1 49.5q1 25 3 44h-4q-5 -19 -12 -44q-6 -21 -16.5 -49.5t-24.5 -62.5l-149 -347h-129l-29 589h93l15 -367q1 -35 1.5 -64t0.5 -51q0 -26 -1 -46h4 q4 20 12 46q6 22 16.5 50.5t25.5 63.5l158 368h106zM442 653l-100 123h120l63 -123h-83z"></glyph><glyph glyph-name="wgrave" unicode="ẁ" d="M441 220q4 -35 4.5 -64t0.5 -49q-1 -24 -2 -43h4q4 19 11 43q6 20 16 49t25 64l105 242h95l-207 -462h-108l-25 219q-3 33 -4 59.5t-1 46.5q0 22 2 40h-4q-4 -18 -12 -40q-7 -19 -17.5 -46t-24.5 -60l-95 -219h-108l-48 462h93l20 -242q3 -35 4 -64t1 -49q0 -24 -1 -43h4 q4 19 12 44q6 21 16.5 49.5t25.5 63.5l108 241h88zM348 529l-115 146h121l74 -146h-80z"></glyph><glyph glyph-name="Wacute" unicode="Ẃ" d="M558 220q3 -35 4 -64t1 -50v-45h4q5 20 13 45l16.5 49.5t23.5 63.5l148 370h98l-246 -589h-131l-30 347q-3 34 -3 62.5t1 49.5q1 25 3 44h-4q-5 -19 -12 -44q-6 -21 -16.5 -49.5t-24.5 -62.5l-149 -347h-129l-29 589h93l15 -367q1 -35 1.5 -64t0.5 -51q0 -26 -1 -46h4 q4 20 12 46q6 22 16.5 50.5t25.5 63.5l158 368h106zM433 653l63 123h120l-101 -123h-82z"></glyph><glyph glyph-name="wacute" unicode="ẃ" d="M441 220q4 -35 4.5 -64t0.5 -49q-1 -24 -2 -43h4q4 19 11 43q6 20 16 49t25 64l105 242h95l-207 -462h-108l-25 219q-3 33 -4 59.5t-1 46.5q0 22 2 40h-4q-4 -18 -12 -40q-7 -19 -17.5 -46t-24.5 -60l-95 -219h-108l-48 462h93l20 -242q3 -35 4 -64t1 -49q0 -24 -1 -43h4 q4 19 12 44q6 21 16.5 49.5t25.5 63.5l108 241h88zM333 529l74 146h121l-116 -146h-79z"></glyph><glyph glyph-name="Wdieresis" unicode="Ẅ" d="M558 220q3 -35 4 -64t1 -50v-45h4q5 20 13 45l16.5 49.5t23.5 63.5l148 370h98l-246 -589h-131l-30 347q-3 34 -3 62.5t1 49.5q1 25 3 44h-4q-5 -19 -12 -44q-6 -21 -16.5 -49.5t-24.5 -62.5l-149 -347h-129l-29 589h93l15 -367q1 -35 1.5 -64t0.5 -51q0 -26 -1 -46h4 q4 20 12 46q6 22 16.5 50.5t25.5 63.5l158 368h106zM329 713q0 26 17.5 43t41.5 17q25 0 42.5 -17t17.5 -43t-17.5 -42.5t-42.5 -16.5q-24 0 -41.5 16.5t-17.5 42.5zM525 712q0 26 17.5 43t41.5 17q26 0 43 -17t17 -43q0 -25 -17 -42t-43 -17q-24 0 -41.5 17t-17.5 42z"></glyph><glyph glyph-name="wdieresis" unicode="ẅ" d="M441 220q4 -35 4.5 -64t0.5 -49q-1 -24 -2 -43h4q4 19 11 43q6 20 16 49t25 64l105 242h95l-207 -462h-108l-25 219q-3 33 -4 59.5t-1 46.5q0 22 2 40h-4q-4 -18 -12 -40q-7 -19 -17.5 -46t-24.5 -60l-95 -219h-108l-48 462h93l20 -242q3 -35 4 -64t1 -49q0 -24 -1 -43h4 q4 19 12 44q6 21 16.5 49.5t25.5 63.5l108 241h88zM231 595q0 26 17.5 43t41.5 17q25 0 42.5 -17t17.5 -43t-17.5 -42.5t-42.5 -16.5q-24 0 -41.5 16.5t-17.5 42.5zM427 594q0 26 17.5 43t41.5 17q26 0 43 -17t17 -43q0 -25 -17 -42t-43 -17q-24 0 -41.5 17t-17.5 42z"></glyph><glyph glyph-name="Idotbelow" unicode="Ị" d="M235 589l-103 -589h-94l103 589h94zM-1 -139q0 26 17.5 43t42.5 17q26 0 44 -17t18 -43t-18 -43t-44 -17q-25 0 -42.5 17t-17.5 43z"></glyph><glyph glyph-name="idotbelow" unicode="ị" d="M142 111q-3 -17 1 -31t26 -14q6 0 13 1.5t16 3.5l-13 -67q-24 -9 -54 -9q-52 0 -71 28t-10 79l63 360h91zM120 609q0 26 17.5 43t42.5 17q26 0 44 -17t18 -43t-18 -43t-44 -17q-25 0 -42.5 17t-17.5 43zM6 -139q0 26 17.5 43t42.5 17q26 0 44 -17t18 -43t-18 -43t-44 -17 q-25 0 -42.5 17t-17.5 43z"></glyph><glyph glyph-name="Odotbelow" unicode="Ọ" d="M284 -12q-55 0 -98 17.5t-72 49t-44.5 76t-15.5 97.5q0 88 24 157.5t65.5 117.5t96 73t116.5 25q55 0 98.5 -17.5t72.5 -49.5t44.5 -76.5t15.5 -97.5q0 -89 -24.5 -158t-65.5 -116.5t-96.5 -72.5t-116.5 -25zM348 521q-48 0 -84.5 -23.5t-62 -63t-38.5 -91t-13 -108.5 q0 -78 36.5 -123.5t106.5 -45.5q46 0 83 23.5t62 63t38.5 91.5t13.5 109q0 35 -8 66t-25.5 53.5t-44.5 35.5t-64 13zM174 -139q0 26 17.5 43t42.5 17q26 0 44 -17t18 -43t-18 -43t-44 -17q-25 0 -42.5 17t-17.5 43z"></glyph><glyph glyph-name="odotbelow" unicode="ọ" d="M280 473q87 0 134.5 -53t47.5 -146q0 -57 -15.5 -109t-46.5 -91.5t-76 -62.5t-103 -23q-40 0 -73.5 13t-58 37.5t-38 61t-13.5 84.5q0 57 15.5 109.5t46 92.5t76 63.5t104.5 23.5zM269 399q-33 0 -59 -17t-44 -45.5t-27.5 -66.5t-9.5 -79q0 -66 27 -99.5t75 -33.5 q33 0 58.5 17.5t43 47t27 67.5t9.5 80q0 62 -26 95.5t-74 33.5zM105 -139q0 26 17.5 43t42.5 17q26 0 44 -17t18 -43t-18 -43t-44 -17q-25 0 -42.5 17t-17.5 43z"></glyph><glyph glyph-name="Udotbelow" unicode="Ụ" d="M585 589l-70 -399q-10 -59 -33 -97.5t-56 -62t-75 -33t-90 -9.5q-47 0 -87.5 12.5t-68.5 40t-39.5 72.5t0.5 110l63 366h95l-66 -372q-7 -40 -1.5 -68.5t20.5 -47t39.5 -27.5t56.5 -9q63 0 100 33t51 111l67 380h94zM163 -139q0 26 17.5 43t42.5 17q26 0 44 -17t18 -43 t-18 -43t-44 -17q-25 0 -42.5 17t-17.5 43z"></glyph><glyph glyph-name="udotbelow" unicode="ụ" d="M318 87q-21 -53 -57 -76t-89 -23q-74 0 -103.5 45.5t-15.5 128.5l52 300h91l-54 -311q-8 -46 7.5 -71t53.5 -25q21 0 41 8.5t37 24.5t29.5 40t18.5 56l48 278h91l-62 -351q-3 -17 1 -31t26 -14q6 0 13 1.5t16 3.5l-13 -67q-12 -5 -26 -7t-28 -2q-48 0 -65 23.5t-12 68.5z M113 -139q0 26 17.5 43t42.5 17q26 0 44 -17t18 -43t-18 -43t-44 -17q-25 0 -42.5 17t-17.5 43z"></glyph><glyph glyph-name="Ygrave" unicode="Ỳ" d="M241 402q8 -26 12.5 -46t6.5 -35q3 -18 4 -31h4q4 13 12 31q7 15 17.5 35t26.5 46l121 187h100l-242 -366l-39 -223h-94l38 223l-127 366h98zM289 653l-100 123h120l63 -123h-83z"></glyph><glyph glyph-name="ygrave" unicode="ỳ" d="M167 203q4 -34 5.5 -60t2.5 -45q1 -22 0 -39h4q4 18 12 40q7 19 18 45.5t28 58.5l132 259h96l-275 -515q-27 -51 -51.5 -82t-48.5 -48t-48 -22.5t-51 -5.5q-25 0 -43.5 5t-31.5 13l22 70q12 -8 26 -12.5t31 -4.5q37 0 64.5 26t58.5 87l-75 489h95zM218 529l-115 146h121 l74 -146h-80z"></glyph><glyph glyph-name="Ytilde" unicode="Ỹ" d="M241 402q8 -26 12.5 -46t6.5 -35q3 -18 4 -31h4q4 13 12 31q7 15 17.5 35t26.5 46l121 187h100l-242 -366l-39 -223h-94l38 223l-127 366h98zM388 653q-27 0 -41.5 8t-31.5 18q-19 12 -30 18.5t-26 6.5t-26 -11.5t-13 -37.5h-54q-5 25 0 47.5t18 39.5t32.5 26.5t43.5 9.5 q27 0 43 -8.5t33 -19.5q19 -12 28.5 -17.5t23.5 -5.5t24 11.5t12 39.5h58q8 -55 -17.5 -90t-76.5 -35z"></glyph><glyph glyph-name="ytilde" unicode="ỹ" d="M167 203q4 -34 5.5 -60t2.5 -45q1 -22 0 -39h4q4 18 12 40q7 19 18 45.5t28 58.5l132 259h96l-275 -515q-27 -51 -51.5 -82t-48.5 -48t-48 -22.5t-51 -5.5q-25 0 -43.5 5t-31.5 13l22 70q12 -8 26 -12.5t31 -4.5q37 0 64.5 26t58.5 87l-75 489h95zM322 529 q-27 0 -41.5 7.5t-31.5 17.5q-19 12 -30 18.5t-26 6.5t-26 -11.5t-13 -37.5h-54q-5 26 0 48.5t18 39.5t32.5 26.5t43.5 9.5q27 0 43 -9t33 -20q19 -12 28.5 -17.5t23.5 -5.5t24 11.5t12 39.5h58q8 -54 -17.5 -89t-76.5 -35z"></glyph><glyph glyph-name="enspace" unicode=" "></glyph><glyph glyph-name="emspace" unicode=" "></glyph><glyph glyph-name="threeperemspace" unicode=" "></glyph><glyph glyph-name="fourperemspace" unicode=" "></glyph><glyph glyph-name="sixperemspace" unicode=" "></glyph><glyph glyph-name="figurespace" unicode=" "></glyph><glyph glyph-name="punctuationspace" unicode=" "></glyph><glyph glyph-name="thinspace" unicode=" "></glyph><glyph glyph-name="hairspace" unicode=" "></glyph><glyph glyph-name="zerowidthspace" unicode="​"></glyph><glyph glyph-name="figuredash" unicode="‒" d="M79 284h423l-11 -64h-423z"></glyph><glyph glyph-name="endash" unicode="–" d="M79 284h364l-11 -64h-364z"></glyph><glyph glyph-name="emdash" unicode="—" d="M79 284h864l-11 -64h-864z"></glyph><glyph glyph-name="uni2015" unicode="―" d="M81 284h1099l-11 -64h-1099z"></glyph><glyph glyph-name="doublebar" unicode="‖" d="M3 -203l153 872h77l-153 -872h-77zM164 -203l153 872h77l-153 -872h-77z"></glyph><glyph glyph-name="quoteleft" unicode="‘" d="M99 531q0 37 14 64t38 45t55 27t65 11v-43q-19 -2 -37.5 -8t-33.5 -15t-24.5 -22t-9.5 -30q31 6 51.5 -9.5t20.5 -45.5q0 -29 -19 -45.5t-48 -16.5q-31 0 -51.5 23.5t-20.5 64.5z"></glyph><glyph glyph-name="quoteright" unicode="’" d="M247 590q0 -37 -14 -64t-37.5 -45t-55 -27t-65.5 -11v43q19 2 38 8t34 15t24.5 22t9.5 30q-32 -6 -52 10t-20 45q0 30 18.5 46t47.5 16q32 0 52 -23t20 -65z"></glyph><glyph glyph-name="quotesinglbase" unicode="‚" d="M157 27q0 -37 -14 -64t-37.5 -44.5t-55 -26.5t-65.5 -11v43q19 2 38 7.5t34 14.5t24.5 22t9.5 30q-32 -5 -52 10.5t-20 45.5q0 29 18.5 45t47.5 16q32 0 52 -23t20 -65z"></glyph><glyph glyph-name="reversequoteleft" unicode="‛" d="M84 591q0 41 20.5 64.5t51.5 23.5q29 0 48 -16t19 -46q0 -29 -20.5 -45t-51.5 -10q0 -17 9.5 -30t24.5 -22t33.5 -15t37.5 -8v-43q-34 2 -65 11t-55 27t-38 45t-14 64z"></glyph><glyph glyph-name="quotedblleft" unicode="“" d="M99 531q0 37 14 64t38 45t55 27t65 11v-43q-19 -2 -37.5 -8t-33.5 -15t-24.5 -22t-9.5 -30q31 6 51.5 -9.5t20.5 -45.5q0 -29 -19 -45.5t-48 -16.5q-31 0 -51.5 23.5t-20.5 64.5zM287 531q0 37 14 64t38 45t55 27t65 11v-43q-19 -2 -37.5 -8t-33.5 -15t-24.5 -22 t-9.5 -30q31 6 51.5 -9.5t20.5 -45.5q0 -29 -19 -45.5t-48 -16.5q-31 0 -51.5 23.5t-20.5 64.5z"></glyph><glyph glyph-name="quotedblright" unicode="”" d="M247 590q0 -37 -14 -64t-37.5 -45t-55 -27t-65.5 -11v43q19 2 38 8t34 15t24.5 22t9.5 30q-32 -6 -52 10t-20 45q0 30 18.5 46t47.5 16q32 0 52 -23t20 -65zM435 590q0 -37 -14 -64t-37.5 -45t-55 -27t-65.5 -11v43q19 2 38 8t34 15t24.5 22t9.5 30q-32 -6 -52 10t-20 45 q0 30 18.5 46t47.5 16q32 0 52 -23t20 -65z"></glyph><glyph glyph-name="quotedblbase" unicode="„" d="M157 31q0 -37 -14 -64t-37.5 -45t-55 -27t-65.5 -11v43q19 2 38 8t34 15t24.5 22t9.5 30q-32 -6 -52 10t-20 45q0 30 18.5 46t47.5 16q32 0 52 -23t20 -65zM345 31q0 -37 -14 -64t-37.5 -45t-55 -27t-65.5 -11v43q19 2 38 8t34 15t24.5 22t9.5 30q-32 -6 -52 10t-20 45 q0 30 18.5 46t47.5 16q32 0 52 -23t20 -65z"></glyph><glyph glyph-name="reversequotedblleft" unicode="‟" d="M84 592q0 41 20.5 64.5t51.5 23.5q29 0 48 -16.5t19 -45.5q0 -30 -20.5 -45.5t-51.5 -9.5q0 -17 9.5 -30t24.5 -22t33.5 -15t37.5 -8v-43q-34 2 -65 11t-55 27t-38 44.5t-14 64.5zM250 592q0 41 20 64.5t52 23.5q29 0 47.5 -16.5t18.5 -45.5q0 -30 -20 -45.5t-52 -9.5 q0 -17 9.5 -30t24.5 -22t34 -15t38 -8v-43q-35 2 -66 11t-54.5 27t-37.5 44.5t-14 64.5z"></glyph><glyph glyph-name="dagger" unicode="†" d="M96 277l16 89l186 -10l31 233h95l-51 -233l189 10l-16 -89l-185 11l-67 -437h-95l87 437z"></glyph><glyph glyph-name="daggerdbl" unicode="‡" d="M333 137l190 11l-15 -88l-185 11l-29 -221h-95l50 221l-191 -11l15 88l186 -11l30 169l-190 -11l16 87l186 -11l28 218h95l-49 -218l189 11l-15 -87l-185 11z"></glyph><glyph glyph-name="bullet" unicode="•" d="M71 243q0 18 7 33.5t18.5 27t27 18.5t32.5 7q18 0 34 -7t27.5 -18.5t18.5 -27t7 -33.5q0 -17 -7 -32.5t-18.5 -27t-27.5 -18.5t-34 -7q-35 0 -60 25t-25 60z"></glyph><glyph glyph-name="ellipsis" unicode="…" d="M46 62q0 29 19.5 48.5t48.5 19.5t48.5 -19.5t19.5 -48.5t-19.5 -48.5t-48.5 -19.5t-48.5 19.5t-19.5 48.5zM332 62q0 29 19.5 48.5t48.5 19.5t48.5 -19.5t19.5 -48.5t-19.5 -48.5t-48.5 -19.5t-48.5 19.5t-19.5 48.5zM618 62q0 29 19.5 48.5t48.5 19.5t48.5 -19.5 t19.5 -48.5t-19.5 -48.5t-48.5 -19.5t-48.5 19.5t-19.5 48.5z"></glyph><glyph glyph-name="perthousand" unicode="‰" d="M163 229q-62 0 -92 40t-30 106q0 39 10.5 78.5t31 71.5t51.5 52t73 20q59 0 90.5 -41t31.5 -109q0 -39 -10 -78t-31 -70t-52 -50.5t-73 -19.5zM200 534q-26 0 -42.5 -17.5t-26.5 -42.5t-14 -51.5t-4 -45.5q0 -39 14.5 -64.5t43.5 -25.5q25 0 42 18t27 43.5t14 52.5t4 46 q0 39 -14 63t-44 24zM604 590h65l-409 -590h-66zM654 -7q-62 0 -92 40t-30 106q0 39 10.5 78.5t31 71.5t51.5 52t73 20q59 0 90.5 -41t31.5 -109q0 -39 -10 -78t-31 -70t-52 -50.5t-73 -19.5zM691 298q-26 0 -42.5 -17.5t-26.5 -42.5t-14 -51.5t-4 -45.5q0 -39 14.5 -64.5 t43.5 -25.5q25 0 42 18t27 43.5t14 52.5t4 46q0 39 -14 63t-44 24zM1014 -7q-62 0 -92 40t-30 106q0 39 10.5 78.5t31 71.5t51.5 52t73 20q59 0 90.5 -41t31.5 -109q0 -39 -10 -78t-31 -70t-52 -50.5t-73 -19.5zM1051 298q-26 0 -42.5 -17.5t-26.5 -42.5t-14 -51.5t-4 -45.5 q0 -39 14.5 -64.5t43.5 -25.5q25 0 42 18t27 43.5t14 52.5t4 46q0 39 -14 63t-44 24z"></glyph><glyph glyph-name="tripleprime" unicode="‴" d="M121 668h98l-87 -256h-56zM269 668h98l-87 -256h-56zM417 668h98l-87 -256h-56z"></glyph><glyph glyph-name="guilsinglleft" unicode="‹" d="M109 230q3 -3 9 -8q5 -5 13 -14t20 -26l84 -116l-58 -45l-148 213l223 213l43 -47l-119 -117q-14 -14 -26 -23t-21 -15q-11 -7 -20 -11v-4z"></glyph><glyph glyph-name="guilsinglright" unicode="›" d="M214 238q-3 2 -9 7q-5 5 -13.5 14t-19.5 26l-83 117l58 45l148 -213l-223 -213l-43 47l119 116q14 14 26 23.5t21 15.5q11 7 19 11v4z"></glyph><glyph glyph-name="fraction" unicode="⁄" d="M242 590h65l-409 -590h-66z"></glyph><glyph glyph-name="uni2070" unicode="⁰" d="M159 229q-62 0 -92 40t-30 106q0 39 10.5 78.5t31 71.5t51.5 52t73 20q59 0 90.5 -41t31.5 -109q0 -39 -10 -78t-31 -70t-52 -50.5t-73 -19.5zM196 534q-26 0 -42.5 -17.5t-26.5 -42.5t-14 -51.5t-4 -45.5q0 -39 14.5 -64.5t43.5 -25.5q25 0 42 18t27 43.5t14 52.5t4 46 q0 39 -14 63t-44 24z"></glyph><glyph glyph-name="uni2074" unicode="⁴" d="M188 322h-179l10 54l213 213h75l-37 -213h57l-10 -54h-57l-15 -86h-72zM214 459q2 15 5.5 27.5t5.5 22.5q3 11 6 21h-4q-4 -7 -11 -17q-6 -8 -15 -19t-20 -23l-50 -50q-11 -11 -21 -19.5t-18 -14.5q-9 -7 -17 -12l-1 -4q5 1 13 2q7 1 17.5 1.5t26.5 0.5h69z"></glyph><glyph glyph-name="uni2075" unicode="⁵" d="M100 589h210l-10 -59h-153l-22 -94q9 11 26 18.5t39 7.5q45 0 70.5 -27t25.5 -75q0 -66 -40.5 -98.5t-102.5 -32.5q-59 0 -90 23.5t-36 65.5l66 21q3 -31 19.5 -44t42.5 -13q33 0 52 18.5t19 55.5q0 29 -14.5 43.5t-34.5 14.5t-31 -6.5t-20 -16.5h-59z"></glyph><glyph glyph-name="uni2076" unicode="⁶" d="M271 499q-9 40 -54 40q-42 0 -73.5 -38.5t-43.5 -111.5h4q11 32 37 52.5t67 20.5q25 0 43 -8t30 -21.5t18 -31t6 -35.5q0 -62 -40.5 -99.5t-106.5 -37.5q-58 0 -89.5 33.5t-31.5 97.5q0 55 15.5 98.5t42 74.5t60.5 47.5t71 16.5q86 0 104 -68zM111 333q0 -23 13.5 -37.5 t40.5 -14.5q14 0 27.5 4.5t24.5 14.5t17.5 25t6.5 35q0 22 -13.5 36t-40.5 14q-30 0 -53 -20.5t-23 -56.5z"></glyph><glyph glyph-name="uni2077" unicode="⁷" d="M93 528l-10 -53h-62l20 114h277l-7 -40l-197 -313h-80l188 292h-129z"></glyph><glyph glyph-name="uni2078" unicode="⁸" d="M149 229q-63 0 -94 24.5t-31 65.5q0 40 26.5 66t64.5 33v4q-26 10 -40 28t-14 42q0 26 12 45.5t31.5 33t45 20t52.5 6.5q57 0 86.5 -23.5t29.5 -61.5q0 -41 -23.5 -63.5t-58.5 -30.5v-3q31 -10 46.5 -28.5t15.5 -50.5q0 -25 -12 -45t-32 -33.5t-47 -21t-58 -7.5zM195 546 q-27 0 -46 -15t-19 -44q0 -20 13.5 -32t36.5 -12q25 0 46 13.5t21 45.5q0 18 -13 31t-39 13zM171 392q-27 0 -50 -16t-23 -48q0 -23 13.5 -36.5t42.5 -13.5t51.5 16t22.5 48q0 23 -14 36.5t-43 13.5z"></glyph><glyph glyph-name="uni2079" unicode="⁹" d="M69 325q5 -21 22.5 -30.5t40.5 -9.5q42 0 73.5 35t40.5 116h-4q-23 -72 -97 -72q-27 0 -46.5 8t-32 21.5t-19 31.5t-6.5 37q0 60 40 97.5t106 37.5q57 0 90.5 -35.5t33.5 -102.5q0 -53 -13.5 -95.5t-37.5 -72.5t-58 -46t-76 -16q-45 0 -76.5 17t-39.5 51zM236 494 q0 23 -14.5 37t-40.5 14q-28 0 -51.5 -19t-23.5 -60q0 -21 13.5 -35.5t40.5 -14.5q29 0 52.5 20.5t23.5 57.5z"></glyph><glyph glyph-name="uni207A" unicode="⁺" d="M201 442l26 148h46l-27 -148h157l-8 -46h-157l-28 -160h-46l29 160h-153l8 46h153z"></glyph><glyph glyph-name="uni207B" unicode="⁻" d="M40 396l8 46h356l-9 -46h-355z"></glyph><glyph glyph-name="uni207C" unicode="⁼" d="M40 340l8 46h355l-8 -46h-355zM62 461l8 46h355l-8 -46h-355z"></glyph><glyph glyph-name="uni207D" unicode="⁽" d="M230 636q-62 -60 -99.5 -129t-37.5 -157q0 -50 15 -89t41 -79h-56q-21 32 -37 72.5t-16 95.5q0 80 32.5 152.5t98.5 133.5h59z"></glyph><glyph glyph-name="uni207E" unicode="⁾" d="M0 182q62 60 99.5 129t37.5 157q0 50 -15 89t-41 79h55q22 -32 38 -72.5t16 -95.5q0 -80 -33 -152.5t-99 -133.5h-58z"></glyph><glyph glyph-name="n.superior" unicode="ⁿ" d="M321 363q-2 -10 0 -17.5t15 -7.5q5 0 10 1t17 3l-10 -52q-21 -6 -44 -6q-41 0 -56 20t-7 55l26 132q4 23 -5 37.5t-36 14.5q-31 0 -57 -20t-36 -72l-32 -164h-76l61 306h65l-3 -57q17 34 44 49.5t62 15.5q42 0 66 -19.5t24 -57.5v-12.5t-2 -16.5z"></glyph><glyph glyph-name="uni2080" unicode="₀" d="M159 -7q-62 0 -92 40t-30 106q0 39 10.5 78.5t31 71.5t51.5 52t73 20q59 0 90.5 -41t31.5 -109q0 -39 -10 -78t-31 -70t-52 -50.5t-73 -19.5zM196 298q-26 0 -42.5 -17.5t-26.5 -42.5t-14 -51.5t-4 -45.5q0 -39 14.5 -64.5t43.5 -25.5q25 0 42 18t27 43.5t14 52.5t4 46 q0 39 -14 63t-44 24z"></glyph><glyph glyph-name="uni2081" unicode="₁" d="M1 0l10 56h98l40 228l-107 -10l10 57l182 23l-52 -298h88l-10 -56h-259z"></glyph><glyph glyph-name="uni2082" unicode="₂" d="M264 0h-265l10 52q47 27 86 51.5t66.5 48.5t43 47t15.5 46q0 56 -55 56q-30 0 -48 -19t-23 -51l-56 26q8 45 43 74.5t94 29.5q54 0 86 -26.5t32 -78.5q0 -39 -20.5 -70t-50.5 -55t-64.5 -41t-62.5 -29v-4h180z"></glyph><glyph glyph-name="uni2083" unicode="₃" d="M186 181q42 -5 61.5 -27.5t19.5 -55.5q0 -27 -11.5 -47t-31 -32.5t-45 -19t-53.5 -6.5q-62 0 -90.5 28t-31.5 66l63 17q6 -59 59 -59q28 0 48 13t20 41q0 12 -4 22.5t-14.5 18t-29 12t-47.5 4.5l9 47q54 2 79.5 17t25.5 44q0 19 -12.5 29.5t-35.5 10.5q-25 0 -39 -12.5 t-22 -38.5l-56 23q11 35 40 60t85 25q23 0 43.5 -5t36 -15.5t24.5 -27t9 -39.5q0 -38 -26 -61.5t-74 -28.5v-3z"></glyph><glyph glyph-name="uni2084" unicode="₄" d="M188 86h-179l10 54l213 213h75l-37 -213h57l-10 -54h-57l-15 -86h-72zM214 223q2 15 5.5 27.5t5.5 22.5q3 11 6 21h-4q-4 -7 -11 -17q-6 -8 -15 -19t-20 -23l-50 -50q-11 -11 -21 -19.5t-18 -14.5q-9 -7 -17 -12l-1 -4q5 1 13 2q7 1 17.5 1.5t26.5 0.5h69z"></glyph><glyph glyph-name="uni2085" unicode="₅" d="M100 353h210l-10 -59h-153l-22 -94q9 11 26 18.5t39 7.5q45 0 70.5 -27t25.5 -75q0 -66 -40.5 -98.5t-102.5 -32.5q-59 0 -90 23.5t-36 65.5l66 21q3 -31 19.5 -44t42.5 -13q33 0 52 18.5t19 55.5q0 29 -14.5 43.5t-34.5 14.5t-31 -6.5t-20 -16.5h-59z"></glyph><glyph glyph-name="uni2086" unicode="₆" d="M271 263q-9 40 -54 40q-42 0 -73.5 -38.5t-43.5 -111.5h4q11 32 37 52.5t67 20.5q25 0 43 -8t30 -21.5t18 -31t6 -35.5q0 -62 -40.5 -99.5t-106.5 -37.5q-58 0 -89.5 33.5t-31.5 97.5q0 55 15.5 98.5t42 74.5t60.5 47.5t71 16.5q86 0 104 -68zM111 97q0 -23 13.5 -37.5 t40.5 -14.5q14 0 27.5 4.5t24.5 14.5t17.5 25t6.5 35q0 22 -13.5 36t-40.5 14q-30 0 -53 -20.5t-23 -56.5z"></glyph><glyph glyph-name="uni2087" unicode="₇" d="M93 292l-10 -53h-62l20 114h277l-7 -40l-197 -313h-80l188 292h-129z"></glyph><glyph glyph-name="uni2088" unicode="₈" d="M149 -7q-63 0 -94 24.5t-31 65.5q0 40 26.5 66t64.5 33v4q-26 10 -40 28t-14 42q0 26 12 45.5t31.5 33t45 20t52.5 6.5q57 0 86.5 -23.5t29.5 -61.5q0 -41 -23.5 -63.5t-58.5 -30.5v-3q31 -10 46.5 -28.5t15.5 -50.5q0 -25 -12 -45t-32 -33.5t-47 -21t-58 -7.5zM195 310 q-27 0 -46 -15t-19 -44q0 -20 13.5 -32t36.5 -12q25 0 46 13.5t21 45.5q0 18 -13 31t-39 13zM171 156q-27 0 -50 -16t-23 -48q0 -23 13.5 -36.5t42.5 -13.5t51.5 16t22.5 48q0 23 -14 36.5t-43 13.5z"></glyph><glyph glyph-name="uni2089" unicode="₉" d="M69 89q5 -21 22.5 -30.5t40.5 -9.5q42 0 73.5 35t40.5 116h-4q-23 -72 -97 -72q-27 0 -46.5 8t-32 21.5t-19 31.5t-6.5 37q0 60 40 97.5t106 37.5q57 0 90.5 -35.5t33.5 -102.5q0 -53 -13.5 -95.5t-37.5 -72.5t-58 -46t-76 -16q-45 0 -76.5 17t-39.5 51zM236 258 q0 23 -14.5 37t-40.5 14q-28 0 -51.5 -19t-23.5 -60q0 -21 13.5 -35.5t40.5 -14.5q29 0 52.5 20.5t23.5 57.5z"></glyph><glyph glyph-name="uni208A" unicode="₊" d="M201 206l26 148h46l-27 -148h157l-8 -46h-157l-28 -160h-46l29 160h-153l8 46h153z"></glyph><glyph glyph-name="uni208B" unicode="₋" d="M40 160l8 46h356l-9 -46h-355z"></glyph><glyph glyph-name="uni208C" unicode="₌" d="M40 104l8 46h355l-8 -46h-355zM62 225l8 46h355l-8 -46h-355z"></glyph><glyph glyph-name="uni208D" unicode="₍" d="M230 400q-62 -60 -99.5 -129t-37.5 -157q0 -50 15 -89t41 -79h-56q-21 32 -37 72.5t-16 95.5q0 80 32.5 152.5t98.5 133.5h59z"></glyph><glyph glyph-name="uni208E" unicode="₎" d="M0 -54q62 60 99.5 129t37.5 157q0 50 -15 89t-41 79h55q22 -32 38 -72.5t16 -95.5q0 -80 -33 -152.5t-99 -133.5h-58z"></glyph><glyph glyph-name="uni20A1" unicode="₡" d="M231 -12q-23 1 -46 8l-27 -79l-47 17l27 81q-42 24 -66 69t-24 108t16.5 116t49 93t79.5 64t109 28l29 84l47 -16l-25 -71q13 -2 24 -5t22 -7l25 73l47 -16l-30 -86q17 -14 27.5 -34t16.5 -43l-83 -36l-90 -266q23 8 42 25t36 47l65 -47q-31 -50 -72 -74.5t-99 -29.5 l-33 -99l-48 16zM211 70q19 -9 45 -9l114 332q-17 17 -42 23zM138 201q0 -61 30 -100l108 316q-30 -5 -55.5 -24t-44 -47.5t-28.5 -65.5t-10 -79z"></glyph><glyph glyph-name="uni20A2" unicode="₢" d="M419 200q-18 4 -38.5 1.5t-38 -12t-30.5 -26.5t-17 -42l-11 -62q32 5 58 25t48 59l64 -45q-36 -58 -85 -84t-124 -26q-44 0 -80 13.5t-62 40t-40.5 64.5t-14.5 86q0 63 17.5 118t51 95.5t82.5 64t113 23.5q77 0 117.5 -32.5t54.5 -87.5l-82 -38q-14 86 -100 86 q-36 0 -66 -17t-51.5 -47t-33.5 -70t-12 -86q0 -51 19 -85.5t54 -48.5l35 202h66l-6 -79q9 21 22.5 38t30 29t36 17.5t40.5 1.5z"></glyph><glyph glyph-name="franc" unicode="₣" d="M187 150l-25 -150h-93l26 150h-75l9 50h75l9 50h-75l9 50h74l32 181h325l-13 -76h-232l-19 -105h154l-9 -50h-154l-9 -50h154l-9 -50h-154z"></glyph><glyph glyph-name="lira" unicode="₤" d="M220 154q-8 -29 -25.5 -50t-40.5 -28h169q23 0 45.5 8.5t36.5 40.5l60 -36q-17 -44 -54 -66.5t-89 -22.5h-311l13 78h47q25 0 47.5 22.5t25.5 53.5h-104l9 51h91q-2 11 -4.5 22t-5.5 23h-72l9 51h56q-1 7 -1 14v17q0 44 16.5 75t42 50t57.5 27.5t64 8.5q72 0 114 -32 t42 -102l-85 -14q-1 35 -18.5 55.5t-61.5 20.5q-38 0 -62 -21.5t-24 -69.5v-15t1 -14h178l-9 -51h-159q2 -12 4 -23t2 -22h144l-9 -51h-139z"></glyph><glyph glyph-name="uni20A6" unicode="₦" d="M547 254l-8 -44h92l-9 -50h-92l-27 -160h-93l-124 243q-12 23 -22 45t-17 40q-8 21 -14 41h-4l-5 -50q-2 -23 -5.5 -50.5t-8.5 -56.5l-37 -212h-92l28 160h-85l9 50h85l8 44h-85l9 50h84l31 177h100l123 -249q11 -23 19.5 -43t13.5 -35q6 -18 10 -32h4q3 22 7 47 q3 21 7.5 48t9.5 55l36 209h92l-32 -177h93l-9 -50h-92z"></glyph><glyph glyph-name="peseta" unicode="₧" d="M755 142q1 -46 30 -69t68 -23q40 0 67 16.5t27 57.5q0 15 -3.5 27t-13 22t-26.5 19t-45 19q-53 17 -80 41.5t-34 62.5h-109l-55 -315h-93l55 315h-92q-4 -49 -23 -82t-49 -53.5t-69 -29.5t-83 -9h-80l-25 -141h-92l84 481h163q69 0 112.5 -22t57.5 -68h302q8 27 25 46.5 t39.5 31.5t49.5 18t54 6q85 0 125 -33.5t40 -96.5l-81 -16q1 36 -20 58t-67 22q-40 0 -64 -18.5t-24 -50.5q0 -15 4 -26t14.5 -20t28.5 -17.5t47 -18.5q34 -13 56.5 -27t35 -31.5t17.5 -37.5t5 -45q0 -38 -13.5 -66t-38.5 -46t-59 -26.5t-75 -8.5q-81 0 -124.5 35.5 t-44.5 98.5zM160 215h73q60 0 93.5 26.5t33.5 91.5q0 74 -88 74h-78z"></glyph><glyph glyph-name="uni20A8" unicode="₨" d="M166 253h90q51 0 79 20.5t28 72.5q0 61 -72 61h-98zM568 -12q-69 0 -114 22.5t-82 61.5l-43 47q-11 12 -21.5 23.5t-22.5 20.5t-28.5 14t-39.5 5h-63l-32 -182h-92l84 481h191q78 0 115 -32.5t37 -92.5q0 -36 -12 -62t-32 -43t-45.5 -25.5t-53.5 -9.5v-4q19 -1 33 -6.5 t25 -14t21.5 -20t23.5 -25.5l45 -47q25 -26 52 -40.5t59 -14.5q30 0 50.5 10t20.5 35q0 23 -12 36.5t-46 26.5q-51 20 -71.5 45.5t-20.5 66.5q0 30 12 51.5t31.5 35.5t44.5 21t51 7q126 0 126 -96l-76 -14q0 50 -56 50q-28 0 -43 -13t-15 -34q0 -10 3 -17.5t10.5 -14.5 t21 -14.5t35.5 -16.5q45 -19 64.5 -43t19.5 -65q0 -31 -12 -52.5t-33 -35t-49 -19.5t-61 -6z"></glyph><glyph glyph-name="uni20A9" unicode="₩" d="M695 271l-18 -43h117l-8 -51h-131l-75 -177h-111l-27 261q-3 29 -4 53t0 43q0 21 2 40h-3q-4 -18 -10 -40q-5 -19 -13.5 -43.5t-21.5 -52.5l-116 -261h-113l-10 177h-126l8 51h115l-2 43h-105l9 51h93l-9 159h90l12 -284q1 -27 0.5 -51.5t-1.5 -43.5q-1 -22 -3 -41h3 q4 17 11 38q6 18 14.5 42t21.5 52l125 288h94l26 -288q2 -29 3 -52.5t1 -41.5q0 -21 -2 -38h3q3 18 8 39q5 18 12.5 42t19.5 52l120 287h91l-68 -159h94l-9 -51h-107z"></glyph><glyph glyph-name="uni20AA" unicode="₪" d="M359 124l37 215q3 14 2 27t-7.5 22.5t-19.5 15t-35 5.5h-142l-72 -409h-92l84 481h251q44 0 70 -11t38.5 -31t13.5 -48t-5 -62l-36 -205h-87zM667 481l-58 -329q-6 -34 -16.5 -62t-30 -48t-49 -31t-74.5 -11h-252l62 356h87l-50 -284h146q42 0 60.5 20t23.5 49l59 340h92 z"></glyph><glyph glyph-name="Euro" unicode="€" d="M197 273q-3 -14 -5 -29t-2 -31h156l-19 -51h-133q8 -48 37.5 -74.5t77.5 -26.5q39 0 69.5 20t56.5 65l69 -47q-36 -57 -85 -84t-123 -27q-81 0 -133.5 45.5t-61.5 128.5h-81l9 51h71q1 15 2.5 30t4.5 30h-68l10 50h73q27 76 88 123t153 47q78 0 118.5 -32.5t54.5 -88.5 l-86 -39q-7 42 -32.5 63.5t-66.5 21.5q-45 0 -80 -25.5t-55 -69.5h166l-19 -50h-166z"></glyph><glyph glyph-name="uni20AE" unicode="₮" d="M272 255l-9 -50l111 19l-9 -51l-111 -18l-27 -155h-92l24 139l-109 -18l9 51l109 18l8 49l-108 -18l9 51l108 18l21 115h-162l13 76h419l-13 -76h-165l-17 -100l111 19l-9 -51z"></glyph><glyph glyph-name="uni20B1" unicode="₱" d="M63 0l49 284h-74l9 51h74l26 146h163q90 0 133 -35.5t43 -110.5h85l-9 -51h-83q-8 -40 -28.5 -67t-49.5 -44t-65 -24.5t-76 -7.5h-80l-25 -141h-92zM266 213q47 0 78 16.5t42 54.5h-181l-12 -71h73zM214 335h179q-1 74 -88 74h-78z"></glyph><glyph glyph-name="afii61289" unicode="ℓ" d="M9 177l66 46v240q0 110 35.5 158t102.5 48q56 0 80.5 -33t24.5 -94q0 -59 -14 -110.5t-37 -95t-51.5 -78.5t-57.5 -60v-58q0 -45 16 -61t51 -16q17 0 31.5 3.5t26.5 8.5l-1 -75q-14 -5 -34 -8.5t-42 -3.5q-29 0 -53.5 6.5t-41.5 21.5t-26.5 39.5t-9.5 59.5v40l-36 -27z M158 273q20 19 38.5 47t33 63.5t23 76.5t8.5 88q0 33 -10.5 48t-33.5 15q-27 0 -43 -31.5t-16 -98.5v-208z"></glyph><glyph glyph-name="afii61352" unicode="№" d="M692 70h324l-13 -70h-324zM905 475q62 0 96.5 -35.5t34.5 -97.5q0 -38 -11.5 -72.5t-33.5 -60.5t-54 -41t-73 -15q-59 0 -96.5 33.5t-37.5 97.5q0 38 11.5 72.5t33.5 61t54.5 42t75.5 15.5zM896 412q-21 0 -37.5 -10t-28 -26.5t-17.5 -39t-6 -46.5q0 -38 17 -57t46 -19 q21 0 37 10t27 27t17 39.5t6 46.5q0 36 -16 55.5t-45 19.5zM572 0h-92l-157 328q-24 50 -36 86q-8 20 -13 39h-4q-1 -19 -3 -42q-2 -20 -5.5 -45t-8.5 -54l-36 -210q-6 -35 -17.5 -57t-28 -34.5t-38 -17.5t-46.5 -5q-26 0 -48 6.5t-37 18.5l21 76q27 -23 54 -23q20 0 31 9 t16 36l83 478h95l153 -331q11 -25 19.5 -47t14.5 -39q7 -20 12 -38h4q2 20 5 43q2 20 6 45.5t9 53.5l37 211q6 34 18 56.5t28.5 35t37.5 17.5t45 5q53 0 86 -25l-23 -82q-27 24 -53 24q-20 0 -31 -9.5t-16 -36.5z"></glyph><glyph glyph-name="published" unicode="℗" d="M311 279h53q45 0 70.5 20t25.5 70q0 56 -67 56h-57zM206 112l66 373h127q66 0 101.5 -26t35.5 -83q0 -44 -14 -74t-38 -48t-56 -26t-69 -8h-58l-19 -108h-76zM55 294q0 67 24 123t65.5 97t97.5 64t119 23t119 -23t98 -64t66 -97t24 -123t-24 -123t-66 -96.5t-98 -63.5 t-119 -23t-119 23t-97.5 63.5t-65.5 96.5t-24 123zM86 294q0 -61 21.5 -112t59 -87.5t88 -57t107.5 -20.5t107 20.5t87.5 57t59.5 87.5t22 112t-22 112t-59.5 88t-87.5 57.5t-107 20.5t-107.5 -20.5t-88 -57.5t-59 -88t-21.5 -112z"></glyph><glyph glyph-name="servicemark" unicode="℠" d="M101 418q1 -21 14.5 -31t34.5 -10q46 0 46 31q0 14 -10 22.5t-38 18.5q-37 11 -52.5 27t-15.5 45q0 21 9 36t24 24t33 13t36 4q92 0 92 -72l-56 -7q0 19 -11 28.5t-31 9.5q-16 0 -27.5 -7.5t-11.5 -23.5q0 -12 10.5 -19.5t40.5 -17.5q34 -11 51 -28t17 -44q0 -42 -32 -60 t-78 -18q-96 0 -97 69zM512 341l32 163h-5l-71 -113h-46l-29 113h-5l-31 -163h-56l47 248h70l36 -134h4l86 134h72l-48 -248h-56z"></glyph><glyph glyph-name="trademark" unicode="™" d="M104 341l39 200h-73l9 48h202l-9 -48h-73l-39 -200h-56zM500 341l31 163h-5l-70 -113h-47l-28 113h-5l-32 -163h-56l48 248h69l37 -134h3l87 134h71l-47 -248h-56z"></glyph><glyph glyph-name="ohm" unicode="Ω" d="M365 521q-52 0 -91.5 -24t-66 -63t-40 -87.5t-13.5 -97.5q0 -63 23 -104.5t56 -60.5l-15 -84h-209l14 84h114q-15 9 -29 26t-25 40t-18 51t-7 60q0 64 23 125.5t65 109t101 76.5t131 29q48 0 88.5 -15t70 -43t46.5 -68t17 -91q0 -42 -10 -86t-29.5 -83.5t-48.5 -73.5 t-68 -57h108l-14 -84h-210l15 84q38 19 67 50t49 69.5t30.5 81.5t10.5 87q0 69 -33 109t-102 40z"></glyph><glyph glyph-name="estimated" unicode="℮" d="M323 601q73 0 126 -26t87 -69t50 -98.5t16 -113.5v-26h-431v-169q28 -27 66 -42.5t86 -15.5q67 0 112.5 26.5t71.5 77.5h66q-29 -69 -90 -113t-160 -44q-73 0 -125.5 26t-86.5 69t-50 98t-16 113t16 113.5t50 98.5t86.5 69t125.5 26zM323 548q-48 0 -86 -15t-66 -43v-170 h304v170q-28 28 -65.5 43t-86.5 15z"></glyph><glyph glyph-name="uni2153" unicode="⅓" d="M34 236l10 56h90l40 228l-107 -10l10 57l182 23l-52 -298h88l-10 -56h-251zM602 590h65l-409 -590h-66zM685 181q42 -5 61.5 -27.5t19.5 -55.5q0 -27 -11.5 -47t-31 -32.5t-45 -19t-53.5 -6.5q-62 0 -90.5 28t-31.5 66l63 17q6 -59 59 -59q28 0 48 13t20 41q0 12 -4 22.5 t-14.5 18t-29 12t-47.5 4.5l9 47q54 2 79.5 17t25.5 44q0 19 -12.5 29.5t-35.5 10.5q-25 0 -39 -12.5t-22 -38.5l-56 23q11 35 40 60t85 25q23 0 43.5 -5t36 -15.5t24.5 -27t9 -39.5q0 -38 -26 -61.5t-74 -28.5v-3z"></glyph><glyph glyph-name="uni2154" unicode="⅔" d="M602 590h65l-409 -590h-66zM276 236h-265l10 52q47 27 86 51.5t66.5 48.5t43 47t15.5 46q0 56 -55 56q-30 0 -48 -19t-23 -51l-56 26q8 45 43 74.5t94 29.5q54 0 86 -26.5t32 -78.5q0 -39 -20.5 -70t-50.5 -55t-64.5 -41t-62.5 -29v-4h180zM685 181q42 -5 61.5 -27.5 t19.5 -55.5q0 -27 -11.5 -47t-31 -32.5t-45 -19t-53.5 -6.5q-62 0 -90.5 28t-31.5 66l63 17q6 -59 59 -59q28 0 48 13t20 41q0 12 -4 22.5t-14.5 18t-29 12t-47.5 4.5l9 47q54 2 79.5 17t25.5 44q0 19 -12.5 29.5t-35.5 10.5q-25 0 -39 -12.5t-22 -38.5l-56 23q11 35 40 60 t85 25q23 0 43.5 -5t36 -15.5t24.5 -27t9 -39.5q0 -38 -26 -61.5t-74 -28.5v-3z"></glyph><glyph glyph-name="uni215B" unicode="⅛" d="M602 590h65l-409 -590h-66zM34 236l10 56h90l40 228l-107 -10l10 57l182 23l-52 -298h88l-10 -56h-251zM648 -7q-63 0 -94 24.5t-31 65.5q0 40 26.5 66t64.5 33v4q-26 10 -40 28t-14 42q0 26 12 45.5t31.5 33t45 20t52.5 6.5q57 0 86.5 -23.5t29.5 -61.5 q0 -41 -23.5 -63.5t-58.5 -30.5v-3q31 -10 46.5 -28.5t15.5 -50.5q0 -25 -12 -45t-32 -33.5t-47 -21t-58 -7.5zM694 310q-27 0 -46 -15t-19 -44q0 -20 13.5 -32t36.5 -12q25 0 46 13.5t21 45.5q0 18 -13 31t-39 13zM670 156q-27 0 -50 -16t-23 -48q0 -23 13.5 -36.5 t42.5 -13.5t51.5 16t22.5 48q0 23 -14 36.5t-43 13.5z"></glyph><glyph glyph-name="uni215C" unicode="⅜" d="M602 590h65l-409 -590h-66zM648 -7q-63 0 -94 24.5t-31 65.5q0 40 26.5 66t64.5 33v4q-26 10 -40 28t-14 42q0 26 12 45.5t31.5 33t45 20t52.5 6.5q57 0 86.5 -23.5t29.5 -61.5q0 -41 -23.5 -63.5t-58.5 -30.5v-3q31 -10 46.5 -28.5t15.5 -50.5q0 -25 -12 -45t-32 -33.5 t-47 -21t-58 -7.5zM694 310q-27 0 -46 -15t-19 -44q0 -20 13.5 -32t36.5 -12q25 0 46 13.5t21 45.5q0 18 -13 31t-39 13zM670 156q-27 0 -50 -16t-23 -48q0 -23 13.5 -36.5t42.5 -13.5t51.5 16t22.5 48q0 23 -14 36.5t-43 13.5zM211 417q42 -5 61.5 -27.5t19.5 -55.5 q0 -27 -11.5 -47t-31 -32.5t-45 -19t-53.5 -6.5q-62 0 -90.5 28t-31.5 66l63 17q6 -59 59 -59q28 0 48 13t20 41q0 12 -4 22.5t-14.5 18t-29 12t-47.5 4.5l9 47q54 2 79.5 17t25.5 44q0 19 -12.5 29.5t-35.5 10.5q-25 0 -39 -12.5t-22 -38.5l-56 23q11 35 40 60t85 25 q23 0 43.5 -5t36 -15.5t24.5 -27t9 -39.5q0 -38 -26 -61.5t-74 -28.5v-3z"></glyph><glyph glyph-name="uni215D" unicode="⅝" d="M602 590h65l-409 -590h-66zM648 -7q-63 0 -94 24.5t-31 65.5q0 40 26.5 66t64.5 33v4q-26 10 -40 28t-14 42q0 26 12 45.5t31.5 33t45 20t52.5 6.5q57 0 86.5 -23.5t29.5 -61.5q0 -41 -23.5 -63.5t-58.5 -30.5v-3q31 -10 46.5 -28.5t15.5 -50.5q0 -25 -12 -45t-32 -33.5 t-47 -21t-58 -7.5zM694 310q-27 0 -46 -15t-19 -44q0 -20 13.5 -32t36.5 -12q25 0 46 13.5t21 45.5q0 18 -13 31t-39 13zM670 156q-27 0 -50 -16t-23 -48q0 -23 13.5 -36.5t42.5 -13.5t51.5 16t22.5 48q0 23 -14 36.5t-43 13.5zM108 589h210l-10 -59h-153l-22 -94 q9 11 26 18.5t39 7.5q45 0 70.5 -27t25.5 -75q0 -66 -40.5 -98.5t-102.5 -32.5q-59 0 -90 23.5t-36 65.5l66 21q3 -31 19.5 -44t42.5 -13q33 0 52 18.5t19 55.5q0 29 -14.5 43.5t-34.5 14.5t-31 -6.5t-20 -16.5h-59z"></glyph><glyph glyph-name="uni215E" unicode="⅞" d="M536 590h65l-409 -590h-66zM582 -7q-63 0 -94 24.5t-31 65.5q0 40 26.5 66t64.5 33v4q-26 10 -40 28t-14 42q0 26 12 45.5t31.5 33t45 20t52.5 6.5q57 0 86.5 -23.5t29.5 -61.5q0 -41 -23.5 -63.5t-58.5 -30.5v-3q31 -10 46.5 -28.5t15.5 -50.5q0 -25 -12 -45t-32 -33.5 t-47 -21t-58 -7.5zM628 310q-27 0 -46 -15t-19 -44q0 -20 13.5 -32t36.5 -12q25 0 46 13.5t21 45.5q0 18 -13 31t-39 13zM604 156q-27 0 -50 -16t-23 -48q0 -23 13.5 -36.5t42.5 -13.5t51.5 16t22.5 48q0 23 -14 36.5t-43 13.5zM114 528l-10 -53h-62l20 114h277l-7 -40 l-197 -313h-80l188 292h-129z"></glyph><glyph glyph-name="arrowleft" unicode="←" d="M627 336v-82h-459l205 -209l-60 -57l-293 305l292 308l62 -56l-204 -209h457z"></glyph><glyph glyph-name="arrowup" unicode="↑" d="M384 0h-82v453l-209 -206l-57 61l305 293l308 -292l-57 -62l-208 204v-451z"></glyph><glyph glyph-name="arrowright" unicode="→" d="M477 336l-201 209l62 56l289 -308l-288 -305l-61 57l202 209h-460v82h457z"></glyph><glyph glyph-name="arrowdown" unicode="↓" d="M301 589h82v-453l209 206l57 -60l-305 -294l-308 293l57 62l208 -204v450z"></glyph><glyph glyph-name="uni2196" unicode="↖" d="M158 452v-353h-79v490h470v-77h-334l450 -453l-58 -59z"></glyph><glyph glyph-name="uni2197" unicode="↗" d="M76 0l-58 59l450 453h-333v77h469v-490h-79v353z"></glyph><glyph glyph-name="uni2198" unicode="↘" d="M525 138v352h79v-490h-469v77h333l-450 453l58 59z"></glyph><glyph glyph-name="uni2199" unicode="↙" d="M607 589l58 -59l-450 -453h334v-77h-470v490h79v-352z"></glyph><glyph glyph-name="partialdiff" unicode="∂" d="M179 673q63 -15 115 -45t89 -78t57.5 -114.5t20.5 -155.5q0 -62 -15.5 -115.5t-46 -92.5t-75.5 -61.5t-103 -22.5q-40 0 -73.5 12.5t-58 36.5t-38 60t-13.5 83q0 56 15.5 107t44.5 90t71 62t96 23q31 0 54 -10.5t38 -27.5h4q-26 74 -88 127t-166 75zM268 389 q-32 0 -58 -16.5t-44 -44.5t-27.5 -64.5t-9.5 -76.5q0 -64 27 -97t74 -33q33 0 58.5 17t43 45.5t27 66t9.5 78.5q0 64 -26 94.5t-74 30.5z"></glyph><glyph glyph-name="Delta" unicode="∆" d="M368 369q-6 35 -10 63.5t-6 49.5q-3 25 -4 44h-4q-7 -20 -18 -44q-9 -21 -22 -49t-31 -63l-153 -292h299zM-20 0l318 589h121l110 -589h-549z"></glyph><glyph glyph-name="product" unicode="∏" d="M-11 -202l139 791h465l-139 -791h-92l125 706h-282l-125 -706h-91z"></glyph><glyph glyph-name="summation" unicode="∑" d="M277 509h-31t-21 1q-10 0 -17 1v-4q7 -7 15 -17q7 -8 15.5 -20.5t18.5 -29.5l81 -145l-135 -146q-18 -20 -32.5 -33t-25.5 -21q-12 -10 -21 -15v-4q11 1 26 2q13 1 30.5 1.5t40.5 0.5h157l-14 -80h-402l272 302l-169 287h402l-14 -80h-176z"></glyph><glyph glyph-name="minus" unicode="−" d="M40 221l9 54h408l-9 -54h-408z"></glyph><glyph glyph-name="radical" unicode="√" d="M528 684l81 -9l-304 -675h-92l-81 346l-101 -49l-22 69l191 97l48 -253q6 -32 9.5 -57.5t5.5 -42.5q3 -21 4 -36h4q4 14 10 34q5 17 14.5 42.5t24.5 59.5z"></glyph><glyph glyph-name="infinity" unicode="∞" d="M242 359q-26 0 -47 -11.5t-36 -30t-23 -43t-8 -49.5q0 -45 24 -66.5t59 -21.5q33 0 60.5 11t56.5 39l62 60l-38 49q-27 37 -52 50t-58 13zM372 145q-39 -37 -79 -57t-93 -20q-66 0 -108.5 38.5t-42.5 109.5q0 40 14 78.5t40.5 68t63.5 47.5t83 18q53 0 88.5 -21t69.5 -66 l34 -44l56 54q39 37 79 57t93 20q66 0 108.5 -39t42.5 -110q0 -41 -14.5 -79t-41 -67t-63.5 -47t-83 -18q-53 0 -88.5 20.5t-68.5 64.5l-34 45zM627 137q26 0 47 11t36 29.5t23.5 42.5t8.5 49q0 45 -24 67.5t-59 22.5q-33 0 -60.5 -11.5t-56.5 -38.5l-63 -61l36 -47 q28 -38 53.5 -51t58.5 -13z"></glyph><glyph glyph-name="integral" unicode="∫" d="M122 -97q-6 -35 -17 -57t-27 -34.5t-37 -17.5t-46 -5q-26 0 -48 6.5t-37 18.5l20 69q27 -23 54 -23q20 0 31 9.5t16 36.5l114 650q6 34 17 56.5t27 35t36.5 17.5t46.5 5t48 -6.5t37 -18.5l-20 -69q-27 23 -53 23q-20 0 -31.5 -9t-16.5 -36z"></glyph><glyph glyph-name="approxequal" unicode="≈" d="M377 252q-28 0 -55 7.5t-53 16.5t-52 16.5t-51 7.5q-55 0 -105 -47l10 55q23 25 50 35t53 10q27 0 53.5 -7.5t53.5 -16t53.5 -16t52.5 -7.5q22 0 48.5 11t50.5 34l-10 -63q-41 -36 -99 -36zM356 134q-28 0 -55 7.5t-53 17t-52 17t-51 7.5q-53 0 -105 -49l10 57 q23 23 50.5 34t52.5 11q27 0 53.5 -7.5t53.5 -17t53.5 -17t53.5 -7.5q22 0 48 11.5t51 34.5l-11 -63q-39 -36 -99 -36z"></glyph><glyph glyph-name="notequal" unicode="≠" d="M344 285l-79 -78h192l-9 -53h-236l-125 -125l-35 34l91 91h-103l9 53h146l79 78h-211l9 53h254l114 113l36 -34l-80 -79h84l-9 -53h-127z"></glyph><glyph glyph-name="lessequal" unicode="≤" d="M184 287l167 -143l-46 -46l-225 193l294 192l36 -51zM28 21l9 53h315l-9 -53h-315z"></glyph><glyph glyph-name="greaterequal" unicode="≥" d="M28 21l9 53h315l-9 -53h-315zM306 294l-168 143l46 46l226 -193l-295 -192l-35 51z"></glyph><glyph glyph-name="blacksquare" unicode="■" d="M83 589h589v-589h-589v589z"></glyph><glyph glyph-name="whitesquare" unicode="□" d="M83 589h589v-589h-589v589zM126 43h503v503h-503v-503z"></glyph><glyph glyph-name="blacksmallsquare" unicode="▪" d="M83 464h326v-325h-326v325z"></glyph><glyph glyph-name="whitesmallsquare" unicode="▫" d="M83 464h326v-325h-326v325zM126 182h240v239h-240v-239z"></glyph><glyph glyph-name="triagup" unicode="▲" d="M263 601l246 -601h-491z"></glyph><glyph glyph-name="triagrt" unicode="►" d="M676 291l-601 -246v491z"></glyph><glyph glyph-name="triagdn" unicode="▼" d="M84 589h491l-246 -601z"></glyph><glyph glyph-name="triaglf" unicode="◄" d="M601 536v-491l-601 246z"></glyph><glyph glyph-name="lozenge" unicode="◊" d="M237 -33h-66l-114 336l231 328h66l116 -328zM309 550l-172 -251l80 -253l174 259z"></glyph><glyph glyph-name="circle" unicode="○" d="M44 295q0 45 17 84.5t46 69t68.5 46.5t84.5 17t84.5 -17t69.5 -46.5t47 -69t17 -84.5t-17 -84.5t-47 -68.5t-69.5 -46t-84.5 -17t-84.5 17t-68.5 46t-46 68.5t-17 84.5zM89 294q0 -36 13.5 -67.5t37 -55.5t54.5 -37.5t67 -13.5t67.5 13.5t55 37.5t37 55.5t13.5 67.5 t-13.5 68t-37 56t-55 38t-67.5 14t-67 -14t-54.5 -38t-37 -56t-13.5 -68z"></glyph><glyph glyph-name="blackcircle" unicode="●" d="M44 294q0 63 24 119t65.5 98t97.5 66t119 24t119 -24t98 -66t66 -98t24 -119t-24 -119t-66 -97.5t-98 -65.5t-119 -24t-119 24t-97.5 65.5t-65.5 97.5t-24 119z"></glyph><glyph glyph-name="whitecircle" unicode="◯" d="M44 294q0 63 24 119t65.5 98t97.5 66t119 24t119 -24t98 -66t66 -98t24 -119t-24 -119t-66 -97.5t-98 -65.5t-119 -24t-119 24t-97.5 65.5t-65.5 97.5t-24 119zM88 293q0 -55 20.5 -103t56 -84t83.5 -57t102 -21t101.5 21t83.5 57t56.5 84t20.5 103t-20.5 103.5t-56.5 85 t-83.5 57.5t-101.5 21t-102 -21t-83.5 -57.5t-56 -85t-20.5 -103.5z"></glyph><glyph glyph-name="anglebracketleft" unicode="〈" d="M141 -203l-76 441l227 430h91l-227 -433l70 -438h-85z"></glyph><glyph glyph-name="anglebracketright" unicode="〉" d="M211 668l76 -441l-227 -430h-91l228 433l-71 438h85z"></glyph><glyph glyph-name="lcedilla" unicode="" d="M179 -124q0 -22 -8.5 -38t-23 -27t-34 -16.5t-41.5 -5.5q-62 0 -90 38l23 51q25 -36 62 -36q18 0 28.5 8.5t10.5 25.5q0 19 -15 30t-48 12l31 81l9 5q-47 24 -33 98l99 566h91l-98 -557q-3 -17 1 -31t26 -14q6 0 13 1.5t16 3.5l-13 -67q-24 -9 -54 -9q-11 0 -15 1 l-16 -37q40 -8 59.5 -27.5t19.5 -55.5z"></glyph><glyph glyph-name="uni004500600323" unicode="" d="M401 0h-363l103 589h363l-14 -80h-269l-30 -174h237l-14 -80h-237l-31 -175h268zM274 653l63 123h120l-101 -123h-82zM121 -139q0 26 17.5 43t42.5 17q26 0 44 -17t18 -43t-18 -43t-44 -17q-25 0 -42.5 17t-17.5 43z"></glyph><glyph glyph-name="uni006500600323" unicode="" d="M229 58q47 0 70 19t34 56l84 -21q-12 -35 -30.5 -59t-43 -38.5t-55 -20.5t-67.5 -6q-88 0 -135.5 53.5t-47.5 143.5q0 70 20 124t52.5 90.5t74 55t84.5 18.5q45 0 77.5 -14t53.5 -37t30.5 -53t9.5 -62q0 -49 -20 -95h-293q-3 -29 1 -56.5t16.5 -49.5t33.5 -35t51 -13z M346 277q3 8 4 16t1 16q0 38 -20.5 66t-65.5 28q-26 0 -47 -10.5t-37 -27.5t-27 -40t-17 -48h209zM225 529l74 146h121l-116 -146h-79zM91 -139q0 26 17.5 43t42.5 17q26 0 44 -17t18 -43t-18 -43t-44 -17q-25 0 -42.5 17t-17.5 43z"></glyph><glyph glyph-name="uni004500B40323" unicode="" d="M401 0h-363l103 589h363l-14 -80h-269l-30 -174h237l-14 -80h-237l-31 -175h268zM283 653l-100 123h120l63 -123h-83zM120 -139q0 26 17.5 43t42.5 17q26 0 44 -17t18 -43t-18 -43t-44 -17q-25 0 -42.5 17t-17.5 43z"></glyph><glyph glyph-name="uni006500B40323" unicode="" d="M229 58q47 0 70 19t34 56l84 -21q-12 -35 -30.5 -59t-43 -38.5t-55 -20.5t-67.5 -6q-88 0 -135.5 53.5t-47.5 143.5q0 70 20 124t52.5 90.5t74 55t84.5 18.5q45 0 77.5 -14t53.5 -37t30.5 -53t9.5 -62q0 -49 -20 -95h-293q-3 -29 1 -56.5t16.5 -49.5t33.5 -35t51 -13z M346 277q3 8 4 16t1 16q0 38 -20.5 66t-65.5 28q-26 0 -47 -10.5t-37 -27.5t-27 -40t-17 -48h209zM240 529l-115 146h121l74 -146h-80zM90 -139q0 26 17.5 43t42.5 17q26 0 44 -17t18 -43t-18 -43t-44 -17q-25 0 -42.5 17t-17.5 43z"></glyph><glyph glyph-name="Gtilde" unicode="" d="M556 304l-53 -304h-67l-4 74q-18 -39 -55.5 -62.5t-95.5 -23.5q-54 0 -96 17.5t-71.5 49t-44.5 75.5t-15 98q0 88 24.5 157.5t65.5 117.5t96 73t117 25q85 0 134 -37.5t66 -109.5l-94 -36q-8 52 -38.5 78t-75.5 26q-48 0 -85 -23.5t-62.5 -63.5t-38.5 -91.5t-13 -108.5 q0 -78 36 -124t110 -46q55 0 96 28.5t53 97.5l6 33h-143l14 80h234zM431 653q-27 0 -41.5 8t-31.5 18q-19 12 -30 18.5t-26 6.5t-26 -11.5t-13 -37.5h-54q-5 25 0 47.5t18 39.5t32.5 26.5t43.5 9.5q27 0 43 -8.5t33 -19.5q19 -12 28.5 -17.5t23.5 -5.5t24 11.5t12 39.5h58 q8 -55 -17.5 -90t-76.5 -35z"></glyph></font>
</defs>
</svg>
