<?xml version="1.0" encoding="UTF-8" standalone="no"?> <svg xmlns="http://www.w3.org/2000/svg" xmlns:xlink="http://www.w3.org/1999/xlink" version="1.1"><metadata> Created by FontForge 20170731 at Wed Apr 17 18:17:16 2019 By Aleksey,,, Copyright (c) 2004-7 by Kris Sowersby. All rights reserved. </metadata><defs><font id="National-Regular"><glyph glyph-name="f_b" unicode="fb" d="M424 179q0 -33 10 -56.5t26.5 -38.5t36 -21.5t39.5 -6.5q26 0 48.5 10.5t39.5 32.5t27 55.5t10 79.5q0 84 -30.5 124.5t-84.5 40.5q-25 0 -47 -9t-38.5 -26t-26.5 -42t-10 -56v-87zM334 581q-18 11 -37 16.5t-43 5.5q-38 0 -60 -20.5t-22 -70.5v-50h97v-72h-97v-390h-91 v390h-67v72h67v49q0 46 15 77.5t38.5 51t53.5 27.5t60 8t55 -5.5t45 -15.5l76 14v-294q17 52 58 75.5t90 23.5q85 0 133.5 -59.5t48.5 -171.5q0 -53 -13.5 -99t-39 -80.5t-62 -54.5t-83.5 -20q-60 0 -93.5 23.5t-45.5 55.5l-24 -67h-59v581z"></glyph><glyph glyph-name="f_f_b" unicode="ffb" d="M677 179q0 -33 10 -56.5t26 -38.5t36 -21.5t39 -6.5q26 0 49 10.5t40 32.5t27 55.5t10 79.5q0 84 -31 124.5t-85 40.5q-25 0 -47 -9t-38.5 -26t-26 -42t-9.5 -56v-87zM677 374q17 52 58 75.5t89 23.5q85 0 133.5 -59.5t48.5 -171.5q0 -53 -13.5 -99t-39 -80.5t-62 -54.5 t-83.5 -20q-60 0 -93.5 23.5t-45.5 55.5l-23 -67h-60v581q-18 11 -36.5 16.5t-43.5 5.5q-37 0 -59.5 -20.5t-22.5 -70.5v-50h98v-72h-98v-390h-90v390h-162v-390h-91v390h-67v72h67v48q0 45 13 75t34 48t48 25.5t54 7.5q30 0 47.5 -4.5t36.5 -13.5l-17 -78q-17 11 -31 15.5 t-32 4.5q-30 0 -46 -18.5t-16 -59.5v-50h162v49q0 46 14.5 77.5t38.5 51t54 27.5t60 8t55 -5.5t45 -15.5l76 14v-294z"></glyph><glyph glyph-name="f_f_h" unicode="ffh" d="M677 374q33 99 139 99q29 0 54.5 -8t45 -25.5t30.5 -44.5t11 -65v-330h-91v304q0 42 -19.5 66.5t-60.5 24.5q-21 0 -41 -6t-35 -21t-24 -40t-9 -63v-265h-91v581q-18 11 -36.5 16.5t-43.5 5.5q-37 0 -59.5 -20.5t-22.5 -70.5v-50h98v-72h-98v-390h-90v390h-162v-390h-91 v390h-67v72h67v48q0 45 13 75t34 48t48 25.5t54 7.5q30 0 47.5 -4.5t36.5 -13.5l-17 -78q-17 11 -31 15.5t-32 4.5q-30 0 -46 -18.5t-16 -59.5v-50h162v49q0 46 14.5 77.5t38.5 51t54 27.5t60 8t55 -5.5t45 -15.5l76 14v-294z"></glyph><glyph glyph-name="f_f_j" unicode="ffj" d="M424 0h-90v390h-162v-390h-91v390h-67v72h67v48q0 45 13 75t34 48t48 25.5t54 7.5q30 0 47.5 -4.5t36.5 -13.5l-17 -78q-17 11 -31 15.5t-32 4.5q-30 0 -46 -18.5t-16 -59.5v-50h162v45q0 48 15.5 80.5t40.5 52t55.5 27.5t60.5 8q34 0 66.5 -7.5t60.5 -25.5l-32 -74 q-17 13 -40 22t-52 9q-38 0 -61.5 -20.5t-23.5 -74.5v-42h253v-469q0 -57 -15 -95.5t-43.5 -61.5t-69.5 -32t-92 -7v76q67 -6 98 21t31 95v401h-162v-390z"></glyph><glyph glyph-name="f_f_k" unicode="ffk" d="M677 277h22l153 185h109l-185 -215l200 -247h-111l-161 207h-27v-207h-91v581q-18 11 -36.5 16.5t-43.5 5.5q-37 0 -59.5 -20.5t-22.5 -70.5v-50h98v-72h-98v-390h-90v390h-162v-390h-91v390h-67v72h67v48q0 45 13 75t34 48t48 25.5t54 7.5q30 0 47.5 -4.5t36.5 -13.5 l-17 -78q-17 11 -31 15.5t-32 4.5q-30 0 -46 -18.5t-16 -59.5v-50h162v49q0 46 14.5 77.5t38.5 51t54 27.5t60 8t55 -5.5t45 -15.5l76 14v-391z"></glyph><glyph glyph-name="f_h" unicode="fh" d="M424 374q33 99 140 99q28 0 53.5 -8t45 -25.5t30.5 -44.5t11 -65v-330h-90v304q0 42 -19.5 66.5t-61.5 24.5q-21 0 -40.5 -6t-35 -21t-24.5 -40t-9 -63v-265h-90v581q-18 11 -37 16.5t-43 5.5q-38 0 -60 -20.5t-22 -70.5v-50h97v-72h-97v-390h-91v390h-67v72h67v49 q0 46 15 77.5t38.5 51t53.5 27.5t60 8t55 -5.5t45 -15.5l76 14v-294z"></glyph><glyph glyph-name="f_j" unicode="fj" d="M334 390h-162v-390h-91v390h-67v72h67v45q0 48 16 80.5t40.5 52t55.5 27.5t61 8q33 0 65.5 -7.5t60.5 -25.5l-32 -74q-17 13 -40 22t-52 9q-38 0 -61 -20.5t-23 -74.5v-42h252v-469q0 -57 -15 -95.5t-43.5 -61.5t-69.5 -32t-92 -7v76q68 -6 99 21t31 95v401z"></glyph><glyph glyph-name="f_k" unicode="fk" d="M424 277h22l154 185h109l-186 -215l201 -247h-111l-162 207h-27v-207h-90v581q-18 11 -37 16.5t-43 5.5q-38 0 -60 -20.5t-22 -70.5v-50h97v-72h-97v-390h-91v390h-67v72h67v49q0 46 15 77.5t38.5 51t53.5 27.5t60 8t55 -5.5t45 -15.5l76 14v-391z"></glyph><glyph glyph-name="ff" unicode="ff" d="M172 390v-390h-91v390h-67v72h67v48q0 45 13 75t34 48t48 25.5t54 7.5q30 0 47.5 -4.5t36.5 -13.5l-17 -78q-17 11 -31 15.5t-32 4.5q-30 0 -46 -18.5t-16 -59.5v-50h162v52q0 45 13.5 76t35.5 50t51 27t59 8q27 0 51 -5t44 -13l-17 -80q-18 11 -34.5 16t-38.5 5 q-34 0 -54 -19.5t-20 -69.5v-47h118v-72h-118v-390h-90v390h-162z"></glyph><glyph glyph-name="ffi" unicode="ffi" d="M334 507q0 48 15.5 80.5t40.5 52t55.5 27.5t60.5 8q34 0 66.5 -7.5t60.5 -25.5l-32 -74q-17 13 -40 22t-52 9q-38 0 -61.5 -20.5t-23.5 -74.5v-42h253v-462h-91v390h-162v-390h-90v390h-162v-390h-91v390h-67v72h67v48q0 45 13 75t34 48t48 25.5t54 7.5q30 0 47.5 -4.5 t36.5 -13.5l-17 -78q-17 11 -31 15.5t-32 4.5q-30 0 -46 -18.5t-16 -59.5v-50h162v45z"></glyph><glyph glyph-name="ffl" unicode="ffl" d="M334 511q0 46 14.5 77.5t38.5 51t54 27.5t60 8t55 -5.5t45 -15.5l76 14v-557q0 -22 11 -31.5t29 -9.5q11 0 18 1.5t15 3.5l-2 -75q-18 -5 -30.5 -6.5t-25.5 -1.5q-44 0 -75 24t-31 76v489q-18 11 -36.5 16.5t-43.5 5.5q-37 0 -59.5 -20.5t-22.5 -70.5v-50h98v-72h-98 v-390h-90v390h-162v-390h-91v390h-67v72h67v48q0 45 13 75t34 48t48 25.5t54 7.5q30 0 47.5 -4.5t36.5 -13.5l-17 -78q-17 11 -31 15.5t-32 4.5q-30 0 -46 -18.5t-16 -59.5v-50h162v49z"></glyph><glyph glyph-name="fi" unicode="fi" d="M14 390v72h67v45q0 48 16 80.5t40.5 52t55.5 27.5t61 8q33 0 65.5 -7.5t60.5 -25.5l-32 -74q-17 13 -40 22t-52 9q-38 0 -61 -20.5t-23 -74.5v-42h252v-462h-90v390h-162v-390h-91v390h-67z"></glyph><glyph glyph-name="fl" unicode="fl" d="M495 0q-17 -5 -30 -6.5t-26 -1.5q-44 0 -74.5 24t-30.5 76v489q-18 11 -37 16.5t-43 5.5q-38 0 -60 -20.5t-22 -70.5v-50h97v-72h-97v-390h-91v390h-67v72h67v49q0 46 15 77.5t38.5 51t53.5 27.5t60 8t55 -5.5t45 -15.5l76 14v-557q0 -22 11.5 -31.5t29.5 -9.5 q10 0 17 1.5t15 3.5z"></glyph><glyph glyph-name=".notdef"></glyph><glyph glyph-name=".null"></glyph><glyph glyph-name=".null"></glyph><glyph glyph-name="nonmarkingreturn" unicode="&#13;"></glyph><glyph glyph-name="space" unicode=" "></glyph><glyph glyph-name="exclam" unicode="!" d="M172 589l-27 -415h-61l-27 415h115zM51 56q0 27 18.5 44.5t44.5 17.5q27 0 45.5 -17.5t18.5 -44.5q0 -26 -18.5 -44t-45.5 -18q-26 0 -44.5 18t-18.5 44z"></glyph><glyph glyph-name="quotedbl" unicode="&quot;" d="M61 668h98l-42 -256h-56v256zM209 668h98l-42 -256h-56v256z"></glyph><glyph glyph-name="numbersign" unicode="#" d="M395 144l-43 -144h-69l43 144h-104l-43 -144h-69l43 144h-115v67h135l26 87h-141v67h161l35 116h70l-35 -116h103l35 116h71l-35 -116h112v-67h-133l-26 -87h139v-67h-160zM242 211h104l26 87h-103z"></glyph><glyph glyph-name="dollar" unicode="$" d="M210 -12q-75 2 -119.5 33t-54.5 94l84 18q5 -36 28.5 -55t61.5 -23v147l-34 8q-68 15 -95 51t-27 88q0 36 12.5 62t34 43t50 26t59.5 12v82h50v-82q66 -4 104.5 -35t45.5 -94l-88 -9q-5 58 -62 70v-147l18 -3q62 -12 98 -47.5t36 -98.5q0 -67 -42.5 -99.5t-109.5 -38.5 v-96h-50v94zM140 358q0 -29 15.5 -46t53.5 -25h1v139q-33 -4 -51.5 -21.5t-18.5 -46.5zM326 120q0 28 -14 45t-52 26v-135q29 5 47.5 20t18.5 44z"></glyph><glyph glyph-name="percent" unicode="%" d="M175 229q-71 0 -106.5 51t-35.5 133q0 40 10 74t28 58.5t44.5 38t59.5 13.5t59 -13.5t44 -38t28 -58.5t10 -74q0 -82 -35.5 -133t-105.5 -51zM175 534q-35 0 -52.5 -34t-17.5 -88q0 -53 17.5 -88.5t52.5 -35.5q34 0 52 35.5t18 88.5q0 54 -17.5 88t-52.5 34zM554 590h62 l-306 -590h-62zM689 -7q-71 0 -106.5 51t-35.5 133q0 40 10 74t28 58.5t44.5 38t59.5 13.5t59 -13.5t44 -38t28 -58.5t10 -74q0 -82 -35.5 -133t-105.5 -51zM689 298q-35 0 -52.5 -34t-17.5 -88q0 -53 17.5 -88.5t52.5 -35.5q34 0 52 35.5t18 88.5q0 54 -17.5 88t-52.5 34z "></glyph><glyph glyph-name="ampersand" unicode="&amp;" d="M479 -13l-73 77q-38 -38 -87.5 -57t-108.5 -19q-40 0 -74 9t-59.5 28.5t-40 49t-14.5 70.5q0 57 31.5 101t102.5 70l-26 27q-20 21 -38 50.5t-18 71.5q0 64 44.5 100t115.5 36q72 0 116 -36.5t44 -98.5q0 -54 -28.5 -90.5t-89.5 -61.5l128 -131q10 20 16 49.5t7 61.5 l79 -22q-5 -37 -16 -75.5t-31 -67.5l84 -83zM112 151q0 -44 30 -69t74 -25q46 0 80.5 15t59.5 42l-157 159q-42 -19 -64.5 -46t-22.5 -76zM234 537q-34 0 -54 -18.5t-20 -49.5q0 -22 10.5 -40t30.5 -39l34 -35q42 19 58 45t16 63q0 35 -19 54.5t-56 19.5z"></glyph><glyph glyph-name="quotesingle" unicode="'" d="M61 668h98l-42 -256h-56v256z"></glyph><glyph glyph-name="parenleft" unicode="(" d="M155 233q0 -70 12.5 -128t35.5 -110t55.5 -100t72.5 -97h-100q-34 41 -64 86.5t-52.5 98.5t-35.5 115t-13 135t13 135t35.5 115t52.5 98.5t64 86.5h100q-40 -49 -72.5 -97t-55.5 -100t-35.5 -110t-12.5 -128z"></glyph><glyph glyph-name="parenright" unicode=")" d="M182 233q0 70 -12.5 128t-35.5 110t-55.5 100t-72.5 97h100q34 -41 64 -86.5t52.5 -98.5t35.5 -115t13 -135t-13 -135t-35.5 -115t-52.5 -98.5t-64 -86.5h-100q40 49 72.5 97t55.5 100t35.5 110t12.5 128z"></glyph><glyph glyph-name="asterisk" unicode="*" d="M208 491l90 44l23 -69l-101 -17l72 -77l-61 -43l-48 90l-48 -91l-59 45l71 76l-102 17l24 68l90 -43l-13 100h75z"></glyph><glyph glyph-name="plus" unicode="+" d="M220 275v170h54v-170h179v-54h-179v-184h-54v184h-175v54h175z"></glyph><glyph glyph-name="comma" unicode="," d="M209 33q0 -75 -41.5 -109t-110.5 -38v43q37 5 59 22.5t22 51.5q-31 -6 -51.5 10.5t-20.5 45.5q0 30 19 46t48 16q31 0 53.5 -23t22.5 -65z"></glyph><glyph glyph-name="hyphen" unicode="-" d="M68 295h230v-76h-230v76z"></glyph><glyph glyph-name="period" unicode="." d="M75 62q0 29 19.5 48.5t48.5 19.5t48.5 -19.5t19.5 -48.5t-19.5 -48.5t-48.5 -19.5t-48.5 19.5t-19.5 48.5z"></glyph><glyph glyph-name="slash" unicode="/" d="M284 669h82l-276 -872h-80z"></glyph><glyph glyph-name="zero" unicode="0" d="M293 -12q-59 0 -104.5 19.5t-77 53.5t-47.5 80t-16 99q0 52 16 98.5t47.5 80.5t77 54t104.5 20q58 0 103.5 -20t77 -54t47.5 -80.5t16 -98.5q0 -53 -16 -99t-47.5 -80t-77 -53.5t-103.5 -19.5zM293 415q-38 0 -67 -13.5t-48.5 -37t-29.5 -56t-10 -69.5q0 -39 10 -71 t29.5 -55t48.5 -36t67 -13q37 0 66 13t48.5 36t29.5 55t10 71q0 37 -10 69.5t-29.5 56t-48.5 37t-66 13.5z"></glyph><glyph glyph-name="one" unicode="1" d="M159 0v395l-139 -25v75l228 44v-489h-89z"></glyph><glyph glyph-name="two" unicode="2" d="M407 0h-371v70q137 66 198 128t61 132q0 44 -24.5 65.5t-62.5 21.5q-37 0 -61 -23.5t-29 -74.5l-83 18q6 44 23 74t41.5 48t54.5 26t62 8q34 0 65 -9t54 -28t37 -49t14 -72q0 -48 -19.5 -89t-52.5 -73.5t-76 -56.5t-90 -37v-4h259v-75z"></glyph><glyph glyph-name="three" unicode="3" d="M227 188q75 -7 119.5 -51t44.5 -110q0 -39 -15.5 -70t-42 -52t-62 -32t-75.5 -11q-85 0 -135.5 37.5t-59.5 102.5l86 21q16 -92 111 -92q48 0 75.5 26t27.5 73q0 49 -37.5 82t-130.5 41v69q48 6 79 16.5t48 25.5t23.5 34.5t6.5 42.5q0 38 -26 58.5t-61 20.5t-59.5 -19.5 t-32.5 -64.5l-85 21q13 61 58.5 98.5t122.5 37.5q35 0 66.5 -9t55.5 -27t38 -46t14 -67q0 -61 -40 -102t-114 -49v-5z"></glyph><glyph glyph-name="four" unicode="4" d="M300 47h-284v60l285 374h88v-363h98v-71h-98v-178h-89v178zM300 118v149q0 26 0.5 47t1.5 36q1 18 2 31h-4q-5 -11 -14 -25q-8 -12 -19 -29.5t-26 -38.5l-79 -107q-12 -17 -22 -28.5t-18 -19.5l-15 -15v-4q6 1 17 2q9 1 23.5 1.5t36.5 0.5h116z"></glyph><glyph glyph-name="five" unicode="5" d="M85 481h295v-79h-220l-8 -191q16 14 37.5 21.5t50.5 7.5q73 0 120 -47t47 -138q0 -48 -15.5 -84.5t-43 -61t-65 -36.5t-81.5 -12q-84 0 -132.5 37.5t-56.5 102.5l79 24q8 -50 38.5 -74t75.5 -24q49 0 82.5 30t33.5 96q0 59 -30 90t-81 31q-24 0 -40.5 -6.5t-29.5 -14.5 h-69z"></glyph><glyph glyph-name="six" unicode="6" d="M389 450q-28 77 -103 77q-74 0 -114 -70.5t-41 -204.5h3q14 61 55 91.5t96 30.5q45 0 80 -15t58.5 -40.5t36 -60t12.5 -73.5q0 -41 -13.5 -77t-40 -62.5t-65 -42t-88.5 -15.5q-96 0 -154.5 72t-58.5 216q0 84 19 145t52 101t76 59.5t91 19.5q63 0 106.5 -29t66.5 -84z M156 179q0 -55 33.5 -87t81.5 -32q49 0 82.5 32t33.5 87q0 57 -33.5 89.5t-82.5 32.5q-48 0 -81.5 -32.5t-33.5 -89.5z"></glyph><glyph glyph-name="seven" unicode="7" d="M108 402v-75h-82v154h392v-62l-222 -550h-89l215 533h-214z"></glyph><glyph glyph-name="eight" unicode="8" d="M251 -12q-94 0 -148.5 43t-54.5 118q0 57 32 94.5t81 53.5v5q-53 17 -77 53.5t-24 85.5q0 36 13.5 65.5t38.5 50.5t60.5 32.5t78.5 11.5t78 -11.5t60 -32.5t39 -50.5t14 -65.5q0 -49 -24 -85.5t-78 -53.5v-5q50 -16 82 -53.5t32 -94.5q0 -75 -54.5 -118t-148.5 -43z M251 536q-50 0 -76.5 -27t-26.5 -69q0 -55 29.5 -79.5t73.5 -24.5t73.5 24.5t29.5 79.5q0 42 -26.5 69t-76.5 27zM251 265q-23 0 -44 -6.5t-37 -19.5t-25 -32.5t-9 -45.5q0 -49 30.5 -78t84.5 -29t84.5 29t30.5 78q0 26 -9.5 45.5t-25 32.5t-36.5 19.5t-44 6.5z"></glyph><glyph glyph-name="nine" unicode="9" d="M97 12q14 -39 42 -60t73 -21q51 0 83 26.5t51 69t26 97t7 110.5h-4q-11 -66 -52 -98t-98 -32q-45 0 -80 15t-59 40.5t-36.5 60t-12.5 72.5q0 40 13 76.5t38.5 64.5t63.5 44t88 16q102 0 160.5 -70t58.5 -215q0 -166 -64.5 -256t-185.5 -90q-72 0 -117.5 29t-67.5 84z M354 300q0 28 -9 50.5t-25 38t-36.5 24t-44.5 8.5q-51 0 -85 -32t-34 -89q0 -59 34 -92t85 -33q24 0 44.5 8.5t36.5 24.5t25 39.5t9 52.5z"></glyph><glyph glyph-name="colon" unicode=":" d="M75 62q0 29 19.5 48.5t48.5 19.5t48.5 -19.5t19.5 -48.5t-19.5 -48.5t-48.5 -19.5t-48.5 19.5t-19.5 48.5zM75 395q0 29 19.5 48.5t48.5 19.5t48.5 -19.5t19.5 -48.5t-19.5 -48.5t-48.5 -19.5t-48.5 19.5t-19.5 48.5z"></glyph><glyph glyph-name="semicolon" unicode=";" d="M209 33q0 -75 -41.5 -109t-110.5 -38v43q37 5 59 22.5t22 51.5q-31 -6 -51.5 10.5t-20.5 45.5q0 30 19 46t48 16q31 0 53.5 -23t22.5 -65zM66 395q0 29 19.5 48.5t48.5 19.5t48.5 -19.5t19.5 -48.5t-19.5 -48.5t-48.5 -19.5t-48.5 19.5t-19.5 48.5z"></glyph><glyph glyph-name="less" unicode="&lt;" d="M126 247l207 -172l-36 -42l-252 214l253 212l35 -42z"></glyph><glyph glyph-name="equal" unicode="=" d="M45 154v53h408v-53h-408zM45 285v53h408v-53h-408z"></glyph><glyph glyph-name="greater" unicode="&gt;" d="M47 417l35 42l252 -212l-251 -214l-37 42l207 172z"></glyph><glyph glyph-name="question" unicode="?" d="M0 460q14 63 60.5 102t128.5 39q43 0 77.5 -13t59 -36t38 -55t13.5 -71q0 -46 -15.5 -79.5t-40.5 -55t-55.5 -32.5t-61.5 -12v-82h-82v134h36q57 0 91.5 28t34.5 92q0 55 -28 80.5t-73 25.5q-40 0 -67.5 -22t-35.5 -72zM100 56q0 27 18 44.5t45 17.5t45.5 -17.5 t18.5 -44.5q0 -26 -18.5 -44t-45.5 -18t-45 18t-18 44z"></glyph><glyph glyph-name="at" unicode="@" d="M528 246q0 25 -9 43.5t-23 30.5t-30.5 17.5t-32.5 5.5q-21 0 -39.5 -8t-33 -25.5t-22.5 -46t-8 -69.5q0 -67 27.5 -102t74.5 -35q16 0 33 6t31 18.5t23 31.5t9 46v87zM611 97q0 -30 11 -41.5t31 -11.5q29 0 50 16t34.5 44.5t20 67.5t6.5 85q0 72 -25.5 124.5t-68.5 87 t-99.5 51.5t-117.5 17q-65 0 -125.5 -20.5t-107 -62.5t-75 -105.5t-28.5 -149.5q0 -89 28.5 -153t78 -105.5t115.5 -61.5t140 -20q48 0 92.5 6.5t91.5 23.5l15 -59q-46 -15 -96 -23t-104 -8q-86 0 -164.5 22t-138 70t-95 124t-35.5 184q0 87 29 160t82.5 125.5t129.5 82 t170 29.5q95 0 166 -27t118 -72.5t70.5 -106.5t23.5 -129q0 -62 -10.5 -112.5t-34 -86t-60 -55t-88.5 -19.5q-44 0 -75 18t-36 65q-17 -48 -50.5 -65.5t-78.5 -17.5q-31 0 -59.5 12.5t-50.5 38t-35 63.5t-13 89q0 103 46 160t133 57q42 0 71 -17.5t39 -43.5l25 52h54v-302z "></glyph><glyph glyph-name="A" unicode="A" d="M403 161h-241l-56 -161h-96l215 589h121l213 -589h-99zM188 237h188l-45 132q-13 35 -21.5 63.5t-13.5 48.5q-6 24 -11 43h-4q-5 -19 -11 -43q-6 -20 -14.5 -48t-20.5 -63z"></glyph><glyph glyph-name="B" unicode="B" d="M353 301q55 -5 92.5 -39.5t37.5 -96.5q0 -76 -50.5 -120.5t-158.5 -44.5h-191v589h193q90 0 136.5 -37.5t46.5 -112.5q0 -58 -29.5 -92.5t-76.5 -42.5v-3zM266 331q46 0 73 21.5t27 69.5t-27.5 69t-78.5 21h-85v-181h91zM175 77h106q51 0 80 22.5t29 73.5q0 38 -25 61.5 t-85 23.5h-105v-181z"></glyph><glyph glyph-name="C" unicode="C" d="M539 110q-20 -31 -43 -54t-51.5 -38t-63.5 -22.5t-79 -7.5q-57 0 -104.5 20t-81.5 59t-53 95.5t-19 130.5t20 131.5t56 96.5t86.5 59.5t112.5 20.5q161 0 221 -142l-86 -42q-18 53 -54 79t-86 26q-83 0 -128.5 -61.5t-45.5 -167.5q0 -105 42 -164t127 -59q54 0 91.5 21.5 t67.5 70.5z"></glyph><glyph glyph-name="D" unicode="D" d="M254 77q43 0 80 12t63 38.5t41 68.5t15 101q0 62 -15 103.5t-41 66t-60.5 35t-73.5 10.5h-88v-435h79zM83 0v589h183q62 0 114 -16t90 -50.5t59 -89t21 -132.5q0 -82 -23 -139t-62 -93t-91 -52.5t-111 -16.5h-180z"></glyph><glyph glyph-name="E" unicode="E" d="M446 0h-363v589h363v-80h-271v-174h240v-80h-240v-175h271v-80z"></glyph><glyph glyph-name="F" unicode="F" d="M83 0v589h347v-80h-255v-180h224v-80h-224v-249h-92z"></glyph><glyph glyph-name="G" unicode="G" d="M547 304v-304h-73l-12 76q-9 -22 -26 -38.5t-38.5 -27.5t-47 -16.5t-50.5 -5.5q-57 0 -104 19.5t-80.5 58t-52.5 95t-19 131.5q0 74 20 131.5t56 97t86.5 60t112.5 20.5q166 0 221 -142l-86 -42q-18 54 -55 79.5t-85 25.5q-39 0 -71 -15t-55 -44t-35.5 -72t-12.5 -99 q0 -50 10 -92t31 -72t53 -47t75 -17q30 0 56.5 7t46.5 21.5t32 36t12 51.5v44h-143v80h234z"></glyph><glyph glyph-name="H" unicode="H" d="M83 0v589h92v-250h281v250h92v-589h-92v259h-281v-259h-92z"></glyph><glyph glyph-name="I" unicode="I" d="M175 589v-589h-92v589h92z"></glyph><glyph glyph-name="J" unicode="J" d="M373 589v-418q0 -51 -15.5 -86t-41 -56.5t-59 -31t-70.5 -9.5q-74 0 -118.5 32.5t-68.5 82.5l72 54q23 -51 48.5 -71.5t67.5 -20.5q28 0 46 9t28 25.5t14 40t4 52.5v397h93z"></glyph><glyph glyph-name="K" unicode="K" d="M406 0l-185 259h-46v-259h-92v589h92v-250h49l172 250h108l-205 -286l220 -303h-113z"></glyph><glyph glyph-name="L" unicode="L" d="M175 589v-509h264v-80h-356v589h92z"></glyph><glyph glyph-name="M" unicode="M" d="M329 144l-111 204q-13 24 -21.5 42.5t-13.5 31.5q-6 15 -9 27h-4q1 -11 2 -27q1 -14 2 -33.5t1 -45.5v-343h-92v589h107l140 -272q8 -17 14 -30.5l10 -22.5q4 -11 6 -19h4q2 8 6 19q6 19 24 53l139 272h103v-589h-93v343q0 52 3 79q1 16 3 27h-4q-3 -12 -9 -27 q-11 -28 -36 -74l-110 -204h-61z"></glyph><glyph glyph-name="N" unicode="N" d="M409 252q13 -20 25.5 -40t21.5 -36q11 -19 20 -36h4q-2 19 -3 41q-1 19 -1.5 43.5t-0.5 52.5v312h92v-589h-91l-235 336q-14 20 -26.5 40t-21.5 37q-11 19 -20 37h-4q1 -19 3 -41q1 -19 2 -44t1 -54v-311h-92v589h94z"></glyph><glyph glyph-name="O" unicode="O" d="M310 -12q-61 0 -110 20t-83.5 59t-53.5 96t-19 131t19 131t53.5 96t83.5 59.5t110 20.5t110 -20.5t83.5 -59.5t53 -96t18.5 -131t-18.5 -131t-53 -96t-83.5 -59t-110 -20zM310 520q-84 0 -126.5 -60t-42.5 -166t42.5 -166t126.5 -60t126 60t42 166t-42.5 166t-125.5 60z "></glyph><glyph glyph-name="P" unicode="P" d="M175 292h85q65 0 89.5 30.5t24.5 80.5q0 109 -115 109h-84v-220zM83 0v589h178q110 0 159 -48t49 -133q0 -89 -49.5 -140.5t-149.5 -51.5h-95v-216h-92z"></glyph><glyph glyph-name="Q" unicode="Q" d="M486 -149q-49 -1 -87.5 10t-67.5 30t-48.5 45.5t-30.5 56.5q-97 17 -152.5 94t-55.5 207q0 74 19 131t53.5 96t83.5 59.5t110 20.5t110 -20.5t83.5 -59.5t53 -96t18.5 -131q0 -135 -60.5 -213t-164.5 -90q31 -33 74 -47t91 -10zM310 520q-84 0 -126.5 -60t-42.5 -166 t42.5 -166t126.5 -60t126 60t42 166t-42.5 166t-125.5 60z"></glyph><glyph glyph-name="R" unicode="R" d="M414 0q-11 12 -16.5 25t-9.5 30l-24 102q-6 26 -16 42t-23.5 25t-31 12t-39.5 3h-79v-239h-92v589h204q201 0 201 -168q0 -35 -11 -61.5t-29.5 -45t-43 -28.5t-52.5 -11v-3q42 -5 66 -25.5t36 -68.5l30 -116q5 -18 12.5 -33t18.5 -29h-101zM175 316h108q109 0 109 98 q0 46 -26.5 72t-81.5 26h-109v-196z"></glyph><glyph glyph-name="S" unicode="S" d="M114 164q9 -54 42 -79.5t81 -25.5t77 21t29 63q0 19 -5.5 34.5t-19.5 28t-37.5 24.5t-59.5 26q-35 12 -66 26t-54.5 34.5t-37.5 49t-14 69.5q0 46 16.5 78t43 51.5t60 28.5t68.5 9q40 0 75 -8.5t61.5 -27t43 -48t20.5 -71.5l-91 -18q-5 49 -34 74t-74 25 q-42 0 -68.5 -21.5t-26.5 -63.5q0 -22 8.5 -37.5t25 -27.5t40.5 -22.5t55 -21.5q34 -12 64 -26t52.5 -34.5t35.5 -49t13 -69.5q0 -44 -16 -75.5t-44 -51.5t-65.5 -30t-79.5 -10q-88 0 -139 36t-65 117z"></glyph><glyph glyph-name="T" unicode="T" d="M181 0v509h-171v80h436v-80h-172v-509h-93z"></glyph><glyph glyph-name="U" unicode="U" d="M518 589v-396q0 -57 -19.5 -96.5t-51 -63.5t-72.5 -34.5t-84 -10.5q-44 0 -84.5 10.5t-72.5 34.5t-51 63.5t-19 96.5v396h92v-372q0 -80 35 -116.5t100 -36.5q64 0 99 36.5t35 114.5v374h93z"></glyph><glyph glyph-name="V" unicode="V" d="M227 216q11 -34 17.5 -61t11.5 -47q5 -23 9 -41h4q3 18 7 41q4 20 10.5 46.5t17.5 60.5l118 374h97l-195 -589h-121l-193 589h99z"></glyph><glyph glyph-name="W" unicode="W" d="M562 220q8 -35 14.5 -64t10.5 -50q4 -25 7 -45h4q3 20 7 45q4 21 9.5 50t13.5 63l93 370h93l-153 -589h-131l-90 347q-9 34 -14.5 63t-7.5 50q-3 25 -3 45h-4q-1 -20 -5 -45q-3 -21 -8.5 -49.5t-13.5 -63.5l-89 -347h-131l-152 589h98l92 -367q8 -35 14 -64t10 -51 q4 -26 7 -46h4q2 20 6 46q4 22 10 50.5t15 63.5l95 368h107z"></glyph><glyph glyph-name="X" unicode="X" d="M309 165q-15 21 -23 35.5t-13 22.5q-5 10 -6 16h-4q-2 -5 -7 -15q-5 -8 -13.5 -23t-22.5 -37l-106 -164h-104l203 298l-193 291h108l94 -149q16 -25 24.5 -40t13.5 -24q5 -11 6 -15h3q1 4 6 15q8 17 37 64l93 149h101l-187 -283l203 -306h-104z"></glyph><glyph glyph-name="Y" unicode="Y" d="M207 402q13 -26 20.5 -44t12.5 -31q5 -15 8 -25h4q2 10 7 25q7 24 31 75l87 187h97l-180 -366v-223h-92v223l-192 366h105z"></glyph><glyph glyph-name="Z" unicode="Z" d="M196 154q-13 -19 -23 -32.5t-18 -22.5q-9 -11 -16 -18v-4q8 0 20 1q11 1 27 1.5t39 0.5h228v-80h-431v55l253 380q12 18 22 32t18 23q9 11 17 18v4q-9 -1 -21 -2q-11 -1 -26.5 -1h-38.5h-212v80h414v-62z"></glyph><glyph glyph-name="bracketleft" unicode="[" d="M168 -135h125v-68h-210v872h210v-68h-125v-736z"></glyph><glyph glyph-name="backslash" unicode="\" d="M386 -203h-81l-275 872h82z"></glyph><glyph glyph-name="bracketright" unicode="]" d="M160 601h-125v68h210v-872h-210v68h125v736z"></glyph><glyph glyph-name="asciicircum" unicode="^" d="M303 481q-17 33 -26 56t-14 38q-5 18 -7 29h-4q-2 -10 -7 -28q-5 -15 -14.5 -38.5t-26.5 -55.5l-84 -161h-90l187 347h74l186 -347h-93z"></glyph><glyph glyph-name="underscore" unicode="_" d="M50 -22h381v-71h-381v71z"></glyph><glyph glyph-name="grave" unicode="`" d="M195 529l-115 146h121l74 -146h-80z"></glyph><glyph glyph-name="a" unicode="a" d="M305 206q-94 2 -136 -18.5t-42 -64.5q0 -29 18.5 -48t55.5 -19q18 0 36.5 5.5t33.5 16t24.5 26t9.5 35.5v67zM396 109q0 -26 10 -34.5t24 -8.5t26 5v-70q-21 -8 -49 -8q-40 0 -64.5 17.5t-30.5 56.5q-18 -44 -55 -61.5t-82 -17.5q-61 0 -99.5 32.5t-38.5 92.5 q0 38 15.5 68t48 49.5t83 28.5t121.5 6v57q0 43 -23 61t-60 18q-38 0 -59.5 -19t-24.5 -55l-86 13q3 37 19 62t40.5 41t55.5 23t63 7q34 0 64 -7.5t52.5 -24t36 -43.5t13.5 -67v-222z"></glyph><glyph glyph-name="b" unicode="b" d="M162 179q0 -33 10 -56.5t26.5 -38.5t36 -21.5t39.5 -6.5q26 0 49 10.5t40 32.5t27 55.5t10 79.5q0 84 -31 124.5t-85 40.5q-25 0 -47 -9t-38.5 -26t-26.5 -42t-10 -57v-86zM131 0h-59v668h90v-294q17 52 58.5 75.5t89.5 23.5q85 0 133.5 -59.5t48.5 -171.5 q0 -53 -13.5 -99t-39 -80.5t-62 -54.5t-83.5 -20q-60 0 -93.5 23.5t-45.5 55.5z"></glyph><glyph glyph-name="c" unicode="c" d="M427 117q-6 -35 -22 -59.5t-40 -40t-54.5 -22.5t-64.5 -7q-45 0 -82.5 16t-64.5 46.5t-42 75t-15 102.5t15 103.5t42.5 77t66.5 48t87 16.5q74 0 118.5 -37.5t49.5 -106.5l-82 -17q-12 87 -90 87q-60 0 -90 -47.5t-30 -123.5q0 -37 8.5 -67.5t25 -53t39 -35t51.5 -12.5 q37 0 61 18t35 58z"></glyph><glyph glyph-name="d" unicode="d" d="M372 286q0 31 -10.5 53t-27 36t-37 21t-40.5 7q-26 0 -48.5 -9.5t-39 -30.5t-26.5 -54.5t-10 -82.5q0 -82 33 -124.5t90 -42.5q19 0 39.5 7.5t37.5 23.5t28 39t11 55v102zM371 668h91v-668h-80l-10 80q-20 -53 -58.5 -72.5t-88.5 -19.5q-36 0 -69.5 15t-58.5 44t-40 73 t-15 103q0 118 53.5 184t153.5 66q45 0 78.5 -21.5t43.5 -51.5v268z"></glyph><glyph glyph-name="e" unicode="e" d="M253 59q38 0 63.5 16.5t37.5 58.5l79 -21q-7 -35 -24.5 -59t-42 -38.5t-55 -21t-63.5 -6.5q-46 0 -84 15.5t-65 46t-42 75t-15 102.5q0 117 57 181.5t154 64.5q45 0 79 -14.5t57 -41t35 -62.5t12 -79q0 -20 -2.5 -36.5t-6.5 -27.5h-298q3 -68 34 -110.5t90 -42.5z M347 277q1 5 1 9.5v9.5q0 45 -26.5 75.5t-73.5 30.5q-50 0 -80 -32.5t-37 -92.5h216z"></glyph><glyph glyph-name="f" unicode="f" d="M14 390v72h67v52q0 45 13.5 76t35.5 50t50.5 27t59.5 8q28 0 52 -5.5t44 -13.5l-17 -77q-18 10 -34.5 15t-39.5 5q-35 0 -54 -19.5t-19 -69.5v-48h118v-72h-118v-390h-91v390h-67z"></glyph><glyph glyph-name="g" unicode="g" d="M229 473q84 0 134 -37q17 9 23.5 26.5t11.5 43.5l78 -27q-5 -33 -26.5 -54.5t-50.5 -28.5q21 -36 21 -87q0 -40 -15 -70t-41 -50t-60.5 -30t-73.5 -10q-17 0 -33.5 2t-26.5 6q-17 -9 -24 -21t-7 -27q0 -38 49 -38h113q79 0 120 -33t41 -96q0 -45 -22 -75t-58 -47t-81 -24 t-90 -7q-38 0 -74.5 5.5t-65 19.5t-45.5 37t-17 59q0 45 31 73t88 33q-32 4 -48 24t-16 48t15.5 49.5t52.5 31.5q-42 19 -66 54t-24 86q0 39 13.5 69.5t38.5 51.5t59 32t76 11zM94 -80q0 -37 35.5 -52t90.5 -15q70 0 112.5 16t42.5 60q0 26 -16.5 43.5t-61.5 17.5h-100 q-50 0 -76.5 -17t-26.5 -53zM132 310q0 -44 25 -70.5t72 -26.5q46 0 73.5 24t27.5 73t-27.5 73.5t-73.5 23.5q-46 0 -71.5 -25t-25.5 -72z"></glyph><glyph glyph-name="h" unicode="h" d="M162 374q33 99 140 99q28 0 53.5 -8t45 -25.5t30.5 -44.5t11 -65v-330h-90v304q0 42 -19.5 66.5t-61.5 24.5q-21 0 -40.5 -6t-35 -21t-24.5 -40t-9 -63v-265h-90v668h90v-294z"></glyph><glyph glyph-name="i" unicode="i" d="M56 610q0 27 18 43.5t42 16.5q26 0 44.5 -16.5t18.5 -43.5q0 -26 -18.5 -43t-44.5 -17q-24 0 -42 17t-18 43zM162 462v-462h-90v462h90z"></glyph><glyph glyph-name="j" unicode="j" d="M162 462v-469q0 -57 -15 -95.5t-43.5 -61.5t-69.5 -32t-92 -7v76q68 -6 99 21t31 95v473h90zM57 610q0 27 17.5 43.5t42.5 16.5q26 0 44 -16.5t18 -43.5q0 -26 -18 -43t-44 -17q-25 0 -42.5 17t-17.5 43z"></glyph><glyph glyph-name="k" unicode="k" d="M462 0h-111l-161 207h-28v-207h-90v668h90v-391h23l153 185h109l-186 -215z"></glyph><glyph glyph-name="l" unicode="l" d="M228 0q-18 -5 -31 -6.5t-25 -1.5q-44 0 -75 24t-31 76v576h90v-557q0 -22 11.5 -31.5t29.5 -9.5q10 0 17 1.5t15 3.5z"></glyph><glyph glyph-name="m" unicode="m" d="M424 371q9 28 24 47.5t34 31.5t41.5 17.5t45.5 5.5q29 0 54 -8t43.5 -25t29 -43.5t10.5 -62.5v-334h-90v304q0 43 -19 67t-58 24q-20 0 -39 -7t-33.5 -23t-23.5 -40.5t-9 -59.5v-265h-90v304q0 43 -19 67t-58 24q-20 0 -38.5 -7.5t-33.5 -23t-24 -40.5t-9 -59v-265h-90 v462h71l11 -89q18 53 57.5 76.5t86.5 23.5q50 0 83.5 -23.5t42.5 -78.5z"></glyph><glyph glyph-name="n" unicode="n" d="M154 373q19 52 57 76t91 24q28 0 53.5 -8t45 -25.5t30.5 -44.5t11 -65v-330h-90v303q0 43 -19.5 67.5t-61.5 24.5q-21 0 -40.5 -6.5t-35 -21.5t-24.5 -40t-9 -62v-265h-90v462h71z"></glyph><glyph glyph-name="o" unicode="o" d="M252 -12q-48 0 -86.5 16t-66 47.5t-42.5 77.5t-15 105q0 118 57 178.5t153 60.5t153.5 -60.5t57.5 -178.5q0 -119 -57.5 -182.5t-153.5 -63.5zM252 400q-121 0 -121 -167q0 -174 121 -174q122 0 122 174q0 167 -122 167z"></glyph><glyph glyph-name="p" unicode="p" d="M162 179q0 -33 10 -56.5t26.5 -38.5t36 -21.5t39.5 -6.5q26 0 49 10.5t40 32.5t27 55.5t10 79.5q0 84 -31 124.5t-85 40.5q-25 0 -47 -9t-38.5 -26.5t-26.5 -42.5t-10 -57v-85zM162 -203h-90v665h74l11 -89q10 28 27 47t38 31t43.5 17t44.5 5q85 0 133.5 -59.5 t48.5 -171.5q0 -53 -13.5 -99t-39 -80.5t-62.5 -54.5t-85 -20q-54 0 -86 21.5t-44 51.5v-264z"></glyph><glyph glyph-name="q" unicode="q" d="M372 286q0 31 -10.5 53t-27 36t-37 21t-40.5 7q-26 0 -48.5 -9.5t-39 -30.5t-26.5 -54.5t-10 -82.5q0 -82 33 -124.5t90 -42.5q19 0 39.5 7.5t37.5 23.5t28 39.5t11 55.5v101zM401 462h61v-665h-90v283q-20 -53 -58.5 -72.5t-88.5 -19.5q-36 0 -69.5 15t-58.5 44t-40 73 t-15 103q0 118 53.5 184t152.5 66q46 0 80.5 -21t45.5 -50z"></glyph><glyph glyph-name="r" unicode="r" d="M331 371q-8 2 -19 3t-22 1q-24 0 -47 -9.5t-41 -27.5t-29 -44t-11 -60v-234h-90v462h76l11 -125q13 62 57.5 100.5t121.5 34.5z"></glyph><glyph glyph-name="s" unicode="s" d="M107 128q5 -40 31.5 -58t68.5 -18q40 0 66 15t26 47q0 29 -15 45.5t-57 27.5l-68 16q-63 15 -89.5 47.5t-26.5 83.5q0 39 15 65.5t39 43t55.5 23.5t64.5 7q73 0 116 -28.5t50 -96.5l-88 -10q-4 67 -84 67q-38 0 -59.5 -16.5t-21.5 -45.5q0 -25 12.5 -41t50.5 -24l64 -15 q62 -15 95 -46.5t33 -92.5q0 -37 -14 -63t-38 -42t-56.5 -23.5t-70.5 -7.5q-79 0 -124 26.5t-55 89.5z"></glyph><glyph glyph-name="t" unicode="t" d="M322 15q-45 -27 -112 -27q-63 0 -98 32.5t-35 97.5v272h-67v72h67v98l91 11v-109h137v-72h-138v-254q0 -38 16 -54.5t45 -16.5q23 0 40 6t37 19z"></glyph><glyph glyph-name="u" unicode="u" d="M348 84q-17 -51 -52 -73.5t-90 -22.5q-32 0 -57.5 8.5t-44 27t-28.5 47.5t-10 70v321h90v-307q0 -100 83 -100q19 0 38 8.5t34.5 25t25 42t9.5 58.5v273h90v-462h-77z"></glyph><glyph glyph-name="v" unicode="v" d="M8 462h98l80 -254q10 -33 16.5 -59.5t11.5 -46.5q5 -23 8 -41h4q3 17 7 40q4 20 10 47t17 60l77 254h95l-158 -462h-105z"></glyph><glyph glyph-name="w" unicode="w" d="M448 222q10 -35 15.5 -63.5t9.5 -49.5q4 -25 6 -44h4q0 18 4 43q3 20 8 49.5t14 64.5l62 240h91l-126 -462h-108l-61 219q-10 33 -15.5 59.5t-8.5 46.5q-4 22 -6 40h-4q-1 -18 -5 -40q-6 -39 -23 -106l-58 -219h-108l-129 462h93l63 -240q9 -35 15 -63.5t10 -49.5 q4 -25 6 -44h4q1 19 5 44q3 21 8 50t15 64l64 239h90z"></glyph><glyph glyph-name="x" unicode="x" d="M254 107q-14 22 -22 37t-11 23q-4 10 -4 15h-4q-1 -5 -5 -15q-4 -8 -12 -22.5t-22 -37.5l-69 -107h-96l153 232l-145 230h104l57 -97q14 -24 22 -39t12 -23l6 -15h4q1 4 5 15q4 8 11.5 23.5t21.5 38.5l59 97h97l-145 -227l153 -235h-101z"></glyph><glyph glyph-name="y" unicode="y" d="M186 208q11 -34 17 -61t11 -46q4 -22 8 -39h4q3 17 7 39q4 19 10.5 45.5t17.5 61.5l77 254h94l-170 -500q-18 -51 -38 -84t-43 -52t-49.5 -26.5t-57.5 -7.5q-17 0 -34.5 3t-32.5 8l8 77q28 -14 60 -14q37 0 60.5 23t43.5 84l-171 489h99z"></glyph><glyph glyph-name="z" unicode="z" d="M186 148q-13 -19 -23 -32.5t-18 -22.5q-9 -11 -16 -18v-4q8 0 20 1q11 1 27 1.5t39 0.5h157v-74h-350v51l177 261q12 18 22.5 32t18.5 23q9 11 16 18v4q-9 -1 -21 -2q-11 -1 -26.5 -1h-38.5h-138v76h330v-60z"></glyph><glyph glyph-name="braceleft" unicode="{" d="M149 233q18 -2 33 -7.5t26 -17t17.5 -30t6.5 -46.5v-192q0 -38 12 -58t46 -20q20 0 33.5 4t27.5 12l16 -66q-24 -10 -47 -14t-49 -4q-35 0 -58.5 10t-37.5 28t-20 43t-6 56v193q0 25 -6 40t-15.5 23.5t-22 11t-25.5 2.5h-41v69h41q13 0 25.5 2.5t22 10.5t15.5 23t6 41 v192q0 31 6 56t20 43t37.5 28t58.5 10q26 0 49 -4t47 -14l-16 -65q-14 7 -27.5 11t-33.5 4q-34 0 -46 -19.5t-12 -58.5v-192q0 -29 -6.5 -47.5t-17.5 -29.5t-26 -16t-33 -8v-4z"></glyph><glyph glyph-name="bar" unicode="|" d="M100 -203v872h77v-872h-77z"></glyph><glyph glyph-name="braceright" unicode="}" d="M244 237q-18 3 -33 8t-26 16t-17.5 29.5t-6.5 47.5v192q0 39 -12 58.5t-45 19.5q-20 0 -34 -4t-28 -11l-16 65q24 10 47 14t49 4q35 0 58.5 -10t37.5 -28t20 -43t6 -56v-192q0 -26 6 -41t15.5 -23t22 -10.5t25.5 -2.5h41v-69h-41q-13 0 -25.5 -2.5t-22 -11t-15.5 -23.5 t-6 -40v-193q0 -62 -26 -99.5t-96 -37.5q-26 0 -49 4t-47 14l16 66q14 -8 28 -12t34 -4q33 0 45 20t12 58v192q0 28 6.5 46.5t17.5 30t26 17t33 7.5v4z"></glyph><glyph glyph-name="asciitilde" unicode="~" d="M306 198q-23 0 -38 6.5t-34 16.5q-20 12 -32.5 18.5t-27.5 6.5q-16 0 -24.5 -10.5t-5.5 -36.5h-55q-9 24 -8 47t11 40.5t28.5 28t42.5 10.5q26 0 43 -7.5t36 -18.5q20 -12 31 -17.5t24 -5.5q14 0 22.5 10.5t6.5 38.5h57q9 -26 8 -49.5t-11 -40.5t-28.5 -27t-45.5 -10z "></glyph><glyph glyph-name="nonbreakingspace" unicode=" "></glyph><glyph glyph-name="exclamdown" unicode="¡" d="M57 -126l27 415h61l27 -415h-115zM51 407q0 26 18.5 44t44.5 18q27 0 45.5 -18t18.5 -44q0 -27 -18.5 -44.5t-45.5 -17.5q-26 0 -44.5 17.5t-18.5 44.5z"></glyph><glyph glyph-name="cent" unicode="¢" d="M248 -11q-44 4 -80.5 21.5t-63 48.5t-41.5 76t-15 104q0 56 14.5 100t41 76t63 51t81.5 25v83h50v-82q67 -2 109 -31t66 -86l-81 -44q-14 37 -36.5 59t-57.5 27v-355q35 4 59.5 21.5t45.5 54.5l70 -49q-30 -50 -72.5 -73t-102.5 -27v-95h-50v95zM141 243q0 -75 27 -121 t80 -57v351q-52 -11 -79.5 -56t-27.5 -117z"></glyph><glyph glyph-name="sterling" unicode="£" d="M211 198q2 -11 4 -22.5t2 -22.5q0 -28 -11 -48t-33 -29h167q12 0 23.5 1.5t21 7t17 15t11.5 25.5l67 -36q-10 -44 -43.5 -66.5t-84.5 -22.5h-293v78h29q23 0 35 18t12 45q0 16 -4 29.5t-9 27.5h-86v55h65q-5 17 -8.5 37.5t-3.5 46.5q0 41 15.5 70.5t40.5 48.5t57 28t65 9 q66 0 109.5 -29.5t54.5 -100.5l-83 -17q-7 35 -25 55t-60 20q-40 0 -63.5 -21t-23.5 -66q0 -22 5 -41.5t12 -39.5h152v-55h-134z"></glyph><glyph glyph-name="currency" unicode="¤" d="M389 490l33 -33l-71 -71q11 -19 17 -42.5t6 -52.5q0 -55 -20 -93l68 -67l-33 -33l-64 64q-37 -34 -98 -34q-30 0 -55.5 8.5t-44.5 25.5l-64 -64l-33 33l69 69q-9 19 -14 41.5t-5 49.5q0 55 22 94l-72 72l33 33l69 -70q36 30 95 30q56 0 93 -29zM227 397q-70 0 -70 -106 q0 -110 70 -110t70 110q0 106 -70 106z"></glyph><glyph glyph-name="yen" unicode="¥" d="M300 142v-142h-91v142h-153v50h138l-28 50h-110v50h83l-105 189h104l78 -153q13 -24 20.5 -42t11.5 -29q4 -13 6 -22h4q2 10 6 23q4 11 11 28.5t19 40.5l79 154h97l-102 -189h82v-50h-109l-27 -50h136v-50h-150z"></glyph><glyph glyph-name="brokenbar" unicode="¦" d="M100 278v391h77v-391h-77zM100 -203v391h77v-391h-77z"></glyph><glyph glyph-name="section" unicode="§" d="M126 35q6 -40 35 -56.5t67 -16.5q35 0 59.5 14t24.5 44q0 23 -15.5 41.5t-56.5 30.5l-73 21q-57 17 -83 47t-26 75t23 70t60 36q-45 18 -64 51t-19 70q0 39 14.5 65.5t38.5 43t54 23.5t60 7q78 0 122 -29t50 -96l-89 -10q-2 34 -24.5 50t-58.5 16q-79 0 -79 -62 q0 -23 13 -38.5t51 -28.5l66 -21q26 -8 48.5 -18.5t39.5 -25t26.5 -35t9.5 -49.5q0 -43 -22.5 -70.5t-63.5 -33.5q38 -14 61.5 -47.5t23.5 -73.5q0 -37 -14 -63t-38 -42t-56.5 -23.5t-70.5 -7.5q-77 0 -124 30.5t-56 93.5zM312 239q0 18 -9 30t-25 21.5t-37.5 16.5t-46.5 15 q-21 -8 -35 -25.5t-14 -43.5q0 -19 6.5 -31.5t21 -21.5t36.5 -16t52 -15q17 7 34 24t17 46z"></glyph><glyph glyph-name="dieresis" unicode="¨" d="M80 595q0 26 17.5 43t41.5 17q25 0 42.5 -17t17.5 -43t-17.5 -42.5t-42.5 -16.5q-24 0 -41.5 16.5t-17.5 42.5zM276 594q0 26 17.5 43t41.5 17q26 0 43 -17t17 -43q0 -25 -17 -42t-43 -17q-24 0 -41.5 17t-17.5 42z"></glyph><glyph glyph-name="copyright" unicode="©" d="M510 178q-28 -39 -65.5 -58t-93.5 -19q-39 0 -72 12t-57.5 36t-38.5 60.5t-14 85.5q0 46 14 82.5t39.5 61t60 37.5t76.5 13q59 0 94 -22.5t57 -67.5l-69 -38q-23 62 -85 62q-49 0 -78 -32.5t-29 -95.5q0 -60 28 -93.5t81 -33.5q32 0 53 13t40 42zM45 294q0 67 24 123 t65.5 97t97.5 64t119 23t119 -23t98 -64t66 -97t24 -123t-24 -123t-66 -96.5t-98 -63.5t-119 -23t-119 23t-97.5 63.5t-65.5 96.5t-24 123zM76 294q0 -61 21.5 -112t59 -87.5t88 -57t107.5 -20.5t107 20.5t87.5 57t59.5 87.5t22 112t-22 112t-59.5 88t-87.5 57.5t-107 20.5 t-107.5 -20.5t-88 -57.5t-59 -88t-21.5 -112z"></glyph><glyph glyph-name="ordfeminine" unicode="ª" d="M211 423q-54 1 -77.5 -11.5t-23.5 -40.5q0 -19 10.5 -30t32.5 -11q20 0 39 12t19 38v43zM287 363q0 -14 6 -18.5t14 -4.5t13.5 2.5t10.5 5.5v-55q-8 -5 -21.5 -8t-27.5 -3q-26 0 -44 10t-23 36q-11 -27 -35 -38t-54 -11q-40 0 -65.5 21.5t-25.5 60.5q0 51 40.5 78.5 t135.5 24.5v28q0 28 -12.5 40.5t-34.5 12.5t-34.5 -12t-14.5 -31l-70 10q2 24 13 41t28 27.5t38.5 15.5t44.5 5t44 -4.5t37.5 -16t26.5 -29.5t10 -45v-143z"></glyph><glyph glyph-name="guillemotleft" unicode="«" d="M301 231q5 -3 13 -9q7 -5 17.5 -15t24.5 -27l98 -116l-48 -43l-186 213l186 213l48 -49l-99 -114q-14 -17 -24 -26.5t-17 -14.5q-8 -6 -13 -8v-4zM110 231q6 -3 14 -9q14 -11 41 -42l99 -116l-49 -43l-185 213l185 213l49 -49l-99 -114q-14 -17 -24.5 -26.5t-17.5 -14.5 q-8 -6 -13 -8v-4z"></glyph><glyph glyph-name="logicalnot" unicode="¬" d="M46 262v53h408v-189h-59v136h-349z"></glyph><glyph glyph-name="uni00AD" unicode="­" d="M68 295h224v-76h-224v76z"></glyph><glyph glyph-name="registered" unicode="®" d="M430 120q-7 9 -11 17.5t-7 22.5l-11 45q-7 26 -27.5 37t-47.5 11h-28v-133h-74v361h141q61 0 97 -27t36 -85q0 -45 -28 -68t-72 -25q29 -5 49 -16t29 -41l14 -54q4 -13 9 -24.5t13 -20.5h-82zM298 310h48q45 0 62 14t17 40t-18 41t-51 15h-58v-110zM45 294q0 67 24 123 t65.5 97t97.5 64t119 23t119 -23t98 -64t66 -97t24 -123t-24 -123t-66 -96.5t-98 -63.5t-119 -23t-119 23t-97.5 63.5t-65.5 96.5t-24 123zM76 294q0 -61 21.5 -112t59 -87.5t88 -57t107.5 -20.5t107 20.5t87.5 57t59.5 87.5t22 112t-22 112t-59.5 88t-87.5 57.5t-107 20.5 t-107.5 -20.5t-88 -57.5t-59 -88t-21.5 -112z"></glyph><glyph glyph-name="macron" unicode="¯" d="M80 558v73h262v-73h-262z"></glyph><glyph glyph-name="degree" unicode="°" d="M36 505q0 40 26.5 68t68.5 28t68.5 -28t26.5 -68q0 -39 -26.5 -66.5t-68.5 -27.5t-68.5 27.5t-26.5 66.5zM85 505q0 -20 12.5 -34.5t33.5 -14.5t33.5 14.5t12.5 34.5q0 21 -12.5 35.5t-33.5 14.5t-33.5 -14.5t-12.5 -35.5z"></glyph><glyph glyph-name="plusminus" unicode="±" d="M220 340v134h54v-134h179v-54h-179v-148h-54v148h-175v54h175zM45 43v53h408v-53h-408z"></glyph><glyph glyph-name="twosuperior" unicode="²" d="M288 236h-266v52q43 30 75.5 54.5t54.5 47t33.5 44.5t11.5 47q0 26 -14 39.5t-40 13.5q-30 0 -44.5 -19.5t-15.5 -48.5l-60 27q0 19 9 37.5t25.5 33.5t40.5 24t56 9q24 0 45 -6.5t37.5 -20t26 -34t9.5 -48.5q0 -38 -16.5 -68t-41 -53t-52.5 -40.5t-50 -29.5v-4h176v-57z "></glyph><glyph glyph-name="threesuperior" unicode="³" d="M182 417q51 -5 74.5 -28.5t23.5 -62.5q0 -47 -37.5 -72t-97.5 -25q-59 0 -93 22.5t-42 58.5l62 25q6 -23 26 -37.5t48 -14.5q27 0 43.5 11t16.5 37q0 27 -22 43t-83 17v48q54 2 75 16t21 39q0 21 -14 33.5t-38 12.5q-21 0 -37.5 -11.5t-21.5 -34.5l-61 23q9 36 41.5 58 t84.5 22q23 0 44.5 -5t37.5 -16.5t25.5 -29t9.5 -41.5q0 -33 -19.5 -56t-66.5 -29v-3z"></glyph><glyph glyph-name="acute" unicode="´" d="M83 529l74 146h121l-116 -146h-79z"></glyph><glyph glyph-name="mu" unicode="µ" d="M350 87q-17 -56 -52 -77t-76 -22q-23 0 -40 6t-24 14v-211h-90v665h90v-301q0 -100 77 -100q15 0 35 6.5t37.5 20.5t29.5 37.5t12 58.5v278h89v-462h-77z"></glyph><glyph glyph-name="paragraph" unicode="¶" d="M401 -21q0 -38 -10.5 -65t-29.5 -44t-45.5 -25t-57.5 -8q-28 0 -52 5.5t-53 21.5l24 82q19 -17 39 -23.5t38 -6.5q26 0 40.5 12.5t14.5 46.5v199h-48q-109 0 -169 49t-60 152q0 112 70 163t198 51h180v-72h-79v-538z"></glyph><glyph glyph-name="periodcentered" unicode="·" d="M75 266q0 29 19.5 48.5t48.5 19.5t48.5 -19.5t19.5 -48.5t-19.5 -48.5t-48.5 -19.5t-48.5 19.5t-19.5 48.5z"></glyph><glyph glyph-name="periodcentered" unicode="⋅" d="M75 266q0 29 19.5 48.5t48.5 19.5t48.5 -19.5t19.5 -48.5t-19.5 -48.5t-48.5 -19.5t-48.5 19.5t-19.5 48.5z"></glyph><glyph glyph-name="cedilla" unicode="¸" d="M273 -124q0 -45 -30.5 -66t-74.5 -21q-62 0 -90 38l24 51q25 -36 63 -36q17 0 26.5 8.5t9.5 25.5q0 19 -15.5 30t-50.5 12l7 90h46l-3 -49q47 -4 67.5 -25.5t20.5 -57.5z"></glyph><glyph glyph-name="onesuperior" unicode="¹" d="M32 236v56h96v228l-106 -11v58l178 23v-298h86v-56h-254z"></glyph><glyph glyph-name="ordmasculine" unicode="º" d="M191 279q-66 0 -106.5 41.5t-40.5 121.5q0 78 40.5 118.5t106.5 40.5t106.5 -40.5t40.5 -118.5q0 -80 -40.5 -121.5t-106.5 -41.5zM191 548q-70 0 -70 -106q0 -110 70 -110t70 110q0 106 -70 106z"></glyph><glyph glyph-name="guillemotright" unicode="»" d="M184 235q-5 2 -13 8q-7 5 -17.5 14.5t-24.5 26.5l-99 114l49 49l185 -213l-185 -213l-48 43l98 116q14 17 24.5 27t17.5 15q8 6 13 9v4zM374 235q-5 2 -13 8q-7 5 -17.5 14.5t-24.5 26.5l-99 114l49 49l186 -213l-186 -213l-48 43l98 116q14 17 24.5 27t17.5 15q8 6 13 9 v4z"></glyph><glyph glyph-name="onequarter" unicode="¼" d="M51 236v56h96v228l-106 -11v58l178 23v-298h86v-56h-254zM707 86h-179v54l176 213h75v-213h57v-54h-57v-86h-72v86zM709 223q0 15 0.5 27.5t1.5 22.5q1 11 2 21h-4q-3 -7 -8 -17q-5 -8 -11.5 -19t-15.5 -23l-42 -50q-9 -11 -17.5 -19.5t-15.5 -14.5q-8 -7 -15 -12v-4 q5 1 13 2q7 1 17 1.5t26 0.5h69v84zM554 590h62l-306 -590h-62z"></glyph><glyph glyph-name="onehalf" unicode="½" d="M51 236v56h96v228l-106 -11v58l178 23v-298h86v-56h-254zM554 590h62l-306 -590h-62zM802 0h-266v52q43 30 75.5 54.5t54.5 47t33.5 44.5t11.5 47q0 26 -14 39.5t-40 13.5q-30 0 -44.5 -19.5t-15.5 -48.5l-60 27q0 19 9 37.5t25.5 33.5t40.5 24t56 9q24 0 45 -6.5 t37.5 -20t26 -34t9.5 -48.5q0 -38 -16.5 -68t-41 -53t-52.5 -40.5t-50 -29.5v-4h176v-57z"></glyph><glyph glyph-name="threequarters" unicode="¾" d="M211 417q51 -5 74.5 -28.5t23.5 -62.5q0 -47 -37.5 -72t-97.5 -25q-59 0 -93 22.5t-42 58.5l62 25q6 -23 26 -37.5t48 -14.5q27 0 43.5 11t16.5 37q0 27 -22 43t-83 17v48q54 2 75 16t21 39q0 21 -14 33.5t-38 12.5q-21 0 -37.5 -11.5t-21.5 -34.5l-61 23q9 36 41.5 58 t84.5 22q23 0 44.5 -5t37.5 -16.5t25.5 -29t9.5 -41.5q0 -33 -19.5 -56t-66.5 -29v-3zM554 590h62l-306 -590h-62zM707 86h-179v54l176 213h75v-213h57v-54h-57v-86h-72v86zM709 223q0 15 0.5 27.5t1.5 22.5q1 11 2 21h-4q-3 -7 -8 -17q-5 -8 -11.5 -19t-15.5 -23l-42 -50 q-9 -11 -17.5 -19.5t-15.5 -14.5q-8 -7 -15 -12v-4q5 1 13 2q7 1 17 1.5t26 0.5h69v84z"></glyph><glyph glyph-name="questiondown" unicode="¿" d="M394 2q-14 -63 -60.5 -102t-128.5 -39q-43 0 -77.5 13t-59 36t-38 55t-13.5 71q0 46 15.5 79.5t40 55t55.5 32.5t62 12v82h82v-134h-36q-57 0 -91.5 -28t-34.5 -92q0 -55 28 -80.5t73 -25.5q40 0 67.5 22t35.5 72zM294 406q0 -27 -18 -44.5t-45 -17.5t-45.5 17.5 t-18.5 44.5q0 26 18.5 44t45.5 18t45 -18t18 -44z"></glyph><glyph glyph-name="Agrave" unicode="À" d="M403 161h-241l-56 -161h-96l215 589h121l213 -589h-99zM188 237h188l-45 132q-13 35 -21.5 63.5t-13.5 48.5q-6 24 -11 43h-4q-5 -19 -11 -43q-6 -20 -14.5 -48t-20.5 -63zM248 653l-100 123h120l63 -123h-83z"></glyph><glyph glyph-name="Aacute" unicode="Á" d="M403 161h-241l-56 -161h-96l215 589h121l213 -589h-99zM188 237h188l-45 132q-13 35 -21.5 63.5t-13.5 48.5q-6 24 -11 43h-4q-5 -19 -11 -43q-6 -20 -14.5 -48t-20.5 -63zM240 653l63 123h120l-101 -123h-82z"></glyph><glyph glyph-name="Acircumflex" unicode="Â" d="M403 161h-241l-56 -161h-96l215 589h121l213 -589h-99zM188 237h188l-45 132q-13 35 -21.5 63.5t-13.5 48.5q-6 24 -11 43h-4q-5 -19 -11 -43q-6 -20 -14.5 -48t-20.5 -63zM310 782l125 -129h-97l-31 33q-14 14 -19 24q-3 5 -4 10h-3q-1 -5 -4 -10q-2 -5 -7 -10.5 t-12 -13.5l-32 -33h-96l124 129h56z"></glyph><glyph glyph-name="Atilde" unicode="Ã" d="M403 161h-241l-56 -161h-96l215 589h121l213 -589h-99zM188 237h188l-45 132q-13 35 -21.5 63.5t-13.5 48.5q-6 24 -11 43h-4q-5 -19 -11 -43q-6 -20 -14.5 -48t-20.5 -63zM354 653q-23 0 -38 7t-34 17q-20 11 -32.5 18t-27.5 7q-16 0 -24.5 -10.5t-5.5 -36.5h-55 q-9 24 -8 46.5t11 40.5t28.5 28.5t42.5 10.5q26 0 43 -7.5t36 -18.5q20 -13 31 -18.5t24 -5.5q14 0 22.5 11t6.5 38h57q9 -26 8 -49.5t-11 -40.5t-28.5 -27t-45.5 -10z"></glyph><glyph glyph-name="Adieresis" unicode="Ä" d="M403 161h-241l-56 -161h-96l215 589h121l213 -589h-99zM188 237h188l-45 132q-13 35 -21.5 63.5t-13.5 48.5q-6 24 -11 43h-4q-5 -19 -11 -43q-6 -20 -14.5 -48t-20.5 -63zM126 713q0 26 17.5 43t41.5 17q25 0 42.5 -17t17.5 -43t-17.5 -42.5t-42.5 -16.5 q-24 0 -41.5 16.5t-17.5 42.5zM322 712q0 26 17.5 43t41.5 17q26 0 43 -17t17 -43q0 -25 -17 -42t-43 -17q-24 0 -41.5 17t-17.5 42z"></glyph><glyph glyph-name="Aring" unicode="Å" d="M403 161h-241l-56 -161h-96l215 589h121l213 -589h-99zM188 237h188l-45 132q-13 35 -21.5 63.5t-13.5 48.5q-6 24 -11 43h-4q-5 -19 -11 -43q-6 -20 -14.5 -48t-20.5 -63zM283 635q-50 0 -76.5 29t-26.5 71q0 39 28 68t75 29t75 -29t28 -68q0 -42 -26.5 -71t-76.5 -29z M283 790q-26 0 -40.5 -16t-14.5 -41q0 -23 14 -38t41 -15t41 15t14 38q0 25 -14.5 41t-40.5 16z"></glyph><glyph glyph-name="AE" unicode="Æ" d="M420 0v161h-214l-98 -161h-100l361 589h414v-80h-271v-174h240v-80h-240v-175h271v-80h-363zM250 237h170v135q-1 38 0 65.5t3 46.5q2 22 3 38h-4z"></glyph><glyph glyph-name="Ccedilla" unicode="Ç" d="M413 -124q0 -45 -30.5 -66t-74.5 -21q-62 0 -90 38l24 51q25 -36 63 -36q17 0 26.5 8.5t9.5 25.5q0 19 -15.5 30t-50.5 12l5 71q-53 4 -96.5 25.5t-74.5 60t-48 93.5t-17 125q0 74 20 131.5t56 96.5t86.5 59.5t112.5 20.5q161 0 221 -142l-86 -42q-18 53 -54 79t-86 26 q-83 0 -128.5 -61.5t-45.5 -167.5q0 -105 42 -164t127 -59q54 0 91.5 21.5t67.5 70.5l71 -52q-38 -58 -87 -87.5t-125 -33.5l-2 -30q47 -4 67.5 -25.5t20.5 -57.5z"></glyph><glyph glyph-name="Egrave" unicode="È" d="M446 0h-363v589h363v-80h-271v-174h240v-80h-240v-175h271v-80zM228 653l-100 123h120l63 -123h-83z"></glyph><glyph glyph-name="Eacute" unicode="É" d="M446 0h-363v589h363v-80h-271v-174h240v-80h-240v-175h271v-80zM220 653l63 123h120l-101 -123h-82z"></glyph><glyph glyph-name="Ecircumflex" unicode="Ê" d="M446 0h-363v589h363v-80h-271v-174h240v-80h-240v-175h271v-80zM292 782l125 -129h-97l-31 33q-14 14 -19 24q-3 5 -4 10h-3q-1 -5 -4 -10q-2 -5 -7 -10.5t-12 -13.5l-32 -33h-96l124 129h56z"></glyph><glyph glyph-name="Edieresis" unicode="Ë" d="M446 0h-363v589h363v-80h-271v-174h240v-80h-240v-175h271v-80zM106 713q0 26 17.5 43t41.5 17q25 0 42.5 -17t17.5 -43t-17.5 -42.5t-42.5 -16.5q-24 0 -41.5 16.5t-17.5 42.5zM302 712q0 26 17.5 43t41.5 17q26 0 43 -17t17 -43q0 -25 -17 -42t-43 -17q-24 0 -41.5 17 t-17.5 42z"></glyph><glyph glyph-name="Igrave" unicode="Ì" d="M175 589v-589h-92v589h92zM92 653l-100 123h120l63 -123h-83z"></glyph><glyph glyph-name="Iacute" unicode="Í" d="M175 589v-589h-92v589h92zM85 653l63 123h120l-101 -123h-82z"></glyph><glyph glyph-name="Icircumflex" unicode="Î" d="M175 589v-589h-92v589h92zM157 782l125 -129h-97l-31 33q-14 14 -19 24q-3 5 -4 10h-3q-1 -5 -4 -10q-2 -5 -7 -10.5t-12 -13.5l-32 -33h-96l124 129h56z"></glyph><glyph glyph-name="Idieresis" unicode="Ï" d="M175 589v-589h-92v589h92zM-29 713q0 26 17.5 43t41.5 17q25 0 42.5 -17t17.5 -43t-17.5 -42.5t-42.5 -16.5q-24 0 -41.5 16.5t-17.5 42.5zM167 712q0 26 17.5 43t41.5 17q26 0 43 -17t17 -43q0 -25 -17 -42t-43 -17q-24 0 -41.5 17t-17.5 42z"></glyph><glyph glyph-name="Eth" unicode="Ð" d="M83 0v256h-59v78h59v255h183q62 0 114 -16t90 -50.5t59 -89t21 -132.5q0 -82 -23 -139t-62 -93t-91 -52.5t-111 -16.5h-180zM254 77q43 0 80 12t63 38.5t41 68.5t15 101q0 62 -15 103.5t-41 66t-60.5 35t-73.5 10.5h-88v-178h111v-78h-111v-179h79z"></glyph><glyph glyph-name="Ntilde" unicode="Ñ" d="M409 252q13 -20 25.5 -40t21.5 -36q11 -19 20 -36h4q-2 19 -3 41q-1 19 -1.5 43.5t-0.5 52.5v312h92v-589h-91l-235 336q-14 20 -26.5 40t-21.5 37q-11 19 -20 37h-4q1 -19 3 -41q1 -19 2 -44t1 -54v-311h-92v589h94zM395 653q-23 0 -38 7t-34 17q-20 11 -32.5 18 t-27.5 7q-16 0 -24.5 -10.5t-5.5 -36.5h-55q-9 24 -8 46.5t11 40.5t28.5 28.5t42.5 10.5q26 0 43 -7.5t36 -18.5q20 -13 31 -18.5t24 -5.5q14 0 22.5 11t6.5 38h57q9 -26 8 -49.5t-11 -40.5t-28.5 -27t-45.5 -10z"></glyph><glyph glyph-name="Ograve" unicode="Ò" d="M310 -12q-61 0 -110 20t-83.5 59t-53.5 96t-19 131t19 131t53.5 96t83.5 59.5t110 20.5t110 -20.5t83.5 -59.5t53 -96t18.5 -131t-18.5 -131t-53 -96t-83.5 -59t-110 -20zM310 520q-84 0 -126.5 -60t-42.5 -166t42.5 -166t126.5 -60t126 60t42 166t-42.5 166t-125.5 60z M273 653l-100 123h120l63 -123h-83z"></glyph><glyph glyph-name="Oacute" unicode="Ó" d="M310 -12q-61 0 -110 20t-83.5 59t-53.5 96t-19 131t19 131t53.5 96t83.5 59.5t110 20.5t110 -20.5t83.5 -59.5t53 -96t18.5 -131t-18.5 -131t-53 -96t-83.5 -59t-110 -20zM310 520q-84 0 -126.5 -60t-42.5 -166t42.5 -166t126.5 -60t126 60t42 166t-42.5 166t-125.5 60z M265 653l63 123h120l-101 -123h-82z"></glyph><glyph glyph-name="Ocircumflex" unicode="Ô" d="M310 -12q-61 0 -110 20t-83.5 59t-53.5 96t-19 131t19 131t53.5 96t83.5 59.5t110 20.5t110 -20.5t83.5 -59.5t53 -96t18.5 -131t-18.5 -131t-53 -96t-83.5 -59t-110 -20zM310 520q-84 0 -126.5 -60t-42.5 -166t42.5 -166t126.5 -60t126 60t42 166t-42.5 166t-125.5 60z M337 782l125 -129h-97l-31 33q-14 14 -19 24q-3 5 -4 10h-3q-1 -5 -4 -10q-2 -5 -7 -10.5t-12 -13.5l-32 -33h-96l124 129h56z"></glyph><glyph glyph-name="Otilde" unicode="Õ" d="M310 -12q-61 0 -110 20t-83.5 59t-53.5 96t-19 131t19 131t53.5 96t83.5 59.5t110 20.5t110 -20.5t83.5 -59.5t53 -96t18.5 -131t-18.5 -131t-53 -96t-83.5 -59t-110 -20zM310 520q-84 0 -126.5 -60t-42.5 -166t42.5 -166t126.5 -60t126 60t42 166t-42.5 166t-125.5 60z M379 653q-23 0 -38 7t-34 17q-20 11 -32.5 18t-27.5 7q-16 0 -24.5 -10.5t-5.5 -36.5h-55q-9 24 -8 46.5t11 40.5t28.5 28.5t42.5 10.5q26 0 43 -7.5t36 -18.5q20 -13 31 -18.5t24 -5.5q14 0 22.5 11t6.5 38h57q9 -26 8 -49.5t-11 -40.5t-28.5 -27t-45.5 -10z"></glyph><glyph glyph-name="Odieresis" unicode="Ö" d="M310 -12q-61 0 -110 20t-83.5 59t-53.5 96t-19 131t19 131t53.5 96t83.5 59.5t110 20.5t110 -20.5t83.5 -59.5t53 -96t18.5 -131t-18.5 -131t-53 -96t-83.5 -59t-110 -20zM310 520q-84 0 -126.5 -60t-42.5 -166t42.5 -166t126.5 -60t126 60t42 166t-42.5 166t-125.5 60z M151 713q0 26 17.5 43t41.5 17q25 0 42.5 -17t17.5 -43t-17.5 -42.5t-42.5 -16.5q-24 0 -41.5 16.5t-17.5 42.5zM347 712q0 26 17.5 43t41.5 17q26 0 43 -17t17 -43q0 -25 -17 -42t-43 -17q-24 0 -41.5 17t-17.5 42z"></glyph><glyph glyph-name="multiply" unicode="×" d="M181 249l-132 133l37 38l133 -133l140 139l37 -37l-139 -140l143 -143l-37 -37l-144 142l-137 -136l-37 38z"></glyph><glyph glyph-name="Oslash" unicode="Ø" d="M31 26l63 70q-50 76 -50 198q0 74 19 131t53.5 96t83.5 59.5t110 20.5q109 0 178 -64l54 60l46 -41l-61 -67q48 -77 48 -195q0 -74 -18.5 -131t-53 -96t-83.5 -59t-110 -20q-54 0 -99 15.5t-79 47.5l-58 -65zM310 520q-84 0 -125.5 -60t-41.5 -166q0 -74 19 -122l265 296 q-21 25 -50 38.5t-67 13.5zM476 294q0 68 -18 118l-265 -294q41 -50 117 -50q84 0 125 60t41 166z"></glyph><glyph glyph-name="Ugrave" unicode="Ù" d="M518 589v-396q0 -57 -19.5 -96.5t-51 -63.5t-72.5 -34.5t-84 -10.5q-44 0 -84.5 10.5t-72.5 34.5t-51 63.5t-19 96.5v396h92v-372q0 -80 35 -116.5t100 -36.5q64 0 99 36.5t35 114.5v374h93zM254 653l-100 123h120l63 -123h-83z"></glyph><glyph glyph-name="Uacute" unicode="Ú" d="M518 589v-396q0 -57 -19.5 -96.5t-51 -63.5t-72.5 -34.5t-84 -10.5q-44 0 -84.5 10.5t-72.5 34.5t-51 63.5t-19 96.5v396h92v-372q0 -80 35 -116.5t100 -36.5q64 0 99 36.5t35 114.5v374h93zM246 653l63 123h120l-101 -123h-82z"></glyph><glyph glyph-name="Ucircumflex" unicode="Û" d="M518 589v-396q0 -57 -19.5 -96.5t-51 -63.5t-72.5 -34.5t-84 -10.5q-44 0 -84.5 10.5t-72.5 34.5t-51 63.5t-19 96.5v396h92v-372q0 -80 35 -116.5t100 -36.5q64 0 99 36.5t35 114.5v374h93zM318 782l125 -129h-97l-31 33q-14 14 -19 24q-3 5 -4 10h-3q-1 -5 -4 -10 q-2 -5 -7 -10.5t-12 -13.5l-32 -33h-96l124 129h56z"></glyph><glyph glyph-name="Udieresis" unicode="Ü" d="M518 589v-396q0 -57 -19.5 -96.5t-51 -63.5t-72.5 -34.5t-84 -10.5q-44 0 -84.5 10.5t-72.5 34.5t-51 63.5t-19 96.5v396h92v-372q0 -80 35 -116.5t100 -36.5q64 0 99 36.5t35 114.5v374h93zM132 713q0 26 17.5 43t41.5 17q25 0 42.5 -17t17.5 -43t-17.5 -42.5 t-42.5 -16.5q-24 0 -41.5 16.5t-17.5 42.5zM328 712q0 26 17.5 43t41.5 17q26 0 43 -17t17 -43q0 -25 -17 -42t-43 -17q-24 0 -41.5 17t-17.5 42z"></glyph><glyph glyph-name="Yacute" unicode="Ý" d="M207 402q13 -26 20.5 -44t12.5 -31q5 -15 8 -25h4q2 10 7 25q7 24 31 75l87 187h97l-180 -366v-223h-92v223l-192 366h105zM198 653l63 123h120l-101 -123h-82z"></glyph><glyph glyph-name="Thorn" unicode="Þ" d="M175 197h85q65 0 89.5 28t24.5 78q0 103 -115 103h-84v-209zM83 0v589h92v-105h86q110 0 159 -45.5t49 -130.5q0 -89 -49.5 -138t-149.5 -49h-95v-121h-92z"></glyph><glyph glyph-name="germandbls" unicode="ß" d="M72 451q0 60 15 102.5t42 69.5t65 39.5t84 12.5q89 0 136 -43t47 -112q0 -64 -32 -97.5t-86 -41.5v-4q73 -5 114 -52.5t41 -132.5q0 -93 -43 -148.5t-134 -55.5q-48 0 -76.5 16.5t-48.5 51.5l44 61q14 -29 33 -44t48 -15q42 0 64 32t22 105q0 66 -36 105.5t-102 39.5h-51 v72h41q60 0 85.5 26t25.5 69q0 45 -25 71t-71 26q-24 0 -44.5 -7.5t-35.5 -25.5t-23.5 -48t-8.5 -75v-448h-90v451z"></glyph><glyph glyph-name="agrave" unicode="à" d="M305 206q-94 2 -136 -18.5t-42 -64.5q0 -29 18.5 -48t55.5 -19q18 0 36.5 5.5t33.5 16t24.5 26t9.5 35.5v67zM396 109q0 -26 10 -34.5t24 -8.5t26 5v-70q-21 -8 -49 -8q-40 0 -64.5 17.5t-30.5 56.5q-18 -44 -55 -61.5t-82 -17.5q-61 0 -99.5 32.5t-38.5 92.5 q0 38 15.5 68t48 49.5t83 28.5t121.5 6v57q0 43 -23 61t-60 18q-38 0 -59.5 -19t-24.5 -55l-86 13q3 37 19 62t40.5 41t55.5 23t63 7q34 0 64 -7.5t52.5 -24t36 -43.5t13.5 -67v-222zM200 529l-115 146h121l74 -146h-80z"></glyph><glyph glyph-name="aacute" unicode="á" d="M305 206q-94 2 -136 -18.5t-42 -64.5q0 -29 18.5 -48t55.5 -19q18 0 36.5 5.5t33.5 16t24.5 26t9.5 35.5v67zM396 109q0 -26 10 -34.5t24 -8.5t26 5v-70q-21 -8 -49 -8q-40 0 -64.5 17.5t-30.5 56.5q-18 -44 -55 -61.5t-82 -17.5q-61 0 -99.5 32.5t-38.5 92.5 q0 38 15.5 68t48 49.5t83 28.5t121.5 6v57q0 43 -23 61t-60 18q-38 0 -59.5 -19t-24.5 -55l-86 13q3 37 19 62t40.5 41t55.5 23t63 7q34 0 64 -7.5t52.5 -24t36 -43.5t13.5 -67v-222zM185 529l74 146h121l-116 -146h-79z"></glyph><glyph glyph-name="acircumflex" unicode="â" d="M305 206q-94 2 -136 -18.5t-42 -64.5q0 -29 18.5 -48t55.5 -19q18 0 36.5 5.5t33.5 16t24.5 26t9.5 35.5v67zM396 109q0 -26 10 -34.5t24 -8.5t26 5v-70q-21 -8 -49 -8q-40 0 -64.5 17.5t-30.5 56.5q-18 -44 -55 -61.5t-82 -17.5q-61 0 -99.5 32.5t-38.5 92.5 q0 38 15.5 68t48 49.5t83 28.5t121.5 6v57q0 43 -23 61t-60 18q-38 0 -59.5 -19t-24.5 -55l-86 13q3 37 19 62t40.5 41t55.5 23t63 7q34 0 64 -7.5t52.5 -24t36 -43.5t13.5 -67v-222zM258 675l125 -147h-92l-34 42q-8 8 -12.5 15.5t-6.5 12.5q-3 6 -4 10h-5q-1 -4 -4 -10 q-4 -10 -19 -28l-34 -42h-92l125 147h53z"></glyph><glyph glyph-name="atilde" unicode="ã" d="M305 206q-94 2 -136 -18.5t-42 -64.5q0 -29 18.5 -48t55.5 -19q18 0 36.5 5.5t33.5 16t24.5 26t9.5 35.5v67zM396 109q0 -26 10 -34.5t24 -8.5t26 5v-70q-21 -8 -49 -8q-40 0 -64.5 17.5t-30.5 56.5q-18 -44 -55 -61.5t-82 -17.5q-61 0 -99.5 32.5t-38.5 92.5 q0 38 15.5 68t48 49.5t83 28.5t121.5 6v57q0 43 -23 61t-60 18q-38 0 -59.5 -19t-24.5 -55l-86 13q3 37 19 62t40.5 41t55.5 23t63 7q34 0 64 -7.5t52.5 -24t36 -43.5t13.5 -67v-222zM302 529q-23 0 -38 6.5t-34 16.5q-20 12 -32.5 18.5t-27.5 6.5q-16 0 -24.5 -10.5 t-5.5 -36.5h-55q-9 24 -8 46.5t11 40t28.5 27.5t42.5 10q26 0 43 -8t36 -19q20 -12 31 -17.5t24 -5.5q14 0 22.5 10.5t6.5 38.5h57q18 -53 -2.5 -88.5t-74.5 -35.5z"></glyph><glyph glyph-name="adieresis" unicode="ä" d="M305 206q-94 2 -136 -18.5t-42 -64.5q0 -29 18.5 -48t55.5 -19q18 0 36.5 5.5t33.5 16t24.5 26t9.5 35.5v67zM396 109q0 -26 10 -34.5t24 -8.5t26 5v-70q-21 -8 -49 -8q-40 0 -64.5 17.5t-30.5 56.5q-18 -44 -55 -61.5t-82 -17.5q-61 0 -99.5 32.5t-38.5 92.5 q0 38 15.5 68t48 49.5t83 28.5t121.5 6v57q0 43 -23 61t-60 18q-38 0 -59.5 -19t-24.5 -55l-86 13q3 37 19 62t40.5 41t55.5 23t63 7q34 0 64 -7.5t52.5 -24t36 -43.5t13.5 -67v-222zM74 595q0 26 17.5 43t41.5 17q25 0 42.5 -17t17.5 -43t-17.5 -42.5t-42.5 -16.5 q-24 0 -41.5 16.5t-17.5 42.5zM270 594q0 26 17.5 43t41.5 17q26 0 43 -17t17 -43q0 -25 -17 -42t-43 -17q-24 0 -41.5 17t-17.5 42z"></glyph><glyph glyph-name="aring" unicode="å" d="M305 206q-94 2 -136 -18.5t-42 -64.5q0 -29 18.5 -48t55.5 -19q18 0 36.5 5.5t33.5 16t24.5 26t9.5 35.5v67zM396 109q0 -26 10 -34.5t24 -8.5t26 5v-70q-21 -8 -49 -8q-40 0 -64.5 17.5t-30.5 56.5q-18 -44 -55 -61.5t-82 -17.5q-61 0 -99.5 32.5t-38.5 92.5 q0 38 15.5 68t48 49.5t83 28.5t121.5 6v57q0 43 -23 61t-60 18q-38 0 -59.5 -19t-24.5 -55l-86 13q3 37 19 62t40.5 41t55.5 23t63 7q34 0 64 -7.5t52.5 -24t36 -43.5t13.5 -67v-222zM231 520q-50 0 -76.5 29t-26.5 71q0 39 28 67.5t75 28.5t75 -28.5t28 -67.5 q0 -42 -26.5 -71t-76.5 -29zM231 674q-26 0 -40.5 -15.5t-14.5 -40.5q0 -23 14 -38t41 -15t41 15t14 38q0 25 -14.5 40.5t-40.5 15.5z"></glyph><glyph glyph-name="ae" unicode="æ" d="M514 59q38 0 64 16.5t38 58.5l78 -21q-7 -35 -24 -59t-42 -38.5t-55.5 -21t-63.5 -6.5q-53 0 -94.5 20.5t-68.5 59.5q-16 -39 -59 -59.5t-100 -20.5q-68 0 -109 32t-41 98q0 78 65 117t204 40q2 15 5 29t8 28q-5 36 -31 52.5t-59 16.5q-38 0 -63 -19t-28 -55l-86 13 q3 37 19 62t40.5 41t55 23t62.5 7q44 0 80 -14t56 -46q57 60 149 60q45 0 79 -15t57.5 -41.5t35 -63t11.5 -79.5q0 -19 -2 -35.5t-6 -27.5h-299q4 -69 35 -110.5t89 -41.5zM609 275q1 6 1 10.5v9.5q0 45 -27 76t-74 31q-51 0 -80 -33.5t-36 -93.5h216zM201 56q41 0 74 21 t39 62q-8 31 -10 73q-88 -1 -132.5 -21t-44.5 -68q0 -29 18.5 -48t55.5 -19z"></glyph><glyph glyph-name="ccedilla" unicode="ç" d="M352 -124q0 -45 -30.5 -66t-74.5 -21q-62 0 -90 38l24 51q25 -36 63 -36q17 0 26.5 8.5t9.5 25.5q0 19 -15.5 30t-50.5 12l5 72q-80 8 -128.5 69t-48.5 169q0 58 15 103.5t42.5 77t66.5 48t87 16.5q74 0 118.5 -37.5t49.5 -106.5l-82 -17q-12 87 -90 87q-60 0 -90 -47.5 t-30 -123.5q0 -37 8.5 -67.5t25 -53t39 -35t51.5 -12.5q37 0 61 18t35 58l78 -19q-6 -32 -20.5 -55.5t-35.5 -39t-48 -23.5t-57 -10l-2 -30q47 -4 67.5 -25.5t20.5 -57.5z"></glyph><glyph glyph-name="egrave" unicode="è" d="M253 59q38 0 63.5 16.5t37.5 58.5l79 -21q-7 -35 -24.5 -59t-42 -38.5t-55 -21t-63.5 -6.5q-46 0 -84 15.5t-65 46t-42 75t-15 102.5q0 117 57 181.5t154 64.5q45 0 79 -14.5t57 -41t35 -62.5t12 -79q0 -20 -2.5 -36.5t-6.5 -27.5h-298q3 -68 34 -110.5t90 -42.5z M347 277q1 5 1 9.5v9.5q0 45 -26.5 75.5t-73.5 30.5q-50 0 -80 -32.5t-37 -92.5h216zM218 529l-115 146h121l74 -146h-80z"></glyph><glyph glyph-name="eacute" unicode="é" d="M253 59q38 0 63.5 16.5t37.5 58.5l79 -21q-7 -35 -24.5 -59t-42 -38.5t-55 -21t-63.5 -6.5q-46 0 -84 15.5t-65 46t-42 75t-15 102.5q0 117 57 181.5t154 64.5q45 0 79 -14.5t57 -41t35 -62.5t12 -79q0 -20 -2.5 -36.5t-6.5 -27.5h-298q3 -68 34 -110.5t90 -42.5z M347 277q1 5 1 9.5v9.5q0 45 -26.5 75.5t-73.5 30.5q-50 0 -80 -32.5t-37 -92.5h216zM204 529l74 146h121l-116 -146h-79z"></glyph><glyph glyph-name="ecircumflex" unicode="ê" d="M253 59q38 0 63.5 16.5t37.5 58.5l79 -21q-7 -35 -24.5 -59t-42 -38.5t-55 -21t-63.5 -6.5q-46 0 -84 15.5t-65 46t-42 75t-15 102.5q0 117 57 181.5t154 64.5q45 0 79 -14.5t57 -41t35 -62.5t12 -79q0 -20 -2.5 -36.5t-6.5 -27.5h-298q3 -68 34 -110.5t90 -42.5z M347 277q1 5 1 9.5v9.5q0 45 -26.5 75.5t-73.5 30.5q-50 0 -80 -32.5t-37 -92.5h216zM280 675l125 -147h-92l-34 42q-8 8 -12.5 15.5t-6.5 12.5q-3 6 -4 10h-5q-1 -4 -4 -10q-4 -10 -19 -28l-34 -42h-92l125 147h53z"></glyph><glyph glyph-name="edieresis" unicode="ë" d="M253 59q38 0 63.5 16.5t37.5 58.5l79 -21q-7 -35 -24.5 -59t-42 -38.5t-55 -21t-63.5 -6.5q-46 0 -84 15.5t-65 46t-42 75t-15 102.5q0 117 57 181.5t154 64.5q45 0 79 -14.5t57 -41t35 -62.5t12 -79q0 -20 -2.5 -36.5t-6.5 -27.5h-298q3 -68 34 -110.5t90 -42.5z M347 277q1 5 1 9.5v9.5q0 45 -26.5 75.5t-73.5 30.5q-50 0 -80 -32.5t-37 -92.5h216zM95 595q0 26 17.5 43t41.5 17q25 0 42.5 -17t17.5 -43t-17.5 -42.5t-42.5 -16.5q-24 0 -41.5 16.5t-17.5 42.5zM291 594q0 26 17.5 43t41.5 17q26 0 43 -17t17 -43q0 -25 -17 -42t-43 -17 q-24 0 -41.5 17t-17.5 42z"></glyph><glyph glyph-name="igrave" unicode="ì" d="M162 462v-462h-90v462h90zM83 529l-115 146h121l74 -146h-80z"></glyph><glyph glyph-name="iacute" unicode="í" d="M162 462v-462h-90v462h90zM73 529l74 146h121l-116 -146h-79z"></glyph><glyph glyph-name="icircumflex" unicode="î" d="M162 462v-462h-90v462h90zM144 675l125 -147h-92l-34 42q-8 8 -12.5 15.5t-6.5 12.5q-3 6 -4 10h-5q-1 -4 -4 -10q-4 -10 -19 -28l-34 -42h-92l125 147h53z"></glyph><glyph glyph-name="idieresis" unicode="ï" d="M162 462v-462h-90v462h90zM-41 595q0 26 17.5 43t41.5 17q25 0 42.5 -17t17.5 -43t-17.5 -42.5t-42.5 -16.5q-24 0 -41.5 16.5t-17.5 42.5zM155 594q0 26 17.5 43t41.5 17q26 0 43 -17t17 -43q0 -25 -17 -42t-43 -17q-24 0 -41.5 17t-17.5 42z"></glyph><glyph glyph-name="eth" unicode="ð" d="M114 538l124 25q-11 9 -25.5 19t-31 19.5t-33 18t-30.5 15.5l77 39q37 -16 70 -38.5t60 -48.5l103 22l12 -45l-77 -17q48 -60 75 -135.5t27 -151.5q0 -71 -15.5 -122.5t-43 -84.5t-66.5 -48.5t-87 -15.5q-96 0 -153.5 61t-57.5 179q0 59 15 103t41 73t61 43.5t74 14.5 q43 0 72 -16.5t49 -44.5h4q-26 70 -82 124l-151 -31zM374 227q0 81 -32 123.5t-92 42.5t-89 -42.5t-29 -123.5q0 -80 30 -123.5t90 -43.5q63 0 92.5 43.5t29.5 123.5z"></glyph><glyph glyph-name="ntilde" unicode="ñ" d="M154 373q19 52 57 76t91 24q28 0 53.5 -8t45 -25.5t30.5 -44.5t11 -65v-330h-90v303q0 43 -19.5 67.5t-61.5 24.5q-21 0 -40.5 -6.5t-35 -21.5t-24.5 -40t-9 -62v-265h-90v462h71zM332 529q-23 0 -38 6.5t-34 16.5q-20 12 -32.5 18.5t-27.5 6.5q-16 0 -24.5 -10.5 t-5.5 -36.5h-55q-9 24 -8 46.5t11 40t28.5 27.5t42.5 10q26 0 43 -8t36 -19q20 -12 31 -17.5t24 -5.5q14 0 22.5 10.5t6.5 38.5h57q18 -53 -2.5 -88.5t-74.5 -35.5z"></glyph><glyph glyph-name="ograve" unicode="ò" d="M252 -12q-48 0 -86.5 16t-66 47.5t-42.5 77.5t-15 105q0 118 57 178.5t153 60.5t153.5 -60.5t57.5 -178.5q0 -119 -57.5 -182.5t-153.5 -63.5zM252 400q-121 0 -121 -167q0 -174 121 -174q122 0 122 174q0 167 -122 167zM220 529l-115 146h121l74 -146h-80z"></glyph><glyph glyph-name="oacute" unicode="ó" d="M252 -12q-48 0 -86.5 16t-66 47.5t-42.5 77.5t-15 105q0 118 57 178.5t153 60.5t153.5 -60.5t57.5 -178.5q0 -119 -57.5 -182.5t-153.5 -63.5zM252 400q-121 0 -121 -167q0 -174 121 -174q122 0 122 174q0 167 -122 167zM205 529l74 146h121l-116 -146h-79z"></glyph><glyph glyph-name="ocircumflex" unicode="ô" d="M252 -12q-48 0 -86.5 16t-66 47.5t-42.5 77.5t-15 105q0 118 57 178.5t153 60.5t153.5 -60.5t57.5 -178.5q0 -119 -57.5 -182.5t-153.5 -63.5zM252 400q-121 0 -121 -167q0 -174 121 -174q122 0 122 174q0 167 -122 167zM279 675l125 -147h-92l-34 42q-8 8 -12.5 15.5 t-6.5 12.5q-3 6 -4 10h-5q-1 -4 -4 -10q-4 -10 -19 -28l-34 -42h-92l125 147h53z"></glyph><glyph glyph-name="otilde" unicode="õ" d="M252 -12q-48 0 -86.5 16t-66 47.5t-42.5 77.5t-15 105q0 118 57 178.5t153 60.5t153.5 -60.5t57.5 -178.5q0 -119 -57.5 -182.5t-153.5 -63.5zM252 400q-121 0 -121 -167q0 -174 121 -174q122 0 122 174q0 167 -122 167zM322 529q-23 0 -38 6.5t-34 16.5 q-20 12 -32.5 18.5t-27.5 6.5q-16 0 -24.5 -10.5t-5.5 -36.5h-55q-9 24 -8 46.5t11 40t28.5 27.5t42.5 10q26 0 43 -8t36 -19q20 -12 31 -17.5t24 -5.5q14 0 22.5 10.5t6.5 38.5h57q18 -53 -2.5 -88.5t-74.5 -35.5z"></glyph><glyph glyph-name="odieresis" unicode="ö" d="M252 -12q-48 0 -86.5 16t-66 47.5t-42.5 77.5t-15 105q0 118 57 178.5t153 60.5t153.5 -60.5t57.5 -178.5q0 -119 -57.5 -182.5t-153.5 -63.5zM252 400q-121 0 -121 -167q0 -174 121 -174q122 0 122 174q0 167 -122 167zM94 595q0 26 17.5 43t41.5 17q25 0 42.5 -17 t17.5 -43t-17.5 -42.5t-42.5 -16.5q-24 0 -41.5 16.5t-17.5 42.5zM290 594q0 26 17.5 43t41.5 17q26 0 43 -17t17 -43q0 -25 -17 -42t-43 -17q-24 0 -41.5 17t-17.5 42z"></glyph><glyph glyph-name="divide" unicode="÷" d="M45 221v54h408v-54h-408zM199 74q0 20 13.5 33t33.5 13q19 0 32.5 -13t13.5 -33q0 -19 -13.5 -32t-32.5 -13q-20 0 -33.5 13t-13.5 32zM199 415q0 20 13.5 34t33.5 14q19 0 32.5 -14t13.5 -34q0 -18 -13.5 -31.5t-32.5 -13.5q-20 0 -33.5 13.5t-13.5 31.5z"></glyph><glyph glyph-name="oslash" unicode="ø" d="M25 25l53 56q-17 30 -26.5 68t-9.5 85q0 118 57 178.5t153 60.5q89 0 143 -51l47 50l45 -38l-55 -59q31 -57 31 -141q0 -119 -57.5 -182.5t-153.5 -63.5q-83 0 -136 47l-46 -49zM252 400q-121 0 -121 -167q0 -51 10 -84l199 214q-31 37 -88 37zM374 233q0 39 -8 71 l-197 -212q30 -33 83 -33q122 0 122 174z"></glyph><glyph glyph-name="ugrave" unicode="ù" d="M348 84q-17 -51 -52 -73.5t-90 -22.5q-32 0 -57.5 8.5t-44 27t-28.5 47.5t-10 70v321h90v-307q0 -100 83 -100q19 0 38 8.5t34.5 25t25 42t9.5 58.5v273h90v-462h-77zM219 529l-115 146h121l74 -146h-80z"></glyph><glyph glyph-name="uacute" unicode="ú" d="M348 84q-17 -51 -52 -73.5t-90 -22.5q-32 0 -57.5 8.5t-44 27t-28.5 47.5t-10 70v321h90v-307q0 -100 83 -100q19 0 38 8.5t34.5 25t25 42t9.5 58.5v273h90v-462h-77zM204 529l74 146h121l-116 -146h-79z"></glyph><glyph glyph-name="ucircumflex" unicode="û" d="M348 84q-17 -51 -52 -73.5t-90 -22.5q-32 0 -57.5 8.5t-44 27t-28.5 47.5t-10 70v321h90v-307q0 -100 83 -100q19 0 38 8.5t34.5 25t25 42t9.5 58.5v273h90v-462h-77zM278 675l125 -147h-92l-34 42q-8 8 -12.5 15.5t-6.5 12.5q-3 6 -4 10h-5q-1 -4 -4 -10q-4 -10 -19 -28 l-34 -42h-92l125 147h53z"></glyph><glyph glyph-name="udieresis" unicode="ü" d="M348 84q-17 -51 -52 -73.5t-90 -22.5q-32 0 -57.5 8.5t-44 27t-28.5 47.5t-10 70v321h90v-307q0 -100 83 -100q19 0 38 8.5t34.5 25t25 42t9.5 58.5v273h90v-462h-77zM93 595q0 26 17.5 43t41.5 17q25 0 42.5 -17t17.5 -43t-17.5 -42.5t-42.5 -16.5q-24 0 -41.5 16.5 t-17.5 42.5zM289 594q0 26 17.5 43t41.5 17q26 0 43 -17t17 -43q0 -25 -17 -42t-43 -17q-24 0 -41.5 17t-17.5 42z"></glyph><glyph glyph-name="yacute" unicode="ý" d="M186 208q11 -34 17 -61t11 -46q4 -22 8 -39h4q3 17 7 39q4 19 10.5 45.5t17.5 61.5l77 254h94l-170 -500q-18 -51 -38 -84t-43 -52t-49.5 -26.5t-57.5 -7.5q-17 0 -34.5 3t-32.5 8l8 77q28 -14 60 -14q37 0 60.5 23t43.5 84l-171 489h99zM179 529l74 146h121l-116 -146 h-79z"></glyph><glyph glyph-name="thorn" unicode="þ" d="M162 179q0 -33 10 -56.5t26.5 -38.5t36 -21.5t39.5 -6.5q26 0 49 10.5t40 32.5t27 55.5t10 79.5q0 84 -31 124.5t-85 40.5q-25 0 -47 -9t-38.5 -26.5t-26.5 -42.5t-10 -57v-85zM162 -203h-90v871h90v-287q19 51 60.5 71.5t87.5 20.5q85 0 133.5 -59.5t48.5 -171.5 q0 -53 -13.5 -99t-39 -80.5t-62.5 -54.5t-85 -20q-54 0 -86 21.5t-44 51.5v-264z"></glyph><glyph glyph-name="ydieresis" unicode="ÿ" d="M186 208q11 -34 17 -61t11 -46q4 -22 8 -39h4q3 17 7 39q4 19 10.5 45.5t17.5 61.5l77 254h94l-170 -500q-18 -51 -38 -84t-43 -52t-49.5 -26.5t-57.5 -7.5q-17 0 -34.5 3t-32.5 8l8 77q28 -14 60 -14q37 0 60.5 23t43.5 84l-171 489h99zM67 595q0 26 17.5 43t41.5 17 q25 0 42.5 -17t17.5 -43t-17.5 -42.5t-42.5 -16.5q-24 0 -41.5 16.5t-17.5 42.5zM263 594q0 26 17.5 43t41.5 17q26 0 43 -17t17 -43q0 -25 -17 -42t-43 -17q-24 0 -41.5 17t-17.5 42z"></glyph><glyph glyph-name="Amacron" unicode="Ā" d="M403 161h-241l-56 -161h-96l215 589h121l213 -589h-99zM188 237h188l-45 132q-13 35 -21.5 63.5t-13.5 48.5q-6 24 -11 43h-4q-5 -19 -11 -43q-6 -20 -14.5 -48t-20.5 -63zM151 674v71h264v-71h-264z"></glyph><glyph glyph-name="amacron" unicode="ā" d="M305 206q-94 2 -136 -18.5t-42 -64.5q0 -29 18.5 -48t55.5 -19q18 0 36.5 5.5t33.5 16t24.5 26t9.5 35.5v67zM396 109q0 -26 10 -34.5t24 -8.5t26 5v-70q-21 -8 -49 -8q-40 0 -64.5 17.5t-30.5 56.5q-18 -44 -55 -61.5t-82 -17.5q-61 0 -99.5 32.5t-38.5 92.5 q0 38 15.5 68t48 49.5t83 28.5t121.5 6v57q0 43 -23 61t-60 18q-38 0 -59.5 -19t-24.5 -55l-86 13q3 37 19 62t40.5 41t55.5 23t63 7q34 0 64 -7.5t52.5 -24t36 -43.5t13.5 -67v-222zM99 558v73h262v-73h-262z"></glyph><glyph glyph-name="Abreve" unicode="Ă" d="M403 161h-241l-56 -161h-96l215 589h121l213 -589h-99zM188 237h188l-45 132q-13 35 -21.5 63.5t-13.5 48.5q-6 24 -11 43h-4q-5 -19 -11 -43q-6 -20 -14.5 -48t-20.5 -63zM283 650q-66 0 -100.5 35.5t-34.5 95.5h71q2 -31 15.5 -48t48.5 -17t49 17t16 48h71 q0 -60 -35 -95.5t-101 -35.5z"></glyph><glyph glyph-name="abreve" unicode="ă" d="M305 206q-94 2 -136 -18.5t-42 -64.5q0 -29 18.5 -48t55.5 -19q18 0 36.5 5.5t33.5 16t24.5 26t9.5 35.5v67zM396 109q0 -26 10 -34.5t24 -8.5t26 5v-70q-21 -8 -49 -8q-40 0 -64.5 17.5t-30.5 56.5q-18 -44 -55 -61.5t-82 -17.5q-61 0 -99.5 32.5t-38.5 92.5 q0 38 15.5 68t48 49.5t83 28.5t121.5 6v57q0 43 -23 61t-60 18q-38 0 -59.5 -19t-24.5 -55l-86 13q3 37 19 62t40.5 41t55.5 23t63 7q34 0 64 -7.5t52.5 -24t36 -43.5t13.5 -67v-222zM232 526q-66 0 -101 39t-35 102h71q2 -33 14.5 -53.5t50.5 -20.5q37 0 50 20.5t15 53.5 h71q0 -63 -35 -102t-101 -39z"></glyph><glyph glyph-name="Aogonek" unicode="Ą" d="M322 -106q0 31 12 54.5t30 40t40.5 27t43.5 16.5l-45 129h-241l-56 -161h-96l215 589h121l213 -589h-54q-18 -1 -36.5 -7.5t-33 -18t-24 -28.5t-9.5 -39q0 -26 13 -41.5t39 -15.5q25 0 42 11.5t28 30.5l29 -44q-15 -26 -42.5 -42.5t-72.5 -16.5q-51 0 -83.5 26t-32.5 79z M188 237h188l-45 132q-13 35 -21.5 63.5t-13.5 48.5q-6 24 -11 43h-4q-5 -19 -11 -43q-6 -20 -14.5 -48t-20.5 -63z"></glyph><glyph glyph-name="aogonek" unicode="ą" d="M241 -106q0 24 8.5 44t22.5 35t31.5 25.5t34.5 17.5q-23 16 -26 51q-17 -41 -55 -60t-82 -19q-61 0 -99.5 32.5t-38.5 92.5q0 38 15.5 68t48 49.5t83 28.5t121.5 6v57q0 43 -23 61t-60 18q-38 0 -59.5 -19t-24.5 -55l-86 13q3 37 19 62t40.5 41t55.5 23t63 7 q34 0 64 -7.5t52.5 -24t36 -43.5t13.5 -67v-222q0 -26 10 -34.5t24 -8.5t26 5v-70q-21 -2 -44.5 -7t-44 -15.5t-34 -28t-13.5 -43.5t13.5 -41.5t39.5 -15.5q24 0 41 11.5t29 30.5l29 -44q-16 -26 -43 -42.5t-72 -16.5q-51 0 -83.5 26t-32.5 79zM305 206q-94 2 -136 -18.5 t-42 -64.5q0 -29 18.5 -48t55.5 -19q18 0 36.5 5.5t33.5 16t24.5 26t9.5 35.5v67z"></glyph><glyph glyph-name="Cacute" unicode="Ć" d="M539 110q-20 -31 -43 -54t-51.5 -38t-63.5 -22.5t-79 -7.5q-57 0 -104.5 20t-81.5 59t-53 95.5t-19 130.5t20 131.5t56 96.5t86.5 59.5t112.5 20.5q161 0 221 -142l-86 -42q-18 53 -54 79t-86 26q-83 0 -128.5 -61.5t-45.5 -167.5q0 -105 42 -164t127 -59q54 0 91.5 21.5 t67.5 70.5zM264 653l63 123h120l-101 -123h-82z"></glyph><glyph glyph-name="cacute" unicode="ć" d="M427 117q-6 -35 -22 -59.5t-40 -40t-54.5 -22.5t-64.5 -7q-45 0 -82.5 16t-64.5 46.5t-42 75t-15 102.5t15 103.5t42.5 77t66.5 48t87 16.5q74 0 118.5 -37.5t49.5 -106.5l-82 -17q-12 87 -90 87q-60 0 -90 -47.5t-30 -123.5q0 -37 8.5 -67.5t25 -53t39 -35t51.5 -12.5 q37 0 61 18t35 58zM209 529l74 146h121l-116 -146h-79z"></glyph><glyph glyph-name="Ccircumflex" unicode="Ĉ" d="M539 110q-20 -31 -43 -54t-51.5 -38t-63.5 -22.5t-79 -7.5q-57 0 -104.5 20t-81.5 59t-53 95.5t-19 130.5t20 131.5t56 96.5t86.5 59.5t112.5 20.5q161 0 221 -142l-86 -42q-18 53 -54 79t-86 26q-83 0 -128.5 -61.5t-45.5 -167.5q0 -105 42 -164t127 -59q54 0 91.5 21.5 t67.5 70.5zM344 782l125 -129h-97l-31 33q-14 14 -19 24q-3 5 -4 10h-3q-1 -5 -4 -10q-2 -5 -7 -10.5t-12 -13.5l-32 -33h-96l124 129h56z"></glyph><glyph glyph-name="ccircumflex" unicode="ĉ" d="M427 117q-6 -35 -22 -59.5t-40 -40t-54.5 -22.5t-64.5 -7q-45 0 -82.5 16t-64.5 46.5t-42 75t-15 102.5t15 103.5t42.5 77t66.5 48t87 16.5q74 0 118.5 -37.5t49.5 -106.5l-82 -17q-12 87 -90 87q-60 0 -90 -47.5t-30 -123.5q0 -37 8.5 -67.5t25 -53t39 -35t51.5 -12.5 q37 0 61 18t35 58zM278 675l125 -147h-92l-34 42q-8 8 -12.5 15.5t-6.5 12.5q-3 6 -4 10h-5q-1 -4 -4 -10q-4 -10 -19 -28l-34 -42h-92l125 147h53z"></glyph><glyph glyph-name="Cdotaccent" unicode="Ċ" d="M539 110q-20 -31 -43 -54t-51.5 -38t-63.5 -22.5t-79 -7.5q-57 0 -104.5 20t-81.5 59t-53 95.5t-19 130.5t20 131.5t56 96.5t86.5 59.5t112.5 20.5q161 0 221 -142l-86 -42q-18 53 -54 79t-86 26q-83 0 -128.5 -61.5t-45.5 -167.5q0 -105 42 -164t127 -59q54 0 91.5 21.5 t67.5 70.5zM249 713q0 27 17.5 43.5t42.5 16.5q26 0 44 -16.5t18 -43.5q0 -26 -18 -43t-44 -17q-25 0 -42.5 17t-17.5 43z"></glyph><glyph glyph-name="cdotaccent" unicode="ċ" d="M427 117q-6 -35 -22 -59.5t-40 -40t-54.5 -22.5t-64.5 -7q-45 0 -82.5 16t-64.5 46.5t-42 75t-15 102.5t15 103.5t42.5 77t66.5 48t87 16.5q74 0 118.5 -37.5t49.5 -106.5l-82 -17q-12 87 -90 87q-60 0 -90 -47.5t-30 -123.5q0 -37 8.5 -67.5t25 -53t39 -35t51.5 -12.5 q37 0 61 18t35 58zM190 593q0 26 17.5 43t42.5 17q26 0 44 -17t18 -43t-18 -43t-44 -17q-25 0 -42.5 17t-17.5 43z"></glyph><glyph glyph-name="Ccaron" unicode="Č" d="M539 110q-20 -31 -43 -54t-51.5 -38t-63.5 -22.5t-79 -7.5q-57 0 -104.5 20t-81.5 59t-53 95.5t-19 130.5t20 131.5t56 96.5t86.5 59.5t112.5 20.5q161 0 221 -142l-86 -42q-18 53 -54 79t-86 26q-83 0 -128.5 -61.5t-45.5 -167.5q0 -105 42 -164t127 -59q54 0 91.5 21.5 t67.5 70.5zM279 649l-124 129h96l32 -33q15 -16 19 -25q3 -5 4 -9h3q1 4 4 9q2 5 6.5 11t12.5 14l31 33h97l-125 -129h-56z"></glyph><glyph glyph-name="ccaron" unicode="č" d="M427 117q-6 -35 -22 -59.5t-40 -40t-54.5 -22.5t-64.5 -7q-45 0 -82.5 16t-64.5 46.5t-42 75t-15 102.5t15 103.5t42.5 77t66.5 48t87 16.5q74 0 118.5 -37.5t49.5 -106.5l-82 -17q-12 87 -90 87q-60 0 -90 -47.5t-30 -123.5q0 -37 8.5 -67.5t25 -53t39 -35t51.5 -12.5 q37 0 61 18t35 58zM226 528l-125 147h92l34 -43q7 -9 12 -16t7 -12q3 -6 4 -10h5q1 4 4 10q5 11 19 28l34 43h92l-125 -147h-53z"></glyph><glyph glyph-name="Dcaron" unicode="Ď" d="M254 77q43 0 80 12t63 38.5t41 68.5t15 101q0 62 -15 103.5t-41 66t-60.5 35t-73.5 10.5h-88v-435h79zM83 0v589h183q62 0 114 -16t90 -50.5t59 -89t21 -132.5q0 -82 -23 -139t-62 -93t-91 -52.5t-111 -16.5h-180zM236 649l-124 129h96l32 -33q15 -16 19 -25q3 -5 4 -9h3 q1 4 4 9q2 5 6.5 11t12.5 14l31 33h97l-125 -129h-56z"></glyph><glyph glyph-name="dcaron" unicode="ď" d="M587 498h-66l16 176h102zM372 286q0 31 -10.5 53t-27 36t-37 21t-40.5 7q-26 0 -48.5 -9.5t-39 -30.5t-26.5 -54.5t-10 -82.5q0 -82 33 -124.5t90 -42.5q19 0 39.5 7.5t37.5 23.5t28 39t11 55v102zM371 668h91v-668h-80l-10 80q-20 -53 -58.5 -72.5t-88.5 -19.5 q-36 0 -69.5 15t-58.5 44t-40 73t-15 103q0 118 53.5 184t153.5 66q45 0 78.5 -21.5t43.5 -51.5v268z"></glyph><glyph glyph-name="Dcroat" unicode="Đ" d="M83 0v256h-59v78h59v255h183q62 0 114 -16t90 -50.5t59 -89t21 -132.5q0 -82 -23 -139t-62 -93t-91 -52.5t-111 -16.5h-180zM254 77q43 0 80 12t63 38.5t41 68.5t15 101q0 62 -15 103.5t-41 66t-60.5 35t-73.5 10.5h-88v-178h111v-78h-111v-179h79z"></glyph><glyph glyph-name="dcroat" unicode="đ" d="M226 594h145v74h91v-74h67v-65h-67v-529h-80l-10 80q-20 -53 -58.5 -72.5t-88.5 -19.5q-36 0 -69.5 15t-58.5 44t-40 73t-15 103q0 118 53.5 184t153.5 66q45 0 78.5 -21.5t43.5 -51.5v129h-145v65zM372 286q0 31 -10.5 53t-27 36t-37 21t-40.5 7q-26 0 -48.5 -9.5 t-39 -30.5t-26.5 -54.5t-10 -82.5q0 -82 33 -124.5t90 -42.5q19 0 39.5 7.5t37.5 23.5t28 39t11 55v102z"></glyph><glyph glyph-name="Emacron" unicode="Ē" d="M446 0h-363v589h363v-80h-271v-174h240v-80h-240v-175h271v-80zM133 674v71h264v-71h-264z"></glyph><glyph glyph-name="emacron" unicode="ē" d="M253 59q38 0 63.5 16.5t37.5 58.5l79 -21q-7 -35 -24.5 -59t-42 -38.5t-55 -21t-63.5 -6.5q-46 0 -84 15.5t-65 46t-42 75t-15 102.5q0 117 57 181.5t154 64.5q45 0 79 -14.5t57 -41t35 -62.5t12 -79q0 -20 -2.5 -36.5t-6.5 -27.5h-298q3 -68 34 -110.5t90 -42.5z M347 277q1 5 1 9.5v9.5q0 45 -26.5 75.5t-73.5 30.5q-50 0 -80 -32.5t-37 -92.5h216zM120 558v73h262v-73h-262z"></glyph><glyph glyph-name="Ebreve" unicode="Ĕ" d="M446 0h-363v589h363v-80h-271v-174h240v-80h-240v-175h271v-80zM259 650q-66 0 -100.5 35.5t-34.5 95.5h71q2 -31 15.5 -48t48.5 -17t49 17t16 48h71q0 -60 -35 -95.5t-101 -35.5z"></glyph><glyph glyph-name="ebreve" unicode="ĕ" d="M253 59q38 0 63.5 16.5t37.5 58.5l79 -21q-7 -35 -24.5 -59t-42 -38.5t-55 -21t-63.5 -6.5q-46 0 -84 15.5t-65 46t-42 75t-15 102.5q0 117 57 181.5t154 64.5q45 0 79 -14.5t57 -41t35 -62.5t12 -79q0 -20 -2.5 -36.5t-6.5 -27.5h-298q3 -68 34 -110.5t90 -42.5z M347 277q1 5 1 9.5v9.5q0 45 -26.5 75.5t-73.5 30.5q-50 0 -80 -32.5t-37 -92.5h216zM250 526q-66 0 -101 39t-35 102h71q2 -33 14.5 -53.5t50.5 -20.5q37 0 50 20.5t15 53.5h71q0 -63 -35 -102t-101 -39z"></glyph><glyph glyph-name="Edotaccent" unicode="Ė" d="M446 0h-363v589h363v-80h-271v-174h240v-80h-240v-175h271v-80zM199 713q0 27 17.5 43.5t42.5 16.5q26 0 44 -16.5t18 -43.5q0 -26 -18 -43t-44 -17q-25 0 -42.5 17t-17.5 43z"></glyph><glyph glyph-name="edotaccent" unicode="ė" d="M253 59q38 0 63.5 16.5t37.5 58.5l79 -21q-7 -35 -24.5 -59t-42 -38.5t-55 -21t-63.5 -6.5q-46 0 -84 15.5t-65 46t-42 75t-15 102.5q0 117 57 181.5t154 64.5q45 0 79 -14.5t57 -41t35 -62.5t12 -79q0 -20 -2.5 -36.5t-6.5 -27.5h-298q3 -68 34 -110.5t90 -42.5z M347 277q1 5 1 9.5v9.5q0 45 -26.5 75.5t-73.5 30.5q-50 0 -80 -32.5t-37 -92.5h216zM190 593q0 26 17.5 43t42.5 17q26 0 44 -17t18 -43t-18 -43t-44 -17q-25 0 -42.5 17t-17.5 43z"></glyph><glyph glyph-name="Eogonek" unicode="Ę" d="M446 0h-18q-48 0 -78.5 -23t-30.5 -69q0 -27 13 -42.5t39 -15.5q25 0 42 11.5t28 30.5l29 -44q-15 -26 -42.5 -42.5t-72.5 -16.5q-51 0 -83.5 26t-32.5 79q0 41 20 66.5t50 39.5h-226v589h363v-80h-271v-174h240v-80h-240v-175h271v-80z"></glyph><glyph glyph-name="eogonek" unicode="ę" d="M177 -106q0 32 12 55.5t32 40.5q-82 8 -130.5 68.5t-48.5 168.5q0 117 57 181.5t154 64.5q45 0 79 -14.5t57 -41t35 -62.5t12 -79q0 -20 -2.5 -36.5t-6.5 -27.5h-298q3 -68 34 -110.5t90 -42.5q38 0 63.5 16.5t37.5 58.5l79 -21q-6 -28 -17 -47t-25.5 -32t-31.5 -21 t-33 -14q-41 -14 -55 -38t-14 -53q0 -27 13 -42.5t39 -15.5q25 0 42 11.5t28 30.5l29 -44q-15 -26 -42.5 -42.5t-72.5 -16.5q-51 0 -83.5 26t-32.5 79zM347 277q1 5 1 9.5v9.5q0 45 -26.5 75.5t-73.5 30.5q-50 0 -80 -32.5t-37 -92.5h216z"></glyph><glyph glyph-name="Ecaron" unicode="Ě" d="M446 0h-363v589h363v-80h-271v-174h240v-80h-240v-175h271v-80zM234 649l-124 129h96l32 -33q15 -16 19 -25q3 -5 4 -9h3q1 4 4 9q2 5 6.5 11t12.5 14l31 33h97l-125 -129h-56z"></glyph><glyph glyph-name="ecaron" unicode="ě" d="M253 59q38 0 63.5 16.5t37.5 58.5l79 -21q-7 -35 -24.5 -59t-42 -38.5t-55 -21t-63.5 -6.5q-46 0 -84 15.5t-65 46t-42 75t-15 102.5q0 117 57 181.5t154 64.5q45 0 79 -14.5t57 -41t35 -62.5t12 -79q0 -20 -2.5 -36.5t-6.5 -27.5h-298q3 -68 34 -110.5t90 -42.5z M347 277q1 5 1 9.5v9.5q0 45 -26.5 75.5t-73.5 30.5q-50 0 -80 -32.5t-37 -92.5h216zM225 528l-125 147h92l34 -43q7 -9 12 -16t7 -12q3 -6 4 -10h5q1 4 4 10q5 11 19 28l34 43h92l-125 -147h-53z"></glyph><glyph glyph-name="Gcircumflex" unicode="Ĝ" d="M547 304v-304h-73l-12 76q-9 -22 -26 -38.5t-38.5 -27.5t-47 -16.5t-50.5 -5.5q-57 0 -104 19.5t-80.5 58t-52.5 95t-19 131.5q0 74 20 131.5t56 97t86.5 60t112.5 20.5q166 0 221 -142l-86 -42q-18 54 -55 79.5t-85 25.5q-39 0 -71 -15t-55 -44t-35.5 -72t-12.5 -99 q0 -50 10 -92t31 -72t53 -47t75 -17q30 0 56.5 7t46.5 21.5t32 36t12 51.5v44h-143v80h234zM347 782l125 -129h-97l-31 33q-14 14 -19 24q-3 5 -4 10h-3q-1 -5 -4 -10q-2 -5 -7 -10.5t-12 -13.5l-32 -33h-96l124 129h56z"></glyph><glyph glyph-name="gcircumflex" unicode="ĝ" d="M229 473q84 0 134 -37q17 9 23.5 26.5t11.5 43.5l78 -27q-5 -33 -26.5 -54.5t-50.5 -28.5q21 -36 21 -87q0 -40 -15 -70t-41 -50t-60.5 -30t-73.5 -10q-17 0 -33.5 2t-26.5 6q-17 -9 -24 -21t-7 -27q0 -38 49 -38h113q79 0 120 -33t41 -96q0 -45 -22 -75t-58 -47t-81 -24 t-90 -7q-38 0 -74.5 5.5t-65 19.5t-45.5 37t-17 59q0 45 31 73t88 33q-32 4 -48 24t-16 48t15.5 49.5t52.5 31.5q-42 19 -66 54t-24 86q0 39 13.5 69.5t38.5 51.5t59 32t76 11zM94 -80q0 -37 35.5 -52t90.5 -15q70 0 112.5 16t42.5 60q0 26 -16.5 43.5t-61.5 17.5h-100 q-50 0 -76.5 -17t-26.5 -53zM132 310q0 -44 25 -70.5t72 -26.5q46 0 73.5 24t27.5 73t-27.5 73.5t-73.5 23.5q-46 0 -71.5 -25t-25.5 -72zM269 677l125 -147h-92l-34 42q-8 8 -12.5 15.5t-6.5 12.5q-3 6 -4 10h-5q-1 -4 -4 -10q-4 -10 -19 -28l-34 -42h-92l125 147h53z"></glyph><glyph glyph-name="Gbreve" unicode="Ğ" d="M547 304v-304h-73l-12 76q-9 -22 -26 -38.5t-38.5 -27.5t-47 -16.5t-50.5 -5.5q-57 0 -104 19.5t-80.5 58t-52.5 95t-19 131.5q0 74 20 131.5t56 97t86.5 60t112.5 20.5q166 0 221 -142l-86 -42q-18 54 -55 79.5t-85 25.5q-39 0 -71 -15t-55 -44t-35.5 -72t-12.5 -99 q0 -50 10 -92t31 -72t53 -47t75 -17q30 0 56.5 7t46.5 21.5t32 36t12 51.5v44h-143v80h234zM320 650q-66 0 -100.5 35.5t-34.5 95.5h71q2 -31 15.5 -48t48.5 -17t49 17t16 48h71q0 -60 -35 -95.5t-101 -35.5z"></glyph><glyph glyph-name="gbreve" unicode="ğ" d="M229 473q84 0 134 -37q17 9 23.5 26.5t11.5 43.5l78 -27q-5 -33 -26.5 -54.5t-50.5 -28.5q21 -36 21 -87q0 -40 -15 -70t-41 -50t-60.5 -30t-73.5 -10q-17 0 -33.5 2t-26.5 6q-17 -9 -24 -21t-7 -27q0 -38 49 -38h113q79 0 120 -33t41 -96q0 -45 -22 -75t-58 -47t-81 -24 t-90 -7q-38 0 -74.5 5.5t-65 19.5t-45.5 37t-17 59q0 45 31 73t88 33q-32 4 -48 24t-16 48t15.5 49.5t52.5 31.5q-42 19 -66 54t-24 86q0 39 13.5 69.5t38.5 51.5t59 32t76 11zM94 -80q0 -37 35.5 -52t90.5 -15q70 0 112.5 16t42.5 60q0 26 -16.5 43.5t-61.5 17.5h-100 q-50 0 -76.5 -17t-26.5 -53zM132 310q0 -44 25 -70.5t72 -26.5q46 0 73.5 24t27.5 73t-27.5 73.5t-73.5 23.5q-46 0 -71.5 -25t-25.5 -72zM236 526q-66 0 -101 39t-35 102h71q2 -33 14.5 -53.5t50.5 -20.5q37 0 50 20.5t15 53.5h71q0 -63 -35 -102t-101 -39z"></glyph><glyph glyph-name="Gdotaccent" unicode="Ġ" d="M547 304v-304h-73l-12 76q-9 -22 -26 -38.5t-38.5 -27.5t-47 -16.5t-50.5 -5.5q-57 0 -104 19.5t-80.5 58t-52.5 95t-19 131.5q0 74 20 131.5t56 97t86.5 60t112.5 20.5q166 0 221 -142l-86 -42q-18 54 -55 79.5t-85 25.5q-39 0 -71 -15t-55 -44t-35.5 -72t-12.5 -99 q0 -50 10 -92t31 -72t53 -47t75 -17q30 0 56.5 7t46.5 21.5t32 36t12 51.5v44h-143v80h234zM259 726q0 27 17.5 43.5t42.5 16.5q26 0 44 -16.5t18 -43.5q0 -26 -18 -43t-44 -17q-25 0 -42.5 17t-17.5 43z"></glyph><glyph glyph-name="gdotaccent" unicode="ġ" d="M229 473q84 0 134 -37q17 9 23.5 26.5t11.5 43.5l78 -27q-5 -33 -26.5 -54.5t-50.5 -28.5q21 -36 21 -87q0 -40 -15 -70t-41 -50t-60.5 -30t-73.5 -10q-17 0 -33.5 2t-26.5 6q-17 -9 -24 -21t-7 -27q0 -38 49 -38h113q79 0 120 -33t41 -96q0 -45 -22 -75t-58 -47t-81 -24 t-90 -7q-38 0 -74.5 5.5t-65 19.5t-45.5 37t-17 59q0 45 31 73t88 33q-32 4 -48 24t-16 48t15.5 49.5t52.5 31.5q-42 19 -66 54t-24 86q0 39 13.5 69.5t38.5 51.5t59 32t76 11zM94 -80q0 -37 35.5 -52t90.5 -15q70 0 112.5 16t42.5 60q0 26 -16.5 43.5t-61.5 17.5h-100 q-50 0 -76.5 -17t-26.5 -53zM132 310q0 -44 25 -70.5t72 -26.5q46 0 73.5 24t27.5 73t-27.5 73.5t-73.5 23.5q-46 0 -71.5 -25t-25.5 -72zM171 595q0 26 17.5 43t42.5 17q26 0 44 -17t18 -43t-18 -43t-44 -17q-25 0 -42.5 17t-17.5 43z"></glyph><glyph glyph-name="Gcommaaccent" unicode="Ģ" d="M547 304v-304h-73l-12 76q-9 -22 -26 -38.5t-38.5 -27.5t-47 -16.5t-50.5 -5.5q-57 0 -104 19.5t-80.5 58t-52.5 95t-19 131.5q0 74 20 131.5t56 97t86.5 60t112.5 20.5q166 0 221 -142l-86 -42q-18 54 -55 79.5t-85 25.5q-39 0 -71 -15t-55 -44t-35.5 -72t-12.5 -99 q0 -50 10 -92t31 -72t53 -47t75 -17q30 0 56.5 7t46.5 21.5t32 36t12 51.5v44h-143v80h234zM390 -142q0 -57 -31 -81t-90 -24v37q29 2 44.5 10.5t15.5 32.5q-27 -5 -44 8.5t-17 38.5q0 26 15.5 39.5t41.5 13.5t45.5 -20t19.5 -55z"></glyph><glyph glyph-name="gcommaaccent" unicode="ģ" d="M229 473q84 0 134 -37q17 9 23.5 26.5t11.5 43.5l78 -27q-5 -33 -26.5 -54.5t-50.5 -28.5q21 -36 21 -87q0 -40 -15 -70t-41 -50t-60.5 -30t-73.5 -10q-17 0 -33.5 2t-26.5 6q-17 -9 -24 -21t-7 -27q0 -38 49 -38h113q79 0 120 -33t41 -96q0 -45 -22 -75t-58 -47t-81 -24 t-90 -7q-38 0 -74.5 5.5t-65 19.5t-45.5 37t-17 59q0 45 31 73t88 33q-32 4 -48 24t-16 48t15.5 49.5t52.5 31.5q-42 19 -66 54t-24 86q0 39 13.5 69.5t38.5 51.5t59 32t76 11zM94 -80q0 -37 35.5 -52t90.5 -15q70 0 112.5 16t42.5 60q0 26 -16.5 43.5t-61.5 17.5h-100 q-50 0 -76.5 -17t-26.5 -53zM132 310q0 -44 25 -70.5t72 -26.5q46 0 73.5 24t27.5 73t-27.5 73.5t-73.5 23.5q-46 0 -71.5 -25t-25.5 -72zM166 606q0 57 31 81t90 24v-37q-29 -2 -44.5 -10.5t-15.5 -32.5q27 5 44 -8.5t17 -38.5q0 -26 -16 -39.5t-41 -13.5q-26 0 -45.5 20 t-19.5 55z"></glyph><glyph glyph-name="Hcircumflex" unicode="Ĥ" d="M83 0v589h92v-250h281v250h92v-589h-92v259h-281v-259h-92zM343 782l125 -129h-97l-31 33q-14 14 -19 24q-3 5 -4 10h-3q-1 -5 -4 -10q-2 -5 -7 -10.5t-12 -13.5l-32 -33h-96l124 129h56z"></glyph><glyph glyph-name="hcircumflex" unicode="ĥ" d="M162 374q33 99 140 99q28 0 53.5 -8t45 -25.5t30.5 -44.5t11 -65v-330h-90v304q0 42 -19.5 66.5t-61.5 24.5q-21 0 -40.5 -6t-35 -21t-24.5 -40t-9 -63v-265h-90v668h90v-294zM147 828l125 -129h-97l-31 33q-14 14 -19 24q-3 5 -4 10h-3q-1 -5 -4 -10q-2 -5 -7 -10.5 t-12 -13.5l-32 -33h-96l124 129h56z"></glyph><glyph glyph-name="Hbar" unicode="Ħ" d="M13 494h76v95h92v-95h280v95h93v-95h79v-77h-79v-417h-93v257h-280v-257h-92v417h-76v77zM461 335v82h-280v-82h280z"></glyph><glyph glyph-name="hbar" unicode="ħ" d="M162 594h144v-65h-144v-155q33 99 140 99q28 0 53.5 -8t45 -25.5t30.5 -44.5t11 -65v-330h-90v304q0 42 -19.5 66.5t-61.5 24.5q-21 0 -40.5 -6t-35 -21t-24.5 -40t-9 -63v-265h-90v529h-69v65h69v74h90v-74z"></glyph><glyph glyph-name="Itilde" unicode="Ĩ" d="M175 589v-589h-92v589h92zM200 653q-23 0 -38 7t-34 17q-20 11 -32.5 18t-27.5 7q-16 0 -24.5 -10.5t-5.5 -36.5h-55q-9 24 -8 46.5t11 40.5t28.5 28.5t42.5 10.5q26 0 43 -7.5t36 -18.5q20 -13 31 -18.5t24 -5.5q14 0 22.5 11t6.5 38h57q9 -26 8 -49.5t-11 -40.5 t-28.5 -27t-45.5 -10z"></glyph><glyph glyph-name="itilde" unicode="ĩ" d="M162 462v-462h-90v462h90zM188 529q-23 0 -38 6.5t-34 16.5q-20 12 -32.5 18.5t-27.5 6.5q-16 0 -24.5 -10.5t-5.5 -36.5h-55q-9 24 -8 46.5t11 40t28.5 27.5t42.5 10q26 0 43 -8t36 -19q20 -12 31 -17.5t24 -5.5q14 0 22.5 10.5t6.5 38.5h57q18 -53 -2.5 -88.5 t-74.5 -35.5z"></glyph><glyph glyph-name="Imacron" unicode="Ī" d="M175 589v-589h-92v589h92zM-2 674v71h264v-71h-264z"></glyph><glyph glyph-name="imacron" unicode="ī" d="M3 558v73h227v-73h-227zM162 462v-462h-90v462h90z"></glyph><glyph glyph-name="Ibreve" unicode="Ĭ" d="M175 589v-589h-92v589h92zM129 650q-66 0 -100.5 35.5t-34.5 95.5h71q2 -31 15.5 -48t48.5 -17t49 17t16 48h71q0 -60 -35 -95.5t-101 -35.5z"></glyph><glyph glyph-name="Iogonek" unicode="Į" d="M-15 -106q0 26 8.5 46.5t22 36t31.5 26.5t36 18v568h92v-589q-18 0 -38 -5.5t-36 -17t-26.5 -29t-10.5 -41.5q0 -26 13.5 -41.5t39.5 -15.5q25 0 42 11.5t28 30.5l29 -44q-16 -26 -43 -42.5t-72 -16.5q-51 0 -83.5 26t-32.5 79z"></glyph><glyph glyph-name="iogonek" unicode="į" d="M-28 -106q0 26 8.5 46.5t22.5 36.5t32 27t37 18v440h90v-462q-18 0 -38 -5.5t-36 -17t-26.5 -29t-10.5 -41.5q0 -26 13.5 -41.5t39.5 -15.5q25 0 42 11.5t28 30.5l29 -44q-16 -26 -43 -42.5t-72 -16.5q-51 0 -83.5 26t-32.5 79zM56 610q0 27 18 43.5t42 16.5 q26 0 44.5 -16.5t18.5 -43.5q0 -26 -18.5 -43t-44.5 -17q-24 0 -42 17t-18 43z"></glyph><glyph glyph-name="Idotaccent" unicode="İ" d="M175 589v-589h-92v589h92zM68 713q0 27 17.5 43.5t42.5 16.5q26 0 44 -16.5t18 -43.5q0 -26 -18 -43t-44 -17q-25 0 -42.5 17t-17.5 43z"></glyph><glyph glyph-name="dotlessi" unicode="ı" d="M162 462v-462h-90v462h90z"></glyph><glyph glyph-name="IJ" unicode="Ĳ" d="M175 589v-589h-92v589h92zM595 589v-418q0 -51 -15.5 -86t-41 -56.5t-59 -31t-70.5 -9.5q-74 0 -118.5 32.5t-68.5 82.5l72 54q23 -51 48.5 -71.5t67.5 -20.5q28 0 46 9t28 25.5t14 40t4 52.5v397h93z"></glyph><glyph glyph-name="ij" unicode="ĳ" d="M56 610q0 27 18 43.5t42 16.5q26 0 44.5 -16.5t18.5 -43.5q0 -26 -18.5 -43t-44.5 -17q-24 0 -42 17t-18 43zM162 462v-462h-90v462h90zM396 462v-469q0 -57 -15 -95.5t-43.5 -61.5t-69.5 -32t-92 -7v76q68 -6 99 21t31 95v473h90zM291 610q0 27 17.5 43.5t42.5 16.5 q26 0 44 -16.5t18 -43.5q0 -26 -18 -43t-44 -17q-25 0 -42.5 17t-17.5 43z"></glyph><glyph glyph-name="Jcircumflex" unicode="Ĵ" d="M373 589v-418q0 -51 -15.5 -86t-41 -56.5t-59 -31t-70.5 -9.5q-74 0 -118.5 32.5t-68.5 82.5l72 54q23 -51 48.5 -71.5t67.5 -20.5q28 0 46 9t28 25.5t14 40t4 52.5v397h93zM353 782l125 -129h-97l-31 33q-14 14 -19 24q-3 5 -4 10h-3q-1 -5 -4 -10q-2 -5 -7 -10.5 t-12 -13.5l-32 -33h-96l124 129h56z"></glyph><glyph glyph-name="jcircumflex" unicode="ĵ" d="M162 462v-469q0 -57 -15 -95.5t-43.5 -61.5t-69.5 -32t-92 -7v76q68 -6 99 21t31 95v473h90zM144 675l125 -147h-92l-34 42q-8 8 -12.5 15.5t-6.5 12.5q-3 6 -4 10h-5q-1 -4 -4 -10q-4 -10 -19 -28l-34 -42h-92l125 147h53z"></glyph><glyph glyph-name="Kcommaaccent" unicode="Ķ" d="M406 0l-185 259h-46v-259h-92v589h92v-250h49l172 250h108l-205 -286l220 -303h-113zM330 -142q0 -57 -31 -81t-90 -24v37q29 2 44.5 10.5t15.5 32.5q-27 -5 -44 8.5t-17 38.5q0 26 15.5 39.5t41.5 13.5t45.5 -20t19.5 -55z"></glyph><glyph glyph-name="kcommaaccent" unicode="ķ" d="M462 0h-111l-161 207h-28v-207h-90v668h90v-391h23l153 185h109l-186 -215zM314 -142q0 -57 -31 -81t-90 -24v37q29 2 44.5 10.5t15.5 32.5q-27 -5 -44 8.5t-17 38.5q0 26 15.5 39.5t41.5 13.5t45.5 -20t19.5 -55z"></glyph><glyph glyph-name="kgreenlandic" unicode="ĸ" d="M462 0h-111l-161 207h-28v-207h-90v462h89v-185h24l153 185h109l-186 -215z"></glyph><glyph glyph-name="Lacute" unicode="Ĺ" d="M175 589v-509h264v-80h-356v589h92zM93 653l63 123h120l-101 -123h-82z"></glyph><glyph glyph-name="lacute" unicode="ĺ" d="M228 0q-18 -5 -31 -6.5t-25 -1.5q-44 0 -75 24t-31 76v576h90v-557q0 -22 11.5 -31.5t29.5 -9.5q10 0 17 1.5t15 3.5zM69 718l63 123h120l-101 -123h-82z"></glyph><glyph glyph-name="Lcommaaccent" unicode="Ļ" d="M175 589v-509h264v-80h-356v589h92zM332 -142q0 -57 -31 -81t-90 -24v37q29 2 44.5 10.5t15.5 32.5q-27 -5 -44 8.5t-17 38.5q0 26 15.5 39.5t41.5 13.5t45.5 -20t19.5 -55z"></glyph><glyph glyph-name="lcommaaccent" unicode="ļ" d="M228 0q-18 -5 -31 -6.5t-25 -1.5q-44 0 -75 24t-31 76v576h90v-557q0 -22 11.5 -31.5t29.5 -9.5q10 0 17 1.5t15 3.5zM212 -142q0 -57 -31 -81t-90 -24v37q29 2 44.5 10.5t15.5 32.5q-27 -5 -44 8.5t-17 38.5q0 26 15.5 39.5t41.5 13.5t45.5 -20t19.5 -55z"></glyph><glyph glyph-name="Lcaron" unicode="Ľ" d="M175 589v-509h264v-80h-356v589h92zM361 433h-66l16 180h102z"></glyph><glyph glyph-name="lcaron" unicode="ľ" d="M282 498h-65l16 176h102zM228 0q-18 -5 -31 -6.5t-25 -1.5q-44 0 -75 24t-31 76v576h90v-557q0 -22 11.5 -31.5t29.5 -9.5q10 0 17 1.5t15 3.5z"></glyph><glyph glyph-name="Ldot" unicode="Ŀ" d="M175 589v-509h264v-80h-356v589h92zM262 316q0 29 19.5 48.5t48.5 19.5t48.5 -19.5t19.5 -48.5t-19.5 -48.5t-48.5 -19.5t-48.5 19.5t-19.5 48.5z"></glyph><glyph glyph-name="ldot" unicode="ŀ" d="M228 0q-18 -5 -31 -6.5t-25 -1.5q-44 0 -75 24t-31 76v576h90v-557q0 -22 11.5 -31.5t29.5 -9.5q10 0 17 1.5t15 3.5zM208 319q0 29 19.5 48.5t48.5 19.5t48.5 -19.5t19.5 -48.5t-19.5 -48.5t-48.5 -19.5t-48.5 19.5t-19.5 48.5z"></glyph><glyph glyph-name="Lslash" unicode="Ł" d="M30 288l60 22v279h92v-245l143 53v-74l-143 -52v-191h264v-80h-356v238l-60 -21v71z"></glyph><glyph glyph-name="lslash" unicode="ł" d="M16 344l59 30v294h90v-247l74 39v-78l-74 -38v-233q0 -22 11.5 -31.5t29.5 -9.5q10 0 17 1.5t15 3.5l-1 -75q-18 -5 -31 -6.5t-25 -1.5q-44 0 -75 24t-31 76v207l-59 -30v75z"></glyph><glyph glyph-name="Nacute" unicode="Ń" d="M409 252q13 -20 25.5 -40t21.5 -36q11 -19 20 -36h4q-2 19 -3 41q-1 19 -1.5 43.5t-0.5 52.5v312h92v-589h-91l-235 336q-14 20 -26.5 40t-21.5 37q-11 19 -20 37h-4q1 -19 3 -41q1 -19 2 -44t1 -54v-311h-92v589h94zM281 653l63 123h120l-101 -123h-82z"></glyph><glyph glyph-name="nacute" unicode="ń" d="M154 373q19 52 57 76t91 24q28 0 53.5 -8t45 -25.5t30.5 -44.5t11 -65v-330h-90v303q0 43 -19.5 67.5t-61.5 24.5q-21 0 -40.5 -6.5t-35 -21.5t-24.5 -40t-9 -62v-265h-90v462h71zM215 529l74 146h121l-116 -146h-79z"></glyph><glyph glyph-name="Ncommaaccent" unicode="Ņ" d="M409 252q13 -20 25.5 -40t21.5 -36q11 -19 20 -36h4q-2 19 -3 41q-1 19 -1.5 43.5t-0.5 52.5v312h92v-589h-91l-235 336q-14 20 -26.5 40t-21.5 37q-11 19 -20 37h-4q1 -19 3 -41q1 -19 2 -44t1 -54v-311h-92v589h94zM396 -142q0 -57 -31 -81t-90 -24v37q29 2 44.5 10.5 t15.5 32.5q-27 -5 -44 8.5t-17 38.5q0 26 15.5 39.5t41.5 13.5t45.5 -20t19.5 -55z"></glyph><glyph glyph-name="ncommaaccent" unicode="ņ" d="M154 373q19 52 57 76t91 24q28 0 53.5 -8t45 -25.5t30.5 -44.5t11 -65v-330h-90v303q0 43 -19.5 67.5t-61.5 24.5q-21 0 -40.5 -6.5t-35 -21.5t-24.5 -40t-9 -62v-265h-90v462h71zM323 -142q0 -57 -31 -81t-90 -24v37q29 2 44.5 10.5t15.5 32.5q-27 -5 -44 8.5t-17 38.5 q0 26 15.5 39.5t41.5 13.5t45.5 -20t19.5 -55z"></glyph><glyph glyph-name="Ncaron" unicode="Ň" d="M409 252q13 -20 25.5 -40t21.5 -36q11 -19 20 -36h4q-2 19 -3 41q-1 19 -1.5 43.5t-0.5 52.5v312h92v-589h-91l-235 336q-14 20 -26.5 40t-21.5 37q-11 19 -20 37h-4q1 -19 3 -41q1 -19 2 -44t1 -54v-311h-92v589h94zM297 649l-124 129h96l32 -33q15 -16 19 -25 q3 -5 4 -9h3q1 4 4 9q2 5 6.5 11t12.5 14l31 33h97l-125 -129h-56z"></glyph><glyph glyph-name="ncaron" unicode="ň" d="M154 373q19 52 57 76t91 24q28 0 53.5 -8t45 -25.5t30.5 -44.5t11 -65v-330h-90v303q0 43 -19.5 67.5t-61.5 24.5q-21 0 -40.5 -6.5t-35 -21.5t-24.5 -40t-9 -62v-265h-90v462h71zM234 528l-125 147h92l34 -43q7 -9 12 -16t7 -12q3 -6 4 -10h5q1 4 4 10q5 11 19 28l34 43 h92l-125 -147h-53z"></glyph><glyph glyph-name="Eng" unicode="Ŋ" d="M567 -28q0 -52 -15.5 -87t-42 -56.5t-61 -30.5t-72.5 -9q-50 0 -87 18t-63 44l54 70q19 -24 45.5 -39t55.5 -15q28 0 46.5 9t29 25.5t14.5 39.5t4 52v7l-234 336q-14 20 -26.5 40t-21.5 37q-11 19 -20 37h-4q1 -19 3 -41q1 -19 2 -44t1 -54v-311h-92v589h94l232 -337 q13 -20 25.5 -40t21.5 -36q11 -19 20 -36h4q-2 19 -3 41q-1 19 -1.5 43.5t-0.5 52.5v312h92v-617z"></glyph><glyph glyph-name="eng" unicode="ŋ" d="M72 0v462h71l11 -89q19 52 57 76t91 24q28 0 53.5 -8t45 -25.5t30.5 -44.5t11 -65v-337q0 -57 -15 -95.5t-43.5 -61.5t-69.5 -32t-92 -7v76q68 -6 99 21t31 94v315q0 43 -19.5 67.5t-61.5 24.5q-21 0 -40.5 -6.5t-35 -21.5t-24.5 -40t-9 -62v-265h-90z"></glyph><glyph glyph-name="Omacron" unicode="Ō" d="M310 -12q-61 0 -110 20t-83.5 59t-53.5 96t-19 131t19 131t53.5 96t83.5 59.5t110 20.5t110 -20.5t83.5 -59.5t53 -96t18.5 -131t-18.5 -131t-53 -96t-83.5 -59t-110 -20zM310 520q-84 0 -126.5 -60t-42.5 -166t42.5 -166t126.5 -60t126 60t42 166t-42.5 166t-125.5 60z M178 674v71h264v-71h-264z"></glyph><glyph glyph-name="omacron" unicode="ō" d="M252 -12q-48 0 -86.5 16t-66 47.5t-42.5 77.5t-15 105q0 118 57 178.5t153 60.5t153.5 -60.5t57.5 -178.5q0 -119 -57.5 -182.5t-153.5 -63.5zM252 400q-121 0 -121 -167q0 -174 121 -174q122 0 122 174q0 167 -122 167zM122 558v73h262v-73h-262z"></glyph><glyph glyph-name="Obreve" unicode="Ŏ" d="M310 -12q-61 0 -110 20t-83.5 59t-53.5 96t-19 131t19 131t53.5 96t83.5 59.5t110 20.5t110 -20.5t83.5 -59.5t53 -96t18.5 -131t-18.5 -131t-53 -96t-83.5 -59t-110 -20zM310 520q-84 0 -126.5 -60t-42.5 -166t42.5 -166t126.5 -60t126 60t42 166t-42.5 166t-125.5 60z M310 650q-66 0 -100.5 35.5t-34.5 95.5h71q2 -31 15.5 -48t48.5 -17t49 17t16 48h71q0 -60 -35 -95.5t-101 -35.5z"></glyph><glyph glyph-name="obreve" unicode="ŏ" d="M252 -12q-48 0 -86.5 16t-66 47.5t-42.5 77.5t-15 105q0 118 57 178.5t153 60.5t153.5 -60.5t57.5 -178.5q0 -119 -57.5 -182.5t-153.5 -63.5zM252 400q-121 0 -121 -167q0 -174 121 -174q122 0 122 174q0 167 -122 167zM253 526q-66 0 -101 39t-35 102h71 q2 -33 14.5 -53.5t50.5 -20.5q37 0 50 20.5t15 53.5h71q0 -63 -35 -102t-101 -39z"></glyph><glyph glyph-name="Ohungarumlaut" unicode="Ő" d="M310 -12q-61 0 -110 20t-83.5 59t-53.5 96t-19 131t19 131t53.5 96t83.5 59.5t110 20.5t110 -20.5t83.5 -59.5t53 -96t18.5 -131t-18.5 -131t-53 -96t-83.5 -59t-110 -20zM310 520q-84 0 -126.5 -60t-42.5 -166t42.5 -166t126.5 -60t126 60t42 166t-42.5 166t-125.5 60z M198 653l62 123h109l-104 -123h-67zM344 653l74 123h113l-116 -123h-71z"></glyph><glyph glyph-name="ohungarumlaut" unicode="ő" d="M252 -12q-48 0 -86.5 16t-66 47.5t-42.5 77.5t-15 105q0 118 57 178.5t153 60.5t153.5 -60.5t57.5 -178.5q0 -119 -57.5 -182.5t-153.5 -63.5zM252 400q-121 0 -121 -167q0 -174 121 -174q122 0 122 174q0 167 -122 167zM140 529l62 146h109l-104 -146h-67zM286 529 l74 146h113l-116 -146h-71z"></glyph><glyph glyph-name="OE" unicode="Œ" d="M310 -12q-61 0 -110 20t-83.5 59t-53.5 96t-19 131t19 131t53.5 96t83.5 59.5t110 20.5q45 0 86 -12h398v-80h-282q52 -66 61 -174h190v-80h-190q-5 -55 -20 -99t-41 -76h282v-80h-398q-41 -12 -86 -12zM310 520q-84 0 -125.5 -60t-41.5 -166t41.5 -166t125.5 -60t125 60 t41 166t-41.5 166t-124.5 60z"></glyph><glyph glyph-name="oe" unicode="œ" d="M586 59q38 0 63.5 16.5t37.5 58.5l79 -21q-7 -35 -24.5 -59t-42.5 -38.5t-55.5 -21t-63.5 -6.5q-54 0 -97.5 22.5t-65.5 70.5q-20 -48 -63.5 -70.5t-101.5 -22.5q-48 0 -86.5 16t-66 47.5t-42.5 77.5t-15 105q0 118 57 178.5t153 60.5q58 0 102.5 -22t64.5 -72 q22 46 65.5 70t100.5 24q45 0 79 -14.5t57.5 -41t35 -62.5t11.5 -79q0 -20 -2 -36.5t-6 -27.5h-298q3 -68 34 -110.5t90 -42.5zM252 400q-121 0 -121 -167q0 -174 121 -174q122 0 122 174q0 167 -122 167zM680 277q1 5 1 9.5v9.5q0 45 -26.5 75.5t-74.5 30.5 q-49 0 -79 -32.5t-37 -92.5h216z"></glyph><glyph glyph-name="Racute" unicode="Ŕ" d="M414 0q-11 12 -16.5 25t-9.5 30l-24 102q-6 26 -16 42t-23.5 25t-31 12t-39.5 3h-79v-239h-92v589h204q201 0 201 -168q0 -35 -11 -61.5t-29.5 -45t-43 -28.5t-52.5 -11v-3q42 -5 66 -25.5t36 -68.5l30 -116q5 -18 12.5 -33t18.5 -29h-101zM175 316h108q109 0 109 98 q0 46 -26.5 72t-81.5 26h-109v-196zM217 653l63 123h120l-101 -123h-82z"></glyph><glyph glyph-name="racute" unicode="ŕ" d="M331 371q-8 2 -19 3t-22 1q-24 0 -47 -9.5t-41 -27.5t-29 -44t-11 -60v-234h-90v462h76l11 -125q13 62 57.5 100.5t121.5 34.5zM158 529l74 146h121l-116 -146h-79z"></glyph><glyph glyph-name="Rcommaaccent" unicode="Ŗ" d="M414 0q-11 12 -16.5 25t-9.5 30l-24 102q-6 26 -16 42t-23.5 25t-31 12t-39.5 3h-79v-239h-92v589h204q201 0 201 -168q0 -35 -11 -61.5t-29.5 -45t-43 -28.5t-52.5 -11v-3q42 -5 66 -25.5t36 -68.5l30 -116q5 -18 12.5 -33t18.5 -29h-101zM175 316h108q109 0 109 98 q0 46 -26.5 72t-81.5 26h-109v-196zM332 -142q0 -57 -31 -81t-90 -24v37q29 2 44.5 10.5t15.5 32.5q-27 -5 -44 8.5t-17 38.5q0 26 15.5 39.5t41.5 13.5t45.5 -20t19.5 -55z"></glyph><glyph glyph-name="rcommaaccent" unicode="ŗ" d="M331 371q-8 2 -19 3t-22 1q-24 0 -47 -9.5t-41 -27.5t-29 -44t-11 -60v-234h-90v462h76l11 -125q13 62 57.5 100.5t121.5 34.5zM178 -142q0 -57 -31 -81t-90 -24v37q29 2 44.5 10.5t15.5 32.5q-27 -5 -44 8.5t-17 38.5q0 26 15.5 39.5t41.5 13.5t45.5 -20t19.5 -55z"></glyph><glyph glyph-name="Rcaron" unicode="Ř" d="M414 0q-11 12 -16.5 25t-9.5 30l-24 102q-6 26 -16 42t-23.5 25t-31 12t-39.5 3h-79v-239h-92v589h204q201 0 201 -168q0 -35 -11 -61.5t-29.5 -45t-43 -28.5t-52.5 -11v-3q42 -5 66 -25.5t36 -68.5l30 -116q5 -18 12.5 -33t18.5 -29h-101zM175 316h108q109 0 109 98 q0 46 -26.5 72t-81.5 26h-109v-196zM233 649l-124 129h96l32 -33q15 -16 19 -25q3 -5 4 -9h3q1 4 4 9q2 5 6.5 11t12.5 14l31 33h97l-125 -129h-56z"></glyph><glyph glyph-name="rcaron" unicode="ř" d="M331 371q-8 2 -19 3t-22 1q-24 0 -47 -9.5t-41 -27.5t-29 -44t-11 -60v-234h-90v462h76l11 -125q13 62 57.5 100.5t121.5 34.5zM169 528l-125 147h92l34 -43q7 -9 12 -16t7 -12q3 -6 4 -10h5q1 4 4 10q5 11 19 28l34 43h92l-125 -147h-53z"></glyph><glyph glyph-name="Sacute" unicode="Ś" d="M114 164q9 -54 42 -79.5t81 -25.5t77 21t29 63q0 19 -5.5 34.5t-19.5 28t-37.5 24.5t-59.5 26q-35 12 -66 26t-54.5 34.5t-37.5 49t-14 69.5q0 46 16.5 78t43 51.5t60 28.5t68.5 9q40 0 75 -8.5t61.5 -27t43 -48t20.5 -71.5l-91 -18q-5 49 -34 74t-74 25 q-42 0 -68.5 -21.5t-26.5 -63.5q0 -22 8.5 -37.5t25 -27.5t40.5 -22.5t55 -21.5q34 -12 64 -26t52.5 -34.5t35.5 -49t13 -69.5q0 -44 -16 -75.5t-44 -51.5t-65.5 -30t-79.5 -10q-88 0 -139 36t-65 117zM200 653l63 123h120l-101 -123h-82z"></glyph><glyph glyph-name="sacute" unicode="ś" d="M107 128q5 -40 31.5 -58t68.5 -18q40 0 66 15t26 47q0 29 -15 45.5t-57 27.5l-68 16q-63 15 -89.5 47.5t-26.5 83.5q0 39 15 65.5t39 43t55.5 23.5t64.5 7q73 0 116 -28.5t50 -96.5l-88 -10q-4 67 -84 67q-38 0 -59.5 -16.5t-21.5 -45.5q0 -25 12.5 -41t50.5 -24l64 -15 q62 -15 95 -46.5t33 -92.5q0 -37 -14 -63t-38 -42t-56.5 -23.5t-70.5 -7.5q-79 0 -124 26.5t-55 89.5zM177 529l74 146h121l-116 -146h-79z"></glyph><glyph glyph-name="Scircumflex" unicode="Ŝ" d="M114 164q9 -54 42 -79.5t81 -25.5t77 21t29 63q0 19 -5.5 34.5t-19.5 28t-37.5 24.5t-59.5 26q-35 12 -66 26t-54.5 34.5t-37.5 49t-14 69.5q0 46 16.5 78t43 51.5t60 28.5t68.5 9q40 0 75 -8.5t61.5 -27t43 -48t20.5 -71.5l-91 -18q-5 49 -34 74t-74 25 q-42 0 -68.5 -21.5t-26.5 -63.5q0 -22 8.5 -37.5t25 -27.5t40.5 -22.5t55 -21.5q34 -12 64 -26t52.5 -34.5t35.5 -49t13 -69.5q0 -44 -16 -75.5t-44 -51.5t-65.5 -30t-79.5 -10q-88 0 -139 36t-65 117zM272 782l125 -129h-97l-31 33q-14 14 -19 24q-3 5 -4 10h-3 q-1 -5 -4 -10q-2 -5 -7 -10.5t-12 -13.5l-32 -33h-96l124 129h56z"></glyph><glyph glyph-name="scircumflex" unicode="ŝ" d="M107 128q5 -40 31.5 -58t68.5 -18q40 0 66 15t26 47q0 29 -15 45.5t-57 27.5l-68 16q-63 15 -89.5 47.5t-26.5 83.5q0 39 15 65.5t39 43t55.5 23.5t64.5 7q73 0 116 -28.5t50 -96.5l-88 -10q-4 67 -84 67q-38 0 -59.5 -16.5t-21.5 -45.5q0 -25 12.5 -41t50.5 -24l64 -15 q62 -15 95 -46.5t33 -92.5q0 -37 -14 -63t-38 -42t-56.5 -23.5t-70.5 -7.5q-79 0 -124 26.5t-55 89.5zM250 675l125 -147h-92l-34 42q-8 8 -12.5 15.5t-6.5 12.5q-3 6 -4 10h-5q-1 -4 -4 -10q-4 -10 -19 -28l-34 -42h-92l125 147h53z"></glyph><glyph glyph-name="Scedilla" unicode="Ş" d="M341 -124q0 -45 -30.5 -66t-74.5 -21q-62 0 -90 38l24 51q25 -36 63 -36q17 0 26.5 8.5t9.5 25.5q0 19 -15.5 30t-50.5 12l5 71q-77 5 -122 41t-58 111l86 23q9 -54 42 -79.5t81 -25.5t77 21t29 63q0 19 -5.5 34.5t-19.5 28t-37.5 24.5t-59.5 26q-35 12 -66 26 t-54.5 34.5t-37.5 49t-14 69.5q0 46 16.5 78t43 51.5t60 28.5t68.5 9q40 0 75 -8.5t61.5 -27t43 -48t20.5 -71.5l-91 -18q-5 49 -34 74t-74 25q-42 0 -68.5 -21.5t-26.5 -63.5q0 -22 8.5 -37.5t25 -27.5t40.5 -22.5t55 -21.5q34 -12 64 -26t52.5 -34.5t35.5 -49t13 -69.5 t-14 -71t-38.5 -50t-58 -31t-71.5 -14l-2 -30q47 -4 67.5 -25.5t20.5 -57.5z"></glyph><glyph glyph-name="scedilla" unicode="ş" d="M310 -124q0 -45 -30.5 -66t-74.5 -21q-62 0 -90 38l24 51q25 -36 63 -36q17 0 26.5 8.5t9.5 25.5q0 19 -15.5 30t-50.5 12l5 71q-66 5 -103.5 31.5t-46.5 83.5l80 24q5 -40 31.5 -58t68.5 -18q40 0 66 15t26 47q0 29 -15 45.5t-57 27.5l-68 16q-63 15 -89.5 47.5 t-26.5 83.5q0 39 15 65.5t39 43t55.5 23.5t64.5 7q73 0 116 -28.5t50 -96.5l-88 -10q-4 67 -84 67q-38 0 -59.5 -16.5t-21.5 -45.5q0 -25 12.5 -41t50.5 -24l64 -15q62 -15 95 -46.5t33 -92.5q0 -35 -12 -60t-34 -41t-51.5 -24.5t-63.5 -9.5l-2 -30q47 -4 67.5 -25.5 t20.5 -57.5z"></glyph><glyph glyph-name="Scaron" unicode="Š" d="M114 164q9 -54 42 -79.5t81 -25.5t77 21t29 63q0 19 -5.5 34.5t-19.5 28t-37.5 24.5t-59.5 26q-35 12 -66 26t-54.5 34.5t-37.5 49t-14 69.5q0 46 16.5 78t43 51.5t60 28.5t68.5 9q40 0 75 -8.5t61.5 -27t43 -48t20.5 -71.5l-91 -18q-5 49 -34 74t-74 25 q-42 0 -68.5 -21.5t-26.5 -63.5q0 -22 8.5 -37.5t25 -27.5t40.5 -22.5t55 -21.5q34 -12 64 -26t52.5 -34.5t35.5 -49t13 -69.5q0 -44 -16 -75.5t-44 -51.5t-65.5 -30t-79.5 -10q-88 0 -139 36t-65 117zM216 649l-124 129h96l32 -33q15 -16 19 -25q3 -5 4 -9h3q1 4 4 9 q2 5 6.5 11t12.5 14l31 33h97l-125 -129h-56z"></glyph><glyph glyph-name="scaron" unicode="š" d="M107 128q5 -40 31.5 -58t68.5 -18q40 0 66 15t26 47q0 29 -15 45.5t-57 27.5l-68 16q-63 15 -89.5 47.5t-26.5 83.5q0 39 15 65.5t39 43t55.5 23.5t64.5 7q73 0 116 -28.5t50 -96.5l-88 -10q-4 67 -84 67q-38 0 -59.5 -16.5t-21.5 -45.5q0 -25 12.5 -41t50.5 -24l64 -15 q62 -15 95 -46.5t33 -92.5q0 -37 -14 -63t-38 -42t-56.5 -23.5t-70.5 -7.5q-79 0 -124 26.5t-55 89.5zM189 528l-125 147h92l34 -43q7 -9 12 -16t7 -12q3 -6 4 -10h5q1 4 4 10q5 11 19 28l34 43h92l-125 -147h-53z"></glyph><glyph glyph-name="Tcommaaccent" unicode="Ţ" d="M181 0v509h-171v80h436v-80h-172v-509h-93zM287 -142q0 -57 -31 -81t-90 -24v37q29 2 44.5 10.5t15.5 32.5q-27 -5 -44 8.5t-17 38.5q0 26 15.5 39.5t41.5 13.5t45.5 -20t19.5 -55z"></glyph><glyph glyph-name="tcommaaccent" unicode="ţ" d="M322 15q-45 -27 -112 -27q-63 0 -98 32.5t-35 97.5v272h-67v72h67v98l91 11v-109h137v-72h-138v-254q0 -38 16 -54.5t45 -16.5q23 0 40 6t37 19zM253 -142q0 -57 -31 -81t-90 -24v37q29 2 44.5 10.5t15.5 32.5q-27 -5 -44 8.5t-17 38.5q0 26 15.5 39.5t41.5 13.5 t45.5 -20t19.5 -55z"></glyph><glyph glyph-name="Tcaron" unicode="Ť" d="M181 0v509h-171v80h436v-80h-172v-509h-93zM200 649l-124 129h96l32 -33q15 -16 19 -25q3 -5 4 -9h3q1 4 4 9q2 5 6.5 11t12.5 14l31 33h97l-125 -129h-56z"></glyph><glyph glyph-name="tcaron" unicode="ť" d="M322 15q-45 -27 -112 -27q-63 0 -98 32.5t-35 97.5v272h-67v72h67v98l91 11v-109h137v-72h-138v-254q0 -38 16 -54.5t45 -16.5q23 0 40 6t37 19zM281 515h-66l16 180h102z"></glyph><glyph glyph-name="Tbar" unicode="Ŧ" d="M181 0v253h-111v76h111v180h-171v80h436v-80h-172v-180h114v-76h-114v-253h-93z"></glyph><glyph glyph-name="tbar" unicode="ŧ" d="M10 305h67v85h-67v72h67v98l91 11v-109h137v-72h-138v-85h138v-69h-138v-100q0 -38 16 -54.5t45 -16.5q23 0 40 6t37 19l17 -75q-45 -27 -112 -27q-63 0 -98 32.5t-35 97.5v118h-67v69z"></glyph><glyph glyph-name="Utilde" unicode="Ũ" d="M518 589v-396q0 -57 -19.5 -96.5t-51 -63.5t-72.5 -34.5t-84 -10.5q-44 0 -84.5 10.5t-72.5 34.5t-51 63.5t-19 96.5v396h92v-372q0 -80 35 -116.5t100 -36.5q64 0 99 36.5t35 114.5v374h93zM360 653q-23 0 -38 7t-34 17q-20 11 -32.5 18t-27.5 7q-16 0 -24.5 -10.5 t-5.5 -36.5h-55q-9 24 -8 46.5t11 40.5t28.5 28.5t42.5 10.5q26 0 43 -7.5t36 -18.5q20 -13 31 -18.5t24 -5.5q14 0 22.5 11t6.5 38h57q9 -26 8 -49.5t-11 -40.5t-28.5 -27t-45.5 -10z"></glyph><glyph glyph-name="utilde" unicode="ũ" d="M348 84q-17 -51 -52 -73.5t-90 -22.5q-32 0 -57.5 8.5t-44 27t-28.5 47.5t-10 70v321h90v-307q0 -100 83 -100q19 0 38 8.5t34.5 25t25 42t9.5 58.5v273h90v-462h-77zM321 529q-23 0 -38 6.5t-34 16.5q-20 12 -32.5 18.5t-27.5 6.5q-16 0 -24.5 -10.5t-5.5 -36.5h-55 q-9 24 -8 46.5t11 40t28.5 27.5t42.5 10q26 0 43 -8t36 -19q20 -12 31 -17.5t24 -5.5q14 0 22.5 10.5t6.5 38.5h57q18 -53 -2.5 -88.5t-74.5 -35.5z"></glyph><glyph glyph-name="Umacron" unicode="Ū" d="M518 589v-396q0 -57 -19.5 -96.5t-51 -63.5t-72.5 -34.5t-84 -10.5q-44 0 -84.5 10.5t-72.5 34.5t-51 63.5t-19 96.5v396h92v-372q0 -80 35 -116.5t100 -36.5q64 0 99 36.5t35 114.5v374h93zM159 674v71h264v-71h-264z"></glyph><glyph glyph-name="umacron" unicode="ū" d="M348 84q-17 -51 -52 -73.5t-90 -22.5q-32 0 -57.5 8.5t-44 27t-28.5 47.5t-10 70v321h90v-307q0 -100 83 -100q19 0 38 8.5t34.5 25t25 42t9.5 58.5v273h90v-462h-77zM121 558v73h262v-73h-262z"></glyph><glyph glyph-name="Ubreve" unicode="Ŭ" d="M518 589v-396q0 -57 -19.5 -96.5t-51 -63.5t-72.5 -34.5t-84 -10.5q-44 0 -84.5 10.5t-72.5 34.5t-51 63.5t-19 96.5v396h92v-372q0 -80 35 -116.5t100 -36.5q64 0 99 36.5t35 114.5v374h93zM290 650q-66 0 -100.5 35.5t-34.5 95.5h71q2 -31 15.5 -48t48.5 -17t49 17 t16 48h71q0 -60 -35 -95.5t-101 -35.5z"></glyph><glyph glyph-name="ubreve" unicode="ŭ" d="M348 84q-17 -51 -52 -73.5t-90 -22.5q-32 0 -57.5 8.5t-44 27t-28.5 47.5t-10 70v321h90v-307q0 -100 83 -100q19 0 38 8.5t34.5 25t25 42t9.5 58.5v273h90v-462h-77zM251 526q-66 0 -101 39t-35 102h71q2 -33 14.5 -53.5t50.5 -20.5q37 0 50 20.5t15 53.5h71 q0 -63 -35 -102t-101 -39z"></glyph><glyph glyph-name="Uring" unicode="Ů" d="M518 589v-396q0 -57 -19.5 -96.5t-51 -63.5t-72.5 -34.5t-84 -10.5q-44 0 -84.5 10.5t-72.5 34.5t-51 63.5t-19 96.5v396h92v-372q0 -80 35 -116.5t100 -36.5q64 0 99 36.5t35 114.5v374h93zM299 635q-50 0 -76.5 29t-26.5 71q0 39 28 68t75 29t75 -29t28 -68 q0 -42 -26.5 -71t-76.5 -29zM299 790q-26 0 -40.5 -16t-14.5 -41q0 -23 14 -38t41 -15t41 15t14 38q0 25 -14.5 41t-40.5 16z"></glyph><glyph glyph-name="uring" unicode="ů" d="M348 84q-17 -51 -52 -73.5t-90 -22.5q-32 0 -57.5 8.5t-44 27t-28.5 47.5t-10 70v321h90v-307q0 -100 83 -100q19 0 38 8.5t34.5 25t25 42t9.5 58.5v273h90v-462h-77zM252 520q-50 0 -76.5 29t-26.5 71q0 39 28 67.5t75 28.5t75 -28.5t28 -67.5q0 -42 -26.5 -71 t-76.5 -29zM252 674q-26 0 -40.5 -15.5t-14.5 -40.5q0 -23 14 -38t41 -15t41 15t14 38q0 25 -14.5 40.5t-40.5 15.5z"></glyph><glyph glyph-name="Uhungarumlaut" unicode="Ű" d="M518 589v-396q0 -57 -19.5 -96.5t-51 -63.5t-72.5 -34.5t-84 -10.5q-44 0 -84.5 10.5t-72.5 34.5t-51 63.5t-19 96.5v396h92v-372q0 -80 35 -116.5t100 -36.5q64 0 99 36.5t35 114.5v374h93zM178 653l62 123h109l-104 -123h-67zM324 653l74 123h113l-116 -123h-71z"></glyph><glyph glyph-name="uhungarumlaut" unicode="ű" d="M348 84q-17 -51 -52 -73.5t-90 -22.5q-32 0 -57.5 8.5t-44 27t-28.5 47.5t-10 70v321h90v-307q0 -100 83 -100q19 0 38 8.5t34.5 25t25 42t9.5 58.5v273h90v-462h-77zM138 529l62 146h109l-104 -146h-67zM284 529l74 146h113l-116 -146h-71z"></glyph><glyph glyph-name="Uogonek" unicode="Ų" d="M186 -106q0 33 13.5 57.5t33.5 41.5q-35 6 -65.5 20t-53.5 38t-36.5 59t-13.5 83v396h92v-372q0 -80 35 -116.5t100 -36.5q64 0 99 36.5t35 114.5v374h93v-396q0 -52 -16 -89t-42.5 -61t-61.5 -37t-74 -16q-24 -11 -41 -31t-17 -52q0 -26 13 -41.5t39 -15.5q25 0 42 11.5 t28 30.5l29 -44q-15 -26 -42.5 -42.5t-72.5 -16.5q-51 0 -83.5 26t-32.5 79z"></glyph><glyph glyph-name="uogonek" unicode="ų" d="M250 -110q0 24 9.5 44t24.5 36t34 28t38 20l-8 70q-16 -48 -51.5 -74t-90.5 -26q-32 0 -57.5 8.5t-44 27t-28.5 47.5t-10 70v321h90v-307q0 -100 81 -100q19 0 38.5 9t35.5 26.5t25.5 43.5t9.5 59v269h90v-462q-21 -1 -40.5 -7.5t-34 -18.5t-23.5 -29.5t-9 -38.5 q0 -26 11.5 -41t37.5 -15q25 0 42 11.5t28 30.5l29 -44q-16 -26 -43 -42.5t-72 -16.5q-51 0 -81.5 26t-30.5 75z"></glyph><glyph glyph-name="Wcircumflex" unicode="Ŵ" d="M562 220q8 -35 14.5 -64t10.5 -50q4 -25 7 -45h4q3 20 7 45q4 21 9.5 50t13.5 63l93 370h93l-153 -589h-131l-90 347q-9 34 -14.5 63t-7.5 50q-3 25 -3 45h-4q-1 -20 -5 -45q-3 -21 -8.5 -49.5t-13.5 -63.5l-89 -347h-131l-152 589h98l92 -367q8 -35 14 -64t10 -51 q4 -26 7 -46h4q2 20 6 46q4 22 10 50.5t15 63.5l95 368h107zM441 782l125 -129h-97l-31 33q-14 14 -19 24q-3 5 -4 10h-3q-1 -5 -4 -10q-2 -5 -7 -10.5t-12 -13.5l-32 -33h-96l124 129h56z"></glyph><glyph glyph-name="wcircumflex" unicode="ŵ" d="M448 222q10 -35 15.5 -63.5t9.5 -49.5q4 -25 6 -44h4q0 18 4 43q3 20 8 49.5t14 64.5l62 240h91l-126 -462h-108l-61 219q-10 33 -15.5 59.5t-8.5 46.5q-4 22 -6 40h-4q-1 -18 -5 -40q-6 -39 -23 -106l-58 -219h-108l-129 462h93l63 -240q9 -35 15 -63.5t10 -49.5 q4 -25 6 -44h4q1 19 5 44q3 21 8 50t15 64l64 239h90zM362 675l125 -147h-92l-34 42q-8 8 -12.5 15.5t-6.5 12.5q-3 6 -4 10h-5q-1 -4 -4 -10q-4 -10 -19 -28l-34 -42h-92l125 147h53z"></glyph><glyph glyph-name="Ycircumflex" unicode="Ŷ" d="M207 402q13 -26 20.5 -44t12.5 -31q5 -15 8 -25h4q2 10 7 25q7 24 31 75l87 187h97l-180 -366v-223h-92v223l-192 366h105zM270 782l125 -129h-97l-31 33q-14 14 -19 24q-3 5 -4 10h-3q-1 -5 -4 -10q-2 -5 -7 -10.5t-12 -13.5l-32 -33h-96l124 129h56z"></glyph><glyph glyph-name="ycircumflex" unicode="ŷ" d="M186 208q11 -34 17 -61t11 -46q4 -22 8 -39h4q3 17 7 39q4 19 10.5 45.5t17.5 61.5l77 254h94l-170 -500q-18 -51 -38 -84t-43 -52t-49.5 -26.5t-57.5 -7.5q-17 0 -34.5 3t-32.5 8l8 77q28 -14 60 -14q37 0 60.5 23t43.5 84l-171 489h99zM252 675l125 -147h-92l-34 42 q-8 8 -12.5 15.5t-6.5 12.5q-3 6 -4 10h-5q-1 -4 -4 -10q-4 -10 -19 -28l-34 -42h-92l125 147h53z"></glyph><glyph glyph-name="Ydieresis" unicode="Ÿ" d="M207 402q13 -26 20.5 -44t12.5 -31q5 -15 8 -25h4q2 10 7 25q7 24 31 75l87 187h97l-180 -366v-223h-92v223l-192 366h105zM84 713q0 26 17.5 43t41.5 17q25 0 42.5 -17t17.5 -43t-17.5 -42.5t-42.5 -16.5q-24 0 -41.5 16.5t-17.5 42.5zM280 712q0 26 17.5 43t41.5 17 q26 0 43 -17t17 -43q0 -25 -17 -42t-43 -17q-24 0 -41.5 17t-17.5 42z"></glyph><glyph glyph-name="Zacute" unicode="Ź" d="M196 154q-13 -19 -23 -32.5t-18 -22.5q-9 -11 -16 -18v-4q8 0 20 1q11 1 27 1.5t39 0.5h228v-80h-431v55l253 380q12 18 22 32t18 23q9 11 17 18v4q-9 -1 -21 -2q-11 -1 -26.5 -1h-38.5h-212v80h414v-62zM193 653l63 123h120l-101 -123h-82z"></glyph><glyph glyph-name="zacute" unicode="ź" d="M186 148q-13 -19 -23 -32.5t-18 -22.5q-9 -11 -16 -18v-4q8 0 20 1q11 1 27 1.5t39 0.5h157v-74h-350v51l177 261q12 18 22.5 32t18.5 23q9 11 16 18v4q-9 -1 -21 -2q-11 -1 -26.5 -1h-38.5h-138v76h330v-60zM154 529l74 146h121l-116 -146h-79z"></glyph><glyph glyph-name="Zdotaccent" unicode="Ż" d="M196 154q-13 -19 -23 -32.5t-18 -22.5q-9 -11 -16 -18v-4q8 0 20 1q11 1 27 1.5t39 0.5h228v-80h-431v55l253 380q12 18 22 32t18 23q9 11 17 18v4q-9 -1 -21 -2q-11 -1 -26.5 -1h-38.5h-212v80h414v-62zM176 727q0 27 17.5 43.5t42.5 16.5q26 0 44 -16.5t18 -43.5 q0 -26 -18 -43t-44 -17q-25 0 -42.5 17t-17.5 43z"></glyph><glyph glyph-name="zdotaccent" unicode="ż" d="M186 148q-13 -19 -23 -32.5t-18 -22.5q-9 -11 -16 -18v-4q8 0 20 1q11 1 27 1.5t39 0.5h157v-74h-350v51l177 261q12 18 22.5 32t18.5 23q9 11 16 18v4q-9 -1 -21 -2q-11 -1 -26.5 -1h-38.5h-138v76h330v-60zM140 609q0 26 17.5 43t42.5 17q26 0 44 -17t18 -43t-18 -43 t-44 -17q-25 0 -42.5 17t-17.5 43z"></glyph><glyph glyph-name="Zcaron" unicode="Ž" d="M196 154q-13 -19 -23 -32.5t-18 -22.5q-9 -11 -16 -18v-4q8 0 20 1q11 1 27 1.5t39 0.5h228v-80h-431v55l253 380q12 18 22 32t18 23q9 11 17 18v4q-9 -1 -21 -2q-11 -1 -26.5 -1h-38.5h-212v80h414v-62zM209 649l-124 129h96l32 -33q15 -16 19 -25q3 -5 4 -9h3q1 4 4 9 q2 5 6.5 11t12.5 14l31 33h97l-125 -129h-56z"></glyph><glyph glyph-name="zcaron" unicode="ž" d="M186 148q-13 -19 -23 -32.5t-18 -22.5q-9 -11 -16 -18v-4q8 0 20 1q11 1 27 1.5t39 0.5h157v-74h-350v51l177 261q12 18 22.5 32t18.5 23q9 11 16 18v4q-9 -1 -21 -2q-11 -1 -26.5 -1h-38.5h-138v76h330v-60zM177 528l-125 147h92l34 -43q7 -9 12 -16t7 -12q3 -6 4 -10h5 q1 4 4 10q5 11 19 28l34 43h92l-125 -147h-53z"></glyph><glyph glyph-name="Schwa" unicode="Ə" d="M50 444q10 41 30.5 70.5t49.5 49t65 28.5t77 9q57 0 104.5 -20t81 -59t52 -96t18.5 -130q0 -75 -18 -132.5t-52 -96.5t-81.5 -59t-105.5 -20q-112 0 -169.5 65.5t-57.5 180.5q0 20 2 39t5 39h382q-1 44 -12 82t-32.5 66t-53 44t-71.5 16q-57 0 -89 -27.5t-48 -78.5z M138 239q-1 -5 -1.5 -13t-0.5 -16q0 -64 34.5 -106t99.5 -42q36 0 64.5 13t49 36.5t33 56t15.5 71.5h-294z"></glyph><glyph glyph-name="florin" unicode="ƒ" d="M88 167h-68l13 77h69l18 96q7 43 24 72.5t40 47.5t51 26t58 8q39 0 72.5 -14t51.5 -40l-53 -67q-15 23 -35 33.5t-44 10.5q-28 0 -47 -19.5t-27 -59.5l-18 -94h117l-13 -77h-118l-54 -287h-91z"></glyph><glyph glyph-name="Khook" unicode="Ƙ" d="M299 300l220 -300h-113l-183 253h-48v-253h-92v589h92v-252h51l60 145q24 60 58 89.5t86 29.5q35 0 58 -17.5t34 -45.5l-55 -56q-15 32 -40 32q-18 0 -32 -12t-29 -47z"></glyph><glyph glyph-name="khook" unicode="ƙ" d="M162 0h-90v511q0 63 26 98t64.5 49.5t82.5 11.5t81 -16l-17 -81q-27 13 -53.5 19t-47.5 -1.5t-34 -30.5t-13 -68v-215h24l153 185h109l-186 -215l201 -247h-111l-161 207h-28v-207z"></glyph><glyph glyph-name="Ezh" unicode="Ʒ" d="M253 435q13 18 23 31.5t18 22.5q9 11 16 19v4q-9 -1 -21 -2q-11 -1 -26.5 -1h-38.5h-199v80h400v-62l-198 -265v-5q51 -1 90.5 -17t66.5 -44t41 -67.5t14 -86.5q0 -53 -17.5 -94t-48.5 -69.5t-73 -43.5t-91 -15q-97 0 -154.5 47t-68.5 135l76 28q11 -72 49.5 -106 t95.5 -34q67 0 105.5 40t38.5 111q0 79 -56.5 121.5t-157.5 41.5v66z"></glyph><glyph glyph-name="Acaron" unicode="Ǎ" d="M403 161h-241l-56 -161h-96l215 589h121l213 -589h-99zM188 237h188l-45 132q-13 35 -21.5 63.5t-13.5 48.5q-6 24 -11 43h-4q-5 -19 -11 -43q-6 -20 -14.5 -48t-20.5 -63zM254 649l-124 129h96l32 -33q15 -16 19 -25q3 -5 4 -9h3q1 4 4 9q2 5 6.5 11t12.5 14l31 33h97 l-125 -129h-56z"></glyph><glyph glyph-name="acaron" unicode="ǎ" d="M305 206q-94 2 -136 -18.5t-42 -64.5q0 -29 18.5 -48t55.5 -19q18 0 36.5 5.5t33.5 16t24.5 26t9.5 35.5v67zM396 109q0 -26 10 -34.5t24 -8.5t26 5v-70q-21 -8 -49 -8q-40 0 -64.5 17.5t-30.5 56.5q-18 -44 -55 -61.5t-82 -17.5q-61 0 -99.5 32.5t-38.5 92.5 q0 38 15.5 68t48 49.5t83 28.5t121.5 6v57q0 43 -23 61t-60 18q-38 0 -59.5 -19t-24.5 -55l-86 13q3 37 19 62t40.5 41t55.5 23t63 7q34 0 64 -7.5t52.5 -24t36 -43.5t13.5 -67v-222zM206 528l-125 147h92l34 -43q7 -9 12 -16t7 -12q3 -6 4 -10h5q1 4 4 10q5 11 19 28l34 43 h92l-125 -147h-53z"></glyph><glyph glyph-name="Icaron" unicode="Ǐ" d="M175 589v-589h-92v589h92zM101 649l-124 129h96l32 -33q15 -16 19 -25q3 -5 4 -9h3q1 4 4 9q2 5 6.5 11t12.5 14l31 33h97l-125 -129h-56z"></glyph><glyph glyph-name="icaron" unicode="ǐ" d="M162 462v-462h-90v462h90zM91 528l-125 147h92l34 -43q7 -9 12 -16t7 -12q3 -6 4 -10h5q1 4 4 10q5 11 19 28l34 43h92l-125 -147h-53z"></glyph><glyph glyph-name="Ocaron" unicode="Ǒ" d="M310 -12q-61 0 -110 20t-83.5 59t-53.5 96t-19 131t19 131t53.5 96t83.5 59.5t110 20.5t110 -20.5t83.5 -59.5t53 -96t18.5 -131t-18.5 -131t-53 -96t-83.5 -59t-110 -20zM310 520q-84 0 -126.5 -60t-42.5 -166t42.5 -166t126.5 -60t126 60t42 166t-42.5 166t-125.5 60z M281 649l-124 129h96l32 -33q15 -16 19 -25q3 -5 4 -9h3q1 4 4 9q2 5 6.5 11t12.5 14l31 33h97l-125 -129h-56z"></glyph><glyph glyph-name="ocaron" unicode="ǒ" d="M252 -12q-48 0 -86.5 16t-66 47.5t-42.5 77.5t-15 105q0 118 57 178.5t153 60.5t153.5 -60.5t57.5 -178.5q0 -119 -57.5 -182.5t-153.5 -63.5zM252 400q-121 0 -121 -167q0 -174 121 -174q122 0 122 174q0 167 -122 167zM226 528l-125 147h92l34 -43q7 -9 12 -16t7 -12 q3 -6 4 -10h5q1 4 4 10q5 11 19 28l34 43h92l-125 -147h-53z"></glyph><glyph glyph-name="Ucaron" unicode="Ǔ" d="M518 589v-396q0 -57 -19.5 -96.5t-51 -63.5t-72.5 -34.5t-84 -10.5q-44 0 -84.5 10.5t-72.5 34.5t-51 63.5t-19 96.5v396h92v-372q0 -80 35 -116.5t100 -36.5q64 0 99 36.5t35 114.5v374h93zM262 649l-124 129h96l32 -33q15 -16 19 -25q3 -5 4 -9h3q1 4 4 9q2 5 6.5 11 t12.5 14l31 33h97l-125 -129h-56z"></glyph><glyph glyph-name="ucaron" unicode="ǔ" d="M348 84q-17 -51 -52 -73.5t-90 -22.5q-32 0 -57.5 8.5t-44 27t-28.5 47.5t-10 70v321h90v-307q0 -100 83 -100q19 0 38 8.5t34.5 25t25 42t9.5 58.5v273h90v-462h-77zM225 528l-125 147h92l34 -43q7 -9 12 -16t7 -12q3 -6 4 -10h5q1 4 4 10q5 11 19 28l34 43h92 l-125 -147h-53z"></glyph><glyph glyph-name="uni01D9" unicode="Ǚ" d="M518 589v-396q0 -57 -19.5 -96.5t-51 -63.5t-72.5 -34.5t-84 -10.5q-44 0 -84.5 10.5t-72.5 34.5t-51 63.5t-19 96.5v396h92v-372q0 -80 35 -116.5t100 -36.5q64 0 99 36.5t35 114.5v374h93zM132 683q0 26 17.5 43t41.5 17q25 0 42.5 -17t17.5 -43t-17.5 -42.5 t-42.5 -16.5q-24 0 -41.5 16.5t-17.5 42.5zM328 682q0 26 17.5 43t41.5 17q26 0 43 -17t17 -43q0 -25 -17 -42t-43 -17q-24 0 -41.5 17t-17.5 42zM262 756l-124 129h96l32 -33q15 -16 19 -25q3 -5 4 -9h3q1 4 4 9q2 5 6.5 11t12.5 14l31 33h97l-125 -129h-56z"></glyph><glyph glyph-name="uni01DA" unicode="ǚ" d="M348 84q-17 -51 -52 -73.5t-90 -22.5q-32 0 -57.5 8.5t-44 27t-28.5 47.5t-10 70v321h90v-307q0 -100 83 -100q19 0 38 8.5t34.5 25t25 42t9.5 58.5v273h90v-462h-77zM94 559q0 26 17.5 43t41.5 17q25 0 42.5 -17t17.5 -43t-17.5 -42.5t-42.5 -16.5q-24 0 -41.5 16.5 t-17.5 42.5zM290 558q0 26 17.5 43t41.5 17q26 0 43 -17t17 -43q0 -25 -17 -42t-43 -17q-24 0 -41.5 17t-17.5 42zM223 633l-124 129h96l32 -33q15 -16 19 -25q3 -5 4 -9h3q1 4 4 9q2 5 6.5 11t12.5 14l31 33h97l-125 -129h-56z"></glyph><glyph glyph-name="uni004100A800AF" unicode="Ǟ" d="M403 161h-241l-56 -161h-96l215 589h121l213 -589h-99zM188 237h188l-45 132q-13 35 -21.5 63.5t-13.5 48.5q-6 24 -11 43h-4q-5 -19 -11 -43q-6 -20 -14.5 -48t-20.5 -63zM126 694q0 26 17.5 43t41.5 17q25 0 42.5 -17t17.5 -43t-17.5 -42.5t-42.5 -16.5 q-24 0 -41.5 16.5t-17.5 42.5zM322 693q0 26 17.5 43t41.5 17q26 0 43 -17t17 -43q0 -25 -17 -42t-43 -17q-24 0 -41.5 17t-17.5 42zM151 803v71h264v-71h-264z"></glyph><glyph glyph-name="adieresismacron" unicode="ǟ" d="M305 206q-94 2 -136 -18.5t-42 -64.5q0 -29 18.5 -48t55.5 -19q18 0 36.5 5.5t33.5 16t24.5 26t9.5 35.5v67zM396 109q0 -26 10 -34.5t24 -8.5t26 5v-70q-21 -8 -49 -8q-40 0 -64.5 17.5t-30.5 56.5q-18 -44 -55 -61.5t-82 -17.5q-61 0 -99.5 32.5t-38.5 92.5 q0 38 15.5 68t48 49.5t83 28.5t121.5 6v57q0 43 -23 61t-60 18q-38 0 -59.5 -19t-24.5 -55l-86 13q3 37 19 62t40.5 41t55.5 23t63 7q34 0 64 -7.5t52.5 -24t36 -43.5t13.5 -67v-222zM74 564q0 26 17.5 43t41.5 17q25 0 42.5 -17t17.5 -43t-17.5 -42.5t-42.5 -16.5 q-24 0 -41.5 16.5t-17.5 42.5zM270 563q0 26 17.5 43t41.5 17q26 0 43 -17t17 -43q0 -25 -17 -42t-43 -17q-24 0 -41.5 17t-17.5 42zM102 665v73h262v-73h-262z"></glyph><glyph glyph-name="AEmacron" unicode="Ǣ" d="M420 0v161h-214l-98 -161h-100l361 589h414v-80h-271v-174h240v-80h-240v-175h271v-80h-363zM250 237h170v135q-1 38 0 65.5t3 46.5q2 22 3 38h-4zM409 674v71h264v-71h-264z"></glyph><glyph glyph-name="aemacron" unicode="ǣ" d="M500 61q38 0 63.5 16t37.5 58l79 -22q-7 -35 -24.5 -59t-42 -38.5t-55 -21t-63.5 -6.5q-107 0 -162 79q-21 -37 -58.5 -58t-94.5 -21q-64 0 -103.5 32.5t-39.5 92.5q0 75 60 117t194 43q5 35 15 65q-5 34 -27.5 48.5t-55.5 14.5q-79 0 -85 -74l-85 13q3 37 19 62t40.5 41 t55.5 23t63 7q41 0 74 -12.5t54 -39.5q26 25 62 38.5t79 13.5q45 0 79 -15t57 -41.5t34.5 -63.5t12.5 -80q0 -15 -1.5 -31.5t-4.5 -30.5h-298q3 -66 33 -108t88 -42zM593 273q1 5 1 11.5v11.5q0 45 -26 75.5t-72 30.5q-51 0 -79.5 -34.5t-35.5 -94.5h212zM197 57 q37 0 65 18.5t42 50.5q-13 36 -15 85q-87 -1 -123.5 -21t-36.5 -66q0 -29 18 -48t50 -19zM227 558v73h262v-73h-262z"></glyph><glyph glyph-name="Gstroke" unicode="Ǥ" d="M547 317v-114h59v-63h-59v-140h-73l-12 76q-9 -22 -26 -38.5t-38.5 -27.5t-47 -16.5t-50.5 -5.5q-57 0 -104 19.5t-80.5 58t-52.5 95t-19 131.5q0 74 20 131.5t56 97t86.5 60t112.5 20.5q166 0 221 -142l-86 -42q-18 54 -55 79.5t-85 25.5q-78 0 -125 -59t-47 -171 q0 -50 10 -92t30.5 -72.5t52 -47.5t74.5 -17q52 0 91.5 18t54.5 59h-142v63h143v46h-143v68h234z"></glyph><glyph glyph-name="gstroke" unicode="ǥ" d="M259 473q84 0 134 -37q17 9 23.5 26.5t11.5 43.5l78 -27q-5 -33 -27 -54.5t-51 -28.5q22 -35 22 -87q0 -40 -15 -70t-41 -50t-60.5 -30t-73.5 -10q-18 0 -34 2t-26 6q-32 -17 -32 -48q0 -38 50 -38h113q78 0 119 -33t41 -96v-4h45v-35h-50q-9 -33 -33.5 -55t-58.5 -35 t-73.5 -18.5t-79.5 -5.5q-38 0 -73.5 5.5t-63.5 18.5t-45.5 35t-19.5 55h-39v35h42q9 33 38.5 53.5t77.5 24.5q-32 4 -48.5 24t-16.5 48t16 49.5t53 31.5q-43 19 -66.5 54t-23.5 86q0 39 13.5 69.5t38.5 51.5t59 32t76 11zM162 310q0 -44 25 -70.5t72 -26.5q46 0 73.5 24 t27.5 73t-27.5 73.5t-73.5 23.5q-47 0 -72 -25t-25 -72zM225 -9q-43 0 -69 -12.5t-32 -40.5h281q-2 24 -19.5 38.5t-58.5 14.5h-102zM249 -151q60 0 100.5 12t52.5 42h-278q8 -29 41 -41.5t84 -12.5z"></glyph><glyph glyph-name="Gcaron" unicode="Ǧ" d="M547 304v-304h-73l-12 76q-9 -22 -26 -38.5t-38.5 -27.5t-47 -16.5t-50.5 -5.5q-57 0 -104 19.5t-80.5 58t-52.5 95t-19 131.5q0 74 20 131.5t56 97t86.5 60t112.5 20.5q166 0 221 -142l-86 -42q-18 54 -55 79.5t-85 25.5q-39 0 -71 -15t-55 -44t-35.5 -72t-12.5 -99 q0 -50 10 -92t31 -72t53 -47t75 -17q30 0 56.5 7t46.5 21.5t32 36t12 51.5v44h-143v80h234zM291 649l-124 129h96l32 -33q15 -16 19 -25q3 -5 4 -9h3q1 4 4 9q2 5 6.5 11t12.5 14l31 33h97l-125 -129h-56z"></glyph><glyph glyph-name="gcaron" unicode="ǧ" d="M229 473q84 0 134 -37q17 9 23.5 26.5t11.5 43.5l78 -27q-5 -33 -26.5 -54.5t-50.5 -28.5q21 -36 21 -87q0 -40 -15 -70t-41 -50t-60.5 -30t-73.5 -10q-17 0 -33.5 2t-26.5 6q-17 -9 -24 -21t-7 -27q0 -38 49 -38h113q79 0 120 -33t41 -96q0 -45 -22 -75t-58 -47t-81 -24 t-90 -7q-38 0 -74.5 5.5t-65 19.5t-45.5 37t-17 59q0 45 31 73t88 33q-32 4 -48 24t-16 48t15.5 49.5t52.5 31.5q-42 19 -66 54t-24 86q0 39 13.5 69.5t38.5 51.5t59 32t76 11zM94 -80q0 -37 35.5 -52t90.5 -15q70 0 112.5 16t42.5 60q0 26 -16.5 43.5t-61.5 17.5h-100 q-50 0 -76.5 -17t-26.5 -53zM132 310q0 -44 25 -70.5t72 -26.5q46 0 73.5 24t27.5 73t-27.5 73.5t-73.5 23.5q-46 0 -71.5 -25t-25.5 -72zM213 528l-125 147h92l34 -43q7 -9 12 -16t7 -12q3 -6 4 -10h5q1 4 4 10q5 11 19 28l34 43h92l-125 -147h-53z"></glyph><glyph glyph-name="Kcaron" unicode="Ǩ" d="M406 0l-185 259h-46v-259h-92v589h92v-250h49l172 250h108l-205 -286l220 -303h-113zM231 649l-124 129h96l32 -33q15 -16 19 -25q3 -5 4 -9h3q1 4 4 9q2 5 6.5 11t12.5 14l31 33h97l-125 -129h-56z"></glyph><glyph glyph-name="kcaron" unicode="ǩ" d="M462 0h-111l-161 207h-28v-207h-90v668h90v-391h23l153 185h109l-186 -215zM89 709l-124 129h96l32 -33q15 -16 19 -25q3 -5 4 -9h3q1 4 4 9q2 5 6.5 11t12.5 14l31 33h97l-125 -129h-56z"></glyph><glyph glyph-name="Oogonek" unicode="Ǫ" d="M201 -106q0 33 13.5 58t34.5 42q-96 18 -150.5 94.5t-54.5 205.5q0 74 19 131t53.5 96t83.5 59.5t110 20.5t110 -20.5t83.5 -59.5t53 -96t18.5 -131q0 -139 -63.5 -217t-172.5 -87q-24 -11 -41.5 -31t-17.5 -52q0 -26 13.5 -41.5t39.5 -15.5q25 0 42 11.5t28 30.5l29 -44 q-16 -26 -43 -42.5t-72 -16.5q-51 0 -83.5 26t-32.5 79zM310 520q-84 0 -126.5 -60t-42.5 -166t42.5 -166t126.5 -60t126 60t42 166t-42.5 166t-125.5 60z"></glyph><glyph glyph-name="oogonek" unicode="ǫ" d="M136 -106q0 35 14.5 60.5t37.5 42.5q-68 19 -107 78.5t-39 158.5q0 118 57 178.5t153 60.5t153.5 -60.5t57.5 -178.5q0 -112 -51 -175t-139 -70q-23 -11 -40 -31t-17 -51q0 -26 13.5 -41.5t39.5 -15.5q24 0 41 11.5t28 30.5l29 -44q-15 -26 -42.5 -42.5t-72.5 -16.5 q-51 0 -83.5 26t-32.5 79zM252 400q-121 0 -121 -167q0 -174 121 -174q122 0 122 174q0 167 -122 167z"></glyph><glyph glyph-name="uni004F02DB00AF" unicode="Ǭ" d="M201 -106q0 33 13.5 58t34.5 42q-96 18 -150.5 94.5t-54.5 205.5q0 74 19 131t53.5 96t83.5 59.5t110 20.5t110 -20.5t83.5 -59.5t53 -96t18.5 -131q0 -139 -63.5 -217t-172.5 -87q-24 -11 -41.5 -31t-17.5 -52q0 -26 13.5 -41.5t39.5 -15.5q25 0 42 11.5t28 30.5l29 -44 q-16 -26 -43 -42.5t-72 -16.5q-51 0 -83.5 26t-32.5 79zM310 520q-84 0 -126.5 -60t-42.5 -166t42.5 -166t126.5 -60t126 60t42 166t-42.5 166t-125.5 60zM178 674v71h264v-71h-264z"></glyph><glyph glyph-name="oogonekmacron" unicode="ǭ" d="M122 558v73h262v-73h-262zM136 -106q0 35 14.5 60.5t37.5 42.5q-68 19 -107 78.5t-39 158.5q0 118 57 178.5t153 60.5t153.5 -60.5t57.5 -178.5q0 -112 -51 -175t-139 -70q-23 -11 -40 -31t-17 -51q0 -26 13.5 -41.5t39.5 -15.5q24 0 41 11.5t28 30.5l29 -44 q-15 -26 -42.5 -42.5t-72.5 -16.5q-51 0 -83.5 26t-32.5 79zM252 400q-121 0 -121 -167q0 -174 121 -174q122 0 122 174q0 167 -122 167z"></glyph><glyph glyph-name="Ezhcaron" unicode="Ǯ" d="M253 435q13 18 23 31.5t18 22.5q9 11 16 19v4q-9 -1 -21 -2q-11 -1 -26.5 -1h-38.5h-199v80h400v-62l-198 -265v-5q51 -1 90.5 -17t66.5 -44t41 -67.5t14 -86.5q0 -53 -17.5 -94t-48.5 -69.5t-73 -43.5t-91 -15q-97 0 -154.5 47t-68.5 135l76 28q11 -72 49.5 -106 t95.5 -34q67 0 105.5 40t38.5 111q0 79 -56.5 121.5t-157.5 41.5v66zM205 649l-124 129h96l32 -33q15 -16 19 -25q3 -5 4 -9h3q1 4 4 9q2 5 6.5 11t12.5 14l31 33h97l-125 -129h-56z"></glyph><glyph glyph-name="ezhcaron" unicode="ǯ" d="M192 312q14 17 26 31t20 23q10 11 18 19v4q-10 -1 -24 -2q-12 -1 -29 -1h-40h-132v76h330v-60l-166 -202v-3q39 -1 70.5 -15t53 -37.5t33 -55.5t11.5 -69q0 -42 -15 -74.5t-42 -54.5t-63.5 -33.5t-78.5 -11.5q-73 0 -119 38.5t-56 101.5l80 23q8 -47 36 -69.5t67 -22.5 q44 0 74.5 27t30.5 72q0 25 -8.5 48t-28 41.5t-50.5 31.5t-77 18v58zM173 528l-125 147h92l34 -43q7 -9 12 -16t7 -12q3 -6 4 -10h5q1 4 4 10q5 11 19 28l34 43h92l-125 -147h-53z"></glyph><glyph glyph-name="jcaron" unicode="ǰ" d="M162 462v-469q0 -57 -15 -95.5t-43.5 -61.5t-69.5 -32t-92 -7v76q68 -6 99 21t31 95v473h90zM91 528l-125 147h92l34 -43q7 -9 12 -16t7 -12q3 -6 4 -10h5q1 4 4 10q5 11 19 28l34 43h92l-125 -147h-53z"></glyph><glyph glyph-name="jcaron" unicode="" d="M162 462v-469q0 -57 -15 -95.5t-43.5 -61.5t-69.5 -32t-92 -7v76q68 -6 99 21t31 95v473h90zM91 528l-125 147h92l34 -43q7 -9 12 -16t7 -12q3 -6 4 -10h5q1 4 4 10q5 11 19 28l34 43h92l-125 -147h-53z"></glyph><glyph glyph-name="Gacute" unicode="Ǵ" d="M547 304v-304h-73l-12 76q-9 -22 -26 -38.5t-38.5 -27.5t-47 -16.5t-50.5 -5.5q-57 0 -104 19.5t-80.5 58t-52.5 95t-19 131.5q0 74 20 131.5t56 97t86.5 60t112.5 20.5q166 0 221 -142l-86 -42q-18 54 -55 79.5t-85 25.5q-39 0 -71 -15t-55 -44t-35.5 -72t-12.5 -99 q0 -50 10 -92t31 -72t53 -47t75 -17q30 0 56.5 7t46.5 21.5t32 36t12 51.5v44h-143v80h234zM275 653l63 123h120l-101 -123h-82z"></glyph><glyph glyph-name="gacute" unicode="ǵ" d="M229 473q84 0 134 -37q17 9 23.5 26.5t11.5 43.5l78 -27q-5 -33 -26.5 -54.5t-50.5 -28.5q21 -36 21 -87q0 -40 -15 -70t-41 -50t-60.5 -30t-73.5 -10q-17 0 -33.5 2t-26.5 6q-17 -9 -24 -21t-7 -27q0 -38 49 -38h113q79 0 120 -33t41 -96q0 -45 -22 -75t-58 -47t-81 -24 t-90 -7q-38 0 -74.5 5.5t-65 19.5t-45.5 37t-17 59q0 45 31 73t88 33q-32 4 -48 24t-16 48t15.5 49.5t52.5 31.5q-42 19 -66 54t-24 86q0 39 13.5 69.5t38.5 51.5t59 32t76 11zM94 -80q0 -37 35.5 -52t90.5 -15q70 0 112.5 16t42.5 60q0 26 -16.5 43.5t-61.5 17.5h-100 q-50 0 -76.5 -17t-26.5 -53zM132 310q0 -44 25 -70.5t72 -26.5q46 0 73.5 24t27.5 73t-27.5 73.5t-73.5 23.5q-46 0 -71.5 -25t-25.5 -72zM195 529l74 146h121l-116 -146h-79z"></glyph><glyph glyph-name="Ngrave" unicode="Ǹ" d="M409 252q13 -20 25.5 -40t21.5 -36q11 -19 20 -36h4q-2 19 -3 41q-1 19 -1.5 43.5t-0.5 52.5v312h92v-589h-91l-235 336q-14 20 -26.5 40t-21.5 37q-11 19 -20 37h-4q1 -19 3 -41q1 -19 2 -44t1 -54v-311h-92v589h94zM288 653l-100 123h120l63 -123h-83z"></glyph><glyph glyph-name="ngrave" unicode="ǹ" d="M154 373q19 52 57 76t91 24q28 0 53.5 -8t45 -25.5t30.5 -44.5t11 -65v-330h-90v303q0 43 -19.5 67.5t-61.5 24.5q-21 0 -40.5 -6.5t-35 -21.5t-24.5 -40t-9 -62v-265h-90v462h71zM230 529l-115 146h121l74 -146h-80z"></glyph><glyph glyph-name="uni004102DA00B4" unicode="Ǻ" d="M403 161h-241l-56 -161h-96l215 589h121l213 -589h-99zM188 237h188l-45 132q-13 35 -21.5 63.5t-13.5 48.5q-6 24 -11 43h-4q-5 -19 -11 -43q-6 -20 -14.5 -48t-20.5 -63zM283 620q-50 0 -76.5 29t-26.5 71q0 39 28 68t75 29t75 -29t28 -68q0 -42 -26.5 -71t-76.5 -29z M283 775q-26 0 -40.5 -16t-14.5 -41q0 -23 14 -38t41 -15t41 15t14 38q0 25 -14.5 41t-40.5 16zM239 848l63 123h120l-101 -123h-82z"></glyph><glyph glyph-name="aringacute" unicode="ǻ" d="M305 206q-94 2 -136 -18.5t-42 -64.5q0 -29 18.5 -48t55.5 -19q18 0 36.5 5.5t33.5 16t24.5 26t9.5 35.5v67zM396 109q0 -26 10 -34.5t24 -8.5t26 5v-70q-21 -8 -49 -8q-40 0 -64.5 17.5t-30.5 56.5q-18 -44 -55 -61.5t-82 -17.5q-61 0 -99.5 32.5t-38.5 92.5 q0 38 15.5 68t48 49.5t83 28.5t121.5 6v57q0 43 -23 61t-60 18q-38 0 -59.5 -19t-24.5 -55l-86 13q3 37 19 62t40.5 41t55.5 23t63 7q34 0 64 -7.5t52.5 -24t36 -43.5t13.5 -67v-222zM229 508q-50 0 -76.5 29t-26.5 71q0 39 28 67.5t75 28.5t75 -28.5t28 -67.5 q0 -42 -26.5 -71t-76.5 -29zM229 662q-26 0 -40.5 -15.5t-14.5 -40.5q0 -23 14 -38t41 -15t41 15t14 38q0 25 -14.5 40.5t-40.5 15.5zM190 740l63 123h120l-101 -123h-82z"></glyph><glyph glyph-name="AEacute" unicode="Ǽ" d="M420 0v161h-214l-98 -161h-100l361 589h414v-80h-271v-174h240v-80h-240v-175h271v-80h-363zM250 237h170v135q-1 38 0 65.5t3 46.5q2 22 3 38h-4zM496 653l63 123h120l-101 -123h-82z"></glyph><glyph glyph-name="aeacute" unicode="ǽ" d="M500 61q38 0 63.5 16t37.5 58l79 -22q-7 -35 -24.5 -59t-42 -38.5t-55 -21t-63.5 -6.5q-107 0 -162 79q-21 -37 -58.5 -58t-94.5 -21q-64 0 -103.5 32.5t-39.5 92.5q0 75 60 117t194 43q5 35 15 65q-5 34 -27.5 48.5t-55.5 14.5q-79 0 -85 -74l-85 13q3 37 19 62t40.5 41 t55.5 23t63 7q41 0 74 -12.5t54 -39.5q26 25 62 38.5t79 13.5q45 0 79 -15t57 -41.5t34.5 -63.5t12.5 -80q0 -15 -1.5 -31.5t-4.5 -30.5h-298q3 -66 33 -108t88 -42zM593 273q1 5 1 11.5v11.5q0 45 -26 75.5t-72 30.5q-51 0 -79.5 -34.5t-35.5 -94.5h212zM197 57 q37 0 65 18.5t42 50.5q-13 36 -15 85q-87 -1 -123.5 -21t-36.5 -66q0 -29 18 -48t50 -19zM310 529l74 146h121l-116 -146h-79z"></glyph><glyph glyph-name="Oslashacute" unicode="Ǿ" d="M31 26l63 70q-50 76 -50 198q0 74 19 131t53.5 96t83.5 59.5t110 20.5q109 0 178 -64l54 60l46 -41l-61 -67q48 -77 48 -195q0 -74 -18.5 -131t-53 -96t-83.5 -59t-110 -20q-54 0 -99 15.5t-79 47.5l-58 -65zM310 520q-84 0 -125.5 -60t-41.5 -166q0 -74 19 -122l265 296 q-21 25 -50 38.5t-67 13.5zM476 294q0 68 -18 118l-265 -294q41 -50 117 -50q84 0 125 60t41 166zM265 653l63 123h120l-101 -123h-82z"></glyph><glyph glyph-name="oslashacute" unicode="ǿ" d="M25 25l53 56q-17 30 -26.5 68t-9.5 85q0 118 57 178.5t153 60.5q89 0 143 -51l47 50l45 -38l-55 -59q31 -57 31 -141q0 -119 -57.5 -182.5t-153.5 -63.5q-83 0 -136 47l-46 -49zM252 400q-121 0 -121 -167q0 -51 10 -84l199 214q-31 37 -88 37zM374 233q0 39 -8 71 l-197 -212q30 -33 83 -33q122 0 122 174zM213 529l74 146h121l-116 -146h-79z"></glyph><glyph glyph-name="Adoublegrave" unicode="Ȁ" d="M403 161h-241l-56 -161h-96l215 589h121l213 -589h-99zM188 237h188l-45 132q-13 35 -21.5 63.5t-13.5 48.5q-6 24 -11 43h-4q-5 -19 -11 -43q-6 -20 -14.5 -48t-20.5 -63zM333 653l-104 123h109l62 -123h-67zM182 653l-115 123h113l73 -123h-71z"></glyph><glyph glyph-name="edoublegrave" unicode="ȁ" d="M253 59q38 0 63.5 16.5t37.5 58.5l79 -21q-7 -35 -24.5 -59t-42 -38.5t-55 -21t-63.5 -6.5q-46 0 -84 15.5t-65 46t-42 75t-15 102.5q0 117 57 181.5t154 64.5q45 0 79 -14.5t57 -41t35 -62.5t12 -79q0 -20 -2.5 -36.5t-6.5 -27.5h-298q3 -68 34 -110.5t90 -42.5z M347 277q1 5 1 9.5v9.5q0 45 -26.5 75.5t-73.5 30.5q-50 0 -80 -32.5t-37 -92.5h216zM300 529l-104 146h109l62 -146h-67zM149 529l-115 146h113l73 -146h-71z"></glyph><glyph glyph-name="edoublegrave" unicode="ȅ" d="M253 59q38 0 63.5 16.5t37.5 58.5l79 -21q-7 -35 -24.5 -59t-42 -38.5t-55 -21t-63.5 -6.5q-46 0 -84 15.5t-65 46t-42 75t-15 102.5q0 117 57 181.5t154 64.5q45 0 79 -14.5t57 -41t35 -62.5t12 -79q0 -20 -2.5 -36.5t-6.5 -27.5h-298q3 -68 34 -110.5t90 -42.5z M347 277q1 5 1 9.5v9.5q0 45 -26.5 75.5t-73.5 30.5q-50 0 -80 -32.5t-37 -92.5h216zM300 529l-104 146h109l62 -146h-67zM149 529l-115 146h113l73 -146h-71z"></glyph><glyph glyph-name="Ainvertedbreve" unicode="Ȃ" d="M403 161h-241l-56 -161h-96l215 589h121l213 -589h-99zM188 237h188l-45 132q-13 35 -21.5 63.5t-13.5 48.5q-6 24 -11 43h-4q-5 -19 -11 -43q-6 -20 -14.5 -48t-20.5 -63zM282 785q66 0 101 -36t35 -96h-71q-2 31 -16 48.5t-49 17.5t-48.5 -17.5t-15.5 -48.5h-71 q0 60 34.5 96t100.5 36z"></glyph><glyph glyph-name="ainvertedbreve" unicode="ȃ" d="M305 206q-94 2 -136 -18.5t-42 -64.5q0 -29 18.5 -48t55.5 -19q18 0 36.5 5.5t33.5 16t24.5 26t9.5 35.5v67zM396 109q0 -26 10 -34.5t24 -8.5t26 5v-70q-21 -8 -49 -8q-40 0 -64.5 17.5t-30.5 56.5q-18 -44 -55 -61.5t-82 -17.5q-61 0 -99.5 32.5t-38.5 92.5 q0 38 15.5 68t48 49.5t83 28.5t121.5 6v57q0 43 -23 61t-60 18q-38 0 -59.5 -19t-24.5 -55l-86 13q3 37 19 62t40.5 41t55.5 23t63 7q34 0 64 -7.5t52.5 -24t36 -43.5t13.5 -67v-222zM230 672q66 0 101 -39t35 -102h-71q-2 33 -15 53.5t-50 20.5q-38 0 -50.5 -20.5 t-14.5 -53.5h-71q0 63 35 102t101 39z"></glyph><glyph glyph-name="Edoublegrave" unicode="Ȅ" d="M446 0h-363v589h363v-80h-271v-174h240v-80h-240v-175h271v-80zM313 653l-104 123h109l62 -123h-67zM162 653l-115 123h113l73 -123h-71z"></glyph><glyph glyph-name="Einvertedbreve" unicode="Ȇ" d="M446 0h-363v589h363v-80h-271v-174h240v-80h-240v-175h271v-80zM257 787q66 0 101 -36t35 -96h-71q-2 31 -16 48.5t-49 17.5t-48.5 -17.5t-15.5 -48.5h-71q0 60 34.5 96t100.5 36z"></glyph><glyph glyph-name="einvertedbreve" unicode="ȇ" d="M253 59q38 0 63.5 16.5t37.5 58.5l79 -21q-7 -35 -24.5 -59t-42 -38.5t-55 -21t-63.5 -6.5q-46 0 -84 15.5t-65 46t-42 75t-15 102.5q0 117 57 181.5t154 64.5q45 0 79 -14.5t57 -41t35 -62.5t12 -79q0 -20 -2.5 -36.5t-6.5 -27.5h-298q3 -68 34 -110.5t90 -42.5z M347 277q1 5 1 9.5v9.5q0 45 -26.5 75.5t-73.5 30.5q-50 0 -80 -32.5t-37 -92.5h216zM251 672q66 0 101 -39t35 -102h-71q-2 33 -15 53.5t-50 20.5q-38 0 -50.5 -20.5t-14.5 -53.5h-71q0 63 35 102t101 39z"></glyph><glyph glyph-name="Idoublegrave" unicode="Ȉ" d="M175 589v-589h-92v589h92zM178 653l-104 123h109l62 -123h-67zM27 653l-115 123h113l73 -123h-71z"></glyph><glyph glyph-name="idoublegrave" unicode="ȉ" d="M162 462v-462h-90v462h90zM165 529l-104 146h109l62 -146h-67zM14 529l-115 146h113l73 -146h-71z"></glyph><glyph glyph-name="Iinvertedbreve" unicode="Ȋ" d="M175 589v-589h-92v589h92zM129 787q66 0 101 -36t35 -96h-71q-2 31 -16 48.5t-49 17.5t-48.5 -17.5t-15.5 -48.5h-71q0 60 34.5 96t100.5 36z"></glyph><glyph glyph-name="iinvertedbreve" unicode="ȋ" d="M162 462v-462h-90v462h90zM117 672q66 0 101 -39t35 -102h-71q-2 33 -15 53.5t-50 20.5q-38 0 -50.5 -20.5t-14.5 -53.5h-71q0 63 35 102t101 39z"></glyph><glyph glyph-name="Odoublegrave" unicode="Ȍ" d="M310 -12q-61 0 -110 20t-83.5 59t-53.5 96t-19 131t19 131t53.5 96t83.5 59.5t110 20.5t110 -20.5t83.5 -59.5t53 -96t18.5 -131t-18.5 -131t-53 -96t-83.5 -59t-110 -20zM310 520q-84 0 -126.5 -60t-42.5 -166t42.5 -166t126.5 -60t126 60t42 166t-42.5 166t-125.5 60z M358 653l-104 123h109l62 -123h-67zM207 653l-115 123h113l73 -123h-71z"></glyph><glyph glyph-name="odoublegrave" unicode="ȍ" d="M252 -12q-48 0 -86.5 16t-66 47.5t-42.5 77.5t-15 105q0 118 57 178.5t153 60.5t153.5 -60.5t57.5 -178.5q0 -119 -57.5 -182.5t-153.5 -63.5zM252 400q-121 0 -121 -167q0 -174 121 -174q122 0 122 174q0 167 -122 167zM300 529l-104 146h109l62 -146h-67zM149 529 l-115 146h113l73 -146h-71z"></glyph><glyph glyph-name="Oinvertedbreve" unicode="Ȏ" d="M310 -12q-61 0 -110 20t-83.5 59t-53.5 96t-19 131t19 131t53.5 96t83.5 59.5t110 20.5t110 -20.5t83.5 -59.5t53 -96t18.5 -131t-18.5 -131t-53 -96t-83.5 -59t-110 -20zM310 520q-84 0 -126.5 -60t-42.5 -166t42.5 -166t126.5 -60t126 60t42 166t-42.5 166t-125.5 60z M310 787q66 0 101 -36t35 -96h-71q-2 31 -16 48.5t-49 17.5t-48.5 -17.5t-15.5 -48.5h-71q0 60 34.5 96t100.5 36z"></glyph><glyph glyph-name="oinvertedbreve" unicode="ȏ" d="M252 -12q-48 0 -86.5 16t-66 47.5t-42.5 77.5t-15 105q0 118 57 178.5t153 60.5t153.5 -60.5t57.5 -178.5q0 -119 -57.5 -182.5t-153.5 -63.5zM252 400q-121 0 -121 -167q0 -174 121 -174q122 0 122 174q0 167 -122 167zM253 672q66 0 101 -39t35 -102h-71 q-2 33 -15 53.5t-50 20.5q-38 0 -50.5 -20.5t-14.5 -53.5h-71q0 63 35 102t101 39z"></glyph><glyph glyph-name="Rinvertedbreve" unicode="Ȓ" d="M414 0q-11 12 -16.5 25t-9.5 30l-24 102q-6 26 -16 42t-23.5 25t-31 12t-39.5 3h-79v-239h-92v589h204q201 0 201 -168q0 -35 -11 -61.5t-29.5 -45t-43 -28.5t-52.5 -11v-3q42 -5 66 -25.5t36 -68.5l30 -116q5 -18 12.5 -33t18.5 -29h-101zM175 316h108q109 0 109 98 q0 46 -26.5 72t-81.5 26h-109v-196zM261 787q66 0 101 -36t35 -96h-71q-2 31 -16 48.5t-49 17.5t-48.5 -17.5t-15.5 -48.5h-71q0 60 34.5 96t100.5 36z"></glyph><glyph glyph-name="rinvertedbreve" unicode="ȓ" d="M331 371q-8 2 -19 3t-22 1q-24 0 -47 -9.5t-41 -27.5t-29 -44t-11 -60v-234h-90v462h76l11 -125q13 62 57.5 100.5t121.5 34.5zM205 672q66 0 101 -39t35 -102h-71q-2 33 -15 53.5t-50 20.5q-38 0 -50.5 -20.5t-14.5 -53.5h-71q0 63 35 102t101 39z"></glyph><glyph glyph-name="Udoublegrave" unicode="Ȕ" d="M518 589v-396q0 -57 -19.5 -96.5t-51 -63.5t-72.5 -34.5t-84 -10.5q-44 0 -84.5 10.5t-72.5 34.5t-51 63.5t-19 96.5v396h92v-372q0 -80 35 -116.5t100 -36.5q64 0 99 36.5t35 114.5v374h93zM339 653l-104 123h109l62 -123h-67zM188 653l-115 123h113l73 -123h-71z"></glyph><glyph glyph-name="udoublegrave" unicode="ȕ" d="M348 84q-17 -51 -52 -73.5t-90 -22.5q-32 0 -57.5 8.5t-44 27t-28.5 47.5t-10 70v321h90v-307q0 -100 83 -100q19 0 38 8.5t34.5 25t25 42t9.5 58.5v273h90v-462h-77zM299 529l-104 146h109l62 -146h-67zM148 529l-115 146h113l73 -146h-71z"></glyph><glyph glyph-name="Uinvertedbreve" unicode="Ȗ" d="M518 589v-396q0 -57 -19.5 -96.5t-51 -63.5t-72.5 -34.5t-84 -10.5q-44 0 -84.5 10.5t-72.5 34.5t-51 63.5t-19 96.5v396h92v-372q0 -80 35 -116.5t100 -36.5q64 0 99 36.5t35 114.5v374h93zM290 787q66 0 101 -36t35 -96h-71q-2 31 -16 48.5t-49 17.5t-48.5 -17.5 t-15.5 -48.5h-71q0 60 34.5 96t100.5 36z"></glyph><glyph glyph-name="uinvertedbreve" unicode="ȗ" d="M348 84q-17 -51 -52 -73.5t-90 -22.5q-32 0 -57.5 8.5t-44 27t-28.5 47.5t-10 70v321h90v-307q0 -100 83 -100q19 0 38 8.5t34.5 25t25 42t9.5 58.5v273h90v-462h-77zM251 672q66 0 101 -39t35 -102h-71q-2 33 -15 53.5t-50 20.5q-38 0 -50.5 -20.5t-14.5 -53.5h-71 q0 63 35 102t101 39z"></glyph><glyph glyph-name="Scommaaccent" unicode="Ș" d="M114 164q9 -54 42 -79.5t81 -25.5t77 21t29 63q0 19 -5.5 34.5t-19.5 28t-37.5 24.5t-59.5 26q-35 12 -66 26t-54.5 34.5t-37.5 49t-14 69.5q0 46 16.5 78t43 51.5t60 28.5t68.5 9q40 0 75 -8.5t61.5 -27t43 -48t20.5 -71.5l-91 -18q-5 49 -34 74t-74 25 q-42 0 -68.5 -21.5t-26.5 -63.5q0 -22 8.5 -37.5t25 -27.5t40.5 -22.5t55 -21.5q34 -12 64 -26t52.5 -34.5t35.5 -49t13 -69.5q0 -44 -16 -75.5t-44 -51.5t-65.5 -30t-79.5 -10q-88 0 -139 36t-65 117zM315 -142q0 -57 -31 -81t-90 -24v37q29 2 44.5 10.5t15.5 32.5 q-27 -5 -44 8.5t-17 38.5q0 26 15.5 39.5t41.5 13.5t45.5 -20t19.5 -55z"></glyph><glyph glyph-name="scommaaccent" unicode="ș" d="M107 128q5 -40 31.5 -58t68.5 -18q40 0 66 15t26 47q0 29 -15 45.5t-57 27.5l-68 16q-63 15 -89.5 47.5t-26.5 83.5q0 39 15 65.5t39 43t55.5 23.5t64.5 7q73 0 116 -28.5t50 -96.5l-88 -10q-4 67 -84 67q-38 0 -59.5 -16.5t-21.5 -45.5q0 -25 12.5 -41t50.5 -24l64 -15 q62 -15 95 -46.5t33 -92.5q0 -37 -14 -63t-38 -42t-56.5 -23.5t-70.5 -7.5q-79 0 -124 26.5t-55 89.5zM279 -142q0 -57 -31 -81t-90 -24v37q29 2 44.5 10.5t15.5 32.5q-27 -5 -44 8.5t-17 38.5q0 26 15.5 39.5t41.5 13.5t45.5 -20t19.5 -55z"></glyph><glyph glyph-name="Hcaron" unicode="Ȟ" d="M83 0v589h92v-250h281v250h92v-589h-92v259h-281v-259h-92zM287 649l-124 129h96l32 -33q15 -16 19 -25q3 -5 4 -9h3q1 4 4 9q2 5 6.5 11t12.5 14l31 33h97l-125 -129h-56z"></glyph><glyph glyph-name="hcaron" unicode="ȟ" d="M162 374q33 99 140 99q28 0 53.5 -8t45 -25.5t30.5 -44.5t11 -65v-330h-90v304q0 42 -19.5 66.5t-61.5 24.5q-21 0 -40.5 -6t-35 -21t-24.5 -40t-9 -63v-265h-90v668h90v-294zM89 709l-124 129h96l32 -33q15 -16 19 -25q3 -5 4 -9h3q1 4 4 9q2 5 6.5 11t12.5 14l31 33h97 l-125 -129h-56z"></glyph><glyph glyph-name="Adotabove" unicode="Ȧ" d="M403 161h-241l-56 -161h-96l215 589h121l213 -589h-99zM188 237h188l-45 132q-13 35 -21.5 63.5t-13.5 48.5q-6 24 -11 43h-4q-5 -19 -11 -43q-6 -20 -14.5 -48t-20.5 -63zM222 713q0 27 17.5 43.5t42.5 16.5q26 0 44 -16.5t18 -43.5q0 -26 -18 -43t-44 -17 q-25 0 -42.5 17t-17.5 43z"></glyph><glyph glyph-name="adotabove" unicode="ȧ" d="M305 206q-94 2 -136 -18.5t-42 -64.5q0 -29 18.5 -48t55.5 -19q18 0 36.5 5.5t33.5 16t24.5 26t9.5 35.5v67zM396 109q0 -26 10 -34.5t24 -8.5t26 5v-70q-21 -8 -49 -8q-40 0 -64.5 17.5t-30.5 56.5q-18 -44 -55 -61.5t-82 -17.5q-61 0 -99.5 32.5t-38.5 92.5 q0 38 15.5 68t48 49.5t83 28.5t121.5 6v57q0 43 -23 61t-60 18q-38 0 -59.5 -19t-24.5 -55l-86 13q3 37 19 62t40.5 41t55.5 23t63 7q34 0 64 -7.5t52.5 -24t36 -43.5t13.5 -67v-222zM166 596q0 26 17.5 43t42.5 17q26 0 44 -17t18 -43t-18 -43t-44 -17q-25 0 -42.5 17 t-17.5 43z"></glyph><glyph glyph-name="Otildemacron" unicode="Ȭ" d="M310 -12q-61 0 -110 20t-83.5 59t-53.5 96t-19 131t19 131t53.5 96t83.5 59.5t110 20.5t110 -20.5t83.5 -59.5t53 -96t18.5 -131t-18.5 -131t-53 -96t-83.5 -59t-110 -20zM310 520q-84 0 -126.5 -60t-42.5 -166t42.5 -166t126.5 -60t126 60t42 166t-42.5 166t-125.5 60z M379 629q-23 0 -38 7t-34 17q-20 11 -32.5 18t-27.5 7q-16 0 -24.5 -10.5t-5.5 -36.5h-55q-9 24 -8 46.5t11 40.5t28.5 28.5t42.5 10.5q26 0 43 -7.5t36 -18.5q20 -13 31 -18.5t24 -5.5q14 0 22.5 11t6.5 38h57q9 -26 8 -49.5t-11 -40.5t-28.5 -27t-45.5 -10zM178 801v71 h264v-71h-264z"></glyph><glyph glyph-name="otildemacron" unicode="ȭ" d="M252 -12q-48 0 -86.5 16t-66 47.5t-42.5 77.5t-15 105q0 118 57 178.5t153 60.5t153.5 -60.5t57.5 -178.5q0 -119 -57.5 -182.5t-153.5 -63.5zM252 400q-121 0 -121 -167q0 -174 121 -174q122 0 122 174q0 167 -122 167zM322 511q-23 0 -38 6.5t-34 16.5 q-20 12 -32.5 18.5t-27.5 6.5q-16 0 -24.5 -10.5t-5.5 -36.5h-55q-9 24 -8 46.5t11 40t28.5 27.5t42.5 10q26 0 43 -8t36 -19q20 -12 31 -17.5t24 -5.5q14 0 22.5 10.5t6.5 38.5h57q18 -53 -2.5 -88.5t-74.5 -35.5zM122 682v73h262v-73h-262z"></glyph><glyph glyph-name="Odotabove" unicode="Ȯ" d="M310 -12q-61 0 -110 20t-83.5 59t-53.5 96t-19 131t19 131t53.5 96t83.5 59.5t110 20.5t110 -20.5t83.5 -59.5t53 -96t18.5 -131t-18.5 -131t-53 -96t-83.5 -59t-110 -20zM310 520q-84 0 -126.5 -60t-42.5 -166t42.5 -166t126.5 -60t126 60t42 166t-42.5 166t-125.5 60z M249 713q0 27 17.5 43.5t42.5 16.5q26 0 44 -16.5t18 -43.5q0 -26 -18 -43t-44 -17q-25 0 -42.5 17t-17.5 43z"></glyph><glyph glyph-name="odotabove" unicode="ȯ" d="M252 -12q-48 0 -86.5 16t-66 47.5t-42.5 77.5t-15 105q0 118 57 178.5t153 60.5t153.5 -60.5t57.5 -178.5q0 -119 -57.5 -182.5t-153.5 -63.5zM252 400q-121 0 -121 -167q0 -174 121 -174q122 0 122 174q0 167 -122 167zM191 595q0 26 17.5 43t42.5 17q26 0 44 -17 t18 -43t-18 -43t-44 -17q-25 0 -42.5 17t-17.5 43z"></glyph><glyph glyph-name="odotabovemacron" unicode="ȱ" d="M252 -12q-48 0 -86.5 16t-66 47.5t-42.5 77.5t-15 105q0 118 57 178.5t153 60.5t153.5 -60.5t57.5 -178.5q0 -119 -57.5 -182.5t-153.5 -63.5zM252 400q-121 0 -121 -167q0 -174 121 -174q122 0 122 174q0 167 -122 167zM191 580q0 26 17.5 43t42.5 17q26 0 44 -17 t18 -43t-18 -43t-44 -17q-25 0 -42.5 17t-17.5 43zM122 682v73h262v-73h-262z"></glyph><glyph glyph-name="odotabovemacron" unicode="" d="M252 -12q-48 0 -86.5 16t-66 47.5t-42.5 77.5t-15 105q0 118 57 178.5t153 60.5t153.5 -60.5t57.5 -178.5q0 -119 -57.5 -182.5t-153.5 -63.5zM252 400q-121 0 -121 -167q0 -174 121 -174q122 0 122 174q0 167 -122 167zM191 580q0 26 17.5 43t42.5 17q26 0 44 -17 t18 -43t-18 -43t-44 -17q-25 0 -42.5 17t-17.5 43zM122 682v73h262v-73h-262z"></glyph><glyph glyph-name="Ymacron" unicode="Ȳ" d="M207 402q13 -26 20.5 -44t12.5 -31q5 -15 8 -25h4q2 10 7 25q7 24 31 75l87 187h97l-180 -366v-223h-92v223l-192 366h105zM111 674v71h264v-71h-264z"></glyph><glyph glyph-name="ymacron" unicode="ȳ" d="M186 208q11 -34 17 -61t11 -46q4 -22 8 -39h4q3 17 7 39q4 19 10.5 45.5t17.5 61.5l77 254h94l-170 -500q-18 -51 -38 -84t-43 -52t-49.5 -26.5t-57.5 -7.5q-17 0 -34.5 3t-32.5 8l8 77q28 -14 60 -14q37 0 60.5 23t43.5 84l-171 489h99zM95 558v73h262v-73h-262z"></glyph><glyph glyph-name="dotlessj" unicode="ȷ" d="M162 462v-469q0 -57 -15 -95.5t-43.5 -61.5t-69.5 -32t-92 -7v76q68 -6 99 21t31 95v473h90z"></glyph><glyph glyph-name="schwa" unicode="ə" d="M226 400q-77 0 -102 -79l-79 21q7 35 24.5 60t42 40.5t55 23t63.5 7.5q46 0 84 -15.5t65 -46t42 -75t15 -102.5q0 -117 -55.5 -181.5t-152.5 -64.5q-45 0 -79.5 14.5t-58 41t-35.5 63.5t-13 82q0 14 1.5 28.5t4.5 28.5h298q-3 67 -33 110.5t-87 43.5zM133 184 q-1 -6 -1 -10.5v-9.5q0 -45 27 -75.5t73 -30.5q51 0 78.5 33t33.5 93h-211z"></glyph><glyph glyph-name="ezh" unicode="ʒ" d="M192 312q14 17 26 31t20 23q10 11 18 19v4q-10 -1 -24 -2q-12 -1 -29 -1h-40h-132v76h330v-60l-166 -202v-3q39 -1 70.5 -15t53 -37.5t33 -55.5t11.5 -69q0 -42 -15 -74.5t-42 -54.5t-63.5 -33.5t-78.5 -11.5q-73 0 -119 38.5t-56 101.5l80 23q8 -47 36 -69.5t67 -22.5 q44 0 74.5 27t30.5 72q0 25 -8.5 48t-28 41.5t-50.5 31.5t-77 18v58z"></glyph><glyph glyph-name="circumflex" unicode="ˆ" d="M258 675l125 -147h-92l-34 42q-8 8 -12.5 15.5t-6.5 12.5q-3 6 -4 10h-5q-1 -4 -4 -10q-4 -10 -19 -28l-34 -42h-92l125 147h53z"></glyph><glyph glyph-name="caron" unicode="ˇ" d="M205 528l-125 147h92l34 -43q7 -9 12 -16t7 -12q3 -6 4 -10h5q1 4 4 10q5 11 19 28l34 43h92l-125 -147h-53z"></glyph><glyph glyph-name="breve" unicode="˘" d="M216 526q-66 0 -101 39t-35 102h71q2 -33 14.5 -53.5t50.5 -20.5q37 0 50 20.5t15 53.5h71q0 -63 -35 -102t-101 -39z"></glyph><glyph glyph-name="dotaccent" unicode="˙" d="M80 609q0 26 17.5 43t42.5 17q26 0 44 -17t18 -43t-18 -43t-44 -17q-25 0 -42.5 17t-17.5 43z"></glyph><glyph glyph-name="ring" unicode="˚" d="M183 520q-50 0 -76.5 29t-26.5 71q0 39 28 67.5t75 28.5t75 -28.5t28 -67.5q0 -42 -26.5 -71t-76.5 -29zM183 674q-26 0 -40.5 -15.5t-14.5 -40.5q0 -23 14 -38t41 -15t41 15t14 38q0 25 -14.5 40.5t-40.5 15.5z"></glyph><glyph glyph-name="ogonek" unicode="˛" d="M62 -106q0 38 17.5 65t43 44t53 25.5t48.5 10.5l29 -39q-19 0 -38.5 -5.5t-35.5 -17t-26.5 -29t-10.5 -41.5q0 -26 13 -41.5t39 -15.5q25 0 42 11.5t28 30.5l29 -44q-15 -26 -42.5 -42.5t-72.5 -16.5q-51 0 -83.5 26t-32.5 79z"></glyph><glyph glyph-name="tilde" unicode="˜" d="M306 529q-23 0 -38 6.5t-34 16.5q-20 12 -32.5 18.5t-27.5 6.5q-16 0 -24.5 -10.5t-5.5 -36.5h-55q-9 24 -8 46.5t11 40t28.5 27.5t42.5 10q26 0 43 -8t36 -19q20 -12 31 -17.5t24 -5.5q14 0 22.5 10.5t6.5 38.5h57q18 -53 -2.5 -88.5t-74.5 -35.5z"></glyph><glyph glyph-name="hungarumlaut" unicode="˝" d="M80 529l62 146h109l-104 -146h-67zM226 529l74 146h113l-116 -146h-71z"></glyph><glyph glyph-name="uni0312" unicode="̒" d="M80 727q0 57 31 81t90 24v-37q-29 -2 -44.5 -10.5t-15.5 -32.5q27 5 44 -8.5t17 -38.5q0 -26 -16 -39.5t-41 -13.5q-26 0 -45.5 20t-19.5 55z"></glyph><glyph glyph-name="uni0320" unicode="̠" d="M80 -182v72h262v-72h-262z"></glyph><glyph glyph-name="uni0323" unicode="̣" d="M80 -119q0 27 17.5 43.5t42.5 16.5q26 0 44 -16.5t18 -43.5q0 -26 -18 -43t-44 -17q-25 0 -42.5 17t-17.5 43z"></glyph><glyph glyph-name="uni0329" unicode="̩" d="M80 -53h82v-139l-82 -5v144z"></glyph><glyph glyph-name="pi" unicode="π" d="M579 481v-72h-107v-290q0 -58 38 -58q21 0 32 12.5t21 32.5l46 -46q-19 -37 -45 -54.5t-72 -17.5q-54 0 -82.5 28t-28.5 91v302h-119l-44 -409h-91l49 409h-13q-41 0 -59.5 -23t-19.5 -68h-74q0 77 38.5 120t118.5 43h412z"></glyph><glyph glyph-name="uni0E3F" unicode="฿" d="M245 0h-157v481h157v93h50v-93h10q75 0 119.5 -31t44.5 -92q0 -45 -21.5 -73t-68.5 -36v-4q51 -3 81 -34.5t30 -77.5q0 -133 -180 -133h-15v-106h-50v106zM295 209v-139h8q47 0 72 14.5t25 56.5q0 32 -21 50t-69 18h-15zM381 344q0 35 -25 51t-61 17v-135h5q39 0 60 16 t21 51zM179 70h66v139h-66v-139zM245 277v135h-66v-135h66z"></glyph><glyph glyph-name="Ddotbelow" unicode="Ḍ" d="M254 77q43 0 80 12t63 38.5t41 68.5t15 101q0 62 -15 103.5t-41 66t-60.5 35t-73.5 10.5h-88v-435h79zM83 0v589h183q62 0 114 -16t90 -50.5t59 -89t21 -132.5q0 -82 -23 -139t-62 -93t-91 -52.5t-111 -16.5h-180zM204 -139q0 26 17.5 43t42.5 17q26 0 44 -17t18 -43 t-18 -43t-44 -17q-25 0 -42.5 17t-17.5 43z"></glyph><glyph glyph-name="ddotbelow" unicode="ḍ" d="M372 286q0 31 -10.5 53t-27 36t-37 21t-40.5 7q-26 0 -48.5 -9.5t-39 -30.5t-26.5 -54.5t-10 -82.5q0 -82 33 -124.5t90 -42.5q19 0 39.5 7.5t37.5 23.5t28 39t11 55v102zM371 668h91v-668h-80l-10 80q-20 -53 -58.5 -72.5t-88.5 -19.5q-36 0 -69.5 15t-58.5 44t-40 73 t-15 103q0 118 53.5 184t153.5 66q45 0 78.5 -21.5t43.5 -51.5v268zM191 -139q0 26 17.5 43t42.5 17q26 0 44 -17t18 -43t-18 -43t-44 -17q-25 0 -42.5 17t-17.5 43z"></glyph><glyph glyph-name="Dcedilla" unicode="Ḑ" d="M361 -124q0 -45 -30.5 -66t-74.5 -21q-62 0 -90 38l24 51q25 -36 63 -36q17 0 26.5 8.5t9.5 25.5q0 19 -15.5 30t-50.5 12l6 82h-146v589h183q62 0 114 -16t90 -50.5t59 -89t21 -132.5q0 -80 -21.5 -136t-59 -92.5t-87.5 -54t-107 -18.5l-2 -41q47 -4 67.5 -25.5 t20.5 -57.5zM254 77q43 0 80 12t63 38.5t41 68.5t15 101q0 62 -15 103.5t-41 66t-60.5 35t-73.5 10.5h-88v-435h79z"></glyph><glyph glyph-name="dcedilla" unicode="ḑ" d="M348 -124q0 -45 -30.5 -66t-74.5 -21q-62 0 -90 38l24 51q25 -36 63 -36q17 0 26.5 8.5t9.5 25.5q0 19 -15.5 30t-50.5 12l5 70q-35 2 -66.5 17.5t-55 45t-37.5 72.5t-14 100q0 118 53.5 184t153.5 66q45 0 78.5 -21.5t43.5 -51.5v268h91v-668h-80l-10 80 q-16 -43 -44.5 -63.5t-65.5 -25.5l-2 -32q47 -4 67.5 -25.5t20.5 -57.5zM372 286q0 31 -10.5 53t-27 36t-37 21t-40.5 7q-26 0 -48.5 -9.5t-39 -30.5t-26.5 -54.5t-10 -82.5q0 -82 33 -124.5t90 -42.5q19 0 39.5 7.5t37.5 23.5t28 39t11 55v102z"></glyph><glyph glyph-name="Hdotbelow" unicode="Ḥ" d="M83 0v589h92v-250h281v250h92v-589h-92v259h-281v-259h-92zM254 -139q0 26 17.5 43t42.5 17q26 0 44 -17t18 -43t-18 -43t-44 -17q-25 0 -42.5 17t-17.5 43z"></glyph><glyph glyph-name="hdotbelow" unicode="ḥ" d="M162 374q33 99 140 99q28 0 53.5 -8t45 -25.5t30.5 -44.5t11 -65v-330h-90v304q0 42 -19.5 66.5t-61.5 24.5q-21 0 -40.5 -6t-35 -21t-24.5 -40t-9 -63v-265h-90v668h90v-294zM196 -139q0 26 17.5 43t42.5 17q26 0 44 -17t18 -43t-18 -43t-44 -17q-25 0 -42.5 17 t-17.5 43z"></glyph><glyph glyph-name="Ldotbelow" unicode="Ḷ" d="M175 589v-509h264v-80h-356v589h92zM200 -139q0 26 17.5 43t42.5 17q26 0 44 -17t18 -43t-18 -43t-44 -17q-25 0 -42.5 17t-17.5 43z"></glyph><glyph glyph-name="ldotbelow" unicode="ḷ" d="M228 0q-18 -5 -31 -6.5t-25 -1.5q-44 0 -75 24t-31 76v576h90v-557q0 -22 11.5 -31.5t29.5 -9.5q10 0 17 1.5t15 3.5zM86 -139q0 26 17.5 43t42.5 17q26 0 44 -17t18 -43t-18 -43t-44 -17q-25 0 -42.5 17t-17.5 43z"></glyph><glyph glyph-name="uni004C032300AF" unicode="Ḹ" d="M175 589v-509h264v-80h-356v589h92zM15 674v71h264v-71h-264zM200 -139q0 26 17.5 43t42.5 17q26 0 44 -17t18 -43t-18 -43t-44 -17q-25 0 -42.5 17t-17.5 43z"></glyph><glyph glyph-name="ldotbelowmacron" unicode="ḹ" d="M228 0q-18 -5 -31 -6.5t-25 -1.5q-44 0 -75 24t-31 76v576h90v-557q0 -22 11.5 -31.5t29.5 -9.5q10 0 17 1.5t15 3.5zM-17 741v71h264v-71h-264zM86 -139q0 26 17.5 43t42.5 17q26 0 44 -17t18 -43t-18 -43t-44 -17q-25 0 -42.5 17t-17.5 43z"></glyph><glyph glyph-name="Mdotbelow" unicode="Ṃ" d="M329 144l-111 204q-13 24 -21.5 42.5t-13.5 31.5q-6 15 -9 27h-4q1 -11 2 -27q1 -14 2 -33.5t1 -45.5v-343h-92v589h107l140 -272q8 -17 14 -30.5l10 -22.5q4 -11 6 -19h4q2 8 6 19q6 19 24 53l139 272h103v-589h-93v343q0 52 3 79q1 16 3 27h-4q-3 -12 -9 -27 q-11 -28 -36 -74l-110 -204h-61zM298 -139q0 26 17.5 43t42.5 17q26 0 44 -17t18 -43t-18 -43t-44 -17q-25 0 -42.5 17t-17.5 43z"></glyph><glyph glyph-name="mdotbelow" unicode="ṃ" d="M424 371q9 28 24 47.5t34 31.5t41.5 17.5t45.5 5.5q29 0 54 -8t43.5 -25t29 -43.5t10.5 -62.5v-334h-90v304q0 43 -19 67t-58 24q-20 0 -39 -7t-33.5 -23t-23.5 -40.5t-9 -59.5v-265h-90v304q0 43 -19 67t-58 24q-20 0 -38.5 -7.5t-33.5 -23t-24 -40.5t-9 -59v-265h-90 v462h71l11 -89q18 53 57.5 76.5t86.5 23.5q50 0 83.5 -23.5t42.5 -78.5zM328 -139q0 26 17.5 43t42.5 17q26 0 44 -17t18 -43t-18 -43t-44 -17q-25 0 -42.5 17t-17.5 43z"></glyph><glyph glyph-name="Ndotaccent" unicode="Ṅ" d="M409 252q13 -20 25.5 -40t21.5 -36q11 -19 20 -36h4q-2 19 -3 41q-1 19 -1.5 43.5t-0.5 52.5v312h92v-589h-91l-235 336q-14 20 -26.5 40t-21.5 37q-11 19 -20 37h-4q1 -19 3 -41q1 -19 2 -44t1 -54v-311h-92v589h94zM264 712q0 27 17.5 43.5t42.5 16.5q26 0 44 -16.5 t18 -43.5q0 -26 -18 -43t-44 -17q-25 0 -42.5 17t-17.5 43z"></glyph><glyph glyph-name="ndotaccent" unicode="ṅ" d="M154 373q19 52 57 76t91 24q28 0 53.5 -8t45 -25.5t30.5 -44.5t11 -65v-330h-90v303q0 43 -19.5 67.5t-61.5 24.5q-21 0 -40.5 -6.5t-35 -21.5t-24.5 -40t-9 -62v-265h-90v462h71zM201 596q0 26 17.5 43t42.5 17q26 0 44 -17t18 -43t-18 -43t-44 -17q-25 0 -42.5 17 t-17.5 43z"></glyph><glyph glyph-name="Ndotbelow" unicode="Ṇ" d="M409 252q13 -20 25.5 -40t21.5 -36q11 -19 20 -36h4q-2 19 -3 41q-1 19 -1.5 43.5t-0.5 52.5v312h92v-589h-91l-235 336q-14 20 -26.5 40t-21.5 37q-11 19 -20 37h-4q1 -19 3 -41q1 -19 2 -44t1 -54v-311h-92v589h94zM264 -139q0 26 17.5 43t42.5 17q26 0 44 -17t18 -43 t-18 -43t-44 -17q-25 0 -42.5 17t-17.5 43z"></glyph><glyph glyph-name="ndotbelow" unicode="ṇ" d="M154 373q19 52 57 76t91 24q28 0 53.5 -8t45 -25.5t30.5 -44.5t11 -65v-330h-90v303q0 43 -19.5 67.5t-61.5 24.5q-21 0 -40.5 -6.5t-35 -21.5t-24.5 -40t-9 -62v-265h-90v462h71zM199 -139q0 26 17.5 43t42.5 17q26 0 44 -17t18 -43t-18 -43t-44 -17q-25 0 -42.5 17 t-17.5 43z"></glyph><glyph glyph-name="Rdotbelow" unicode="Ṛ" d="M414 0q-11 12 -16.5 25t-9.5 30l-24 102q-6 26 -16 42t-23.5 25t-31 12t-39.5 3h-79v-239h-92v589h204q201 0 201 -168q0 -35 -11 -61.5t-29.5 -45t-43 -28.5t-52.5 -11v-3q42 -5 66 -25.5t36 -68.5l30 -116q5 -18 12.5 -33t18.5 -29h-101zM175 316h108q109 0 109 98 q0 46 -26.5 72t-81.5 26h-109v-196zM200 -139q0 26 17.5 43t42.5 17q26 0 44 -17t18 -43t-18 -43t-44 -17q-25 0 -42.5 17t-17.5 43z"></glyph><glyph glyph-name="rdotbelow" unicode="ṛ" d="M331 371q-8 2 -19 3t-22 1q-24 0 -47 -9.5t-41 -27.5t-29 -44t-11 -60v-234h-90v462h76l11 -125q13 62 57.5 100.5t121.5 34.5zM55 -139q0 26 17.5 43t42.5 17q26 0 44 -17t18 -43t-18 -43t-44 -17q-25 0 -42.5 17t-17.5 43z"></glyph><glyph glyph-name="Rdotbelowmacron" unicode="Ṝ" d="M414 0q-11 12 -16.5 25t-9.5 30l-24 102q-6 26 -16 42t-23.5 25t-31 12t-39.5 3h-79v-239h-92v589h204q201 0 201 -168q0 -35 -11 -61.5t-29.5 -45t-43 -28.5t-52.5 -11v-3q42 -5 66 -25.5t36 -68.5l30 -116q5 -18 12.5 -33t18.5 -29h-101zM175 316h108q109 0 109 98 q0 46 -26.5 72t-81.5 26h-109v-196zM130 674v71h264v-71h-264zM200 -139q0 26 17.5 43t42.5 17q26 0 44 -17t18 -43t-18 -43t-44 -17q-25 0 -42.5 17t-17.5 43z"></glyph><glyph glyph-name="rdotbelowmacron" unicode="ṝ" d="M331 371q-8 2 -19 3t-22 1q-24 0 -47 -9.5t-41 -27.5t-29 -44t-11 -60v-234h-90v462h76l11 -125q13 62 57.5 100.5t121.5 34.5zM74 558v73h262v-73h-262zM55 -139q0 26 17.5 43t42.5 17q26 0 44 -17t18 -43t-18 -43t-44 -17q-25 0 -42.5 17t-17.5 43z"></glyph><glyph glyph-name="Sdotbelow" unicode="Ṣ" d="M114 164q9 -54 42 -79.5t81 -25.5t77 21t29 63q0 19 -5.5 34.5t-19.5 28t-37.5 24.5t-59.5 26q-35 12 -66 26t-54.5 34.5t-37.5 49t-14 69.5q0 46 16.5 78t43 51.5t60 28.5t68.5 9q40 0 75 -8.5t61.5 -27t43 -48t20.5 -71.5l-91 -18q-5 49 -34 74t-74 25 q-42 0 -68.5 -21.5t-26.5 -63.5q0 -22 8.5 -37.5t25 -27.5t40.5 -22.5t55 -21.5q34 -12 64 -26t52.5 -34.5t35.5 -49t13 -69.5q0 -44 -16 -75.5t-44 -51.5t-65.5 -30t-79.5 -10q-88 0 -139 36t-65 117zM183 -139q0 26 17.5 43t42.5 17q26 0 44 -17t18 -43t-18 -43t-44 -17 q-25 0 -42.5 17t-17.5 43z"></glyph><glyph glyph-name="sdotbelow" unicode="ṣ" d="M107 128q5 -40 31.5 -58t68.5 -18q40 0 66 15t26 47q0 29 -15 45.5t-57 27.5l-68 16q-63 15 -89.5 47.5t-26.5 83.5q0 39 15 65.5t39 43t55.5 23.5t64.5 7q73 0 116 -28.5t50 -96.5l-88 -10q-4 67 -84 67q-38 0 -59.5 -16.5t-21.5 -45.5q0 -25 12.5 -41t50.5 -24l64 -15 q62 -15 95 -46.5t33 -92.5q0 -37 -14 -63t-38 -42t-56.5 -23.5t-70.5 -7.5q-79 0 -124 26.5t-55 89.5zM157 -139q0 26 17.5 43t42.5 17q26 0 44 -17t18 -43t-18 -43t-44 -17q-25 0 -42.5 17t-17.5 43z"></glyph><glyph glyph-name="Tdotbelow" unicode="Ṭ" d="M181 0v509h-171v80h436v-80h-172v-509h-93zM167 -139q0 26 17.5 43t42.5 17q26 0 44 -17t18 -43t-18 -43t-44 -17q-25 0 -42.5 17t-17.5 43z"></glyph><glyph glyph-name="tdotbelow" unicode="ṭ" d="M322 15q-45 -27 -112 -27q-63 0 -98 32.5t-35 97.5v272h-67v72h67v98l91 11v-109h137v-72h-138v-254q0 -38 16 -54.5t45 -16.5q23 0 40 6t37 19zM124 -139q0 26 17.5 43t42.5 17q26 0 44 -17t18 -43t-18 -43t-44 -17q-25 0 -42.5 17t-17.5 43z"></glyph><glyph glyph-name="Wgrave" unicode="Ẁ" d="M562 220q8 -35 14.5 -64t10.5 -50q4 -25 7 -45h4q3 20 7 45q4 21 9.5 50t13.5 63l93 370h93l-153 -589h-131l-90 347q-9 34 -14.5 63t-7.5 50q-3 25 -3 45h-4q-1 -20 -5 -45q-3 -21 -8.5 -49.5t-13.5 -63.5l-89 -347h-131l-152 589h98l92 -367q8 -35 14 -64t10 -51 q4 -26 7 -46h4q2 20 6 46q4 22 10 50.5t15 63.5l95 368h107zM376 653l-100 123h120l63 -123h-83z"></glyph><glyph glyph-name="wgrave" unicode="ẁ" d="M448 222q10 -35 15.5 -63.5t9.5 -49.5q4 -25 6 -44h4q0 18 4 43q3 20 8 49.5t14 64.5l62 240h91l-126 -462h-108l-61 219q-10 33 -15.5 59.5t-8.5 46.5q-4 22 -6 40h-4q-1 -18 -5 -40q-6 -39 -23 -106l-58 -219h-108l-129 462h93l63 -240q9 -35 15 -63.5t10 -49.5 q4 -25 6 -44h4q1 19 5 44q3 21 8 50t15 64l64 239h90zM303 529l-115 146h121l74 -146h-80z"></glyph><glyph glyph-name="Wacute" unicode="Ẃ" d="M562 220q8 -35 14.5 -64t10.5 -50q4 -25 7 -45h4q3 20 7 45q4 21 9.5 50t13.5 63l93 370h93l-153 -589h-131l-90 347q-9 34 -14.5 63t-7.5 50q-3 25 -3 45h-4q-1 -20 -5 -45q-3 -21 -8.5 -49.5t-13.5 -63.5l-89 -347h-131l-152 589h98l92 -367q8 -35 14 -64t10 -51 q4 -26 7 -46h4q2 20 6 46q4 22 10 50.5t15 63.5l95 368h107zM368 653l63 123h120l-101 -123h-82z"></glyph><glyph glyph-name="wacute" unicode="ẃ" d="M448 222q10 -35 15.5 -63.5t9.5 -49.5q4 -25 6 -44h4q0 18 4 43q3 20 8 49.5t14 64.5l62 240h91l-126 -462h-108l-61 219q-10 33 -15.5 59.5t-8.5 46.5q-4 22 -6 40h-4q-1 -18 -5 -40q-6 -39 -23 -106l-58 -219h-108l-129 462h93l63 -240q9 -35 15 -63.5t10 -49.5 q4 -25 6 -44h4q1 19 5 44q3 21 8 50t15 64l64 239h90zM288 529l74 146h121l-116 -146h-79z"></glyph><glyph glyph-name="Wdieresis" unicode="Ẅ" d="M562 220q8 -35 14.5 -64t10.5 -50q4 -25 7 -45h4q3 20 7 45q4 21 9.5 50t13.5 63l93 370h93l-153 -589h-131l-90 347q-9 34 -14.5 63t-7.5 50q-3 25 -3 45h-4q-1 -20 -5 -45q-3 -21 -8.5 -49.5t-13.5 -63.5l-89 -347h-131l-152 589h98l92 -367q8 -35 14 -64t10 -51 q4 -26 7 -46h4q2 20 6 46q4 22 10 50.5t15 63.5l95 368h107zM254 713q0 26 17.5 43t41.5 17q25 0 42.5 -17t17.5 -43t-17.5 -42.5t-42.5 -16.5q-24 0 -41.5 16.5t-17.5 42.5zM450 712q0 26 17.5 43t41.5 17q26 0 43 -17t17 -43q0 -25 -17 -42t-43 -17q-24 0 -41.5 17 t-17.5 42z"></glyph><glyph glyph-name="wdieresis" unicode="ẅ" d="M448 222q10 -35 15.5 -63.5t9.5 -49.5q4 -25 6 -44h4q0 18 4 43q3 20 8 49.5t14 64.5l62 240h91l-126 -462h-108l-61 219q-10 33 -15.5 59.5t-8.5 46.5q-4 22 -6 40h-4q-1 -18 -5 -40q-6 -39 -23 -106l-58 -219h-108l-129 462h93l63 -240q9 -35 15 -63.5t10 -49.5 q4 -25 6 -44h4q1 19 5 44q3 21 8 50t15 64l64 239h90zM177 595q0 26 17.5 43t41.5 17q25 0 42.5 -17t17.5 -43t-17.5 -42.5t-42.5 -16.5q-24 0 -41.5 16.5t-17.5 42.5zM373 594q0 26 17.5 43t41.5 17q26 0 43 -17t17 -43q0 -25 -17 -42t-43 -17q-24 0 -41.5 17t-17.5 42z "></glyph><glyph glyph-name="Idotbelow" unicode="Ị" d="M175 589v-589h-92v589h92zM68 -139q0 26 17.5 43t42.5 17q26 0 44 -17t18 -43t-18 -43t-44 -17q-25 0 -42.5 17t-17.5 43z"></glyph><glyph glyph-name="idotbelow" unicode="ị" d="M56 -139q0 26 17.5 43t42.5 17q26 0 44 -17t18 -43t-18 -43t-44 -17q-25 0 -42.5 17t-17.5 43zM56 610q0 27 18 43.5t42 16.5q26 0 44.5 -16.5t18.5 -43.5q0 -26 -18.5 -43t-44.5 -17q-24 0 -42 17t-18 43zM162 462v-462h-90v462h90z"></glyph><glyph glyph-name="Odotbelow" unicode="Ọ" d="M310 -12q-61 0 -110 20t-83.5 59t-53.5 96t-19 131t19 131t53.5 96t83.5 59.5t110 20.5t110 -20.5t83.5 -59.5t53 -96t18.5 -131t-18.5 -131t-53 -96t-83.5 -59t-110 -20zM310 520q-84 0 -126.5 -60t-42.5 -166t42.5 -166t126.5 -60t126 60t42 166t-42.5 166t-125.5 60z M249 -139q0 26 17.5 43t42.5 17q26 0 44 -17t18 -43t-18 -43t-44 -17q-25 0 -42.5 17t-17.5 43z"></glyph><glyph glyph-name="odotbelow" unicode="ọ" d="M252 -12q-48 0 -86.5 16t-66 47.5t-42.5 77.5t-15 105q0 118 57 178.5t153 60.5t153.5 -60.5t57.5 -178.5q0 -119 -57.5 -182.5t-153.5 -63.5zM252 400q-121 0 -121 -167q0 -174 121 -174q122 0 122 174q0 167 -122 167zM191 -139q0 26 17.5 43t42.5 17q26 0 44 -17 t18 -43t-18 -43t-44 -17q-25 0 -42.5 17t-17.5 43z"></glyph><glyph glyph-name="Udotbelow" unicode="Ụ" d="M518 589v-396q0 -57 -19.5 -96.5t-51 -63.5t-72.5 -34.5t-84 -10.5q-44 0 -84.5 10.5t-72.5 34.5t-51 63.5t-19 96.5v396h92v-372q0 -80 35 -116.5t100 -36.5q64 0 99 36.5t35 114.5v374h93zM229 -139q0 26 17.5 43t42.5 17q26 0 44 -17t18 -43t-18 -43t-44 -17 q-25 0 -42.5 17t-17.5 43z"></glyph><glyph glyph-name="udotbelow" unicode="ụ" d="M348 84q-17 -51 -52 -73.5t-90 -22.5q-32 0 -57.5 8.5t-44 27t-28.5 47.5t-10 70v321h90v-307q0 -100 83 -100q19 0 38 8.5t34.5 25t25 42t9.5 58.5v273h90v-462h-77zM190 -139q0 26 17.5 43t42.5 17q26 0 44 -17t18 -43t-18 -43t-44 -17q-25 0 -42.5 17t-17.5 43z"></glyph><glyph glyph-name="Ygrave" unicode="Ỳ" d="M207 402q13 -26 20.5 -44t12.5 -31q5 -15 8 -25h4q2 10 7 25q7 24 31 75l87 187h97l-180 -366v-223h-92v223l-192 366h105zM205 653l-100 123h120l63 -123h-83z"></glyph><glyph glyph-name="ygrave" unicode="ỳ" d="M186 208q11 -34 17 -61t11 -46q4 -22 8 -39h4q3 17 7 39q4 19 10.5 45.5t17.5 61.5l77 254h94l-170 -500q-18 -51 -38 -84t-43 -52t-49.5 -26.5t-57.5 -7.5q-17 0 -34.5 3t-32.5 8l8 77q28 -14 60 -14q37 0 60.5 23t43.5 84l-171 489h99zM194 529l-115 146h121l74 -146 h-80z"></glyph><glyph glyph-name="Ytilde" unicode="Ỹ" d="M207 402q13 -26 20.5 -44t12.5 -31q5 -15 8 -25h4q2 10 7 25q7 24 31 75l87 187h97l-180 -366v-223h-92v223l-192 366h105zM312 653q-23 0 -38 7t-34 17q-20 11 -32.5 18t-27.5 7q-16 0 -24.5 -10.5t-5.5 -36.5h-55q-9 24 -8 46.5t11 40.5t28.5 28.5t42.5 10.5 q26 0 43 -7.5t36 -18.5q20 -13 31 -18.5t24 -5.5q14 0 22.5 11t6.5 38h57q9 -26 8 -49.5t-11 -40.5t-28.5 -27t-45.5 -10z"></glyph><glyph glyph-name="ytilde" unicode="ỹ" d="M186 208q11 -34 17 -61t11 -46q4 -22 8 -39h4q3 17 7 39q4 19 10.5 45.5t17.5 61.5l77 254h94l-170 -500q-18 -51 -38 -84t-43 -52t-49.5 -26.5t-57.5 -7.5q-17 0 -34.5 3t-32.5 8l8 77q28 -14 60 -14q37 0 60.5 23t43.5 84l-171 489h99zM297 529q-23 0 -38 6.5t-34 16.5 q-20 12 -32.5 18.5t-27.5 6.5q-16 0 -24.5 -10.5t-5.5 -36.5h-55q-9 24 -8 46.5t11 40t28.5 27.5t42.5 10q26 0 43 -8t36 -19q20 -12 31 -17.5t24 -5.5q14 0 22.5 10.5t6.5 38.5h57q18 -53 -2.5 -88.5t-74.5 -35.5z"></glyph><glyph glyph-name="enspace" unicode=" "></glyph><glyph glyph-name="emspace" unicode=" "></glyph><glyph glyph-name="threeperemspace" unicode=" "></glyph><glyph glyph-name="fourperemspace" unicode=" "></glyph><glyph glyph-name="sixperemspace" unicode=" "></glyph><glyph glyph-name="figurespace" unicode=" "></glyph><glyph glyph-name="punctuationspace" unicode=" "></glyph><glyph glyph-name="thinspace" unicode=" "></glyph><glyph glyph-name="hairspace" unicode=" "></glyph><glyph glyph-name="zerowidthspace" unicode="​"></glyph><glyph glyph-name="figuredash" unicode="‒" d="M68 284h459v-64h-459v64z"></glyph><glyph glyph-name="endash" unicode="–" d="M68 284h364v-64h-364v64z"></glyph><glyph glyph-name="emdash" unicode="—" d="M68 284h864v-64h-864v64z"></glyph><glyph glyph-name="uni2015" unicode="―" d="M68 284h1114v-64h-1114v64z"></glyph><glyph glyph-name="doublebar" unicode="‖" d="M100 -203v872h77v-872h-77zM261 -203v872h77v-872h-77z"></glyph><glyph glyph-name="quoteleft" unicode="‘" d="M38 531q0 75 41.5 109t110.5 38v-43q-37 -5 -59 -22.5t-22 -51.5q31 6 51.5 -10t20.5 -46q0 -29 -19 -45.5t-48 -16.5q-31 0 -53.5 23.5t-22.5 64.5z"></glyph><glyph glyph-name="quoteright" unicode="’" d="M190 590q0 -75 -41.5 -109t-110.5 -38v43q37 5 59 22.5t22 51.5q-31 -6 -51.5 10.5t-20.5 45.5q0 30 19 46t48 16q31 0 53.5 -23t22.5 -65z"></glyph><glyph glyph-name="quotesinglbase" unicode="‚" d="M190 31q0 -75 -41.5 -109t-110.5 -38v43q37 5 59 22.5t22 51.5q-31 -6 -51.5 10.5t-20.5 45.5q0 30 19 46t48 16q31 0 53.5 -23t22.5 -65z"></glyph><glyph glyph-name="reversequoteleft" unicode="‛" d="M38 590q0 42 22.5 65t53.5 23q29 0 48 -16t19 -46q0 -29 -20.5 -45.5t-51.5 -10.5q0 -34 22 -51.5t59 -22.5v-43q-69 4 -110.5 38t-41.5 109z"></glyph><glyph glyph-name="quotedblleft" unicode="“" d="M38 531q0 75 41.5 109t110.5 38v-43q-37 -5 -59 -22.5t-22 -51.5q31 6 51.5 -10t20.5 -46q0 -29 -19 -45.5t-48 -16.5q-31 0 -53.5 23.5t-22.5 64.5zM231 531q0 75 41.5 109t110.5 38v-43q-37 -5 -59 -22.5t-22 -51.5q31 6 51.5 -10t20.5 -46q0 -29 -19 -45.5t-48 -16.5 q-31 0 -53.5 23.5t-22.5 64.5z"></glyph><glyph glyph-name="quotedblright" unicode="”" d="M190 590q0 -75 -41.5 -109t-110.5 -38v43q37 5 59 22.5t22 51.5q-31 -6 -51.5 10t-20.5 46q0 29 19 45.5t48 16.5q31 0 53.5 -23.5t22.5 -64.5zM383 590q0 -75 -41.5 -109t-110.5 -38v43q37 5 59 22.5t22 51.5q-31 -6 -51.5 10t-20.5 46q0 29 19 45.5t48 16.5 q31 0 53.5 -23.5t22.5 -64.5z"></glyph><glyph glyph-name="quotedblbase" unicode="„" d="M190 31q0 -75 -41.5 -109t-110.5 -38v43q37 5 59 22.5t22 51.5q-31 -6 -51.5 10t-20.5 46q0 29 19 45.5t48 16.5q31 0 53.5 -23.5t22.5 -64.5zM383 31q0 -75 -41.5 -109t-110.5 -38v43q37 5 59 22.5t22 51.5q-31 -6 -51.5 10t-20.5 46q0 29 19 45.5t48 16.5 q31 0 53.5 -23.5t22.5 -64.5z"></glyph><glyph glyph-name="reversequotedblleft" unicode="‟" d="M38 590q0 41 22.5 64.5t53.5 23.5q29 0 48 -16.5t19 -45.5q0 -30 -20.5 -46t-51.5 -10q0 -34 22 -51.5t59 -22.5v-43q-69 4 -110.5 38t-41.5 109zM231 590q0 41 22.5 64.5t53.5 23.5q29 0 48 -16.5t19 -45.5q0 -30 -20.5 -46t-51.5 -10q0 -34 22 -51.5t59 -22.5v-43 q-69 4 -110.5 38t-41.5 109z"></glyph><glyph glyph-name="dagger" unicode="†" d="M48 277v89l188 -10l-10 233h95l-10 -233l187 10v-89l-187 11l10 -437h-95l10 437z"></glyph><glyph glyph-name="daggerdbl" unicode="‡" d="M310 137l188 11v-88l-187 11l10 -221h-95l10 221l-188 -11v88l188 -11v169l-188 -11v87l188 -11l-10 218h95l-11 -218l188 11v-87l-187 11z"></glyph><glyph glyph-name="bullet" unicode="•" d="M79 243q0 18 7 33.5t18.5 27t27 18.5t32.5 7q18 0 34 -7t27.5 -18.5t18.5 -27t7 -33.5q0 -17 -7 -32.5t-18.5 -27t-27.5 -18.5t-34 -7q-35 0 -60 25t-25 60z"></glyph><glyph glyph-name="ellipsis" unicode="…" d="M75 62q0 29 19.5 48.5t48.5 19.5t48.5 -19.5t19.5 -48.5t-19.5 -48.5t-48.5 -19.5t-48.5 19.5t-19.5 48.5zM361 62q0 29 19.5 48.5t48.5 19.5t48.5 -19.5t19.5 -48.5t-19.5 -48.5t-48.5 -19.5t-48.5 19.5t-19.5 48.5zM647 62q0 29 19.5 48.5t48.5 19.5t48.5 -19.5 t19.5 -48.5t-19.5 -48.5t-48.5 -19.5t-48.5 19.5t-19.5 48.5z"></glyph><glyph glyph-name="perthousand" unicode="‰" d="M175 229q-71 0 -106.5 51t-35.5 133q0 40 10 74t28 58.5t44.5 38t59.5 13.5t59 -13.5t44 -38t28 -58.5t10 -74q0 -82 -35.5 -133t-105.5 -51zM175 534q-35 0 -52.5 -34t-17.5 -88q0 -53 17.5 -88.5t52.5 -35.5q34 0 52 35.5t18 88.5q0 54 -17.5 88t-52.5 34zM554 590h62 l-306 -590h-62zM689 -7q-71 0 -106.5 51t-35.5 133q0 40 10 74t28 58.5t44.5 38t59.5 13.5t59 -13.5t44 -38t28 -58.5t10 -74q0 -82 -35.5 -133t-105.5 -51zM689 298q-35 0 -52.5 -34t-17.5 -88q0 -53 17.5 -88.5t52.5 -35.5q34 0 52 35.5t18 88.5q0 54 -17.5 88t-52.5 34z M1039 -7q-71 0 -106.5 51t-35.5 133q0 40 10 74t28 58.5t44.5 38t59.5 13.5t59 -13.5t44 -38t28 -58.5t10 -74q0 -82 -35.5 -133t-105.5 -51zM1039 298q-35 0 -52.5 -34t-17.5 -88q0 -53 17.5 -88.5t52.5 -35.5q34 0 52 35.5t18 88.5q0 54 -17.5 88t-52.5 34z"></glyph><glyph glyph-name="tripleprime" unicode="‴" d="M61 668h98l-42 -256h-56v256zM209 668h98l-42 -256h-56v256zM357 668h98l-42 -256h-56v256z"></glyph><glyph glyph-name="guilsinglleft" unicode="‹" d="M110 231q6 -3 14 -9q14 -11 41 -42l99 -116l-49 -43l-185 213l185 213l49 -49l-99 -114q-14 -17 -24.5 -26.5t-17.5 -14.5q-8 -6 -13 -8v-4z"></glyph><glyph glyph-name="guilsinglright" unicode="›" d="M184 235q-5 2 -13 8q-7 5 -17.5 14.5t-24.5 26.5l-99 114l49 49l185 -213l-185 -213l-48 43l98 116q14 17 24.5 27t17.5 15q8 6 13 9v4z"></glyph><glyph glyph-name="fraction" unicode="⁄" d="M204 590h62l-306 -590h-62z"></glyph><glyph glyph-name="uni2070" unicode="⁰" d="M175 229q-71 0 -106.5 51t-35.5 133q0 40 10 74t28 58.5t44.5 38t59.5 13.5t59 -13.5t44 -38t28 -58.5t10 -74q0 -82 -35.5 -133t-105.5 -51zM175 534q-35 0 -52.5 -34t-17.5 -88q0 -53 17.5 -88.5t52.5 -35.5q34 0 52 35.5t18 88.5q0 54 -17.5 88t-52.5 34z"></glyph><glyph glyph-name="uni2074" unicode="⁴" d="M193 322h-179v54l176 213h75v-213h57v-54h-57v-86h-72v86zM195 459q0 15 0.5 27.5t1.5 22.5q1 11 2 21h-4q-3 -7 -8 -17q-5 -8 -11.5 -19t-15.5 -23l-42 -50q-9 -11 -17.5 -19.5t-15.5 -14.5q-8 -7 -15 -12v-4q5 1 13 2q7 1 17 1.5t26 0.5h69v84z"></glyph><glyph glyph-name="uni2075" unicode="⁵" d="M59 589h210v-59h-154l-5 -93q22 28 71 28q46 0 75.5 -28t29.5 -82q0 -63 -38 -94.5t-104 -31.5q-54 0 -87.5 23t-38.5 61l62 27q5 -29 23.5 -43t45.5 -14q30 0 48.5 16t18.5 51q0 32 -15 48t-41 16q-20 0 -32 -6.5t-20 -16.5h-58z"></glyph><glyph glyph-name="uni2076" unicode="⁶" d="M246 499q-16 40 -62 40q-41 0 -64 -38t-23 -112h4q6 32 30 52.5t65 20.5q50 0 80.5 -32t30.5 -81q0 -24 -8.5 -46t-25.5 -38.5t-42 -26t-58 -9.5q-63 0 -101.5 42.5t-38.5 130.5q0 50 12.5 86.5t33.5 60.5t49 36t60 12q38 0 67.5 -17t43.5 -51zM114 345q0 -30 18.5 -47 t45.5 -17t45.5 17t18.5 47t-18.5 47t-44.5 17q-28 0 -46.5 -17t-18.5 -47z"></glyph><glyph glyph-name="uni2077" unicode="⁷" d="M81 528v-53h-62v114h268v-40l-141 -313h-73l135 292h-127z"></glyph><glyph glyph-name="uni2078" unicode="⁸" d="M174 389q-25 0 -45 -13t-20 -41q0 -26 17.5 -40.5t47.5 -14.5t47.5 14.5t17.5 40.5q0 28 -19.5 41t-45.5 13zM174 229q-60 0 -98.5 25t-38.5 73q0 34 21 56.5t56 28.5v4q-34 5 -51.5 27.5t-17.5 52.5q0 48 36 74.5t93 26.5q58 0 93.5 -26.5t35.5 -74.5q0 -30 -17.5 -52.5 t-51.5 -27.5v-4q35 -6 56 -28.5t21 -56.5q0 -48 -38 -73t-99 -25zM174 545q-28 0 -46 -14t-18 -37q0 -25 20 -37.5t44 -12.5t44 12.5t20 37.5q0 23 -18 37t-46 14z"></glyph><glyph glyph-name="uni2079" unicode="⁹" d="M82 327q16 -40 62 -40q43 0 67 38t24 112h-4q-6 -32 -30.5 -52.5t-64.5 -20.5q-51 0 -81 32t-30 81q0 24 8.5 46t25.5 38.5t42 26t58 9.5q63 0 101.5 -42.5t38.5 -130.5q0 -50 -12.5 -86.5t-34 -60.5t-50 -36t-59.5 -12q-38 0 -69 17t-45 51zM218 479q0 30 -19 47t-45 17 q-27 0 -46 -17t-19 -47q0 -29 18.5 -46.5t44.5 -17.5q28 0 47 17.5t19 46.5z"></glyph><glyph glyph-name="uni207A" unicode="⁺" d="M198 442v148h45v-148h157v-46h-157v-160h-45v160h-153v46h153z"></glyph><glyph glyph-name="uni207B" unicode="⁻" d="M45 396v46h355v-46h-355z"></glyph><glyph glyph-name="uni207C" unicode="⁼" d="M45 340v46h355v-46h-355zM45 461v46h355v-46h-355z"></glyph><glyph glyph-name="uni207D" unicode="⁽" d="M97 409q0 -37 6.5 -67t18.5 -57t28.5 -52t37.5 -51h-58q-17 21 -32.5 44.5t-27 51.5t-18.5 60.5t-7 70.5q0 76 25 130.5t60 96.5h58q-21 -25 -37.5 -50t-28.5 -52t-18.5 -58t-6.5 -67z"></glyph><glyph glyph-name="uni207E" unicode="⁾" d="M136 409q0 36 -6.5 67t-18.5 58t-28.5 52t-37.5 50h57q35 -42 60.5 -96t25.5 -131t-25.5 -131t-60.5 -96h-57q21 26 37.5 51t28.5 52t18.5 57t6.5 67z"></glyph><glyph glyph-name="n.superior" unicode="ⁿ" d="M128 534q12 35 41 51t62 16q20 0 39 -6t34 -18.5t24.5 -33.5t9.5 -51v-205h-76v190q0 65 -55 65q-11 0 -23.5 -3t-23.5 -13t-18 -28t-7 -49v-162h-76v306h60z"></glyph><glyph glyph-name="uni2080" unicode="₀" d="M175 -7q-71 0 -106.5 51t-35.5 133q0 40 10 74t28 58.5t44.5 38t59.5 13.5t59 -13.5t44 -38t28 -58.5t10 -74q0 -82 -35.5 -133t-105.5 -51zM175 298q-35 0 -52.5 -34t-17.5 -88q0 -53 17.5 -88.5t52.5 -35.5q34 0 52 35.5t18 88.5q0 54 -17.5 88t-52.5 34z"></glyph><glyph glyph-name="uni2081" unicode="₁" d="M32 0v56h96v228l-106 -11v58l178 23v-298h86v-56h-254z"></glyph><glyph glyph-name="uni2082" unicode="₂" d="M288 0h-266v52q43 30 75.5 54.5t54.5 47t33.5 44.5t11.5 47q0 26 -14 39.5t-40 13.5q-30 0 -44.5 -19.5t-15.5 -48.5l-60 27q0 19 9 37.5t25.5 33.5t40.5 24t56 9q24 0 45 -6.5t37.5 -20t26 -34t9.5 -48.5q0 -38 -16.5 -68t-41 -53t-52.5 -40.5t-50 -29.5v-4h176v-57z "></glyph><glyph glyph-name="uni2083" unicode="₃" d="M182 181q51 -5 74.5 -28.5t23.5 -62.5q0 -47 -37.5 -72t-97.5 -25q-59 0 -93 22.5t-42 58.5l62 25q6 -23 26 -37.5t48 -14.5q27 0 43.5 11t16.5 37q0 27 -22 43t-83 17v48q54 2 75 16t21 39q0 21 -14 33.5t-38 12.5q-21 0 -37.5 -11.5t-21.5 -34.5l-61 23q9 36 41.5 58 t84.5 22q23 0 44.5 -5t37.5 -16.5t25.5 -29t9.5 -41.5q0 -33 -19.5 -56t-66.5 -29v-3z"></glyph><glyph glyph-name="uni2084" unicode="₄" d="M193 86h-179v54l176 213h75v-213h57v-54h-57v-86h-72v86zM195 223q0 15 0.5 27.5t1.5 22.5q1 11 2 21h-4q-3 -7 -8 -17q-5 -8 -11.5 -19t-15.5 -23l-42 -50q-9 -11 -17.5 -19.5t-15.5 -14.5q-8 -7 -15 -12v-4q5 1 13 2q7 1 17 1.5t26 0.5h69v84z"></glyph><glyph glyph-name="uni2085" unicode="₅" d="M59 353h210v-59h-154l-5 -93q22 28 71 28q46 0 75.5 -28t29.5 -82q0 -63 -38 -94.5t-104 -31.5q-54 0 -87.5 23t-38.5 61l62 27q5 -29 23.5 -43t45.5 -14q30 0 48.5 16t18.5 51q0 32 -15 48t-41 16q-20 0 -32 -6.5t-20 -16.5h-58z"></glyph><glyph glyph-name="uni2086" unicode="₆" d="M246 263q-16 40 -62 40q-41 0 -64 -38t-23 -112h4q6 32 30 52.5t65 20.5q50 0 80.5 -32t30.5 -81q0 -24 -8.5 -46t-25.5 -38.5t-42 -26t-58 -9.5q-63 0 -101.5 42.5t-38.5 130.5q0 50 12.5 86.5t33.5 60.5t49 36t60 12q38 0 67.5 -17t43.5 -51zM114 109q0 -30 18.5 -47 t45.5 -17t45.5 17t18.5 47t-18.5 47t-44.5 17q-28 0 -46.5 -17t-18.5 -47z"></glyph><glyph glyph-name="uni2087" unicode="₇" d="M81 292v-53h-62v114h268v-40l-141 -313h-73l135 292h-127z"></glyph><glyph glyph-name="uni2088" unicode="₈" d="M174 153q-25 0 -45 -13t-20 -41q0 -26 17.5 -40.5t47.5 -14.5t47.5 14.5t17.5 40.5q0 28 -19.5 41t-45.5 13zM174 -7q-60 0 -98.5 25t-38.5 73q0 34 21 56.5t56 28.5v4q-34 5 -51.5 27.5t-17.5 52.5q0 48 36 74.5t93 26.5q58 0 93.5 -26.5t35.5 -74.5q0 -30 -17.5 -52.5 t-51.5 -27.5v-4q35 -6 56 -28.5t21 -56.5q0 -48 -38 -73t-99 -25zM174 309q-28 0 -46 -14t-18 -37q0 -25 20 -37.5t44 -12.5t44 12.5t20 37.5q0 23 -18 37t-46 14z"></glyph><glyph glyph-name="uni2089" unicode="₉" d="M82 91q16 -40 62 -40q43 0 67 38t24 112h-4q-6 -32 -30.5 -52.5t-64.5 -20.5q-51 0 -81 32t-30 81q0 24 8.5 46t25.5 38.5t42 26t58 9.5q63 0 101.5 -42.5t38.5 -130.5q0 -50 -12.5 -86.5t-34 -60.5t-50 -36t-59.5 -12q-38 0 -69 17t-45 51zM218 243q0 30 -19 47t-45 17 q-27 0 -46 -17t-19 -47q0 -29 18.5 -46.5t44.5 -17.5q28 0 47 17.5t19 46.5z"></glyph><glyph glyph-name="uni208A" unicode="₊" d="M198 206v149h45v-149h157v-45h-157v-161h-45v161h-153v45h153z"></glyph><glyph glyph-name="uni208B" unicode="₋" d="M45 160v46h355v-46h-355z"></glyph><glyph glyph-name="uni208C" unicode="₌" d="M45 104v46h355v-46h-355zM45 225v46h355v-46h-355z"></glyph><glyph glyph-name="uni208D" unicode="₍" d="M97 174q0 -37 6.5 -67.5t18.5 -57.5t28.5 -52t37.5 -51h-58q-35 42 -60 96.5t-25 131.5q0 76 25 130t60 96h58q-41 -50 -66 -102t-25 -124z"></glyph><glyph glyph-name="uni208E" unicode="₎" d="M136 174q0 72 -25 124t-66 102h57q35 -42 60.5 -96t25.5 -130q0 -77 -25.5 -131.5t-60.5 -96.5h-57q21 26 37.5 51t28.5 52t18.5 57.5t6.5 67.5z"></glyph><glyph glyph-name="uni20A1" unicode="₡" d="M138 28q-42 30 -66 82.5t-24 128.5q0 61 17.5 108.5t48.5 79.5t74 49t95 17h14l29 84l47 -16l-26 -75q12 -2 23 -6.5t21 -9.5l28 81l47 -16l-33 -97q23 -25 40 -63l-76 -41l-93 -272q33 5 56 22.5t43 52.5l70 -48q-32 -54 -79.5 -77t-114.5 -24l-33 -96l-47 16l28 84 q-24 5 -44 12l-29 -87l-48 17zM139 243q0 -79 30 -124l103 302q-64 -3 -98.5 -50t-34.5 -128zM209 79q20 -12 43 -16l110 322q-18 20 -40 28z"></glyph><glyph glyph-name="uni20A2" unicode="₢" d="M477 89q-33 -54 -81.5 -77.5t-117.5 -23.5q-48 0 -89.5 15.5t-72 46.5t-47.5 78.5t-17 110.5q0 61 17.5 108.5t48.5 79.5t74 49t95 17q74 0 119 -29t71 -89l-81 -44q-15 43 -42.5 66.5t-70.5 23.5q-67 0 -103.5 -47.5t-36.5 -130.5q0 -71 25 -117t73 -61v203h65l7 -66 q8 33 33.5 52.5t61.5 19.5l-4 -83q-10 5 -22 5t-24 -4t-21.5 -12t-16 -20.5t-6.5 -29.5v-69q31 5 54 22.5t42 51.5z"></glyph><glyph glyph-name="franc" unicode="₣" d="M197 150v-150h-92v150h-73v50h73v50h-73v50h73v181h325v-76h-233v-105h156v-50h-156v-50h156v-50h-156z"></glyph><glyph glyph-name="lira" unicode="₤" d="M217 154v-1q0 -28 -11 -48t-33 -29h167q12 0 23.5 1.5t21 7t17 15t11.5 25.5l67 -36q-10 -44 -43.5 -66.5t-84.5 -22.5h-293v78h29q23 0 35 18t12 45v6.5t-1 6.5h-98v50h84q-4 11 -8.5 22t-9.5 24h-66v50h55q-1 8 -1.5 17t-0.5 20q0 41 15.5 70.5t40.5 48.5t57 28t65 9 q66 0 109.5 -29.5t54.5 -100.5l-83 -17q-7 35 -25 55t-60 20q-40 0 -63.5 -21t-23.5 -66q0 -19 4 -34h153v-50h-139q9 -25 15 -46h124v-50h-116z"></glyph><glyph glyph-name="uni20A6" unicode="₦" d="M556 160v-160h-93l-187 249q-17 22 -30 42t-22 36q-11 18 -19 34h-4q1 -21 2 -46q1 -21 2 -47.5t1 -55.5v-212h-92v160h-77v50h77v44h-77v50h77v177h100l185 -253q32 -46 49 -75q10 -17 16 -30h4q-1 22 -2 47q-1 21 -1.5 47.5t-0.5 54.5v209h92v-177h79v-50h-79v-44h79 v-50h-79z"></glyph><glyph glyph-name="peseta" unicode="₧" d="M86 0v481h169q75 0 123 -21t68 -69h330q7 28 24.5 47.5t41.5 31.5t52.5 17.5t58.5 5.5q76 0 121.5 -30.5t51.5 -99.5l-91 -9q-5 71 -91 71q-38 0 -61.5 -17.5t-23.5 -49.5q0 -28 15 -45t53 -25l68 -14q61 -13 97.5 -49t36.5 -97q0 -38 -14.5 -64.5t-39.5 -43.5t-60 -24.5 t-75 -7.5q-81 0 -129 31t-58 96l83 18q6 -41 35.5 -59.5t74.5 -18.5q42 0 68.5 15t26.5 50q0 30 -15.5 46.5t-59.5 26.5l-74 16q-56 12 -83.5 39.5t-34.5 66.5h-120v-315h-92v315h-102v-1q0 -92 -54 -132.5t-149 -40.5h-80v-141h-91zM177 215h71q61 0 89.5 21t28.5 78 q0 50 -28.5 71.5t-88.5 21.5h-72v-192z"></glyph><glyph glyph-name="uni20A8" unicode="₨" d="M177 253h88q51 0 72.5 18t21.5 58q0 38 -22.5 58t-71.5 20h-88v-154zM277 481q178 0 178 -145q0 -60 -34 -89t-88 -31v-4q19 -3 33 -10t25 -16.5t21.5 -20.5t23.5 -22l59 -49q28 -24 59.5 -32.5t77.5 -8.5q26 0 48 8.5t22 31.5q0 17 -10.5 28.5t-42.5 18.5l-53 11 q-90 21 -90 106q0 30 12 50.5t32 33.5t45.5 18.5t51.5 5.5q59 0 93.5 -23t39.5 -75l-80 -8q-3 22 -17 34t-44 12q-23 0 -37 -10t-14 -31q0 -16 10 -26t38 -16l43 -9q57 -13 81 -41.5t24 -76.5q0 -56 -44.5 -81.5t-119.5 -25.5q-44 0 -77 5t-59.5 14.5t-48.5 25t-44 36.5 l-51 49q-13 12 -25 23.5t-25 20.5t-28.5 14.5t-35.5 5.5h-49v-182h-91v481h191z"></glyph><glyph glyph-name="uni20A9" unicode="₩" d="M684 177l-48 -177h-112l-74 261q-8 28 -12.5 52.5t-6.5 43.5q-3 22 -3 40h-3q0 -18 -3 -40q-2 -19 -6.5 -43.5t-12.5 -52.5l-72 -261h-115l-47 177h-129v51h116l-12 43h-104v51h91l-42 159h94l74 -287q8 -29 12.5 -53t6.5 -42q3 -21 4 -38h3q0 17 4 38q5 37 20 94l76 288 h94l75 -288q8 -29 12.5 -52.5t7.5 -41.5q4 -21 5 -38h3q1 17 4 38q2 17 6 41t11 52l75 289h90l-43 -159h92v-51h-106l-11 -43h117v-51h-131z"></glyph><glyph glyph-name="uni20AA" unicode="₪" d="M395 124v215q0 14 -3 27t-11 22.5t-22 15t-36 5.5h-143v-409h-92v481h251q44 0 72 -11t43.5 -31t21.5 -48t6 -62v-205h-87zM641 481v-329q0 -34 -6 -62t-21.5 -48t-43.5 -31t-73 -11h-252v356h87v-284h146q41 0 56 20t15 49v340h92z"></glyph><glyph glyph-name="Euro" unicode="€" d="M196 162q14 -48 46 -74t80 -26q42 0 68.5 17.5t48.5 58.5l68 -49q-32 -54 -78 -77.5t-114 -23.5q-78 0 -135 43t-76 131h-76v51h69v26v17t1 17h-70v50h78q20 83 78 126.5t140 43.5q71 0 114.5 -29t69.5 -89l-79 -44q-15 42 -41 65t-68 23q-48 0 -79 -25t-45 -71h168 l-10 -50h-167q-1 -8 -1 -15v-15v-15.5t1 -14.5h160l-10 -51h-141z"></glyph><glyph glyph-name="uni20AE" unicode="₮" d="M182 0v139l-108 -18v51l108 18v49l-108 -18v51l108 18v115h-162v76h418v-76h-164v-99l106 18v-51l-106 -18v-49l106 18v-51l-106 -18v-155h-92z"></glyph><glyph glyph-name="uni20B1" unicode="₱" d="M476 280q-10 -74 -62 -106.5t-138 -32.5h-79v-141h-92v280h-75v51h75v150h169q95 0 147 -35.5t57 -114.5h76v-51h-78zM197 331h187q-5 42 -33 60t-83 18h-71v-78zM267 213q51 0 79 14.5t36 52.5h-185v-67h70z"></glyph><glyph glyph-name="afii61289" unicode="ℓ" d="M9 177l66 46v240q0 110 35.5 158t102.5 48q56 0 80.5 -33t24.5 -94q0 -59 -14 -110.5t-37 -95t-51.5 -78.5t-57.5 -60v-58q0 -45 16 -61t51 -16q17 0 31.5 3.5t26.5 8.5l-1 -75q-14 -5 -34 -8.5t-42 -3.5q-29 0 -53.5 6.5t-41.5 21.5t-26.5 39.5t-9.5 59.5v40l-36 -27z M158 273q20 19 38.5 47t33 63.5t23 76.5t8.5 88q0 33 -10.5 48t-33.5 15q-27 0 -43 -31.5t-16 -98.5v-208z"></glyph><glyph glyph-name="afii61352" unicode="№" d="M654 70h297v-70h-297v70zM177 118q0 -70 -31.5 -102t-92.5 -42l-25 83q31 5 43.5 21t12.5 57v454h94l228 -333q14 -20 26 -40t21 -36q11 -19 20 -36h4q-2 19 -3 41q-1 19 -1.5 43.5t-0.5 52.5v178q0 70 31.5 102t92.5 42l25 -83q-32 -5 -44 -21t-12 -57v-442h-92 l-230 332q-14 20 -26.5 40t-21.5 37q-11 19 -20 37h-4q1 -19 3 -41q1 -19 2 -44.5t1 -54.5v-188zM801 153q-67 0 -107 41.5t-40 121.5q0 78 40 118.5t107 40.5q66 0 106 -40.5t40 -118.5q0 -80 -40 -121.5t-106 -41.5zM799 412q-64 0 -64 -97q0 -103 64 -103t64 103 q0 97 -64 97z"></glyph><glyph glyph-name="published" unicode="℗" d="M311 244v-131h-76v372h146q63 0 99.5 -28.5t36.5 -90.5q0 -32 -11 -55t-29.5 -38t-43.5 -22t-53 -7h-69zM311 307h59q39 0 55 14.5t16 42.5q0 58 -71 58h-59v-115zM45 294q0 67 24 123t65.5 97t97.5 64t119 23t119 -23t98 -64t66 -97t24 -123t-24 -123t-66 -96.5 t-98 -63.5t-119 -23t-119 23t-97.5 63.5t-65.5 96.5t-24 123zM76 294q0 -61 21.5 -112t59 -87.5t88 -57t107.5 -20.5t107 20.5t87.5 57t59.5 87.5t22 112t-22 112t-59.5 88t-87.5 57.5t-107 20.5t-107.5 -20.5t-88 -57.5t-59 -88t-21.5 -112z"></glyph><glyph glyph-name="servicemark" unicode="℠" d="M75 413q4 -20 18 -27.5t34 -7.5q40 0 40 28q0 10 -7.5 19t-27.5 14l-35 8q-31 7 -49 25t-18 46q0 22 8.5 36.5t22.5 23.5t32 13t37 4q43 0 68 -15.5t29 -50.5l-57 -7q-2 17 -13.5 24t-28.5 7t-28 -7t-11 -21q0 -11 7 -19.5t28 -13.5l31 -7q34 -7 53 -26t19 -51 q0 -40 -29 -55.5t-73 -15.5q-95 0 -105 64zM492 342v163h-5l-48 -113h-47l-50 113h-5v-163h-56v248h71l62 -134h4l61 134h69v-248h-56z"></glyph><glyph glyph-name="trademark" unicode="™" d="M93 341v200h-73v48h202v-48h-73v-200h-56zM488 341v163h-5l-48 -113h-47l-50 113h-5v-163h-56v248h71l62 -134h4l61 134h69v-248h-56z"></glyph><glyph glyph-name="ohm" unicode="Ω" d="M326 521q-42 0 -73.5 -15.5t-52.5 -43.5t-31.5 -67.5t-10.5 -88.5q0 -43 9.5 -79t25 -64t36 -48t42.5 -31v-84h-210v84h108q-20 11 -39 33t-35 52.5t-25.5 67.5t-9.5 78q0 66 19 119t53.5 90t83.5 57t110 20t110 -20t83.5 -57t53 -90t18.5 -119q0 -41 -9.5 -78t-25 -67.5 t-35 -52.5t-39.5 -33h108v-84h-209v84q22 11 42 31t35.5 48t25 64t9.5 79q0 49 -10.5 88.5t-31.5 67.5t-52 43.5t-73 15.5z"></glyph><glyph glyph-name="estimated" unicode="℮" d="M323 601q73 0 126 -26t87 -69t50 -98.5t16 -113.5v-26h-431v-169q28 -27 66 -42.5t86 -15.5q67 0 112.5 26.5t71.5 77.5h66q-29 -69 -90 -113t-160 -44q-73 0 -125.5 26t-86.5 69t-50 98t-16 113t16 113.5t50 98.5t86.5 69t125.5 26zM323 548q-48 0 -86 -15t-66 -43v-170 h304v170q-28 28 -65.5 43t-86.5 15z"></glyph><glyph glyph-name="uni2153" unicode="⅓" d="M554 590h62l-306 -590h-62zM51 236v56h96v228l-106 -11v58l178 23v-298h86v-56h-254zM696 181q51 -5 74.5 -28.5t23.5 -62.5q0 -47 -37.5 -72t-97.5 -25q-59 0 -93 22.5t-42 58.5l62 25q6 -23 26 -37.5t48 -14.5q27 0 43.5 11t16.5 37q0 27 -22 43t-83 17v48q54 2 75 16 t21 39q0 21 -14 33.5t-38 12.5q-21 0 -37.5 -11.5t-21.5 -34.5l-61 23q9 36 41.5 58t84.5 22q23 0 44.5 -5t37.5 -16.5t25.5 -29t9.5 -41.5q0 -33 -19.5 -56t-66.5 -29v-3z"></glyph><glyph glyph-name="uni2154" unicode="⅔" d="M554 590h62l-306 -590h-62zM315 236h-266v52q43 30 75.5 54.5t54.5 47t33.5 44.5t11.5 47q0 26 -14 39.5t-40 13.5q-30 0 -44.5 -19.5t-15.5 -48.5l-60 27q0 19 9 37.5t25.5 33.5t40.5 24t56 9q24 0 45 -6.5t37.5 -20t26 -34t9.5 -48.5q0 -38 -16.5 -68t-41 -53 t-52.5 -40.5t-50 -29.5v-4h176v-57zM696 181q51 -5 74.5 -28.5t23.5 -62.5q0 -47 -37.5 -72t-97.5 -25q-59 0 -93 22.5t-42 58.5l62 25q6 -23 26 -37.5t48 -14.5q27 0 43.5 11t16.5 37q0 27 -22 43t-83 17v48q54 2 75 16t21 39q0 21 -14 33.5t-38 12.5q-21 0 -37.5 -11.5 t-21.5 -34.5l-61 23q9 36 41.5 58t84.5 22q23 0 44.5 -5t37.5 -16.5t25.5 -29t9.5 -41.5q0 -33 -19.5 -56t-66.5 -29v-3z"></glyph><glyph glyph-name="uni215B" unicode="⅛" d="M554 590h62l-306 -590h-62zM51 236v56h96v228l-106 -11v58l178 23v-298h86v-56h-254zM688 153q-25 0 -45 -13t-20 -41q0 -26 17.5 -40.5t47.5 -14.5t47.5 14.5t17.5 40.5q0 28 -19.5 41t-45.5 13zM688 -7q-60 0 -98.5 25t-38.5 73q0 34 21 56.5t56 28.5v4 q-34 5 -51.5 27.5t-17.5 52.5q0 48 36 74.5t93 26.5q58 0 93.5 -26.5t35.5 -74.5q0 -30 -17.5 -52.5t-51.5 -27.5v-4q35 -6 56 -28.5t21 -56.5q0 -48 -38 -73t-99 -25zM688 309q-28 0 -46 -14t-18 -37q0 -25 20 -37.5t44 -12.5t44 12.5t20 37.5q0 23 -18 37t-46 14z"></glyph><glyph glyph-name="uni215C" unicode="⅜" d="M554 590h62l-306 -590h-62zM211 417q51 -5 74.5 -28.5t23.5 -62.5q0 -47 -37.5 -72t-97.5 -25q-59 0 -93 22.5t-42 58.5l62 25q6 -23 26 -37.5t48 -14.5q27 0 43.5 11t16.5 37q0 27 -22 43t-83 17v48q54 2 75 16t21 39q0 21 -14 33.5t-38 12.5q-21 0 -37.5 -11.5 t-21.5 -34.5l-61 23q9 36 41.5 58t84.5 22q23 0 44.5 -5t37.5 -16.5t25.5 -29t9.5 -41.5q0 -33 -19.5 -56t-66.5 -29v-3zM688 153q-25 0 -45 -13t-20 -41q0 -26 17.5 -40.5t47.5 -14.5t47.5 14.5t17.5 40.5q0 28 -19.5 41t-45.5 13zM688 -7q-60 0 -98.5 25t-38.5 73 q0 34 21 56.5t56 28.5v4q-34 5 -51.5 27.5t-17.5 52.5q0 48 36 74.5t93 26.5q58 0 93.5 -26.5t35.5 -74.5q0 -30 -17.5 -52.5t-51.5 -27.5v-4q35 -6 56 -28.5t21 -56.5q0 -48 -38 -73t-99 -25zM688 309q-28 0 -46 -14t-18 -37q0 -25 20 -37.5t44 -12.5t44 12.5t20 37.5 q0 23 -18 37t-46 14z"></glyph><glyph glyph-name="uni215D" unicode="⅝" d="M554 590h62l-306 -590h-62zM81 589h210v-59h-154l-5 -93q22 28 71 28q46 0 75.5 -28t29.5 -82q0 -63 -38 -94.5t-104 -31.5q-54 0 -87.5 23t-38.5 61l62 27q5 -29 23.5 -43t45.5 -14q30 0 48.5 16t18.5 51q0 32 -15 48t-41 16q-20 0 -32 -6.5t-20 -16.5h-58zM688 153 q-25 0 -45 -13t-20 -41q0 -26 17.5 -40.5t47.5 -14.5t47.5 14.5t17.5 40.5q0 28 -19.5 41t-45.5 13zM688 -7q-60 0 -98.5 25t-38.5 73q0 34 21 56.5t56 28.5v4q-34 5 -51.5 27.5t-17.5 52.5q0 48 36 74.5t93 26.5q58 0 93.5 -26.5t35.5 -74.5q0 -30 -17.5 -52.5t-51.5 -27.5 v-4q35 -6 56 -28.5t21 -56.5q0 -48 -38 -73t-99 -25zM688 309q-28 0 -46 -14t-18 -37q0 -25 20 -37.5t44 -12.5t44 12.5t20 37.5q0 23 -18 37t-46 14z"></glyph><glyph glyph-name="uni215E" unicode="⅞" d="M103 528v-53h-62v114h268v-40l-141 -313h-73l135 292h-127zM499 590h62l-306 -590h-62zM633 153q-25 0 -45 -13t-20 -41q0 -26 17.5 -40.5t47.5 -14.5t47.5 14.5t17.5 40.5q0 28 -19.5 41t-45.5 13zM633 -7q-60 0 -98.5 25t-38.5 73q0 34 21 56.5t56 28.5v4 q-34 5 -51.5 27.5t-17.5 52.5q0 48 36 74.5t93 26.5q58 0 93.5 -26.5t35.5 -74.5q0 -30 -17.5 -52.5t-51.5 -27.5v-4q35 -6 56 -28.5t21 -56.5q0 -48 -38 -73t-99 -25zM633 309q-28 0 -46 -14t-18 -37q0 -25 20 -37.5t44 -12.5t44 12.5t20 37.5q0 23 -18 37t-46 14z"></glyph><glyph glyph-name="arrowleft" unicode="←" d="M627 336v-82h-459l205 -209l-60 -57l-293 305l292 308l62 -56l-204 -209h457z"></glyph><glyph glyph-name="arrowup" unicode="↑" d="M384 0h-82v453l-209 -206l-57 61l305 293l308 -292l-57 -62l-208 204v-451z"></glyph><glyph glyph-name="arrowright" unicode="→" d="M477 336l-201 209l62 56l289 -308l-288 -305l-61 57l202 209h-460v82h457z"></glyph><glyph glyph-name="arrowdown" unicode="↓" d="M301 589h82v-453l209 206l57 -60l-305 -294l-308 293l57 62l208 -204v450z"></glyph><glyph glyph-name="uni2196" unicode="↖" d="M158 452v-353h-79v490h470v-77h-334l450 -453l-58 -59z"></glyph><glyph glyph-name="uni2197" unicode="↗" d="M76 0l-58 59l450 453h-333v77h469v-490h-79v353z"></glyph><glyph glyph-name="uni2198" unicode="↘" d="M525 138v352h79v-490h-469v77h333l-450 453l58 59z"></glyph><glyph glyph-name="uni2199" unicode="↙" d="M607 589l58 -59l-450 -453h334v-77h-470v490h79v-352z"></glyph><glyph glyph-name="partialdiff" unicode="∂" d="M201 674q63 -27 113 -71t84.5 -98t53 -115.5t18.5 -125.5q0 -71 -15 -122.5t-43 -84.5t-66.5 -48.5t-86.5 -15.5q-96 0 -153.5 62t-57.5 178q0 58 15 101.5t41 72.5t61 43.5t74 14.5q45 0 74.5 -17.5t50.5 -44.5q-30 69 -84.5 123.5t-139.5 96.5zM380 231q0 78 -32 118.5 t-92 40.5t-89 -40.5t-29 -118.5t30 -121t90 -43q63 0 92.5 43t29.5 121z"></glyph><glyph glyph-name="Delta" unicode="∆" d="M10 0l215 589h121l213 -589h-549zM331 369q-13 35 -21.5 62.5t-14.5 47.5q-7 23 -11 42h-4q-5 -18 -11 -41q-5 -20 -13.5 -47.5t-20.5 -62.5l-102 -292l300 -1z"></glyph><glyph glyph-name="product" unicode="∏" d="M79 -202v791h465v-791h-92v706h-282v-706h-91z"></glyph><glyph glyph-name="summation" unicode="∑" d="M252 509h-40.5t-29.5 1q-14 1 -25 2v-4q7 -6 18 -17l20 -22.5t26 -30.5l111 -143l-117 -144q-14 -17 -25.5 -30t-20.5 -22q-11 -11 -19 -18v-4q11 0 25 1q12 1 29.5 1.5t40.5 0.5h157v-80h-402l223 296l-223 293h402v-80h-150z"></glyph><glyph glyph-name="minus" unicode="−" d="M45 221v54h408v-54h-408z"></glyph><glyph glyph-name="radical" unicode="√" d="M327 101h3l153 583l84 -9l-188 -675h-92l-142 346l-93 -49l-34 69l175 97z"></glyph><glyph glyph-name="infinity" unicode="∞" d="M127 248q0 -55 29 -83t68 -28q33 0 58 11.5t51 38.5l55 61l-55 61q-25 27 -50.5 38.5t-58.5 11.5q-39 0 -68 -28t-29 -83zM383 145q-33 -37 -70.5 -57.5t-90.5 -20.5q-37 0 -68.5 12t-55 35.5t-36.5 57t-13 76.5t13 76.5t36.5 56.5t55 35.5t68.5 12.5q53 0 90.5 -20 t70.5 -58l49 -54l49 54q34 37 71 57.5t90 20.5q37 0 68.5 -12.5t54.5 -35.5t36.5 -56.5t13.5 -76.5t-13.5 -76.5t-36.5 -57t-54.5 -35.5t-68.5 -12q-53 0 -90.5 20t-70.5 58l-49 54zM737 248q0 55 -29 83t-68 28q-33 0 -58.5 -11.5t-50.5 -38.5l-55 -61l55 -61 q25 -27 50.5 -38.5t58.5 -11.5q39 0 68 28t29 83z"></glyph><glyph glyph-name="integral" unicode="∫" d="M89 515q0 44 14 74t36.5 48t52 26t59.5 8q25 0 48.5 -4t44.5 -12l-17 -82q-18 10 -37 15.5t-36 5.5q-32 0 -53 -20t-21 -70v-552q0 -44 -14 -74t-36.5 -48t-52 -26t-59.5 -8q-50 0 -92 17l17 81q17 -10 36 -15.5t37 -5.5q31 0 52 20t21 70v552z"></glyph><glyph glyph-name="approxequal" unicode="≈" d="M361 252q-28 0 -56 7.5t-56 16.5t-55.5 16.5t-52.5 7.5q-55 0 -96 -47v55q19 25 44.5 35t50.5 10q27 0 55 -7.5t56.5 -16t56.5 -16t54 -7.5q22 0 46.5 11t44.5 34v-63q-33 -36 -92 -36zM361 134q-28 0 -56 7.5t-56 17t-55.5 17t-52.5 7.5q-54 0 -96 -49v57q19 23 44.5 34 t50.5 11q27 0 55 -7.5t56.5 -17t56.5 -17t54 -7.5q22 0 46.5 11.5t44.5 34.5v-63q-33 -36 -92 -36z"></glyph><glyph glyph-name="notequal" unicode="≠" d="M326 285l-65 -78h192v-53h-236l-103 -125l-41 34l75 91h-103v53h146l65 78h-211v53h254l94 113l42 -34l-67 -79h85v-53h-127z"></glyph><glyph glyph-name="lessequal" unicode="≤" d="M144 292l203 -148l-39 -46l-259 193l261 192l36 -45zM45 21v53h315v-53h-315z"></glyph><glyph glyph-name="greaterequal" unicode="≥" d="M59 438l37 45l259 -192l-258 -193l-39 46l203 148zM45 21v53h315v-53h-315z"></glyph><glyph glyph-name="blacksquare" unicode="■" d="M83 589h589v-589h-589v589z"></glyph><glyph glyph-name="whitesquare" unicode="□" d="M83 589h589v-589h-589v589zM126 43h503v503h-503v-503z"></glyph><glyph glyph-name="blacksmallsquare" unicode="▪" d="M83 464h326v-325h-326v325z"></glyph><glyph glyph-name="whitesmallsquare" unicode="▫" d="M83 464h326v-325h-326v325zM126 182h240v239h-240v-239z"></glyph><glyph glyph-name="triagup" unicode="▲" d="M285 601l246 -601h-491z"></glyph><glyph glyph-name="triagrt" unicode="►" d="M684 291l-601 -246v491z"></glyph><glyph glyph-name="triagdn" unicode="▼" d="M40 589h491l-246 -601z"></glyph><glyph glyph-name="triaglf" unicode="◄" d="M601 536v-491l-601 246z"></glyph><glyph glyph-name="lozenge" unicode="◊" d="M287 -33h-66l-173 336l173 328h66l174 -328zM256 546l-125 -244l125 -253l124 253z"></glyph><glyph glyph-name="circle" unicode="○" d="M44 295q0 45 17 84.5t46 69t68.5 46.5t84.5 17t84.5 -17t69.5 -46.5t47 -69t17 -84.5t-17 -84.5t-47 -68.5t-69.5 -46t-84.5 -17t-84.5 17t-68.5 46t-46 68.5t-17 84.5zM89 294q0 -36 13.5 -67.5t37 -55.5t54.5 -37.5t67 -13.5t67.5 13.5t55 37.5t37 55.5t13.5 67.5 t-13.5 68t-37 56t-55 38t-67.5 14t-67 -14t-54.5 -38t-37 -56t-13.5 -68z"></glyph><glyph glyph-name="blackcircle" unicode="●" d="M44 294q0 63 24 119t65.5 98t97.5 66t119 24t119 -24t98 -66t66 -98t24 -119t-24 -119t-66 -97.5t-98 -65.5t-119 -24t-119 24t-97.5 65.5t-65.5 97.5t-24 119z"></glyph><glyph glyph-name="whitecircle" unicode="◯" d="M44 294q0 63 24 119t65.5 98t97.5 66t119 24t119 -24t98 -66t66 -98t24 -119t-24 -119t-66 -97.5t-98 -65.5t-119 -24t-119 24t-97.5 65.5t-65.5 97.5t-24 119zM88 293q0 -55 20.5 -103t56 -84t83.5 -57t102 -21t101.5 21t83.5 57t56.5 84t20.5 103t-20.5 103.5t-56.5 85 t-83.5 57.5t-101.5 21t-102 -21t-83.5 -57.5t-56 -85t-20.5 -103.5z"></glyph><glyph glyph-name="anglebracketleft" unicode="〈" d="M202 -203l-153 441l153 430h86l-150 -433l150 -438h-86z"></glyph><glyph glyph-name="anglebracketright" unicode="〉" d="M40 -203l150 438l-150 433h86l153 -430l-153 -441h-86z"></glyph><glyph glyph-name="lcedilla" unicode="" d="M252 -124q0 -45 -30.5 -66t-74.5 -21q-62 0 -90 38l24 51q25 -36 63 -36q17 0 26.5 8.5t9.5 25.5q0 19 -15.5 30t-50.5 12l6 84q-24 11 -39 33t-15 57v576h90v-557q0 -22 11.5 -31.5t29.5 -9.5q10 0 17 1.5t15 3.5l-1 -75q-18 -5 -31 -6.5t-25 -1.5h-6l-2 -33 q47 -4 67.5 -25.5t20.5 -57.5z"></glyph><glyph glyph-name="uni004500600323" unicode="" d="M446 0h-363v589h363v-80h-271v-174h240v-80h-240v-175h271v-80zM220 653l63 123h120l-101 -123h-82zM203 -139q0 26 17.5 43t42.5 17q26 0 44 -17t18 -43t-18 -43t-44 -17q-25 0 -42.5 17t-17.5 43z"></glyph><glyph glyph-name="uni006500600323" unicode="" d="M253 59q38 0 63.5 16.5t37.5 58.5l79 -21q-7 -35 -24.5 -59t-42 -38.5t-55 -21t-63.5 -6.5q-46 0 -84 15.5t-65 46t-42 75t-15 102.5q0 117 57 181.5t154 64.5q45 0 79 -14.5t57 -41t35 -62.5t12 -79q0 -20 -2.5 -36.5t-6.5 -27.5h-298q3 -68 34 -110.5t90 -42.5z M347 277q1 5 1 9.5v9.5q0 45 -26.5 75.5t-73.5 30.5q-50 0 -80 -32.5t-37 -92.5h216zM204 529l74 146h121l-116 -146h-79zM190 -139q0 26 17.5 43t42.5 17q26 0 44 -17t18 -43t-18 -43t-44 -17q-25 0 -42.5 17t-17.5 43z"></glyph><glyph glyph-name="uni004500B40323" unicode="" d="M446 0h-363v589h363v-80h-271v-174h240v-80h-240v-175h271v-80zM228 653l-100 123h120l63 -123h-83zM203 -139q0 26 17.5 43t42.5 17q26 0 44 -17t18 -43t-18 -43t-44 -17q-25 0 -42.5 17t-17.5 43z"></glyph><glyph glyph-name="uni006500B40323" unicode="" d="M253 59q38 0 63.5 16.5t37.5 58.5l79 -21q-7 -35 -24.5 -59t-42 -38.5t-55 -21t-63.5 -6.5q-46 0 -84 15.5t-65 46t-42 75t-15 102.5q0 117 57 181.5t154 64.5q45 0 79 -14.5t57 -41t35 -62.5t12 -79q0 -20 -2.5 -36.5t-6.5 -27.5h-298q3 -68 34 -110.5t90 -42.5z M347 277q1 5 1 9.5v9.5q0 45 -26.5 75.5t-73.5 30.5q-50 0 -80 -32.5t-37 -92.5h216zM218 529l-115 146h121l74 -146h-80zM190 -139q0 26 17.5 43t42.5 17q26 0 44 -17t18 -43t-18 -43t-44 -17q-25 0 -42.5 17t-17.5 43z"></glyph><glyph glyph-name="Gtilde" unicode="" d="M547 304v-304h-73l-12 76q-9 -22 -26 -38.5t-38.5 -27.5t-47 -16.5t-50.5 -5.5q-57 0 -104 19.5t-80.5 58t-52.5 95t-19 131.5q0 74 20 131.5t56 97t86.5 60t112.5 20.5q166 0 221 -142l-86 -42q-18 54 -55 79.5t-85 25.5q-39 0 -71 -15t-55 -44t-35.5 -72t-12.5 -99 q0 -50 10 -92t31 -72t53 -47t75 -17q30 0 56.5 7t46.5 21.5t32 36t12 51.5v44h-143v80h234zM389 653q-23 0 -38 7t-34 17q-20 11 -32.5 18t-27.5 7q-16 0 -24.5 -10.5t-5.5 -36.5h-55q-9 24 -8 46.5t11 40.5t28.5 28.5t42.5 10.5q26 0 43 -7.5t36 -18.5q20 -13 31 -18.5 t24 -5.5q14 0 22.5 11t6.5 38h57q9 -26 8 -49.5t-11 -40.5t-28.5 -27t-45.5 -10z"></glyph><glyph glyph-name="gtilde" unicode="" d="M229 473q84 0 134 -37q17 9 23.5 26.5t11.5 43.5l78 -27q-5 -33 -26.5 -54.5t-50.5 -28.5q21 -36 21 -87q0 -40 -15 -70t-41 -50t-60.5 -30t-73.5 -10q-17 0 -33.5 2t-26.5 6q-17 -9 -24 -21t-7 -27q0 -38 49 -38h113q79 0 120 -33t41 -96q0 -45 -22 -75t-58 -47t-81 -24 t-90 -7q-38 0 -74.5 5.5t-65 19.5t-45.5 37t-17 59q0 45 31 73t88 33q-32 4 -48 24t-16 48t15.5 49.5t52.5 31.5q-42 19 -66 54t-24 86q0 39 13.5 69.5t38.5 51.5t59 32t76 11zM94 -80q0 -37 35.5 -52t90.5 -15q70 0 112.5 16t42.5 60q0 26 -16.5 43.5t-61.5 17.5h-100 q-50 0 -76.5 -17t-26.5 -53zM132 310q0 -44 25 -70.5t72 -26.5q46 0 73.5 24t27.5 73t-27.5 73.5t-73.5 23.5q-46 0 -71.5 -25t-25.5 -72zM308 529q-23 0 -38 6.5t-34 16.5q-20 12 -32.5 18.5t-27.5 6.5q-16 0 -24.5 -10.5t-5.5 -36.5h-55q-9 24 -8 46.5t11 40t28.5 27.5 t42.5 10q26 0 43 -8t36 -19q20 -12 31 -17.5t24 -5.5q14 0 22.5 10.5t6.5 38.5h57q18 -53 -2.5 -88.5t-74.5 -35.5z"></glyph><glyph glyph-name="Gcommaturnedabove" unicode="" d="M547 304v-304h-73l-12 76q-9 -22 -26 -38.5t-38.5 -27.5t-47 -16.5t-50.5 -5.5q-57 0 -104 19.5t-80.5 58t-52.5 95t-19 131.5q0 74 20 131.5t56 97t86.5 60t112.5 20.5q166 0 221 -142l-86 -42q-18 54 -55 79.5t-85 25.5q-39 0 -71 -15t-55 -44t-35.5 -72t-12.5 -99 q0 -50 10 -92t31 -72t53 -47t75 -17q30 0 56.5 7t46.5 21.5t32 36t12 51.5v44h-143v80h234zM243 727q0 57 31 81t90 24v-37q-29 -2 -44.5 -10.5t-15.5 -32.5q27 5 44 -8.5t17 -38.5q0 -26 -16 -39.5t-41 -13.5q-26 0 -45.5 20t-19.5 55z"></glyph><glyph glyph-name="gcommaturnedabove" unicode="" d="M229 473q84 0 134 -37q17 9 23.5 26.5t11.5 43.5l78 -27q-5 -33 -26.5 -54.5t-50.5 -28.5q21 -36 21 -87q0 -40 -15 -70t-41 -50t-60.5 -30t-73.5 -10q-17 0 -33.5 2t-26.5 6q-17 -9 -24 -21t-7 -27q0 -38 49 -38h113q79 0 120 -33t41 -96q0 -45 -22 -75t-58 -47t-81 -24 t-90 -7q-38 0 -74.5 5.5t-65 19.5t-45.5 37t-17 59q0 45 31 73t88 33q-32 4 -48 24t-16 48t15.5 49.5t52.5 31.5q-42 19 -66 54t-24 86q0 39 13.5 69.5t38.5 51.5t59 32t76 11zM94 -80q0 -37 35.5 -52t90.5 -15q70 0 112.5 16t42.5 60q0 26 -16.5 43.5t-61.5 17.5h-100 q-50 0 -76.5 -17t-26.5 -53zM132 310q0 -44 25 -70.5t72 -26.5q46 0 73.5 24t27.5 73t-27.5 73.5t-73.5 23.5q-46 0 -71.5 -25t-25.5 -72zM166 606q0 57 31 81t90 24v-37q-29 -2 -44.5 -10.5t-15.5 -32.5q27 5 44 -8.5t17 -38.5q0 -26 -16 -39.5t-41 -13.5q-26 0 -45.5 20 t-19.5 55z"></glyph><glyph glyph-name="Hmacronbelow" unicode="" d="M83 0v589h92v-250h281v250h92v-589h-92v259h-281v-259h-92zM185 -183v73h262v-73h-262z"></glyph><glyph glyph-name="hmacronbelow" unicode="" d="M162 374q33 99 140 99q28 0 53.5 -8t45 -25.5t30.5 -44.5t11 -65v-330h-90v304q0 42 -19.5 66.5t-61.5 24.5q-21 0 -40.5 -6t-35 -21t-24.5 -40t-9 -63v-265h-90v668h90v-294zM127 -183v73h262v-73h-262z"></glyph><glyph glyph-name="Jcaron" unicode="" d="M373 589v-418q0 -51 -15.5 -86t-41 -56.5t-59 -31t-70.5 -9.5q-74 0 -118.5 32.5t-68.5 82.5l72 54q23 -51 48.5 -71.5t67.5 -20.5q28 0 46 9t28 25.5t14 40t4 52.5v397h93zM298 649l-124 129h96l32 -33q15 -16 19 -25q3 -5 4 -9h3q1 4 4 9q2 5 6.5 11t12.5 14l31 33h97 l-125 -129h-56z"></glyph><glyph glyph-name="Kcedilla" unicode="" d="M406 0l-185 259h-46v-259h-92v589h92v-250h49l172 250h108l-205 -286l220 -303h-113zM356 -124q0 -45 -30.5 -66t-74.5 -21q-62 0 -90 38l24 51q25 -36 63 -36q17 0 26.5 8.5t9.5 25.5q0 19 -15.5 30t-50.5 12l7 90h46l-3 -49q47 -4 67.5 -25.5t20.5 -57.5z"></glyph><glyph glyph-name="kcedilla" unicode="" d="M462 0h-111l-161 207h-28v-207h-90v668h90v-391h23l153 185h109l-186 -215zM342 -124q0 -45 -30.5 -66t-74.5 -21q-62 0 -90 38l24 51q25 -36 63 -36q17 0 26.5 8.5t9.5 25.5q0 19 -15.5 30t-50.5 12l7 90h46l-3 -49q47 -4 67.5 -25.5t20.5 -57.5z"></glyph><glyph glyph-name="Lcedilla" unicode="" d="M357 -124q0 -45 -30.5 -66t-74.5 -21q-62 0 -90 38l24 51q25 -36 63 -36q17 0 26.5 8.5t9.5 25.5q0 19 -15.5 30t-50.5 12l6 82h-142v589h92v-509h264v-80h-168l-2 -41q47 -4 67.5 -25.5t20.5 -57.5z"></glyph><glyph glyph-name="ocedilla" unicode="" d="M357 -124q0 -45 -30.5 -66t-74.5 -21q-62 0 -90 38l24 51q25 -36 63 -36q17 0 26.5 8.5t9.5 25.5q0 19 -15.5 30t-50.5 12l5 72q-84 8 -133 70.5t-49 173.5q0 118 57 178.5t153 60.5t153.5 -60.5t57.5 -178.5q0 -113 -52 -176t-140 -69l-2 -30q47 -4 67.5 -25.5 t20.5 -57.5zM252 400q-121 0 -121 -167q0 -174 121 -174q122 0 122 174q0 167 -122 167z"></glyph><glyph glyph-name="Mmacron" unicode="" d="M329 144l-111 204q-13 24 -21.5 42.5t-13.5 31.5q-6 15 -9 27h-4q1 -11 2 -27q1 -14 2 -33.5t1 -45.5v-343h-92v589h107l140 -272q8 -17 14 -30.5l10 -22.5q4 -11 6 -19h4q2 8 6 19q6 19 24 53l139 272h103v-589h-93v343q0 52 3 79q1 16 3 27h-4q-3 -12 -9 -27 q-11 -28 -36 -74l-110 -204h-61zM228 674v71h264v-71h-264z"></glyph><glyph glyph-name="mmacron" unicode="" d="M424 371q9 28 24 47.5t34 31.5t41.5 17.5t45.5 5.5q29 0 54 -8t43.5 -25t29 -43.5t10.5 -62.5v-334h-90v304q0 43 -19 67t-58 24q-20 0 -39 -7t-33.5 -23t-23.5 -40.5t-9 -59.5v-265h-90v304q0 43 -19 67t-58 24q-20 0 -38.5 -7.5t-33.5 -23t-24 -40.5t-9 -59v-265h-90 v462h71l11 -89q18 53 57.5 76.5t86.5 23.5q50 0 83.5 -23.5t42.5 -78.5zM259 558v73h262v-73h-262z"></glyph><glyph glyph-name="Mcedilla" unicode="" d="M329 144l-111 204q-13 24 -21.5 42.5t-13.5 31.5q-6 15 -9 27h-4q1 -11 2 -27q1 -14 2 -33.5t1 -45.5v-343h-92v589h107l140 -272q8 -17 14 -30.5l10 -22.5q4 -11 6 -19h4q2 8 6 19q6 19 24 53l139 272h103v-589h-93v343q0 52 3 79q1 16 3 27h-4q-3 -12 -9 -27 q-11 -28 -36 -74l-110 -204h-61zM456 -124q0 -45 -30.5 -66t-74.5 -21q-62 0 -90 38l24 51q25 -36 63 -36q17 0 26.5 8.5t9.5 25.5q0 19 -15.5 30t-50.5 12l7 90h46l-3 -49q47 -4 67.5 -25.5t20.5 -57.5z"></glyph><glyph glyph-name="mcedilla" unicode="" d="M495 -124q0 -45 -30.5 -66t-74.5 -21q-62 0 -90 38l24 51q25 -36 63 -36q17 0 26.5 8.5t9.5 25.5q0 19 -15.5 30t-50.5 12l6 82h-19v304q0 43 -19 67t-58 24q-20 0 -38.5 -7.5t-33.5 -23t-24 -40.5t-9 -59v-265h-90v462h71l11 -89q18 53 57.5 76.5t86.5 23.5 q50 0 83.5 -23.5t42.5 -78.5q9 28 24 47.5t34 31.5t41.5 17.5t45.5 5.5q29 0 54 -8t43.5 -25t29 -43.5t10.5 -62.5v-334h-90v304q0 43 -19 67t-58 24q-20 0 -39 -7t-33.5 -23t-23.5 -40.5t-9 -59.5v-265h-25l-2 -41q47 -4 67.5 -25.5t20.5 -57.5z"></glyph><glyph glyph-name="Ndieresis" unicode="" d="M409 252q13 -20 25.5 -40t21.5 -36q11 -19 20 -36h4q-2 19 -3 41q-1 19 -1.5 43.5t-0.5 52.5v312h92v-589h-91l-235 336q-14 20 -26.5 40t-21.5 37q-11 19 -20 37h-4q1 -19 3 -41q1 -19 2 -44t1 -54v-311h-92v589h94zM167 713q0 26 17.5 43t41.5 17q25 0 42.5 -17 t17.5 -43t-17.5 -42.5t-42.5 -16.5q-24 0 -41.5 16.5t-17.5 42.5zM363 712q0 26 17.5 43t41.5 17q26 0 43 -17t17 -43q0 -25 -17 -42t-43 -17q-24 0 -41.5 17t-17.5 42z"></glyph><glyph glyph-name="ndieresis" unicode="" d="M154 373q19 52 57 76t91 24q28 0 53.5 -8t45 -25.5t30.5 -44.5t11 -65v-330h-90v303q0 43 -19.5 67.5t-61.5 24.5q-21 0 -40.5 -6.5t-35 -21.5t-24.5 -40t-9 -62v-265h-90v462h71zM104 595q0 26 17.5 43t41.5 17q25 0 42.5 -17t17.5 -43t-17.5 -42.5t-42.5 -16.5 q-24 0 -41.5 16.5t-17.5 42.5zM300 594q0 26 17.5 43t41.5 17q26 0 43 -17t17 -43q0 -25 -17 -42t-43 -17q-24 0 -41.5 17t-17.5 42z"></glyph><glyph glyph-name="Nmacron" unicode="" d="M409 252q13 -20 25.5 -40t21.5 -36q11 -19 20 -36h4q-2 19 -3 41q-1 19 -1.5 43.5t-0.5 52.5v312h92v-589h-91l-235 336q-14 20 -26.5 40t-21.5 37q-11 19 -20 37h-4q1 -19 3 -41q1 -19 2 -44t1 -54v-311h-92v589h94zM194 674v71h264v-71h-264z"></glyph><glyph glyph-name="nmacron" unicode="" d="M154 373q19 52 57 76t91 24q28 0 53.5 -8t45 -25.5t30.5 -44.5t11 -65v-330h-90v303q0 43 -19.5 67.5t-61.5 24.5q-21 0 -40.5 -6.5t-35 -21.5t-24.5 -40t-9 -62v-265h-90v462h71zM132 558v73h262v-73h-262z"></glyph><glyph glyph-name="Ncedilla" unicode="" d="M409 252q13 -20 25.5 -40t21.5 -36q11 -19 20 -36h4q-2 19 -3 41q-1 19 -1.5 43.5t-0.5 52.5v312h92v-589h-91l-235 336q-14 20 -26.5 40t-21.5 37q-11 19 -20 37h-4q1 -19 3 -41q1 -19 2 -44t1 -54v-311h-92v589h94zM422 -124q0 -45 -30.5 -66t-74.5 -21q-62 0 -90 38 l24 51q25 -36 63 -36q17 0 26.5 8.5t9.5 25.5q0 19 -15.5 30t-50.5 12l7 90h46l-3 -49q47 -4 67.5 -25.5t20.5 -57.5z"></glyph><glyph glyph-name="ncedilla" unicode="" d="M154 373q19 52 57 76t91 24q28 0 53.5 -8t45 -25.5t30.5 -44.5t11 -65v-330h-90v303q0 43 -19.5 67.5t-61.5 24.5q-21 0 -40.5 -6.5t-35 -21.5t-24.5 -40t-9 -62v-265h-90v462h71zM359 -124q0 -45 -30.5 -66t-74.5 -21q-62 0 -90 38l24 51q25 -36 63 -36q17 0 26.5 8.5 t9.5 25.5q0 19 -15.5 30t-50.5 12l7 90h46l-3 -49q47 -4 67.5 -25.5t20.5 -57.5z"></glyph><glyph glyph-name="Ocommaturnedabove" unicode="" d="M310 -12q-61 0 -110 20t-83.5 59t-53.5 96t-19 131t19 131t53.5 96t83.5 59.5t110 20.5t110 -20.5t83.5 -59.5t53 -96t18.5 -131t-18.5 -131t-53 -96t-83.5 -59t-110 -20zM310 520q-84 0 -126.5 -60t-42.5 -166t42.5 -166t126.5 -60t126 60t42 166t-42.5 166t-125.5 60z M246 727q0 57 31 81t90 24v-37q-29 -2 -44.5 -10.5t-15.5 -32.5q27 5 44 -8.5t17 -38.5q0 -26 -16 -39.5t-41 -13.5q-26 0 -45.5 20t-19.5 55z"></glyph><glyph glyph-name="ocommaturnedabove" unicode="" d="M252 -12q-48 0 -86.5 16t-66 47.5t-42.5 77.5t-15 105q0 118 57 178.5t153 60.5t153.5 -60.5t57.5 -178.5q0 -119 -57.5 -182.5t-153.5 -63.5zM252 400q-121 0 -121 -167q0 -174 121 -174q122 0 122 174q0 167 -122 167zM192 607q0 57 31 81t90 24v-37 q-29 -2 -44.5 -10.5t-15.5 -32.5q27 5 44 -8.5t17 -38.5q0 -26 -16 -39.5t-41 -13.5q-26 0 -45.5 20t-19.5 55z"></glyph><glyph glyph-name="uni004F02D900AF" unicode="" d="M310 -12q-61 0 -110 20t-83.5 59t-53.5 96t-19 131t19 131t53.5 96t83.5 59.5t110 20.5t110 -20.5t83.5 -59.5t53 -96t18.5 -131t-18.5 -131t-53 -96t-83.5 -59t-110 -20zM310 520q-84 0 -126.5 -60t-42.5 -166t42.5 -166t126.5 -60t126 60t42 166t-42.5 166t-125.5 60z M249 703q0 27 17.5 43.5t42.5 16.5q26 0 44 -16.5t18 -43.5q0 -26 -18 -43t-44 -17q-25 0 -42.5 17t-17.5 43zM178 801v71h264v-71h-264z"></glyph><glyph glyph-name="Ocedilla" unicode="" d="M406 -124q0 -45 -30.5 -66t-74.5 -21q-62 0 -90 38l24 51q25 -36 63 -36q17 0 26.5 8.5t9.5 25.5q0 19 -15.5 30t-50.5 12l5 72q-106 11 -167.5 89.5t-61.5 214.5q0 74 19 131t53.5 96t83.5 59.5t110 20.5t110 -20.5t83.5 -59.5t53 -96t18.5 -131q0 -72 -18 -128t-51 -95 t-80.5 -60t-105.5 -23l-2 -29q47 -4 67.5 -25.5t20.5 -57.5zM310 520q-84 0 -126.5 -60t-42.5 -166t42.5 -166t126.5 -60t126 60t42 166t-42.5 166t-125.5 60z"></glyph><glyph glyph-name="Ounderlineaccent" unicode="" d="M310 -12q-61 0 -110 20t-83.5 59t-53.5 96t-19 131t19 131t53.5 96t83.5 59.5t110 20.5t110 -20.5t83.5 -59.5t53 -96t18.5 -131t-18.5 -131t-53 -96t-83.5 -59t-110 -20zM310 520q-84 0 -126.5 -60t-42.5 -166t42.5 -166t126.5 -60t126 60t42 166t-42.5 166t-125.5 60z M275 -203v150h70v-150h-70z"></glyph><glyph glyph-name="ounderlineaccent" unicode="" d="M252 -12q-48 0 -86.5 16t-66 47.5t-42.5 77.5t-15 105q0 118 57 178.5t153 60.5t153.5 -60.5t57.5 -178.5q0 -119 -57.5 -182.5t-153.5 -63.5zM252 400q-121 0 -121 -167q0 -174 121 -174q122 0 122 174q0 167 -122 167zM217 -203v150h70v-150h-70z"></glyph><glyph glyph-name="Pmacron" unicode="" d="M175 292h85q65 0 89.5 30.5t24.5 80.5q0 109 -115 109h-84v-220zM83 0v589h178q110 0 159 -48t49 -133q0 -89 -49.5 -140.5t-149.5 -51.5h-95v-216h-92zM118 674v71h264v-71h-264z"></glyph><glyph glyph-name="pmacron" unicode="" d="M162 179q0 -33 10 -56.5t26.5 -38.5t36 -21.5t39.5 -6.5q26 0 49 10.5t40 32.5t27 55.5t10 79.5q0 84 -31 124.5t-85 40.5q-25 0 -47 -9t-38.5 -26.5t-26.5 -42.5t-10 -57v-85zM162 -203h-90v665h74l11 -89q10 28 27 47t38 31t43.5 17t44.5 5q85 0 133.5 -59.5 t48.5 -171.5q0 -53 -13.5 -99t-39 -80.5t-62.5 -54.5t-85 -20q-54 0 -86 21.5t-44 51.5v-264zM151 558v73h262v-73h-262z"></glyph><glyph glyph-name="Rdoublegrave" unicode="" d="M414 0q-11 12 -16.5 25t-9.5 30l-24 102q-6 26 -16 42t-23.5 25t-31 12t-39.5 3h-79v-239h-92v589h204q201 0 201 -168q0 -35 -11 -61.5t-29.5 -45t-43 -28.5t-52.5 -11v-3q42 -5 66 -25.5t36 -68.5l30 -116q5 -18 12.5 -33t18.5 -29h-101zM175 316h108q109 0 109 98 q0 46 -26.5 72t-81.5 26h-109v-196zM310 653l-104 123h109l62 -123h-67zM159 653l-115 123h113l73 -123h-71z"></glyph><glyph glyph-name="rdoublegrave" unicode="" d="M331 371q-8 2 -19 3t-22 1q-24 0 -47 -9.5t-41 -27.5t-29 -44t-11 -60v-234h-90v462h76l11 -125q13 62 57.5 100.5t121.5 34.5zM252 529l-104 146h109l62 -146h-67zM101 529l-115 146h113l73 -146h-71z"></glyph><glyph glyph-name="Rcedilla" unicode="" d="M414 0q-11 12 -16.5 25t-9.5 30l-24 102q-6 26 -16 42t-23.5 25t-31 12t-39.5 3h-79v-239h-92v589h204q201 0 201 -168q0 -35 -11 -61.5t-29.5 -45t-43 -28.5t-52.5 -11v-3q42 -5 66 -25.5t36 -68.5l30 -116q5 -18 12.5 -33t18.5 -29h-101zM175 316h108q109 0 109 98 q0 46 -26.5 72t-81.5 26h-109v-196zM358 -124q0 -45 -30.5 -66t-74.5 -21q-62 0 -90 38l24 51q25 -36 63 -36q17 0 26.5 8.5t9.5 25.5q0 19 -15.5 30t-50.5 12l7 90h46l-3 -49q47 -4 67.5 -25.5t20.5 -57.5z"></glyph><glyph glyph-name="rcedilla" unicode="" d="M225 -124q0 -45 -30.5 -66t-74.5 -21q-62 0 -90 38l24 51q25 -36 63 -36q17 0 26.5 8.5t9.5 25.5q0 19 -15.5 30t-50.5 12l6 82h-21v462h76l11 -125q13 62 57.5 100.5t121.5 34.5l-7 -101q-8 2 -19 3t-22 1q-24 0 -47 -9.5t-41 -27.5t-29 -44t-11 -60v-234h-23l-2 -41 q47 -4 67.5 -25.5t20.5 -57.5z"></glyph><glyph glyph-name="Tcedilla" unicode="" d="M335 -124q0 -45 -30.5 -66t-74.5 -21q-62 0 -90 38l24 51q25 -36 63 -36q17 0 26.5 8.5t9.5 25.5q0 19 -15.5 30t-50.5 12l6 82h-22v509h-171v80h436v-80h-172v-509h-25l-2 -41q47 -4 67.5 -25.5t20.5 -57.5z"></glyph><glyph glyph-name="tcedilla" unicode="" d="M283 -124q0 -45 -30.5 -66t-74.5 -21q-62 0 -90 38l24 51q25 -36 63 -36q17 0 26.5 8.5t9.5 25.5q0 19 -15.5 30t-50.5 12l6 79q-35 13 -54.5 43t-19.5 78v272h-67v72h67v98l91 11v-109h137v-72h-138v-254q0 -38 16 -54.5t45 -16.5q23 0 40 6t37 19l17 -75 q-45 -27 -112 -27q-9 0 -13 1l-2 -30q47 -4 67.5 -25.5t20.5 -57.5z"></glyph><glyph glyph-name="Umacronbelow" unicode="" d="M518 589v-396q0 -57 -19.5 -96.5t-51 -63.5t-72.5 -34.5t-84 -10.5q-44 0 -84.5 10.5t-72.5 34.5t-51 63.5t-19 96.5v396h92v-372q0 -80 35 -116.5t100 -36.5q64 0 99 36.5t35 114.5v374h93zM160 -183v73h262v-73h-262z"></glyph><glyph glyph-name="umacronbelow" unicode="" d="M348 84q-17 -51 -52 -73.5t-90 -22.5q-32 0 -57.5 8.5t-44 27t-28.5 47.5t-10 70v321h90v-307q0 -100 83 -100q19 0 38 8.5t34.5 25t25 42t9.5 58.5v273h90v-462h-77zM121 -183v73h262v-73h-262z"></glyph><glyph glyph-name="R.alt" unicode="" d="M513 0h-110l-160 229h-68v-229h-92v589h180q107 0 156.5 -47t49.5 -132q0 -67 -33.5 -112.5t-94.5 -58.5zM175 301h89q57 0 83 26.5t26 77.5q0 49 -26 78t-83 29h-89v-211z"></glyph><glyph glyph-name="Racute.alt" unicode="" d="M513 0h-110l-160 229h-68v-229h-92v589h180q107 0 156.5 -47t49.5 -132q0 -67 -33.5 -112.5t-94.5 -58.5zM175 301h89q57 0 83 26.5t26 77.5q0 49 -26 78t-83 29h-89v-211zM178 653l63 123h120l-101 -123h-82z"></glyph></font>
</defs>
</svg>
