<?xml version="1.0" encoding="UTF-8" standalone="no"?> <svg xmlns="http://www.w3.org/2000/svg" xmlns:xlink="http://www.w3.org/1999/xlink" version="1.1"><metadata> Created by FontForge 20170731 at Wed Apr 17 18:17:14 2019 By Aleksey,,, Copyright (c) 2004-7 by Kris Sowersby. All rights reserved. </metadata><defs><font id="National-ExtraboldItalic"><glyph glyph-name="f_b" unicode="fb" d="M526 195q-8 -43 7 -73.5t52 -30.5q27 0 47 15t34 39.5t21 55.5t7 63q0 48 -20 71t-52 23q-29 0 -52.5 -26t-33.5 -82zM437 546q-33 19 -69 19q-34 0 -56.5 -16.5t-30.5 -52.5l-7 -34h83l-20 -114h-83l-73 -418q-7 -39 -19 -65.5t-31 -43.5t-46.5 -24.5t-65.5 -7.5 q-31 0 -54 5t-45 17l27 105q14 -10 24 -13t21 -3q18 0 27 9.5t13 30.5l71 408h-69l20 114h69l7 39q9 47 30 80.5t50 54.5t65 30.5t74 9.5q65 0 118 -23l143 15l-53 -295q19 48 53 74t91 26q33 0 61.5 -11.5t49.5 -35t33 -60t12 -87.5q0 -62 -16 -115t-46 -92t-74 -61.5 t-100 -22.5q-45 0 -79.5 19t-41.5 61l-41 -68h-118z"></glyph><glyph glyph-name="f_f_b" unicode="ffb" d="M825 195q-8 -43 7 -73.5t52 -30.5q27 0 47 15t34 39.5t21 55.5t7 63q0 48 -20 71t-52 23q-29 0 -52.5 -26t-33.5 -82zM736 546q-33 19 -69 19q-34 0 -56.5 -16.5t-30.5 -52.5l-7 -34h83l-20 -114h-83l-72 -405q-7 -39 -19 -65.5t-31 -43.5t-46.5 -24.5t-65.5 -7.5 q-31 0 -54 5t-45 17l27 105q14 -10 24 -13t21 -3q18 0 27 9.5t13 30.5l70 395h-148l-73 -418q-7 -39 -19 -65.5t-31 -43.5t-46.5 -24.5t-65.5 -7.5q-31 0 -54 5t-45 17l27 105q14 -10 24 -13t21 -3q18 0 27 9.5t13 30.5l71 408h-69l20 114h69l4 29q15 94 64.5 135.5 t120.5 41.5q35 0 58 -5.5t51 -20.5l-44 -122q-20 24 -46 24q-38 0 -49 -47l-8 -35h148l7 39q9 47 30 80.5t50 54.5t65 30.5t74 9.5q65 0 118 -23l143 15l-53 -295q19 48 53 74t91 26q33 0 61.5 -11.5t49.5 -35t33 -60t12 -87.5q0 -62 -16 -115t-46 -92t-74 -61.5t-100 -22.5 q-45 0 -79.5 19t-41.5 61l-41 -68h-118z"></glyph><glyph glyph-name="f_f_h" unicode="ffh" d="M736 546q-33 19 -69 19q-34 0 -56.5 -16.5t-30.5 -52.5l-7 -34h83l-20 -114h-83l-72 -405q-7 -39 -19 -65.5t-31 -43.5t-46.5 -24.5t-65.5 -7.5q-31 0 -54 5t-45 17l27 105q14 -10 24 -13t21 -3q18 0 27 9.5t13 30.5l70 395h-148l-73 -418q-7 -39 -19 -65.5t-31 -43.5 t-46.5 -24.5t-65.5 -7.5q-31 0 -54 5t-45 17l27 105q14 -10 24 -13t21 -3q18 0 27 9.5t13 30.5l71 408h-69l20 114h69l4 29q15 94 64.5 135.5t120.5 41.5q35 0 58 -5.5t51 -20.5l-44 -122q-20 24 -46 24q-38 0 -49 -47l-8 -35h148l7 39q9 47 30 80.5t50 54.5t65 30.5t74 9.5 q65 0 118 -23l143 15l-53 -300q22 51 55 78t91 27q55 0 87 -32t32 -86q0 -12 -0.5 -21t-2.5 -18l-26 -159q-3 -17 1 -29t27 -12q7 0 14 1.5t16 3.5l-24 -113q-19 -6 -39.5 -9.5t-39.5 -3.5q-135 0 -112 135l25 144q5 32 -3.5 54t-43.5 22q-27 0 -48 -25t-31 -80l-43 -245 h-151z"></glyph><glyph glyph-name="f_f_j" unicode="ffj" d="M553 348l-72 -405q-7 -39 -19 -65.5t-31 -43.5t-46.5 -24.5t-65.5 -7.5q-31 0 -54 5t-45 17l27 105q14 -10 24 -13t21 -3q18 0 27 9.5t13 30.5l70 395h-148l-73 -418q-7 -39 -19 -65.5t-31 -43.5t-46.5 -24.5t-65.5 -7.5q-31 0 -54 5t-45 17l27 105q14 -10 24 -13t21 -3 q18 0 27 9.5t13 30.5l71 408h-69l20 114h69l4 29q15 94 64.5 135.5t120.5 41.5q35 0 58 -5.5t51 -20.5l-44 -122q-20 24 -46 24q-38 0 -49 -47l-8 -35h148l8 37q20 93 74 135t138 42q42 0 81.5 -9t69.5 -27l-44 -126q-17 14 -40.5 27t-52.5 13q-33 0 -51 -16.5t-26 -49.5 l-6 -26h299l-92 -519q-7 -39 -19 -65.5t-31 -43.5t-46.5 -24.5t-65.5 -7.5q-31 0 -54 5t-45 17l27 105q14 -10 24 -13t21 -3q18 0 27 9.5t13 30.5l70 395h-148z"></glyph><glyph glyph-name="f_f_k" unicode="ffk" d="M736 546q-33 19 -69 19q-34 0 -56.5 -16.5t-30.5 -52.5l-7 -34h83l-20 -114h-83l-72 -405q-7 -39 -19 -65.5t-31 -43.5t-46.5 -24.5t-65.5 -7.5q-31 0 -54 5t-45 17l27 105q14 -10 24 -13t21 -3q18 0 27 9.5t13 30.5l70 395h-148l-73 -418q-7 -39 -19 -65.5t-31 -43.5 t-46.5 -24.5t-65.5 -7.5q-31 0 -54 5t-45 17l27 105q14 -10 24 -13t21 -3q18 0 27 9.5t13 30.5l71 408h-69l20 114h69l4 29q15 94 64.5 135.5t120.5 41.5q35 0 58 -5.5t51 -20.5l-44 -122q-20 24 -46 24q-38 0 -49 -47l-8 -35h148l7 39q9 47 30 80.5t50 54.5t65 30.5t74 9.5 q65 0 118 -23l143 15l-64 -362h23l137 156h182l-200 -216l53 -100q14 -26 32 -29.5t50 6.5l-24 -117q-15 -5 -32 -8t-43 -3q-37 0 -66 15.5t-48 59.5l-53 122h-31l-34 -192h-151z"></glyph><glyph glyph-name="f_h" unicode="fh" d="M437 546q-33 19 -69 19q-34 0 -56.5 -16.5t-30.5 -52.5l-7 -34h83l-20 -114h-83l-73 -418q-7 -39 -19 -65.5t-31 -43.5t-46.5 -24.5t-65.5 -7.5q-31 0 -54 5t-45 17l27 105q14 -10 24 -13t21 -3q18 0 27 9.5t13 30.5l71 408h-69l20 114h69l7 39q9 47 30 80.5t50 54.5 t65 30.5t74 9.5q65 0 118 -23l143 15l-53 -300q22 51 55 78t91 27q55 0 87 -32t32 -86q0 -12 -0.5 -21t-2.5 -18l-26 -159q-3 -17 1 -29t27 -12q7 0 14 1.5t16 3.5l-24 -113q-19 -6 -39.5 -9.5t-39.5 -3.5q-135 0 -112 135l25 144q5 32 -3.5 54t-43.5 22q-27 0 -48 -25 t-31 -80l-43 -245h-151z"></glyph><glyph glyph-name="f_j" unicode="fj" d="M481 -57q-7 -39 -19 -65.5t-31 -43.5t-46.5 -24.5t-65.5 -7.5q-31 0 -54 5t-45 17l27 105q14 -10 24 -13t21 -3q18 0 27 9.5t13 30.5l70 395h-148l-73 -418q-7 -39 -19 -65.5t-31 -43.5t-46.5 -24.5t-65.5 -7.5q-31 0 -54 5t-45 17l27 105q14 -10 24 -13t21 -3 q18 0 27 9.5t13 30.5l71 408h-69l20 114h69l8 37q20 93 74 135t138 42q42 0 81.5 -9t69.5 -27l-44 -126q-17 14 -40.5 27t-52.5 13q-33 0 -51 -16.5t-26 -49.5l-6 -26h299z"></glyph><glyph glyph-name="f_k" unicode="fk" d="M437 546q-33 19 -69 19q-34 0 -56.5 -16.5t-30.5 -52.5l-7 -34h83l-20 -114h-83l-73 -418q-7 -39 -19 -65.5t-31 -43.5t-46.5 -24.5t-65.5 -7.5q-31 0 -54 5t-45 17l27 105q14 -10 24 -13t21 -3q18 0 27 9.5t13 30.5l71 408h-69l20 114h69l7 39q9 47 30 80.5t50 54.5 t65 30.5t74 9.5q65 0 118 -23l143 15l-64 -362h23l137 156h182l-200 -216l53 -100q14 -26 32 -29.5t50 6.5l-24 -117q-15 -5 -32 -8t-43 -3q-37 0 -66 15.5t-48 59.5l-53 122h-31l-34 -192h-151z"></glyph><glyph glyph-name="ff" unicode="ff" d="M481 -57q-7 -39 -19 -65.5t-31 -43.5t-46.5 -24.5t-65.5 -7.5q-31 0 -54 5t-45 17l27 105q14 -10 24 -13t21 -3q18 0 27 9.5t13 30.5l70 395h-148l-73 -418q-7 -39 -19 -65.5t-31 -43.5t-46.5 -24.5t-65.5 -7.5q-31 0 -54 5t-45 17l27 105q14 -10 24 -13t21 -3 q18 0 27 9.5t13 30.5l71 408h-69l20 114h69l4 29q15 94 64.5 135.5t120.5 41.5q35 0 58 -5.5t51 -20.5l-44 -122q-20 24 -46 24q-38 0 -49 -47l-8 -35h148l6 37q7 47 27 80.5t48 55t63 31.5t73 10q70 0 129 -26l-44 -122q-35 24 -80 24q-29 0 -43.5 -14t-19.5 -39l-8 -37 h118l-20 -114h-118z"></glyph><glyph glyph-name="ffi" unicode="ffi" d="M819 157q-3 -17 1 -29t27 -12q7 0 14 1.5t16 3.5l-24 -113q-19 -6 -39.5 -9.5t-39.5 -3.5q-135 0 -112 135l38 218h-147l-72 -405q-7 -39 -19 -65.5t-31 -43.5t-46.5 -24.5t-65.5 -7.5q-31 0 -54 5t-45 17l27 105q14 -10 24 -13t21 -3q18 0 27 9.5t13 30.5l70 395h-148 l-73 -418q-7 -39 -19 -65.5t-31 -43.5t-46.5 -24.5t-65.5 -7.5q-31 0 -54 5t-45 17l27 105q14 -10 24 -13t21 -3q18 0 27 9.5t13 30.5l71 408h-69l20 114h69l4 29q15 94 64.5 135.5t120.5 41.5q35 0 58 -5.5t51 -20.5l-44 -122q-20 24 -46 24q-38 0 -49 -47l-8 -35h148l8 37 q20 93 74 135t138 42q42 0 81.5 -9t69.5 -27l-44 -126q-17 14 -40.5 27t-52.5 13q-33 0 -51 -16.5t-26 -49.5l-6 -26h299z"></glyph><glyph glyph-name="ffl" unicode="ffl" d="M481 -57q-7 -39 -19 -65.5t-31 -43.5t-46.5 -24.5t-65.5 -7.5q-31 0 -54 5t-45 17l27 105q14 -10 24 -13t21 -3q18 0 27 9.5t13 30.5l70 395h-148l-73 -418q-7 -39 -19 -65.5t-31 -43.5t-46.5 -24.5t-65.5 -7.5q-31 0 -54 5t-45 17l27 105q14 -10 24 -13t21 -3 q18 0 27 9.5t13 30.5l71 408h-69l20 114h69l4 29q15 94 64.5 135.5t120.5 41.5q35 0 58 -5.5t51 -20.5l-44 -122q-20 24 -46 24q-38 0 -49 -47l-8 -35h148l7 39q9 47 30 80.5t50 54.5t65 30.5t74 9.5q65 0 118 -23l143 15l-90 -511q-3 -17 1 -29t27 -12q7 0 14 1.5t16 3.5 l-24 -113q-19 -6 -39.5 -9.5t-39.5 -3.5q-135 0 -112 135l74 416q-33 19 -69 19q-34 0 -56.5 -16.5t-30.5 -52.5l-7 -34h83l-20 -114h-83z"></glyph><glyph glyph-name="fi" unicode="fi" d="M520 157q-3 -17 1 -29t27 -12q7 0 14 1.5t16 3.5l-24 -113q-19 -6 -39.5 -9.5t-39.5 -3.5q-135 0 -112 135l38 218h-147l-73 -418q-7 -39 -19 -65.5t-31 -43.5t-46.5 -24.5t-65.5 -7.5q-31 0 -54 5t-45 17l27 105q14 -10 24 -13t21 -3q18 0 27 9.5t13 30.5l71 408h-69 l20 114h69l8 37q20 93 74 135t138 42q42 0 81.5 -9t69.5 -27l-44 -126q-17 14 -40.5 27t-52.5 13q-33 0 -51 -16.5t-26 -49.5l-6 -26h299z"></glyph><glyph glyph-name="fl" unicode="fl" d="M181 -70q-7 -39 -19 -65.5t-31 -43.5t-46.5 -24.5t-65.5 -7.5q-31 0 -54 5t-45 17l27 105q14 -10 24 -13t21 -3q18 0 27 9.5t13 30.5l71 408h-69l20 114h69l7 39q9 47 30 80.5t50 54.5t65 30.5t74 9.5q65 0 118 -23l143 15l-90 -511q-3 -17 1 -29t27 -12q7 0 14 1.5 t16 3.5l-24 -113q-19 -6 -39.5 -9.5t-39.5 -3.5q-135 0 -112 135l74 416q-33 19 -69 19q-34 0 -56.5 -16.5t-30.5 -52.5l-7 -34h83l-20 -114h-83z"></glyph><glyph glyph-name=".notdef"></glyph><glyph glyph-name=".null"></glyph><glyph glyph-name=".null"></glyph><glyph glyph-name="nonmarkingreturn" unicode="&#13;"></glyph><glyph glyph-name="space" unicode=" "></glyph><glyph glyph-name="exclam" unicode="!" d="M296 589l-120 -383h-98l36 383h182zM13 77q0 38 25.5 60.5t63.5 22.5q39 0 65 -22.5t26 -60.5t-26 -60t-65 -22q-38 0 -63.5 22t-25.5 60z"></glyph><glyph glyph-name="quotedbl" unicode="&quot;" d="M125 668h142l-99 -256h-88zM310 668h142l-99 -256h-88z"></glyph><glyph glyph-name="numbersign" unicode="#" d="M436 114l-55 -114h-116l55 114h-86l-55 -114h-116l55 114h-88l17 100h119l34 70h-120l17 100h152l47 97h118l-48 -97h85l47 97h118l-48 -97h100l-17 -100h-132l-34 -70h133l-17 -100h-165zM283 214h85l34 70h-85z"></glyph><glyph glyph-name="dollar" unicode="$" d="M129 161q4 -31 20.5 -50.5t42.5 -27.5l17 95q-3 0 -5 2q-40 12 -67 25.5t-43.5 31.5t-23.5 40t-7 51q0 45 18 76t47 50t64.5 28t71.5 10l15 82h50l-15 -84q75 -7 116.5 -42t41.5 -92l-127 -32q0 23 -12 42t-36 27l-18 -99l13 -3q80 -21 111 -56t31 -90q0 -40 -16 -69 t-44.5 -48.5t-66.5 -29t-82 -10.5l-16 -94h-50l17 96q-74 6 -118 38.5t-48 92.5zM297 123q0 14 -9.5 23t-31.5 17l-14 -83q27 2 41 11.5t14 31.5zM195 352q0 -12 6 -22t31 -20l16 87q-29 -3 -41 -14t-12 -31z"></glyph><glyph glyph-name="percent" unicode="%" d="M185 229q-36 0 -61.5 11t-42 31t-24 47t-7.5 59q0 42 12 81.5t35 70.5t56.5 49.5t76.5 18.5q34 0 59.5 -11.5t42.5 -32t25.5 -48t8.5 -60.5q0 -44 -12 -83.5t-35 -69t-57 -46.5t-77 -17zM220 504q-19 0 -31 -13.5t-19.5 -33t-10.5 -41t-3 -37.5q0 -26 10 -43t31 -17 q18 0 30 13.5t19.5 33t11 41t3.5 36.5q0 27 -9 44t-32 17zM616 589h92l-411 -589h-89zM680 -7q-36 0 -61.5 11t-42 31t-24 47t-7.5 59q0 42 12 81.5t35 70.5t56.5 49.5t76.5 18.5q34 0 59.5 -11.5t42.5 -32t25.5 -48t8.5 -60.5q0 -44 -12 -83.5t-35 -69t-57 -46.5t-77 -17z M715 268q-19 0 -31 -13.5t-19.5 -33t-10.5 -41t-3 -37.5q0 -26 10 -43t31 -17q18 0 30 13.5t19.5 33t11 41t3.5 36.5q0 27 -9 44t-32 17z"></glyph><glyph glyph-name="ampersand" unicode="&amp;" d="M441 -15l-56 63q-46 -32 -92 -46t-108 -14q-39 0 -72 9t-57 28t-37.5 46.5t-13.5 65.5q0 67 43 105.5t118 53.5l-29 34q-24 28 -33 55t-9 56q0 42 18 72.5t48 50t68.5 28.5t80.5 9q38 0 70.5 -8.5t56 -25t37 -41t13.5 -57.5q0 -38 -14.5 -63.5t-37.5 -42.5t-50.5 -26 t-52.5 -12l88 -97q12 16 21.5 37t15.5 50l120 -51q-6 -17 -16.5 -34t-22.5 -32.5t-24.5 -28.5t-22.5 -22l65 -67zM154 155q0 -25 17.5 -42t49.5 -17q54 0 96 30l-107 123q-27 -17 -41.5 -39t-14.5 -55zM298 503q-26 0 -41 -13.5t-15 -33.5q0 -13 5 -23.5t19 -27.5l28 -35 q25 14 40.5 38t15.5 44q0 51 -52 51z"></glyph><glyph glyph-name="quotesingle" unicode="'" d="M125 668h142l-99 -256h-88z"></glyph><glyph glyph-name="parenleft" unicode="(" d="M203 136q0 -46 4.5 -88t15.5 -83t29 -82t45 -85h-148q-41 63 -65 145t-24 184q0 91 17.5 170t49 146.5t74 123.5t92.5 101h164q-52 -52 -98 -107t-80.5 -118.5t-55 -138.5t-20.5 -168z"></glyph><glyph glyph-name="parenright" unicode=")" d="M174 330q0 46 -4.5 88t-15.5 83t-29 82t-45 85h148q41 -63 65 -145t24 -184q0 -91 -17.5 -170.5t-49 -147t-74 -123t-92.5 -100.5h-164q52 52 98 107t80.5 118.5t55 138.5t20.5 168z"></glyph><glyph glyph-name="asterisk" unicode="*" d="M280 485l109 26l7 -102l-110 7l61 -94l-101 -43l-23 108l-70 -86l-69 82l93 58l-102 42l54 87l85 -70l6 110l105 -25z"></glyph><glyph glyph-name="plus" unicode="+" d="M213 289l28 156h87l-28 -156h162l-14 -82h-162l-30 -170h-87l30 170h-159l14 82h159z"></glyph><glyph glyph-name="comma" unicode="," d="M216 57q0 -50 -18.5 -84t-49.5 -56t-70.5 -31.5t-82.5 -9.5v59q25 1 48 6.5t41 16t28.5 25.5t10.5 33q-18 -3 -35 0t-30.5 12t-22 24t-8.5 37q0 43 27 63.5t64 20.5q46 0 72 -32t26 -84z"></glyph><glyph glyph-name="hyphen" unicode="-" d="M82 322h254l-22 -125h-254z"></glyph><glyph glyph-name="period" unicode="." d="M30 85q0 41 26 67.5t64 26.5q41 0 67.5 -26.5t26.5 -67.5q0 -38 -26.5 -64t-67.5 -26q-38 0 -64 26t-26 64z"></glyph><glyph glyph-name="slash" unicode="/" d="M340 668h128l-428 -871h-125z"></glyph><glyph glyph-name="zero" unicode="0" d="M269 -12q-60 0 -103 19t-71 50t-41.5 71t-13.5 81q0 70 22 123t59.5 88.5t87 53.5t105.5 18q60 0 103 -18.5t71.5 -50t42 -73t13.5 -87.5q0 -66 -21.5 -117t-59 -86.5t-87.5 -53.5t-107 -18zM179 223q0 -46 25 -77.5t72 -31.5q24 0 46.5 9t40 27t27.5 44t10 59 q0 46 -25 77.5t-70 31.5q-26 0 -49 -9.5t-40 -27.5t-27 -43.5t-10 -58.5z"></glyph><glyph glyph-name="one" unicode="1" d="M97 0l62 349l-124 -14l21 120l278 34l-86 -489h-151z"></glyph><glyph glyph-name="two" unicode="2" d="M399 0h-399l18 110q137 62 204.5 109.5t67.5 97.5q0 46 -44 46q-24 0 -40.5 -16.5t-22.5 -54.5l-134 48q18 78 76 115t140 37q47 0 81 -11.5t56 -31t32.5 -47t10.5 -58.5q0 -48 -22 -84.5t-59.5 -63t-87 -43.5t-104.5 -26v-4h249z"></glyph><glyph glyph-name="three" unicode="3" d="M267 182q43 -2 72.5 -14.5t47.5 -32t26 -43.5t8 -49q0 -41 -17.5 -74.5t-50 -57t-77.5 -36.5t-99 -13q-97 0 -148.5 35.5t-58.5 104.5l141 54q0 -42 22 -62t55 -20q35 0 57.5 17.5t22.5 53.5q0 16 -6 31t-21 27t-41.5 20t-67.5 10l18 98q49 6 79.5 15t47 21t22 26t5.5 31 q0 26 -15 38t-38 12q-28 0 -46.5 -18t-21.5 -56l-140 40q20 76 79 114t152 38q88 0 137 -37t49 -106q0 -76 -49.5 -117t-143.5 -46v-4z"></glyph><glyph glyph-name="four" unicode="4" d="M287 19h-287l17 99l363 363h138l-62 -353h96l-19 -109h-96l-27 -150h-150zM306 128l17 98q2 15 6 30.5t7 28.5l8 30h-4q-6 -8 -12 -17q-6 -8 -13.5 -17t-15.5 -17l-77 -82q-25 -26 -46 -41q-11 -8 -21 -14v-4q7 1 17 2q8 1 19.5 2t25.5 1h89z"></glyph><glyph glyph-name="five" unicode="5" d="M141 481h330l-23 -132h-210l-27 -120q28 19 78 19q70 0 107.5 -44t37.5 -116q0 -59 -22 -102t-59 -71t-85.5 -41t-101.5 -13q-42 0 -78 9t-62 27t-41 44t-15 60l131 52q1 -21 8.5 -35.5t19.5 -23t26.5 -12t30.5 -3.5q44 0 71.5 24t27.5 70q0 38 -20.5 57t-47.5 19 q-21 0 -32.5 -6.5t-21.5 -17.5h-99z"></glyph><glyph glyph-name="six" unicode="6" d="M443 418q-14 29 -39 45.5t-56 16.5q-39 0 -69 -16.5t-51.5 -44.5t-33.5 -66t-15 -81h4q11 50 46.5 76t93.5 26q36 0 66.5 -12t52.5 -34.5t34 -54t12 -69.5q0 -48 -16 -87.5t-45 -68t-71 -44.5t-93 -16q-57 0 -98.5 17t-69.5 49t-41.5 77.5t-13.5 102.5q0 77 21.5 144 t62 116.5t99 78t133.5 28.5q128 0 178 -92zM272 264q-16 0 -31 -6t-27 -17.5t-19.5 -28.5t-7.5 -40q0 -32 18.5 -51t52.5 -19t60.5 23.5t26.5 68.5q0 70 -73 70z"></glyph><glyph glyph-name="seven" unicode="7" d="M171 349l-13 -72h-119l36 204h458l-18 -106l-324 -506h-161l270 417q12 19 22 31.5t18 20.5q9 9 16 13v4q-6 -2 -15 -3q-15 -3 -51 -3h-119z"></glyph><glyph glyph-name="eight" unicode="8" d="M241 -12q-54 0 -94 12.5t-66 34t-38.5 49.5t-12.5 59q0 34 12 62t32 48t47.5 33t58.5 17v4q-45 12 -71 42.5t-26 73.5q0 49 19.5 83t51.5 55t73.5 30.5t86.5 9.5q46 0 83 -11.5t62.5 -31.5t39.5 -47.5t14 -59.5q0 -64 -36.5 -104.5t-95.5 -48.5v-4q46 -13 76 -46.5 t30 -83.5q0 -51 -22.5 -85t-58 -54t-79 -28.5t-86.5 -8.5zM303 498q-38 0 -58 -25t-20 -57q0 -30 19 -45.5t42 -15.5q38 0 60 23t22 58q0 25 -16 43.5t-49 18.5zM271 244q-38 0 -65 -22t-27 -58q0 -27 18 -46.5t52 -19.5q45 0 69 22.5t24 60.5q0 29 -20.5 46t-50.5 17z"></glyph><glyph glyph-name="nine" unicode="9" d="M81 42q14 -29 40 -45.5t62 -16.5q72 0 116.5 58t50.5 170h-4q-11 -50 -45.5 -76t-87.5 -26q-39 0 -71 12t-54.5 34t-34.5 52t-12 66q0 50 16 91t46 70t73 45t97 16q108 0 162 -67.5t54 -183.5q0 -83 -21.5 -152.5t-62 -119.5t-99 -78.5t-133.5 -28.5q-128 0 -178 92z M253 216q16 0 31 6t27 17.5t19.5 28.5t7.5 40q0 32 -18.5 51t-52.5 19t-60.5 -23.5t-26.5 -68.5q0 -70 73 -70z"></glyph><glyph glyph-name="colon" unicode=":" d="M30 85q0 41 26 67.5t64 26.5q41 0 67.5 -26.5t26.5 -67.5q0 -38 -26.5 -64t-67.5 -26q-38 0 -64 26t-26 64zM86 396q0 41 26 67.5t64 26.5q41 0 67.5 -26.5t26.5 -67.5q0 -38 -26.5 -64t-67.5 -26q-38 0 -64 26t-26 64z"></glyph><glyph glyph-name="semicolon" unicode=";" d="M216 57q0 -50 -18.5 -84t-49.5 -56t-70.5 -31.5t-82.5 -9.5v59q25 1 48 6.5t41 16t28.5 25.5t10.5 33q-18 -3 -35 0t-30.5 12t-22 24t-8.5 37q0 43 27 63.5t64 20.5q46 0 72 -32t26 -84zM80 396q0 41 26 67.5t64 26.5q41 0 67.5 -26.5t26.5 -67.5q0 -38 -26.5 -64 t-67.5 -26q-38 0 -64 26t-26 64z"></glyph><glyph glyph-name="less" unicode="&lt;" d="M185 238l145 -139l-70 -68l-210 216l291 212l52 -73z"></glyph><glyph glyph-name="equal" unicode="=" d="M40 128l15 82h408l-15 -82h-408zM67 282l15 82h408l-15 -82h-408z"></glyph><glyph glyph-name="greater" unicode="&gt;" d="M248 252l-145 139l70 68l210 -216l-291 -212l-52 73z"></glyph><glyph glyph-name="question" unicode="?" d="M35 429q21 87 79 129.5t152 42.5q105 0 158 -46.5t53 -129.5q0 -47 -19 -80.5t-49 -54.5t-67.5 -30.5t-74.5 -9.5l-11 -54h-128l24 134h48q28 0 51 3.5t39.5 12t25.5 23t9 36.5q0 31 -17 48.5t-52 17.5q-38 0 -59 -19.5t-26 -69.5zM87 77q0 38 25.5 60.5t63.5 22.5 q39 0 65 -22.5t26 -60.5t-26 -60t-65 -22q-38 0 -63.5 22t-25.5 60z"></glyph><glyph glyph-name="at" unicode="@" d="M503 218q8 35 -5.5 55t-45.5 20q-41 0 -63.5 -34t-22.5 -83q0 -36 13 -55t42 -19q26 0 45 15.5t28 57.5zM621 -12q-63 0 -92 23t-33 70q-16 -52 -50.5 -72.5t-83.5 -20.5q-66 0 -105 45t-39 131q0 56 16 101.5t43 77t62.5 48.5t74.5 17q44 0 74.5 -22.5t37.5 -62.5l44 79 h109l-55 -285q-5 -29 7 -41.5t37 -12.5q18 0 36 12.5t32.5 37t23.5 60t9 81.5q0 70 -23.5 122.5t-65 87t-97.5 51.5t-120 17q-67 0 -128 -22.5t-107.5 -66t-74 -107.5t-27.5 -147q0 -77 24 -137t69.5 -102t111 -64t148.5 -22q28 0 52 2t47.5 6t47.5 10.5t54 15.5l17 -69 q-59 -19 -117.5 -25.5t-101.5 -6.5q-112 0 -193.5 30.5t-135 83t-79 124t-25.5 155.5q0 91 32 166t88 128.5t132.5 83t165.5 29.5q94 0 165.5 -26t120.5 -71t74 -106t25 -131q0 -48 -10.5 -97t-36.5 -88.5t-70 -64.5t-110 -25z"></glyph><glyph glyph-name="A" unicode="A" d="M410 110h-217l-56 -110h-162l316 589h183l112 -589h-156zM257 235h131q-9 42 -14.5 83.5t-8.5 73.5t-4 52t0 20h-4q-8 -26 -19 -56q-10 -26 -24 -58.5t-33 -68.5z"></glyph><glyph glyph-name="B" unicode="B" d="M409 301q64 -10 90.5 -45.5t26.5 -78.5q0 -45 -17 -78.5t-48.5 -55t-75.5 -32.5t-98 -11h-257l103 589h244q45 0 77.5 -10t52.5 -27.5t29.5 -41.5t9.5 -53q0 -33 -11 -59.5t-29.5 -46t-43 -31t-52.5 -15.5zM314 347q31 0 54 13.5t23 50.5q0 28 -15.5 39.5t-44.5 11.5h-68 l-20 -115h71zM204 127h94q35 0 57.5 14.5t22.5 49.5q0 23 -13.5 35.5t-46.5 12.5h-94z"></glyph><glyph glyph-name="C" unicode="C" d="M555 137q-38 -78 -101.5 -113.5t-156.5 -35.5q-121 0 -184 64t-63 182q0 86 25 154t67.5 115.5t99 72.5t120.5 25q57 0 98.5 -13.5t69.5 -37.5t44 -57t22 -71l-158 -51q-2 22 -6.5 40t-14 31t-25.5 20t-40 7q-35 0 -62.5 -18t-46 -49t-28.5 -73t-10 -90q0 -60 27 -91.5 t72 -31.5q37 0 66 18.5t55 70.5z"></glyph><glyph glyph-name="D" unicode="D" d="M257 127q40 0 74 13.5t58.5 40.5t38 67t13.5 92q0 66 -35 94t-97 28h-46l-59 -335h53zM30 0l103 589h204q262 0 262 -234q0 -96 -28.5 -163.5t-77.5 -110t-114.5 -62t-139.5 -19.5h-209z"></glyph><glyph glyph-name="E" unicode="E" d="M436 0h-406l103 589h406l-23 -130h-254l-17 -98h223l-22 -125h-223l-19 -106h254z"></glyph><glyph glyph-name="F" unicode="F" d="M30 0l103 589h397l-23 -130h-245l-22 -128h214l-22 -125h-214l-36 -206h-152z"></glyph><glyph glyph-name="G" unicode="G" d="M601 318l-56 -318h-88l-15 71q-18 -35 -55.5 -59t-103.5 -24q-111 0 -172 64t-61 182q0 86 25 154t67.5 115.5t99 72.5t120.5 25q57 0 98.5 -13.5t69.5 -37.5t44 -57t22 -71l-158 -51q-2 20 -6 38t-14 31t-26 20.5t-40 7.5q-35 0 -62.5 -17.5t-46 -48t-28.5 -71.5 t-10 -88q0 -63 29 -98.5t87 -35.5q47 0 76 21.5t35 57.5l2 12h-114l21 118h260z"></glyph><glyph glyph-name="H" unicode="H" d="M30 0l103 589h152l-39 -225h207l39 225h152l-103 -589h-152l41 234h-207l-41 -234h-152z"></glyph><glyph glyph-name="I" unicode="I" d="M285 589l-103 -589h-152l103 589h152z"></glyph><glyph glyph-name="J" unicode="J" d="M471 589l-73 -418q-9 -53 -28.5 -88t-48.5 -56t-66.5 -30t-83.5 -9q-81 0 -127.5 31.5t-68.5 91.5l123 82q9 -38 27.5 -59t52.5 -21q33 0 47.5 16.5t22.5 58.5l71 401h152z"></glyph><glyph glyph-name="K" unicode="K" d="M369 0l-110 234h-36l-41 -234h-152l103 589h152l-39 -225h31l167 225h177l-226 -293l148 -296h-174z"></glyph><glyph glyph-name="L" unicode="L" d="M285 589l-81 -459h218l-22 -130h-370l103 589h152z"></glyph><glyph glyph-name="M" unicode="M" d="M320 133l-50 112q-16 35 -24 64q-5 16 -8 31h-4q0 -12 -1 -28q-1 -14 -3.5 -33.5t-6.5 -44.5l-41 -234h-152l103 589h148l70 -174q18 -48 24 -72q4 -14 6 -25h4q4 11 13 25q7 12 19 30t30 42l134 174h148l-103 -589h-152l41 234q4 25 8.5 44.5t7.5 33.5l7 28h-4 q-7 -15 -16 -31q-8 -14 -18 -30.5t-24 -33.5l-90 -112h-66z"></glyph><glyph glyph-name="N" unicode="N" d="M403 327q8 -17 14.5 -32.5t11.5 -27.5q5 -14 8 -27h4q1 16 4 36q2 17 5 40t8 52l39 221h152l-103 -589h-134l-134 255q-11 19 -18 36t-12 31q-5 16 -9 29h-4q-1 -16 -3 -36q-2 -17 -5 -43t-9 -58l-36 -214h-152l103 589h139z"></glyph><glyph glyph-name="O" unicode="O" d="M297 -12q-60 0 -106.5 17t-77.5 49t-47 77.5t-16 102.5q0 86 25 154t67.5 115.5t99 72.5t120.5 25q122 0 184.5 -66.5t62.5 -180.5q0 -86 -25 -154t-67.5 -115t-99.5 -72t-120 -25zM352 469q-35 0 -62.5 -17.5t-46 -48.5t-28.5 -72t-10 -87q0 -63 27 -95.5t72 -32.5 q33 0 59.5 18t46 48.5t30 72.5t10.5 90q0 60 -26.5 92t-71.5 32z"></glyph><glyph glyph-name="P" unicode="P" d="M235 304h45q51 0 77 21.5t26 76.5q0 32 -18 46.5t-56 14.5h-46zM30 0l103 589h207q56 0 93 -12.5t59.5 -35t32 -54.5t9.5 -72q0 -59 -19.5 -103t-52.5 -73t-76 -43.5t-90 -14.5h-83l-31 -181h-152z"></glyph><glyph glyph-name="Q" unicode="Q" d="M614 354q0 -79 -21 -142.5t-57 -109.5t-85 -74t-105 -36q28 -29 69 -34.5t82 -1.5l-40 -127q-115 0 -178 40.5t-82 134.5q-70 24 -106 82.5t-36 147.5q0 86 25 154t67.5 115.5t99 72.5t120.5 25q123 0 185 -64.5t62 -182.5zM357 469q-35 0 -62.5 -17.5t-46 -48.5 t-28.5 -72t-10 -87q0 -63 27 -95.5t72 -32.5q33 0 59.5 18t46 48.5t30 72.5t10.5 90q0 60 -26.5 92t-71.5 32z"></glyph><glyph glyph-name="R" unicode="R" d="M367 0q-13 11 -18.5 27.5t-8.5 35.5l-13 83q-5 32 -17.5 41.5t-43.5 9.5h-50l-34 -197h-152l103 589h231q97 0 147 -35t50 -122q0 -44 -13 -75.5t-34.5 -52.5t-49 -32.5t-56.5 -14.5v-4q40 -7 57 -24.5t24 -56.5l18 -108q3 -17 7.5 -32.5t17.5 -31.5h-165zM238 322h78 q18 0 34 4t28.5 14t19.5 26t7 39q0 27 -16.5 42t-51.5 15h-74z"></glyph><glyph glyph-name="S" unicode="S" d="M147 192q1 -40 24.5 -66.5t65.5 -26.5q34 0 56 12.5t22 44.5q0 26 -16.5 41t-60.5 29q-45 13 -74.5 31t-47.5 40.5t-25.5 49.5t-7.5 59q0 54 20 91t52.5 60.5t73.5 33.5t82 10q95 0 148.5 -38.5t58.5 -125.5l-148 -29q2 36 -19 53t-52 17q-32 0 -50 -13.5t-18 -42.5 q0 -23 17.5 -36t64.5 -28q84 -27 119.5 -67.5t35.5 -112.5q0 -54 -20 -90.5t-54 -58.5t-78.5 -31.5t-93.5 -9.5q-43 0 -80 8.5t-64.5 26.5t-45.5 46t-22 68z"></glyph><glyph glyph-name="T" unicode="T" d="M137 0l80 459h-157l23 130h468l-23 -130h-160l-80 -459h-151z"></glyph><glyph glyph-name="U" unicode="U" d="M618 589l-67 -380q-11 -64 -35.5 -106.5t-60.5 -68t-82.5 -36t-101.5 -10.5q-51 0 -95.5 12.5t-75.5 41t-43.5 75.5t-0.5 116l63 356h152l-63 -348q-5 -29 -4.5 -52.5t9.5 -40t28 -26t52 -9.5q32 0 51.5 9.5t31.5 26.5t18 41t11 53l61 346h152z"></glyph><glyph glyph-name="V" unicode="V" d="M263 290q4 -30 6 -58.5t3 -51.5q1 -26 1 -49h4q5 24 13 50q7 23 17 51t24 57l142 300h164l-297 -589h-179l-91 589h152z"></glyph><glyph glyph-name="W" unicode="W" d="M601 280q1 -31 0.5 -61t-2.5 -54q-2 -28 -4 -54h4q7 26 15 54q7 24 16 54t20 60l112 310h159l-225 -589h-216l-17 272q-2 29 -2.5 57t0.5 51q1 26 2 50h-4q-5 -23 -11 -49q-6 -23 -14.5 -51.5t-20.5 -58.5l-107 -271h-207l-19 589h155l7 -309q1 -31 0 -61t-2 -54 q-2 -28 -3 -54h4q6 26 14 54q7 24 16 54t20 60l117 310h181z"></glyph><glyph glyph-name="X" unicode="X" d="M316 112q-12 23 -18.5 38.5t-8.5 25.5q-4 11 -3 18h-4q-1 -8 -6 -19q-9 -20 -45 -63l-95 -112h-176l257 300l-146 289h167l44 -95q12 -27 19 -45t11 -29q4 -12 6 -19h5q2 8 8 21q5 11 16.5 28.5t31.5 43.5l74 95h172l-234 -291l149 -298h-165z"></glyph><glyph glyph-name="Y" unicode="Y" d="M263 464q9 -31 14.5 -59t7.5 -49q3 -25 4 -46h4q6 21 17 47q9 21 22.5 49t33.5 58l83 125h161l-260 -402l-32 -187h-152l32 187l-133 402h160z"></glyph><glyph glyph-name="Z" unicode="Z" d="M280 396q15 17 28.5 29.5t24.5 20.5q12 10 22 17v4q-11 -2 -24 -4q-11 -2 -27 -3t-34 -1h-178l23 130h454l-22 -106l-266 -290q-16 -17 -29 -29.5t-24 -20.5q-12 -10 -22 -17v-4q11 2 24 4q11 2 26.5 3t34.5 1h204l-22 -130h-468l21 112z"></glyph><glyph glyph-name="bracketleft" unicode="[" d="M177 -93h143l-19 -110h-296l153 871h296l-19 -111h-143z"></glyph><glyph glyph-name="backslash" unicode="\" d="M318 -203h-116l-122 871h119z"></glyph><glyph glyph-name="bracketright" unicode="]" d="M207 558h-143l19 110h296l-153 -871h-296l19 111h143z"></glyph><glyph glyph-name="asciicircum" unicode="^" d="M391 423q-10 35 -14.5 62t-6.5 45q-2 21 -1 35h-4q-4 -15 -14 -36q-8 -18 -22 -44.5t-37 -60.5l-68 -103h-138l235 347h132l112 -347h-146z"></glyph><glyph glyph-name="underscore" unicode="_" d="M4 -22h381l-20 -110h-380z"></glyph><glyph glyph-name="grave" unicode="`" d="M197 525l-117 156h184l69 -156h-136z"></glyph><glyph glyph-name="a" unicode="a" d="M340 269q3 18 3 34.5t-5 29t-15.5 20.5t-28.5 8q-27 0 -47 -15.5t-33 -40.5t-19.5 -56.5t-6.5 -63.5q0 -35 14 -60.5t44 -25.5q35 0 53.5 27t25.5 66zM471 157q-3 -17 1 -29t27 -12q7 0 14 1.5t16 3.5l-24 -113q-19 -6 -39.5 -9.5t-39.5 -3.5q-54 0 -81.5 19t-33.5 64 q-16 -49 -50 -69.5t-78 -20.5q-77 0 -115 51t-38 138q0 59 14.5 113t42.5 94.5t68.5 64.5t91.5 24t80 -20t32 -68l29 77h136z"></glyph><glyph glyph-name="b" unicode="b" d="M215 195q-8 -43 7 -73.5t52 -30.5q27 0 47 15t34 39.5t21 55.5t7 63q0 48 -20 71t-52 23q-29 0 -52.5 -26t-33.5 -82zM148 0h-118l118 668h151l-53 -295q19 48 53 74t91 26q33 0 61.5 -11.5t49.5 -35t33 -60t12 -87.5q0 -62 -16 -115t-46 -92t-74 -61.5t-100 -22.5 q-45 0 -79.5 19t-41.5 61z"></glyph><glyph glyph-name="c" unicode="c" d="M462 148q-20 -75 -73.5 -117.5t-146.5 -42.5q-97 0 -154.5 51t-57.5 145q0 57 16 109.5t49 92t83 63.5t119 24q48 0 83 -14.5t57.5 -38.5t33 -56t10.5 -67l-148 -26q1 13 -1 28t-7.5 27.5t-16 20.5t-25.5 8q-21 0 -38 -13t-29 -35t-18.5 -52.5t-6.5 -64.5q0 -48 16.5 -68 t44.5 -20q50 0 63 68z"></glyph><glyph glyph-name="d" unicode="d" d="M346 269q3 18 2.5 34.5t-6 29t-17 20.5t-31.5 8q-27 0 -47 -15.5t-33 -40.5t-19.5 -56.5t-6.5 -63.5q0 -35 14 -60.5t44 -25.5q69 0 86 93zM478 157q-3 -17 1 -29t27 -12q7 0 14 1.5t16 3.5l-24 -113q-19 -6 -39.5 -9.5t-39.5 -3.5q-54 0 -81.5 19t-33.5 64 q-16 -49 -53.5 -69.5t-81.5 -20.5q-77 0 -115 51t-38 138q0 59 14.5 113t43 94.5t70 64.5t95.5 24q46 0 78 -20.5t35 -67.5l49 283h151z"></glyph><glyph glyph-name="e" unicode="e" d="M251 102q26 0 42.5 12.5t24.5 45.5l142 -34q-20 -71 -71.5 -104.5t-149.5 -33.5q-100 0 -154.5 54t-54.5 147q0 69 21 122t56.5 89t82 54.5t96.5 18.5t87 -14t61 -37.5t36 -53.5t12 -63q0 -28 -5 -53.5t-15 -45.5h-273q-9 -46 8 -75t54 -29zM328 284q1 5 1.5 10t0.5 11 q0 25 -10.5 42t-39.5 17q-30 0 -48.5 -24t-26.5 -56h123z"></glyph><glyph glyph-name="f" unicode="f" d="M103 348h-69l20 114h69l6 37q7 47 27 80.5t48 55t63 31.5t73 10q70 0 129 -26l-44 -122q-35 24 -80 24q-29 0 -43.5 -14t-19.5 -39l-8 -37h118l-20 -114h-118l-73 -418q-7 -39 -19 -65.5t-31 -43.5t-46.5 -24.5t-65.5 -7.5q-31 0 -54 5t-45 17l27 105q14 -10 24 -13 t21 -3q18 0 27 9.5t13 30.5z"></glyph><glyph glyph-name="g" unicode="g" d="M346 269q3 18 2.5 34.5t-6 29t-17.5 20.5t-32 8q-27 0 -46.5 -14t-32 -37t-18.5 -53t-6 -62q0 -35 14 -60.5t44 -25.5q69 0 86 93zM449 1q-19 -109 -86 -160.5t-188 -51.5q-78 0 -136.5 24.5t-83.5 83.5l111 83q9 -35 41 -55.5t70 -20.5q59 0 87 32.5t39 85.5l12 63 q-16 -49 -51 -68t-79 -19q-77 0 -115 51t-38 138q0 59 14.5 111t42 91t68.5 61.5t95 22.5q46 0 78 -20.5t35 -67.5l29 77h136z"></glyph><glyph glyph-name="h" unicode="h" d="M482 157q-3 -17 1 -29t27 -12q7 0 14 1.5t16 3.5l-24 -113q-19 -6 -39.5 -9.5t-39.5 -3.5q-135 0 -112 135l25 144q5 32 -3.5 54t-43.5 22q-27 0 -48 -25t-31 -80l-43 -245h-151l117 668h152l-53 -300q22 51 55 78t91 27q55 0 87 -32t32 -86q0 -12 -0.5 -21t-2.5 -18z "></glyph><glyph glyph-name="i" unicode="i" d="M196 157q-3 -17 1 -29t27 -12q7 0 14 1.5t16 3.5l-24 -113q-19 -6 -39.5 -9.5t-39.5 -3.5q-135 0 -112 135l59 332h151zM104 601q0 42 26 62.5t62 20.5q39 0 65 -20.5t26 -62.5q0 -41 -26 -61.5t-65 -20.5q-36 0 -62 20.5t-26 61.5z"></glyph><glyph glyph-name="j" unicode="j" d="M158 -59q-15 -86 -62.5 -119t-127.5 -33q-38 0 -69.5 8t-53.5 20l40 109q14 -11 29.5 -18.5t36.5 -7.5q25 0 39 14t22 58l86 490h151zM104 601q0 42 26 62.5t62 20.5q39 0 65 -20.5t26 -62.5q0 -41 -26 -61.5t-65 -20.5q-36 0 -62 20.5t-26 61.5z"></glyph><glyph glyph-name="k" unicode="k" d="M246 192h-31l-34 -192h-151l117 668h152l-64 -362h23l137 156h182l-200 -216l53 -100q14 -26 32 -29.5t50 6.5l-24 -117q-15 -5 -32 -8t-43 -3q-37 0 -66 15.5t-48 59.5z"></glyph><glyph glyph-name="l" unicode="l" d="M196 157q-3 -17 1 -29t27 -12q7 0 14 1.5t16 3.5l-24 -113q-19 -6 -39.5 -9.5t-39.5 -3.5q-135 0 -112 135l96 538h151z"></glyph><glyph glyph-name="m" unicode="m" d="M291 0l47 274q5 32 -3 54t-38 22q-32 0 -47.5 -25t-25.5 -80l-43 -245h-151l81 462h132l2 -94q20 52 50 78.5t86 26.5q57 0 87 -28t30 -82q32 110 143 110q57 0 87.5 -32t30.5 -86q0 -12 -0.5 -21t-2.5 -18l-26 -159q-3 -17 1 -29t27 -12q7 0 14 1.5t16 3.5l-24 -113 q-19 -6 -39.5 -9.5t-39.5 -3.5q-135 0 -112 135l25 144q5 32 -3 54t-38 22q-32 0 -48 -25t-25 -80l-40 -245h-153z"></glyph><glyph glyph-name="n" unicode="n" d="M482 157q-3 -17 1 -29t27 -12q7 0 14 1.5t16 3.5l-24 -113q-19 -6 -39.5 -9.5t-39.5 -3.5q-135 0 -112 135l25 144q5 32 -3.5 54t-43.5 22q-27 0 -48 -25t-31 -80l-43 -245h-151l81 462h132l2 -94q22 51 55.5 78t91.5 27q55 0 87 -32t32 -86q0 -12 -0.5 -21t-2.5 -18z "></glyph><glyph glyph-name="o" unicode="o" d="M293 473q99 0 156.5 -52.5t57.5 -152.5q0 -55 -16 -105.5t-48.5 -89.5t-81.5 -62t-115 -23q-46 0 -85.5 12t-68.5 36.5t-45.5 61.5t-16.5 86q0 57 16 109.5t48.5 92.5t82 63.5t116.5 23.5zM284 355q-22 0 -39 -13t-29 -35.5t-18.5 -54t-6.5 -67.5q0 -42 16.5 -62.5 t45.5 -20.5q22 0 39.5 12.5t29.5 35t18.5 53.5t6.5 68q0 42 -16.5 63t-46.5 21z"></glyph><glyph glyph-name="p" unicode="p" d="M215 195q-8 -43 7 -73.5t52 -30.5q27 0 47 15t34 39.5t21 55.5t7 63q0 48 -20 71t-52 23q-29 0 -52.5 -26t-33.5 -82zM146 -203h-152l117 665h133l2 -89q19 48 53 74t91 26q33 0 61.5 -11.5t49.5 -35t33 -60t12 -87.5q0 -62 -16 -115t-46 -92t-74 -61.5t-100 -22.5 q-45 0 -77.5 19t-39.5 61z"></glyph><glyph glyph-name="q" unicode="q" d="M347 269q3 18 2.5 34.5t-6 29t-17.5 20.5t-32 8q-27 0 -47 -15.5t-33 -40.5t-19.5 -56.5t-6.5 -63.5q0 -35 14 -60.5t44 -25.5q69 0 86 93zM262 -203l49 277q-14 -45 -49 -65.5t-79 -20.5q-77 0 -115 51t-38 138q0 59 14.5 113t43 94.5t70 64.5t95.5 24q46 0 78 -20.5 t35 -67.5l29 77h136l-116 -665h-153z"></glyph><glyph glyph-name="r" unicode="r" d="M393 294q-25 13 -52.5 17t-52.5 -3.5t-43.5 -28.5t-24.5 -57l-39 -222h-151l81 462h132l-3 -127q12 36 32 64t44.5 46.5t53 25t58.5 -1.5z"></glyph><glyph glyph-name="s" unicode="s" d="M122 163q3 -37 23.5 -56t51.5 -19q23 0 38 8t15 28q0 17 -13 28.5t-51 21.5q-66 17 -95.5 51.5t-29.5 89.5q0 42 16 72t43 49t63.5 28t77.5 9q91 0 136.5 -35t45.5 -96l-125 -31q0 29 -17 46t-49 17q-22 0 -35 -10t-13 -26q0 -8 3 -14t11 -11t22 -10.5t37 -12.5 q34 -11 58 -24t38 -30.5t20.5 -41t6.5 -54.5q0 -41 -16 -70t-44 -47t-66.5 -26.5t-83.5 -8.5q-39 0 -72 7t-57.5 22.5t-40.5 40t-20 59.5z"></glyph><glyph glyph-name="t" unicode="t" d="M321 17q-22 -13 -57.5 -21t-73.5 -8q-39 0 -68 10t-47 31.5t-23.5 55.5t2.5 81l32 182h-66l20 114h67l17 98l153 17l-19 -115h120l-20 -114h-120l-32 -179q-5 -29 5.5 -39.5t32.5 -10.5q18 0 39.5 7t37.5 16v-125z"></glyph><glyph glyph-name="u" unicode="u" d="M328 89q-22 -53 -58.5 -77t-95.5 -24q-75 0 -109.5 46.5t-20.5 129.5l53 298h151l-52 -301q-5 -32 6.5 -48t37.5 -16q31 0 54.5 22t32.5 79l47 264h151l-53 -305q-3 -17 1.5 -29t25.5 -12q7 0 14 1.5t16 3.5l-24 -113q-19 -6 -39.5 -9.5t-39.5 -3.5q-101 0 -98 94z"></glyph><glyph glyph-name="v" unicode="v" d="M30 462h152l20 -196q3 -32 3.5 -59.5t-0.5 -47.5q-1 -24 -4 -43h4q5 22 13 48q7 22 17 48.5t25 53.5l107 196h158l-263 -462h-161z"></glyph><glyph glyph-name="w" unicode="w" d="M473 288q4 -35 4 -67.5t-2 -57.5q-2 -29 -6 -55h4q5 25 13 54q7 25 17.5 57t24.5 67l71 176h159l-200 -462h-176l-18 147q-2 26 -2 52.5t2 48.5q2 26 4 49h-4q-5 -23 -12 -49q-6 -22 -15 -48.5t-20 -53.5l-57 -146h-175l-45 462h152l13 -176q5 -72 3 -124q-1 -29 -3 -54 h4q5 26 13 55q7 25 17 57.5t24 67.5l70 174h128z"></glyph><glyph glyph-name="x" unicode="x" d="M277 77q-10 23 -15 39.5t-7 27.5q-3 13 -3 22h-4q-2 -9 -8 -22q-5 -11 -15.5 -27.5t-27.5 -39.5l-60 -77h-167l187 230l-97 232h160l26 -64q17 -44 21 -67q3 -14 4 -25h4q5 13 13 28q7 13 16 29t23 34l49 65h168l-181 -227l108 -235h-155z"></glyph><glyph glyph-name="y" unicode="y" d="M210 238q2 -30 2 -55t-1 -42q-1 -21 -3 -37h4q5 22 12 46q6 20 14.5 44.5t21.5 48.5l116 219h157l-282 -504q-30 -54 -58 -87.5t-56.5 -51.5t-58 -24t-61.5 -6t-56.5 6t-40.5 14l44 123q11 -8 26 -14t32 -6q30 0 52.5 15.5t39.5 46.5l-77 488h155z"></glyph><glyph glyph-name="z" unicode="z" d="M194 283q15 17 28.5 30t24.5 21q12 10 23 16v4q-12 -2 -25 -4q-11 -2 -27 -3t-34 -1h-109l25 116h364l-10 -88l-179 -197q-16 -17 -29 -29.5t-24 -20.5q-12 -10 -22 -17v-4q11 2 24 4q11 2 26.5 3t34.5 1h127l-21 -114h-381l13 82z"></glyph><glyph glyph-name="braceleft" unicode="{" d="M171 226q21 -2 39 -7.5t30.5 -18.5t17.5 -34t-1 -53l-25 -144q-5 -31 1 -47t34 -16q20 0 32 3.5t33 14.5l6 -102q-51 -32 -134 -32q-43 0 -69 12t-39.5 32.5t-15.5 47.5t4 58l27 155q8 46 -8.5 61.5t-46.5 15.5h-41l19 112h41q30 0 52.5 15.5t30.5 61.5l27 155 q6 31 17.5 58t32 47.5t51 32.5t73.5 12q83 0 122 -32l-42 -102q-17 11 -28 14.5t-31 3.5q-28 0 -40 -16t-17 -47l-25 -144q-6 -34 -18.5 -55t-29.5 -33.5t-37 -18t-41 -6.5z"></glyph><glyph glyph-name="bar" unicode="|" d="M-5 -203l153 871h117l-153 -871h-117z"></glyph><glyph glyph-name="braceright" unicode="}" d="M255 230q-21 2 -39 7.5t-30.5 18.5t-17.5 34t1 53l25 144q5 31 -1 47t-34 16q-20 0 -32 -3.5t-33 -14.5l-6 102q51 32 134 32q43 0 69 -12t39.5 -32.5t15.5 -47.5t-4 -58l-27 -155q-8 -46 8.5 -61.5t46.5 -15.5h41l-19 -112h-41q-30 0 -52.5 -15.5t-30.5 -61.5l-27 -155 q-6 -31 -17.5 -58t-32 -47.5t-51 -32.5t-73.5 -12q-83 0 -122 32l42 102q17 -11 28 -14.5t31 -3.5q28 0 40 16t17 47l25 144q6 34 18.5 55t29.5 33.5t37 17.5t41 7z"></glyph><glyph glyph-name="asciitilde" unicode="~" d="M176 221q-13 8 -30 8q-16 0 -29 -8.5t-16 -30.5l-59 25q-6 19 -6 38q0 20 6.5 39t19 34t31 24t41.5 9q12 0 27.5 -3t31.5 -11l37 -18q14 -8 34 -8q14 0 26.5 8t19.5 30l63 -29l2 -14t1 -15q0 -23 -7 -43.5t-19.5 -36.5t-30.5 -25.5t-39 -9.5q-25 0 -48 11z"></glyph><glyph glyph-name="nonbreakingspace" unicode=" "></glyph><glyph glyph-name="exclamdown" unicode="¡" d="M-23 -127l120 383h98l-36 -383h-182zM260 385q0 -38 -25.5 -60.5t-63.5 -22.5q-39 0 -65 22.5t-26 60.5t26 60t65 22q38 0 63.5 -22t25.5 -60z"></glyph><glyph glyph-name="cent" unicode="¢" d="M481 113q-34 -60 -85 -91.5t-130 -33.5l-16 -94h-50l17 96q-80 9 -128.5 60t-48.5 145q0 57 16.5 110t49.5 94t82.5 65.5t116.5 26.5l15 83h50l-15 -85q39 -5 66.5 -17.5t46.5 -31t29.5 -43t16.5 -51.5l-142 -48q-2 20 -10.5 39t-28.5 29l-45 -256q29 5 44 26t27 48z M191 202q0 -32 12 -55t36 -33l45 259q-45 -7 -69 -53t-24 -118z"></glyph><glyph glyph-name="sterling" unicode="£" d="M259 194q-3 -17 -11 -33q-17 -30 -46 -41h120q21 0 42.5 7.5t39.5 39.5l90 -60q-17 -53 -62.5 -80t-102.5 -27h-319l21 120h41q32 0 47 21t15 46v7h-86l13 73h58q-4 12 -7 28t-3 43q0 38 16.5 67t44 48.5t64.5 29t79 9.5q35 0 67 -6.5t56.5 -22.5t39 -42.5t14.5 -66.5 l-136 -35q0 60 -58 60q-26 0 -41 -15t-15 -38q0 -19 4 -31.5t9 -27.5h131l-13 -73h-112z"></glyph><glyph glyph-name="currency" unicode="¤" d="M85 197q-19 30 -19 70q0 38 12 73.5t36 62.5l-44 54l38 33l45 -56q42 25 102 25q64 0 104 -29l73 62l29 -35l-71 -61q19 -32 19 -73q0 -39 -13 -74.5t-39 -61.5l47 -56l-38 -33l-49 60q-39 -21 -95 -21q-31 0 -58 6.5t-47 20.5l-78 -66l-29 35zM249 380q-32 0 -49.5 -32 t-17.5 -80q0 -28 12.5 -41.5t32.5 -13.5q32 0 49.5 31t17.5 81q0 28 -12 41.5t-33 13.5z"></glyph><glyph glyph-name="yen" unicode="¥" d="M394 240l-34 -47h144l-4 -53h-172l-24 -140h-151l24 140h-152l4 53h133l-20 47h-109l5 53h82l-77 188h159l42 -116q9 -24 14 -43.5t7 -33.5q3 -16 3 -28h4q3 12 10 28q6 14 16 33t27 43l79 117h164l-136 -188h81l-5 -53h-114z"></glyph><glyph glyph-name="brokenbar" unicode="¦" d="M80 278l68 390h117l-68 -390h-117zM-5 -202l68 389h117l-68 -389h-117z"></glyph><glyph glyph-name="section" unicode="§" d="M20 231q0 54 27.5 84t69.5 43q-12 18 -17 39t-5 46q0 45 18 75.5t46.5 49t64 26t71.5 7.5q95 0 138.5 -35t43.5 -96l-125 -31q0 29 -19.5 46t-46.5 17q-22 0 -34.5 -10t-12.5 -26q0 -8 3 -14.5t11.5 -12.5t23.5 -12.5t40 -13.5q38 -12 63 -26t40 -32t21 -39t6 -46 q0 -51 -26 -82t-71 -45q12 -17 17 -37.5t5 -43.5q0 -40 -15.5 -68.5t-43 -47t-65.5 -27t-83 -8.5q-95 0 -140 32t-50 96l122 38q5 -37 26.5 -55t48.5 -18q22 0 36 8t14 28q0 17 -13 27t-55 21q-77 20 -105.5 56.5t-28.5 86.5zM242 208q8 -3 16 -5.5t16 -5.5q12 7 19.5 19.5 t7.5 26.5q0 17 -15 28t-57 22q-12 3 -22.5 6t-20.5 8q-12 -8 -19 -21t-7 -24q0 -8 3.5 -14.5t12.5 -13t25 -13t41 -13.5z"></glyph><glyph glyph-name="dieresis" unicode="¨" d="M80 596q0 42 23.5 61.5t55.5 19.5q35 0 58.5 -19.5t23.5 -61.5q0 -40 -23.5 -60t-58.5 -20q-32 0 -55.5 20t-23.5 60zM305 596q0 42 23.5 61.5t55.5 19.5q35 0 58.5 -19.5t23.5 -61.5q0 -40 -23.5 -60t-58.5 -20q-32 0 -55.5 20t-23.5 60z"></glyph><glyph glyph-name="copyright" unicode="©" d="M522 196q-28 -48 -70 -73t-108 -25q-37 0 -68 10t-53.5 30t-35 50.5t-12.5 71.5q0 45 13 87t40 74.5t67.5 51.5t94.5 19q40 0 68.5 -9t46.5 -24.5t28 -37t15 -45.5l-115 -38q-1 21 -12 36t-40 15q-20 0 -35.5 -10t-26 -27t-16 -39.5t-5.5 -46.5q0 -30 14 -50t44 -20 t44 17.5t23 40.5zM55 294q0 67 24 123t65.5 97t97.5 64t119 23t119 -23t98 -64t66 -97t24 -123t-24 -123t-66 -96.5t-98 -63.5t-119 -23t-119 23t-97.5 63.5t-65.5 96.5t-24 123zM86 294q0 -61 22 -112t59.5 -87.5t88 -57t107.5 -20.5t107 20.5t87.5 57t59 87.5t21.5 112 t-21.5 112t-59 88t-87.5 57.5t-107 20.5t-107.5 -20.5t-88 -57.5t-59.5 -88t-22 -112z"></glyph><glyph glyph-name="ordfeminine" unicode="ª" d="M268 465q5 24 -2.5 42.5t-37.5 18.5q-20 0 -35 -10t-25 -26.5t-14.5 -37.5t-4.5 -42q0 -24 10 -40.5t33 -16.5q52 0 65 61zM366 391q-2 -11 1 -19t20 -8q9 0 23 3l-18 -75q-30 -8 -59 -8q-41 0 -61.5 12.5t-25.5 42.5q-11 -32 -39.5 -46t-61.5 -14q-57 0 -86 34t-29 91 q0 39 11 75t32.5 63t52.5 43t72 16q34 0 58 -13.5t26 -45.5l22 51h102z"></glyph><glyph glyph-name="guillemotleft" unicode="«" d="M159 233l12 -9q6 -5 13.5 -13t16.5 -19l76 -98l-87 -69l-165 212l240 212l65 -73l-114 -103q-13 -11 -23 -18t-18 -11q-9 -4 -16 -7v-4zM395 233l12 -9q6 -5 13.5 -13t16.5 -19l76 -98l-87 -69l-165 212l240 212l65 -73l-114 -103q-13 -11 -23 -18t-18 -11q-9 -4 -16 -7 v-4z"></glyph><glyph glyph-name="logicalnot" unicode="¬" d="M40 233l14 82h408l-34 -194h-94l20 112h-314z"></glyph><glyph glyph-name="uni00AD" unicode="­" d="M82 322h224l-22 -125h-224z"></glyph><glyph glyph-name="registered" unicode="®" d="M406 120q-7 8 -10 17.5t-6 22.5l-5 28q-4 19 -12 27.5t-30 8.5h-33l-18 -104h-112l63 361h166q70 0 100.5 -28t30.5 -76q0 -56 -31.5 -81.5t-77.5 -29.5v-3q29 -2 44 -14.5t20 -32.5l13 -53q3 -14 7 -24.5t12 -18.5h-121zM325 308h51q23 0 38.5 10.5t15.5 39.5 q0 17 -9 25.5t-30 8.5h-51zM55 294q0 67 24 123t65.5 97t97.5 64t119 23t119 -23t98 -64t66 -97t24 -123t-24 -123t-66 -96.5t-98 -63.5t-119 -23t-119 23t-97.5 63.5t-65.5 96.5t-24 123zM86 294q0 -61 22 -112t59.5 -87.5t88 -57t107.5 -20.5t107 20.5t87.5 57t59 87.5 t21.5 112t-21.5 112t-59 88t-87.5 57.5t-107 20.5t-107.5 -20.5t-88 -57.5t-59.5 -88t-22 -112z"></glyph><glyph glyph-name="macron" unicode="¯" d="M80 533l22 120h305l-22 -120h-305z"></glyph><glyph glyph-name="degree" unicode="°" d="M45 463q0 28 10 53t28 44t44 30t58 11q27 0 49 -9t37 -25t23.5 -36.5t8.5 -44.5q0 -29 -10 -54.5t-28 -44.5t-43.5 -30t-56.5 -11q-61 0 -90.5 33.5t-29.5 83.5zM182 532q-27 0 -43.5 -19.5t-16.5 -46.5q0 -22 12 -36t35 -14q29 0 44.5 20t15.5 46q0 21 -12 35.5 t-35 14.5z"></glyph><glyph glyph-name="plusminus" unicode="±" d="M249 366l21 120h88l-21 -120h162l-14 -82h-162l-24 -134h-88l24 134h-158l14 82h158zM30 18l14 82h408l-14 -82h-408z"></glyph><glyph glyph-name="twosuperior" unicode="²" d="M278 236h-283l12 68q49 28 85.5 51t61 42.5t37 37.5t12.5 36q0 37 -40 37q-17 0 -31.5 -13t-20.5 -46l-88 30q3 24 14 45t29.5 37.5t46 26t64.5 9.5q60 0 97 -28t37 -82q0 -38 -18.5 -65.5t-46.5 -46.5t-59.5 -31.5t-57.5 -19.5v-4h164z"></glyph><glyph glyph-name="threesuperior" unicode="³" d="M201 413q46 -6 65.5 -27t19.5 -54q0 -52 -43.5 -77.5t-110.5 -25.5q-57 0 -92.5 23t-40.5 68l92 31q2 -20 10 -32.5t31 -12.5q18 0 29.5 8t11.5 22q0 7 -2 15t-10 14t-23 10t-41 4l11 60q27 1 43 5t25 10.5t12 13.5t3 14q0 16 -9 23t-20 7q-35 0 -44 -37l-80 33 q14 45 50 67t90 22q55 0 89 -22.5t34 -70.5q0 -38 -25.5 -60t-73.5 -29z"></glyph><glyph glyph-name="acute" unicode="´" d="M80 525l69 156h184l-117 -156h-136z"></glyph><glyph glyph-name="mu" unicode="µ" d="M327 71q-11 -26 -23.5 -42.5t-27 -25.5t-31 -12t-35.5 -3q-17 0 -27.5 4.5t-14.5 10.5l-36 -206h-153l118 665h151l-52 -301q-5 -32 6.5 -48t37.5 -16q31 0 54.5 22t32.5 79l47 264h151l-53 -305q-3 -17 1.5 -29t25.5 -12q7 0 14 1.5t16 3.5l-24 -113q-19 -6 -39.5 -9.5 t-39.5 -3.5q-52 0 -73 18t-26 58z"></glyph><glyph glyph-name="paragraph" unicode="¶" d="M457 -7q-8 -44 -26.5 -73.5t-45 -48t-59 -26.5t-67.5 -8q-34 0 -58 5.5t-50 21.5l46 128q16 -16 35 -22.5t37 -6.5q20 0 33 12.5t19 46.5l27 152h-49q-51 0 -91 12t-65.5 37t-35.5 63t-1 89q10 57 34.5 98t61 66.5t85 37.5t106.5 12h248l-21 -121h-79z"></glyph><glyph glyph-name="periodcentered" unicode="·" d="M50 264q0 41 26 67.5t64 26.5q41 0 67.5 -26.5t26.5 -67.5q0 -38 -26.5 -64t-67.5 -26q-38 0 -64 26t-26 64z"></glyph><glyph glyph-name="periodcentered" unicode="⋅" d="M50 264q0 41 26 67.5t64 26.5q41 0 67.5 -26.5t26.5 -67.5q0 -38 -26.5 -64t-67.5 -26q-38 0 -64 26t-26 64z"></glyph><glyph glyph-name="cedilla" unicode="¸" d="M309 -116q0 -48 -34.5 -71.5t-84.5 -23.5q-37 0 -66.5 10t-43.5 26l26 67q17 -18 33 -26t30 -8q31 0 31 24q0 28 -42 38l41 101h55l-24 -56q40 -6 59.5 -24t19.5 -57z"></glyph><glyph glyph-name="onesuperior" unicode="¹" d="M5 236l14 79h91l31 177l-101 -7l15 84l209 20l-48 -274h84l-14 -79h-281z"></glyph><glyph glyph-name="ordmasculine" unicode="º" d="M219 601q71 0 112.5 -35t41.5 -101q0 -37 -11.5 -70.5t-35 -59t-58.5 -41t-82 -15.5q-33 0 -61.5 8t-49.5 24.5t-33 40.5t-12 57q0 38 11.5 72.5t35 61t59 42.5t83.5 16zM213 522q-32 0 -49.5 -32t-17.5 -80q0 -28 12.5 -41.5t32.5 -13.5q32 0 49.5 31t17.5 81 q0 28 -12 41.5t-33 13.5z"></glyph><glyph glyph-name="guillemotright" unicode="»" d="M196 241q-5 3 -12 9q-6 5 -14 13t-16 19l-76 98l87 69l165 -212l-240 -212l-65 73l114 103q13 11 23 18t18 11q9 4 16 7v4zM432 241q-5 3 -12 9q-6 5 -14 13t-16 19l-76 98l87 69l165 -212l-240 -212l-65 73l114 103q13 11 23 18t18 11q9 4 16 7v4z"></glyph><glyph glyph-name="onequarter" unicode="¼" d="M12 236l14 79h91l31 177l-101 -7l15 84l209 20l-48 -274h84l-14 -79h-281zM608 589h92l-411 -589h-89zM718 64h-173l13 72l215 217h104l-37 -212h47l-14 -77h-47l-11 -64h-108zM744 197q5 27 11 49q3 12 6 23h-4q-4 -7 -9 -15q-5 -7 -11.5 -16t-14.5 -17l-35 -37 q-10 -11 -20 -19.5t-18 -14.5q-10 -7 -18 -13v-4q7 1 16 3q8 1 18 2t23 1h46z"></glyph><glyph glyph-name="onehalf" unicode="½" d="M12 236l14 79h91l31 177l-101 -7l15 84l209 20l-48 -274h84l-14 -79h-281zM608 589h92l-411 -589h-89zM818 0h-283l12 68q49 28 85.5 51t61 42.5t37 37.5t12.5 36q0 37 -40 37q-17 0 -31.5 -13t-20.5 -46l-88 30q3 24 14 45t29.5 37.5t46 26t64.5 9.5q60 0 97 -28t37 -82 q0 -38 -18.5 -65.5t-46.5 -46.5t-59.5 -31.5t-57.5 -19.5v-4h164z"></glyph><glyph glyph-name="threequarters" unicode="¾" d="M608 589h92l-411 -589h-89zM221 413q46 -6 65.5 -27t19.5 -54q0 -52 -43.5 -77.5t-110.5 -25.5q-57 0 -92.5 23t-40.5 68l92 31q2 -20 10 -32.5t31 -12.5q18 0 29.5 8t11.5 22q0 7 -2 15t-10 14t-23 10t-41 4l11 60q27 1 43 5t25 10.5t12 13.5t3 14q0 16 -9 23t-20 7 q-35 0 -44 -37l-80 33q14 45 50 67t90 22q55 0 89 -22.5t34 -70.5q0 -38 -25.5 -60t-73.5 -29zM718 64h-173l13 72l215 217h104l-37 -212h47l-14 -77h-47l-11 -64h-108zM744 197q5 27 11 49q3 12 6 23h-4q-4 -7 -9 -15q-5 -7 -11.5 -16t-14.5 -17l-35 -37q-10 -11 -20 -19.5 t-18 -14.5q-10 -7 -18 -13v-4q7 1 16 3q8 1 18 2t23 1h46z"></glyph><glyph glyph-name="questiondown" unicode="¿" d="M437 33q-21 -87 -79 -129.5t-152 -42.5q-105 0 -158 46.5t-53 129.5q0 47 18.5 80.5t48.5 54.5t67.5 30.5t75.5 9.5l11 54h128l-24 -134h-48q-56 0 -90.5 -15.5t-34.5 -59.5q0 -31 17 -48.5t52 -17.5q38 0 59 19.5t26 69.5zM385 385q0 -38 -25.5 -60.5t-63.5 -22.5 q-39 0 -65 22.5t-26 60.5t26 60t65 22q38 0 63.5 -22t25.5 -60z"></glyph><glyph glyph-name="Agrave" unicode="À" d="M323 645l-113 150h184l65 -150h-136zM410 110h-217l-56 -110h-162l316 589h183l112 -589h-156zM257 235h131q-9 42 -14.5 83.5t-8.5 73.5t-4 52t0 20h-4q-8 -26 -19 -56q-10 -26 -24 -58.5t-33 -68.5z"></glyph><glyph glyph-name="Aacute" unicode="Á" d="M410 110h-217l-56 -110h-162l316 589h183l112 -589h-156zM257 235h131q-9 42 -14.5 83.5t-8.5 73.5t-4 52t0 20h-4q-8 -26 -19 -56q-10 -26 -24 -58.5t-33 -68.5zM309 645l65 150h184l-113 -150h-136z"></glyph><glyph glyph-name="Acircumflex" unicode="Â" d="M410 110h-217l-56 -110h-162l316 589h183l112 -589h-156zM257 235h131q-9 42 -14.5 83.5t-8.5 73.5t-4 52t0 20h-4q-8 -26 -19 -56q-10 -26 -24 -58.5t-33 -68.5zM448 795l111 -150h-131l-24 30q-5 6 -7.5 11.5t-4.5 9.5t-2 8h-5q-2 -4 -5 -8t-7 -9.5t-12 -11.5l-36 -30 h-137l165 150h95z"></glyph><glyph glyph-name="Atilde" unicode="Ã" d="M410 110h-217l-56 -110h-162l316 589h183l112 -589h-156zM257 235h131q-9 42 -14.5 83.5t-8.5 73.5t-4 52t0 20h-4q-8 -26 -19 -56q-10 -26 -24 -58.5t-33 -68.5zM455 647q-31 0 -46.5 7t-32.5 18q-20 13 -31 19t-22 6q-15 0 -26.5 -13t-12.5 -39h-81q-9 37 -3 68 t22.5 53t41 34t53.5 12q26 0 40.5 -6.5t27.5 -14.5q21 -14 33.5 -21.5t25.5 -7.5q14 0 23.5 10.5t10.5 36.5h84q10 -37 6.5 -67t-18.5 -51t-39.5 -32.5t-55.5 -11.5z"></glyph><glyph glyph-name="Adieresis" unicode="Ä" d="M410 110h-217l-56 -110h-162l316 589h183l112 -589h-156zM257 235h131q-9 42 -14.5 83.5t-8.5 73.5t-4 52t0 20h-4q-8 -26 -19 -56q-10 -26 -24 -58.5t-33 -68.5zM199 726q0 42 23.5 61.5t55.5 19.5q35 0 58.5 -19.5t23.5 -61.5q0 -40 -23.5 -60t-58.5 -20 q-32 0 -55.5 20t-23.5 60zM424 726q0 42 23.5 61.5t55.5 19.5q35 0 58.5 -19.5t23.5 -61.5q0 -40 -23.5 -60t-58.5 -20q-32 0 -55.5 20t-23.5 60z"></glyph><glyph glyph-name="Aring" unicode="Å" d="M410 110h-217l-56 -110h-162l316 589h183l112 -589h-156zM257 235h131q-9 42 -14.5 83.5t-8.5 73.5t-4 52t0 20h-4q-8 -26 -19 -56q-10 -26 -24 -58.5t-33 -68.5zM286 733q0 25 9 47t25.5 39t39.5 27t52 10q48 0 76.5 -30t28.5 -73q0 -26 -9 -49t-25 -40t-39 -26.5 t-50 -9.5q-54 0 -81 30t-27 75zM407 790q-23 0 -35.5 -15.5t-12.5 -37.5q0 -18 10 -29t29 -11q24 0 36.5 16t12.5 38q0 17 -10 28t-30 11z"></glyph><glyph glyph-name="AE" unicode="Æ" d="M427 110h-216l-85 -110h-171l458 589h504l-23 -130h-254l-17 -98h223l-22 -125h-223l-19 -106h254l-22 -130h-406zM307 235h142l19 110q6 37 11 61.5t9 39.5q4 18 8 28h-4z"></glyph><glyph glyph-name="Ccedilla" unicode="Ç" d="M349 -116q0 -48 -34.5 -71.5t-84.5 -23.5q-37 0 -66.5 10t-43.5 26l26 67q17 -18 33 -26t30 -8q31 0 31 24q0 28 -42 38l30 75q-88 17 -133 78t-45 161q0 86 25 154t67.5 115.5t99 72.5t120.5 25q57 0 98.5 -13.5t69.5 -37.5t44 -57t22 -71l-158 -51q-2 22 -6.5 40 t-14 31t-25.5 20t-40 7q-35 0 -62.5 -18t-46 -49t-28.5 -73t-10 -90q0 -60 27 -91.5t72 -31.5q37 0 66 18.5t55 70.5l130 -68q-38 -78 -101.5 -113.5t-156.5 -35.5h-17l-10 -23q40 -6 59.5 -24t19.5 -57z"></glyph><glyph glyph-name="Egrave" unicode="È" d="M436 0h-406l103 589h406l-23 -130h-254l-17 -98h223l-22 -125h-223l-19 -106h254zM276 645l-113 150h184l65 -150h-136z"></glyph><glyph glyph-name="Eacute" unicode="É" d="M436 0h-406l103 589h406l-23 -130h-254l-17 -98h223l-22 -125h-223l-19 -106h254zM262 645l65 150h184l-113 -150h-136z"></glyph><glyph glyph-name="Ecircumflex" unicode="Ê" d="M436 0h-406l103 589h406l-23 -130h-254l-17 -98h223l-22 -125h-223l-19 -106h254zM400 795l111 -150h-131l-24 30q-5 6 -7.5 11.5t-4.5 9.5t-2 8h-5q-2 -4 -5 -8t-7 -9.5t-12 -11.5l-36 -30h-137l165 150h95z"></glyph><glyph glyph-name="Edieresis" unicode="Ë" d="M436 0h-406l103 589h406l-23 -130h-254l-17 -98h223l-22 -125h-223l-19 -106h254zM152 726q0 42 23.5 61.5t55.5 19.5q35 0 58.5 -19.5t23.5 -61.5q0 -40 -23.5 -60t-58.5 -20q-32 0 -55.5 20t-23.5 60zM377 726q0 42 23.5 61.5t55.5 19.5q35 0 58.5 -19.5t23.5 -61.5 q0 -40 -23.5 -60t-58.5 -20q-32 0 -55.5 20t-23.5 60z"></glyph><glyph glyph-name="Igrave" unicode="Ì" d="M285 589l-103 -589h-152l103 589h152zM158 645l-113 150h184l65 -150h-136z"></glyph><glyph glyph-name="Iacute" unicode="Í" d="M285 589l-103 -589h-152l103 589h152zM144 645l65 150h184l-113 -150h-136z"></glyph><glyph glyph-name="Icircumflex" unicode="Î" d="M285 589l-103 -589h-152l103 589h152zM283 795l111 -150h-131l-24 30q-5 6 -7.5 11.5t-4.5 9.5t-2 8h-5q-2 -4 -5 -8t-7 -9.5t-12 -11.5l-36 -30h-137l165 150h95z"></glyph><glyph glyph-name="Idieresis" unicode="Ï" d="M285 589l-103 -589h-152l103 589h152zM34 726q0 42 23.5 61.5t55.5 19.5q35 0 58.5 -19.5t23.5 -61.5q0 -40 -23.5 -60t-58.5 -20q-32 0 -55.5 20t-23.5 60zM259 726q0 42 23.5 61.5t55.5 19.5q35 0 58.5 -19.5t23.5 -61.5q0 -40 -23.5 -60t-58.5 -20q-32 0 -55.5 20 t-23.5 60z"></glyph><glyph glyph-name="Eth" unicode="Ð" d="M30 0l41 238h-66l22 120h65l41 231h204q262 0 262 -234q0 -96 -28.5 -163.5t-77.5 -110t-114.5 -62t-139.5 -19.5h-209zM257 127q40 0 74 13.5t58.5 40.5t38 67t13.5 92q0 66 -35 94t-97 28h-46l-19 -104h108l-22 -120h-107l-19 -111h53z"></glyph><glyph glyph-name="Ntilde" unicode="Ñ" d="M403 327q8 -17 14.5 -32.5t11.5 -27.5q5 -14 8 -27h4q1 16 4 36q2 17 5 40t8 52l39 221h152l-103 -589h-134l-134 255q-11 19 -18 36t-12 31q-5 16 -9 29h-4q-1 -16 -3 -36q-2 -17 -5 -43t-9 -58l-36 -214h-152l103 589h139zM462 647q-31 0 -46.5 7t-32.5 18 q-20 13 -31 19t-22 6q-15 0 -26.5 -13t-12.5 -39h-81q-9 37 -3 68t22.5 53t41 34t53.5 12q26 0 40.5 -6.5t27.5 -14.5q21 -14 33.5 -21.5t25.5 -7.5q14 0 23.5 10.5t10.5 36.5h84q10 -37 6.5 -67t-18.5 -51t-39.5 -32.5t-55.5 -11.5z"></glyph><glyph glyph-name="Ograve" unicode="Ò" d="M297 -12q-60 0 -106.5 17t-77.5 49t-47 77.5t-16 102.5q0 86 25 154t67.5 115.5t99 72.5t120.5 25q122 0 184.5 -66.5t62.5 -180.5q0 -86 -25 -154t-67.5 -115t-99.5 -72t-120 -25zM352 469q-35 0 -62.5 -17.5t-46 -48.5t-28.5 -72t-10 -87q0 -63 27 -95.5t72 -32.5 q33 0 59.5 18t46 48.5t30 72.5t10.5 90q0 60 -26.5 92t-71.5 32zM320 645l-113 150h184l65 -150h-136z"></glyph><glyph glyph-name="Oacute" unicode="Ó" d="M297 -12q-60 0 -106.5 17t-77.5 49t-47 77.5t-16 102.5q0 86 25 154t67.5 115.5t99 72.5t120.5 25q122 0 184.5 -66.5t62.5 -180.5q0 -86 -25 -154t-67.5 -115t-99.5 -72t-120 -25zM352 469q-35 0 -62.5 -17.5t-46 -48.5t-28.5 -72t-10 -87q0 -63 27 -95.5t72 -32.5 q33 0 59.5 18t46 48.5t30 72.5t10.5 90q0 60 -26.5 92t-71.5 32zM306 645l65 150h184l-113 -150h-136z"></glyph><glyph glyph-name="Ocircumflex" unicode="Ô" d="M297 -12q-60 0 -106.5 17t-77.5 49t-47 77.5t-16 102.5q0 86 25 154t67.5 115.5t99 72.5t120.5 25q122 0 184.5 -66.5t62.5 -180.5q0 -86 -25 -154t-67.5 -115t-99.5 -72t-120 -25zM352 469q-35 0 -62.5 -17.5t-46 -48.5t-28.5 -72t-10 -87q0 -63 27 -95.5t72 -32.5 q33 0 59.5 18t46 48.5t30 72.5t10.5 90q0 60 -26.5 92t-71.5 32zM445 795l111 -150h-131l-24 30q-5 6 -7.5 11.5t-4.5 9.5t-2 8h-5q-2 -4 -5 -8t-7 -9.5t-12 -11.5l-36 -30h-137l165 150h95z"></glyph><glyph glyph-name="Otilde" unicode="Õ" d="M297 -12q-60 0 -106.5 17t-77.5 49t-47 77.5t-16 102.5q0 86 25 154t67.5 115.5t99 72.5t120.5 25q122 0 184.5 -66.5t62.5 -180.5q0 -86 -25 -154t-67.5 -115t-99.5 -72t-120 -25zM352 469q-35 0 -62.5 -17.5t-46 -48.5t-28.5 -72t-10 -87q0 -63 27 -95.5t72 -32.5 q33 0 59.5 18t46 48.5t30 72.5t10.5 90q0 60 -26.5 92t-71.5 32zM452 647q-31 0 -46.5 7t-32.5 18q-20 13 -31 19t-22 6q-15 0 -26.5 -13t-12.5 -39h-81q-9 37 -3 68t22.5 53t41 34t53.5 12q26 0 40.5 -6.5t27.5 -14.5q21 -14 33.5 -21.5t25.5 -7.5q14 0 23.5 10.5 t10.5 36.5h84q10 -37 6.5 -67t-18.5 -51t-39.5 -32.5t-55.5 -11.5z"></glyph><glyph glyph-name="Odieresis" unicode="Ö" d="M297 -12q-60 0 -106.5 17t-77.5 49t-47 77.5t-16 102.5q0 86 25 154t67.5 115.5t99 72.5t120.5 25q122 0 184.5 -66.5t62.5 -180.5q0 -86 -25 -154t-67.5 -115t-99.5 -72t-120 -25zM352 469q-35 0 -62.5 -17.5t-46 -48.5t-28.5 -72t-10 -87q0 -63 27 -95.5t72 -32.5 q33 0 59.5 18t46 48.5t30 72.5t10.5 90q0 60 -26.5 92t-71.5 32zM196 726q0 42 23.5 61.5t55.5 19.5q35 0 58.5 -19.5t23.5 -61.5q0 -40 -23.5 -60t-58.5 -20q-32 0 -55.5 20t-23.5 60zM421 726q0 42 23.5 61.5t55.5 19.5q35 0 58.5 -19.5t23.5 -61.5q0 -40 -23.5 -60 t-58.5 -20q-32 0 -55.5 20t-23.5 60z"></glyph><glyph glyph-name="multiply" unicode="×" d="M185 251l-97 122l67 57l99 -120l152 129l55 -65l-153 -130l106 -128l-68 -57l-106 128l-148 -127l-55 65z"></glyph><glyph glyph-name="Oslash" unicode="Ø" d="M29 28l57 60q-36 58 -36 146q0 86 25 154t67.5 115.5t99 72.5t120.5 25q53 0 94 -13t72 -37l47 50l49 -40l-54 -57q39 -60 39 -150q0 -86 -25 -154t-67.5 -115t-99.5 -72t-120 -25q-54 0 -96.5 13.5t-73.5 39.5l-51 -53zM450 345q0 16 -3 31l-216 -226q25 -34 73 -34 q33 0 59.5 18t46 48.5t30 72.5t10.5 90zM352 469q-35 0 -62.5 -17.5t-46 -48.5t-28.5 -72t-10 -87v-15.5t1 -14.5l214 225q-27 30 -68 30z"></glyph><glyph glyph-name="Ugrave" unicode="Ù" d="M618 589l-67 -380q-11 -64 -35.5 -106.5t-60.5 -68t-82.5 -36t-101.5 -10.5q-51 0 -95.5 12.5t-75.5 41t-43.5 75.5t-0.5 116l63 356h152l-63 -348q-5 -29 -4.5 -52.5t9.5 -40t28 -26t52 -9.5q32 0 51.5 9.5t31.5 26.5t18 41t11 53l61 346h152zM313 645l-113 150h184 l65 -150h-136z"></glyph><glyph glyph-name="Uacute" unicode="Ú" d="M618 589l-67 -380q-11 -64 -35.5 -106.5t-60.5 -68t-82.5 -36t-101.5 -10.5q-51 0 -95.5 12.5t-75.5 41t-43.5 75.5t-0.5 116l63 356h152l-63 -348q-5 -29 -4.5 -52.5t9.5 -40t28 -26t52 -9.5q32 0 51.5 9.5t31.5 26.5t18 41t11 53l61 346h152zM299 645l65 150h184 l-113 -150h-136z"></glyph><glyph glyph-name="Ucircumflex" unicode="Û" d="M618 589l-67 -380q-11 -64 -35.5 -106.5t-60.5 -68t-82.5 -36t-101.5 -10.5q-51 0 -95.5 12.5t-75.5 41t-43.5 75.5t-0.5 116l63 356h152l-63 -348q-5 -29 -4.5 -52.5t9.5 -40t28 -26t52 -9.5q32 0 51.5 9.5t31.5 26.5t18 41t11 53l61 346h152zM438 795l111 -150h-131 l-24 30q-5 6 -7.5 11.5t-4.5 9.5t-2 8h-5q-2 -4 -5 -8t-7 -9.5t-12 -11.5l-36 -30h-137l165 150h95z"></glyph><glyph glyph-name="Udieresis" unicode="Ü" d="M618 589l-67 -380q-11 -64 -35.5 -106.5t-60.5 -68t-82.5 -36t-101.5 -10.5q-51 0 -95.5 12.5t-75.5 41t-43.5 75.5t-0.5 116l63 356h152l-63 -348q-5 -29 -4.5 -52.5t9.5 -40t28 -26t52 -9.5q32 0 51.5 9.5t31.5 26.5t18 41t11 53l61 346h152zM189 726q0 42 23.5 61.5 t55.5 19.5q35 0 58.5 -19.5t23.5 -61.5q0 -40 -23.5 -60t-58.5 -20q-32 0 -55.5 20t-23.5 60zM414 726q0 42 23.5 61.5t55.5 19.5q35 0 58.5 -19.5t23.5 -61.5q0 -40 -23.5 -60t-58.5 -20q-32 0 -55.5 20t-23.5 60z"></glyph><glyph glyph-name="Yacute" unicode="Ý" d="M263 464q9 -31 14.5 -59t7.5 -49q3 -25 4 -46h4q6 21 17 47q9 21 22.5 49t33.5 58l83 125h161l-260 -402l-32 -187h-152l32 187l-133 402h160zM276 645l65 150h184l-113 -150h-136z"></glyph><glyph glyph-name="Thorn" unicode="Þ" d="M222 231h45q25 0 44.5 3.5t32 13t19 27t6.5 44.5q0 32 -18 46.5t-56 14.5h-46zM30 0l103 589h152l-15 -83h56q53 0 90 -12.5t60 -35t33.5 -54.5t10.5 -72q0 -59 -19.5 -101.5t-52 -69.5t-75.5 -40t-90 -13h-83l-18 -108h-152z"></glyph><glyph glyph-name="germandbls" unicode="ß" d="M87 402q14 81 44 133.5t70.5 84t88 44t95.5 12.5q49 0 85 -12t58.5 -32.5t33.5 -47.5t11 -56q0 -38 -10.5 -65.5t-29 -46.5t-44 -30.5t-54.5 -15.5v-4q34 -4 58 -17.5t39 -34t22 -46t7 -53.5q0 -59 -17 -101.5t-47.5 -70.5t-73 -41.5t-92.5 -13.5q-39 0 -73.5 13 t-53.5 39l46 110q16 -26 36.5 -35t46.5 -9q15 0 29.5 5t26 17t18 32.5t6.5 50.5q0 39 -21 65t-72 26h-55l21 118h65q33 0 56 16.5t23 59.5q0 26 -13.5 43t-54.5 17q-51 0 -80 -36t-42 -111l-84 -479q-7 -39 -19 -65.5t-31 -43.5t-46.5 -24.5t-65.5 -7.5q-31 0 -54 5t-45 17 l27 105q14 -10 24 -13t21 -3q18 0 27 9.5t13 30.5z"></glyph><glyph glyph-name="agrave" unicode="à" d="M340 269q3 18 3 34.5t-5 29t-15.5 20.5t-28.5 8q-27 0 -47 -15.5t-33 -40.5t-19.5 -56.5t-6.5 -63.5q0 -35 14 -60.5t44 -25.5q35 0 53.5 27t25.5 66zM471 157q-3 -17 1 -29t27 -12q7 0 14 1.5t16 3.5l-24 -113q-19 -6 -39.5 -9.5t-39.5 -3.5q-54 0 -81.5 19t-33.5 64 q-16 -49 -50 -69.5t-78 -20.5q-77 0 -115 51t-38 138q0 59 14.5 113t42.5 94.5t68.5 64.5t91.5 24t80 -20t32 -68l29 77h136zM255 525l-117 156h184l69 -156h-136z"></glyph><glyph glyph-name="aacute" unicode="á" d="M340 269q3 18 3 34.5t-5 29t-15.5 20.5t-28.5 8q-27 0 -47 -15.5t-33 -40.5t-19.5 -56.5t-6.5 -63.5q0 -35 14 -60.5t44 -25.5q35 0 53.5 27t25.5 66zM471 157q-3 -17 1 -29t27 -12q7 0 14 1.5t16 3.5l-24 -113q-19 -6 -39.5 -9.5t-39.5 -3.5q-54 0 -81.5 19t-33.5 64 q-16 -49 -50 -69.5t-78 -20.5q-77 0 -115 51t-38 138q0 59 14.5 113t42.5 94.5t68.5 64.5t91.5 24t80 -20t32 -68l29 77h136zM244 525l69 156h184l-117 -156h-136z"></glyph><glyph glyph-name="acircumflex" unicode="â" d="M340 269q3 18 3 34.5t-5 29t-15.5 20.5t-28.5 8q-27 0 -47 -15.5t-33 -40.5t-19.5 -56.5t-6.5 -63.5q0 -35 14 -60.5t44 -25.5q35 0 53.5 27t25.5 66zM471 157q-3 -17 1 -29t27 -12q7 0 14 1.5t16 3.5l-24 -113q-19 -6 -39.5 -9.5t-39.5 -3.5q-54 0 -81.5 19t-33.5 64 q-16 -49 -50 -69.5t-78 -20.5q-77 0 -115 51t-38 138q0 59 14.5 113t42.5 94.5t68.5 64.5t91.5 24t80 -20t32 -68l29 77h136zM390 685l110 -163h-131l-25 32q-6 8 -8.5 13.5t-3.5 9.5t-1 8h-5q-1 -4 -4 -8q-5 -9 -21 -23l-35 -32h-137l166 163h95z"></glyph><glyph glyph-name="atilde" unicode="ã" d="M340 269q3 18 3 34.5t-5 29t-15.5 20.5t-28.5 8q-27 0 -47 -15.5t-33 -40.5t-19.5 -56.5t-6.5 -63.5q0 -35 14 -60.5t44 -25.5q35 0 53.5 27t25.5 66zM471 157q-3 -17 1 -29t27 -12q7 0 14 1.5t16 3.5l-24 -113q-19 -6 -39.5 -9.5t-39.5 -3.5q-54 0 -81.5 19t-33.5 64 q-16 -49 -50 -69.5t-78 -20.5q-77 0 -115 51t-38 138q0 59 14.5 113t42.5 94.5t68.5 64.5t91.5 24t80 -20t32 -68l29 77h136zM395 519q-31 0 -46.5 7t-32.5 18q-20 13 -31 19t-22 6q-15 0 -26.5 -13t-12.5 -39h-81q-9 37 -3 68t22.5 53t41 34t53.5 12q26 0 40.5 -6.5 t27.5 -14.5q21 -14 33.5 -21.5t25.5 -7.5q14 0 23.5 10.5t10.5 36.5h84q10 -37 6.5 -67t-18.5 -51t-39.5 -32.5t-55.5 -11.5z"></glyph><glyph glyph-name="adieresis" unicode="ä" d="M340 269q3 18 3 34.5t-5 29t-15.5 20.5t-28.5 8q-27 0 -47 -15.5t-33 -40.5t-19.5 -56.5t-6.5 -63.5q0 -35 14 -60.5t44 -25.5q35 0 53.5 27t25.5 66zM471 157q-3 -17 1 -29t27 -12q7 0 14 1.5t16 3.5l-24 -113q-19 -6 -39.5 -9.5t-39.5 -3.5q-54 0 -81.5 19t-33.5 64 q-16 -49 -50 -69.5t-78 -20.5q-77 0 -115 51t-38 138q0 59 14.5 113t42.5 94.5t68.5 64.5t91.5 24t80 -20t32 -68l29 77h136zM134 596q0 42 23.5 61.5t55.5 19.5q35 0 58.5 -19.5t23.5 -61.5q0 -40 -23.5 -60t-58.5 -20q-32 0 -55.5 20t-23.5 60zM359 596q0 42 23.5 61.5 t55.5 19.5q35 0 58.5 -19.5t23.5 -61.5q0 -40 -23.5 -60t-58.5 -20q-32 0 -55.5 20t-23.5 60z"></glyph><glyph glyph-name="aring" unicode="å" d="M340 269q3 18 3 34.5t-5 29t-15.5 20.5t-28.5 8q-27 0 -47 -15.5t-33 -40.5t-19.5 -56.5t-6.5 -63.5q0 -35 14 -60.5t44 -25.5q35 0 53.5 27t25.5 66zM471 157q-3 -17 1 -29t27 -12q7 0 14 1.5t16 3.5l-24 -113q-19 -6 -39.5 -9.5t-39.5 -3.5q-54 0 -81.5 19t-33.5 64 q-16 -49 -50 -69.5t-78 -20.5q-77 0 -115 51t-38 138q0 59 14.5 113t42.5 94.5t68.5 64.5t91.5 24t80 -20t32 -68l29 77h136zM219 607q0 25 9 47t25.5 39t39.5 27t52 10q48 0 76.5 -30t28.5 -73q0 -26 -9 -49t-25 -40t-39 -26.5t-50 -9.5q-54 0 -81 30t-27 75zM340 664 q-23 0 -35.5 -15.5t-12.5 -37.5q0 -18 10 -29t29 -11q24 0 36.5 16t12.5 38q0 17 -10 28t-30 11z"></glyph><glyph glyph-name="ae" unicode="æ" d="M507 102q26 0 42.5 12.5t24.5 45.5l142 -34q-20 -71 -71.5 -104.5t-149.5 -33.5q-56 0 -97.5 17t-68.5 49q-29 -35 -68.5 -50.5t-86.5 -15.5q-70 0 -112 31.5t-42 95.5q0 44 19.5 74.5t55.5 49.5t87 28t114 10q7 26 20 54q-8 31 -41 31q-24 0 -41 -16.5t-19 -48.5 l-144 28q7 38 26.5 66t48 46t65.5 27t80 9q83 0 127 -32q58 32 124 32q50 0 87 -14t61 -37.5t36 -53.5t12 -63q0 -28 -5 -57t-15 -49h-273q-8 -43 8.5 -70t53.5 -27zM293 128q-4 14 -5.5 29t-1.5 32v9q-54 -2 -83 -18.5t-29 -50.5q0 -15 10 -24t29 -9q22 0 42.5 7t37.5 25z M584 277q1 5 1.5 13.5t0.5 14.5q0 25 -10.5 42t-39.5 17q-15 0 -27 -7.5t-21.5 -20t-16 -28t-10.5 -31.5h123z"></glyph><glyph glyph-name="ccedilla" unicode="ç" d="M295 -116q0 -48 -34.5 -71.5t-84.5 -23.5q-37 0 -66.5 10t-43.5 26l26 67q17 -18 33 -26t30 -8q31 0 31 24q0 28 -42 38l30 76q-67 15 -105.5 63t-38.5 125q0 57 16 109.5t49 92t83 63.5t119 24q48 0 83 -14.5t57.5 -38.5t33 -56t10.5 -67l-148 -26q1 13 -1 28t-7.5 27.5 t-16 20.5t-25.5 8q-21 0 -38 -13t-29 -35t-18.5 -52.5t-6.5 -64.5q0 -48 16.5 -68t44.5 -20q50 0 63 68l147 -22q-20 -75 -73.5 -117.5t-146.5 -42.5q-11 0 -16 1l-10 -24q40 -6 59.5 -24t19.5 -57z"></glyph><glyph glyph-name="egrave" unicode="è" d="M251 102q26 0 42.5 12.5t24.5 45.5l142 -34q-20 -71 -71.5 -104.5t-149.5 -33.5q-100 0 -154.5 54t-54.5 147q0 69 21 122t56.5 89t82 54.5t96.5 18.5t87 -14t61 -37.5t36 -53.5t12 -63q0 -28 -5 -53.5t-15 -45.5h-273q-9 -46 8 -75t54 -29zM328 284q1 5 1.5 10t0.5 11 q0 25 -10.5 42t-39.5 17q-30 0 -48.5 -24t-26.5 -56h123zM233 525l-117 156h184l69 -156h-136z"></glyph><glyph glyph-name="eacute" unicode="é" d="M251 102q26 0 42.5 12.5t24.5 45.5l142 -34q-20 -71 -71.5 -104.5t-149.5 -33.5q-100 0 -154.5 54t-54.5 147q0 69 21 122t56.5 89t82 54.5t96.5 18.5t87 -14t61 -37.5t36 -53.5t12 -63q0 -28 -5 -53.5t-15 -45.5h-273q-9 -46 8 -75t54 -29zM328 284q1 5 1.5 10t0.5 11 q0 25 -10.5 42t-39.5 17q-30 0 -48.5 -24t-26.5 -56h123zM222 525l69 156h184l-117 -156h-136z"></glyph><glyph glyph-name="ecircumflex" unicode="ê" d="M251 102q26 0 42.5 12.5t24.5 45.5l142 -34q-20 -71 -71.5 -104.5t-149.5 -33.5q-100 0 -154.5 54t-54.5 147q0 69 21 122t56.5 89t82 54.5t96.5 18.5t87 -14t61 -37.5t36 -53.5t12 -63q0 -28 -5 -53.5t-15 -45.5h-273q-9 -46 8 -75t54 -29zM328 284q1 5 1.5 10t0.5 11 q0 25 -10.5 42t-39.5 17q-30 0 -48.5 -24t-26.5 -56h123zM368 685l110 -163h-131l-25 32q-6 8 -8.5 13.5t-3.5 9.5t-1 8h-5q-1 -4 -4 -8q-5 -9 -21 -23l-35 -32h-137l166 163h95z"></glyph><glyph glyph-name="edieresis" unicode="ë" d="M251 102q26 0 42.5 12.5t24.5 45.5l142 -34q-20 -71 -71.5 -104.5t-149.5 -33.5q-100 0 -154.5 54t-54.5 147q0 69 21 122t56.5 89t82 54.5t96.5 18.5t87 -14t61 -37.5t36 -53.5t12 -63q0 -28 -5 -53.5t-15 -45.5h-273q-9 -46 8 -75t54 -29zM328 284q1 5 1.5 10t0.5 11 q0 25 -10.5 42t-39.5 17q-30 0 -48.5 -24t-26.5 -56h123zM112 596q0 42 23.5 61.5t55.5 19.5q35 0 58.5 -19.5t23.5 -61.5q0 -40 -23.5 -60t-58.5 -20q-32 0 -55.5 20t-23.5 60zM337 596q0 42 23.5 61.5t55.5 19.5q35 0 58.5 -19.5t23.5 -61.5q0 -40 -23.5 -60t-58.5 -20 q-32 0 -55.5 20t-23.5 60z"></glyph><glyph glyph-name="igrave" unicode="ì" d="M196 157q-3 -17 1 -29t27 -12q7 0 14 1.5t16 3.5l-24 -113q-19 -6 -39.5 -9.5t-39.5 -3.5q-135 0 -112 135l59 332h151zM117 525l-117 156h184l69 -156h-136z"></glyph><glyph glyph-name="iacute" unicode="í" d="M196 157q-3 -17 1 -29t27 -12q7 0 14 1.5t16 3.5l-24 -113q-19 -6 -39.5 -9.5t-39.5 -3.5q-135 0 -112 135l59 332h151zM107 525l69 156h184l-117 -156h-136z"></glyph><glyph glyph-name="icircumflex" unicode="î" d="M196 157q-3 -17 1 -29t27 -12q7 0 14 1.5t16 3.5l-24 -113q-19 -6 -39.5 -9.5t-39.5 -3.5q-135 0 -112 135l59 332h151zM253 685l110 -163h-131l-25 32q-6 8 -8.5 13.5t-3.5 9.5t-1 8h-5q-1 -4 -4 -8q-5 -9 -21 -23l-35 -32h-137l166 163h95z"></glyph><glyph glyph-name="idieresis" unicode="ï" d="M196 157q-3 -17 1 -29t27 -12q7 0 14 1.5t16 3.5l-24 -113q-19 -6 -39.5 -9.5t-39.5 -3.5q-135 0 -112 135l59 332h151zM-3 596q0 42 23.5 61.5t55.5 19.5q35 0 58.5 -19.5t23.5 -61.5q0 -40 -23.5 -60t-58.5 -20q-32 0 -55.5 20t-23.5 60zM222 596q0 42 23.5 61.5 t55.5 19.5q35 0 58.5 -19.5t23.5 -61.5q0 -40 -23.5 -60t-58.5 -20q-32 0 -55.5 20t-23.5 60z"></glyph><glyph glyph-name="eth" unicode="ð" d="M110 520l113 36q-31 17 -65.5 29.5t-71.5 22.5l144 69q43 -12 79.5 -29.5t67.5 -42.5l108 35l16 -52l-80 -26q41 -49 62.5 -114.5t21.5 -149.5q0 -65 -16 -121.5t-48.5 -98.5t-81 -66t-114.5 -24q-46 0 -85 12t-68 37.5t-45.5 63.5t-16.5 91q0 56 16.5 105.5t46.5 86 t71.5 57.5t92.5 21q43 0 63.5 -16t31.5 -37h4q-8 31 -27 58t-47 50l-156 -50zM283 349q-22 0 -39 -12.5t-29 -35t-18.5 -53t-6.5 -65.5q0 -42 16.5 -62t45.5 -20q45 0 69.5 46.5t24.5 119.5q0 41 -16.5 61.5t-46.5 20.5z"></glyph><glyph glyph-name="ntilde" unicode="ñ" d="M482 157q-3 -17 1 -29t27 -12q7 0 14 1.5t16 3.5l-24 -113q-19 -6 -39.5 -9.5t-39.5 -3.5q-135 0 -112 135l25 144q5 32 -3.5 54t-43.5 22q-27 0 -48 -25t-31 -80l-43 -245h-151l81 462h132l2 -94q22 51 55.5 78t91.5 27q55 0 87 -32t32 -86q0 -12 -0.5 -21t-2.5 -18z M406 519q-31 0 -46.5 7t-32.5 18q-20 13 -31 19t-22 6q-15 0 -26.5 -13t-12.5 -39h-81q-9 37 -3 68t22.5 53t41 34t53.5 12q26 0 40.5 -6.5t27.5 -14.5q21 -14 33.5 -21.5t25.5 -7.5q14 0 23.5 10.5t10.5 36.5h84q10 -37 6.5 -67t-18.5 -51t-39.5 -32.5t-55.5 -11.5z"></glyph><glyph glyph-name="ograve" unicode="ò" d="M241 525l-117 156h184l69 -156h-136zM293 473q99 0 156.5 -52.5t57.5 -152.5q0 -55 -16 -105.5t-48.5 -89.5t-81.5 -62t-115 -23q-46 0 -85.5 12t-68.5 36.5t-45.5 61.5t-16.5 86q0 57 16 109.5t48.5 92.5t82 63.5t116.5 23.5zM284 355q-22 0 -39 -13t-29 -35.5 t-18.5 -54t-6.5 -67.5q0 -42 16.5 -62.5t45.5 -20.5q22 0 39.5 12.5t29.5 35t18.5 53.5t6.5 68q0 42 -16.5 63t-46.5 21z"></glyph><glyph glyph-name="oacute" unicode="ó" d="M293 473q99 0 156.5 -52.5t57.5 -152.5q0 -55 -16 -105.5t-48.5 -89.5t-81.5 -62t-115 -23q-46 0 -85.5 12t-68.5 36.5t-45.5 61.5t-16.5 86q0 57 16 109.5t48.5 92.5t82 63.5t116.5 23.5zM284 355q-22 0 -39 -13t-29 -35.5t-18.5 -54t-6.5 -67.5q0 -42 16.5 -62.5 t45.5 -20.5q22 0 39.5 12.5t29.5 35t18.5 53.5t6.5 68q0 42 -16.5 63t-46.5 21zM231 525l69 156h184l-117 -156h-136z"></glyph><glyph glyph-name="ocircumflex" unicode="ô" d="M293 473q99 0 156.5 -52.5t57.5 -152.5q0 -55 -16 -105.5t-48.5 -89.5t-81.5 -62t-115 -23q-46 0 -85.5 12t-68.5 36.5t-45.5 61.5t-16.5 86q0 57 16 109.5t48.5 92.5t82 63.5t116.5 23.5zM284 355q-22 0 -39 -13t-29 -35.5t-18.5 -54t-6.5 -67.5q0 -42 16.5 -62.5 t45.5 -20.5q22 0 39.5 12.5t29.5 35t18.5 53.5t6.5 68q0 42 -16.5 63t-46.5 21zM376 685l110 -163h-131l-25 32q-6 8 -8.5 13.5t-3.5 9.5t-1 8h-5q-1 -4 -4 -8q-5 -9 -21 -23l-35 -32h-137l166 163h95z"></glyph><glyph glyph-name="otilde" unicode="õ" d="M293 473q99 0 156.5 -52.5t57.5 -152.5q0 -55 -16 -105.5t-48.5 -89.5t-81.5 -62t-115 -23q-46 0 -85.5 12t-68.5 36.5t-45.5 61.5t-16.5 86q0 57 16 109.5t48.5 92.5t82 63.5t116.5 23.5zM284 355q-22 0 -39 -13t-29 -35.5t-18.5 -54t-6.5 -67.5q0 -42 16.5 -62.5 t45.5 -20.5q22 0 39.5 12.5t29.5 35t18.5 53.5t6.5 68q0 42 -16.5 63t-46.5 21zM382 519q-31 0 -46.5 7t-32.5 18q-20 13 -31 19t-22 6q-15 0 -26.5 -13t-12.5 -39h-81q-9 37 -3 68t22.5 53t41 34t53.5 12q26 0 40.5 -6.5t27.5 -14.5q21 -14 33.5 -21.5t25.5 -7.5 q14 0 23.5 10.5t10.5 36.5h84q10 -37 6.5 -67t-18.5 -51t-39.5 -32.5t-55.5 -11.5z"></glyph><glyph glyph-name="odieresis" unicode="ö" d="M293 473q99 0 156.5 -52.5t57.5 -152.5q0 -55 -16 -105.5t-48.5 -89.5t-81.5 -62t-115 -23q-46 0 -85.5 12t-68.5 36.5t-45.5 61.5t-16.5 86q0 57 16 109.5t48.5 92.5t82 63.5t116.5 23.5zM284 355q-22 0 -39 -13t-29 -35.5t-18.5 -54t-6.5 -67.5q0 -42 16.5 -62.5 t45.5 -20.5q22 0 39.5 12.5t29.5 35t18.5 53.5t6.5 68q0 42 -16.5 63t-46.5 21zM120 596q0 42 23.5 61.5t55.5 19.5q35 0 58.5 -19.5t23.5 -61.5q0 -40 -23.5 -60t-58.5 -20q-32 0 -55.5 20t-23.5 60zM345 596q0 42 23.5 61.5t55.5 19.5q35 0 58.5 -19.5t23.5 -61.5 q0 -40 -23.5 -60t-58.5 -20q-32 0 -55.5 20t-23.5 60z"></glyph><glyph glyph-name="divide" unicode="÷" d="M40 207l14 82h408l-14 -82h-408zM149 89q0 25 17 42.5t42 17.5t42.5 -17.5t17.5 -42.5q0 -24 -17.5 -41t-42.5 -17t-42 17t-17 41zM225 401q0 26 17 43.5t42 17.5t42.5 -17.5t17.5 -43.5q0 -24 -17.5 -41t-42.5 -17t-42 17t-17 41z"></glyph><glyph glyph-name="oslash" unicode="ø" d="M293 473q93 0 149 -47l52 48l42 -46l-55 -50q26 -46 26 -110q0 -55 -16 -105.5t-48.5 -89.5t-81.5 -62t-115 -23q-43 0 -81 10.5t-66 32.5l-51 -46l-42 43l52 48q-28 45 -28 108q0 57 16 109.5t48.5 92.5t82 63.5t116.5 23.5zM284 355q-35 0 -58 -32t-31 -83 q-2 -11 -3 -21.5t-1 -21.5l143 131q-15 27 -50 27zM253 102q36 0 58.5 30t30.5 81q2 10 3 21t1 22l-142 -129q16 -25 49 -25z"></glyph><glyph glyph-name="ugrave" unicode="ù" d="M328 89q-22 -53 -58.5 -77t-95.5 -24q-75 0 -109.5 46.5t-20.5 129.5l53 298h151l-52 -301q-5 -32 6.5 -48t37.5 -16q31 0 54.5 22t32.5 79l47 264h151l-53 -305q-3 -17 1.5 -29t25.5 -12q7 0 14 1.5t16 3.5l-24 -113q-19 -6 -39.5 -9.5t-39.5 -3.5q-101 0 -98 94z M255 525l-117 156h184l69 -156h-136z"></glyph><glyph glyph-name="uacute" unicode="ú" d="M328 89q-22 -53 -58.5 -77t-95.5 -24q-75 0 -109.5 46.5t-20.5 129.5l53 298h151l-52 -301q-5 -32 6.5 -48t37.5 -16q31 0 54.5 22t32.5 79l47 264h151l-53 -305q-3 -17 1.5 -29t25.5 -12q7 0 14 1.5t16 3.5l-24 -113q-19 -6 -39.5 -9.5t-39.5 -3.5q-101 0 -98 94z M244 525l69 156h184l-117 -156h-136z"></glyph><glyph glyph-name="ucircumflex" unicode="û" d="M328 89q-22 -53 -58.5 -77t-95.5 -24q-75 0 -109.5 46.5t-20.5 129.5l53 298h151l-52 -301q-5 -32 6.5 -48t37.5 -16q31 0 54.5 22t32.5 79l47 264h151l-53 -305q-3 -17 1.5 -29t25.5 -12q7 0 14 1.5t16 3.5l-24 -113q-19 -6 -39.5 -9.5t-39.5 -3.5q-101 0 -98 94z M390 685l110 -163h-131l-25 32q-6 8 -8.5 13.5t-3.5 9.5t-1 8h-5q-1 -4 -4 -8q-5 -9 -21 -23l-35 -32h-137l166 163h95z"></glyph><glyph glyph-name="udieresis" unicode="ü" d="M328 89q-22 -53 -58.5 -77t-95.5 -24q-75 0 -109.5 46.5t-20.5 129.5l53 298h151l-52 -301q-5 -32 6.5 -48t37.5 -16q31 0 54.5 22t32.5 79l47 264h151l-53 -305q-3 -17 1.5 -29t25.5 -12q7 0 14 1.5t16 3.5l-24 -113q-19 -6 -39.5 -9.5t-39.5 -3.5q-101 0 -98 94z M133 596q0 42 23.5 61.5t55.5 19.5q35 0 58.5 -19.5t23.5 -61.5q0 -40 -23.5 -60t-58.5 -20q-32 0 -55.5 20t-23.5 60zM358 596q0 42 23.5 61.5t55.5 19.5q35 0 58.5 -19.5t23.5 -61.5q0 -40 -23.5 -60t-58.5 -20q-32 0 -55.5 20t-23.5 60z"></glyph><glyph glyph-name="yacute" unicode="ý" d="M210 238q2 -30 2 -55t-1 -42q-1 -21 -3 -37h4q5 22 12 46q6 20 14.5 44.5t21.5 48.5l116 219h157l-282 -504q-30 -54 -58 -87.5t-56.5 -51.5t-58 -24t-61.5 -6t-56.5 6t-40.5 14l44 123q11 -8 26 -14t32 -6q30 0 52.5 15.5t39.5 46.5l-77 488h155zM212 525l69 156h184 l-117 -156h-136z"></glyph><glyph glyph-name="thorn" unicode="þ" d="M215 195q-8 -43 7 -73.5t52 -30.5q27 0 47 15t34 39.5t21 55.5t7 63q0 48 -20 71t-52 23q-29 0 -52.5 -26t-33.5 -82zM146 -203h-152l153 871h152l-53 -295q19 48 53 74t91 26q33 0 61.5 -11.5t49.5 -35t33 -60t12 -87.5q0 -62 -16 -115t-46 -92t-74 -61.5t-100 -22.5 q-45 0 -77.5 19t-39.5 61z"></glyph><glyph glyph-name="ydieresis" unicode="ÿ" d="M210 238q2 -30 2 -55t-1 -42q-1 -21 -3 -37h4q5 22 12 46q6 20 14.5 44.5t21.5 48.5l116 219h157l-282 -504q-30 -54 -58 -87.5t-56.5 -51.5t-58 -24t-61.5 -6t-56.5 6t-40.5 14l44 123q11 -8 26 -14t32 -6q30 0 52.5 15.5t39.5 46.5l-77 488h155zM102 596 q0 42 23.5 61.5t55.5 19.5q35 0 58.5 -19.5t23.5 -61.5q0 -40 -23.5 -60t-58.5 -20q-32 0 -55.5 20t-23.5 60zM327 596q0 42 23.5 61.5t55.5 19.5q35 0 58.5 -19.5t23.5 -61.5q0 -40 -23.5 -60t-58.5 -20q-32 0 -55.5 20t-23.5 60z"></glyph><glyph glyph-name="Amacron" unicode="Ā" d="M410 110h-217l-56 -110h-162l316 589h183l112 -589h-156zM257 235h131q-9 42 -14.5 83.5t-8.5 73.5t-4 52t0 20h-4q-8 -26 -19 -56q-10 -26 -24 -58.5t-33 -68.5zM230 661l21 120h314l-21 -120h-314z"></glyph><glyph glyph-name="amacron" unicode="ā" d="M340 269q3 18 3 34.5t-5 29t-15.5 20.5t-28.5 8q-27 0 -47 -15.5t-33 -40.5t-19.5 -56.5t-6.5 -63.5q0 -35 14 -60.5t44 -25.5q35 0 53.5 27t25.5 66zM471 157q-3 -17 1 -29t27 -12q7 0 14 1.5t16 3.5l-24 -113q-19 -6 -39.5 -9.5t-39.5 -3.5q-54 0 -81.5 19t-33.5 64 q-16 -49 -50 -69.5t-78 -20.5q-77 0 -115 51t-38 138q0 59 14.5 113t42.5 94.5t68.5 64.5t91.5 24t80 -20t32 -68l29 77h136zM167 533l22 120h305l-22 -120h-305z"></glyph><glyph glyph-name="Abreve" unicode="Ă" d="M410 110h-217l-56 -110h-162l316 589h183l112 -589h-156zM257 235h131q-9 42 -14.5 83.5t-8.5 73.5t-4 52t0 20h-4q-8 -26 -19 -56q-10 -26 -24 -58.5t-33 -68.5zM381 640q-83 0 -111.5 42t-15.5 112h109q-5 -26 2.5 -38.5t34.5 -12.5t38.5 12.5t16.5 38.5h109 q-13 -70 -56.5 -112t-126.5 -42z"></glyph><glyph glyph-name="abreve" unicode="ă" d="M340 269q3 18 3 34.5t-5 29t-15.5 20.5t-28.5 8q-27 0 -47 -15.5t-33 -40.5t-19.5 -56.5t-6.5 -63.5q0 -35 14 -60.5t44 -25.5q35 0 53.5 27t25.5 66zM471 157q-3 -17 1 -29t27 -12q7 0 14 1.5t16 3.5l-24 -113q-19 -6 -39.5 -9.5t-39.5 -3.5q-54 0 -81.5 19t-33.5 64 q-16 -49 -50 -69.5t-78 -20.5q-77 0 -115 51t-38 138q0 59 14.5 113t42.5 94.5t68.5 64.5t91.5 24t80 -20t32 -68l29 77h136zM318 518q-42 0 -69 13t-41.5 35t-18 52t2.5 63h109q-5 -27 0 -42.5t35 -15.5t41 15.5t16 42.5h109q-6 -33 -20 -63t-36.5 -52t-54 -35t-73.5 -13z "></glyph><glyph glyph-name="Aogonek" unicode="Ą" d="M241 -106q0 37 16 66t41.5 49.5t57 32.5t63.5 15l-9 53h-217l-56 -110h-162l316 589h183l112 -589h-61q-40 0 -71 -3t-52 -11t-32 -23.5t-11 -40.5q0 -37 35 -37q16 0 28.5 5t29.5 20l29 -76q-25 -25 -55.5 -35t-64.5 -10q-24 0 -46 5.5t-38.5 18.5t-26 32.5t-9.5 48.5z M257 235h131q-9 42 -14.5 83.5t-8.5 73.5t-4 52t0 20h-4q-8 -26 -19 -56q-10 -26 -24 -58.5t-33 -68.5z"></glyph><glyph glyph-name="aogonek" unicode="ą" d="M254 -106q0 45 24 77t59 50q-9 10 -16.5 25t-9.5 32q-17 -44 -50.5 -67t-77.5 -23q-77 0 -115 51t-38 138q0 59 14.5 113t42.5 94.5t68.5 64.5t91.5 24t80 -20t32 -68l29 77h136l-53 -305q-3 -17 1 -29t27 -12q7 0 14 1.5t16 3.5l-24 -113q-21 -5 -44.5 -9.5t-43 -13.5 t-32.5 -23.5t-13 -39.5q0 -37 35 -37q16 0 28.5 5t29.5 20l29 -76q-25 -25 -55.5 -35t-64.5 -10q-24 0 -46 5.5t-38.5 18.5t-26 32.5t-9.5 48.5zM340 269q3 18 3 34.5t-5 29t-15.5 20.5t-28.5 8q-27 0 -47 -15.5t-33 -40.5t-19.5 -56.5t-6.5 -63.5q0 -35 14 -60.5t44 -25.5 q35 0 53.5 27t25.5 66z"></glyph><glyph glyph-name="Cacute" unicode="Ć" d="M555 137q-38 -78 -101.5 -113.5t-156.5 -35.5q-121 0 -184 64t-63 182q0 86 25 154t67.5 115.5t99 72.5t120.5 25q57 0 98.5 -13.5t69.5 -37.5t44 -57t22 -71l-158 -51q-2 22 -6.5 40t-14 31t-25.5 20t-40 7q-35 0 -62.5 -18t-46 -49t-28.5 -73t-10 -90q0 -60 27 -91.5 t72 -31.5q37 0 66 18.5t55 70.5zM302 645l65 150h184l-113 -150h-136z"></glyph><glyph glyph-name="cacute" unicode="ć" d="M462 148q-20 -75 -73.5 -117.5t-146.5 -42.5q-97 0 -154.5 51t-57.5 145q0 57 16 109.5t49 92t83 63.5t119 24q48 0 83 -14.5t57.5 -38.5t33 -56t10.5 -67l-148 -26q1 13 -1 28t-7.5 27.5t-16 20.5t-25.5 8q-21 0 -38 -13t-29 -35t-18.5 -52.5t-6.5 -64.5q0 -48 16.5 -68 t44.5 -20q50 0 63 68zM227 525l69 156h184l-117 -156h-136z"></glyph><glyph glyph-name="Ccircumflex" unicode="Ĉ" d="M555 137q-38 -78 -101.5 -113.5t-156.5 -35.5q-121 0 -184 64t-63 182q0 86 25 154t67.5 115.5t99 72.5t120.5 25q57 0 98.5 -13.5t69.5 -37.5t44 -57t22 -71l-158 -51q-2 22 -6.5 40t-14 31t-25.5 20t-40 7q-35 0 -62.5 -18t-46 -49t-28.5 -73t-10 -90q0 -60 27 -91.5 t72 -31.5q37 0 66 18.5t55 70.5zM441 795l111 -150h-131l-24 30q-5 6 -7.5 11.5t-4.5 9.5t-2 8h-5q-2 -4 -5 -8t-7 -9.5t-12 -11.5l-36 -30h-137l165 150h95z"></glyph><glyph glyph-name="ccircumflex" unicode="ĉ" d="M462 148q-20 -75 -73.5 -117.5t-146.5 -42.5q-97 0 -154.5 51t-57.5 145q0 57 16 109.5t49 92t83 63.5t119 24q48 0 83 -14.5t57.5 -38.5t33 -56t10.5 -67l-148 -26q1 13 -1 28t-7.5 27.5t-16 20.5t-25.5 8q-21 0 -38 -13t-29 -35t-18.5 -52.5t-6.5 -64.5q0 -48 16.5 -68 t44.5 -20q50 0 63 68zM373 685l110 -163h-131l-25 32q-6 8 -8.5 13.5t-3.5 9.5t-1 8h-5q-1 -4 -4 -8q-5 -9 -21 -23l-35 -32h-137l166 163h95z"></glyph><glyph glyph-name="Cdotaccent" unicode="Ċ" d="M555 137q-38 -78 -101.5 -113.5t-156.5 -35.5q-121 0 -184 64t-63 182q0 86 25 154t67.5 115.5t99 72.5t120.5 25q57 0 98.5 -13.5t69.5 -37.5t44 -57t22 -71l-158 -51q-2 22 -6.5 40t-14 31t-25.5 20t-40 7q-35 0 -62.5 -18t-46 -49t-28.5 -73t-10 -90q0 -60 27 -91.5 t72 -31.5q37 0 66 18.5t55 70.5zM303 733q0 42 25.5 62.5t62.5 20.5q39 0 65 -20.5t26 -62.5q0 -41 -26 -61.5t-65 -20.5q-37 0 -62.5 20.5t-25.5 61.5z"></glyph><glyph glyph-name="cdotaccent" unicode="ċ" d="M462 148q-20 -75 -73.5 -117.5t-146.5 -42.5q-97 0 -154.5 51t-57.5 145q0 57 16 109.5t49 92t83 63.5t119 24q48 0 83 -14.5t57.5 -38.5t33 -56t10.5 -67l-148 -26q1 13 -1 28t-7.5 27.5t-16 20.5t-25.5 8q-21 0 -38 -13t-29 -35t-18.5 -52.5t-6.5 -64.5q0 -48 16.5 -68 t44.5 -20q50 0 63 68zM224 595q0 42 26 62.5t62 20.5q40 0 65.5 -20.5t25.5 -62.5q0 -41 -25.5 -61.5t-65.5 -20.5q-36 0 -62 20.5t-26 61.5z"></glyph><glyph glyph-name="Ccaron" unicode="Č" d="M555 137q-38 -78 -101.5 -113.5t-156.5 -35.5q-121 0 -184 64t-63 182q0 86 25 154t67.5 115.5t99 72.5t120.5 25q57 0 98.5 -13.5t69.5 -37.5t44 -57t22 -71l-158 -51q-2 22 -6.5 40t-14 31t-25.5 20t-40 7q-35 0 -62.5 -18t-46 -49t-28.5 -73t-10 -90q0 -60 27 -91.5 t72 -31.5q37 0 66 18.5t55 70.5zM324 645l-111 150h131l24 -30q5 -7 7.5 -12l4.5 -9t2 -8h5q0 4 4 8q4 7 20 21l36 30h137l-165 -150h-95z"></glyph><glyph glyph-name="ccaron" unicode="č" d="M462 148q-20 -75 -73.5 -117.5t-146.5 -42.5q-97 0 -154.5 51t-57.5 145q0 57 16 109.5t49 92t83 63.5t119 24q48 0 83 -14.5t57.5 -38.5t33 -56t10.5 -67l-148 -26q1 13 -1 28t-7.5 27.5t-16 20.5t-25.5 8q-21 0 -38 -13t-29 -35t-18.5 -52.5t-6.5 -64.5q0 -48 16.5 -68 t44.5 -20q50 0 63 68zM248 522l-110 163h131l25 -32q10 -15 12 -23q1 -4 1 -8h5q1 4 4 8q2 4 7 9.5t14 13.5l35 32h137l-166 -163h-95z"></glyph><glyph glyph-name="Dcaron" unicode="Ď" d="M257 127q40 0 74 13.5t58.5 40.5t38 67t13.5 92q0 66 -35 94t-97 28h-46l-59 -335h53zM30 0l103 589h204q262 0 262 -234q0 -96 -28.5 -163.5t-77.5 -110t-114.5 -62t-139.5 -19.5h-209zM301 645l-111 150h131l24 -30q5 -7 7.5 -12l4.5 -9t2 -8h5q0 4 4 8q4 7 20 21 l36 30h137l-165 -150h-95z"></glyph><glyph glyph-name="dcaron" unicode="ď" d="M717 519h-106l15 179h150zM346 269q3 18 2.5 34.5t-6 29t-17 20.5t-31.5 8q-27 0 -47 -15.5t-33 -40.5t-19.5 -56.5t-6.5 -63.5q0 -35 14 -60.5t44 -25.5q69 0 86 93zM478 157q-3 -17 1 -29t27 -12q7 0 14 1.5t16 3.5l-24 -113q-19 -6 -39.5 -9.5t-39.5 -3.5 q-54 0 -81.5 19t-33.5 64q-16 -49 -53.5 -69.5t-81.5 -20.5q-77 0 -115 51t-38 138q0 59 14.5 113t43 94.5t70 64.5t95.5 24q46 0 78 -20.5t35 -67.5l49 283h151z"></glyph><glyph glyph-name="Dcroat" unicode="Đ" d="M30 0l41 238h-66l22 120h65l41 231h204q262 0 262 -234q0 -96 -28.5 -163.5t-77.5 -110t-114.5 -62t-139.5 -19.5h-209zM257 127q40 0 74 13.5t58.5 40.5t38 67t13.5 92q0 66 -35 94t-97 28h-46l-19 -104h108l-22 -120h-107l-19 -111h53z"></glyph><glyph glyph-name="dcroat" unicode="đ" d="M554 602h75l-16 -87h-74l-61 -358q-3 -17 1 -29t27 -12q7 0 14 1.5t16 3.5l-24 -113q-19 -6 -39.5 -9.5t-39.5 -3.5q-54 0 -81.5 19t-33.5 64q-16 -49 -53.5 -69.5t-81.5 -20.5q-77 0 -115 51t-38 138q0 59 14.5 113t43 94.5t70 64.5t95.5 24q46 0 78 -20.5t35 -67.5 l22 130h-134l16 87h133l12 66h151zM346 269q3 18 2.5 34.5t-6 29t-17 20.5t-31.5 8q-27 0 -47 -15.5t-33 -40.5t-19.5 -56.5t-6.5 -63.5q0 -35 14 -60.5t44 -25.5q69 0 86 93z"></glyph><glyph glyph-name="Emacron" unicode="Ē" d="M436 0h-406l103 589h406l-23 -130h-254l-17 -98h223l-22 -125h-223l-19 -106h254zM183 661l21 120h314l-21 -120h-314z"></glyph><glyph glyph-name="emacron" unicode="ē" d="M251 102q26 0 42.5 12.5t24.5 45.5l142 -34q-20 -71 -71.5 -104.5t-149.5 -33.5q-100 0 -154.5 54t-54.5 147q0 69 21 122t56.5 89t82 54.5t96.5 18.5t87 -14t61 -37.5t36 -53.5t12 -63q0 -28 -5 -53.5t-15 -45.5h-273q-9 -46 8 -75t54 -29zM328 284q1 5 1.5 10t0.5 11 q0 25 -10.5 42t-39.5 17q-30 0 -48.5 -24t-26.5 -56h123zM145 533l22 120h305l-22 -120h-305z"></glyph><glyph glyph-name="Ebreve" unicode="Ĕ" d="M436 0h-406l103 589h406l-23 -130h-254l-17 -98h223l-22 -125h-223l-19 -106h254zM333 640q-83 0 -111.5 42t-15.5 112h109q-5 -26 2.5 -38.5t34.5 -12.5t38.5 12.5t16.5 38.5h109q-13 -70 -56.5 -112t-126.5 -42z"></glyph><glyph glyph-name="ebreve" unicode="ĕ" d="M251 102q26 0 42.5 12.5t24.5 45.5l142 -34q-20 -71 -71.5 -104.5t-149.5 -33.5q-100 0 -154.5 54t-54.5 147q0 69 21 122t56.5 89t82 54.5t96.5 18.5t87 -14t61 -37.5t36 -53.5t12 -63q0 -28 -5 -53.5t-15 -45.5h-273q-9 -46 8 -75t54 -29zM328 284q1 5 1.5 10t0.5 11 q0 25 -10.5 42t-39.5 17q-30 0 -48.5 -24t-26.5 -56h123zM296 518q-42 0 -69 13t-41.5 35t-18 52t2.5 63h109q-5 -27 0 -42.5t35 -15.5t41 15.5t16 42.5h109q-6 -33 -20 -63t-36.5 -52t-54 -35t-73.5 -13z"></glyph><glyph glyph-name="Edotaccent" unicode="Ė" d="M436 0h-406l103 589h406l-23 -130h-254l-17 -98h223l-22 -125h-223l-19 -106h254zM263 733q0 42 25.5 62.5t62.5 20.5q39 0 65 -20.5t26 -62.5q0 -41 -26 -61.5t-65 -20.5q-37 0 -62.5 20.5t-25.5 61.5z"></glyph><glyph glyph-name="edotaccent" unicode="ė" d="M251 102q26 0 42.5 12.5t24.5 45.5l142 -34q-20 -71 -71.5 -104.5t-149.5 -33.5q-100 0 -154.5 54t-54.5 147q0 69 21 122t56.5 89t82 54.5t96.5 18.5t87 -14t61 -37.5t36 -53.5t12 -63q0 -28 -5 -53.5t-15 -45.5h-273q-9 -46 8 -75t54 -29zM328 284q1 5 1.5 10t0.5 11 q0 25 -10.5 42t-39.5 17q-30 0 -48.5 -24t-26.5 -56h123zM219 595q0 42 26 62.5t62 20.5q40 0 65.5 -20.5t25.5 -62.5q0 -41 -25.5 -61.5t-65.5 -20.5q-36 0 -62 20.5t-26 61.5z"></glyph><glyph glyph-name="Eogonek" unicode="Ę" d="M191 -106q0 33 16.5 61t42.5 45h-220l103 589h406l-23 -130h-254l-17 -98h223l-22 -125h-223l-19 -106h254l-22 -130h-31q-48 0 -72 -23t-24 -55q0 -37 35 -37q16 0 28.5 5t29.5 20l29 -76q-25 -25 -55.5 -35t-64.5 -10q-24 0 -46 5.5t-38.5 18.5t-26 32.5t-9.5 48.5z "></glyph><glyph glyph-name="eogonek" unicode="ę" d="M155 -106q0 29 10.5 53.5t27.5 44.5q-78 11 -120.5 63.5t-42.5 133.5q0 69 21 122t56.5 89t82 54.5t96.5 18.5t87 -14t61 -37.5t36 -53.5t12 -63q0 -28 -5 -53.5t-15 -45.5h-273q-9 -46 8 -75t54 -29q26 0 42.5 12.5t24.5 45.5l142 -34q-16 -53 -50.5 -81.5t-85.5 -47.5 q-52 -19 -52 -71q0 -18 9.5 -29.5t26.5 -11.5q16 0 28.5 5t29.5 20l29 -76q-25 -25 -55.5 -35t-64.5 -10q-24 0 -46 5.5t-38.5 18.5t-26 32.5t-9.5 48.5zM328 284q1 5 1.5 10t0.5 11q0 25 -10.5 42t-39.5 17q-30 0 -48.5 -24t-26.5 -56h123z"></glyph><glyph glyph-name="Ecaron" unicode="Ě" d="M436 0h-406l103 589h406l-23 -130h-254l-17 -98h223l-22 -125h-223l-19 -106h254zM283 645l-111 150h131l24 -30q5 -7 7.5 -12l4.5 -9t2 -8h5q0 4 4 8q4 7 20 21l36 30h137l-165 -150h-95z"></glyph><glyph glyph-name="ecaron" unicode="ě" d="M251 102q26 0 42.5 12.5t24.5 45.5l142 -34q-20 -71 -71.5 -104.5t-149.5 -33.5q-100 0 -154.5 54t-54.5 147q0 69 21 122t56.5 89t82 54.5t96.5 18.5t87 -14t61 -37.5t36 -53.5t12 -63q0 -28 -5 -53.5t-15 -45.5h-273q-9 -46 8 -75t54 -29zM328 284q1 5 1.5 10t0.5 11 q0 25 -10.5 42t-39.5 17q-30 0 -48.5 -24t-26.5 -56h123zM243 522l-110 163h131l25 -32q10 -15 12 -23q1 -4 1 -8h5q1 4 4 8q2 4 7 9.5t14 13.5l35 32h137l-166 -163h-95z"></glyph><glyph glyph-name="Gcircumflex" unicode="Ĝ" d="M601 318l-56 -318h-88l-15 71q-18 -35 -55.5 -59t-103.5 -24q-111 0 -172 64t-61 182q0 86 25 154t67.5 115.5t99 72.5t120.5 25q57 0 98.5 -13.5t69.5 -37.5t44 -57t22 -71l-158 -51q-2 20 -6 38t-14 31t-26 20.5t-40 7.5q-35 0 -62.5 -17.5t-46 -48t-28.5 -71.5 t-10 -88q0 -63 29 -98.5t87 -35.5q47 0 76 21.5t35 57.5l2 12h-114l21 118h260zM451 795l111 -150h-131l-24 30q-5 6 -7.5 11.5t-4.5 9.5t-2 8h-5q-2 -4 -5 -8t-7 -9.5t-12 -11.5l-36 -30h-137l165 150h95z"></glyph><glyph glyph-name="gcircumflex" unicode="ĝ" d="M346 269q3 18 2.5 34.5t-6 29t-17.5 20.5t-32 8q-27 0 -46.5 -14t-32 -37t-18.5 -53t-6 -62q0 -35 14 -60.5t44 -25.5q69 0 86 93zM449 1q-19 -109 -86 -160.5t-188 -51.5q-78 0 -136.5 24.5t-83.5 83.5l111 83q9 -35 41 -55.5t70 -20.5q59 0 87 32.5t39 85.5l12 63 q-16 -49 -51 -68t-79 -19q-77 0 -115 51t-38 138q0 59 14.5 111t42 91t68.5 61.5t95 22.5q46 0 78 -20.5t35 -67.5l29 77h136zM381 685l110 -163h-131l-25 32q-6 8 -8.5 13.5t-3.5 9.5t-1 8h-5q-1 -4 -4 -8q-5 -9 -21 -23l-35 -32h-137l166 163h95z"></glyph><glyph glyph-name="Gbreve" unicode="Ğ" d="M601 318l-56 -318h-88l-15 71q-18 -35 -55.5 -59t-103.5 -24q-111 0 -172 64t-61 182q0 86 25 154t67.5 115.5t99 72.5t120.5 25q57 0 98.5 -13.5t69.5 -37.5t44 -57t22 -71l-158 -51q-2 20 -6 38t-14 31t-26 20.5t-40 7.5q-35 0 -62.5 -17.5t-46 -48t-28.5 -71.5 t-10 -88q0 -63 29 -98.5t87 -35.5q47 0 76 21.5t35 57.5l2 12h-114l21 118h260zM384 640q-83 0 -111.5 42t-15.5 112h109q-5 -26 2.5 -38.5t34.5 -12.5t38.5 12.5t16.5 38.5h109q-13 -70 -56.5 -112t-126.5 -42z"></glyph><glyph glyph-name="gbreve" unicode="ğ" d="M346 269q3 18 2.5 34.5t-6 29t-17.5 20.5t-32 8q-27 0 -46.5 -14t-32 -37t-18.5 -53t-6 -62q0 -35 14 -60.5t44 -25.5q69 0 86 93zM449 1q-19 -109 -86 -160.5t-188 -51.5q-78 0 -136.5 24.5t-83.5 83.5l111 83q9 -35 41 -55.5t70 -20.5q59 0 87 32.5t39 85.5l12 63 q-16 -49 -51 -68t-79 -19q-77 0 -115 51t-38 138q0 59 14.5 111t42 91t68.5 61.5t95 22.5q46 0 78 -20.5t35 -67.5l29 77h136zM310 518q-42 0 -69 13t-41.5 35t-18 52t2.5 63h109q-5 -27 0 -42.5t35 -15.5t41 15.5t16 42.5h109q-6 -33 -20 -63t-36.5 -52t-54 -35t-73.5 -13z "></glyph><glyph glyph-name="Gdotaccent" unicode="Ġ" d="M601 318l-56 -318h-88l-15 71q-18 -35 -55.5 -59t-103.5 -24q-111 0 -172 64t-61 182q0 86 25 154t67.5 115.5t99 72.5t120.5 25q57 0 98.5 -13.5t69.5 -37.5t44 -57t22 -71l-158 -51q-2 20 -6 38t-14 31t-26 20.5t-40 7.5q-35 0 -62.5 -17.5t-46 -48t-28.5 -71.5 t-10 -88q0 -63 29 -98.5t87 -35.5q47 0 76 21.5t35 57.5l2 12h-114l21 118h260zM313 733q0 42 25.5 62.5t62.5 20.5q39 0 65 -20.5t26 -62.5q0 -41 -26 -61.5t-65 -20.5q-37 0 -62.5 20.5t-25.5 61.5z"></glyph><glyph glyph-name="gdotaccent" unicode="ġ" d="M346 269q3 18 2.5 34.5t-6 29t-17.5 20.5t-32 8q-27 0 -46.5 -14t-32 -37t-18.5 -53t-6 -62q0 -35 14 -60.5t44 -25.5q69 0 86 93zM449 1q-19 -109 -86 -160.5t-188 -51.5q-78 0 -136.5 24.5t-83.5 83.5l111 83q9 -35 41 -55.5t70 -20.5q59 0 87 32.5t39 85.5l12 63 q-16 -49 -51 -68t-79 -19q-77 0 -115 51t-38 138q0 59 14.5 111t42 91t68.5 61.5t95 22.5q46 0 78 -20.5t35 -67.5l29 77h136zM233 595q0 42 26 62.5t62 20.5q40 0 65.5 -20.5t25.5 -62.5q0 -41 -25.5 -61.5t-65.5 -20.5q-36 0 -62 20.5t-26 61.5z"></glyph><glyph glyph-name="Gcommaaccent" unicode="Ģ" d="M601 318l-56 -318h-88l-15 71q-18 -35 -55.5 -59t-103.5 -24q-111 0 -172 64t-61 182q0 86 25 154t67.5 115.5t99 72.5t120.5 25q57 0 98.5 -13.5t69.5 -37.5t44 -57t22 -71l-158 -51q-2 20 -6 38t-14 31t-26 20.5t-40 7.5q-35 0 -62.5 -17.5t-46 -48t-28.5 -71.5 t-10 -88q0 -63 29 -98.5t87 -35.5q47 0 76 21.5t35 57.5l2 12h-114l21 118h260zM334 -135q0 -32 -12.5 -55t-34 -38t-51.5 -22.5t-65 -7.5v48q34 1 57.5 9t23.5 28q-29 -5 -50.5 9t-21.5 49t21.5 52t51.5 17q38 0 59.5 -23.5t21.5 -65.5z"></glyph><glyph glyph-name="gcommaaccent" unicode="ģ" d="M346 269q3 18 2.5 34.5t-6 29t-17.5 20.5t-32 8q-27 0 -46.5 -14t-32 -37t-18.5 -53t-6 -62q0 -35 14 -60.5t44 -25.5q69 0 86 93zM449 1q-19 -109 -86 -160.5t-188 -51.5q-78 0 -136.5 24.5t-83.5 83.5l111 83q9 -35 41 -55.5t70 -20.5q59 0 87 32.5t39 85.5l12 63 q-16 -49 -51 -68t-79 -19q-77 0 -115 51t-38 138q0 59 14.5 111t42 91t68.5 61.5t95 22.5q46 0 78 -20.5t35 -67.5l29 77h136zM245 609q0 31 12.5 54.5t34 38.5t51.5 22.5t65 7.5v-48q-34 -1 -57.5 -9t-23.5 -28q29 5 50.5 -9t21.5 -49t-21.5 -52t-51.5 -17 q-38 0 -59.5 23.5t-21.5 65.5z"></glyph><glyph glyph-name="Hcircumflex" unicode="Ĥ" d="M30 0l103 589h152l-39 -225h207l39 225h152l-103 -589h-152l41 234h-207l-41 -234h-152zM463 795l111 -150h-131l-24 30q-5 6 -7.5 11.5t-4.5 9.5t-2 8h-5q-2 -4 -5 -8t-7 -9.5t-12 -11.5l-36 -30h-137l165 150h95z"></glyph><glyph glyph-name="hcircumflex" unicode="ĥ" d="M303 847l111 -150h-131l-24 30q-5 6 -7.5 11.5t-4.5 9.5t-2 8h-5q-2 -4 -5 -8t-7 -9.5t-12 -11.5l-36 -30h-137l165 150h95zM482 157q-3 -17 1 -29t27 -12q7 0 14 1.5t16 3.5l-24 -113q-19 -6 -39.5 -9.5t-39.5 -3.5q-135 0 -112 135l25 144q5 32 -3.5 54t-43.5 22 q-27 0 -48 -25t-31 -80l-43 -245h-151l117 668h152l-53 -300q22 51 55 78t91 27q55 0 87 -32t32 -86q0 -12 -0.5 -21t-2.5 -18z"></glyph><glyph glyph-name="Hbar" unicode="Ħ" d="M37 0l71 410h-78l21 113h77l12 66h152l-11 -66h207l11 66h152l-12 -66h87l-21 -113h-86l-71 -410h-152l40 224h-207l-40 -224h-152zM457 343l11 67h-207l-11 -67h207z"></glyph><glyph glyph-name="hbar" unicode="ħ" d="M62 602h73l12 66h152l-12 -66h134l-16 -87h-133l-26 -147q22 51 55 78t91 27q55 0 87 -32t32 -86q0 -12 -0.5 -21t-2.5 -18l-26 -159q-3 -17 1 -29t27 -12q7 0 14 1.5t16 3.5l-24 -113q-19 -6 -39.5 -9.5t-39.5 -3.5q-135 0 -112 135l25 144q5 32 -3.5 54t-43.5 22 q-27 0 -48 -25t-31 -80l-43 -245h-151l90 515h-74z"></glyph><glyph glyph-name="Itilde" unicode="Ĩ" d="M285 589l-103 -589h-152l103 589h152zM290 647q-31 0 -46.5 7t-32.5 18q-20 13 -31 19t-22 6q-15 0 -26.5 -13t-12.5 -39h-81q-9 37 -3 68t22.5 53t41 34t53.5 12q26 0 40.5 -6.5t27.5 -14.5q21 -14 33.5 -21.5t25.5 -7.5q14 0 23.5 10.5t10.5 36.5h84q10 -37 6.5 -67 t-18.5 -51t-39.5 -32.5t-55.5 -11.5z"></glyph><glyph glyph-name="itilde" unicode="ĩ" d="M196 157q-3 -17 1 -29t27 -12q7 0 14 1.5t16 3.5l-24 -113q-19 -6 -39.5 -9.5t-39.5 -3.5q-135 0 -112 135l59 332h151zM259 519q-31 0 -46.5 7t-32.5 18q-20 13 -31 19t-22 6q-15 0 -26.5 -13t-12.5 -39h-81q-9 37 -3 68t22.5 53t41 34t53.5 12q26 0 40.5 -6.5 t27.5 -14.5q21 -14 33.5 -21.5t25.5 -7.5q14 0 23.5 10.5t10.5 36.5h84q10 -37 6.5 -67t-18.5 -51t-39.5 -32.5t-55.5 -11.5z"></glyph><glyph glyph-name="Imacron" unicode="Ī" d="M285 589l-103 -589h-152l103 589h152zM65 661l21 120h314l-21 -120h-314z"></glyph><glyph glyph-name="imacron" unicode="ī" d="M196 157q-3 -17 1 -29t27 -12q7 0 14 1.5t16 3.5l-24 -113q-19 -6 -39.5 -9.5t-39.5 -3.5q-135 0 -112 135l59 332h151zM30 533l22 120h305l-22 -120h-305z"></glyph><glyph glyph-name="Ibreve" unicode="Ĭ" d="M285 589l-103 -589h-152l103 589h152zM216 640q-83 0 -111.5 42t-15.5 112h109q-5 -26 2.5 -38.5t34.5 -12.5t38.5 12.5t16.5 38.5h109q-13 -70 -56.5 -112t-126.5 -42z"></glyph><glyph glyph-name="Iogonek" unicode="Į" d="M-42 -106q0 43 22 75.5t54 53.5l99 566h152l-103 -589q-53 0 -79.5 -22t-26.5 -56q0 -37 35 -37q16 0 28.5 5t29.5 20l29 -76q-25 -25 -55.5 -35t-64.5 -10q-24 0 -46 5.5t-38.5 18.5t-26 32.5t-9.5 48.5z"></glyph><glyph glyph-name="iogonek" unicode="į" d="M-1 -106q0 41 19 72t49 51q-43 34 -28 113l59 332h151l-53 -305q-3 -17 1 -29t27 -12q7 0 14 1.5t16 3.5l-24 -113q-20 -4 -40 -10t-36 -16t-26.5 -24.5t-10.5 -35.5q0 -37 35 -37q16 0 28.5 5t29.5 20l29 -76q-25 -25 -55.5 -35t-64.5 -10q-24 0 -46 5.5t-38.5 18.5 t-26 32.5t-9.5 48.5zM104 601q0 42 26 62.5t62 20.5q39 0 65 -20.5t26 -62.5q0 -41 -26 -61.5t-65 -20.5q-36 0 -62 20.5t-26 61.5z"></glyph><glyph glyph-name="Idotaccent" unicode="İ" d="M285 589l-103 -589h-152l103 589h152zM145 733q0 42 25.5 62.5t62.5 20.5q39 0 65 -20.5t26 -62.5q0 -41 -26 -61.5t-65 -20.5q-37 0 -62.5 20.5t-25.5 61.5z"></glyph><glyph glyph-name="dotlessi" unicode="ı" d="M196 157q-3 -17 1 -29t27 -12q7 0 14 1.5t16 3.5l-24 -113q-19 -6 -39.5 -9.5t-39.5 -3.5q-135 0 -112 135l59 332h151z"></glyph><glyph glyph-name="IJ" unicode="Ĳ" d="M285 589l-103 -589h-152l103 589h152zM764 589l-73 -418q-9 -53 -28.5 -88t-48.5 -56t-66.5 -30t-83.5 -9q-81 0 -127.5 31.5t-68.5 91.5l123 82q9 -38 27.5 -59t52.5 -21q33 0 47.5 16.5t22.5 58.5l71 401h152z"></glyph><glyph glyph-name="ij" unicode="ĳ" d="M196 157q-3 -17 1 -29t27 -12q7 0 14 1.5t16 3.5l-24 -113q-19 -6 -39.5 -9.5t-39.5 -3.5q-135 0 -112 135l59 332h151zM104 601q0 42 26 62.5t62 20.5q39 0 65 -20.5t26 -62.5q0 -41 -26 -61.5t-65 -20.5q-36 0 -62 20.5t-26 61.5zM451 -59q-15 -86 -62.5 -119 t-127.5 -33q-38 0 -69.5 8t-53.5 20l40 109q14 -11 29.5 -18.5t36.5 -7.5q25 0 39 14t22 58l86 490h151zM397 601q0 42 26 62.5t62 20.5q39 0 65 -20.5t26 -62.5q0 -41 -26 -61.5t-65 -20.5q-36 0 -62 20.5t-26 61.5z"></glyph><glyph glyph-name="Jcircumflex" unicode="Ĵ" d="M471 589l-73 -418q-9 -53 -28.5 -88t-48.5 -56t-66.5 -30t-83.5 -9q-81 0 -127.5 31.5t-68.5 91.5l123 82q9 -38 27.5 -59t52.5 -21q33 0 47.5 16.5t22.5 58.5l71 401h152zM468 795l111 -150h-131l-24 30q-5 6 -7.5 11.5t-4.5 9.5t-2 8h-5q-2 -4 -5 -8t-7 -9.5t-12 -11.5 l-36 -30h-137l165 150h95z"></glyph><glyph glyph-name="jcircumflex" unicode="ĵ" d="M158 -59q-15 -86 -62.5 -119t-127.5 -33q-38 0 -69.5 8t-53.5 20l40 109q14 -11 29.5 -18.5t36.5 -7.5q25 0 39 14t22 58l86 490h151zM254 685l110 -163h-131l-25 32q-6 8 -8.5 13.5t-3.5 9.5t-1 8h-5q-1 -4 -4 -8q-5 -9 -21 -23l-35 -32h-137l166 163h95z"></glyph><glyph glyph-name="Kcommaaccent" unicode="Ķ" d="M369 0l-110 234h-36l-41 -234h-152l103 589h152l-39 -225h31l167 225h177l-226 -293l148 -296h-174zM309 -135q0 -32 -12.5 -55t-34 -38t-51.5 -22.5t-65 -7.5v48q34 1 57.5 9t23.5 28q-29 -5 -50.5 9t-21.5 49t21.5 52t51.5 17q38 0 59.5 -23.5t21.5 -65.5z"></glyph><glyph glyph-name="kcommaaccent" unicode="ķ" d="M246 192h-31l-34 -192h-151l117 668h152l-64 -362h23l137 156h182l-200 -216l53 -100q14 -26 32 -29.5t50 6.5l-24 -117q-15 -5 -32 -8t-43 -3q-37 0 -66 15.5t-48 59.5zM306 -135q0 -32 -12.5 -55t-34 -38t-51.5 -22.5t-65 -7.5v48q34 1 57.5 9t23.5 28q-29 -5 -50.5 9 t-21.5 49t21.5 52t51.5 17q38 0 59.5 -23.5t21.5 -65.5z"></glyph><glyph glyph-name="kgreenlandic" unicode="ĸ" d="M246 192h-31l-34 -192h-151l81 462h152l-28 -156h23l137 156h182l-200 -216l53 -100q14 -26 32 -29.5t50 6.5l-24 -117q-15 -5 -32 -8t-43 -3q-37 0 -66 15.5t-48 59.5z"></glyph><glyph glyph-name="Lacute" unicode="Ĺ" d="M285 589l-81 -459h218l-22 -130h-370l103 589h152zM149 645l65 150h184l-113 -150h-136z"></glyph><glyph glyph-name="lacute" unicode="ĺ" d="M196 157q-3 -17 1 -29t27 -12q7 0 14 1.5t16 3.5l-24 -113q-19 -6 -39.5 -9.5t-39.5 -3.5q-135 0 -112 135l96 538h151zM144 694l65 150h184l-113 -150h-136z"></glyph><glyph glyph-name="Lcommaaccent" unicode="Ļ" d="M285 589l-81 -459h218l-22 -130h-370l103 589h152zM273 -135q0 -32 -12.5 -55t-34 -38t-51.5 -22.5t-65 -7.5v48q34 1 57.5 9t23.5 28q-29 -5 -50.5 9t-21.5 49t21.5 52t51.5 17q38 0 59.5 -23.5t21.5 -65.5z"></glyph><glyph glyph-name="lcommaaccent" unicode="ļ" d="M196 157q-3 -17 1 -29t27 -12q7 0 14 1.5t16 3.5l-24 -113q-19 -6 -39.5 -9.5t-39.5 -3.5q-135 0 -112 135l96 538h151zM188 -135q0 -32 -12.5 -55t-34 -38t-51.5 -22.5t-65 -7.5v48q34 1 57.5 9t23.5 28q-29 -5 -50.5 9t-21.5 49t21.5 52t51.5 17q38 0 59.5 -23.5 t21.5 -65.5z"></glyph><glyph glyph-name="Lcaron" unicode="Ľ" d="M285 589l-81 -459h218l-22 -130h-370l103 589h152zM460 469h-106l15 199h150z"></glyph><glyph glyph-name="lcaron" unicode="ľ" d="M436 519h-106l15 179h150zM196 157q-3 -17 1 -29t27 -12q7 0 14 1.5t16 3.5l-24 -113q-19 -6 -39.5 -9.5t-39.5 -3.5q-135 0 -112 135l96 538h151z"></glyph><glyph glyph-name="Ldot" unicode="Ŀ" d="M285 589l-81 -459h218l-22 -130h-370l103 589h152zM306 312q0 41 26 67.5t64 26.5q41 0 67.5 -26.5t26.5 -67.5q0 -38 -26.5 -64t-67.5 -26q-38 0 -64 26t-26 64z"></glyph><glyph glyph-name="ldot" unicode="ŀ" d="M196 157q-3 -17 1 -29t27 -12q7 0 14 1.5t16 3.5l-24 -113q-19 -6 -39.5 -9.5t-39.5 -3.5q-135 0 -112 135l96 538h151zM277 329q0 41 26 67.5t64 26.5q41 0 67.5 -26.5t26.5 -67.5q0 -38 -26.5 -64t-67.5 -26q-38 0 -64 26t-26 64z"></glyph><glyph glyph-name="Lslash" unicode="Ł" d="M294 589l-36 -204l132 44l-17 -99l-133 -44l-27 -156h218l-22 -130h-370l41 234l-70 -23l17 98l70 23l45 257h152z"></glyph><glyph glyph-name="lslash" unicode="ł" d="M250 439l88 39l-18 -102l-88 -40l-31 -179q-3 -17 1 -29t27 -12q7 0 14 1.5t16 3.5l-24 -113q-19 -6 -39.5 -9.5t-39.5 -3.5q-135 0 -112 135l23 132l-72 -33l18 104l73 32l54 303h151z"></glyph><glyph glyph-name="Nacute" unicode="Ń" d="M403 327q8 -17 14.5 -32.5t11.5 -27.5q5 -14 8 -27h4q1 16 4 36q2 17 5 40t8 52l39 221h152l-103 -589h-134l-134 255q-11 19 -18 36t-12 31q-5 16 -9 29h-4q-1 -16 -3 -36q-2 -17 -5 -43t-9 -58l-36 -214h-152l103 589h139zM316 645l65 150h184l-113 -150h-136z"></glyph><glyph glyph-name="nacute" unicode="ń" d="M482 157q-3 -17 1 -29t27 -12q7 0 14 1.5t16 3.5l-24 -113q-19 -6 -39.5 -9.5t-39.5 -3.5q-135 0 -112 135l25 144q5 32 -3.5 54t-43.5 22q-27 0 -48 -25t-31 -80l-43 -245h-151l81 462h132l2 -94q22 51 55.5 78t91.5 27q55 0 87 -32t32 -86q0 -12 -0.5 -21t-2.5 -18z M254 525l69 156h184l-117 -156h-136z"></glyph><glyph glyph-name="Ncommaaccent" unicode="Ņ" d="M403 327q8 -17 14.5 -32.5t11.5 -27.5q5 -14 8 -27h4q1 16 4 36q2 17 5 40t8 52l39 221h152l-103 -589h-134l-134 255q-11 19 -18 36t-12 31q-5 16 -9 29h-4q-1 -16 -3 -36q-2 -17 -5 -43t-9 -58l-36 -214h-152l103 589h139zM338 -135q0 -32 -12.5 -55t-34 -38 t-51.5 -22.5t-65 -7.5v48q34 1 57.5 9t23.5 28q-29 -5 -50.5 9t-21.5 49t21.5 52t51.5 17q38 0 59.5 -23.5t21.5 -65.5z"></glyph><glyph glyph-name="ncommaaccent" unicode="ņ" d="M482 157q-3 -17 1 -29t27 -12q7 0 14 1.5t16 3.5l-24 -113q-19 -6 -39.5 -9.5t-39.5 -3.5q-135 0 -112 135l25 144q5 32 -3.5 54t-43.5 22q-27 0 -48 -25t-31 -80l-43 -245h-151l81 462h132l2 -94q22 51 55.5 78t91.5 27q55 0 87 -32t32 -86q0 -12 -0.5 -21t-2.5 -18z M297 -135q0 -32 -12.5 -55t-34 -38t-51.5 -22.5t-65 -7.5v48q34 1 57.5 9t23.5 28q-29 -5 -50.5 9t-21.5 49t21.5 52t51.5 17q38 0 59.5 -23.5t21.5 -65.5z"></glyph><glyph glyph-name="Ncaron" unicode="Ň" d="M403 327q8 -17 14.5 -32.5t11.5 -27.5q5 -14 8 -27h4q1 16 4 36q2 17 5 40t8 52l39 221h152l-103 -589h-134l-134 255q-11 19 -18 36t-12 31q-5 16 -9 29h-4q-1 -16 -3 -36q-2 -17 -5 -43t-9 -58l-36 -214h-152l103 589h139zM338 645l-111 150h131l24 -30q5 -7 7.5 -12 l4.5 -9t2 -8h5q0 4 4 8q4 7 20 21l36 30h137l-165 -150h-95z"></glyph><glyph glyph-name="ncaron" unicode="ň" d="M482 157q-3 -17 1 -29t27 -12q7 0 14 1.5t16 3.5l-24 -113q-19 -6 -39.5 -9.5t-39.5 -3.5q-135 0 -112 135l25 144q5 32 -3.5 54t-43.5 22q-27 0 -48 -25t-31 -80l-43 -245h-151l81 462h132l2 -94q22 51 55.5 78t91.5 27q55 0 87 -32t32 -86q0 -12 -0.5 -21t-2.5 -18z M275 522l-110 163h131l25 -32q10 -15 12 -23q1 -4 1 -8h5q1 4 4 8q2 4 7 9.5t14 13.5l35 32h137l-166 -163h-95z"></glyph><glyph glyph-name="Eng" unicode="Ŋ" d="M541 -28q-9 -53 -29 -88t-49 -56t-67 -30t-84 -9q-75 0 -118 23t-69 61l100 114q11 -37 38 -55t54 -18q20 0 33 4.5t21 14.5t13 26t9 38l5 29l-120 229q-11 19 -18 36t-12 31q-5 16 -9 29h-4q-1 -16 -3 -36q-2 -17 -5 -43t-9 -58l-36 -214h-152l103 589h139l131 -262 q8 -17 14.5 -32.5t11.5 -27.5q5 -14 8 -27h4q1 16 4 36q2 17 5 40t8 52l39 221h152z"></glyph><glyph glyph-name="eng" unicode="ŋ" d="M443 -59q-15 -86 -62.5 -119t-127.5 -33q-38 0 -69.5 8t-53.5 20l40 109q14 -11 29.5 -18.5t36.5 -7.5q25 0 39 14t22 58l53 302q5 32 -3.5 54t-43.5 22q-27 0 -48 -25t-31 -80l-43 -245h-151l81 462h132l2 -94q22 51 55.5 78t91.5 27q55 0 87 -32t32 -86q0 -12 -0.5 -21 t-2.5 -18z"></glyph><glyph glyph-name="Omacron" unicode="Ō" d="M297 -12q-60 0 -106.5 17t-77.5 49t-47 77.5t-16 102.5q0 86 25 154t67.5 115.5t99 72.5t120.5 25q122 0 184.5 -66.5t62.5 -180.5q0 -86 -25 -154t-67.5 -115t-99.5 -72t-120 -25zM352 469q-35 0 -62.5 -17.5t-46 -48.5t-28.5 -72t-10 -87q0 -63 27 -95.5t72 -32.5 q33 0 59.5 18t46 48.5t30 72.5t10.5 90q0 60 -26.5 92t-71.5 32zM227 661l21 120h314l-21 -120h-314z"></glyph><glyph glyph-name="omacron" unicode="ō" d="M293 473q99 0 156.5 -52.5t57.5 -152.5q0 -55 -16 -105.5t-48.5 -89.5t-81.5 -62t-115 -23q-46 0 -85.5 12t-68.5 36.5t-45.5 61.5t-16.5 86q0 57 16 109.5t48.5 92.5t82 63.5t116.5 23.5zM284 355q-22 0 -39 -13t-29 -35.5t-18.5 -54t-6.5 -67.5q0 -42 16.5 -62.5 t45.5 -20.5q22 0 39.5 12.5t29.5 35t18.5 53.5t6.5 68q0 42 -16.5 63t-46.5 21zM153 533l22 120h305l-22 -120h-305z"></glyph><glyph glyph-name="Obreve" unicode="Ŏ" d="M297 -12q-60 0 -106.5 17t-77.5 49t-47 77.5t-16 102.5q0 86 25 154t67.5 115.5t99 72.5t120.5 25q122 0 184.5 -66.5t62.5 -180.5q0 -86 -25 -154t-67.5 -115t-99.5 -72t-120 -25zM352 469q-35 0 -62.5 -17.5t-46 -48.5t-28.5 -72t-10 -87q0 -63 27 -95.5t72 -32.5 q33 0 59.5 18t46 48.5t30 72.5t10.5 90q0 60 -26.5 92t-71.5 32zM378 640q-83 0 -111.5 42t-15.5 112h109q-5 -26 2.5 -38.5t34.5 -12.5t38.5 12.5t16.5 38.5h109q-13 -70 -56.5 -112t-126.5 -42z"></glyph><glyph glyph-name="obreve" unicode="ŏ" d="M293 473q99 0 156.5 -52.5t57.5 -152.5q0 -55 -16 -105.5t-48.5 -89.5t-81.5 -62t-115 -23q-46 0 -85.5 12t-68.5 36.5t-45.5 61.5t-16.5 86q0 57 16 109.5t48.5 92.5t82 63.5t116.5 23.5zM284 355q-22 0 -39 -13t-29 -35.5t-18.5 -54t-6.5 -67.5q0 -42 16.5 -62.5 t45.5 -20.5q22 0 39.5 12.5t29.5 35t18.5 53.5t6.5 68q0 42 -16.5 63t-46.5 21zM304 518q-42 0 -69 13t-41.5 35t-18 52t2.5 63h109q-5 -27 0 -42.5t35 -15.5t41 15.5t16 42.5h109q-6 -33 -20 -63t-36.5 -52t-54 -35t-73.5 -13z"></glyph><glyph glyph-name="Ohungarumlaut" unicode="Ő" d="M297 -12q-60 0 -106.5 17t-77.5 49t-47 77.5t-16 102.5q0 86 25 154t67.5 115.5t99 72.5t120.5 25q122 0 184.5 -66.5t62.5 -180.5q0 -86 -25 -154t-67.5 -115t-99.5 -72t-120 -25zM352 469q-35 0 -62.5 -17.5t-46 -48.5t-28.5 -72t-10 -87q0 -63 27 -95.5t72 -32.5 q33 0 59.5 18t46 48.5t30 72.5t10.5 90q0 60 -26.5 92t-71.5 32zM232 645l49 150h152l-97 -150h-104zM404 645l69 150h163l-117 -150h-115z"></glyph><glyph glyph-name="ohungarumlaut" unicode="ő" d="M293 473q99 0 156.5 -52.5t57.5 -152.5q0 -55 -16 -105.5t-48.5 -89.5t-81.5 -62t-115 -23q-46 0 -85.5 12t-68.5 36.5t-45.5 61.5t-16.5 86q0 57 16 109.5t48.5 92.5t82 63.5t116.5 23.5zM284 355q-22 0 -39 -13t-29 -35.5t-18.5 -54t-6.5 -67.5q0 -42 16.5 -62.5 t45.5 -20.5q22 0 39.5 12.5t29.5 35t18.5 53.5t6.5 68q0 42 -16.5 63t-46.5 21zM151 525l49 156h152l-97 -156h-104zM323 525l69 156h163l-117 -156h-115z"></glyph><glyph glyph-name="OE" unicode="Œ" d="M297 -12q-60 0 -106.5 17t-77.5 49t-47 77.5t-16 102.5q0 86 25 154t67.5 115.5t99 72.5t120.5 25q50 0 91 -12h432l-23 -130h-270q8 -23 12 -46q2 -12 3 -25t2 -27h205l-22 -125h-197q-15 -59 -45 -106h254l-22 -130h-401q-41 -12 -84 -12zM352 469q-35 0 -62.5 -17.5 t-46 -48.5t-28.5 -72t-10 -87q0 -63 27 -95.5t72 -32.5q33 0 59.5 18t46 48.5t30 72.5t10.5 90q0 60 -26.5 92t-71.5 32z"></glyph><glyph glyph-name="oe" unicode="œ" d="M564 102q26 0 43 15.5t24 42.5l142 -34q-20 -71 -74 -104.5t-143 -33.5q-50 0 -92 18t-59 42q-30 -29 -70 -44.5t-89 -15.5q-46 0 -85.5 12t-68.5 36.5t-45.5 61.5t-16.5 86q0 57 16 109.5t48.5 92.5t82 63.5t116.5 23.5q50 0 88.5 -16t64.5 -44q29 29 70 44.5t83 15.5 q50 0 87 -14t61 -37.5t36 -53.5t12 -63q0 -28 -5 -53.5t-15 -45.5h-269q-7 -42 7 -73t51 -31zM284 355q-22 0 -39 -13t-29 -35.5t-18.5 -54t-6.5 -67.5q0 -42 16.5 -62.5t45.5 -20.5q22 0 39.5 12.5t29.5 35t18.5 53.5t6.5 68q0 42 -16.5 63t-46.5 21zM641 284q1 5 1.5 10 t0.5 11q0 25 -10.5 42t-39.5 17q-30 0 -48.5 -24t-26.5 -56h123z"></glyph><glyph glyph-name="Racute" unicode="Ŕ" d="M367 0q-13 11 -18.5 27.5t-8.5 35.5l-13 83q-5 32 -17.5 41.5t-43.5 9.5h-50l-34 -197h-152l103 589h231q97 0 147 -35t50 -122q0 -44 -13 -75.5t-34.5 -52.5t-49 -32.5t-56.5 -14.5v-4q40 -7 57 -24.5t24 -56.5l18 -108q3 -17 7.5 -32.5t17.5 -31.5h-165zM238 322h78 q18 0 34 4t28.5 14t19.5 26t7 39q0 27 -16.5 42t-51.5 15h-74zM268 645l65 150h184l-113 -150h-136z"></glyph><glyph glyph-name="racute" unicode="ŕ" d="M393 294q-25 13 -52.5 17t-52.5 -3.5t-43.5 -28.5t-24.5 -57l-39 -222h-151l81 462h132l-3 -127q12 36 32 64t44.5 46.5t53 25t58.5 -1.5zM192 525l69 156h184l-117 -156h-136z"></glyph><glyph glyph-name="Rcommaaccent" unicode="Ŗ" d="M367 0q-13 11 -18.5 27.5t-8.5 35.5l-13 83q-5 32 -17.5 41.5t-43.5 9.5h-50l-34 -197h-152l103 589h231q97 0 147 -35t50 -122q0 -44 -13 -75.5t-34.5 -52.5t-49 -32.5t-56.5 -14.5v-4q40 -7 57 -24.5t24 -56.5l18 -108q3 -17 7.5 -32.5t17.5 -31.5h-165zM238 322h78 q18 0 34 4t28.5 14t19.5 26t7 39q0 27 -16.5 42t-51.5 15h-74zM330 -135q0 -32 -12.5 -55t-34 -38t-51.5 -22.5t-65 -7.5v48q34 1 57.5 9t23.5 28q-29 -5 -50.5 9t-21.5 49t21.5 52t51.5 17q38 0 59.5 -23.5t21.5 -65.5z"></glyph><glyph glyph-name="rcommaaccent" unicode="ŗ" d="M393 294q-25 13 -52.5 17t-52.5 -3.5t-43.5 -28.5t-24.5 -57l-39 -222h-151l81 462h132l-3 -127q12 36 32 64t44.5 46.5t53 25t58.5 -1.5zM170 -135q0 -32 -12.5 -55t-34 -38t-51.5 -22.5t-65 -7.5v48q34 1 57.5 9t23.5 28q-29 -5 -50.5 9t-21.5 49t21.5 52t51.5 17 q38 0 59.5 -23.5t21.5 -65.5z"></glyph><glyph glyph-name="Rcaron" unicode="Ř" d="M367 0q-13 11 -18.5 27.5t-8.5 35.5l-13 83q-5 32 -17.5 41.5t-43.5 9.5h-50l-34 -197h-152l103 589h231q97 0 147 -35t50 -122q0 -44 -13 -75.5t-34.5 -52.5t-49 -32.5t-56.5 -14.5v-4q40 -7 57 -24.5t24 -56.5l18 -108q3 -17 7.5 -32.5t17.5 -31.5h-165zM238 322h78 q18 0 34 4t28.5 14t19.5 26t7 39q0 27 -16.5 42t-51.5 15h-74zM290 645l-111 150h131l24 -30q5 -7 7.5 -12l4.5 -9t2 -8h5q0 4 4 8q4 7 20 21l36 30h137l-165 -150h-95z"></glyph><glyph glyph-name="rcaron" unicode="ř" d="M393 294q-25 13 -52.5 17t-52.5 -3.5t-43.5 -28.5t-24.5 -57l-39 -222h-151l81 462h132l-3 -127q12 36 32 64t44.5 46.5t53 25t58.5 -1.5zM213 522l-110 163h131l25 -32q10 -15 12 -23q1 -4 1 -8h5q1 4 4 8q2 4 7 9.5t14 13.5l35 32h137l-166 -163h-95z"></glyph><glyph glyph-name="Sacute" unicode="Ś" d="M147 192q1 -40 24.5 -66.5t65.5 -26.5q34 0 56 12.5t22 44.5q0 26 -16.5 41t-60.5 29q-45 13 -74.5 31t-47.5 40.5t-25.5 49.5t-7.5 59q0 54 20 91t52.5 60.5t73.5 33.5t82 10q95 0 148.5 -38.5t58.5 -125.5l-148 -29q2 36 -19 53t-52 17q-32 0 -50 -13.5t-18 -42.5 q0 -23 17.5 -36t64.5 -28q84 -27 119.5 -67.5t35.5 -112.5q0 -54 -20 -90.5t-54 -58.5t-78.5 -31.5t-93.5 -9.5q-43 0 -80 8.5t-64.5 26.5t-45.5 46t-22 68zM251 645l65 150h184l-113 -150h-136z"></glyph><glyph glyph-name="sacute" unicode="ś" d="M122 163q3 -37 23.5 -56t51.5 -19q23 0 38 8t15 28q0 17 -13 28.5t-51 21.5q-66 17 -95.5 51.5t-29.5 89.5q0 42 16 72t43 49t63.5 28t77.5 9q91 0 136.5 -35t45.5 -96l-125 -31q0 29 -17 46t-49 17q-22 0 -35 -10t-13 -26q0 -8 3 -14t11 -11t22 -10.5t37 -12.5 q34 -11 58 -24t38 -30.5t20.5 -41t6.5 -54.5q0 -41 -16 -70t-44 -47t-66.5 -26.5t-83.5 -8.5q-39 0 -72 7t-57.5 22.5t-40.5 40t-20 59.5zM203 525l69 156h184l-117 -156h-136z"></glyph><glyph glyph-name="Scircumflex" unicode="Ŝ" d="M147 192q1 -40 24.5 -66.5t65.5 -26.5q34 0 56 12.5t22 44.5q0 26 -16.5 41t-60.5 29q-45 13 -74.5 31t-47.5 40.5t-25.5 49.5t-7.5 59q0 54 20 91t52.5 60.5t73.5 33.5t82 10q95 0 148.5 -38.5t58.5 -125.5l-148 -29q2 36 -19 53t-52 17q-32 0 -50 -13.5t-18 -42.5 q0 -23 17.5 -36t64.5 -28q84 -27 119.5 -67.5t35.5 -112.5q0 -54 -20 -90.5t-54 -58.5t-78.5 -31.5t-93.5 -9.5q-43 0 -80 8.5t-64.5 26.5t-45.5 46t-22 68zM390 795l111 -150h-131l-24 30q-5 6 -7.5 11.5t-4.5 9.5t-2 8h-5q-2 -4 -5 -8t-7 -9.5t-12 -11.5l-36 -30h-137 l165 150h95z"></glyph><glyph glyph-name="scircumflex" unicode="ŝ" d="M122 163q3 -37 23.5 -56t51.5 -19q23 0 38 8t15 28q0 17 -13 28.5t-51 21.5q-66 17 -95.5 51.5t-29.5 89.5q0 42 16 72t43 49t63.5 28t77.5 9q91 0 136.5 -35t45.5 -96l-125 -31q0 29 -17 46t-49 17q-22 0 -35 -10t-13 -26q0 -8 3 -14t11 -11t22 -10.5t37 -12.5 q34 -11 58 -24t38 -30.5t20.5 -41t6.5 -54.5q0 -41 -16 -70t-44 -47t-66.5 -26.5t-83.5 -8.5q-39 0 -72 7t-57.5 22.5t-40.5 40t-20 59.5zM349 685l110 -163h-131l-25 32q-6 8 -8.5 13.5t-3.5 9.5t-1 8h-5q-1 -4 -4 -8q-5 -9 -21 -23l-35 -32h-137l166 163h95z"></glyph><glyph glyph-name="Scedilla" unicode="Ş" d="M298 -116q0 -48 -34.5 -71.5t-84.5 -23.5q-37 0 -66.5 10t-43.5 26l26 67q17 -18 33 -26t30 -8q31 0 31 24q0 28 -42 38l28 71q-69 8 -113 42.5t-52 103.5l137 55q1 -40 24.5 -66.5t65.5 -26.5q34 0 56 12.5t22 44.5q0 26 -16.5 41t-60.5 29q-45 13 -74.5 31t-47.5 40.5 t-25.5 49.5t-7.5 59q0 54 20 91t52.5 60.5t73.5 33.5t82 10q95 0 148.5 -38.5t58.5 -125.5l-148 -29q2 36 -19 53t-52 17q-32 0 -50 -13.5t-18 -42.5q0 -23 17.5 -36t64.5 -28q84 -27 119.5 -67.5t35.5 -112.5q0 -54 -19.5 -90t-52.5 -58t-76 -31.5t-91 -10.5l-10 -23 q40 -6 59.5 -24t19.5 -57z"></glyph><glyph glyph-name="scedilla" unicode="ş" d="M271 -116q0 -48 -34.5 -71.5t-84.5 -23.5q-37 0 -66.5 10t-43.5 26l26 67q17 -18 33 -26t30 -8q31 0 31 24q0 28 -42 38l28 70q-61 7 -101 36.5t-47 90.5l122 46q3 -37 23.5 -56t51.5 -19q23 0 38 8t15 28q0 17 -13 28.5t-51 21.5q-66 17 -95.5 51.5t-29.5 89.5 q0 42 16 72t43 49t63.5 28t77.5 9q91 0 136.5 -35t45.5 -96l-125 -31q0 29 -17 46t-49 17q-22 0 -35 -10t-13 -26q0 -8 3 -14t11 -11t22 -10.5t37 -12.5q34 -11 58 -24t38 -30.5t20.5 -41t6.5 -54.5q0 -68 -42 -103t-109 -45q-11 -2 -23 -3t-24 -1l-10 -23q40 -6 59.5 -24 t19.5 -57z"></glyph><glyph glyph-name="Scaron" unicode="Š" d="M147 192q1 -40 24.5 -66.5t65.5 -26.5q34 0 56 12.5t22 44.5q0 26 -16.5 41t-60.5 29q-45 13 -74.5 31t-47.5 40.5t-25.5 49.5t-7.5 59q0 54 20 91t52.5 60.5t73.5 33.5t82 10q95 0 148.5 -38.5t58.5 -125.5l-148 -29q2 36 -19 53t-52 17q-32 0 -50 -13.5t-18 -42.5 q0 -23 17.5 -36t64.5 -28q84 -27 119.5 -67.5t35.5 -112.5q0 -54 -20 -90.5t-54 -58.5t-78.5 -31.5t-93.5 -9.5q-43 0 -80 8.5t-64.5 26.5t-45.5 46t-22 68zM273 645l-111 150h131l24 -30q5 -7 7.5 -12l4.5 -9t2 -8h5q0 4 4 8q4 7 20 21l36 30h137l-165 -150h-95z"></glyph><glyph glyph-name="scaron" unicode="š" d="M122 163q3 -37 23.5 -56t51.5 -19q23 0 38 8t15 28q0 17 -13 28.5t-51 21.5q-66 17 -95.5 51.5t-29.5 89.5q0 42 16 72t43 49t63.5 28t77.5 9q91 0 136.5 -35t45.5 -96l-125 -31q0 29 -17 46t-49 17q-22 0 -35 -10t-13 -26q0 -8 3 -14t11 -11t22 -10.5t37 -12.5 q34 -11 58 -24t38 -30.5t20.5 -41t6.5 -54.5q0 -41 -16 -70t-44 -47t-66.5 -26.5t-83.5 -8.5q-39 0 -72 7t-57.5 22.5t-40.5 40t-20 59.5zM224 522l-110 163h131l25 -32q10 -15 12 -23q1 -4 1 -8h5q1 4 4 8q2 4 7 9.5t14 13.5l35 32h137l-166 -163h-95z"></glyph><glyph glyph-name="Tcommaaccent" unicode="Ţ" d="M137 0l80 459h-157l23 130h468l-23 -130h-160l-80 -459h-151zM276 -135q0 -32 -12.5 -55t-34 -38t-51.5 -22.5t-65 -7.5v48q34 1 57.5 9t23.5 28q-29 -5 -50.5 9t-21.5 49t21.5 52t51.5 17q38 0 59.5 -23.5t21.5 -65.5z"></glyph><glyph glyph-name="tcommaaccent" unicode="ţ" d="M321 17q-22 -13 -57.5 -21t-73.5 -8q-39 0 -68 10t-47 31.5t-23.5 55.5t2.5 81l32 182h-66l20 114h67l17 98l153 17l-19 -115h120l-20 -114h-120l-32 -179q-5 -29 5.5 -39.5t32.5 -10.5q18 0 39.5 7t37.5 16v-125zM238 -135q0 -32 -12.5 -55t-34 -38t-51.5 -22.5 t-65 -7.5v48q34 1 57.5 9t23.5 28q-29 -5 -50.5 9t-21.5 49t21.5 52t51.5 17q38 0 59.5 -23.5t21.5 -65.5z"></glyph><glyph glyph-name="Tcaron" unicode="Ť" d="M137 0l80 459h-157l23 130h468l-23 -130h-160l-80 -459h-151zM276 645l-111 150h131l24 -30q5 -7 7.5 -12l4.5 -9t2 -8h5q0 4 4 8q4 7 20 21l36 30h137l-165 -150h-95z"></glyph><glyph glyph-name="tcaron" unicode="ť" d="M321 17q-22 -13 -57.5 -21t-73.5 -8q-39 0 -68 10t-47 31.5t-23.5 55.5t2.5 81l32 182h-66l20 114h67l17 98l153 17l-19 -115h120l-20 -114h-120l-32 -179q-5 -29 5.5 -39.5t32.5 -10.5q18 0 39.5 7t37.5 16v-125zM413 511h-106l15 199h150z"></glyph><glyph glyph-name="Tbar" unicode="Ŧ" d="M137 0l37 211h-94l21 120h94l22 128h-157l23 130h468l-23 -130h-160l-22 -128h102l-21 -120h-102l-37 -211h-151z"></glyph><glyph glyph-name="tbar" unicode="ŧ" d="M34 299h65l9 49h-66l20 114h67l17 98l153 17l-19 -115h120l-20 -114h-120l-9 -49h121l-19 -107h-121l-4 -23q-5 -29 5.5 -39.5t32.5 -10.5q18 0 39.5 7t37.5 16v-125q-22 -13 -57.5 -21t-73.5 -8q-39 0 -68 10t-47 31.5t-23.5 55.5t2.5 81l4 26h-65z"></glyph><glyph glyph-name="Utilde" unicode="Ũ" d="M618 589l-67 -380q-11 -64 -35.5 -106.5t-60.5 -68t-82.5 -36t-101.5 -10.5q-51 0 -95.5 12.5t-75.5 41t-43.5 75.5t-0.5 116l63 356h152l-63 -348q-5 -29 -4.5 -52.5t9.5 -40t28 -26t52 -9.5q32 0 51.5 9.5t31.5 26.5t18 41t11 53l61 346h152zM444 647q-31 0 -46.5 7 t-32.5 18q-20 13 -31 19t-22 6q-15 0 -26.5 -13t-12.5 -39h-81q-9 37 -3 68t22.5 53t41 34t53.5 12q26 0 40.5 -6.5t27.5 -14.5q21 -14 33.5 -21.5t25.5 -7.5q14 0 23.5 10.5t10.5 36.5h84q10 -37 6.5 -67t-18.5 -51t-39.5 -32.5t-55.5 -11.5z"></glyph><glyph glyph-name="utilde" unicode="ũ" d="M328 89q-22 -53 -58.5 -77t-95.5 -24q-75 0 -109.5 46.5t-20.5 129.5l53 298h151l-52 -301q-5 -32 6.5 -48t37.5 -16q31 0 54.5 22t32.5 79l47 264h151l-53 -305q-3 -17 1.5 -29t25.5 -12q7 0 14 1.5t16 3.5l-24 -113q-19 -6 -39.5 -9.5t-39.5 -3.5q-101 0 -98 94z M395 519q-31 0 -46.5 7t-32.5 18q-20 13 -31 19t-22 6q-15 0 -26.5 -13t-12.5 -39h-81q-9 37 -3 68t22.5 53t41 34t53.5 12q26 0 40.5 -6.5t27.5 -14.5q21 -14 33.5 -21.5t25.5 -7.5q14 0 23.5 10.5t10.5 36.5h84q10 -37 6.5 -67t-18.5 -51t-39.5 -32.5t-55.5 -11.5z"></glyph><glyph glyph-name="Umacron" unicode="Ū" d="M618 589l-67 -380q-11 -64 -35.5 -106.5t-60.5 -68t-82.5 -36t-101.5 -10.5q-51 0 -95.5 12.5t-75.5 41t-43.5 75.5t-0.5 116l63 356h152l-63 -348q-5 -29 -4.5 -52.5t9.5 -40t28 -26t52 -9.5q32 0 51.5 9.5t31.5 26.5t18 41t11 53l61 346h152zM220 661l21 120h314 l-21 -120h-314z"></glyph><glyph glyph-name="umacron" unicode="ū" d="M328 89q-22 -53 -58.5 -77t-95.5 -24q-75 0 -109.5 46.5t-20.5 129.5l53 298h151l-52 -301q-5 -32 6.5 -48t37.5 -16q31 0 54.5 22t32.5 79l47 264h151l-53 -305q-3 -17 1.5 -29t25.5 -12q7 0 14 1.5t16 3.5l-24 -113q-19 -6 -39.5 -9.5t-39.5 -3.5q-101 0 -98 94z M167 533l22 120h305l-22 -120h-305z"></glyph><glyph glyph-name="Ubreve" unicode="Ŭ" d="M618 589l-67 -380q-11 -64 -35.5 -106.5t-60.5 -68t-82.5 -36t-101.5 -10.5q-51 0 -95.5 12.5t-75.5 41t-43.5 75.5t-0.5 116l63 356h152l-63 -348q-5 -29 -4.5 -52.5t9.5 -40t28 -26t52 -9.5q32 0 51.5 9.5t31.5 26.5t18 41t11 53l61 346h152zM370 640q-83 0 -111.5 42 t-15.5 112h109q-5 -26 2.5 -38.5t34.5 -12.5t38.5 12.5t16.5 38.5h109q-13 -70 -56.5 -112t-126.5 -42z"></glyph><glyph glyph-name="ubreve" unicode="ŭ" d="M328 89q-22 -53 -58.5 -77t-95.5 -24q-75 0 -109.5 46.5t-20.5 129.5l53 298h151l-52 -301q-5 -32 6.5 -48t37.5 -16q31 0 54.5 22t32.5 79l47 264h151l-53 -305q-3 -17 1.5 -29t25.5 -12q7 0 14 1.5t16 3.5l-24 -113q-19 -6 -39.5 -9.5t-39.5 -3.5q-101 0 -98 94z M318 518q-42 0 -69 13t-41.5 35t-18 52t2.5 63h109q-5 -27 0 -42.5t35 -15.5t41 15.5t16 42.5h109q-6 -33 -20 -63t-36.5 -52t-54 -35t-73.5 -13z"></glyph><glyph glyph-name="Uring" unicode="Ů" d="M618 589l-67 -380q-11 -64 -35.5 -106.5t-60.5 -68t-82.5 -36t-101.5 -10.5q-51 0 -95.5 12.5t-75.5 41t-43.5 75.5t-0.5 116l63 356h152l-63 -348q-5 -29 -4.5 -52.5t9.5 -40t28 -26t52 -9.5q32 0 51.5 9.5t31.5 26.5t18 41t11 53l61 346h152zM277 733q0 25 9 47 t25.5 39t39.5 27t52 10q48 0 76.5 -30t28.5 -73q0 -26 -9 -49t-25 -40t-39 -26.5t-50 -9.5q-54 0 -81 30t-27 75zM398 790q-23 0 -35.5 -15.5t-12.5 -37.5q0 -18 10 -29t29 -11q24 0 36.5 16t12.5 38q0 17 -10 28t-30 11z"></glyph><glyph glyph-name="uring" unicode="ů" d="M328 89q-22 -53 -58.5 -77t-95.5 -24q-75 0 -109.5 46.5t-20.5 129.5l53 298h151l-52 -301q-5 -32 6.5 -48t37.5 -16q31 0 54.5 22t32.5 79l47 264h151l-53 -305q-3 -17 1.5 -29t25.5 -12q7 0 14 1.5t16 3.5l-24 -113q-19 -6 -39.5 -9.5t-39.5 -3.5q-101 0 -98 94z M219 607q0 25 9 47t25.5 39t39.5 27t52 10q48 0 76.5 -30t28.5 -73q0 -26 -9 -49t-25 -40t-39 -26.5t-50 -9.5q-54 0 -81 30t-27 75zM340 664q-23 0 -35.5 -15.5t-12.5 -37.5q0 -18 10 -29t29 -11q24 0 36.5 16t12.5 38q0 17 -10 28t-30 11z"></glyph><glyph glyph-name="Uhungarumlaut" unicode="Ű" d="M618 589l-67 -380q-11 -64 -35.5 -106.5t-60.5 -68t-82.5 -36t-101.5 -10.5q-51 0 -95.5 12.5t-75.5 41t-43.5 75.5t-0.5 116l63 356h152l-63 -348q-5 -29 -4.5 -52.5t9.5 -40t28 -26t52 -9.5q32 0 51.5 9.5t31.5 26.5t18 41t11 53l61 346h152zM225 645l49 150h152 l-97 -150h-104zM397 645l69 150h163l-117 -150h-115z"></glyph><glyph glyph-name="uhungarumlaut" unicode="ű" d="M328 89q-22 -53 -58.5 -77t-95.5 -24q-75 0 -109.5 46.5t-20.5 129.5l53 298h151l-52 -301q-5 -32 6.5 -48t37.5 -16q31 0 54.5 22t32.5 79l47 264h151l-53 -305q-3 -17 1.5 -29t25.5 -12q7 0 14 1.5t16 3.5l-24 -113q-19 -6 -39.5 -9.5t-39.5 -3.5q-101 0 -98 94z M165 525l49 156h152l-97 -156h-104zM337 525l69 156h163l-117 -156h-115z"></glyph><glyph glyph-name="Uogonek" unicode="Ų" d="M162 -106q0 30 11 55t30 45q-38 7 -69.5 24t-51.5 45.5t-27 70.5t3 99l63 356h152l-63 -348q-5 -29 -4.5 -52.5t9.5 -40t28 -26t52 -9.5q32 0 51.5 9.5t31.5 26.5t18 41t11 53l61 346h152l-67 -380q-10 -57 -30.5 -97t-50 -66t-67.5 -39t-84 -17q-20 -11 -30.5 -29 t-10.5 -39q0 -37 35 -37q16 0 28.5 5t29.5 20l29 -76q-25 -25 -55.5 -35t-64.5 -10q-24 0 -46 5.5t-38.5 18.5t-26 32.5t-9.5 48.5z"></glyph><glyph glyph-name="uogonek" unicode="ų" d="M472 157q-3 -17 1 -29t27 -12q7 0 14 1.5t16 3.5l-24 -113q-21 -5 -44.5 -9.5t-43 -13.5t-32.5 -23.5t-13 -39.5q0 -37 35 -37q16 0 28.5 5t29.5 20l29 -76q-25 -25 -55.5 -35t-64.5 -10q-24 0 -46 5.5t-38.5 18.5t-26 32.5t-9.5 48.5q0 22 8 41.5t21 35.5t29.5 28.5 t33.5 21.5q-9 10 -15.5 25.5t-3.5 42.5q-22 -53 -58.5 -77t-95.5 -24q-75 0 -109.5 46.5t-20.5 129.5l53 298h151l-52 -301q-5 -32 6.5 -48t37.5 -16q31 0 54.5 22t32.5 79l47 264h151z"></glyph><glyph glyph-name="Wcircumflex" unicode="Ŵ" d="M601 280q1 -31 0.5 -61t-2.5 -54q-2 -28 -4 -54h4q7 26 15 54q7 24 16 54t20 60l112 310h159l-225 -589h-216l-17 272q-2 29 -2.5 57t0.5 51q1 26 2 50h-4q-5 -23 -11 -49q-6 -23 -14.5 -51.5t-20.5 -58.5l-107 -271h-207l-19 589h155l7 -309q1 -31 0 -61t-2 -54 q-2 -28 -3 -54h4q6 26 14 54q7 24 16 54t20 60l117 310h181zM560 795l111 -150h-131l-24 30q-5 6 -7.5 11.5t-4.5 9.5t-2 8h-5q-2 -4 -5 -8t-7 -9.5t-12 -11.5l-36 -30h-137l165 150h95z"></glyph><glyph glyph-name="wcircumflex" unicode="ŵ" d="M473 288q4 -35 4 -67.5t-2 -57.5q-2 -29 -6 -55h4q5 25 13 54q7 25 17.5 57t24.5 67l71 176h159l-200 -462h-176l-18 147q-2 26 -2 52.5t2 48.5q2 26 4 49h-4q-5 -23 -12 -49q-6 -22 -15 -48.5t-20 -53.5l-57 -146h-175l-45 462h152l13 -176q5 -72 3 -124q-1 -29 -3 -54 h4q5 26 13 55q7 25 17 57.5t24 67.5l70 174h128zM479 685l110 -163h-131l-25 32q-6 8 -8.5 13.5t-3.5 9.5t-1 8h-5q-1 -4 -4 -8q-5 -9 -21 -23l-35 -32h-137l166 163h95z"></glyph><glyph glyph-name="Ycircumflex" unicode="Ŷ" d="M263 464q9 -31 14.5 -59t7.5 -49q3 -25 4 -46h4q6 21 17 47q9 21 22.5 49t33.5 58l83 125h161l-260 -402l-32 -187h-152l32 187l-133 402h160zM415 795l111 -150h-131l-24 30q-5 6 -7.5 11.5t-4.5 9.5t-2 8h-5q-2 -4 -5 -8t-7 -9.5t-12 -11.5l-36 -30h-137l165 150h95z "></glyph><glyph glyph-name="ycircumflex" unicode="ŷ" d="M210 238q2 -30 2 -55t-1 -42q-1 -21 -3 -37h4q5 22 12 46q6 20 14.5 44.5t21.5 48.5l116 219h157l-282 -504q-30 -54 -58 -87.5t-56.5 -51.5t-58 -24t-61.5 -6t-56.5 6t-40.5 14l44 123q11 -8 26 -14t32 -6q30 0 52.5 15.5t39.5 46.5l-77 488h155zM358 685l110 -163h-131 l-25 32q-6 8 -8.5 13.5t-3.5 9.5t-1 8h-5q-1 -4 -4 -8q-5 -9 -21 -23l-35 -32h-137l166 163h95z"></glyph><glyph glyph-name="Ydieresis" unicode="Ÿ" d="M263 464q9 -31 14.5 -59t7.5 -49q3 -25 4 -46h4q6 21 17 47q9 21 22.5 49t33.5 58l83 125h161l-260 -402l-32 -187h-152l32 187l-133 402h160zM166 726q0 42 23.5 61.5t55.5 19.5q35 0 58.5 -19.5t23.5 -61.5q0 -40 -23.5 -60t-58.5 -20q-32 0 -55.5 20t-23.5 60z M391 726q0 42 23.5 61.5t55.5 19.5q35 0 58.5 -19.5t23.5 -61.5q0 -40 -23.5 -60t-58.5 -20q-32 0 -55.5 20t-23.5 60z"></glyph><glyph glyph-name="Zacute" unicode="Ź" d="M280 396q15 17 28.5 29.5t24.5 20.5q12 10 22 17v4q-11 -2 -24 -4q-11 -2 -27 -3t-34 -1h-178l23 130h454l-22 -106l-266 -290q-16 -17 -29 -29.5t-24 -20.5q-12 -10 -22 -17v-4q11 2 24 4q11 2 26.5 3t34.5 1h204l-22 -130h-468l21 112zM273 645l65 150h184l-113 -150 h-136z"></glyph><glyph glyph-name="zacute" unicode="ź" d="M194 283q15 17 28.5 30t24.5 21q12 10 23 16v4q-12 -2 -25 -4q-11 -2 -27 -3t-34 -1h-109l25 116h364l-10 -88l-179 -197q-16 -17 -29 -29.5t-24 -20.5q-12 -10 -22 -17v-4q11 2 24 4q11 2 26.5 3t34.5 1h127l-21 -114h-381l13 82zM211 525l69 156h184l-117 -156h-136z "></glyph><glyph glyph-name="Zdotaccent" unicode="Ż" d="M280 396q15 17 28.5 29.5t24.5 20.5q12 10 22 17v4q-11 -2 -24 -4q-11 -2 -27 -3t-34 -1h-178l23 130h454l-22 -106l-266 -290q-16 -17 -29 -29.5t-24 -20.5q-12 -10 -22 -17v-4q11 2 24 4q11 2 26.5 3t34.5 1h204l-22 -130h-468l21 112zM274 733q0 42 25.5 62.5 t62.5 20.5q39 0 65 -20.5t26 -62.5q0 -41 -26 -61.5t-65 -20.5q-37 0 -62.5 20.5t-25.5 61.5z"></glyph><glyph glyph-name="zdotaccent" unicode="ż" d="M194 283q15 17 28.5 30t24.5 21q12 10 23 16v4q-12 -2 -25 -4q-11 -2 -27 -3t-34 -1h-109l25 116h364l-10 -88l-179 -197q-16 -17 -29 -29.5t-24 -20.5q-12 -10 -22 -17v-4q11 2 24 4q11 2 26.5 3t34.5 1h127l-21 -114h-381l13 82zM208 595q0 42 26 62.5t62 20.5 q40 0 65.5 -20.5t25.5 -62.5q0 -41 -25.5 -61.5t-65.5 -20.5q-36 0 -62 20.5t-26 61.5z"></glyph><glyph glyph-name="Zcaron" unicode="Ž" d="M280 396q15 17 28.5 29.5t24.5 20.5q12 10 22 17v4q-11 -2 -24 -4q-11 -2 -27 -3t-34 -1h-178l23 130h454l-22 -106l-266 -290q-16 -17 -29 -29.5t-24 -20.5q-12 -10 -22 -17v-4q11 2 24 4q11 2 26.5 3t34.5 1h204l-22 -130h-468l21 112zM294 645l-111 150h131l24 -30 q5 -7 7.5 -12l4.5 -9t2 -8h5q0 4 4 8q4 7 20 21l36 30h137l-165 -150h-95z"></glyph><glyph glyph-name="zcaron" unicode="ž" d="M194 283q15 17 28.5 30t24.5 21q12 10 23 16v4q-12 -2 -25 -4q-11 -2 -27 -3t-34 -1h-109l25 116h364l-10 -88l-179 -197q-16 -17 -29 -29.5t-24 -20.5q-12 -10 -22 -17v-4q11 2 24 4q11 2 26.5 3t34.5 1h127l-21 -114h-381l13 82zM232 522l-110 163h131l25 -32 q10 -15 12 -23q1 -4 1 -8h5q1 4 4 8q2 4 7 9.5t14 13.5l35 32h137l-166 -163h-95z"></glyph><glyph glyph-name="Schwa" unicode="Ə" d="M324 464q-42 0 -67.5 -23t-33.5 -58l-146 44q26 86 90 130t173 44q55 0 99.5 -17.5t76 -50.5t48 -79.5t16.5 -104.5q0 -87 -23 -154.5t-63.5 -113.5t-95 -69.5t-116.5 -23.5t-106 18t-72 47.5t-41 68t-13 79.5q0 35 6.5 67.5t17.5 57.5h340q3 29 -1 54.5t-15.5 44t-30 29 t-43.5 10.5zM209 227q-1 -6 -2.5 -14t-1.5 -16q0 -37 16 -62.5t57 -25.5q50 0 79.5 31t41.5 87h-190z"></glyph><glyph glyph-name="florin" unicode="ƒ" d="M88 117h-67l28 110h69l29 92q15 48 39 81.5t53.5 54t64 29.5t71.5 9q17 0 37 -3t40 -10.5t39 -20.5t34 -33l-98 -112q-9 22 -24 36t-41 14q-28 0 -42.5 -16t-25.5 -48l-25 -73h118l-28 -110h-120l-79 -238h-150z"></glyph><glyph glyph-name="Khook" unicode="Ƙ" d="M543 0h-174l-110 234h-36l-41 -234h-152l103 589h152l-39 -225h31l70 123q16 28 32 49.5t35 35.5t42.5 21.5t53.5 7.5q53 0 81.5 -22t47.5 -58l-82 -103q-8 14 -17.5 22t-23.5 8q-12 0 -22.5 -10t-24.5 -30l-74 -112z"></glyph><glyph glyph-name="khook" unicode="ƙ" d="M235 306h23l137 156h182l-200 -216l53 -100q14 -26 32 -29.5t50 6.5l-24 -117q-15 -5 -32 -8t-43 -3q-37 0 -66 15.5t-48 59.5l-53 122h-31l-34 -192h-151l87 499q8 47 28 80.5t47.5 55t62.5 31.5t73 10q70 0 129 -26l-44 -122q-35 24 -80 24q-29 0 -44 -14t-20 -39z"></glyph><glyph glyph-name="Ezh" unicode="Ʒ" d="M66 459l23 130h430l-18 -106l-212 -225l-1 -3q46 -6 76.5 -24.5t48 -44t24.5 -54.5t7 -56q0 -63 -21.5 -110.5t-58 -79.5t-86.5 -48t-107 -16q-110 0 -170 45t-61 133l124 66q1 -65 30.5 -97t81.5 -32q50 0 83.5 29t33.5 89q0 19 -6 39t-24 37t-51 28.5t-86 13.5l18 101 l102 122q14 17 27.5 30t24.5 21q12 10 23 16v4q-11 -2 -24 -4q-11 -2 -27 -3t-34 -1h-170z"></glyph><glyph glyph-name="Acaron" unicode="Ǎ" d="M410 110h-217l-56 -110h-162l316 589h183l112 -589h-156zM257 235h131q-9 42 -14.5 83.5t-8.5 73.5t-4 52t0 20h-4q-8 -26 -19 -56q-10 -26 -24 -58.5t-33 -68.5zM331 645l-111 150h131l24 -30q5 -7 7.5 -12l4.5 -9t2 -8h5q0 4 4 8q4 7 20 21l36 30h137l-165 -150h-95z "></glyph><glyph glyph-name="acaron" unicode="ǎ" d="M340 269q3 18 3 34.5t-5 29t-15.5 20.5t-28.5 8q-27 0 -47 -15.5t-33 -40.5t-19.5 -56.5t-6.5 -63.5q0 -35 14 -60.5t44 -25.5q35 0 53.5 27t25.5 66zM471 157q-3 -17 1 -29t27 -12q7 0 14 1.5t16 3.5l-24 -113q-19 -6 -39.5 -9.5t-39.5 -3.5q-54 0 -81.5 19t-33.5 64 q-16 -49 -50 -69.5t-78 -20.5q-77 0 -115 51t-38 138q0 59 14.5 113t42.5 94.5t68.5 64.5t91.5 24t80 -20t32 -68l29 77h136zM265 522l-110 163h131l25 -32q10 -15 12 -23q1 -4 1 -8h5q1 4 4 8q2 4 7 9.5t14 13.5l35 32h137l-166 -163h-95z"></glyph><glyph glyph-name="Icaron" unicode="Ǐ" d="M285 589l-103 -589h-152l103 589h152zM166 645l-111 150h131l24 -30q5 -7 7.5 -12l4.5 -9t2 -8h5q0 4 4 8q4 7 20 21l36 30h137l-165 -150h-95z"></glyph><glyph glyph-name="icaron" unicode="ǐ" d="M196 157q-3 -17 1 -29t27 -12q7 0 14 1.5t16 3.5l-24 -113q-19 -6 -39.5 -9.5t-39.5 -3.5q-135 0 -112 135l59 332h151zM128 522l-110 163h131l25 -32q10 -15 12 -23q1 -4 1 -8h5q1 4 4 8q2 4 7 9.5t14 13.5l35 32h137l-166 -163h-95z"></glyph><glyph glyph-name="Ocaron" unicode="Ǒ" d="M297 -12q-60 0 -106.5 17t-77.5 49t-47 77.5t-16 102.5q0 86 25 154t67.5 115.5t99 72.5t120.5 25q122 0 184.5 -66.5t62.5 -180.5q0 -86 -25 -154t-67.5 -115t-99.5 -72t-120 -25zM352 469q-35 0 -62.5 -17.5t-46 -48.5t-28.5 -72t-10 -87q0 -63 27 -95.5t72 -32.5 q33 0 59.5 18t46 48.5t30 72.5t10.5 90q0 60 -26.5 92t-71.5 32zM328 645l-111 150h131l24 -30q5 -7 7.5 -12l4.5 -9t2 -8h5q0 4 4 8q4 7 20 21l36 30h137l-165 -150h-95z"></glyph><glyph glyph-name="ocaron" unicode="ǒ" d="M293 473q99 0 156.5 -52.5t57.5 -152.5q0 -55 -16 -105.5t-48.5 -89.5t-81.5 -62t-115 -23q-46 0 -85.5 12t-68.5 36.5t-45.5 61.5t-16.5 86q0 57 16 109.5t48.5 92.5t82 63.5t116.5 23.5zM284 355q-22 0 -39 -13t-29 -35.5t-18.5 -54t-6.5 -67.5q0 -42 16.5 -62.5 t45.5 -20.5q22 0 39.5 12.5t29.5 35t18.5 53.5t6.5 68q0 42 -16.5 63t-46.5 21zM251 522l-110 163h131l25 -32q10 -15 12 -23q1 -4 1 -8h5q1 4 4 8q2 4 7 9.5t14 13.5l35 32h137l-166 -163h-95z"></glyph><glyph glyph-name="Ucaron" unicode="Ǔ" d="M618 589l-67 -380q-11 -64 -35.5 -106.5t-60.5 -68t-82.5 -36t-101.5 -10.5q-51 0 -95.5 12.5t-75.5 41t-43.5 75.5t-0.5 116l63 356h152l-63 -348q-5 -29 -4.5 -52.5t9.5 -40t28 -26t52 -9.5q32 0 51.5 9.5t31.5 26.5t18 41t11 53l61 346h152zM321 645l-111 150h131 l24 -30q5 -7 7.5 -12l4.5 -9t2 -8h5q0 4 4 8q4 7 20 21l36 30h137l-165 -150h-95z"></glyph><glyph glyph-name="ucaron" unicode="ǔ" d="M328 89q-22 -53 -58.5 -77t-95.5 -24q-75 0 -109.5 46.5t-20.5 129.5l53 298h151l-52 -301q-5 -32 6.5 -48t37.5 -16q31 0 54.5 22t32.5 79l47 264h151l-53 -305q-3 -17 1.5 -29t25.5 -12q7 0 14 1.5t16 3.5l-24 -113q-19 -6 -39.5 -9.5t-39.5 -3.5q-101 0 -98 94z M265 522l-110 163h131l25 -32q10 -15 12 -23q1 -4 1 -8h5q1 4 4 8q2 4 7 9.5t14 13.5l35 32h137l-166 -163h-95z"></glyph><glyph glyph-name="uni01D9" unicode="Ǚ" d="M618 589l-67 -380q-11 -64 -35.5 -106.5t-60.5 -68t-82.5 -36t-101.5 -10.5q-51 0 -95.5 12.5t-75.5 41t-43.5 75.5t-0.5 116l63 356h152l-63 -348q-5 -29 -4.5 -52.5t9.5 -40t28 -26t52 -9.5q32 0 51.5 9.5t31.5 26.5t18 41t11 53l61 346h152zM189 696q0 42 23.5 61.5 t55.5 19.5q35 0 58.5 -19.5t23.5 -61.5q0 -40 -23.5 -60t-58.5 -20q-32 0 -55.5 20t-23.5 60zM414 696q0 42 23.5 61.5t55.5 19.5q35 0 58.5 -19.5t23.5 -61.5q0 -40 -23.5 -60t-58.5 -20q-32 0 -55.5 20t-23.5 60zM342 781l-111 150h131l24 -30q5 -7 7.5 -12l4.5 -9t2 -8h5 q0 4 4 8q4 7 20 21l36 30h137l-165 -150h-95z"></glyph><glyph glyph-name="uni01DA" unicode="ǚ" d="M328 89q-22 -53 -58.5 -77t-95.5 -24q-75 0 -109.5 46.5t-20.5 129.5l53 298h151l-52 -301q-5 -32 6.5 -48t37.5 -16q31 0 54.5 22t32.5 79l47 264h151l-53 -305q-3 -17 1.5 -29t25.5 -12q7 0 14 1.5t16 3.5l-24 -113q-19 -6 -39.5 -9.5t-39.5 -3.5q-101 0 -98 94z M129 567q0 42 23.5 61.5t55.5 19.5q35 0 58.5 -19.5t23.5 -61.5q0 -40 -23.5 -60t-58.5 -20q-32 0 -55.5 20t-23.5 60zM354 567q0 42 23.5 61.5t55.5 19.5q35 0 58.5 -19.5t23.5 -61.5q0 -40 -23.5 -60t-58.5 -20q-32 0 -55.5 20t-23.5 60zM282 652l-111 150h131l24 -30 q5 -7 7.5 -12l4.5 -9t2 -8h5q0 4 4 8q4 7 20 21l36 30h137l-165 -150h-95z"></glyph><glyph glyph-name="uni004100A800AF" unicode="Ǟ" d="M410 110h-217l-56 -110h-162l316 589h183l112 -589h-156zM257 235h131q-9 42 -14.5 83.5t-8.5 73.5t-4 52t0 20h-4q-8 -26 -19 -56q-10 -26 -24 -58.5t-33 -68.5zM201 694q0 42 23.5 61.5t55.5 19.5q35 0 58.5 -19.5t23.5 -61.5q0 -40 -23.5 -60t-58.5 -20 q-32 0 -55.5 20t-23.5 60zM426 694q0 42 23.5 61.5t55.5 19.5q35 0 58.5 -19.5t23.5 -61.5q0 -40 -23.5 -60t-58.5 -20q-32 0 -55.5 20t-23.5 60zM260 804l21 120h314l-21 -120h-314z"></glyph><glyph glyph-name="adieresismacron" unicode="ǟ" d="M340 269q3 18 3 34.5t-5 29t-15.5 20.5t-28.5 8q-27 0 -47 -15.5t-33 -40.5t-19.5 -56.5t-6.5 -63.5q0 -35 14 -60.5t44 -25.5q35 0 53.5 27t25.5 66zM471 157q-3 -17 1 -29t27 -12q7 0 14 1.5t16 3.5l-24 -113q-19 -6 -39.5 -9.5t-39.5 -3.5q-54 0 -81.5 19t-33.5 64 q-16 -49 -50 -69.5t-78 -20.5q-77 0 -115 51t-38 138q0 59 14.5 113t42.5 94.5t68.5 64.5t91.5 24t80 -20t32 -68l29 77h136zM138 584q0 42 23.5 61.5t55.5 19.5q35 0 58.5 -19.5t23.5 -61.5q0 -40 -23.5 -60t-58.5 -20q-32 0 -55.5 20t-23.5 60zM363 584q0 42 23.5 61.5 t55.5 19.5q35 0 58.5 -19.5t23.5 -61.5q0 -40 -23.5 -60t-58.5 -20q-32 0 -55.5 20t-23.5 60zM203 707l22 120h305l-22 -120h-305z"></glyph><glyph glyph-name="AEmacron" unicode="Ǣ" d="M447 110h-216l-85 -110h-171l458 589h504l-23 -130h-254l-17 -98h223l-22 -125h-223l-19 -106h254l-22 -130h-406zM327 235h142l19 110q6 37 11 61.5t9 39.5q4 18 8 28h-4zM502 661l21 120h314l-21 -120h-314z"></glyph><glyph glyph-name="aemacron" unicode="ǣ" d="M500 102q26 0 42.5 12.5t24.5 45.5l142 -34q-20 -71 -71.5 -104.5t-149.5 -33.5q-56 0 -97.5 17t-68.5 49q-29 -35 -68.5 -50.5t-86.5 -15.5q-70 0 -112 31.5t-42 95.5q0 44 19.5 74.5t55.5 49.5t87 28t114 10q7 26 20 54q-8 31 -41 31q-24 0 -41 -16.5t-19 -48.5 l-144 28q7 38 26.5 66t48 46t65.5 27t80 9q83 0 127 -32q58 32 124 32q50 0 87 -14t61 -37.5t36 -53.5t12 -63q0 -28 -5 -57t-15 -49h-273q-8 -43 8.5 -70t53.5 -27zM286 128q-4 14 -5.5 29t-1.5 32v9q-54 -2 -83 -18.5t-29 -50.5q0 -15 10 -24t29 -9q22 0 42.5 7t37.5 25z M577 277q1 5 1.5 13.5t0.5 14.5q0 25 -10.5 42t-39.5 17q-15 0 -27 -7.5t-21.5 -20t-16 -28t-10.5 -31.5h123zM277 533l22 120h305l-22 -120h-305z"></glyph><glyph glyph-name="Gstroke" unicode="Ǥ" d="M605 338l-21 -117h55l-13 -75h-55l-26 -146h-88l-15 71q-18 -35 -55.5 -59t-103.5 -24q-111 0 -172 64t-61 182q0 86 25 154t67.5 115.5t99 72.5t120.5 25q57 0 98.5 -13.5t69.5 -37.5t44 -57t22 -71l-158 -51q-2 20 -6 38t-14 31t-26 20.5t-40 7.5q-35 0 -62.5 -17.5 t-46 -48t-28.5 -71.5t-10 -88q0 -63 30 -100.5t91 -37.5q41 0 61.5 10t35.5 31h-113l13 75h115l8 38h-114l13 79h260z"></glyph><glyph glyph-name="gstroke" unicode="ǥ" d="M449 1l-6 -28h59l-6 -35h-64q-56 -149 -257 -149q-78 0 -136.5 24.5t-83.5 83.5l111 83q9 -35 41 -55.5t70 -20.5q30 0 51.5 9t36.5 25h-104l6 35h121q9 23 15 49l12 63q-16 -49 -51 -68t-79 -19q-77 0 -115 51t-38 138q0 59 14.5 111t42 91t68.5 61.5t95 22.5 q46 0 78 -20.5t35 -67.5l29 77h136zM346 269q3 18 2.5 34.5t-6 29t-17.5 20.5t-32 8q-27 0 -46.5 -14t-32 -37t-18.5 -53t-6 -62q0 -35 14 -60.5t44 -25.5q69 0 86 93z"></glyph><glyph glyph-name="Gcaron" unicode="Ǧ" d="M601 318l-56 -318h-88l-15 71q-18 -35 -55.5 -59t-103.5 -24q-111 0 -172 64t-61 182q0 86 25 154t67.5 115.5t99 72.5t120.5 25q57 0 98.5 -13.5t69.5 -37.5t44 -57t22 -71l-158 -51q-2 20 -6 38t-14 31t-26 20.5t-40 7.5q-35 0 -62.5 -17.5t-46 -48t-28.5 -71.5 t-10 -88q0 -63 29 -98.5t87 -35.5q47 0 76 21.5t35 57.5l2 12h-114l21 118h260zM334 645l-111 150h131l24 -30q5 -7 7.5 -12l4.5 -9t2 -8h5q0 4 4 8q4 7 20 21l36 30h137l-165 -150h-95z"></glyph><glyph glyph-name="gcaron" unicode="ǧ" d="M346 269q3 18 2.5 34.5t-6 29t-17.5 20.5t-32 8q-27 0 -46.5 -14t-32 -37t-18.5 -53t-6 -62q0 -35 14 -60.5t44 -25.5q69 0 86 93zM449 1q-19 -109 -86 -160.5t-188 -51.5q-78 0 -136.5 24.5t-83.5 83.5l111 83q9 -35 41 -55.5t70 -20.5q59 0 87 32.5t39 85.5l12 63 q-16 -49 -51 -68t-79 -19q-77 0 -115 51t-38 138q0 59 14.5 111t42 91t68.5 61.5t95 22.5q46 0 78 -20.5t35 -67.5l29 77h136zM256 522l-110 163h131l25 -32q10 -15 12 -23q1 -4 1 -8h5q1 4 4 8q2 4 7 9.5t14 13.5l35 32h137l-166 -163h-95z"></glyph><glyph glyph-name="Kcaron" unicode="Ǩ" d="M369 0l-110 234h-36l-41 -234h-152l103 589h152l-39 -225h31l167 225h177l-226 -293l148 -296h-174zM308 645l-111 150h131l24 -30q5 -7 7.5 -12l4.5 -9t2 -8h5q0 4 4 8q4 7 20 21l36 30h137l-165 -150h-95z"></glyph><glyph glyph-name="kcaron" unicode="ǩ" d="M246 192h-31l-34 -192h-151l117 668h152l-64 -362h23l137 156h182l-200 -216l53 -100q14 -26 32 -29.5t50 6.5l-24 -117q-15 -5 -32 -8t-43 -3q-37 0 -66 15.5t-48 59.5zM178 701l-111 150h131l24 -30q5 -7 7.5 -12l4.5 -9t2 -8h5q0 4 4 8q4 7 20 21l36 30h137l-165 -150 h-95z"></glyph><glyph glyph-name="Oogonek" unicode="Ǫ" d="M149 -106q0 34 13 61t36 47q-73 24 -110.5 84t-37.5 148q0 86 25 154t67.5 115.5t99 72.5t120.5 25q122 0 184.5 -66.5t62.5 -180.5q0 -84 -23.5 -150.5t-64 -113.5t-95 -72.5t-115.5 -28.5q-44 -21 -44 -67q0 -37 35 -37q16 0 28.5 5t29.5 20l29 -76q-25 -25 -55.5 -35 t-64.5 -10q-24 0 -46 5.5t-38.5 18.5t-26 32.5t-9.5 48.5zM352 469q-35 0 -62.5 -17.5t-46 -48.5t-28.5 -72t-10 -87q0 -63 27 -95.5t72 -32.5q33 0 59.5 18t46 48.5t30 72.5t10.5 90q0 60 -26.5 92t-71.5 32z"></glyph><glyph glyph-name="oogonek" unicode="ǫ" d="M107 -106q0 34 13 61t35 47q-57 19 -91 64.5t-34 117.5q0 57 16 109.5t48.5 92.5t82 63.5t116.5 23.5q99 0 156.5 -52.5t57.5 -152.5q0 -53 -15 -102t-45 -87t-75 -62t-106 -28q-41 -23 -41 -67q0 -37 35 -37q16 0 28.5 5t29.5 20l29 -76q-25 -25 -55.5 -35t-64.5 -10 q-24 0 -46 5.5t-38.5 18.5t-26 32.5t-9.5 48.5zM284 355q-22 0 -39 -13t-29 -35.5t-18.5 -54t-6.5 -67.5q0 -42 16.5 -62.5t45.5 -20.5q22 0 39.5 12.5t29.5 35t18.5 53.5t6.5 68q0 42 -16.5 63t-46.5 21z"></glyph><glyph glyph-name="uni004F02DB00AF" unicode="Ǭ" d="M149 -106q0 34 13 61t36 47q-73 24 -110.5 84t-37.5 148q0 86 25 154t67.5 115.5t99 72.5t120.5 25q122 0 184.5 -66.5t62.5 -180.5q0 -84 -23.5 -150.5t-64 -113.5t-95 -72.5t-115.5 -28.5q-44 -21 -44 -67q0 -37 35 -37q16 0 28.5 5t29.5 20l29 -76q-25 -25 -55.5 -35 t-64.5 -10q-24 0 -46 5.5t-38.5 18.5t-26 32.5t-9.5 48.5zM352 469q-35 0 -62.5 -17.5t-46 -48.5t-28.5 -72t-10 -87q0 -63 27 -95.5t72 -32.5q33 0 59.5 18t46 48.5t30 72.5t10.5 90q0 60 -26.5 92t-71.5 32zM227 661l21 120h314l-21 -120h-314z"></glyph><glyph glyph-name="oogonekmacron" unicode="ǭ" d="M107 -106q0 34 13 61t35 47q-57 19 -91 64.5t-34 117.5q0 57 16 109.5t48.5 92.5t82 63.5t116.5 23.5q99 0 156.5 -52.5t57.5 -152.5q0 -53 -15 -102t-45 -87t-75 -62t-106 -28q-41 -23 -41 -67q0 -37 35 -37q16 0 28.5 5t29.5 20l29 -76q-25 -25 -55.5 -35t-64.5 -10 q-24 0 -46 5.5t-38.5 18.5t-26 32.5t-9.5 48.5zM284 355q-22 0 -39 -13t-29 -35.5t-18.5 -54t-6.5 -67.5q0 -42 16.5 -62.5t45.5 -20.5q22 0 39.5 12.5t29.5 35t18.5 53.5t6.5 68q0 42 -16.5 63t-46.5 21zM153 533l22 120h305l-22 -120h-305z"></glyph><glyph glyph-name="Ezhcaron" unicode="Ǯ" d="M66 459l23 130h430l-18 -106l-212 -225l-1 -3q46 -6 76.5 -24.5t48 -44t24.5 -54.5t7 -56q0 -63 -21.5 -110.5t-58 -79.5t-86.5 -48t-107 -16q-110 0 -170 45t-61 133l124 66q1 -65 30.5 -97t81.5 -32q50 0 83.5 29t33.5 89q0 19 -6 39t-24 37t-51 28.5t-86 13.5l18 101 l102 122q14 17 27.5 30t24.5 21q12 10 23 16v4q-11 -2 -24 -4q-11 -2 -27 -3t-34 -1h-170zM254 645l-111 150h131l24 -30q5 -7 7.5 -12l4.5 -9t2 -8h5q0 4 4 8q4 7 20 21l36 30h137l-165 -150h-95z"></glyph><glyph glyph-name="ezhcaron" unicode="ǯ" d="M154 274q34 37 55 55q12 11 23 18v4q-10 -2 -21 -3q-10 -1 -24.5 -1.5t-32.5 -0.5h-108l20 116h363l-16 -92l-168 -163l-1 -3q71 -14 99 -57.5t28 -104.5q0 -48 -19 -84.5t-51.5 -61t-74.5 -37t-87 -12.5q-96 0 -139 36.5t-50 103.5l132 54q-5 -42 15 -62t54 -20 q31 0 52.5 19t21.5 55q0 16 -4 33t-17 31t-39 25t-69 16l16 89zM201 522l-110 163h131l25 -32q10 -15 12 -23q1 -4 1 -8h5q1 4 4 8q2 4 7 9.5t14 13.5l35 32h137l-166 -163h-95z"></glyph><glyph glyph-name="jcaron" unicode="ǰ" d="M158 -59q-15 -86 -62.5 -119t-127.5 -33q-38 0 -69.5 8t-53.5 20l40 109q14 -11 29.5 -18.5t36.5 -7.5q25 0 39 14t22 58l86 490h151zM129 522l-110 163h131l25 -32q10 -15 12 -23q1 -4 1 -8h5q1 4 4 8q2 4 7 9.5t14 13.5l35 32h137l-166 -163h-95z"></glyph><glyph glyph-name="jcaron" unicode="" d="M158 -59q-15 -86 -62.5 -119t-127.5 -33q-38 0 -69.5 8t-53.5 20l40 109q14 -11 29.5 -18.5t36.5 -7.5q25 0 39 14t22 58l86 490h151zM129 522l-110 163h131l25 -32q10 -15 12 -23q1 -4 1 -8h5q1 4 4 8q2 4 7 9.5t14 13.5l35 32h137l-166 -163h-95z"></glyph><glyph glyph-name="Gacute" unicode="Ǵ" d="M601 318l-56 -318h-88l-15 71q-18 -35 -55.5 -59t-103.5 -24q-111 0 -172 64t-61 182q0 86 25 154t67.5 115.5t99 72.5t120.5 25q57 0 98.5 -13.5t69.5 -37.5t44 -57t22 -71l-158 -51q-2 20 -6 38t-14 31t-26 20.5t-40 7.5q-35 0 -62.5 -17.5t-46 -48t-28.5 -71.5 t-10 -88q0 -63 29 -98.5t87 -35.5q47 0 76 21.5t35 57.5l2 12h-114l21 118h260zM312 645l65 150h184l-113 -150h-136z"></glyph><glyph glyph-name="gacute" unicode="ǵ" d="M236 525l69 156h184l-117 -156h-136zM346 269q3 18 2.5 34.5t-6 29t-17.5 20.5t-32 8q-27 0 -46.5 -14t-32 -37t-18.5 -53t-6 -62q0 -35 14 -60.5t44 -25.5q69 0 86 93zM449 1q-19 -109 -86 -160.5t-188 -51.5q-78 0 -136.5 24.5t-83.5 83.5l111 83q9 -35 41 -55.5 t70 -20.5q59 0 87 32.5t39 85.5l12 63q-16 -49 -51 -68t-79 -19q-77 0 -115 51t-38 138q0 59 14.5 111t42 91t68.5 61.5t95 22.5q46 0 78 -20.5t35 -67.5l29 77h136z"></glyph><glyph glyph-name="Ngrave" unicode="Ǹ" d="M403 327q8 -17 14.5 -32.5t11.5 -27.5q5 -14 8 -27h4q1 16 4 36q2 17 5 40t8 52l39 221h152l-103 -589h-134l-134 255q-11 19 -18 36t-12 31q-5 16 -9 29h-4q-1 -16 -3 -36q-2 -17 -5 -43t-9 -58l-36 -214h-152l103 589h139zM330 645l-113 150h184l65 -150h-136z"></glyph><glyph glyph-name="ngrave" unicode="ǹ" d="M482 157q-3 -17 1 -29t27 -12q7 0 14 1.5t16 3.5l-24 -113q-19 -6 -39.5 -9.5t-39.5 -3.5q-135 0 -112 135l25 144q5 32 -3.5 54t-43.5 22q-27 0 -48 -25t-31 -80l-43 -245h-151l81 462h132l2 -94q22 51 55.5 78t91.5 27q55 0 87 -32t32 -86q0 -12 -0.5 -21t-2.5 -18z M265 525l-117 156h184l69 -156h-136z"></glyph><glyph glyph-name="uni004102DA00B4" unicode="Ǻ" d="M410 110h-217l-56 -110h-162l316 589h183l112 -589h-156zM257 235h131q-9 42 -14.5 83.5t-8.5 73.5t-4 52t0 20h-4q-8 -26 -19 -56q-10 -26 -24 -58.5t-33 -68.5zM280 715q0 25 9 47t25.5 39t39.5 27t52 10q48 0 76.5 -30t28.5 -73q0 -26 -9 -49t-25 -40t-39 -26.5 t-50 -9.5q-54 0 -81 30t-27 75zM401 772q-23 0 -35.5 -15.5t-12.5 -37.5q0 -18 10 -29t29 -11q24 0 36.5 16t12.5 38q0 17 -10 28t-30 11zM351 861l65 150h184l-113 -150h-136z"></glyph><glyph glyph-name="aringacute" unicode="ǻ" d="M340 269q3 18 3 34.5t-5 29t-15.5 20.5t-28.5 8q-27 0 -47 -15.5t-33 -40.5t-19.5 -56.5t-6.5 -63.5q0 -35 14 -60.5t44 -25.5q35 0 53.5 27t25.5 66zM471 157q-3 -17 1 -29t27 -12q7 0 14 1.5t16 3.5l-24 -113q-19 -6 -39.5 -9.5t-39.5 -3.5q-54 0 -81.5 19t-33.5 64 q-16 -49 -50 -69.5t-78 -20.5q-77 0 -115 51t-38 138q0 59 14.5 113t42.5 94.5t68.5 64.5t91.5 24t80 -20t32 -68l29 77h136zM215 597q0 25 9 47t25.5 39t39.5 27t52 10q48 0 76.5 -30t28.5 -73q0 -26 -9 -49t-25 -40t-39 -26.5t-50 -9.5q-54 0 -81 30t-27 75zM336 654 q-23 0 -35.5 -15.5t-12.5 -37.5q0 -18 10 -29t29 -11q24 0 36.5 16t12.5 38q0 17 -10 28t-30 11zM279 751l65 150h184l-113 -150h-136z"></glyph><glyph glyph-name="AEacute" unicode="Ǽ" d="M447 110h-216l-85 -110h-171l458 589h504l-23 -130h-254l-17 -98h223l-22 -125h-223l-19 -106h254l-22 -130h-406zM327 235h142l19 110q6 37 11 61.5t9 39.5q4 18 8 28h-4zM581 645l65 150h184l-113 -150h-136z"></glyph><glyph glyph-name="aeacute" unicode="ǽ" d="M500 102q26 0 42.5 12.5t24.5 45.5l142 -34q-20 -71 -71.5 -104.5t-149.5 -33.5q-56 0 -97.5 17t-68.5 49q-29 -35 -68.5 -50.5t-86.5 -15.5q-70 0 -112 31.5t-42 95.5q0 44 19.5 74.5t55.5 49.5t87 28t114 10q7 26 20 54q-8 31 -41 31q-24 0 -41 -16.5t-19 -48.5 l-144 28q7 38 26.5 66t48 46t65.5 27t80 9q83 0 127 -32q58 32 124 32q50 0 87 -14t61 -37.5t36 -53.5t12 -63q0 -28 -5 -57t-15 -49h-273q-8 -43 8.5 -70t53.5 -27zM286 128q-4 14 -5.5 29t-1.5 32v9q-54 -2 -83 -18.5t-29 -50.5q0 -15 10 -24t29 -9q22 0 42.5 7t37.5 25z M577 277q1 5 1.5 13.5t0.5 14.5q0 25 -10.5 42t-39.5 17q-15 0 -27 -7.5t-21.5 -20t-16 -28t-10.5 -31.5h123zM354 525l69 156h184l-117 -156h-136z"></glyph><glyph glyph-name="Oslashacute" unicode="Ǿ" d="M29 28l57 60q-36 58 -36 146q0 86 25 154t67.5 115.5t99 72.5t120.5 25q53 0 94 -13t72 -37l47 50l49 -40l-54 -57q39 -60 39 -150q0 -86 -25 -154t-67.5 -115t-99.5 -72t-120 -25q-54 0 -96.5 13.5t-73.5 39.5l-51 -53zM450 345q0 16 -3 31l-216 -226q25 -34 73 -34 q33 0 59.5 18t46 48.5t30 72.5t10.5 90zM352 469q-35 0 -62.5 -17.5t-46 -48.5t-28.5 -72t-10 -87v-15.5t1 -14.5l214 225q-27 30 -68 30zM313 645l65 150h184l-113 -150h-136z"></glyph><glyph glyph-name="oslashacute" unicode="ǿ" d="M293 473q93 0 149 -47l52 48l42 -46l-55 -50q26 -46 26 -110q0 -55 -16 -105.5t-48.5 -89.5t-81.5 -62t-115 -23q-43 0 -81 10.5t-66 32.5l-51 -46l-42 43l52 48q-28 45 -28 108q0 57 16 109.5t48.5 92.5t82 63.5t116.5 23.5zM284 355q-35 0 -58 -32t-31 -83 q-2 -11 -3 -21.5t-1 -21.5l143 131q-15 27 -50 27zM253 102q36 0 58.5 30t30.5 81q2 10 3 21t1 22l-142 -129q16 -25 49 -25zM249 525l69 156h184l-117 -156h-136z"></glyph><glyph glyph-name="Adoublegrave" unicode="Ȁ" d="M410 110h-217l-56 -110h-162l316 589h183l112 -589h-156zM257 235h131q-9 42 -14.5 83.5t-8.5 73.5t-4 52t0 20h-4q-8 -26 -19 -56q-10 -26 -24 -58.5t-33 -68.5zM412 645l-97 150h152l49 -150h-104zM229 645l-117 150h163l69 -150h-115z"></glyph><glyph glyph-name="edoublegrave" unicode="ȁ" d="M251 102q26 0 42.5 12.5t24.5 45.5l142 -34q-20 -71 -71.5 -104.5t-149.5 -33.5q-100 0 -154.5 54t-54.5 147q0 69 21 122t56.5 89t82 54.5t96.5 18.5t87 -14t61 -37.5t36 -53.5t12 -63q0 -28 -5 -53.5t-15 -45.5h-273q-9 -46 8 -75t54 -29zM328 284q1 5 1.5 10t0.5 11 q0 25 -10.5 42t-39.5 17q-30 0 -48.5 -24t-26.5 -56h123zM336 525l-97 156h152l49 -156h-104zM153 525l-117 156h163l69 -156h-115z"></glyph><glyph glyph-name="edoublegrave" unicode="ȅ" d="M251 102q26 0 42.5 12.5t24.5 45.5l142 -34q-20 -71 -71.5 -104.5t-149.5 -33.5q-100 0 -154.5 54t-54.5 147q0 69 21 122t56.5 89t82 54.5t96.5 18.5t87 -14t61 -37.5t36 -53.5t12 -63q0 -28 -5 -53.5t-15 -45.5h-273q-9 -46 8 -75t54 -29zM328 284q1 5 1.5 10t0.5 11 q0 25 -10.5 42t-39.5 17q-30 0 -48.5 -24t-26.5 -56h123zM336 525l-97 156h152l49 -156h-104zM153 525l-117 156h163l69 -156h-115z"></glyph><glyph glyph-name="Ainvertedbreve" unicode="Ȃ" d="M410 110h-217l-56 -110h-162l316 589h183l112 -589h-156zM257 235h131q-9 42 -14.5 83.5t-8.5 73.5t-4 52t0 20h-4q-8 -26 -19 -56q-10 -26 -24 -58.5t-33 -68.5zM410 802q83 0 111.5 -42t15.5 -112h-109q5 26 -2.5 38.5t-34.5 12.5t-38.5 -12.5t-16.5 -38.5h-109 q13 70 56.5 112t126.5 42z"></glyph><glyph glyph-name="ainvertedbreve" unicode="ȃ" d="M340 269q3 18 3 34.5t-5 29t-15.5 20.5t-28.5 8q-27 0 -47 -15.5t-33 -40.5t-19.5 -56.5t-6.5 -63.5q0 -35 14 -60.5t44 -25.5q35 0 53.5 27t25.5 66zM471 157q-3 -17 1 -29t27 -12q7 0 14 1.5t16 3.5l-24 -113q-19 -6 -39.5 -9.5t-39.5 -3.5q-54 0 -81.5 19t-33.5 64 q-16 -49 -50 -69.5t-78 -20.5q-77 0 -115 51t-38 138q0 59 14.5 113t42.5 94.5t68.5 64.5t91.5 24t80 -20t32 -68l29 77h136zM346 690q42 0 69 -13t41.5 -35t18 -52t-2.5 -63h-109q5 27 0 42.5t-35 15.5t-41 -15.5t-16 -42.5h-109q6 33 20 63t36.5 52t54 35t73.5 13z"></glyph><glyph glyph-name="Edoublegrave" unicode="Ȅ" d="M436 0h-406l103 589h406l-23 -130h-254l-17 -98h223l-22 -125h-223l-19 -106h254zM364 645l-97 150h152l49 -150h-104zM181 645l-117 150h163l69 -150h-115z"></glyph><glyph glyph-name="Einvertedbreve" unicode="Ȇ" d="M436 0h-406l103 589h406l-23 -130h-254l-17 -98h223l-22 -125h-223l-19 -106h254zM362 802q83 0 111.5 -42t15.5 -112h-109q5 26 -2.5 38.5t-34.5 12.5t-38.5 -12.5t-16.5 -38.5h-109q13 70 56.5 112t126.5 42z"></glyph><glyph glyph-name="einvertedbreve" unicode="ȇ" d="M251 102q26 0 42.5 12.5t24.5 45.5l142 -34q-20 -71 -71.5 -104.5t-149.5 -33.5q-100 0 -154.5 54t-54.5 147q0 69 21 122t56.5 89t82 54.5t96.5 18.5t87 -14t61 -37.5t36 -53.5t12 -63q0 -28 -5 -53.5t-15 -45.5h-273q-9 -46 8 -75t54 -29zM328 284q1 5 1.5 10t0.5 11 q0 25 -10.5 42t-39.5 17q-30 0 -48.5 -24t-26.5 -56h123zM324 690q42 0 69 -13t41.5 -35t18 -52t-2.5 -63h-109q5 27 0 42.5t-35 15.5t-41 -15.5t-16 -42.5h-109q6 33 20 63t36.5 52t54 35t73.5 13z"></glyph><glyph glyph-name="Idoublegrave" unicode="Ȉ" d="M285 589l-103 -589h-152l103 589h152zM247 645l-97 150h152l49 -150h-104zM64 645l-117 150h163l69 -150h-115z"></glyph><glyph glyph-name="idoublegrave" unicode="ȉ" d="M196 157q-3 -17 1 -29t27 -12q7 0 14 1.5t16 3.5l-24 -113q-19 -6 -39.5 -9.5t-39.5 -3.5q-135 0 -112 135l59 332h151zM221 525l-97 156h152l49 -156h-104zM38 525l-117 156h163l69 -156h-115z"></glyph><glyph glyph-name="Iinvertedbreve" unicode="Ȋ" d="M285 589l-103 -589h-152l103 589h152zM245 802q83 0 111.5 -42t15.5 -112h-109q5 26 -2.5 38.5t-34.5 12.5t-38.5 -12.5t-16.5 -38.5h-109q13 70 56.5 112t126.5 42z"></glyph><glyph glyph-name="iinvertedbreve" unicode="ȋ" d="M196 157q-3 -17 1 -29t27 -12q7 0 14 1.5t16 3.5l-24 -113q-19 -6 -39.5 -9.5t-39.5 -3.5q-135 0 -112 135l59 332h151zM209 690q42 0 69 -13t41.5 -35t18 -52t-2.5 -63h-109q5 27 0 42.5t-35 15.5t-41 -15.5t-16 -42.5h-109q6 33 20 63t36.5 52t54 35t73.5 13z"></glyph><glyph glyph-name="Odoublegrave" unicode="Ȍ" d="M297 -12q-60 0 -106.5 17t-77.5 49t-47 77.5t-16 102.5q0 86 25 154t67.5 115.5t99 72.5t120.5 25q122 0 184.5 -66.5t62.5 -180.5q0 -86 -25 -154t-67.5 -115t-99.5 -72t-120 -25zM352 469q-35 0 -62.5 -17.5t-46 -48.5t-28.5 -72t-10 -87q0 -63 27 -95.5t72 -32.5 q33 0 59.5 18t46 48.5t30 72.5t10.5 90q0 60 -26.5 92t-71.5 32zM409 645l-97 150h152l49 -150h-104zM226 645l-117 150h163l69 -150h-115z"></glyph><glyph glyph-name="odoublegrave" unicode="ȍ" d="M344 525l-97 156h152l49 -156h-104zM161 525l-117 156h163l69 -156h-115zM293 473q99 0 156.5 -52.5t57.5 -152.5q0 -55 -16 -105.5t-48.5 -89.5t-81.5 -62t-115 -23q-46 0 -85.5 12t-68.5 36.5t-45.5 61.5t-16.5 86q0 57 16 109.5t48.5 92.5t82 63.5t116.5 23.5z M284 355q-22 0 -39 -13t-29 -35.5t-18.5 -54t-6.5 -67.5q0 -42 16.5 -62.5t45.5 -20.5q22 0 39.5 12.5t29.5 35t18.5 53.5t6.5 68q0 42 -16.5 63t-46.5 21z"></glyph><glyph glyph-name="Oinvertedbreve" unicode="Ȏ" d="M297 -12q-60 0 -106.5 17t-77.5 49t-47 77.5t-16 102.5q0 86 25 154t67.5 115.5t99 72.5t120.5 25q122 0 184.5 -66.5t62.5 -180.5q0 -86 -25 -154t-67.5 -115t-99.5 -72t-120 -25zM352 469q-35 0 -62.5 -17.5t-46 -48.5t-28.5 -72t-10 -87q0 -63 27 -95.5t72 -32.5 q33 0 59.5 18t46 48.5t30 72.5t10.5 90q0 60 -26.5 92t-71.5 32zM407 802q83 0 111.5 -42t15.5 -112h-109q5 26 -2.5 38.5t-34.5 12.5t-38.5 -12.5t-16.5 -38.5h-109q13 70 56.5 112t126.5 42z"></glyph><glyph glyph-name="oinvertedbreve" unicode="ȏ" d="M293 473q99 0 156.5 -52.5t57.5 -152.5q0 -55 -16 -105.5t-48.5 -89.5t-81.5 -62t-115 -23q-46 0 -85.5 12t-68.5 36.5t-45.5 61.5t-16.5 86q0 57 16 109.5t48.5 92.5t82 63.5t116.5 23.5zM284 355q-22 0 -39 -13t-29 -35.5t-18.5 -54t-6.5 -67.5q0 -42 16.5 -62.5 t45.5 -20.5q22 0 39.5 12.5t29.5 35t18.5 53.5t6.5 68q0 42 -16.5 63t-46.5 21zM332 690q42 0 69 -13t41.5 -35t18 -52t-2.5 -63h-109q5 27 0 42.5t-35 15.5t-41 -15.5t-16 -42.5h-109q6 33 20 63t36.5 52t54 35t73.5 13z"></glyph><glyph glyph-name="Rinvertedbreve" unicode="Ȓ" d="M367 0q-13 11 -18.5 27.5t-8.5 35.5l-13 83q-5 32 -17.5 41.5t-43.5 9.5h-50l-34 -197h-152l103 589h231q97 0 147 -35t50 -122q0 -44 -13 -75.5t-34.5 -52.5t-49 -32.5t-56.5 -14.5v-4q40 -7 57 -24.5t24 -56.5l18 -108q3 -17 7.5 -32.5t17.5 -31.5h-165zM238 322h78 q18 0 34 4t28.5 14t19.5 26t7 39q0 27 -16.5 42t-51.5 15h-74zM369 802q83 0 111.5 -42t15.5 -112h-109q5 26 -2.5 38.5t-34.5 12.5t-38.5 -12.5t-16.5 -38.5h-109q13 70 56.5 112t126.5 42z"></glyph><glyph glyph-name="rinvertedbreve" unicode="ȓ" d="M393 294q-25 13 -52.5 17t-52.5 -3.5t-43.5 -28.5t-24.5 -57l-39 -222h-151l81 462h132l-3 -127q12 36 32 64t44.5 46.5t53 25t58.5 -1.5zM293 690q42 0 69 -13t41.5 -35t18 -52t-2.5 -63h-109q5 27 0 42.5t-35 15.5t-41 -15.5t-16 -42.5h-109q6 33 20 63t36.5 52t54 35 t73.5 13z"></glyph><glyph glyph-name="Udoublegrave" unicode="Ȕ" d="M618 589l-67 -380q-11 -64 -35.5 -106.5t-60.5 -68t-82.5 -36t-101.5 -10.5q-51 0 -95.5 12.5t-75.5 41t-43.5 75.5t-0.5 116l63 356h152l-63 -348q-5 -29 -4.5 -52.5t9.5 -40t28 -26t52 -9.5q32 0 51.5 9.5t31.5 26.5t18 41t11 53l61 346h152zM401 645l-97 150h152 l49 -150h-104zM218 645l-117 150h163l69 -150h-115z"></glyph><glyph glyph-name="udoublegrave" unicode="ȕ" d="M328 89q-22 -53 -58.5 -77t-95.5 -24q-75 0 -109.5 46.5t-20.5 129.5l53 298h151l-52 -301q-5 -32 6.5 -48t37.5 -16q31 0 54.5 22t32.5 79l47 264h151l-53 -305q-3 -17 1.5 -29t25.5 -12q7 0 14 1.5t16 3.5l-24 -113q-19 -6 -39.5 -9.5t-39.5 -3.5q-101 0 -98 94z M358 525l-97 156h152l49 -156h-104zM175 525l-117 156h163l69 -156h-115z"></glyph><glyph glyph-name="Uinvertedbreve" unicode="Ȗ" d="M618 589l-67 -380q-11 -64 -35.5 -106.5t-60.5 -68t-82.5 -36t-101.5 -10.5q-51 0 -95.5 12.5t-75.5 41t-43.5 75.5t-0.5 116l63 356h152l-63 -348q-5 -29 -4.5 -52.5t9.5 -40t28 -26t52 -9.5q32 0 51.5 9.5t31.5 26.5t18 41t11 53l61 346h152zM400 802q83 0 111.5 -42 t15.5 -112h-109q5 26 -2.5 38.5t-34.5 12.5t-38.5 -12.5t-16.5 -38.5h-109q13 70 56.5 112t126.5 42z"></glyph><glyph glyph-name="uinvertedbreve" unicode="ȗ" d="M328 89q-22 -53 -58.5 -77t-95.5 -24q-75 0 -109.5 46.5t-20.5 129.5l53 298h151l-52 -301q-5 -32 6.5 -48t37.5 -16q31 0 54.5 22t32.5 79l47 264h151l-53 -305q-3 -17 1.5 -29t25.5 -12q7 0 14 1.5t16 3.5l-24 -113q-19 -6 -39.5 -9.5t-39.5 -3.5q-101 0 -98 94z M346 690q42 0 69 -13t41.5 -35t18 -52t-2.5 -63h-109q5 27 0 42.5t-35 15.5t-41 -15.5t-16 -42.5h-109q6 33 20 63t36.5 52t54 35t73.5 13z"></glyph><glyph glyph-name="Scommaaccent" unicode="Ș" d="M147 192q1 -40 24.5 -66.5t65.5 -26.5q34 0 56 12.5t22 44.5q0 26 -16.5 41t-60.5 29q-45 13 -74.5 31t-47.5 40.5t-25.5 49.5t-7.5 59q0 54 20 91t52.5 60.5t73.5 33.5t82 10q95 0 148.5 -38.5t58.5 -125.5l-148 -29q2 36 -19 53t-52 17q-32 0 -50 -13.5t-18 -42.5 q0 -23 17.5 -36t64.5 -28q84 -27 119.5 -67.5t35.5 -112.5q0 -54 -20 -90.5t-54 -58.5t-78.5 -31.5t-93.5 -9.5q-43 0 -80 8.5t-64.5 26.5t-45.5 46t-22 68zM273 -135q0 -32 -12.5 -55t-34 -38t-51.5 -22.5t-65 -7.5v48q34 1 57.5 9t23.5 28q-29 -5 -50.5 9t-21.5 49 t21.5 52t51.5 17q38 0 59.5 -23.5t21.5 -65.5z"></glyph><glyph glyph-name="scommaaccent" unicode="ș" d="M122 163q3 -37 23.5 -56t51.5 -19q23 0 38 8t15 28q0 17 -13 28.5t-51 21.5q-66 17 -95.5 51.5t-29.5 89.5q0 42 16 72t43 49t63.5 28t77.5 9q91 0 136.5 -35t45.5 -96l-125 -31q0 29 -17 46t-49 17q-22 0 -35 -10t-13 -26q0 -8 3 -14t11 -11t22 -10.5t37 -12.5 q34 -11 58 -24t38 -30.5t20.5 -41t6.5 -54.5q0 -41 -16 -70t-44 -47t-66.5 -26.5t-83.5 -8.5q-39 0 -72 7t-57.5 22.5t-40.5 40t-20 59.5zM246 -135q0 -32 -12.5 -55t-34 -38t-51.5 -22.5t-65 -7.5v48q34 1 57.5 9t23.5 28q-29 -5 -50.5 9t-21.5 49t21.5 52t51.5 17 q38 0 59.5 -23.5t21.5 -65.5z"></glyph><glyph glyph-name="Hcaron" unicode="Ȟ" d="M30 0l103 589h152l-39 -225h207l39 225h152l-103 -589h-152l41 234h-207l-41 -234h-152zM346 645l-111 150h131l24 -30q5 -7 7.5 -12l4.5 -9t2 -8h5q0 4 4 8q4 7 20 21l36 30h137l-165 -150h-95z"></glyph><glyph glyph-name="hcaron" unicode="ȟ" d="M482 157q-3 -17 1 -29t27 -12q7 0 14 1.5t16 3.5l-24 -113q-19 -6 -39.5 -9.5t-39.5 -3.5q-135 0 -112 135l25 144q5 32 -3.5 54t-43.5 22q-27 0 -48 -25t-31 -80l-43 -245h-151l117 668h152l-53 -300q22 51 55 78t91 27q55 0 87 -32t32 -86q0 -12 -0.5 -21t-2.5 -18z M178 699l-111 150h131l24 -30q5 -7 7.5 -12l4.5 -9t2 -8h5q0 4 4 8q4 7 20 21l36 30h137l-165 -150h-95z"></glyph><glyph glyph-name="Adotabove" unicode="Ȧ" d="M410 110h-217l-56 -110h-162l316 589h183l112 -589h-156zM257 235h131q-9 42 -14.5 83.5t-8.5 73.5t-4 52t0 20h-4q-8 -26 -19 -56q-10 -26 -24 -58.5t-33 -68.5zM309 733q0 42 25.5 62.5t62.5 20.5q39 0 65 -20.5t26 -62.5q0 -41 -26 -61.5t-65 -20.5q-37 0 -62.5 20.5 t-25.5 61.5z"></glyph><glyph glyph-name="adotabove" unicode="ȧ" d="M340 269q3 18 3 34.5t-5 29t-15.5 20.5t-28.5 8q-27 0 -47 -15.5t-33 -40.5t-19.5 -56.5t-6.5 -63.5q0 -35 14 -60.5t44 -25.5q35 0 53.5 27t25.5 66zM471 157q-3 -17 1 -29t27 -12q7 0 14 1.5t16 3.5l-24 -113q-19 -6 -39.5 -9.5t-39.5 -3.5q-54 0 -81.5 19t-33.5 64 q-16 -49 -50 -69.5t-78 -20.5q-77 0 -115 51t-38 138q0 59 14.5 113t42.5 94.5t68.5 64.5t91.5 24t80 -20t32 -68l29 77h136zM241 595q0 42 26 62.5t62 20.5q40 0 65.5 -20.5t25.5 -62.5q0 -41 -25.5 -61.5t-65.5 -20.5q-36 0 -62 20.5t-26 61.5z"></glyph><glyph glyph-name="Otildemacron" unicode="Ȭ" d="M297 -12q-60 0 -106.5 17t-77.5 49t-47 77.5t-16 102.5q0 86 25 154t67.5 115.5t99 72.5t120.5 25q122 0 184.5 -66.5t62.5 -180.5q0 -86 -25 -154t-67.5 -115t-99.5 -72t-120 -25zM352 469q-35 0 -62.5 -17.5t-46 -48.5t-28.5 -72t-10 -87q0 -63 27 -95.5t72 -32.5 q33 0 59.5 18t46 48.5t30 72.5t10.5 90q0 60 -26.5 92t-71.5 32zM452 627q-31 0 -46.5 7t-32.5 18q-20 13 -31 19t-22 6q-15 0 -26.5 -13t-12.5 -39h-81q-9 37 -3 68t22.5 53t41 34t53.5 12q26 0 40.5 -6.5t27.5 -14.5q21 -14 33.5 -21.5t25.5 -7.5q14 0 23.5 10.5 t10.5 36.5h84q10 -37 6.5 -67t-18.5 -51t-39.5 -32.5t-55.5 -11.5zM255 823l21 120h314l-21 -120h-314z"></glyph><glyph glyph-name="otildemacron" unicode="ȭ" d="M293 473q99 0 156.5 -52.5t57.5 -152.5q0 -55 -16 -105.5t-48.5 -89.5t-81.5 -62t-115 -23q-46 0 -85.5 12t-68.5 36.5t-45.5 61.5t-16.5 86q0 57 16 109.5t48.5 92.5t82 63.5t116.5 23.5zM284 355q-22 0 -39 -13t-29 -35.5t-18.5 -54t-6.5 -67.5q0 -42 16.5 -62.5 t45.5 -20.5q22 0 39.5 12.5t29.5 35t18.5 53.5t6.5 68q0 42 -16.5 63t-46.5 21zM388 497q-31 0 -46.5 7t-32.5 18q-20 13 -31 19t-22 6q-15 0 -26.5 -13t-12.5 -39h-81q-9 37 -3 68t22.5 53t41 34t53.5 12q26 0 40.5 -6.5t27.5 -14.5q21 -14 33.5 -21.5t25.5 -7.5 q14 0 23.5 10.5t10.5 36.5h84q10 -37 6.5 -67t-18.5 -51t-39.5 -32.5t-55.5 -11.5zM189 699l22 120h305l-22 -120h-305z"></glyph><glyph glyph-name="Odotabove" unicode="Ȯ" d="M297 -12q-60 0 -106.5 17t-77.5 49t-47 77.5t-16 102.5q0 86 25 154t67.5 115.5t99 72.5t120.5 25q122 0 184.5 -66.5t62.5 -180.5q0 -86 -25 -154t-67.5 -115t-99.5 -72t-120 -25zM352 469q-35 0 -62.5 -17.5t-46 -48.5t-28.5 -72t-10 -87q0 -63 27 -95.5t72 -32.5 q33 0 59.5 18t46 48.5t30 72.5t10.5 90q0 60 -26.5 92t-71.5 32zM307 733q0 42 25.5 62.5t62.5 20.5q39 0 65 -20.5t26 -62.5q0 -41 -26 -61.5t-65 -20.5q-37 0 -62.5 20.5t-25.5 61.5z"></glyph><glyph glyph-name="odotabove" unicode="ȯ" d="M293 473q99 0 156.5 -52.5t57.5 -152.5q0 -55 -16 -105.5t-48.5 -89.5t-81.5 -62t-115 -23q-46 0 -85.5 12t-68.5 36.5t-45.5 61.5t-16.5 86q0 57 16 109.5t48.5 92.5t82 63.5t116.5 23.5zM284 355q-22 0 -39 -13t-29 -35.5t-18.5 -54t-6.5 -67.5q0 -42 16.5 -62.5 t45.5 -20.5q22 0 39.5 12.5t29.5 35t18.5 53.5t6.5 68q0 42 -16.5 63t-46.5 21zM256 595q0 42 26 62.5t62 20.5q40 0 65.5 -20.5t25.5 -62.5q0 -41 -25.5 -61.5t-65.5 -20.5q-36 0 -62 20.5t-26 61.5z"></glyph><glyph glyph-name="odotabovemacron" unicode="ȱ" d="M293 473q99 0 156.5 -52.5t57.5 -152.5q0 -55 -16 -105.5t-48.5 -89.5t-81.5 -62t-115 -23q-46 0 -85.5 12t-68.5 36.5t-45.5 61.5t-16.5 86q0 57 16 109.5t48.5 92.5t82 63.5t116.5 23.5zM284 355q-22 0 -39 -13t-29 -35.5t-18.5 -54t-6.5 -67.5q0 -42 16.5 -62.5 t45.5 -20.5q22 0 39.5 12.5t29.5 35t18.5 53.5t6.5 68q0 42 -16.5 63t-46.5 21zM222 575q0 42 26 62.5t62 20.5q40 0 65.5 -20.5t25.5 -62.5q0 -41 -25.5 -61.5t-65.5 -20.5q-36 0 -62 20.5t-26 61.5zM175 686l22 120h305l-22 -120h-305z"></glyph><glyph glyph-name="odotabovemacron" unicode="" d="M293 473q99 0 156.5 -52.5t57.5 -152.5q0 -55 -16 -105.5t-48.5 -89.5t-81.5 -62t-115 -23q-46 0 -85.5 12t-68.5 36.5t-45.5 61.5t-16.5 86q0 57 16 109.5t48.5 92.5t82 63.5t116.5 23.5zM284 355q-22 0 -39 -13t-29 -35.5t-18.5 -54t-6.5 -67.5q0 -42 16.5 -62.5 t45.5 -20.5q22 0 39.5 12.5t29.5 35t18.5 53.5t6.5 68q0 42 -16.5 63t-46.5 21zM222 575q0 42 26 62.5t62 20.5q40 0 65.5 -20.5t25.5 -62.5q0 -41 -25.5 -61.5t-65.5 -20.5q-36 0 -62 20.5t-26 61.5zM175 686l22 120h305l-22 -120h-305z"></glyph><glyph glyph-name="Ymacron" unicode="Ȳ" d="M263 464q9 -31 14.5 -59t7.5 -49q3 -25 4 -46h4q6 21 17 47q9 21 22.5 49t33.5 58l83 125h161l-260 -402l-32 -187h-152l32 187l-133 402h160zM197 661l21 120h314l-21 -120h-314z"></glyph><glyph glyph-name="ymacron" unicode="ȳ" d="M210 238q2 -30 2 -55t-1 -42q-1 -21 -3 -37h4q5 22 12 46q6 20 14.5 44.5t21.5 48.5l116 219h157l-282 -504q-30 -54 -58 -87.5t-56.5 -51.5t-58 -24t-61.5 -6t-56.5 6t-40.5 14l44 123q11 -8 26 -14t32 -6q30 0 52.5 15.5t39.5 46.5l-77 488h155zM136 533l22 120h305 l-22 -120h-305z"></glyph><glyph glyph-name="dotlessj" unicode="ȷ" d="M158 -59q-15 -86 -62.5 -119t-127.5 -33q-38 0 -69.5 8t-53.5 20l40 109q14 -11 29.5 -18.5t36.5 -7.5q25 0 39 14t22 58l86 490h151z"></glyph><glyph glyph-name="schwa" unicode="ə" d="M261 359q-26 0 -43 -15.5t-24 -42.5l-142 34q10 29 28 54t44.5 44t63 29.5t85.5 10.5q100 0 154.5 -53.5t54.5 -142.5q0 -71 -21 -124.5t-56.5 -90.5t-82 -55.5t-96.5 -18.5t-87 14t-61 37.5t-36 53.5t-12 63q0 28 5 53.5t15 45.5h269q7 42 -7 73t-51 31zM184 177 q-1 -5 -1.5 -10t-0.5 -11q0 -25 10.5 -42t39.5 -17q30 0 48.5 24t26.5 56h-123z"></glyph><glyph glyph-name="ezh" unicode="ʒ" d="M154 274q34 37 55 55q12 11 23 18v4q-10 -2 -21 -3q-10 -1 -24.5 -1.5t-32.5 -0.5h-108l20 116h363l-16 -92l-168 -163l-1 -3q71 -14 99 -57.5t28 -104.5q0 -48 -19 -84.5t-51.5 -61t-74.5 -37t-87 -12.5q-96 0 -139 36.5t-50 103.5l132 54q-5 -42 15 -62t54 -20 q31 0 52.5 19t21.5 55q0 16 -4 33t-17 31t-39 25t-69 16l16 89z"></glyph><glyph glyph-name="circumflex" unicode="ˆ" d="M341 685l110 -163h-131l-25 32q-6 8 -8.5 13.5t-3.5 9.5t-1 8h-5q-1 -4 -4 -8q-5 -9 -21 -23l-35 -32h-137l166 163h95z"></glyph><glyph glyph-name="caron" unicode="ˇ" d="M190 522l-110 163h131l25 -32q10 -15 12 -23q1 -4 1 -8h5q1 4 4 8q2 4 7 9.5t14 13.5l35 32h137l-166 -163h-95z"></glyph><glyph glyph-name="breve" unicode="˘" d="M210 518q-42 0 -69 13t-41.5 35t-18 52t2.5 63h109q-5 -27 0 -42.5t35 -15.5t41 15.5t16 42.5h109q-6 -33 -20 -63t-36.5 -52t-54 -35t-73.5 -13z"></glyph><glyph glyph-name="dotaccent" unicode="˙" d="M80 595q0 42 26 62.5t62 20.5q40 0 65.5 -20.5t25.5 -62.5q0 -41 -25.5 -61.5t-65.5 -20.5q-36 0 -62 20.5t-26 61.5z"></glyph><glyph glyph-name="ring" unicode="˚" d="M80 607q0 25 9 47t25.5 39t39.5 27t52 10q48 0 76.5 -30t28.5 -73q0 -26 -9 -49t-25 -40t-39 -26.5t-50 -9.5q-54 0 -81 30t-27 75zM201 664q-23 0 -35.5 -15.5t-12.5 -37.5q0 -18 10 -29t29 -11q24 0 36.5 16t12.5 38q0 17 -10 28t-30 11z"></glyph><glyph glyph-name="ogonek" unicode="˛" d="M80 -106q0 39 18 69t45.5 51t62 32.5t67.5 11.5l31 -58q-52 0 -79 -22t-27 -56q0 -37 35 -37q16 0 28.5 5t29.5 20l29 -76q-25 -25 -55.5 -35t-64.5 -10q-24 0 -46 5.5t-38.5 18.5t-26 32.5t-9.5 48.5z"></glyph><glyph glyph-name="tilde" unicode="˜" d="M338 519q-31 0 -46.5 7t-32.5 18q-20 13 -31 19t-22 6q-15 0 -26.5 -13t-12.5 -39h-81q-9 37 -3 68t22.5 53t41 34t53.5 12q26 0 40.5 -6.5t27.5 -14.5q21 -14 33.5 -21.5t25.5 -7.5q14 0 23.5 10.5t10.5 36.5h84q10 -37 6.5 -67t-18.5 -51t-39.5 -32.5t-55.5 -11.5z"></glyph><glyph glyph-name="hungarumlaut" unicode="˝" d="M80 525l49 156h152l-97 -156h-104zM252 525l69 156h163l-117 -156h-115z"></glyph><glyph glyph-name="uni0312" unicode="̒" d="M80 732q0 31 12.5 54.5t34 38.5t51.5 22.5t65 7.5v-48q-34 -1 -57.5 -9t-23.5 -28q29 5 50.5 -9t21.5 -49t-21.5 -52t-51.5 -17q-38 0 -59.5 23.5t-21.5 65.5z"></glyph><glyph glyph-name="uni0320" unicode="̠" d="M80 -196l22 120h305l-22 -120h-305z"></glyph><glyph glyph-name="uni0323" unicode="̣" d="M80 -129q0 42 25.5 62.5t62.5 20.5q39 0 65 -20.5t26 -62.5q0 -41 -26 -61.5t-65 -20.5q-37 0 -62.5 20.5t-25.5 61.5z"></glyph><glyph glyph-name="uni0329" unicode="̩" d="M80 -39h148v-169l-148 -11v180z"></glyph><glyph glyph-name="pi" unicode="π" d="M679 481l-19 -110h-96l-42 -232q-5 -26 3 -35t23 -9q18 0 31 12.5t30 38.5l50 -79q-27 -45 -68 -62t-86 -17q-76 0 -107 39.5t-16 124.5l40 219h-83l-114 -371h-151l117 371h-11q-9 0 -18.5 -2t-17 -8t-13 -17t-6.5 -29h-110q5 83 44 124.5t132 41.5h488z"></glyph><glyph glyph-name="uni0E3F" unicode="฿" d="M409 243q51 -5 77.5 -30.5t26.5 -73.5q0 -43 -15 -70t-43 -42.5t-66.5 -21t-86.5 -5.5h-29l-18 -106h-50l18 106h-193l84 481h194l17 93h50l-17 -93q84 0 127 -24t43 -89q0 -56 -32.5 -85.5t-86.5 -34.5v-5zM309 201l-18 -98h11q32 0 51 14.5t19 39.5q0 23 -11.5 33.5 t-37.5 10.5h-14zM273 281l17 100h-44l-17 -100h44zM198 103h43l18 98h-44zM381 339q0 19 -9 29.5t-32 12.5l-17 -100q26 0 42 16t16 42z"></glyph><glyph glyph-name="Ddotbelow" unicode="Ḍ" d="M257 127q40 0 74 13.5t58.5 40.5t38 67t13.5 92q0 66 -35 94t-97 28h-46l-59 -335h53zM30 0l103 589h204q262 0 262 -234q0 -96 -28.5 -163.5t-77.5 -110t-114.5 -62t-139.5 -19.5h-209zM129 -129q0 42 25.5 62.5t62.5 20.5q39 0 65 -20.5t26 -62.5q0 -41 -26 -61.5 t-65 -20.5q-37 0 -62.5 20.5t-25.5 61.5z"></glyph><glyph glyph-name="ddotbelow" unicode="ḍ" d="M346 269q3 18 2.5 34.5t-6 29t-17 20.5t-31.5 8q-27 0 -47 -15.5t-33 -40.5t-19.5 -56.5t-6.5 -63.5q0 -35 14 -60.5t44 -25.5q69 0 86 93zM478 157q-3 -17 1 -29t27 -12q7 0 14 1.5t16 3.5l-24 -113q-19 -6 -39.5 -9.5t-39.5 -3.5q-54 0 -81.5 19t-33.5 64 q-16 -49 -53.5 -69.5t-81.5 -20.5q-77 0 -115 51t-38 138q0 59 14.5 113t43 94.5t70 64.5t95.5 24q46 0 78 -20.5t35 -67.5l49 283h151zM128 -129q0 42 25.5 62.5t62.5 20.5q39 0 65 -20.5t26 -62.5q0 -41 -26 -61.5t-65 -20.5q-37 0 -62.5 20.5t-25.5 61.5z"></glyph><glyph glyph-name="Dcedilla" unicode="Ḑ" d="M327 -116q0 -48 -34.5 -71.5t-84.5 -23.5q-37 0 -66.5 10t-43.5 26l26 67q17 -18 33 -26t30 -8q31 0 31 24q0 28 -42 38l32 80h-178l103 589h204q262 0 262 -234q0 -93 -26 -159t-71.5 -108t-107 -63t-131.5 -25l-15 -35q40 -6 59.5 -24t19.5 -57zM257 127q40 0 74 13.5 t58.5 40.5t38 67t13.5 92q0 66 -35 94t-97 28h-46l-59 -335h53z"></glyph><glyph glyph-name="dcedilla" unicode="ḑ" d="M326 -116q0 -48 -34.5 -71.5t-84.5 -23.5q-37 0 -66.5 10t-43.5 26l26 67q17 -18 33 -26t30 -8q31 0 31 24q0 28 -42 38l28 69q-5 0 -10 -0.5t-10 -0.5q-77 0 -115 51t-38 138q0 59 14.5 113t43 94.5t70 64.5t95.5 24q21 0 43 -5q29 -8 48.5 -28t21.5 -55l49 283h151 l-88 -511q-3 -17 1 -29t27 -12q7 0 14 1.5t16 3.5l-24 -113q-19 -6 -39.5 -9.5t-39.5 -3.5q-53 0 -81 19t-34 64q-8 -24 -21.5 -41t-30.5 -28l-19 -44q40 -6 59.5 -24t19.5 -57zM346 269q3 18 2.5 34.5t-6 29t-17.5 20.5t-31 8q-27 0 -47 -15.5t-33 -40.5t-19.5 -56.5 t-6.5 -63.5q0 -35 14 -60.5t44 -25.5q69 0 86 93z"></glyph><glyph glyph-name="Hdotbelow" unicode="Ḥ" d="M30 0l103 589h152l-39 -225h207l39 225h152l-103 -589h-152l41 234h-207l-41 -234h-152zM173 -129q0 42 25.5 62.5t62.5 20.5q39 0 65 -20.5t26 -62.5q0 -41 -26 -61.5t-65 -20.5q-37 0 -62.5 20.5t-25.5 61.5z"></glyph><glyph glyph-name="hdotbelow" unicode="ḥ" d="M482 157q-3 -17 1 -29t27 -12q7 0 14 1.5t16 3.5l-24 -113q-19 -6 -39.5 -9.5t-39.5 -3.5q-135 0 -112 135l25 144q5 32 -3.5 54t-43.5 22q-27 0 -48 -25t-31 -80l-43 -245h-151l117 668h152l-53 -300q22 51 55 78t91 27q55 0 87 -32t32 -86q0 -12 -0.5 -21t-2.5 -18z M153 -129q0 42 25.5 62.5t62.5 20.5q39 0 65 -20.5t26 -62.5q0 -41 -26 -61.5t-65 -20.5q-37 0 -62.5 20.5t-25.5 61.5z"></glyph><glyph glyph-name="Ldotbelow" unicode="Ḷ" d="M285 589l-81 -459h218l-22 -130h-370l103 589h152zM100 -129q0 42 25.5 62.5t62.5 20.5q39 0 65 -20.5t26 -62.5q0 -41 -26 -61.5t-65 -20.5q-37 0 -62.5 20.5t-25.5 61.5z"></glyph><glyph glyph-name="ldotbelow" unicode="ḷ" d="M196 157q-3 -17 1 -29t27 -12q7 0 14 1.5t16 3.5l-24 -113q-19 -6 -39.5 -9.5t-39.5 -3.5q-135 0 -112 135l96 538h151zM15 -129q0 42 25.5 62.5t62.5 20.5q39 0 65 -20.5t26 -62.5q0 -41 -26 -61.5t-65 -20.5q-37 0 -62.5 20.5t-25.5 61.5z"></glyph><glyph glyph-name="uni004C032300AF" unicode="Ḹ" d="M285 589l-81 -459h218l-22 -130h-370l103 589h152zM66 661l21 120h314l-21 -120h-314zM100 -129q0 42 25.5 62.5t62.5 20.5q39 0 65 -20.5t26 -62.5q0 -41 -26 -61.5t-65 -20.5q-37 0 -62.5 20.5t-25.5 61.5z"></glyph><glyph glyph-name="ldotbelowmacron" unicode="ḹ" d="M196 157q-3 -17 1 -29t27 -12q7 0 14 1.5t16 3.5l-24 -113q-19 -6 -39.5 -9.5t-39.5 -3.5q-135 0 -112 135l96 538h151zM61 723l21 120h314l-21 -120h-314zM15 -129q0 42 25.5 62.5t62.5 20.5q39 0 65 -20.5t26 -62.5q0 -41 -26 -61.5t-65 -20.5q-37 0 -62.5 20.5 t-25.5 61.5z"></glyph><glyph glyph-name="Mdotbelow" unicode="Ṃ" d="M320 133l-50 112q-16 35 -24 64q-5 16 -8 31h-4q0 -12 -1 -28q-1 -14 -3.5 -33.5t-6.5 -44.5l-41 -234h-152l103 589h148l70 -174q18 -48 24 -72q4 -14 6 -25h4q4 11 13 25q7 12 19 30t30 42l134 174h148l-103 -589h-152l41 234q4 25 8.5 44.5t7.5 33.5l7 28h-4 q-7 -15 -16 -31q-8 -14 -18 -30.5t-24 -33.5l-90 -112h-66zM210 -129q0 42 25.5 62.5t62.5 20.5q39 0 65 -20.5t26 -62.5q0 -41 -26 -61.5t-65 -20.5q-37 0 -62.5 20.5t-25.5 61.5z"></glyph><glyph glyph-name="mdotbelow" unicode="ṃ" d="M291 0l47 274q5 32 -3 54t-38 22q-32 0 -47.5 -25t-25.5 -80l-43 -245h-151l81 462h132l2 -94q20 52 50 78.5t86 26.5q57 0 87 -28t30 -82q32 110 143 110q57 0 87.5 -32t30.5 -86q0 -12 -0.5 -21t-2.5 -18l-26 -159q-3 -17 1 -29t27 -12q7 0 14 1.5t16 3.5l-24 -113 q-19 -6 -39.5 -9.5t-39.5 -3.5q-135 0 -112 135l25 144q5 32 -3 54t-38 22q-32 0 -48 -25t-25 -80l-40 -245h-153zM256 -129q0 42 25.5 62.5t62.5 20.5q39 0 65 -20.5t26 -62.5q0 -41 -26 -61.5t-65 -20.5q-37 0 -62.5 20.5t-25.5 61.5z"></glyph><glyph glyph-name="Ndotaccent" unicode="Ṅ" d="M403 327q8 -17 14.5 -32.5t11.5 -27.5q5 -14 8 -27h4q1 16 4 36q2 17 5 40t8 52l39 221h152l-103 -589h-134l-134 255q-11 19 -18 36t-12 31q-5 16 -9 29h-4q-1 -16 -3 -36q-2 -17 -5 -43t-9 -58l-36 -214h-152l103 589h139zM317 733q0 42 25.5 62.5t62.5 20.5 q39 0 65 -20.5t26 -62.5q0 -41 -26 -61.5t-65 -20.5q-37 0 -62.5 20.5t-25.5 61.5z"></glyph><glyph glyph-name="ndotaccent" unicode="ṅ" d="M482 157q-3 -17 1 -29t27 -12q7 0 14 1.5t16 3.5l-24 -113q-19 -6 -39.5 -9.5t-39.5 -3.5q-135 0 -112 135l25 144q5 32 -3.5 54t-43.5 22q-27 0 -48 -25t-31 -80l-43 -245h-151l81 462h132l2 -94q22 51 55.5 78t91.5 27q55 0 87 -32t32 -86q0 -12 -0.5 -21t-2.5 -18z M252 595q0 42 26 62.5t62 20.5q40 0 65.5 -20.5t25.5 -62.5q0 -41 -25.5 -61.5t-65.5 -20.5q-36 0 -62 20.5t-26 61.5z"></glyph><glyph glyph-name="Ndotbelow" unicode="Ṇ" d="M403 327q8 -17 14.5 -32.5t11.5 -27.5q5 -14 8 -27h4q1 16 4 36q2 17 5 40t8 52l39 221h152l-103 -589h-134l-134 255q-11 19 -18 36t-12 31q-5 16 -9 29h-4q-1 -16 -3 -36q-2 -17 -5 -43t-9 -58l-36 -214h-152l103 589h139zM165 -129q0 42 25.5 62.5t62.5 20.5 q39 0 65 -20.5t26 -62.5q0 -41 -26 -61.5t-65 -20.5q-37 0 -62.5 20.5t-25.5 61.5z"></glyph><glyph glyph-name="ndotbelow" unicode="ṇ" d="M482 157q-3 -17 1 -29t27 -12q7 0 14 1.5t16 3.5l-24 -113q-19 -6 -39.5 -9.5t-39.5 -3.5q-135 0 -112 135l25 144q5 32 -3.5 54t-43.5 22q-27 0 -48 -25t-31 -80l-43 -245h-151l81 462h132l2 -94q22 51 55.5 78t91.5 27q55 0 87 -32t32 -86q0 -12 -0.5 -21t-2.5 -18z M124 -129q0 42 25.5 62.5t62.5 20.5q39 0 65 -20.5t26 -62.5q0 -41 -26 -61.5t-65 -20.5q-37 0 -62.5 20.5t-25.5 61.5z"></glyph><glyph glyph-name="Rdotbelow" unicode="Ṛ" d="M367 0q-13 11 -18.5 27.5t-8.5 35.5l-13 83q-5 32 -17.5 41.5t-43.5 9.5h-50l-34 -197h-152l103 589h231q97 0 147 -35t50 -122q0 -44 -13 -75.5t-34.5 -52.5t-49 -32.5t-56.5 -14.5v-4q40 -7 57 -24.5t24 -56.5l18 -108q3 -17 7.5 -32.5t17.5 -31.5h-165zM238 322h78 q18 0 34 4t28.5 14t19.5 26t7 39q0 27 -16.5 42t-51.5 15h-74zM147 -129q0 42 25.5 62.5t62.5 20.5q39 0 65 -20.5t26 -62.5q0 -41 -26 -61.5t-65 -20.5q-37 0 -62.5 20.5t-25.5 61.5z"></glyph><glyph glyph-name="rdotbelow" unicode="ṛ" d="M393 294q-25 13 -52.5 17t-52.5 -3.5t-43.5 -28.5t-24.5 -57l-39 -222h-151l81 462h132l-3 -127q12 36 32 64t44.5 46.5t53 25t58.5 -1.5zM-1 -129q0 42 25.5 62.5t62.5 20.5q39 0 65 -20.5t26 -62.5q0 -41 -26 -61.5t-65 -20.5q-37 0 -62.5 20.5t-25.5 61.5z"></glyph><glyph glyph-name="Rdotbelowmacron" unicode="Ṝ" d="M367 0q-13 11 -18.5 27.5t-8.5 35.5l-13 83q-5 32 -17.5 41.5t-43.5 9.5h-50l-34 -197h-152l103 589h231q97 0 147 -35t50 -122q0 -44 -13 -75.5t-34.5 -52.5t-49 -32.5t-56.5 -14.5v-4q40 -7 57 -24.5t24 -56.5l18 -108q3 -17 7.5 -32.5t17.5 -31.5h-165zM238 322h78 q18 0 34 4t28.5 14t19.5 26t7 39q0 27 -16.5 42t-51.5 15h-74zM189 661l21 120h314l-21 -120h-314zM147 -129q0 42 25.5 62.5t62.5 20.5q39 0 65 -20.5t26 -62.5q0 -41 -26 -61.5t-65 -20.5q-37 0 -62.5 20.5t-25.5 61.5z"></glyph><glyph glyph-name="rdotbelowmacron" unicode="ṝ" d="M393 294q-25 13 -52.5 17t-52.5 -3.5t-43.5 -28.5t-24.5 -57l-39 -222h-151l81 462h132l-3 -127q12 36 32 64t44.5 46.5t53 25t58.5 -1.5zM115 533l22 120h305l-22 -120h-305zM-1 -129q0 42 25.5 62.5t62.5 20.5q39 0 65 -20.5t26 -62.5q0 -41 -26 -61.5t-65 -20.5 q-37 0 -62.5 20.5t-25.5 61.5z"></glyph><glyph glyph-name="Sdotbelow" unicode="Ṣ" d="M147 192q1 -40 24.5 -66.5t65.5 -26.5q34 0 56 12.5t22 44.5q0 26 -16.5 41t-60.5 29q-45 13 -74.5 31t-47.5 40.5t-25.5 49.5t-7.5 59q0 54 20 91t52.5 60.5t73.5 33.5t82 10q95 0 148.5 -38.5t58.5 -125.5l-148 -29q2 36 -19 53t-52 17q-32 0 -50 -13.5t-18 -42.5 q0 -23 17.5 -36t64.5 -28q84 -27 119.5 -67.5t35.5 -112.5q0 -54 -20 -90.5t-54 -58.5t-78.5 -31.5t-93.5 -9.5q-43 0 -80 8.5t-64.5 26.5t-45.5 46t-22 68zM100 -129q0 42 25.5 62.5t62.5 20.5q39 0 65 -20.5t26 -62.5q0 -41 -26 -61.5t-65 -20.5q-37 0 -62.5 20.5 t-25.5 61.5z"></glyph><glyph glyph-name="sdotbelow" unicode="ṣ" d="M122 163q3 -37 23.5 -56t51.5 -19q23 0 38 8t15 28q0 17 -13 28.5t-51 21.5q-66 17 -95.5 51.5t-29.5 89.5q0 42 16 72t43 49t63.5 28t77.5 9q91 0 136.5 -35t45.5 -96l-125 -31q0 29 -17 46t-49 17q-22 0 -35 -10t-13 -26q0 -8 3 -14t11 -11t22 -10.5t37 -12.5 q34 -11 58 -24t38 -30.5t20.5 -41t6.5 -54.5q0 -41 -16 -70t-44 -47t-66.5 -26.5t-83.5 -8.5q-39 0 -72 7t-57.5 22.5t-40.5 40t-20 59.5zM73 -129q0 42 25.5 62.5t62.5 20.5q39 0 65 -20.5t26 -62.5q0 -41 -26 -61.5t-65 -20.5q-37 0 -62.5 20.5t-25.5 61.5z"></glyph><glyph glyph-name="Tdotbelow" unicode="Ṭ" d="M137 0l80 459h-157l23 130h468l-23 -130h-160l-80 -459h-151zM103 -129q0 42 25.5 62.5t62.5 20.5q39 0 65 -20.5t26 -62.5q0 -41 -26 -61.5t-65 -20.5q-37 0 -62.5 20.5t-25.5 61.5z"></glyph><glyph glyph-name="tdotbelow" unicode="ṭ" d="M321 17q-22 -13 -57.5 -21t-73.5 -8q-39 0 -68 10t-47 31.5t-23.5 55.5t2.5 81l32 182h-66l20 114h67l17 98l153 17l-19 -115h120l-20 -114h-120l-32 -179q-5 -29 5.5 -39.5t32.5 -10.5q18 0 39.5 7t37.5 16v-125zM67 -129q0 42 25.5 62.5t62.5 20.5q39 0 65 -20.5 t26 -62.5q0 -41 -26 -61.5t-65 -20.5q-37 0 -62.5 20.5t-25.5 61.5z"></glyph><glyph glyph-name="Wgrave" unicode="Ẁ" d="M601 280q1 -31 0.5 -61t-2.5 -54q-2 -28 -4 -54h4q7 26 15 54q7 24 16 54t20 60l112 310h159l-225 -589h-216l-17 272q-2 29 -2.5 57t0.5 51q1 26 2 50h-4q-5 -23 -11 -49q-6 -23 -14.5 -51.5t-20.5 -58.5l-107 -271h-207l-19 589h155l7 -309q1 -31 0 -61t-2 -54 q-2 -28 -3 -54h4q6 26 14 54q7 24 16 54t20 60l117 310h181zM435 645l-113 150h184l65 -150h-136z"></glyph><glyph glyph-name="wgrave" unicode="ẁ" d="M473 288q4 -35 4 -67.5t-2 -57.5q-2 -29 -6 -55h4q5 25 13 54q7 25 17.5 57t24.5 67l71 176h159l-200 -462h-176l-18 147q-2 26 -2 52.5t2 48.5q2 26 4 49h-4q-5 -23 -12 -49q-6 -22 -15 -48.5t-20 -53.5l-57 -146h-175l-45 462h152l13 -176q5 -72 3 -124q-1 -29 -3 -54 h4q5 26 13 55q7 25 17 57.5t24 67.5l70 174h128zM344 525l-117 156h184l69 -156h-136z"></glyph><glyph glyph-name="Wacute" unicode="Ẃ" d="M601 280q1 -31 0.5 -61t-2.5 -54q-2 -28 -4 -54h4q7 26 15 54q7 24 16 54t20 60l112 310h159l-225 -589h-216l-17 272q-2 29 -2.5 57t0.5 51q1 26 2 50h-4q-5 -23 -11 -49q-6 -23 -14.5 -51.5t-20.5 -58.5l-107 -271h-207l-19 589h155l7 -309q1 -31 0 -61t-2 -54 q-2 -28 -3 -54h4q6 26 14 54q7 24 16 54t20 60l117 310h181zM421 645l65 150h184l-113 -150h-136z"></glyph><glyph glyph-name="wacute" unicode="ẃ" d="M473 288q4 -35 4 -67.5t-2 -57.5q-2 -29 -6 -55h4q5 25 13 54q7 25 17.5 57t24.5 67l71 176h159l-200 -462h-176l-18 147q-2 26 -2 52.5t2 48.5q2 26 4 49h-4q-5 -23 -12 -49q-6 -22 -15 -48.5t-20 -53.5l-57 -146h-175l-45 462h152l13 -176q5 -72 3 -124q-1 -29 -3 -54 h4q5 26 13 55q7 25 17 57.5t24 67.5l70 174h128zM333 525l69 156h184l-117 -156h-136z"></glyph><glyph glyph-name="Wdieresis" unicode="Ẅ" d="M601 280q1 -31 0.5 -61t-2.5 -54q-2 -28 -4 -54h4q7 26 15 54q7 24 16 54t20 60l112 310h159l-225 -589h-216l-17 272q-2 29 -2.5 57t0.5 51q1 26 2 50h-4q-5 -23 -11 -49q-6 -23 -14.5 -51.5t-20.5 -58.5l-107 -271h-207l-19 589h155l7 -309q1 -31 0 -61t-2 -54 q-2 -28 -3 -54h4q6 26 14 54q7 24 16 54t20 60l117 310h181zM311 726q0 42 23.5 61.5t55.5 19.5q35 0 58.5 -19.5t23.5 -61.5q0 -40 -23.5 -60t-58.5 -20q-32 0 -55.5 20t-23.5 60zM536 726q0 42 23.5 61.5t55.5 19.5q35 0 58.5 -19.5t23.5 -61.5q0 -40 -23.5 -60t-58.5 -20 q-32 0 -55.5 20t-23.5 60z"></glyph><glyph glyph-name="wdieresis" unicode="ẅ" d="M473 288q4 -35 4 -67.5t-2 -57.5q-2 -29 -6 -55h4q5 25 13 54q7 25 17.5 57t24.5 67l71 176h159l-200 -462h-176l-18 147q-2 26 -2 52.5t2 48.5q2 26 4 49h-4q-5 -23 -12 -49q-6 -22 -15 -48.5t-20 -53.5l-57 -146h-175l-45 462h152l13 -176q5 -72 3 -124q-1 -29 -3 -54 h4q5 26 13 55q7 25 17 57.5t24 67.5l70 174h128zM222 596q0 42 23.5 61.5t55.5 19.5q35 0 58.5 -19.5t23.5 -61.5q0 -40 -23.5 -60t-58.5 -20q-32 0 -55.5 20t-23.5 60zM447 596q0 42 23.5 61.5t55.5 19.5q35 0 58.5 -19.5t23.5 -61.5q0 -40 -23.5 -60t-58.5 -20 q-32 0 -55.5 20t-23.5 60z"></glyph><glyph glyph-name="Idotbelow" unicode="Ị" d="M285 589l-103 -589h-152l103 589h152zM-7 -129q0 42 25.5 62.5t62.5 20.5q39 0 65 -20.5t26 -62.5q0 -41 -26 -61.5t-65 -20.5q-37 0 -62.5 20.5t-25.5 61.5z"></glyph><glyph glyph-name="idotbelow" unicode="ị" d="M196 157q-3 -17 1 -29t27 -12q7 0 14 1.5t16 3.5l-24 -113q-19 -6 -39.5 -9.5t-39.5 -3.5q-135 0 -112 135l59 332h151zM104 601q0 42 26 62.5t62 20.5q40 0 65.5 -20.5t25.5 -62.5q0 -41 -25.5 -61.5t-65.5 -20.5q-36 0 -62 20.5t-26 61.5zM-12 -129q0 42 25.5 62.5 t62.5 20.5q39 0 65 -20.5t26 -62.5q0 -41 -26 -61.5t-65 -20.5q-37 0 -62.5 20.5t-25.5 61.5z"></glyph><glyph glyph-name="Odotbelow" unicode="Ọ" d="M297 -12q-60 0 -106.5 17t-77.5 49t-47 77.5t-16 102.5q0 86 25 154t67.5 115.5t99 72.5t120.5 25q122 0 184.5 -66.5t62.5 -180.5q0 -86 -25 -154t-67.5 -115t-99.5 -72t-120 -25zM352 469q-35 0 -62.5 -17.5t-46 -48.5t-28.5 -72t-10 -87q0 -63 27 -95.5t72 -32.5 q33 0 59.5 18t46 48.5t30 72.5t10.5 90q0 60 -26.5 92t-71.5 32zM155 -129q0 42 25.5 62.5t62.5 20.5q39 0 65 -20.5t26 -62.5q0 -41 -26 -61.5t-65 -20.5q-37 0 -62.5 20.5t-25.5 61.5z"></glyph><glyph glyph-name="odotbelow" unicode="ọ" d="M293 473q99 0 156.5 -52.5t57.5 -152.5q0 -55 -16 -105.5t-48.5 -89.5t-81.5 -62t-115 -23q-46 0 -85.5 12t-68.5 36.5t-45.5 61.5t-16.5 86q0 57 16 109.5t48.5 92.5t82 63.5t116.5 23.5zM284 355q-22 0 -39 -13t-29 -35.5t-18.5 -54t-6.5 -67.5q0 -42 16.5 -62.5 t45.5 -20.5q22 0 39.5 12.5t29.5 35t18.5 53.5t6.5 68q0 42 -16.5 63t-46.5 21zM100 -129q0 42 25.5 62.5t62.5 20.5q39 0 65 -20.5t26 -62.5q0 -41 -26 -61.5t-65 -20.5q-37 0 -62.5 20.5t-25.5 61.5z"></glyph><glyph glyph-name="Udotbelow" unicode="Ụ" d="M618 589l-67 -380q-11 -64 -35.5 -106.5t-60.5 -68t-82.5 -36t-101.5 -10.5q-51 0 -95.5 12.5t-75.5 41t-43.5 75.5t-0.5 116l63 356h152l-63 -348q-5 -29 -4.5 -52.5t9.5 -40t28 -26t52 -9.5q32 0 51.5 9.5t31.5 26.5t18 41t11 53l61 346h152zM148 -129q0 42 25.5 62.5 t62.5 20.5q39 0 65 -20.5t26 -62.5q0 -41 -26 -61.5t-65 -20.5q-37 0 -62.5 20.5t-25.5 61.5z"></glyph><glyph glyph-name="udotbelow" unicode="ụ" d="M328 89q-22 -53 -58.5 -77t-95.5 -24q-75 0 -109.5 46.5t-20.5 129.5l53 298h151l-52 -301q-5 -32 6.5 -48t37.5 -16q31 0 54.5 22t32.5 79l47 264h151l-53 -305q-3 -17 1.5 -29t25.5 -12q7 0 14 1.5t16 3.5l-24 -113q-19 -6 -39.5 -9.5t-39.5 -3.5q-101 0 -98 94z M114 -129q0 42 25.5 62.5t62.5 20.5q39 0 65 -20.5t26 -62.5q0 -41 -26 -61.5t-65 -20.5q-37 0 -62.5 20.5t-25.5 61.5z"></glyph><glyph glyph-name="Ygrave" unicode="Ỳ" d="M263 464q9 -31 14.5 -59t7.5 -49q3 -25 4 -46h4q6 21 17 47q9 21 22.5 49t33.5 58l83 125h161l-260 -402l-32 -187h-152l32 187l-133 402h160zM290 645l-113 150h184l65 -150h-136z"></glyph><glyph glyph-name="ygrave" unicode="ỳ" d="M210 238q2 -30 2 -55t-1 -42q-1 -21 -3 -37h4q5 22 12 46q6 20 14.5 44.5t21.5 48.5l116 219h157l-282 -504q-30 -54 -58 -87.5t-56.5 -51.5t-58 -24t-61.5 -6t-56.5 6t-40.5 14l44 123q11 -8 26 -14t32 -6q30 0 52.5 15.5t39.5 46.5l-77 488h155zM223 525l-117 156h184 l69 -156h-136z"></glyph><glyph glyph-name="Ytilde" unicode="Ỹ" d="M263 464q9 -31 14.5 -59t7.5 -49q3 -25 4 -46h4q6 21 17 47q9 21 22.5 49t33.5 58l83 125h161l-260 -402l-32 -187h-152l32 187l-133 402h160zM422 647q-31 0 -46.5 7t-32.5 18q-20 13 -31 19t-22 6q-15 0 -26.5 -13t-12.5 -39h-81q-9 37 -3 68t22.5 53t41 34t53.5 12 q26 0 40.5 -6.5t27.5 -14.5q21 -14 33.5 -21.5t25.5 -7.5q14 0 23.5 10.5t10.5 36.5h84q10 -37 6.5 -67t-18.5 -51t-39.5 -32.5t-55.5 -11.5z"></glyph><glyph glyph-name="ytilde" unicode="ỹ" d="M210 238q2 -30 2 -55t-1 -42q-1 -21 -3 -37h4q5 22 12 46q6 20 14.5 44.5t21.5 48.5l116 219h157l-282 -504q-30 -54 -58 -87.5t-56.5 -51.5t-58 -24t-61.5 -6t-56.5 6t-40.5 14l44 123q11 -8 26 -14t32 -6q30 0 52.5 15.5t39.5 46.5l-77 488h155zM364 519q-31 0 -46.5 7 t-32.5 18q-20 13 -31 19t-22 6q-15 0 -26.5 -13t-12.5 -39h-81q-9 37 -3 68t22.5 53t41 34t53.5 12q26 0 40.5 -6.5t27.5 -14.5q21 -14 33.5 -21.5t25.5 -7.5q14 0 23.5 10.5t10.5 36.5h84q10 -37 6.5 -67t-18.5 -51t-39.5 -32.5t-55.5 -11.5z"></glyph><glyph glyph-name="enspace" unicode=" "></glyph><glyph glyph-name="emspace" unicode=" "></glyph><glyph glyph-name="threeperemspace" unicode=" "></glyph><glyph glyph-name="fourperemspace" unicode=" "></glyph><glyph glyph-name="sixperemspace" unicode=" "></glyph><glyph glyph-name="figurespace" unicode=" "></glyph><glyph glyph-name="punctuationspace" unicode=" "></glyph><glyph glyph-name="thinspace" unicode=" "></glyph><glyph glyph-name="hairspace" unicode=" "></glyph><glyph glyph-name="zerowidthspace" unicode="​"></glyph><glyph glyph-name="figuredash" unicode="‒" d="M77 304h433l-17 -98h-433z"></glyph><glyph glyph-name="endash" unicode="–" d="M77 304h380l-17 -98h-380z"></glyph><glyph glyph-name="emdash" unicode="—" d="M77 304h880l-17 -98h-880z"></glyph><glyph glyph-name="uni2015" unicode="―" d="M87 304h1093l-17 -98h-1093z"></glyph><glyph glyph-name="doublebar" unicode="‖" d="M-5 -203l153 871h117l-153 -871h-117zM209 -203l153 871h117l-153 -871h-117z"></glyph><glyph glyph-name="quoteleft" unicode="‘" d="M75 501q0 49 18.5 83.5t49 56.5t70.5 31.5t83 9.5v-59q-25 -1 -48 -6.5t-41 -16t-28.5 -25.5t-10.5 -33q18 3 35 0t30.5 -12t22 -24t8.5 -37q0 -43 -27 -63.5t-64 -20.5q-46 0 -72 32t-26 84z"></glyph><glyph glyph-name="quoteright" unicode="’" d="M276 566q0 -50 -18.5 -84t-49.5 -56t-70.5 -31.5t-82.5 -9.5v59q25 1 48 6.5t41 16t28.5 25.5t10.5 33q-18 -3 -35 0t-30.5 12t-22 24t-8.5 37q0 43 27 63.5t64 20.5q46 0 72 -32t26 -84z"></glyph><glyph glyph-name="quotesinglbase" unicode="‚" d="M186 49q0 -50 -18.5 -84t-49.5 -56t-70.5 -31.5t-82.5 -9.5v59q25 1 48 6.5t41 16t28.5 25.5t10.5 33q-18 -3 -35 0t-30.5 12t-22 24t-8.5 37q0 43 27 63.5t64 20.5q46 0 72 -32t26 -84z"></glyph><glyph glyph-name="reversequoteleft" unicode="‛" d="M56 574q0 52 26 84t72 32q37 0 64 -20.5t27 -63.5q0 -22 -8.5 -37t-22 -24t-30.5 -12t-35 0q0 -18 10.5 -33t28.5 -25.5t41 -16t48 -6.5v-59q-43 0 -83 9.5t-70.5 31.5t-49 56t-18.5 84z"></glyph><glyph glyph-name="quotedblleft" unicode="“" d="M75 501q0 49 18.5 83.5t49 56.5t70.5 31.5t83 9.5v-59q-25 -1 -48 -6.5t-41 -16t-28.5 -25.5t-10.5 -33q18 3 35 0t30.5 -12t22 -24t8.5 -37q0 -43 -27 -63.5t-64 -20.5q-46 0 -72 32t-26 84zM315 501q0 49 18.5 83.5t49 56.5t70.5 31.5t83 9.5v-59q-25 -1 -48 -6.5 t-41 -16t-28.5 -25.5t-10.5 -33q18 3 35 0t30.5 -12t22 -24t8.5 -37q0 -43 -27 -63.5t-64 -20.5q-46 0 -72 32t-26 84z"></glyph><glyph glyph-name="quotedblright" unicode="”" d="M276 566q0 -50 -18.5 -84t-49.5 -56t-70.5 -31.5t-82.5 -9.5v59q25 1 48 6.5t41 16t28.5 25.5t10.5 33q-18 -3 -35 0t-30.5 12t-22 24t-8.5 37q0 43 27 63.5t64 20.5q46 0 72 -32t26 -84zM516 566q0 -50 -18.5 -84t-49.5 -56t-70.5 -31.5t-82.5 -9.5v59q25 1 48 6.5 t41 16t28.5 25.5t10.5 33q-18 -3 -35 0t-30.5 12t-22 24t-8.5 37q0 43 27 63.5t64 20.5q46 0 72 -32t26 -84z"></glyph><glyph glyph-name="quotedblbase" unicode="„" d="M186 47q0 -50 -18.5 -84t-49.5 -56t-70.5 -31.5t-82.5 -9.5v59q25 1 48 6.5t41 16t28.5 25.5t10.5 33q-18 -3 -35 0t-30.5 12t-22 24t-8.5 37q0 43 27 63.5t64 20.5q46 0 72 -32t26 -84zM426 47q0 -50 -18.5 -84t-49.5 -56t-70.5 -31.5t-82.5 -9.5v59q25 1 48 6.5t41 16 t28.5 25.5t10.5 33q-18 -3 -35 0t-30.5 12t-22 24t-8.5 37q0 43 27 63.5t64 20.5q46 0 72 -32t26 -84z"></glyph><glyph glyph-name="reversequotedblleft" unicode="‟" d="M56 574q0 52 26 84t72 32q37 0 64 -20.5t27 -63.5q0 -22 -8.5 -37t-22 -24t-30.5 -12t-35 0q0 -18 10.5 -33t28.5 -25.5t41 -16t48 -6.5v-59q-43 0 -83 9.5t-70.5 31.5t-49 56t-18.5 84zM264 574q0 52 26 84t72 32q37 0 64 -20.5t27 -63.5q0 -22 -8.5 -37t-22 -24 t-30.5 -12t-35 0q0 -18 10.5 -33t28.5 -25.5t41 -16t48 -6.5v-59q-43 0 -83 9.5t-70.5 31.5t-49 56t-18.5 84z"></glyph><glyph glyph-name="dagger" unicode="†" d="M80 232l24 133l173 -10l31 234h146l-51 -234l177 10l-24 -133l-173 11l-59 -393h-145l79 393z"></glyph><glyph glyph-name="daggerdbl" unicode="‡" d="M370 165l177 10l-23 -133l-174 11l-26 -203h-144l47 203l-180 -11l23 133l175 -10l22 128l-178 -11l24 134l174 -11l22 184h145l-42 -184l178 11l-24 -134l-174 11z"></glyph><glyph glyph-name="bullet" unicode="•" d="M55 262q0 26 10.5 49.5t28 41t41 28t49.5 10.5q27 0 50.5 -10.5t41 -28t28 -41t10.5 -49.5q0 -27 -10.5 -50.5t-28 -41t-41 -28t-50.5 -10.5q-26 0 -49.5 10.5t-41 28t-28 41t-10.5 50.5z"></glyph><glyph glyph-name="ellipsis" unicode="…" d="M30 85q0 41 26 67.5t64 26.5q41 0 67.5 -26.5t26.5 -67.5q0 -38 -26.5 -64t-67.5 -26q-38 0 -64 26t-26 64zM324 85q0 41 26 67.5t64 26.5q41 0 67.5 -26.5t26.5 -67.5q0 -38 -26.5 -64t-67.5 -26q-38 0 -64 26t-26 64zM618 85q0 41 26 67.5t64 26.5q41 0 67.5 -26.5 t26.5 -67.5q0 -38 -26.5 -64t-67.5 -26q-38 0 -64 26t-26 64z"></glyph><glyph glyph-name="perthousand" unicode="‰" d="M185 229q-36 0 -61.5 11t-42 31t-24 47t-7.5 59q0 42 12 81.5t35 70.5t56.5 49.5t76.5 18.5q34 0 59.5 -11.5t42.5 -32t25.5 -48t8.5 -60.5q0 -44 -12 -83.5t-35 -69t-57 -46.5t-77 -17zM220 504q-19 0 -31 -13.5t-19.5 -33t-10.5 -41t-3 -37.5q0 -26 10 -43t31 -17 q18 0 30 13.5t19.5 33t11 41t3.5 36.5q0 27 -9 44t-32 17zM616 589h92l-411 -589h-89zM680 -7q-36 0 -61.5 11t-42 31t-24 47t-7.5 59q0 42 12 81.5t35 70.5t56.5 49.5t76.5 18.5q34 0 59.5 -11.5t42.5 -32t25.5 -48t8.5 -60.5q0 -44 -12 -83.5t-35 -69t-57 -46.5t-77 -17z M715 268q-19 0 -31 -13.5t-19.5 -33t-10.5 -41t-3 -37.5q0 -26 10 -43t31 -17q18 0 30 13.5t19.5 33t11 41t3.5 36.5q0 27 -9 44t-32 17zM1040 -7q-36 0 -61.5 11t-42 31t-24 47t-7.5 59q0 42 12 81.5t35 70.5t56.5 49.5t76.5 18.5q34 0 59.5 -11.5t42.5 -32t25.5 -48 t8.5 -60.5q0 -44 -12 -83.5t-35 -69t-57 -46.5t-77 -17zM1075 268q-19 0 -31 -13.5t-19.5 -33t-10.5 -41t-3 -37.5q0 -26 10 -43t31 -17q18 0 30 13.5t19.5 33t11 41t3.5 36.5q0 27 -9 44t-32 17z"></glyph><glyph glyph-name="tripleprime" unicode="‴" d="M125 668h142l-99 -256h-88zM310 668h142l-99 -256h-88zM495 668h142l-99 -256h-88z"></glyph><glyph glyph-name="guilsinglleft" unicode="‹" d="M159 233l12 -9q6 -5 13.5 -13t16.5 -19l76 -98l-87 -69l-165 212l240 212l65 -73l-114 -103q-13 -11 -23 -18t-18 -11q-9 -4 -16 -7v-4z"></glyph><glyph glyph-name="guilsinglright" unicode="›" d="M196 241q-5 3 -12 9q-6 5 -14 13t-16 19l-76 98l87 69l165 -212l-240 -212l-65 73l114 103q13 11 23 18t18 11q9 4 16 7v4z"></glyph><glyph glyph-name="fraction" unicode="⁄" d="M248 589h92l-411 -589h-89z"></glyph><glyph glyph-name="uni2070" unicode="⁰" d="M160 229q-36 0 -61.5 11t-42 31t-24 47t-7.5 59q0 42 12 81.5t35 70.5t56.5 49.5t76.5 18.5q34 0 59.5 -11.5t42.5 -32t25.5 -48t8.5 -60.5q0 -44 -12 -83.5t-35 -69t-57 -46.5t-77 -17zM195 504q-19 0 -31 -13.5t-19.5 -33t-10.5 -41t-3 -37.5q0 -26 10 -43t31 -17 q18 0 30 13.5t19.5 33t11 41t3.5 36.5q0 27 -9 44t-32 17z"></glyph><glyph glyph-name="uni2074" unicode="⁴" d="M178 298h-173l13 72l215 217h104l-37 -212h47l-14 -77h-47l-11 -64h-108zM204 431q5 27 11 49q3 12 6 23h-4q-4 -7 -9 -15q-5 -7 -11.5 -16t-14.5 -17l-35 -37q-10 -11 -20 -19.5t-18 -14.5q-10 -7 -18 -13v-4q7 1 16 3q8 1 18 2t23 1h46z"></glyph><glyph glyph-name="uni2075" unicode="⁵" d="M86 589h238l-15 -88h-156l-17 -64q12 14 28.5 21t42.5 7q45 0 71 -26.5t26 -73.5q0 -37 -13 -63t-35.5 -42t-51.5 -23.5t-61 -7.5q-63 0 -97.5 22.5t-40.5 64.5l100 34q0 -42 46 -42q21 0 35.5 12t14.5 38q0 41 -35 41q-20 0 -35 -15h-89z"></glyph><glyph glyph-name="uni2076" unicode="⁶" d="M259 479q-5 15 -15.5 23.5t-30.5 8.5q-28 0 -50.5 -24t-30.5 -78h4q13 24 33.5 36.5t52.5 12.5q47 0 70 -28t23 -69q0 -65 -43 -98.5t-111 -33.5t-102 38t-34 99q0 62 18 106t46.5 71.5t63.5 40.5t70 13q42 0 70.5 -11.5t47.5 -43.5zM136 343q0 -13 8 -23.5t27 -10.5 q22 0 36 13t14 34q0 14 -8.5 24.5t-26.5 10.5q-19 0 -34.5 -12.5t-15.5 -35.5z"></glyph><glyph glyph-name="uni2077" unicode="⁷" d="M119 500l-10 -55h-89l25 143h298l-14 -81l-178 -272h-124l178 265h-86z"></glyph><glyph glyph-name="uni2078" unicode="⁸" d="M163 229q-77 0 -110 27.5t-33 68.5q0 43 28.5 65.5t72.5 26.5v3q-34 8 -49 29.5t-15 46.5q0 51 42 76t109 25q68 0 101 -26t33 -67q0 -38 -23.5 -59t-58.5 -26v-3q64 -17 64 -80q0 -25 -12.5 -45t-34.5 -33.5t-51 -21t-63 -7.5zM201 525q-20 0 -32.5 -10t-12.5 -27 q0 -13 8.5 -21.5t25.5 -8.5q19 0 33 9t14 30q0 10 -8 19t-28 9zM181 382q-24 0 -39.5 -11t-15.5 -32q0 -35 42 -35q23 0 38.5 11.5t15.5 33.5q0 16 -11.5 24.5t-29.5 8.5z"></glyph><glyph glyph-name="uni2079" unicode="⁹" d="M72 347q5 -15 21 -23.5t36 -8.5q28 0 51.5 22.5t29.5 79.5h-4q-13 -24 -32 -36.5t-51 -12.5q-47 0 -71.5 28t-24.5 69q0 65 43 98.5t111 33.5t102 -38t34 -99q0 -62 -15.5 -106t-42 -71.5t-61 -40.5t-71.5 -13q-42 0 -80 11.5t-57 43.5zM206 485q0 13 -8 23.5t-27 10.5 q-22 0 -36 -13t-14 -34q0 -14 8.5 -24.5t26.5 -10.5q19 0 34.5 12.5t15.5 35.5z"></glyph><glyph glyph-name="uni207A" unicode="⁺" d="M192 454l23 135h72l-23 -135h142l-13 -72h-142l-26 -146h-72l26 146h-139l13 72h139z"></glyph><glyph glyph-name="uni207B" unicode="⁻" d="M40 382l13 72h353l-13 -72h-353z"></glyph><glyph glyph-name="uni207C" unicode="⁼" d="M40 320l12 71h353l-12 -71h-353zM64 456l12 71h353l-12 -71h-353z"></glyph><glyph glyph-name="uni207D" unicode="⁽" d="M244 636q-53 -61 -89 -132t-36 -156q0 -51 13 -91t32 -75h-81q-14 28 -28.5 67t-14.5 99q0 78 32 152.5t89 135.5h83z"></glyph><glyph glyph-name="uni207E" unicode="⁾" d="M0 182q26 30 49 63t40 68.5t26.5 74.5t9.5 82q0 51 -13 91t-32 75h81q14 -28 28.5 -67t14.5 -99q0 -78 -32 -152.5t-89 -135.5h-83z"></glyph><glyph glyph-name="n.superior" unicode="ⁿ" d="M369 391q-2 -11 1 -19t20 -8q9 0 23 3l-18 -75q-30 -8 -59 -8q-101 0 -84 89l18 96q4 21 -2.5 35.5t-32.5 14.5q-20 0 -35.5 -16.5t-23.5 -53.5l-32 -162h-114l61 306h99l2 -62q16 34 41 52t69 18q42 0 65.5 -22t23.5 -57q0 -8 -0.5 -14t-1.5 -11z"></glyph><glyph glyph-name="uni2080" unicode="₀" d="M160 -7q-36 0 -61.5 11t-42 31t-24 47t-7.5 59q0 42 12 81.5t35 70.5t56.5 49.5t76.5 18.5q34 0 59.5 -11.5t42.5 -32t25.5 -48t8.5 -60.5q0 -44 -12 -83.5t-35 -69t-57 -46.5t-77 -17zM195 268q-19 0 -31 -13.5t-19.5 -33t-10.5 -41t-3 -37.5q0 -26 10 -43t31 -17 q18 0 30 13.5t19.5 33t11 41t3.5 36.5q0 27 -9 44t-32 17z"></glyph><glyph glyph-name="uni2081" unicode="₁" d="M5 0l14 79h91l31 177l-101 -7l15 84l209 20l-48 -274h84l-14 -79h-281z"></glyph><glyph glyph-name="uni2082" unicode="₂" d="M278 0h-283l12 68q49 28 85.5 51t61 42.5t37 37.5t12.5 36q0 37 -40 37q-17 0 -31.5 -13t-20.5 -46l-88 30q3 24 14 45t29.5 37.5t46 26t64.5 9.5q60 0 97 -28t37 -82q0 -38 -18.5 -65.5t-46.5 -46.5t-59.5 -31.5t-57.5 -19.5v-4h164z"></glyph><glyph glyph-name="uni2083" unicode="₃" d="M201 177q46 -6 65.5 -27t19.5 -54q0 -52 -43.5 -77.5t-110.5 -25.5q-57 0 -92.5 23t-40.5 68l92 31q2 -20 10 -32.5t31 -12.5q18 0 29.5 8t11.5 22q0 7 -2 15t-10 14t-23 10t-41 4l11 60q27 1 43 5t25 10.5t12 13.5t3 14q0 16 -9 23t-20 7q-35 0 -44 -37l-80 33 q14 45 50 67t90 22q55 0 89 -22.5t34 -70.5q0 -38 -25.5 -60t-73.5 -29z"></glyph><glyph glyph-name="uni2084" unicode="₄" d="M178 64h-173l13 72l215 217h104l-37 -212h47l-14 -77h-47l-11 -64h-108zM204 197q5 27 11 49q3 12 6 23h-4q-4 -7 -9 -15q-5 -7 -11.5 -16t-14.5 -17l-35 -37q-10 -11 -20 -19.5t-18 -14.5q-10 -7 -18 -13v-4q7 1 16 3q8 1 18 2t23 1h46z"></glyph><glyph glyph-name="uni2085" unicode="₅" d="M86 353h238l-15 -88h-156l-17 -64q12 14 28.5 21t42.5 7q45 0 71 -26.5t26 -73.5q0 -37 -13 -63t-35.5 -42t-51.5 -23.5t-61 -7.5q-63 0 -97.5 22.5t-40.5 64.5l100 34q0 -42 46 -42q21 0 35.5 12t14.5 38q0 41 -35 41q-20 0 -35 -15h-89z"></glyph><glyph glyph-name="uni2086" unicode="₆" d="M259 243q-5 15 -15.5 23.5t-30.5 8.5q-28 0 -50.5 -24t-30.5 -78h4q13 24 33.5 36.5t52.5 12.5q47 0 70 -28t23 -69q0 -65 -43 -98.5t-111 -33.5t-102 38t-34 99q0 62 18 106t46.5 71.5t63.5 40.5t70 13q42 0 70.5 -11.5t47.5 -43.5zM136 107q0 -13 8 -23.5t27 -10.5 q22 0 36 13t14 34q0 14 -8.5 24.5t-26.5 10.5q-19 0 -34.5 -12.5t-15.5 -35.5z"></glyph><glyph glyph-name="uni2087" unicode="₇" d="M124 265l-10 -55h-89l25 143h298l-14 -81l-178 -272h-124l178 265h-86z"></glyph><glyph glyph-name="uni2088" unicode="₈" d="M163 -7q-77 0 -110 27.5t-33 68.5q0 43 28.5 65.5t72.5 26.5v3q-34 8 -49 29.5t-15 46.5q0 51 42 76t109 25q68 0 101 -26t33 -67q0 -38 -23.5 -59t-58.5 -26v-3q64 -17 64 -80q0 -25 -12.5 -45t-34.5 -33.5t-51 -21t-63 -7.5zM201 289q-20 0 -32.5 -10t-12.5 -27 q0 -13 8.5 -21.5t25.5 -8.5q19 0 33 9t14 30q0 10 -8 19t-28 9zM181 146q-24 0 -39.5 -11t-15.5 -32q0 -35 42 -35q23 0 38.5 11.5t15.5 33.5q0 16 -11.5 24.5t-29.5 8.5z"></glyph><glyph glyph-name="uni2089" unicode="₉" d="M72 111q5 -15 21 -23.5t36 -8.5q28 0 51.5 22.5t29.5 79.5h-4q-13 -24 -32 -36.5t-51 -12.5q-47 0 -71.5 28t-24.5 69q0 65 43 98.5t111 33.5t102 -38t34 -99q0 -62 -15.5 -106t-42 -71.5t-61 -40.5t-71.5 -13q-42 0 -80 11.5t-57 43.5zM206 249q0 13 -8 23.5t-27 10.5 q-22 0 -36 -13t-14 -34q0 -14 8.5 -24.5t26.5 -10.5q19 0 34.5 12.5t15.5 35.5z"></glyph><glyph glyph-name="uni208A" unicode="₊" d="M192 218l23 135h72l-23 -135h142l-13 -72h-142l-26 -146h-72l26 146h-139l13 72h139z"></glyph><glyph glyph-name="uni208B" unicode="₋" d="M40 146l13 72h353l-13 -72h-353z"></glyph><glyph glyph-name="uni208C" unicode="₌" d="M40 84l12 71h353l-12 -71h-353zM64 220l12 71h353l-12 -71h-353z"></glyph><glyph glyph-name="uni208D" unicode="₍" d="M244 400q-53 -61 -89 -132t-36 -156q0 -51 13 -91t32 -75h-81q-14 28 -28.5 67t-14.5 99q0 78 32 152.5t89 135.5h83z"></glyph><glyph glyph-name="uni208E" unicode="₎" d="M0 -54q26 30 49 63t40 68.5t26.5 74.5t9.5 82q0 51 -13 91t-32 75h81q14 -28 28.5 -67t14.5 -99q0 -78 -32 -152.5t-89 -135.5h-83z"></glyph><glyph glyph-name="uni20A1" unicode="₡" d="M220 -10q-19 2 -35 6l-29 -81l-47 18l29 80q-45 23 -71.5 68t-26.5 114q0 58 17 112t51 95t86 65.5t121 24.5l29 79l47 -18l-24 -65q9 -2 17.5 -4t16.5 -4l24 64l47 -17l-26 -68q29 -20 45 -49t23 -64l-124 -40l-70 -190q18 8 32 23t26 44l103 -70q-34 -60 -83.5 -90.5 t-125.5 -33.5l-36 -100l-47 17zM230 117q8 -3 16.5 -5.5t17.5 -2.5l90 243q-11 14 -30 20zM179 202q0 -26 11 -48l80 218q-40 -13 -65.5 -58.5t-25.5 -111.5z"></glyph><glyph glyph-name="uni20A2" unicode="₢" d="M436 174q-17 9 -35 11.5t-34.5 -2.5t-29 -19t-16.5 -38l-6 -32q28 8 44.5 26t29.5 45l96 -60q-35 -63 -90.5 -90t-140.5 -27q-47 0 -86 13t-67.5 38.5t-44.5 64.5t-16 91q0 58 17 112t51 95t85.5 65.5t120.5 24.5q48 0 82 -10.5t57 -29t36 -44t19 -56.5l-113 -47 q-2 31 -21 54.5t-62 23.5q-30 0 -54 -13.5t-40.5 -38t-25 -58t-8.5 -73.5q0 -30 8.5 -53.5t25.5 -37.5l31 176h87l-2 -84q8 24 21.5 42.5t30 30.5t35 16.5t38.5 -0.5z"></glyph><glyph glyph-name="franc" unicode="₣" d="M241 140l-24 -140h-150l24 140h-71l10 53h70l8 47h-70l9 53h71l33 188h361l-21 -120h-211l-12 -68h123l-9 -53h-123l-9 -47h124l-10 -53h-123z"></glyph><glyph glyph-name="lira" unicode="₤" d="M254 164q-17 -33 -47 -44h120q21 0 42.5 7.5t39.5 39.5l90 -60q-17 -53 -62.5 -80t-102.5 -27h-319l21 120h41q24 0 38.5 13t19.5 31h-95l10 53h87q-1 8 -2 14.5t-3 12.5h-74l9 53h50q-3 16 -3 41q0 38 16.5 67t44 48.5t64.5 29t79 9.5q35 0 67 -6.5t56.5 -22.5t39 -42.5 t14.5 -66.5l-136 -23q0 26 -14.5 37t-41.5 11q-26 0 -42 -15t-16 -38q0 -18 4 -29h152l-9 -53h-128q1 -6 1.5 -12.5t0.5 -14.5h118l-10 -53h-120z"></glyph><glyph glyph-name="uni20A6" unicode="₦" d="M603 260l-10 -57h87l-9 -53h-87l-26 -150h-134l-112 195q-11 19 -17.5 35.5t-11.5 30.5q-5 15 -8 29h-4q-1 -17 -3 -38q-2 -18 -5.5 -44.5t-8.5 -58.5l-26 -149h-149l26 150h-85l9 53h85l10 57h-84l10 53h83l30 168h159l96 -179q17 -34 25 -58q4 -13 7 -24h4q1 16 3 36 q2 17 5 40.5t8 52.5l23 132h149l-30 -168h87l-10 -53h-86z"></glyph><glyph glyph-name="peseta" unicode="₧" d="M848 161q5 -38 29.5 -56.5t52.5 -18.5q23 0 37.5 8.5t14.5 28.5q0 21 -14.5 32.5t-53.5 21.5q-58 14 -86.5 37.5t-38.5 56.5h-86l-47 -271h-151l47 271h-57q-8 -44 -29 -74t-51.5 -49t-68 -27.5t-79.5 -8.5h-68l-19 -112h-150l84 481h197q74 0 117.5 -22.5t60.5 -67.5 h304q11 28 31.5 47.5t46.5 31.5t56 17t60 5q97 0 141 -36.5t44 -99.5l-127 -32q0 30 -19.5 46.5t-47.5 16.5q-25 0 -39.5 -10t-14.5 -30q0 -8 2.5 -14.5t11 -12t23.5 -11.5t41 -13q40 -11 65.5 -26t40.5 -33.5t20.5 -41.5t5.5 -50q0 -42 -15.5 -71.5t-43.5 -48.5t-67 -28 t-85 -9q-97 0 -143 33.5t-51 99.5zM220 230h54q35 0 58 18.5t23 59.5q0 29 -14.5 42t-46.5 13h-50z"></glyph><glyph glyph-name="uni20A8" unicode="₨" d="M224 250h67q31 0 51.5 14.5t20.5 52.5q0 23 -11.5 34.5t-40.5 11.5h-68zM630 -12q-81 0 -140 15.5t-104 50.5l-58 44q-10 7 -19 14.5t-19.5 13t-25.5 9t-37 3.5h-23l-24 -138h-150l84 481h222q92 0 133 -37.5t41 -100.5q0 -37 -11.5 -64t-31 -45t-46 -27.5t-56.5 -12.5 v-4q38 -2 64 -11t48 -24l56 -39q33 -23 59 -36.5t51 -13.5q15 0 25.5 6t10.5 19q0 14 -7.5 23.5t-36.5 19.5t-48.5 22.5t-30.5 27.5t-15.5 33t-4.5 39q0 35 14 58.5t36 38t50 20.5t55 6q74 0 108 -27t34 -75l-97 -27q0 23 -14 35t-35 12q-17 0 -28 -7.5t-11 -21.5 q0 -12 11 -20t50 -21q47 -16 69.5 -41t22.5 -68q0 -36 -12 -61t-34.5 -40t-54 -22t-70.5 -7z"></glyph><glyph glyph-name="uni20A9" unicode="₩" d="M760 268l-23 -57h115l-10 -53h-127l-64 -158h-184l-19 194q-3 29 -3.5 55t0.5 46q1 24 3 44h-4q-5 -23 -11 -48q-5 -21 -13.5 -47t-18.5 -51l-79 -193h-184l-9 158h-114l10 53h101l-4 57h-86l9 53h74l-9 160h149l8 -230q1 -26 0.5 -51t-1.5 -45q-1 -24 -3 -46h3 q4 22 10 46q5 20 12.5 45t17.5 50l89 231h156l15 -228q2 -26 1.5 -51t-2.5 -45q-2 -24 -4 -46h3q4 22 10 46q5 20 12.5 45t17.5 50l90 229h153l-66 -160h89l-9 -53h-101z"></glyph><glyph glyph-name="uni20AA" unicode="₪" d="M442 160l28 159q5 26 -5.5 40t-43.5 14h-177l-65 -373h-149l84 481h345q44 0 73 -11t45 -31t20 -48t-2 -62l-30 -169h-123zM825 481l-58 -329q-6 -34 -19.5 -62t-36 -48t-55 -31t-77.5 -11h-341l56 320h122l-37 -212h178q25 0 41.5 14t21.5 37l56 322h149z"></glyph><glyph glyph-name="Euro" unicode="€" d="M235 260q-5 -23 -5 -43h123l-20 -53h-97q8 -27 27.5 -42t52.5 -15q19 0 33 6.5t24 17t17.5 24.5t14.5 29l122 -71q-35 -62 -89 -93.5t-138 -31.5q-88 0 -144 43.5t-65 132.5h-71l10 53h60q1 11 2 21.5t3 21.5h-58l10 53h61q13 38 34.5 71t53 57t72.5 37.5t92 13.5 t86 -11.5t58.5 -31t36.5 -46t19 -57.5l-133 -47q-2 28 -22 49t-56 21q-31 0 -55 -15t-39 -41h132l-20 -53h-132z"></glyph><glyph glyph-name="uni20AE" unicode="₮" d="M313 233l-8 -47l99 17l-9 -53l-99 -17l-23 -133h-151l19 107l-106 -17l10 53l105 17l8 47l-105 -17l9 53l105 17l18 101h-147l21 120h448l-21 -120h-150l-13 -75l99 17l-9 -53z"></glyph><glyph glyph-name="uni20B1" unicode="₱" d="M55 0l47 270h-72l9 53h72l28 158h197q97 0 143 -40.5t46 -117.5h68l-9 -53h-64q-8 -44 -29 -74t-51.5 -48.5t-68 -27t-79.5 -8.5h-68l-19 -112h-150zM298 220q26 0 46 13t29 37h-121l-8 -50h54zM261 323h118q-4 23 -18 35.5t-41 12.5h-50z"></glyph><glyph glyph-name="afii61289" unicode="ℓ" d="M9 176l84 58v231q0 57 11 96t31.5 63t50.5 34.5t69 10.5q68 0 104 -31t36 -97q0 -59 -12.5 -105.5t-34.5 -85.5t-51.5 -71t-63.5 -60v-27q0 -46 15 -61.5t44 -15.5q23 0 38.5 5.5t26.5 10.5l-9 -125q-24 -8 -49 -13t-60 -5q-27 0 -53.5 6.5t-47 21t-33 39t-12.5 60.5v39 l-54 -35zM233 303q20 20 36 41t27.5 48t17.5 62t6 83q0 28 -12 40.5t-32 12.5q-23 0 -33 -23t-10 -74v-190z"></glyph><glyph glyph-name="afii61352" unicode="№" d="M749 105h329l-18 -105h-329zM955 476q71 0 112.5 -35t41.5 -101q0 -37 -11.5 -70.5t-35 -59t-58.5 -41t-82 -15.5q-33 0 -61.5 8t-49.5 24.5t-33 40.5t-12 57q0 38 11.5 72.5t35 61t59 42.5t83.5 16zM946 390q-29 0 -45.5 -29t-16.5 -74q0 -26 11 -38.5t30 -12.5 q30 0 46 28.5t16 74.5q0 26 -11 38.5t-30 12.5zM614 0h-134l-134 255q-11 19 -18 36t-12 31q-5 16 -9 29h-4q-1 -16 -3 -36q-2 -17 -5.5 -43t-8.5 -58l-15 -85q-7 -39 -19 -65.5t-31 -43.5t-46.5 -24.5t-65.5 -7.5q-31 0 -54 5t-45 17l30 118q14 -10 24 -13t21 -3 q18 0 27 9.5t13 30.5l76 437h139l131 -262q8 -17 14.5 -32.5t11.5 -27.5q5 -14 8 -27h4q1 16 4 36q2 17 5 40t8 52l16 92q13 77 53.5 109t108.5 32q31 0 54 -5t45 -17l-31 -127q-14 10 -24 13t-21 3q-18 0 -26.5 -9.5t-12.5 -30.5z"></glyph><glyph glyph-name="published" unicode="℗" d="M341 290h33q27 0 44.5 14.5t17.5 46.5q0 23 -11 33t-35 10h-31zM192 111l66 375h145q76 0 111.5 -31.5t35.5 -93.5q0 -45 -14.5 -76t-39.5 -50.5t-58 -28t-70 -8.5h-44l-14 -87h-118zM55 294q0 67 24 123t65.5 97t97.5 64t119 23t119 -23t98 -64t66 -97t24 -123t-24 -123 t-66 -96.5t-98 -63.5t-119 -23t-119 23t-97.5 63.5t-65.5 96.5t-24 123zM86 294q0 -61 22 -112t59.5 -87.5t88 -57t107.5 -20.5t107 20.5t87.5 57t59 87.5t21.5 112t-21.5 112t-59 88t-87.5 57.5t-107 20.5t-107.5 -20.5t-88 -57.5t-59.5 -88t-22 -112z"></glyph><glyph glyph-name="servicemark" unicode="℠" d="M119 425q3 -19 15.5 -28.5t29.5 -9.5q14 0 22.5 4t8.5 15q0 9 -8 14t-33 11q-48 11 -65 31t-17 50q0 24 11 40t28 26t39 14t43 4q57 0 83.5 -19t26.5 -51l-75 -17q0 16 -12 25t-29 9q-28 0 -28 -19q0 -9 8.5 -15t39.5 -14q45 -12 61.5 -30.5t16.5 -47.5 q0 -43 -35.5 -61.5t-89.5 -18.5q-57 0 -84.5 17t-30.5 51zM528 341l26 129h-4l-52 -67h-45l-22 67h-5l-26 -129h-81l50 248h83l39 -97h1l78 97h89l-50 -248h-81z"></glyph><glyph glyph-name="trademark" unicode="™" d="M100 341l37 183h-67l13 65h215l-13 -65h-67l-37 -183h-81zM510 341l26 129h-4l-52 -67h-45l-22 67h-5l-26 -129h-81l50 248h83l39 -97h1l78 97h89l-50 -248h-81z"></glyph><glyph glyph-name="ohm" unicode="Ω" d="M381 467q-39 0 -69.5 -16.5t-50.5 -44.5t-30.5 -65.5t-10.5 -79.5q0 -51 16 -82t39 -44l-23 -135h-247l23 135h127q-16 7 -31.5 20.5t-28 33.5t-20 45.5t-7.5 57.5q0 68 26.5 124.5t72 97.5t106.5 64t131 23q112 0 176 -56.5t66 -153.5q0 -40 -9 -78.5t-28 -72t-47.5 -61 t-68.5 -44.5h124l-23 -135h-248l23 135q29 13 51 37t36.5 54t22 63t7.5 66q-1 51 -26 81.5t-79 30.5z"></glyph><glyph glyph-name="estimated" unicode="℮" d="M323 601q73 0 126 -26t87 -69t50 -98.5t16 -113.5v-26h-431v-169q28 -28 65.5 -43t86.5 -15q67 0 112.5 27t71.5 77h66q-29 -69 -90 -113t-160 -44q-73 0 -125.5 26t-86.5 69t-50 98t-16 113t16 113.5t50 98.5t86.5 69t125.5 26zM323 548q-96 0 -152 -58v-170h305v170 q-56 58 -153 58z"></glyph><glyph glyph-name="uni2153" unicode="⅓" d="M608 589h92l-411 -589h-89zM12 236l14 79h91l31 177l-101 -7l15 84l209 20l-48 -274h84l-14 -79h-281zM741 177q46 -6 65.5 -27t19.5 -54q0 -52 -43.5 -77.5t-110.5 -25.5q-57 0 -92.5 23t-40.5 68l92 31q2 -20 10 -32.5t31 -12.5q18 0 29.5 8t11.5 22q0 7 -2 15t-10 14 t-23 10t-41 4l11 60q27 1 43 5t25 10.5t12 13.5t3 14q0 16 -9 23t-20 7q-35 0 -44 -37l-80 33q14 45 50 67t90 22q55 0 89 -22.5t34 -70.5q0 -38 -25.5 -60t-73.5 -29z"></glyph><glyph glyph-name="uni2154" unicode="⅔" d="M608 589h92l-411 -589h-89zM290 236h-283l12 68q49 28 85.5 51t61 42.5t37 37.5t12.5 36q0 37 -40 37q-17 0 -31.5 -13t-20.5 -46l-88 30q3 24 14 45t29.5 37.5t46 26t64.5 9.5q60 0 97 -28t37 -82q0 -38 -18.5 -65.5t-46.5 -46.5t-59.5 -31.5t-57.5 -19.5v-4h164z M741 177q46 -6 65.5 -27t19.5 -54q0 -52 -43.5 -77.5t-110.5 -25.5q-57 0 -92.5 23t-40.5 68l92 31q2 -20 10 -32.5t31 -12.5q18 0 29.5 8t11.5 22q0 7 -2 15t-10 14t-23 10t-41 4l11 60q27 1 43 5t25 10.5t12 13.5t3 14q0 16 -9 23t-20 7q-35 0 -44 -37l-80 33q14 45 50 67 t90 22q55 0 89 -22.5t34 -70.5q0 -38 -25.5 -60t-73.5 -29z"></glyph><glyph glyph-name="uni215B" unicode="⅛" d="M704 -7q-77 0 -110 27.5t-33 68.5q0 43 28.5 65.5t72.5 26.5v3q-34 8 -49 29.5t-15 46.5q0 51 42 76t109 25q68 0 101 -26t33 -67q0 -38 -23.5 -59t-58.5 -26v-3q64 -17 64 -80q0 -25 -12.5 -45t-34.5 -33.5t-51 -21t-63 -7.5zM742 289q-20 0 -32.5 -10t-12.5 -27 q0 -13 8.5 -21.5t25.5 -8.5q19 0 33 9t14 30q0 10 -8 19t-28 9zM722 146q-24 0 -39.5 -11t-15.5 -32q0 -35 42 -35q23 0 38.5 11.5t15.5 33.5q0 16 -11.5 24.5t-29.5 8.5zM608 589h92l-411 -589h-89zM12 236l14 79h91l31 177l-101 -7l15 84l209 20l-48 -274h84l-14 -79h-281 z"></glyph><glyph glyph-name="uni215C" unicode="⅜" d="M608 589h92l-411 -589h-89zM703 -7q-77 0 -110 27.5t-33 68.5q0 43 28.5 65.5t72.5 26.5v3q-34 8 -49 29.5t-15 46.5q0 51 42 76t109 25q68 0 101 -26t33 -67q0 -38 -23.5 -59t-58.5 -26v-3q64 -17 64 -80q0 -25 -12.5 -45t-34.5 -33.5t-51 -21t-63 -7.5zM741 289 q-20 0 -32.5 -10t-12.5 -27q0 -13 8.5 -21.5t25.5 -8.5q19 0 33 9t14 30q0 10 -8 19t-28 9zM721 146q-24 0 -39.5 -11t-15.5 -32q0 -35 42 -35q23 0 38.5 11.5t15.5 33.5q0 16 -11.5 24.5t-29.5 8.5zM221 413q46 -6 65.5 -27t19.5 -54q0 -52 -43.5 -77.5t-110.5 -25.5 q-57 0 -92.5 23t-40.5 68l92 31q2 -20 10 -32.5t31 -12.5q18 0 29.5 8t11.5 22q0 7 -2 15t-10 14t-23 10t-41 4l11 60q27 1 43 5t25 10.5t12 13.5t3 14q0 16 -9 23t-20 7q-35 0 -44 -37l-80 33q14 45 50 67t90 22q55 0 89 -22.5t34 -70.5q0 -38 -25.5 -60t-73.5 -29z"></glyph><glyph glyph-name="uni215D" unicode="⅝" d="M608 589h92l-411 -589h-89zM96 589h238l-15 -88h-156l-17 -64q12 14 28.5 21t42.5 7q45 0 71 -26.5t26 -73.5q0 -37 -13 -63t-35.5 -42t-51.5 -23.5t-61 -7.5q-63 0 -97.5 22.5t-40.5 64.5l100 34q0 -42 46 -42q21 0 35.5 12t14.5 38q0 41 -35 41q-20 0 -35 -15h-89z M703 -7q-77 0 -110 27.5t-33 68.5q0 43 28.5 65.5t72.5 26.5v3q-34 8 -49 29.5t-15 46.5q0 51 42 76t109 25q68 0 101 -26t33 -67q0 -38 -23.5 -59t-58.5 -26v-3q64 -17 64 -80q0 -25 -12.5 -45t-34.5 -33.5t-51 -21t-63 -7.5zM741 289q-20 0 -32.5 -10t-12.5 -27 q0 -13 8.5 -21.5t25.5 -8.5q19 0 33 9t14 30q0 10 -8 19t-28 9zM721 146q-24 0 -39.5 -11t-15.5 -32q0 -35 42 -35q23 0 38.5 11.5t15.5 33.5q0 16 -11.5 24.5t-29.5 8.5z"></glyph><glyph glyph-name="uni215E" unicode="⅞" d="M558 589h92l-411 -589h-89zM135 501l-10 -55h-89l25 143h298l-14 -81l-178 -272h-124l178 265h-86zM653 -7q-77 0 -110 27.5t-33 68.5q0 43 28.5 65.5t72.5 26.5v3q-34 8 -49 29.5t-15 46.5q0 51 42 76t109 25q68 0 101 -26t33 -67q0 -38 -23.5 -59t-58.5 -26v-3 q64 -17 64 -80q0 -25 -12.5 -45t-34.5 -33.5t-51 -21t-63 -7.5zM691 289q-20 0 -32.5 -10t-12.5 -27q0 -13 8.5 -21.5t25.5 -8.5q19 0 33 9t14 30q0 10 -8 19t-28 9zM671 146q-24 0 -39.5 -11t-15.5 -32q0 -35 42 -35q23 0 38.5 11.5t15.5 33.5q0 16 -11.5 24.5t-29.5 8.5z "></glyph><glyph glyph-name="arrowleft" unicode="←" d="M672 358v-126h-420l155 -155l-88 -89l-292 307l290 306l89 -90l-154 -153h420z"></glyph><glyph glyph-name="arrowup" unicode="↑" d="M406 0h-126v376l-155 -155l-89 89l307 291l306 -290l-90 -89l-153 154v-376z"></glyph><glyph glyph-name="arrowright" unicode="→" d="M447 358l-154 153l89 90l290 -306l-291 -307l-89 89l155 155h-420v126h420z"></glyph><glyph glyph-name="arrowdown" unicode="↓" d="M279 589h126v-376l155 155l89 -88l-307 -292l-306 290l90 89l153 -154v376z"></glyph><glyph glyph-name="uni2196" unicode="↖" d="M195 382v-285h-123v492h479v-118h-267l382 -382l-89 -89z"></glyph><glyph glyph-name="uni2197" unicode="↗" d="M107 0l-89 89l382 382h-267v118h479v-492h-123v285z"></glyph><glyph glyph-name="uni2198" unicode="↘" d="M489 208v284h123v-492h-479v119h267l-382 381l89 89z"></glyph><glyph glyph-name="uni2199" unicode="↙" d="M577 589l89 -89l-382 -381h267v-119h-479v492h123v-284z"></glyph><glyph glyph-name="partialdiff" unicode="∂" d="M230 677q131 -35 203 -128.5t72 -256.5q0 -63 -16 -118t-48.5 -96.5t-81 -65.5t-114.5 -24q-46 0 -85 12t-68 36t-45.5 60t-16.5 84q0 56 15.5 107t46.5 90t76.5 62t105.5 23q23 0 35 -3.5t24 -11.5h4q-34 59 -93 97.5t-158 63.5zM283 347q-22 0 -39 -12.5t-29 -35 t-18.5 -53t-6.5 -65.5q0 -42 16.5 -62t45.5 -20q45 0 69.5 46.5t24.5 119.5q0 41 -16.5 61.5t-46.5 20.5z"></glyph><glyph glyph-name="Delta" unicode="∆" d="M385 280q-7 37 -10.5 70t-5.5 59q-3 30 -3 55h-4q-9 -26 -20 -56q-10 -26 -24 -58.5t-32 -68.5l-81 -156h207zM-20 0l316 589h183l112 -589h-611z"></glyph><glyph glyph-name="product" unicode="∏" d="M-15 -203l139 792h508l-139 -792h-149l116 657h-210l-116 -657h-149z"></glyph><glyph glyph-name="summation" unicode="∑" d="M331 459h-28t-19 1q-9 1 -14 2v-4q6 -7 13 -16q13 -17 25 -46l36 -101l-75 -102q-14 -19 -24.5 -30.5t-17.5 -18.5q-9 -8 -14 -12v-4q6 0 15 1q8 0 20 0.5t31 0.5h137l-22 -130h-424l216 296l-113 293h424l-23 -130h-143z"></glyph><glyph glyph-name="minus" unicode="−" d="M40 207l14 82h408l-14 -82h-408z"></glyph><glyph glyph-name="radical" unicode="√" d="M548 674l125 -20l-314 -654h-136l-86 307l-100 -42l-32 106l233 98l52 -241q5 -21 7.5 -40.5t4.5 -33.5q2 -18 3 -32h4q2 10 7 25q5 13 12 33t20 48z"></glyph><glyph glyph-name="infinity" unicode="∞" d="M252 330q-21 0 -38 -9t-29 -24t-18.5 -35t-6.5 -42q0 -37 20 -53.5t47 -16.5q20 0 43 9t49 32l57 49l-43 49q-20 23 -40.5 32t-40.5 9zM379 126q-24 -20 -44 -35t-40.5 -25.5t-43.5 -16t-52 -5.5q-30 0 -57.5 10t-49 30t-34.5 50.5t-13 71.5q0 42 14 83t41 73.5t66 52 t89 19.5q29 0 50.5 -5t39 -15t33 -25t33.5 -35l38 -42l51 42q24 19 44 34t40.5 25.5t43.5 15.5t52 5q30 0 57.5 -9.5t48.5 -30t34 -51t13 -72.5t-14 -83t-41 -73t-66 -51.5t-88 -19.5q-29 0 -50.5 5.5t-39 16t-33 25.5t-33.5 35l-38 42zM628 150q20 0 37 8.5t29 23.5 t18.5 34.5t6.5 41.5q0 38 -19 55t-47 17q-20 0 -43.5 -9t-49.5 -32l-57 -49l43 -49q20 -23 41 -32t41 -9z"></glyph><glyph glyph-name="integral" unicode="∫" d="M171 -70q-7 -39 -19 -65.5t-31 -43.5t-46.5 -24.5t-65.5 -7.5q-31 0 -54 5t-45 17l27 105q14 -10 24 -13t21 -3q18 0 27 9.5t13 30.5l103 594q7 39 19 65.5t31 43.5t46.5 24.5t65.5 7.5q31 0 54 -5t45 -17l-27 -105q-14 10 -24 13t-21 3q-18 0 -27 -9.5t-13 -30.5z"></glyph><glyph glyph-name="approxequal" unicode="≈" d="M376 242q-21 0 -48.5 6t-55 13.5t-53 14t-43.5 6.5q-33 0 -60 -10t-53 -29l14 79q34 25 61 34t59 9q23 0 47.5 -6t49 -12.5t48 -12.5t43.5 -6q30 0 53.5 6.5t53.5 27.5l-14 -83q-23 -21 -47.5 -29t-54.5 -8zM352 107q-21 0 -48.5 6t-55 13.5t-53 14t-43.5 6.5 q-33 0 -59.5 -10t-52.5 -29l13 79q34 25 61 34t59 9q23 0 47.5 -6t49.5 -12.5t48.5 -12.5t43.5 -6q30 0 53.5 6.5t53.5 27.5l-15 -83q-23 -21 -47.5 -29t-54.5 -8z"></glyph><glyph glyph-name="notequal" unicode="≠" d="M351 282l-62 -72h174l-15 -82h-232l-103 -118l-57 47l61 71h-77l15 82h134l62 72h-184l15 82h242l95 109l59 -46l-55 -63h67l-15 -82h-124z"></glyph><glyph glyph-name="lessequal" unicode="≤" d="M243 296l130 -98l-70 -74l-228 176l296 172l45 -83zM20 19l14 82h352l-14 -82h-352z"></glyph><glyph glyph-name="greaterequal" unicode="≥" d="M20 19l14 82h352l-14 -82h-352zM248 300l-130 98l70 74l228 -176l-296 -172l-45 83z"></glyph><glyph glyph-name="blacksquare" unicode="■" d="M75 589h589v-589h-589v589z"></glyph><glyph glyph-name="whitesquare" unicode="□" d="M75 589h589v-589h-589v589zM118 43h504v503h-504v-503z"></glyph><glyph glyph-name="blacksmallsquare" unicode="▪" d="M75 464h324v-325h-324v325z"></glyph><glyph glyph-name="whitesmallsquare" unicode="▫" d="M75 464h326v-325h-326v325zM118 182h240v239h-240v-239z"></glyph><glyph glyph-name="triagup" unicode="▲" d="M255 601l245 -601h-490z"></glyph><glyph glyph-name="triagrt" unicode="►" d="M676 291l-601 -245v490z"></glyph><glyph glyph-name="triagdn" unicode="▼" d="M80 589h490l-245 -601z"></glyph><glyph glyph-name="triaglf" unicode="◄" d="M601 536v-490l-601 245z"></glyph><glyph glyph-name="lozenge" unicode="◊" d="M261 -34h-109l-107 335l224 329h109l109 -329zM307 520l-148 -221l67 -227l149 227z"></glyph><glyph glyph-name="circle" unicode="○" d="M40 295q0 45 17 84.5t46.5 69.5t69.5 47t85 17t84.5 -17t69 -47t47 -69.5t17.5 -84.5t-17.5 -84.5t-47 -69.5t-69 -47t-84.5 -17t-85 17t-69.5 47t-46.5 69.5t-17 84.5zM87 294q0 -36 13 -67.5t36.5 -55.5t54.5 -37.5t67 -13.5q35 0 66 13.5t54.5 37.5t37 55.5t13.5 67.5 t-13.5 68t-37 56t-54.5 37.5t-66 13.5q-36 0 -67 -13.5t-54.5 -37.5t-36.5 -56t-13 -68z"></glyph><glyph glyph-name="blackcircle" unicode="●" d="M40 294q0 63 24 119t65.5 98t97.5 66t119 24t119 -24t98 -66t66 -98t24 -119t-24 -119t-66 -97.5t-98 -65.5t-119 -24t-119 24t-97.5 65.5t-65.5 97.5t-24 119z"></glyph><glyph glyph-name="whitecircle" unicode="◯" d="M40 294q0 63 24 119t65.5 98t97.5 66t119 24t119 -24t98 -66t66 -98t24 -119t-24 -119t-66 -97.5t-98 -65.5t-119 -24t-119 24t-97.5 65.5t-65.5 97.5t-24 119zM84 294q0 -55 20.5 -103.5t56 -84.5t83.5 -57t102 -21t101.5 21t83.5 57t56.5 84.5t20.5 103.5t-20.5 103.5 t-56.5 84.5t-83.5 57t-101.5 21t-102 -21t-83.5 -57t-56 -84.5t-20.5 -103.5z"></glyph><glyph glyph-name="anglebracketleft" unicode="〈" d="M121 -203l-76 439l229 432h162l-234 -437l71 -434h-152z"></glyph><glyph glyph-name="anglebracketright" unicode="〉" d="M260 668l76 -439l-229 -432h-162l234 437l-71 434h152z"></glyph><glyph glyph-name="lcedilla" unicode="" d="M213 -116q0 -48 -34.5 -71.5t-84.5 -23.5q-37 0 -66.5 10t-43.5 26l26 67q17 -18 33 -26t30 -8q31 0 31 24q0 28 -42 38l22 55l11 27q-74 26 -56 128l96 538h151l-90 -511q-3 -17 1 -29t27 -12q7 0 14 1.5t16 3.5l-24 -113q-19 -6 -39.5 -9.5t-39.5 -3.5h-4l-13 -30 q40 -6 59.5 -24t19.5 -57z"></glyph><glyph glyph-name="uni004500600323" unicode="" d="M436 0h-406l103 589h406l-23 -130h-254l-17 -98h223l-22 -125h-223l-19 -106h254zM262 645l65 150h184l-113 -150h-136zM111 -129q0 42 25.5 62.5t62.5 20.5q39 0 65 -20.5t26 -62.5q0 -41 -26 -61.5t-65 -20.5q-37 0 -62.5 20.5t-25.5 61.5z"></glyph></font>
</defs>
</svg>
